<?xml version="1.0" encoding="UTF-8"?>
<svg id="Layer_6" xmlns="http://www.w3.org/2000/svg" xmlns:xlink="http://www.w3.org/1999/xlink" version="1.1" viewBox="0 0 292.9 302">
  <!-- Generator: Adobe Illustrator 29.6.1, SVG Export Plug-In . SVG Version: 2.1.1 Build 9)  -->
  <defs>
    <style>
      .st0 {
        fill: none;
      }

      .st1 {
        fill: #f2bb1a;
      }

      .st2 {
        fill: #4f2f26;
      }

      .st3 {
        fill: #7c742f;
      }

      .st4, .st5, .st6 {
        fill: #010101;
      }

      .st7 {
        fill: #c480b7;
      }

      .st8 {
        fill: #638e9f;
      }

      .st9 {
        fill: #c69e81;
      }

      .st10 {
        fill: #b1742f;
      }

      .st11 {
        fill: #27153c;
      }

      .st12 {
        fill: #231f20;
      }

      .st13 {
        fill: #98554a;
      }

      .st14 {
        fill: #ddad6f;
      }

      .st15 {
        fill: #f1eef7;
      }

      .st16 {
        fill: url(#linear-gradient);
      }

      .st17 {
        fill: #9c5a25;
      }

      .st18 {
        fill: #25265d;
      }

      .st19 {
        fill: #af3e26;
      }

      .st20 {
        fill: #421436;
      }

      .st21 {
        fill: #825739;
      }

      .st22 {
        fill: #412c16;
      }

      .st23 {
        fill: #0a2f44;
      }

      .st24 {
        clip-path: url(#clippath-1);
      }

      .st25 {
        fill: #060606;
      }

      .st26 {
        fill: #79469b;
      }

      .st27 {
        fill: #3b3c8c;
      }

      .st28 {
        fill: #1e1811;
      }

      .st29 {
        fill: #e3bcd9;
      }

      .st30 {
        fill: #fff;
      }

      .st31 {
        fill: #14162a;
      }

      .st32 {
        fill: #62184e;
      }

      .st33 {
        fill: #1b4244;
      }

      .st34 {
        fill: #783123;
      }

      .st35 {
        fill: #78c8ce;
      }

      .st36 {
        fill: #251911;
      }

      .st37 {
        fill: #43231b;
      }

      .st38 {
        fill: #725547;
      }

      .st39 {
        fill: #a29934;
      }

      .st40 {
        fill: #266969;
      }

      .st41 {
        fill: #5b6a7d;
      }

      .st42 {
        fill: #4d55a4;
      }

      .st5 {
        stroke-width: .2px;
      }

      .st5, .st6 {
        stroke: #010101;
        stroke-miterlimit: 10;
      }

      .st43 {
        fill: #161412;
      }

      .st6 {
        stroke-width: .2px;
      }

      .st44 {
        fill: #272828;
      }

      .st45 {
        fill: #94674b;
      }

      .st46 {
        clip-path: url(#clippath);
      }

      .st47 {
        fill: #523936;
      }

      .st48 {
        fill: #4896a3;
      }

      .st49 {
        fill: #ddd52c;
      }
    </style>
    <clipPath id="clippath">
      <path class="st0" d="M242.9,61c-14.2-14.2-30.8-24.6-48.5-31.2-2.9-11.5-13.3-20.1-25.7-20.1s-17.1,4.6-21.9,11.6c-34.6,0-69.2,13.3-95.6,39.7-52.9,53-52.9,138.8,0,191.8,53,53,138.8,53,191.8,0s53-138.8,0-191.8h0Z"/>
    </clipPath>
    <linearGradient id="linear-gradient" x1="146.7" y1="55.4" x2="147.5" y2="326.6" gradientTransform="translate(0 301.9) scale(1 -1)" gradientUnits="userSpaceOnUse">
      <stop offset="0" stop-color="#d3c293"/>
      <stop offset=".7" stop-color="#f2ebd1"/>
      <stop offset=".8" stop-color="#f2ebd1"/>
      <stop offset=".9" stop-color="#f2ebd1"/>
    </linearGradient>
    <clipPath id="clippath-1">
      <polygon class="st0" points="379.1 302.2 -80.9 302.2 -63.9 224.4 362 224.4 379.1 302.2"/>
    </clipPath>
  </defs>
  <path class="st43" d="M215.5,82.5c-.8.4-1.8.6-2.7.6-.7,0-1.4,0-2.1-.4-.6-.3-.9-1-.7-1.6,0-.3.2-.6.3-.8.2-.4.3-.8.4-1.3,0-.2-.3,0-.3,0-.2.7-.4,1.3-.7,1.9-.2.4-.1.9.1,1.3.7,1.1,2.2,1.1,3.4,1.1.8,0,1.6-.3,2.4-.7.2,0,.1-.3,0-.2h0c0,0,0,0,0,0Z"/>
  <path class="st43" d="M218.8,80.1c.6,0,.7.8.7,1.2,0,.3,0,.5-.2.8-.3.3-.7.5-1.1.5-.5,0-1-.1-1.5-.3,0,0-.2,0-.2,0,0,0-.1.1,0,.1.5.2,1,.2,1.5.3.5,0,1-.2,1.4-.5.3-.2.5-.5.6-.9,0-.3,0-.7-.1-1,0-.3-.3-.6-.7-.6,0,0-.2,0-.2,0,0,0-.1.1,0,0h0c0,0,0,0,0,0Z"/>
  <g class="st46">
    <g>
      <circle class="st16" cx="147" cy="156.1" r="135.6"/>
      <polyline class="st38" points="-69.6 304 367.5 304 367.5 197.8 -69.6 197.8"/>
      <path class="st8" d="M175.8,76.3s-16.6,11.9-20.4,16.8c-4.8,6.3-1.9,32.8-3,39.5-1.2,7.4,1,23.8,1,23.8l20.8,2.3,6.3-26.3-5.2-57.5.4,1.4h0Z"/>
      <path class="st8" d="M259,159c-.2-.4-.5-.9-.7-1.3-2.3-4.5-5-8.9-8-13-3-4-5.5-7.6-6.9-12.6-3.5-12.6-1.5-43.8-9.2-46.3-1.6-.5-23.4-9.4-23.4-9.4l-.5-.4c1.3,1.2-6,8.8-6.8,9.6-5.3,5-12.4,10.9-19.9,6.8v1.7c.1,0-.4,9.1-.4,9.1l4.4,24.5c0-.3,1.5,8.6,2.6,12.6,4.2,15.1,15.4,53.7,16.9,56.2,1,1.8,3.1,2.8,5.1,2.6l47.3-28.2c2.4-1.4,1.6-4.3,1.3-7-.3-1.7-.9-3.3-1.8-4.9h0Z"/>
      <polygon class="st10" points="379.1 302.6 -80.9 302.6 -63.9 215 362 215 379.1 302.6"/>
      <g class="st24">
        <g>
          <rect class="st17" x="-85.7" y="243.9" width="477.3" height="6.9"/>
          <rect class="st17" x="-85.2" y="225.6" width="477.3" height="6.9"/>
          <rect class="st17" x="-88.2" y="261.4" width="477.3" height="6.9"/>
          <rect class="st17" x="-88" y="278.5" width="477.3" height="6.9"/>
        </g>
      </g>
      <rect class="st42" x="91.6" y="215.9" width="14.4" height="9.8"/>
      <polygon class="st18" points="106 225.7 109.7 223.8 109.7 214 106 215.9 106 225.7"/>
      <polygon class="st27" points="91.6 215.9 95.3 214 109.7 214 106 215.9 91.6 215.9"/>
      <rect class="st49" x="91.6" y="205.4" width="14.4" height="9.8"/>
      <polygon class="st3" points="105.9 215.3 109.6 213.4 109.6 203.5 105.9 205.4 105.9 215.3"/>
      <polygon class="st39" points="91.6 205.4 95.2 203.5 109.6 203.5 105.9 205.4 91.6 205.4"/>
      <path class="st9" d="M80,224c.7,4.3.8,8.7.4,13,8.4-1,36.7-1.8,36.7-1.8l-.7-7.9s-25.1-5.2-36.9-5.6c.2.8.3,1.5.6,2.3h0Z"/>
      <path class="st9" d="M116.2,234.7c.9.6,1.4,1,2.2,1.6s1.9.5,2.8-.6c.8-1.1,1.4-2.4,1.8-3.7.5-1.6.8-3.5,1.2-5.1.6-2.4,1.3-4.8,2.1-7.2.8-1.4,1.2-2.9,1.2-4.5,0-.3,0-.4,0-.6-.2-.4-.7-.6-1.1-.4-.1,0-.2.1-.3.2-.8.7-.5,2-1.3,2.6-.2.1-.3.2-.4.3-.2.3-.4.7-.5,1.1-.6,1.9-1.2,1.4-2.6,3.6-.4.6-5.3,4.3-5.8,4.9"/>
      <path class="st47" d="M106.4,79.7h0c0,0,.1,0,.1,0h-.1,0Z"/>
      <rect class="st42" x="47.2" y="252.1" width="14.4" height="9.8"/>
      <polygon class="st18" points="61.6 262 65.3 260.1 65.3 250.3 61.6 252.1 61.6 262"/>
      <polygon class="st27" points="47.2 252.1 50.9 250.3 65.3 250.3 61.6 252.1 47.2 252.1"/>
      <rect class="st19" x="115.9" y="198.7" width="14.4" height="9.8"/>
      <polygon class="st37" points="130.3 208.5 134 206.6 134 196.8 130.3 198.7 130.3 208.5"/>
      <polygon class="st34" points="115.9 198.7 119.6 196.8 134 196.8 130.3 198.7 115.9 198.7"/>
      <rect class="st48" x="131.7" y="198.6" width="14.4" height="9.7"/>
      <polygon class="st33" points="145.9 208.9 149.8 207 149.8 196.8 145.9 198.7 145.9 208.9"/>
      <polygon class="st40" points="131.7 198.6 135.4 196.8 149.8 196.8 146.1 198.6 131.7 198.6"/>
      <rect class="st49" x="123.6" y="188.8" width="14.4" height="9.8"/>
      <polygon class="st3" points="137.9 198.6 141.6 196.8 141.6 186.9 137.9 188.8 137.9 198.6"/>
      <polygon class="st39" points="123.6 188.8 127.3 186.9 141.6 186.9 137.9 188.8 123.6 188.8"/>
      <path class="st9" d="M240.9,222.4c1-2.4,2.6-4.4,4.8-5.8,1.7-1.2,4-.4,4.6-.2,4.5,1.5,7,4.9,10.7,7.7,2.8,2.1,5.9,3.9,9.1,5.4,3.3,1.4,6.8,2,10.1,3.3h0c1.6.6,3,1.8,3.9,3.3.3.6.6,1.1,1,1.6.5.7,1,1.2.6,2.1-.7,1.7-3.5-.1-4.3-.4-.2,0-.3,0-.5,0-1.9.2-3.9.2-5.8-.1-.3,0-.6,0-.9,0h0c-1.7-.1-11,0-12.4,0-2.7,0-9.6-.9-9.6-.9,0,0-11.1-.6-14.6,1.9l-5.4-12.9s7.8-2.9,8.5-5h0Z"/>
      <path class="st9" d="M226,208.9c1-2.4,2.6-4.4,4.8-5.8,1.7-1.2,4-.4,4.6-.2,4.5,1.5,7,4.9,10.7,7.7,2.8,2.1,5.9,3.9,9.1,5.4,3.3,1.4,6.8,2,10.1,3.3h0c1.6.6,3,1.8,3.9,3.3.3.6.6,1.1,1,1.6.5.7,1,1.2.6,2.1-.7,1.7-3.5.9-4.3.6-.2,0-.3,0-.5,0-1.9.2-3.9.2-5.8-.1-.3,0-.6,0-.9,0h0c-1.7,0-9.2.3-10.6.3-2.7,0-11.4-2.1-11.4-2.1,0,0-11.2-.6-14.6,1.9l-5.4-12.9s7.8-2.9,8.5-5h0Z"/>
      <path class="st2" d="M241.2,222.4c.6-1.7,1.7-3.2,3-4.4.7-.8,1.6-1.4,2.5-1.8.9-.2,1.8-.1,2.7.1,3.3.9,5.8,3.2,8.3,5.4,2.7,2.3,5.5,4.3,8.6,6.1.2.1.8-.1.5-.3l-4.7-3c-2.4-1.5-4.4-3.6-6.6-5.4-2.2-1.8-5.5-3.9-8.5-3.4-1.3.3-2.5,1.1-3.4,2.1-1.4,1.2-2.4,2.8-3.1,4.5-.1.3.5.3.6,0h0Z"/>
      <path class="st23" d="M216.3,171.5l10.8,40.8-13.9,2.6,1.2,27.4s-71,.1-75.2-5.6c-7.4-10.3-7.3-16.3-3.3-23.6,7.3-13.3,58.2-43.8,59.2-43.2l21.1,1.6h0Z"/>
      <path class="st9" d="M190.9,55.1c.4,3,1.1,5.9,2.2,8.7,1.8,4.1,5.2,7.2,9.5,8.5l-22.3,21-11-6.8s3.8-5.2,3.6-6.7-5.3-11-5.3-11"/>
      <path class="st23" d="M226.6,184.3l16.5,34.6.3.9h0c2.4,5.4,6.7,13.4,6.7,19.4v5.4s-80.7,21.8-97.1,9.3c-9.9-7.5-8.1-15.9-4.5-23.4,6.6-13.6,55.7-49.7,57.4-49.8h0l20.6,3.6Z"/>
      <path class="st23" d="M263.9,175.9s-9.2,6.1-24.3-1.5c-4.9,3.1-9.9,6-15.1,8.5-9.7,4.8-19.8,9-29.3,14.1,7.3,6.5,20.5,17.7,28.9,22.5,11.1,6.4,25.6-1,34.9-9.8,3.8-3.6,10.9-21.2,4.8-33.8h0Z"/>
      <path class="st41" d="M243.4,219.6c-16.9,3.9-33.9,8.1-50.9,11.4-2.7.5-7.2.9-7.9,4.1,0,.2.8.1.8-.1.7-3,5.1-3.2,7.6-3.7,3.7-.7,7.3-1.5,11-2.3,9.5-2.1,19-4.3,28.5-6.4l11-2.5c.5-.1.4-.4,0-.3h0Z"/>
      <rect class="st14" x="159.7" y="29.4" width="3.8" height="10" rx="1.8" ry="1.8" transform="translate(-3.6 38.3) rotate(-13.4)"/>
      <rect class="st14" x="173.1" y="38.3" width="3.8" height="10" rx="1.8" ry="1.8" transform="translate(22.6 139.6) rotate(-46.2)"/>
      <path class="st21" d="M191,55.8h0c0,0,0,0,0,0Z"/>
      <path class="st9" d="M178.9,75.2l-6.6,2.9-3.1.9c-1.3.4-2.7,0-3.6-.9-2.1-2.2-2.9-3.4-3.1-3.6-1.7-1.7-3.2-3.5-4.6-5.4-1.2-1.5-2.3-3.1-3.2-4.8-.9-1.8-1.2-3.7-1.1-5.7,0-.8-.2-1.5-.6-2.1-.9-1.4-1.6-3.2-2.7-5.1-.2-.3-.4-.7-.5-1.1,0,0-3.1-8.5-2.6-12.1s1.1-7.2,3.1-8.5c2-1.3,10.2-1.6,10.2-1.6l8.8-4.3,9.1,1.4,7.1,8.3,3,11.2,2.5,11.1"/>
      <path class="st4" d="M181.4,29.4c-1-5.1-6-5.6-8.1-5.8-1.8-.2-6.6-.2-9.7,1.3-1.3.6.3,3.4-.3,4.1-.2.1-2.8,1.7-3.9,2.2-1.3.8-2.8,1.2-4.2,1.5-.9,0-1.7.1-2.5.5-1.4.7-3.1-2.7-5,1.6h-.2c2.1-6.2,7.1-7.7,12.6-10.4.6-.3,1.2-.6,1.8-.8,9.1-3.6,8.8-3.5,16.8.7,4.6,2.5,7.8,5.2,8.4,7.4v.5c.8,2.3,5,7.6,4.6,9.1-.3,1-.8,4.9-1.1,8.3l-4.4,1.5c-.2-.9-2.1-8.1-2.3-9"/>
      <path class="st9" d="M190.8,56c4.7,2.3,3.5-3.8,3.5-3.8,1.1-3,.9-6.3-.4-9.2-.8-2.2-3.3-1.3-3.3-1.3-2,.9-2.9,1.8-2.3,9.2"/>
      <path class="st4" d="M153.4,30.8c3.3-1.1,11.3-6.2,15.7-7.9,1.8-.7,9.6,1.9,10.7,2.7,2.6,1.8.1,8.7,5.7,15.4,1.9,2.2,1.9-2.7,3.8-1.5s2.6,1.8,2.6,1.8c-1.4-7.7-1.3-7.4-5.2-14.1-3.9-6.8-12.9-7.4-16.9-6.7s-15.9,5.7-18.7,8.3"/>
      <path class="st31" d="M190.4,49.6c.1-1.4.4-2.7.9-4,.2-.5.5-1,.9-1.4,0,0,0,0,.1,0h-.2c.2.2.5.4.6.7.4.7.7,1.5.8,2.3,0,0,.4,0,.4-.2,0-1-.4-1.9-1-2.7-.1-.1-.2-.3-.4-.4,0,0-.2,0-.3,0-.6.3-1,1.2-1.2,1.8-.4,1.2-.7,2.5-.8,3.8,0,0,.3,0,.3-.1,0,0,0,0,0,0Z"/>
      <path class="st31" d="M191.1,50c.6-.2.8.9.9,1.4s.2,1.4.7,1.2c.3,0,.4-.3.4-.6,0-.5,0-1,0-1.5,0-.7-.2-1.3-.5-1.9-.3-.7-.9-1.5-1.7-1.6-.1,0-.4.2-.2.2.7,0,1.2.8,1.5,1.4.2.4.4.9.5,1.4.1.6.2,1.2.2,1.7s0,.3,0,.5c0,0,0,.1,0,.2h0c0,0,0,0,0,0s0,0,0,0c-.1-.2-.2-.4-.2-.7,0-.3,0-.6-.2-1,0-.3-.2-.6-.4-.8-.2-.2-.5-.2-.8,0-.2,0-.1.2,0,.2h0c0,0,0,0,0,0Z"/>
      <path class="st4" d="M162.3,43.5c.2.5.4,1,.6,1.6s.4,1.3.6,1.7c1.3-.8,2.3-1.8,3.2-2.2,1.6-1,3.4-1.8,5.2-2.3.9-.2,1.7-.2,2.6,0,.3,0,1.1.4,1.4.1.1-.1-.3-.7-.4-.7-.9-1.1-2.3-1.2-3.9-1-3.2.5-6.3,1.5-9.2,3"/>
      <path class="st4" d="M149.1,49.4l.7-.5c1.9-1.5,4.1-2.5,6.4-3l.6,1.5c.2.4.5,1.1.6,1.5-1.1.1-2.1,0-2.9.2-1.4.2-2.8.6-4,1.3-.1,0-.6.4-.7.5-.7-.5-1-1.3-.9-1.5h0Z"/>
      <path class="st15" d="M167.4,66c1.2-.4,4.8-2,4.8-2,0,0-.8,1.8-4.5,3.2s-5.3.5-5.3.5l4.9-1.7Z"/>
      <path class="st4" d="M167.1,79.7l-1.2-1.1s12.3-2.2,14.4-3.6c5.5-3.8,7.2-14,7.2-14-.1,3.1-.9,6.1-2.1,8.9-2.1,4.9-2.8,5.6-6.4,6.8-2.7.9-7.7,2.6-9.9,3.4-.7.2-1.5,0-2.1-.4h0Z"/>
      <path class="st4" d="M193.6,42.5c.3-3.5-.1-7-1.3-10.4-1.9-6-5-14-13-15-1.4-.2-2.9-.1-4.3.1,0,0-6.1-3.3-18.3,3.3-8.5,4.7-10.9,9.5-9.4,16.7,0,0,1.3-4.4,2.2-4.3s2.1,1.7,5.3,1,7.8-2.8,9.4-4.7,4.8-4.4,7-4.8c5.3-1,7.1,2.7,8.2,4.8,1.1,2.1,4.9,9.7,7.8,9.9,1.6,0,3,1,3.6,2.4h.5c.8,0,1.5.3,2.2.8h0,0Z"/>
      <path class="st4" d="M187.6,61.1c-3.5,8.5-6.3,11.5-8.4,12.4s-3.5,2.1-5.3,1.9c-2.1-.2-3-1-3.4-.4-.2.2-.6,1.6-.7,1.9-.7.5-1.5.7-2.3.7-1.4,0-2.8-.6-3.8-1.6,1,1.2,2.1,3.1,3.6,3.3,1,0,2.1-.2,3-.7,2-.6,4-1.2,6-1.8,1.8-.4,3.5-1.2,5.1-2.2,2.5-1.9,4.3-6.6,5.3-9.7l1-3.9h0Z"/>
      <path class="st43" d="M165.9,61.7c-.9.9-2.1,1.3-3.3,1.1-.3,0-.6-.2-.8-.3-.3-.2-.4-.5-.5-.8,0-.6,0-1.2,0-1.8,0-.1-.3,0-.3,0,0,.7,0,1.4,0,2.1.2.6.8,1.1,1.5,1.1,1.3.2,2.6-.3,3.6-1.2.1-.1-.1-.2-.2-.1h0s0,0,0,0Z"/>
      <path class="st43" d="M168,59.1c.2,0,.4.2.4.3.1.2.2.4.3.6,0,.2,0,.4,0,.6-.2.3-.4.5-.7.6-.4.1-.9.2-1.3.2,0,0-.1,0-.2,0h0c.5,0,.9,0,1.4-.2.4-.1.7-.3,1-.6.2-.2.2-.5.2-.8s-.2-.5-.3-.7c-.2-.2-.5-.3-.7-.2,0,0-.1,0-.1,0s.1,0,.1,0h0c0,0,0,0,0,0Z"/>
      <path class="st41" d="M145.6,239.2c.1-4.7.2-9.4,1.6-13.9,1.3-3.8,3.5-7.2,6.4-9.9,2.7-2.9,5.7-5.4,8.9-7.7,4.1-2.8,8-5.8,12-8.7,4.7-3.6,9.5-6.9,14.6-9.9.5-.3,0-.7-.4-.5-9,5.4-17.1,12.1-25.7,18.1-3.2,2.2-6.3,4.7-9.1,7.5-2.8,2.8-5.4,5.8-6.9,9.4-2,5-2.1,10.5-2.2,15.8,0,.4.8.3.8,0h0Z"/>
      <circle class="st1" cx="13.2" cy="253.5" r="16.7"/>
      <path class="st26" d="M-1.8,246.1c5.9,7.1,16.4,8.2,23.6,2.3,1.9-1.5,3.4-3.4,4.4-5.6-5.9-7.1-16.4-8.2-23.6-2.3-1.9,1.5-3.3,3.4-4.4,5.6Z"/>
      <path class="st26" d="M29.5,257.3c-3.1,5.5-9.5,9.3-16.9,9.3-5.6,0-11-2.1-14.9-6.1,0,0,3.9,10.4,16.9,9.8,13-.6,15-13,15-13h0Z"/>
      <path class="st9" d="M71.8,241.1c2,1.4,4,2.7,6,4,10.4,1.1,36.4,4.1,36.4,4.1l4.4-7.7s-40.4-14.6-44.8-12.8c-2,.8-5.4,3.6-8.8,7.4,2.2,1.7,4.5,3.4,6.8,5h0Z"/>
      <path class="st9" d="M111.3,248.5c1.4.9,2.6,1.9,3.7,3.1.7.7,1.3,2.5,2.6,1.9,2.1-1.1,3.2-3.6,3.8-4.3,1.4-1.5,2.3-2.9,3.8-4.3,1.2-1,2.3-2.1,3.1-3.5.2-.2.3-.5.4-.9v-.6c.1-.7.8-1.2,1.2-1.8.1-.3.2-.6.3-.9.2-.8.6-1.6.9-2.4.4-.8.5-1.6.5-2.5,0-.8-.6-1.5-1.3-1.4-1.1.1-1.2,1.2-1.8,2.1-.4.6-1,1.2-1.7,1.6-1.9,1.4-2.2,1.6-3.8,2.8-2.4,1.4-4.8,2.7-7.3,3.8l-4.5-2.3"/>
      <path class="st2" d="M129.2,239.7c0-.3,0-.6-.3-.8-.2-.1-.5-.2-.8-.1-.6.2-1.1.5-1.5.9,0,0-.1.1,0,.2,0,0,.2,0,.3,0,.4-.3.8-.6,1.2-.8.2,0,.3,0,.5,0,.2.1.3.4.3.6,0,.1.1.1.2.1,0,0,.2,0,.2-.1h0s0,0,0,0Z"/>
      <path class="st2" d="M130.3,237.9c.4-.7-.5-1.3-1.1-1.2-.5,0-1,.3-1.3.7-.4.2-.7.5-1,.9-.1.2.3.1.4,0,.2-.3.5-.5.8-.7.3-.3.6-.5,1-.6.4,0,1.2.5.9,1-.1.2.3.1.4,0h0s0,0,0,0Z"/>
      <path class="st2" d="M130.8,236.3c0-.4,0-.8-.4-1-.3-.2-.7-.2-1.1-.1-.4.1-.8.3-1.1.5-.3.2-.7.5-.9.8,0,0,0,.1.1.1s.2,0,.3-.1c.2-.2.5-.5.8-.7.2-.2.5-.3.8-.4.2-.1.5,0,.7,0,.3.2.4.6.3.9,0,.1.4,0,.4,0h0Z"/>
      <path class="st2" d="M131.4,234.8c.1-.5,0-1-.3-1.3-.3-.3-.8-.3-1.2-.2-.4.2-.8.4-1.2.7-.2.1-.3.3-.5.4-.2.1-.4.3-.5.5,0,0,.2,0,.2,0,0,0,.2,0,.2-.1.1-.2.3-.3.4-.4l.4-.3c.3-.3.6-.5,1-.6.3-.1.6,0,.8.2.3.3.4.8.3,1.2,0,0,.4,0,.4,0h0s0,0,0,0Z"/>
      <path class="st22" d="M90.9,232.6c3.2,1.1,9,2.2,12.2,3.4.2,0,.6-.2.3-.3-3.2-1.1-9-2.2-12.2-3.4-.2,0-.6.2-.3.3Z"/>
      <path class="st7" d="M33.9,218.4s-5.1,12-3.5,21.4,10.1,11.8,18.1,10.9c12.7-1.5,35.8.6,39.5,1.6s2.1-8.9,0-10.4-.2-6.4,1.6-6.9,4.2-3.6,3.4-5.3,1.2-3.3,1.2-3.3c0,0,1.2-2.9-2.7-4.9s-25.5-9.7-25.5-9.7l-32,6.7h0Z"/>
      <polygon class="st40" points="46.8 241.8 50.5 240 64.9 240 61.2 241.8 46.8 241.8"/>
      <rect class="st48" x="46.8" y="241.8" width="14.4" height="9.7"/>
      <polygon class="st33" points="61.2 251.5 64.9 249.6 64.9 240 61.2 241.8 61.2 251.5"/>
      <rect class="st19" x="46.9" y="231.4" width="14.4" height="9.8"/>
      <polygon class="st37" points="61.3 241.2 65 239.3 65 229.5 61.3 231.4 61.3 241.2"/>
      <polygon class="st34" points="46.9 231.4 50.6 229.5 65 229.5 61.3 231.4 46.9 231.4"/>
      <path class="st12" d="M23.6,173.1l1.5-4.6c0-.2-.7-.1-.8.1l-1.5,4.6c0,.2.7.1.8-.1Z"/>
      <path class="st12" d="M24.7,174.2c.5-1.4,1-2.7,1.6-4.1.2-.4-.6-.3-.7,0-.6,1.4-1.2,2.8-1.7,4.2,0,.2.2.2.4.2.2,0,.4-.1.4-.3,0,0,0,0,0,0Z"/>
      <path class="st12" d="M85.6,167.6l-3-3.5c-.2-.2-.9,0-.7.3l3,3.6c.2.2.9,0,.7-.3h0Z"/>
      <path class="st12" d="M84.7,169.3l-3-2.9c-.2-.1-.4-.2-.5,0-.1,0-.3.3-.2.4l3,2.9c.2.1.4.1.5,0,.1,0,.3-.3.2-.4h0q0,0,0,0Z"/>
      <path class="st12" d="M99.6,165.8v-6.1c0-.2-.8,0-.8.2v6.1c0,.2.8,0,.8-.2Z"/>
      <path class="st12" d="M101.6,165.6v-4.8c0-.2-.8-.1-.8.2v4.8c0,.2.8.1.8-.2Z"/>
      <path class="st12" d="M6.7,168.3c.5-1.5.8-3.1.8-4.7,0-.4-.8-.2-.8,0,0,1.6-.4,3.2-.8,4.7,0,.3.7.2.8,0h0Z"/>
      <path class="st12" d="M5.2,168.4c0-1.4.1-2.7.4-4,0-.2-.2-.3-.4-.3-.2,0-.4.1-.4.3-.3,1.3-.4,2.7-.4,4,0,.4.8.3.8,0h0Z"/>
      <path class="st8" d="M196.7,68.5l1.5.4c5.6.3,23.6.2,28.4,3,11.2,6.4,2.8,24.3,3.9,29.6.5,2.6-3.5,28.4,3.9,41.8,4.9,8.9,9.2,18.2,13,27.6l-14.6,7.6c-7.1,3.7-20-2.5-27.9-.9l-20.2,1.2c-3.1-10-5.2-9-8.8-22.3l-14.1-39-.6-20.4s4.8-5.7,4.9-6.8l7-10.5s-.4,8.9,7.6,7.2c8.3-1.8,10.1-3.8,14.4-10.5,0,0,1.9-5.3,1.6-8.2h0Z"/>
      <path class="st8" d="M263.2,165.4c2,1.6,2.3,5.7,2.2,7.9,0,.7-1,1-1.2,1.6-.5.8-1.3,1.4-2.2,1.7-4.7,2.5-9.6,4.6-14.7,6.2-9.9,3-20.5,2.9-30.9,2.6-10.4-.3-20.9-.7-30.9-3.3-1.8-.5-5-1.1-5.1-3-.1-2,1.6-7.1,3.5-7.7,5-1.6,11.8.6,16.9-1"/>
      <path class="st9" d="M119.6,111.3s-5.7-12.9-6.4-14.4c-.7-1.3-11.4-8.7-14.3-10.8h0c-.9,1.3-.8,3.1.3,4.2,2.5,2.7,7.5,7.6,7.5,7.6-.6.4-1.3.7-1.9,1-4.6-.3-4.6,2-4.6,2-.7.5-1.3,1.1-1.7,1.9-1.3,1.9,1,4.1,1,4.1,0,0-1.1,0-1.5,2.5-.4,2.4,4.1,1.9,4.1,1.9,0,0-.5,0,2.3,4.3s8.6,4.8,8.6,4.8l6.2,10.5,10.8-8.4-10.2-11.2h0Z"/>
      <path class="st9" d="M232.6,168.6l6.2-3.7s-3.4,0-3.3-1.9c0,0,8.4-4.1,9.2-3.9s4,.9,4,.9c1.1.8,2.7.6,3.8,1.3s1.8-.2,3.1-.2c.6-.1,1.2,1.7,1.7,1.4l8.5-36.2s-4.8,8.3-4.3,8.5,6.5,23.9,2.9,35.8h0c-.4.7-1.7,3.2-2.9,3.9-4.2,2.5-11.4-.9-11.4-.9h-2.2c0,.1-7.6,3.7-8.9,1.3l-.3-.7,7.4-3.9,3-.7h-5.6c0,.1-7.3,2.7-8,2.8s-1.9-.7-1.9-1.4l.9-1s-1.5-.4-1.9-1.5h0Z"/>
      <path class="st22" d="M249.5,165.8c-1.4-.4-2.8-.7-4.2-.8-1.2-.2-2.4-.1-3.5.3-2.6,1.3-5,2.8-7.3,4.5-.2.2.2.1.3,0,2-1.4,4.1-2.7,6.2-3.9.6-.4,1.2-.7,2-.8.7,0,1.4,0,2.2.1,1.4,0,2.7.3,4,.7.1,0,.4-.2.4-.2h0Z"/>
      <path class="st22" d="M249.2,163.4c-.4-.3-.8-.5-1.2-.6-.4-.2-.9-.3-1.3-.4-.9-.1-1.8-.1-2.8,0-1.9.3-3.6,1.1-5.1,2.2-.2.2.2.3.3.1,1.4-1,3-1.7,4.7-2,1.2-.3,2.5-.2,3.6.2.5.1.9.3,1.4.6.1.1.5,0,.4-.2h0Z"/>
      <path class="st8" d="M170.2,143.4c-8.2-.2-9.1-1.8-9.1-1.8l-40.8-29.2h0c-2.1,5.1-4.7,8.8-9.3,11.7l.4,1s22.4,26.1,33.3,35.5c2.3,2,10.1,10.9,20.1,8.5,8.9-1.7,11.5-14.6,12.8-16.6"/>
      <path class="st11" d="M152.3,135.2c4.8,3,11.5,7.4,11,13.9,0,.3.6.1.7-.1.5-6.6-6.3-11.1-11.2-14.1-.2-.1-.8.2-.4.4h0Z"/>
      <path class="st11" d="M158.9,112.7c4.7,12.3,9.3,24.7,13.8,37.1,1.1,3,2.2,6,3.2,9.1,0,.2.7,0,.6-.2-4.5-12.9-9.3-25.6-14.1-38.3-1-2.6-2-5.2-3-7.8,0-.2-.7,0-.6.2,0,0,0,0,0,0Z"/>
      <path class="st22" d="M104.2,99.1c-.1.7,0,1.3.2,2,.2.6.4,1.2,1.1,1.2.1,0,.2,0,.3-.1,0,0,0,0,0-.1-.6,0-.8-.8-1-1.3-.2-.6-.2-1.2-.1-1.8,0,0-.4,0-.4.1h0,0Z"/>
      <path class="st22" d="M99.9,100.8c.2,1.4.9,2.7,2,3.5.1,0,.5-.1.4-.2-1.1-.8-1.8-2.1-2-3.5,0-.1-.4,0-.4.2Z"/>
      <path class="st22" d="M99.3,107.1l2.8,1c.8.4,1.7.5,2.5.5.6,0,1.1-.4,1.3-1,.2-.8-.6-1.4-1.2-1.8-.1,0-.5.1-.4.2.5.4,1.2.9,1.2,1.6s-1,.9-1.6.8c-.7-.2-1.4-.4-2.1-.7l-2.3-.8c-.1,0-.5.2-.3.2h0Z"/>
      <path class="st22" d="M101.9,111.5c.7,0,1.4,0,2-.4.3-.2.6-.5.7-.9,0-.4-.3-.8-.6-1s-.8-.7-1.3-1c-.2-.1-.5.2-.3.3.4.3.9.7,1.3,1,.2.1.4.3.5.5.1.2,0,.4-.2.6-.5.5-1.3.7-2,.6-.2,0-.4.3,0,.3h0,0Z"/>
      <path class="st22" d="M114.1,113.5c-1.8-.4-3.5-1.3-4.8-2.7-.8-.8-1.2-1.8-1.2-2.9s0-2.2,0-3.4c0-.1-.2,0-.3,0-1.1.6-2.2.9-3.4,1-.6,0-1.2-.3-1.6-.8-.6-1,1.1-1.4,1.7-1.7,1.4-.7,2.8-1.5,4-2.4,1.5-.9,3.9-1.3,4.9.6,0,.2.5,0,.4-.2-1.2-2.2-3.9-1.6-5.7-.5-1.2.9-2.5,1.6-3.9,2.3-.9.2-1.8.8-2.3,1.6h0c.6,1,1.6,1.6,2.7,1.5,1.1-.2,2.2-.5,3.2-1h-.3c0,1.2-.1,2.6,0,3.9.1.9.5,1.8,1.2,2.5,1.3,1.4,3.1,2.4,5,2.8.2,0,.5-.2.2-.3h0c0,0,0,0,0,0Z"/>
      <path class="st36" d="M166.9,65.5c2.1-.7,7.2-.8,8.4-.3,0,0-1.9,2.4-6.8,3.9s-6.2,0-6.2,0c0,0,2-2.9,4.7-3.8Z"/>
      <path class="st30" d="M173,64.9s-2.6.6-4.6,1.2-4.5,1.6-4.5,1.6c0,0-.8-1.4,2.9-2.5,2-.7,4.2-.8,6.2-.2h0Z"/>
      <path class="st45" d="M168.3,68.7c2.2-1,4.3-2.8,7-3.5,0,0,.2,3.5-5.6,5.3s-7.5-1.3-7.5-1.3c2.6-1,3.7-.2,6.1-.5h0Z"/>
      <path class="st45" d="M164,65.1c.9-.2,1.7-.4,2.6-.4.8-.5,1.6-.9,2.4-1.1,1.2-.3,6.8,1,6.4,1.6-.4.5-4.2-.2-7.9.9s-4.9,3.4-5.5,3.2.9-3.7,2-4.1Z"/>
      <path class="st4" d="M166.9,63.2l.3.7c0,.2.2.3.4.3,1.3,0,6.3,0,7.5-.2h.1s.1,0,.1,0c.4-.2.2-.7-.2-.8-1.1-.2-2.2-.4-3.3-.5-1.5-.1-3-.1-4.5,0-.2,0-.4.3-.4.5h0s0,0,0,0Z"/>
      <path class="st4" d="M165.1,63.8l.4.7c0,.2,0,.3-.1.5-.9.7-3.6,3.2-4.4,3.7l-.4.2h-.2c-.4.2-.4-.7-.2-1,.5-.7,1-1.4,1.6-2,.9-.9,1.8-1.6,2.8-2.3.2,0,.4,0,.5.2,0,0,0,0,0,0h0Z"/>
      <path class="st9" d="M96.6,194.8c-.9-1.6-1.7-3.2-2.4-4.9-.6-1.6-1-3.2-1.1-4.9-3.4-1.3-13.1-5.1-16.4-5.6-4.1-.7-6.7-1.1-6.7-1.1l6,14.6s15.7,6.8,23,5c-1-.9-1.8-1.9-2.5-3h0Z"/>
      <path class="st7" d="M72.3,195.1l9,1.7c.2.2,1.3-15.8,1.3-15.8,0,0-11.9-5.1-14.8-5.4-3.4-.4-10.9,1.1-10.9,1.1l15.3,18.3h0Z"/>
      <path class="st44" d="M69.2,157.8s-1.7,2.6-.2,3.8l-9.5.7c-.9-1-1.2-2.4-.7-3.7.9-1.9,10.4-.8,10.4-.8h0Z"/>
      <path class="st5" d="M44.8,170.4c6.8,1.5,14.1-2.1,19-6.6,3-2.5,5.1-6,6-9.8.5-3.4.2-6.8-.8-10.1-.6-2.9-2.1-5.5-4.2-7.5-2.2-1.9-5-3.2-7.9-3.7-.9-.1-1.7-.3-2.6-.4-7.8-.8-17.9,2.5-21.3,9-.3.6-.6,1.2-.8,1.9-.2.6-.4,1.3-.5,1.9-.5,8.7-.7,23.3,11.8,23.4.8,0,1.3.7,1.3,1.4,0,.1,0,.3,0,.4h0Z"/>
      <path class="st9" d="M70,162.4c0-2.2-.3-4.3-1.1-6.3,0-.9,0-2.1-.1-3.4,0-.4,0-.7,0-1.1,0-.2,0-.4,0-.6-.6-6.4-2.9-9.8-2.9-9.8-3-4.1-8-6.4-13.1-5.9-5.6.6-10.6,3.6-13.8,8.2-1.3,1.9-1.8,4.2-1.5,6.4.3,2.1.8,4.2,1.5,6.2-2.1,0-4.7.8-3.8,4.6,1.4,5.2,5.4,5.5,7.1,4.3,1,1.6,1.7,3.4,1.9,5.2.2,1.5.4,4.1-.3,5.4l-2.4,1.4c5,7,19.4,11.2,23.5-.2l-3.8-1.4-.2-1.5c1.2-.1.3,0,2.5-.8,6.5-2.9,6.5-8.3,6.6-10.7h0Z"/>
      <path class="st2" d="M61,175v-1.1c-.1,0-6.4,1.1-11.1-2.1,0,0,3.3,3.1,6.8,3.4s4.3-.1,4.3-.1h0Z"/>
      <path class="st4" d="M41.4,158c0,.2,0,.3,0,.5-.1.2-.4.3-.6.2-.2,0-.4-.2-.6-.4-1.2-1-2.8-2.5-4.3-2-2.5-5.2-2-11.3,1.2-16.1,1-1.6,3.6-3.2,4.4-3.8,4.8-3.2,9-3.3,14.2-2.6,7.7,1.1,8.5,2.6,11.3,9.1,0,0-6.1,3.3-16.7-1.2.3,0-1.5,3-1.6,3.1-.8,1-1.6,1.8-2.6,2.6-1.1.7-2.5,1-3.5,1.8-.7.8-1.2,1.8-1.2,2.9v5.9c0,0,0,0,0,0Z"/>
      <path class="st4" d="M69.1,153.3c-.9-.4-1.8-.6-2.8-.4-2,.3-2.8,2.9-2.8,2.9.6-1.2,1.7-2,3-2.4.9-.1,1.8,0,2.7.4,0-.2,0-.4,0-.6Z"/>
      <path class="st28" d="M57.5,152.5s-4.5-2.7-6-2.3c0,0,1.4-.9,5.4,1.1,0,0,1.8,1.3.5,1.2Z"/>
      <path class="st28" d="M63.5,152.8s3.8-3.6,5.4-3.5c0,0-1.6-.6-5.1,2.2,0,0-1.5,1.6-.3,1.3h0Z"/>
      <path class="st12" d="M37.2,160.8c-.3-.6-.4-1.4,0-2.1h-.2c0,.1,0,.1,0,.1.2,0,.3.1.5.3.8.6,1.5,1.4,2,2.3l.3-.2c-.2-.2-.5-.2-.8-.2-.3,0-.5.4-.5.7,0,.9.8,1.2,1.5,1.3.2,0,.4-.2.1-.2-.6,0-1.2-.4-1.3-.9,0-.1,0-.5.1-.6s.4,0,.5.2.4,0,.3-.2c-.4-.6-.9-1.2-1.4-1.8-.3-.3-.6-.5-.9-.7-.2,0-.3-.1-.5-.2-.2,0-.3.1-.3.3-.2.7-.2,1.4.1,2,0,.1.4,0,.4-.1h0Z"/>
      <path class="st6" d="M32.9,143.2s-3.7-7.1-9.6-4.6-5.4,12.2-.8,15.7c0,0-1.5-5.6-.2-6.3,0,0,1.1,2.5,2.5,3,0,0-1.5-6.1,2.5-6.2,1.8,0,3.5.3,5.1.9"/>
      <path class="st29" d="M41.1,148.8c-.3.8-1.8.8-2.5.5s-.7-1-.4-1.8.7-1.3,1.4-1,1.8,1.5,1.5,2.2h0Z"/>
      <path class="st29" d="M41,148.7c-.3.8.8,1.9,1.5,2.2s1.1-.2,1.4-1,.3-1.4-.4-1.8-2.2-.3-2.5.5h0Z"/>
      <path class="st43" d="M60.6,162c.9.3,1.9.3,2.8,0,.7-.3,1.1-1,1.1-1.7,0-.4-.2-.8-.6-1.1,0,0-.3,0-.2.1.3.3.5.7.5,1.1,0,.5-.2.9-.6,1.2-.4.2-.8.4-1.2.4-.6,0-1.1,0-1.7-.2,0,0-.3.1-.2.1h0c0,0,0,0,0,0Z"/>
      <path class="st43" d="M58.3,160.8c-.2,0-.4.1-.5.3,0,.2,0,.4,0,.6,0,.2.1.4.3.5.4.2.9.2,1.4,0,.2,0,.4-.2.6-.2,0,0,.1,0,.1,0s-.1,0-.1,0h-.4c-.1.2-.3.3-.4.3-.1,0-.3,0-.4,0-.1,0-.3,0-.4,0-.2,0-.3-.2-.4-.4,0-.2,0-.3,0-.5,0,0,0-.2,0-.3,0,0,0,0,0-.1h0s.1,0,.2,0,0,0,0,0h0c0,0,0,0,0,0Z"/>
      <path class="st36" d="M62,164.7c-1.6.2-3.1.7-4.4,1.6,0,0,1.1,2,4.3,1.8,3.2-.2,3.8-2.1,3.8-2.1-1.1-.8-2.3-1.2-3.6-1.3h0Z"/>
      <path class="st30" d="M58.3,165.8s1.6-.2,3-.3,3,0,3,0c0,0,.2-1.1-2.2-.9-1.3,0-2.6.5-3.7,1.2Z"/>
      <path class="st13" d="M62.1,167.8c-1.5-.1-3.1-1.5-4.8-1.2,0,0,.6,3,4.4,2.7s4.1-3.3,4.1-3.3c-1.8,0-2.2,1.5-3.7,1.8h0Z"/>
      <path class="st13" d="M63.6,163.8c-.5,0-1.1.2-1.6.4-.5-.1-1.1-.2-1.7-.1-.7.1-3.4,2.4-3,2.6s2.3-1.5,4.7-1.6,3.3,1.5,3.7,1.3-1.4-2.4-2.1-2.5h0Z"/>
      <path class="st22" d="M59.9,154.4c.4-.2.7-.7.8-1.2,0-.6-.4-1.1-.9-1.5,0,0-.3,0-.2.1.5.3.8.8.9,1.4,0,.5-.3.9-.8,1.2h0c0,0,.1,0,.2,0h0s0,0,0,0Z"/>
      <path class="st35" d="M54.8,154.4c-.7.7-1.5,1.7-1.3,2.7.3,1,1.3,1.7,1.1,2.6s-1.2,1-1.8,1.5c-.5.5-.7,1.2-.4,1.8.3.5.6,1,1.1,1.4.5.4.6,1.1.5,1.7-.2.3-.5.6-.8.9-.8.8-1.3,1.9-1.2,3,0,1.1.4,2.3,1,3.2l-2.9-1.4c-.5-.2-.9-.5-1.3-.9-.7-.9-.7-2.1-.1-3,.3-.5.8-1.1.6-1.7,0-.2-.2-.4-.4-.6-.9-1.2-.8-2.9.1-4,.2-.2.5-.5.7-.8.5-.8.2-1.9.3-2.9,0-2.4,2.1-4.3,4.5-4.2.2,0,.5,0,.7,0"/>
      <path class="st4" d="M58.1,156s-2.1-2.6-4.4-2.2c-3.2.4-3.6,2.6-4.2,3.6,0,0,1.8-2.8,4.3-3.1,2.2-.2,4.2,1.7,4.2,1.7Z"/>
      <path class="st35" d="M70.2,162.5c0-2.2-.3-4.3-1.1-6.3,0-.7,0-1.5,0-2.4-.5-.2-1-.2-1.6-.2v.6c.8.8,1.5,1.9,1.1,2.8s-1.5,1.5-1.3,2.5c.1.8,1.1,1.1,1.7,1.7.4.5.5,1.3.2,1.9-.3.5-.8,1-1.2,1.4-.5.4-.7,1-.6,1.6.2.4.4.7.7.9.4.5.7,1.2.8,1.9,1-2,1.5-4.1,1.5-6.4h0Z"/>
      <path class="st9" d="M35.9,179.4s-2.2,1.6-5.7,4.3c-2.8,2.1-10.1,7-12.9,8.8,0,3.4-.3,6.8-1.1,10.2-.4,1.6-1,3.2-1.8,4.8.2,0,.4,0,.6,0,7.6.6,21.2-12.9,21.2-12.9l-.3-15.2h0Z"/>
      <path class="st9" d="M94.5,188.9c1.1,1.2,2.3,2.3,3.6,3.2,1.1.8,1.6,2.1,3,1.8.5-.1.2,0,1.1,0,3.8-4.9-7.1-26.9-7.1-26.9l-5.7-.6,2.9,19.4h0c.6,1.2,1.4,2.2,2.3,3.2h0Z"/>
      <path class="st7" d="M74,209.8c.1.3.3,6.6.4,6.9-1.8,0-3.1,1.4-4.9,1.6-12.1.8-24.8,2.6-36.8,3.5.1-.7.4-9,.4-9.7.2-9.8-.7-17.8-.7-27.6s-4.1.4-4.1.2c2-2.3,4.5-4.3,7.2-5.8,2.8-1.4,4.2-1.3,7.8-2.4,1.5,2.7,7.9,6.4,12.1,7.3,1.3.3,4.7.1,5.9-.6,1.1-.5,1.9-1.5,2-2.7,0-1.1,0-2.2-.5-3.2,1.9,0,6.2,2.5,7.5,3.2,1.3.7,2.4,1.6,3.5,2.6,0,7.1.2,14.3.4,21.4v.3c-.2,1.6-.2,3.3-.1,5h0Z"/>
      <path class="st20" d="M74.6,195.5c.1-2.2.1-4.4,0-6.7,0-.2-.6,0-.6.1.1,2.2.1,4.4,0,6.6,0,.2.6.1.6,0h0Z"/>
      <path class="st9" d="M9.4,204.9c3.8-2.3,7-7.5,9.2-11.4l-.2-19.3-6.1-.8s-9,24.8-2.9,31.5Z"/>
      <path class="st2" d="M18.6,191.8c.5.7.7,1.5.6,2.3,0,.9-.2,1.7-.5,2.6,0,.1.5,0,.6,0,.3-.9.4-1.7.5-2.6,0-.9-.1-1.7-.6-2.4-.1-.1-.6,0-.5.2h0Z"/>
      <path class="st7" d="M45.1,194.7l-14.5,7.4-8-14.6s11.2-9.1,12.9-9.6c5-1.9,5.2-1.8,8.1-.8l1.6,17.7h0Z"/>
      <path class="st20" d="M33.1,201c2.8-1.9,5.9-3.7,7.9-6.6,1.8-2.4,2.1-5.7.5-8.4-.1-.2-.7,0-.5.3,1.5,2.7,1.2,6.1-.9,8.5-2,2.5-4.8,4.1-7.4,5.9-.3.2.2.4.4.3h0Z"/>
      <path class="st9" d="M98.3,197.9s4.6-.8,4.8-5.4c0-2.9-.6-5.7-2-8.2h-9.4s3.1,9.8,4.2,11.5c.5.9,1.4,1.7,2.3,2.1Z"/>
      <path class="st2" d="M91.7,184.6c-.4,1.5,0,3.1,1.1,4.3.1.1.7,0,.5-.2-1-1.1-1.4-2.7-1-4.2,0-.2-.5-.1-.6,0h0s0,0,0,0Z"/>
      <path class="st9" d="M8.1,200.3s0,10.6,11.3,6.4l-2.5-12.2s-8.8,5.8-8.8,5.8Z"/>
      <path class="st9" d="M10.3,180.8l.9-5.6s-1.6-3.7-1.4-6.1c.1-1.3.5-2.6,1.1-3.9,0,0,.4-2.6,1.4-3.3s1.4.2,1.4.2c0,0,1.4-1.8,2.7-.3.4-.8,1.5-1.2,2.3-.8,0,0,0,0,0,0h.1c0,0,2.2-1.3,2.9.5.2,1.4.3,2.9.2,4.3-.6,1.8-1.3,3.6-2.2,5.3-.9,2.1-1,4.2-1.5,6.8l-8.1,2.8"/>
      <path class="st2" d="M13.5,162.3c0,.8.1,1.6.1,2.4,0,.7-.1,1.4-.5,2,0,.1-.2.2-.3.3-.1,0-.2,0-.3,0-.2-.2-.3-.5-.3-.8,0-.2,0-.4,0-.5,0-.1,0-.2,0-.3,0-.3,0-.5,0-.8,0-.2-.5,0-.4.1,0,.3.1.6.1.9,0,.4,0,.7.2,1.1,0,.3.2.5.5.7.3.1.6,0,.8-.2.6-.5.9-1.3.9-2.1,0-1-.1-1.9-.1-2.9,0-.2-.4-.1-.4,0h0s0,0,0,0Z"/>
      <path class="st2" d="M16.2,161.9c-.1,1.3-.5,2.5-.7,3.8,0,.7-.3,1.4-.7,1.9-.1,0-.2.2-.3.1-.1,0-.2-.2-.3-.3-.1-.2-.2-.5-.3-.8,0-.1-.5,0-.4.1.2.5.3,1.2,1,1.2s1.1-.7,1.3-1.2c.1-.4.2-.9.2-1.3,0-.4.1-.9.2-1.3s.2-.7.3-1.1c0-.4.1-.8.1-1.2,0-.1-.4,0-.4,0h0c0,.1,0,.1,0,.1Z"/>
      <path class="st2" d="M18.9,161.4c0,1.4-.2,2.7-.7,4-.1.6-.4,1.2-.8,1.6-.3.3-.8.4-1.2.2-.3-.1-.4-.5-.4-.8,0,0-.4,0-.4.1,0,.8.8,1.1,1.4.9.7-.2,1.3-.7,1.5-1.4.3-.8.5-1.6.7-2.4.2-.8.3-1.6.3-2.4s-.4,0-.4.1h0c0,0,0,0,0,0Z"/>
      <path class="st2" d="M21.4,162.8c0,.3.1.6,0,.9,0,.6-.3,1.2-.6,1.7-.2.4-.6,1.1-1.2,1s-.9-.7-1-1.2c0-.3,0-.6,0-.9.1-.2.3-.5.4-.7,0-.2-.3-.2-.4,0-.1.3-.2.5-.4.8-.1.3-.2.6-.1.8,0,.6.5,1.2,1,1.5.3.1.6.1.9,0,.3-.1.5-.3.7-.6.4-.5.7-1.2.9-1.8.1-.5.1-1,0-1.4,0-.2-.5,0-.4.1h0,0Z"/>
      <path class="st9" d="M18.7,173.6c0-.3.2-.2.4-.5.3-.6,1.2-1.4,1.5-2.3.2-.5.8-1.6,1-2.2,0-.5-.2-1.1-.5-1.5-.1-.3-.3-.6-.5-.9-.8-1.3-1.8-1.6-2.8-2.8l-1.4-.9c-.4.4-.5,1-.4,1.6,0,.2,1.4,0,1.4.2s0,.4,0,.6c0,.4.2.9.3,1.3.1.4.2.9.2,1.3,0,0,0,.2,0,.2,0,0-.1.1-.2.2-.1,0-.2.1-.3.2-.2,0-.4.2-.6.2-.7.3-1.4.6-2,.9-.3.2-.5.4-.8.6-.2.2-.3.5-.3.8-.2.9-.2,1.9-.1,2.8,0,.4,0,.7,0,1.1"/>
      <path class="st2" d="M21.6,167.5c-.4-1.2-1.2-2.4-2.1-3.2-.5-.4-1-.8-1.5-1.1l-1.2-.8c-.1,0-.3,0-.3,0-.6.6-.6,1.5-.2,2.2.3.4.7.7,1,1,.3.4.5,1,.5,1.6,0,.6-.7.8-1.2,1-.5.2-.9.4-1.3.7-.4.2-.8.6-1,.9-.1.4-.2.9-.2,1.3s.4.1.4,0c0-.5,0-1,.3-1.4.4-.4.9-.7,1.4-1,.4-.2.9-.4,1.3-.6s.6-.3.7-.7c0-.4,0-.9-.2-1.3-.1-.4-.3-.7-.6-.9-.3-.3-.9-.7-1-1.2,0-.5,0-1.1.4-1.5h-.3c.9.6,1.7,1.2,2.5,1.9,1,.9,1.8,2,2.3,3.2,0,.2.5,0,.4-.1h0Z"/>
      <path class="st9" d="M96.5,174.4l.3-5.4s1.4-3.9.9-6.3c-.2-1.3-.7-2.6-1.4-3.8,0,0-.6-2.6-1.7-3.2s-1.4.3-1.4.3c0,0-1.5-1.7-2.8-.1-.5-.8-1.6-1.1-2.4-.6h-.1c0,.1-2.3-1.2-2.9.7-.2,1.4-.2,2.9,0,4.4.9,1.9,2,3.7,3.2,5.4,1.1,2,3.9,8.5,4.6,11.2l2.9-2.4"/>
      <path class="st2" d="M93.1,156.1c0,.8,0,1.5,0,2.2,0,.7.2,1.4.5,2,.2.4.7.9,1.2.8s.7-.6.8-1c0-.3,0-.6,0-.9,0-.3,0-.6,0-.9,0-.2-.4-.1-.4,0,0,.3,0,.5,0,.8v.9c0,.3-.1.5-.3.8h0c0,0,.1,0,0,0s-.2,0-.2,0c-.1,0-.3-.2-.4-.3-.4-.6-.6-1.3-.6-2,0-.8,0-1.6,0-2.4,0-.1-.4,0-.4.1h0s0,0,0,0Z"/>
      <path class="st2" d="M90.3,155.8c0,.4.1.8.2,1.2s.2.7.3,1.1.2.9.3,1.3c0,.4.2.9.3,1.3.2.5.8,1.2,1.4,1.1s.7-.9.8-1.4c0-.2-.4-.1-.4,0,0,.3-.1.6-.2.8-.1.3-.3.3-.5.1-.3-.2-.5-.5-.7-.9-.1-.3-.2-.7-.3-1.1-.3-1.3-.7-2.5-1-3.8,0-.2-.5,0-.4.1h0Z"/>
      <path class="st2" d="M87.6,155.5c0,.9.2,1.7.5,2.5.2.8.5,1.6.8,2.4.3.7,1,1.2,1.8,1.2.7,0,1.3-.4,1.3-1.2,0-.1-.4,0-.4.1,0,.4-.2.7-.5.8-.4,0-.8,0-1.1-.4-.5-.5-.8-1.1-1-1.7-.5-1.2-.8-2.6-.9-3.9,0-.1-.4,0-.4.1h0s0,0,0,0Z"/>
      <path class="st2" d="M85.2,157c-.1.4-.1.8,0,1.2.2.7.5,1.3.9,1.9.2.3.4.5.7.6.3,0,.6,0,.9,0,.6-.2,1.1-.7,1.2-1.3.1-.3.1-.7,0-1-.2-.3-.3-.6-.5-.8,0-.1-.5,0-.4.1.2.4.6.8.6,1.3,0,.6-.2,1.2-.7,1.6-.6.4-1.2-.4-1.5-.8-.4-.5-.6-1-.8-1.6,0-.4,0-.8,0-1.1,0-.1-.4,0-.4,0h-.1Z"/>
      <path class="st9" d="M89,167.8c0-.3-.3-.2-.4-.4-.3-.6-1.2-1.3-1.7-2.2-.2-.5-.9-1.6-1.1-2.2,0-.5.2-1.1.4-1.6.1-.3.2-.6.4-1,.7-1.4,1.7-1.8,2.7-3l1.4-1c.4.4.6,1,.6,1.5,0,.2-1.4,0-1.4.3s0,.4,0,.7c0,.4-.1.9-.2,1.3,0,.4-.1.9-.1,1.4,0,.2,0,.3.2.4,0,0,.2.1.3.2.2,0,.4.2.6.2.7.2,1.4.5,2.1.8.3.1.6.3.8.6.2.2.3.5.4.8.2.9.4,1.9.3,2.9,0,.4,0,.7,0,1.1"/>
      <path class="st2" d="M86.2,161.9c.4-1.3,1.1-2.5,2-3.4.5-.4.9-.8,1.4-1.2l1.1-.8h-.4c.3.4.5.8.5,1.3,0,.6-.5.9-.8,1.3-.3.2-.5.6-.7.9-.1.5-.2.9-.1,1.4,0,.4.5.5.8.6s.9.4,1.4.6c.5.2.9.5,1.3.8.4.4.3,1,.5,1.5,0,.1.4,0,.4-.1,0-.5-.2-1-.4-1.4-.3-.3-.7-.6-1.1-.8-.4-.2-.9-.4-1.3-.6s-1.2-.3-1.2-.9c0-.6,0-1.1.3-1.6.3-.4.6-.8,1-1.1.3-.3.4-.6.3-1,0-.4-.2-.9-.6-1.2,0,0-.3,0-.4,0l-1.1.9c-.5.4-.9.8-1.4,1.2-1,1-1.7,2.2-2.1,3.5,0,.1.4,0,.4,0h0c0,0,0,0,0,0Z"/>
      <path class="st47" d="M81.7,148.9h0c0-.1,0,0,0,0Z"/>
      <path class="st32" d="M43.3,175.4s3.9,8.1,15.2,7.6c0,0,3.9-1.2,3-7.5,1.3-.1,2.6.1,3.8.7,2.3,2.2,3,5.7,1.6,8.6-1,2.1-4.8,1.7-8.2-.7,0,0-3.5,5.3-9.5,3.6-6-1.6-10.5-6.6-9.5-11.3l3.5-1.1h0Z"/>
      <path class="st35" d="M47.8,159.6s-2.3.2-2.4,1.7c-.1,1.4,1.1.9,1.3.4s.3-1.6,1.1-2.1h0Z"/>
      <path class="st35" d="M46.8,163.3s-2.5,1.2-2,2.9,1.6.6,1.6-.1-.3-1.9.4-2.8h0Z"/>
      <path class="st35" d="M70.6,156.5s2.3.2,2.4,1.7c.1,1.4-1.1.9-1.3.4s-.2-1.6-1.2-2.1h0Z"/>
      <path class="st35" d="M71.6,160.2s2.5,1.2,2,2.9-1.6.6-1.6-.1.3-1.9-.4-2.8h0Z"/>
      <path class="st30" d="M176.1,47.6s-3.7,2.5-5.5,3-4,.2-4,.2c0,0,2.3-2.9,3.3-3.2s5.2-.8,6.3,0Z"/>
      <path class="st30" d="M159.6,53.6s-2.5,1.8-4.3,2.5-2.8-.3-2.8-.3c0,0,.6-1.6,1.6-2.1s4.1-.4,5.6-.1h0Z"/>
      <path class="st4" d="M169.2,48.2c.6-.5,1.5-.5,2,.2,0,0,0,0,0,0,.2.4.3.9.1,1.3-.2.5-.8.8-1.3.7-.7-.1-1.2-.7-1.2-1.3,0-.3.1-.7.3-.9"/>
      <path class="st4" d="M154.7,53.6c-.6,0-1,.4-1.2.9-.1.2-.1.5-.1.8,0,.5.4.8.8,1,.5.2,1.1,0,1.4-.4.4-.5.4-1.3,0-1.8-.2-.3-.5-.4-.9-.4"/>
      <path class="st4" d="M159.6,53.6s-2.9-1-4.3-.5c-2.2.8-2.5,1.5-2.8,2.8.6-1,1.4-1.7,2.4-2.1,1.5-.3,3.1-.3,4.7-.2h0Z"/>
      <path class="st4" d="M166.4,50.8s2.4-3,3.9-3.5c2.2-.8,5.2-.4,6.2.4,0,0-4.1-.7-5.6-.1-1.6.9-3.1,2-4.5,3.2h0Z"/>
      <path class="st25" d="M186,44.5l-.4-1-11.3,1h0c-4.1,0-8.9,2.9-11.2,6l-2.6,1.1h0c-3.9-1.1-9.1.5-12.4,3.8l.3.4h0v.2c.1,0,.4.3.4.3,1.4,2,3,4.2,3.9,4.6.6.3,2.1,0,3.3-.4.5-.1.9-.3,1.2-.4s3.5-1.2,3.8-1.8-.1-4.6-.3-5.8l2.6-1.1c.7.7,2.8,4.2,4.4,4.5s8.2-2.6,8.5-3.8c.3-1.7.5-3.4.4-5.1v-1.8c0,0,9.4-.5,9.4-.5h0ZM160.5,57.8c-.4.7-6.6,2.9-7.6,2.4s-2.9-3.3-3.6-4.4h0c2.9-2.8,7.6-4.2,11-3.3.3,2.1.5,4.9.3,5.3h0ZM175.3,51.9c-.2.7-5.8,3.5-7.5,3.2-1.1-.2-2.8-2.8-3.8-4.2,2.2-2.9,7.9-6,11.7-5.7.2,2.2,0,4.5-.4,6.7h0Z"/>
    </g>
  </g>
  <path class="st8" d="M214.7,70.9l11.9,1.1c10.2,2.5,51.9,25.6,53.8,41.4,1.3,10.3-10.4,52.2-10.4,52.2,0,0-15.8-.9-16.2-7.8s6.6-38.2,6.6-38.2c0,0-33.1-16.6-36.3-19.8-3.8-3.8-25.9-23.3-9.5-28.8h0Z"/>
  <path class="st11" d="M220.9,76.2c-4.3,3.5-3.5,10.6-1.5,14.9,1.6,3.4,4.3,6.2,7,8.6,2.9,2.6,5.9,4.9,9.1,7,1.8,1.2,3.5,2.3,5.4,3.3.2,0,.7-.2.6-.3-4.4-2.4-8.5-5.2-12.4-8.4-5.8-4.8-12-11.4-10.7-19.6.3-2.1,1.2-4,2.8-5.4.3-.3-.2-.2-.4-.1h0Z"/>
  <path class="st11" d="M260.5,119.5c.5-.5,1.1-.9,1.8-1.2,2.1-.7,4.5-.2,6.4.7.2,0,.6-.2.5-.3-2.2-1.1-4.6-1.3-7-.6-.9.3-1.7.8-2.4,1.5-.1.2.5,0,.6,0h0s0,0,0,0Z"/>
  <path class="st11" d="M255,146.6l-1.8,11.8-.3,1.7c0,0,0,.1,0,.1l3.3,1.9c.2.1.8-.2.4-.4l-1.4-.8c-.6-.4-1.2-.7-1.8-1-.2,0,0,0,0,0,0-.1,0-.2,0-.3l.2-1.3,1.4-9.3.4-2.6c0-.3-.6-.1-.6.1h0Z"/>
</svg>