<svg xmlns="http://www.w3.org/2000/svg" xmlns:xlink="http://www.w3.org/1999/xlink" viewBox="0 0 292.89 301.99"><defs><style>.cls-1,.cls-32{fill:none;}.cls-2{fill:#f2ebd1;}.cls-3{fill:#715446;}.cls-4{fill:#8e8e8e;}.cls-5{fill:#1b120c;}.cls-6{fill:#628e9f;}.cls-7{fill:#b3b2ab;}.cls-8{fill:#c79e81;}.cls-9{fill:#ddad6f;}.cls-10{fill:#825639;}.cls-11{fill:#151210;}.cls-12{fill:#131429;}.cls-13{fill:#040404;}.cls-14{fill:#94664a;}.cls-15{fill:#060505;}.cls-16{fill:#f1eef7;}.cls-17{fill:#13110f;}.cls-18{fill:#231f20;}.cls-19{fill:#09658d;}.cls-20{fill:#706c62;}.cls-21{fill:#044d66;}.cls-22{fill:#fff;}.cls-23{fill:#513835;}.cls-24{fill:#0a2f44;}.cls-25{fill:#273339;}.cls-26{fill:#27153c;}.cls-27{fill:#e2e0e0;}.cls-28{fill:#4f2e25;}.cls-29{fill:#1d170f;}.cls-30{fill:#906143;}.cls-31{fill:#31160e;}.cls-32{stroke:#1d1e1e;stroke-miterlimit:10;stroke-width:0.96px;}.cls-33{fill:#517568;}.cls-34{fill:#162916;}.cls-35{fill:#5a697c;}.cls-36{clip-path:url(#clip-path);}.cls-37{fill:#a38166;}</style><clipPath id="clip-path"><path class="cls-1" d="M637.58,79.62C639,60.52,636.1,32.08,606.43,29c0,0-18.87-3.74-29.22,9.56A126.67,126.67,0,0,0,434,89.34c-5.73,2-10.78,5.49-13.51,10.52-3.72,6.86-5.16,17.51-6.31,25.34-.79,5.17-1.54,10.35-2.28,15.52a6.07,6.07,0,0,0,.2,3.53,5.06,5.06,0,0,0,1.51,1.51,126.5,126.5,0,1,0,224-66.14Z"/></clipPath></defs><g id="Layer_6" data-name="Layer 6"><circle class="cls-2" cx="146.28" cy="153.27" r="126.49" transform="translate(-65.54 148.33) rotate(-45)"/><path class="cls-3" d="M38.73,219.65a126.51,126.51,0,0,0,215.42,0Z"/><path class="cls-4" d="M218.87,249.72c.9,1.66,1.55,6.06,0,7.28s-10.2,2.7-10.2,2.7l-7.94,2.48-7.5.64h-3.16l-2.94-1.23-3.23-2s-.18-4.1,1.25-4.81,7.12-3.51,7.89-3.36l12.19-6.24s.92,3.77,5.67,3.52,6.36-1.59,6.36-1.59Z"/><path class="cls-5" d="M218.48,257.27l-5.68,1c-5.47.94-10.86,2.33-16.33,3.23-3.8.62-7.91.69-11.32-1.55A12.08,12.08,0,0,1,184,259c-.12.13,0,.42,0,.64a8.1,8.1,0,0,0,1.24,1.34,12.11,12.11,0,0,0,8.35,2.87,59.5,59.5,0,0,0,7.5-1c3.42-.52,6.84-1.07,10.27-1.45l1.08-.11S215.18,259.62,218.48,257.27Z"/><path class="cls-4" d="M204.89,246.62c.9,1.66,1.85,6.49.34,7.71s-10.5,2.27-10.5,2.27l-11.6,1.3-3.84,1.81h-3.16l-2.94-1.22-3.23-2s-.18-4.11,1.25-4.81,7.12-3.52,7.9-3.37l12.18-6.23s.92,3.77,5.67,3.52,6.36-1.59,6.36-1.59Z"/></g><g id="Layer_10" data-name="Layer 10"><path class="cls-6" d="M127.69,75.82S148.42,83.05,153.75,87c6.82,5,11.41,25.36,14.48,31.92,3.4,7.26,12.61,31.27,12.61,31.27l-25.21,9.52-15.89-24.62L127.61,74.27Z"/><ellipse class="cls-7" cx="105.08" cy="129.78" rx="6.71" ry="4.48"/><path class="cls-8" d="M109.32,56.19a37.59,37.59,0,0,1-.23,9.89c-1.22,7.83-8,11.57-8,11.57l29.2,16.94,9.26-9.9s-4.6-4.84-4.72-6.4,2.94-13.18,2.94-13.18"/><rect class="cls-9" x="133.51" y="22.18" width="4.16" height="11.09" rx="2.08" transform="translate(0.07 -0.32) rotate(0.14)"/><rect class="cls-9" x="121.3" y="35.1" width="4.16" height="11.09" rx="2.08" transform="translate(41.94 -60.56) rotate(32.94)"/><path class="cls-10" d="M109.37,58.17v.08S109.36,58.18,109.37,58.17Z"/><path class="cls-8" d="M127.27,75.93l7.86,1.36,3.56.23a3.75,3.75,0,0,0,3.67-1.91c1.68-2.85,2.25-4.33,2.47-4.67a50.24,50.24,0,0,0,3.58-7c.82-2.1,1.67-3.32,2.21-5.88a12.26,12.26,0,0,0-.27-6.39,4.36,4.36,0,0,1,.13-2.42c.55-1.75.87-3.82,1.56-6.17a4.67,4.67,0,0,0,.29-1.28s1.23-9.91-.28-13.62-3-7.47-5.53-8.36-11.42.88-11.42.88l-10.55-2.39-9.43,3.75-5.5,10.64-.38,12.85.13,12.58"/><path class="cls-11" d="M113,27.38c-.26-5.74,5-7.47,7.18-8.29,1.86-.69,7.07-1.93,10.74-1.08,1.58.36.56,3.67,1.38,4.34.27.08,3.47,1.08,4.75,1.37a13.23,13.23,0,0,0,4.93.49,5.57,5.57,0,0,1,2.77,0c1.63.38,2.66-3.65,5.74.46l.18-.16c-3.85-6-9.48-6.32-16.14-7.85-.7-.17-1.43-.3-2.17-.42-10.66-1.61-10.32-1.5-17.83,5-4.37,3.81-7.06,7.57-7.2,10.06l0,.56c-.15,2.59-3.33,9.42-2.53,10.91.51.95,2,5.09,3.31,8.6l5.11.51c0-1,.2-9.25.23-10.24"/><path class="cls-8" d="M109.59,58.37c-4.46,3.69-4.72-3.24-4.72-3.24-2.56-3.73-2.21-7.42-1.87-9.94S106.11,43,106.11,43c2.34.48,3.61,1.18,4.83,9.32"/><path class="cls-11" d="M143.45,21.79c-3.83-.36-13.7-3.79-18.88-4.53-2.15-.3-9.72,4.48-10.74,5.62-2.35,2.62,2.09,9.4-2.28,18-1.44,2.84-2.75-2.42-4.44-.62s-2.33,2.53-2.33,2.53c-.48-8.58-.47-8.28,2-16.53s11.92-11.17,16.4-11.53,18.53,2.13,22.23,4.21"/><path class="cls-12" d="M108.82,51.3a20.25,20.25,0,0,0-1.59-3.56A6.52,6.52,0,0,0,106,46.16a1.84,1.84,0,0,0-.67-.4c-.31-.08-.47.21-.61.43a5,5,0,0,0-.52,3.33c0,.18.43.08.4-.1a5.16,5.16,0,0,1,.24-2.67,2.53,2.53,0,0,1,.48-.82l-.23.09s0,0,0,0l.12,0a3,3,0,0,1,.44.29,7.25,7.25,0,0,1,1.59,2.25,23.76,23.76,0,0,1,1.19,2.8c.06.18.45.07.39-.1Z"/><path class="cls-12" d="M107.91,51.67c-1.66-.22-1,2-1.13,2.94a.75.75,0,0,1,0,.16s0,0,0,.07l0,0s0,0,.12,0l-.23-.38a6,6,0,0,1-.3-1.52,6.41,6.41,0,0,1,0-2.05c.14-.72.43-1.88,1.23-2.14.23-.07.19-.27,0-.19a2.43,2.43,0,0,0-1.42,1.73,5.07,5.07,0,0,0-.27,1.63A11.13,11.13,0,0,0,106,54c.06.3.14.82.42,1a.49.49,0,0,0,.64-.2,1.43,1.43,0,0,0,.12-.82c0-.41-.29-2.22.46-2.12.12,0,.47-.18.25-.21Z"/><path class="cls-11" d="M130.84,44.44a1.56,1.56,0,0,0-1.69.14,1.44,1.44,0,0,0-.51.65,1.52,1.52,0,0,0,.22,1.42,1.43,1.43,0,0,0,1.6.45,1.57,1.57,0,0,0,.95-1.75,1.39,1.39,0,0,0-.57-.91"/><path class="cls-11" d="M147.8,46.65a1.55,1.55,0,0,1,1.57.63,1.41,1.41,0,0,1,.3.77,1.52,1.52,0,0,1-.63,1.3,1.44,1.44,0,0,1-1.67-.05,1.59,1.59,0,0,1-.39-1.95,1.44,1.44,0,0,1,.82-.7"/><path class="cls-11" d="M142.55,47.85s2.8-1.85,4.54-1.65c2.53.28,3,1,3.69,2.29a5.52,5.52,0,0,0-3.16-1.68C145.91,46.67,142.55,47.85,142.55,47.85Z"/><path class="cls-11" d="M134.51,46.55s-3.31-2.58-5-2.8c-2.52-.32-5.69.88-6.62,2,0,0,4.19-1.8,6-1.53A30.63,30.63,0,0,1,134.51,46.55Z"/><path class="cls-11" d="M137.14,38.35l-.24,1.8c-.06.46-.17,1.51-.23,2-1.55-.6-2.92-1.36-3.94-1.66a21.18,21.18,0,0,0-6.17-1.3,7.65,7.65,0,0,0-2.81.48c-.28.12-1.07.66-1.44.44-.15-.08.21-.79.24-.86.74-1.42,2.22-1.86,4-2a33.73,33.73,0,0,1,10.61,1.12"/><path class="cls-11" d="M152.71,40.55l-1-.31a23.1,23.1,0,0,0-8.8-.68l-.09,1.82c0,.46-.09,1.29-.11,1.75,1.36-.32,2.53-.73,3.41-.85a15,15,0,0,1,5.26-.14l1,.24C152.94,41.57,153,40.69,152.71,40.55Z"/><path class="cls-13" d="M122.18,42.85l.41,1.95a25.82,25.82,0,0,0,1.72,5.36c.59,1.19,8.41,2.59,10.07,1.9s3-5,3.58-6l3.13.56c.12,1.36.61,5.67,1.14,6.31s4.15,1,4.56,1,.82.07,1.34.09c1.38.08,3.06.06,3.63-.37.84-.64,2-3.35,3-5.91l.17-.41c0-.09.07-.16.08-.19h0l.18-.46C151,44.05,145,43.66,141,45.82l0,0L138,45.3c-3.2-2.69-9.05-4.67-13.54-3.57h0l-12.4,1.84-.18,1.15Zm20.47,9.73c-.33-.4-.76-3.43-1-5.78,3.41-1.81,8.81-1.45,12.67.72v.06c-.56,1.38-2,5-2.86,5.67-1,.74-8.2,0-8.78-.66ZM125.28,50a23.11,23.11,0,0,1-2.16-7c4-1.23,10.92.62,14.06,3.19-.77,1.78-1.84,4.92-3,5.41-1.7.72-8.5-.81-8.87-1.56Z"/><path class="cls-14" d="M137.26,62.89c-3-.37-7.79-1.33-7.79-1.33s-.34,7.33,6.59,8.2,8.1-6.35,8.1-6.35S140.25,63.27,137.26,62.89Z"/><path class="cls-15" d="M137.29,62.9c-1.42-.18-7.12-1.14-7.12-1.14s1.27,5.23,6.41,5.87a6,6,0,0,0,6.85-4.16Z"/><path class="cls-16" d="M137.32,63.12c-1.42-.18-5.71-1-5.71-1s1.36,1.75,5.62,2.28,5.81-.8,5.81-.8Z"/><path class="cls-14" d="M144.28,63c-.14-.06.21.26-.48.11-1.17-.24-1.86-.65-2.71-.82a12.49,12.49,0,0,0-3.07.09,12.63,12.63,0,0,0-3-.84c-.86-.05-3,0-4.2-.05a11.86,11.86,0,0,1-1.66-.39c-.22,0,0,1.62,7.95,2.62S144.49,63.06,144.28,63Z"/><path class="cls-11" d="M137.26,60.55l-.25.74a.47.47,0,0,1-.46.34c-1.48,0-6.92.37-8.25.21l-.16,0-.17,0c-.48-.14-.26-.79.23-.92a27.13,27.13,0,0,1,3.61-.72,31.4,31.4,0,0,1,5-.22A.51.51,0,0,1,137.26,60.55Z"/><path class="cls-11" d="M139.2,60.69l-.1.82a.48.48,0,0,0,.33.43c1.19.35,5,1.69,6.12,1.81l.46.07h.25c.41,0,.09-1-.28-1.19a17,17,0,0,0-6.34-2.47A.44.44,0,0,0,139.2,60.69Z"/><path class="cls-11" d="M141.13,77.8l1-1.42s-13.81.78-16.39-.22C118.89,73.52,114.4,63,114.4,63a26.91,26.91,0,0,0,4.53,9c3.51,4.68,4.39,5.31,8.54,5.67,3.16.27,9,.86,11.57,1.13A2.25,2.25,0,0,0,141.13,77.8Z"/><path class="cls-11" d="M103.2,44.46A27.09,27.09,0,0,1,101.9,33c.56-7,1.81-16.35,10.2-19.37a16.54,16.54,0,0,1,4.64-.95s5.77-5.11,20.47-1c10.32,2.87,14.09,7.49,14.39,15.6,0,0-2.56-4.41-3.48-4.1s-1.87,2.37-5.42,2.39-9.14-1-11.33-2.64-6.28-3.53-8.72-3.4c-5.94.32-7,4.71-7.65,7.26s-2.87,11.61-5.86,12.63a4.62,4.62,0,0,0-3.28,3.52l-.49.15a4.56,4.56,0,0,0-2.17,1.41Z"/><path class="cls-11" d="M114.4,63c5.91,8.26,9.73,10.81,12.18,11.22s4.33,1.33,6.16.75c2.23-.72,3-1.79,3.49-1.32.23.2,1,1.62,1.24,1.83a3.92,3.92,0,0,0,2.67.15,6.16,6.16,0,0,0,3.71-2.66c-.73,1.56-1.43,3.8-3,4.48-1,.42-2.39.12-3.45.06-2.33-.12-4.55-.23-6.88-.43a18.2,18.2,0,0,1-6-1.06c-3.15-1.4-6.29-6-8.09-9Z"/><path class="cls-17" d="M137.6,58.26a5.35,5.35,0,0,0,2.21.62,3.71,3.71,0,0,0,1.9-.16,3.35,3.35,0,0,0,1.24-1,2,2,0,0,0,.06-1.43c-.1-.49-.28-1-.39-1.46,0-.06-.33,0-.32.09a8.52,8.52,0,0,1,.47,2.39c0,.48-.38.75-.74,1a1.94,1.94,0,0,1-.68.39,4.51,4.51,0,0,1-1.16,0,5.41,5.41,0,0,1-2.29-.63c-.07,0-.33.1-.3.11Z"/><path class="cls-17" d="M135,55.74a.8.8,0,0,0-.75.3,1.56,1.56,0,0,0-.26.81,1.1,1.1,0,0,0,.15.79,1.67,1.67,0,0,0,1,.56,1.81,1.81,0,0,0,.77,0,9.15,9.15,0,0,1,.91-.18c.06,0,.19,0,.22-.08s0,0-.08,0a5.41,5.41,0,0,1-1.32.2,2.14,2.14,0,0,1-1-.38,1.19,1.19,0,0,1-.28-1.38,1.24,1.24,0,0,1,.17-.37.69.69,0,0,1,.11-.13s.07,0,0,0,0,0,0,0a.38.38,0,0,0,.23,0s.11-.06,0-.08Z"/><path class="cls-6" d="M155.17,137.25c8.73,1.46,9.92,0,9.92,0l49.63-24.84h0c1.15,5.78,2.66,9.65,6.94,13.7l-1.6,1.71s-28.15,25-41.55,32.7c-2.79,1.61-9.33,6.66-19.35,2.15-3.13-1-7-8.05-7.95-10.47"/><path class="cls-8" d="M128.06,120.85c7.87,4.39,10.44,5.14,22,10.68,7.17,3.43,13.54,5.67,17.92,2.3,11.17-7.63,22.1-26.8,26-32.9a9.22,9.22,0,0,0-1.2-11.27l-19.32,8.13L160.73,118.7l-1.66,1.68L132,113.25"/><path class="cls-18" d="M215.12,205.43c.33-.16.68-.31,1-.46a5.33,5.33,0,0,1,2-.61c.85,0,1.22,1.25,1.35,1.92a11.08,11.08,0,0,1,.1,2.23,14,14,0,0,1-.4,4.18c-.19.51-.61.74-1.06,1-.72.45-1.45.88-2.19,1.3-.54.31-1.16.6-1.57-.06a7.43,7.43,0,0,1-.44-1.43,6.72,6.72,0,0,0-.8-1.37c-.08-.11-.52.08-.49.13a6.46,6.46,0,0,1,.89,1.63,3.14,3.14,0,0,0,.49,1.35,1.13,1.13,0,0,0,1,.33,6.1,6.1,0,0,0,2.28-1.13,11.78,11.78,0,0,0,2.07-1.33,2.52,2.52,0,0,0,.54-1.53,23,23,0,0,0,.19-2.75,12.9,12.9,0,0,0-.09-2.71c-.14-.7-.47-1.75-1.27-2a3.91,3.91,0,0,0-2.11.44c-.58.22-1.16.46-1.72.73-.29.14.17.11.28.06Z"/><path class="cls-19" d="M203.08,207.65s3.65,13.54,3.16,16.49-1.51,3.19-7.12,3.94a37,37,0,0,1-13.81-1c-2.63-.75-2.21-4.79-.8-9.36s3-10.31,3-10.31S196.62,200.74,203.08,207.65Z"/><path class="cls-20" d="M204.65,226.82s-3.59,2-10.14,1.65-8.66.58-10.88-2.82a5.26,5.26,0,0,0,3.52,1.73c2,0,2.62-1.19,3.6-2.19s3.27-1.37,4.72-1.42c3.69-.12,3.92,2.39,4.78,2.57S202.79,227.57,204.65,226.82Z"/><path class="cls-21" d="M188.83,208.19s-1.23,9.25-.67,11.05,3.1,1.23,5.45,1.19,5.6-.83,7.24,0,2.43-.75,1.84-4.18-1.85-9.47-1.85-9.47S191.23,205.08,188.83,208.19Z"/><path class="cls-22" d="M190.62,207.21s9.33,0,9.47-.86-.77-.87-.77-.87-6.88.18-9,.94C189.27,206.78,190.62,207.21,190.62,207.21Z"/><path class="cls-22" d="M190.62,204.65s9.33,0,9.47-.86-.77-.87-.77-.87-6.88.19-9,.94C189.27,204.22,190.62,204.65,190.62,204.65Z"/><path class="cls-21" d="M200.84,201.15a3.72,3.72,0,0,1,0-2c.53-1.93-4-2-6.7-1.93s-5.23.34-5.5,2.14a3.84,3.84,0,0,0,.52,2.82S196.81,200.08,200.84,201.15Z"/><path class="cls-22" d="M190.64,202.09s9.34,0,9.47-.86-.77-.87-.77-.87-6.88.19-9,.94C189.3,201.66,190.64,202.09,190.64,202.09Z"/><path class="cls-20" d="M181.84,226.82s3.59,2,10.14,1.65,8.65.58,10.87-2.82a5.25,5.25,0,0,1-3.51,1.73c-2,0-2.62-1.19-3.6-2.19s-3.27-1.37-4.72-1.42c-3.69-.12-3.92,2.39-4.78,2.57S183.7,227.57,181.84,226.82Z"/><path class="cls-22" d="M195.87,207.21s-9.33,0-9.47-.86.77-.87.77-.87,6.88.18,9,.94C197.21,206.78,195.87,207.21,195.87,207.21Z"/><path class="cls-22" d="M195.87,204.65s-9.33,0-9.47-.86.77-.87.77-.87,6.88.19,9,.94C197.21,204.22,195.87,204.65,195.87,204.65Z"/><path class="cls-21" d="M185.65,201.15a3.85,3.85,0,0,0,0-2c-.53-1.93,3.95-2,6.7-1.93s5.23.34,5.5,2.14a3.81,3.81,0,0,1-.53,2.82S189.68,200.08,185.65,201.15Z"/><path class="cls-22" d="M195.84,202.09s-9.33,0-9.46-.86.77-.87.77-.87,6.87.19,9,.94C197.19,201.66,195.84,202.09,195.84,202.09Z"/><path class="cls-23" d="M225.23,93.43h.06l-.07-.12Z"/><path class="cls-23" d="M210.55,80.73s0,0,0,.06l-.13-.1Z"/><path class="cls-22" d="M92.17,232.49c-.8-2.35-3.46-5-5.4-6.27s-4.5-.43-5.19-.22c-5.09,1.6-8,5.27-12.14,8.3a50.41,50.41,0,0,1-10.38,5.79c-3.75,1.55-7.75,2.17-11.53,3.54l-.09,0A8.53,8.53,0,0,0,43,247.27c-.36.6-.73,1.2-1.12,1.75-.55.78-1.13,1.34-.71,2.33.78,1.84,4-.14,4.91-.44a1.24,1.24,0,0,1,.54,0,23.69,23.69,0,0,0,6.57-.11,7.37,7.37,0,0,1,1-.07s0,0,0,0c2-.15,12.55.05,14.12,0,3.1,0,10.88-.91,10.88-.91s12.68-.68,16.57,2L101.88,238S93,234.85,92.17,232.49Z"/><path class="cls-22" d="M109.15,217.84c-.8-2.35-3.46-5-5.4-6.27s-4.5-.43-5.19-.22c-5.09,1.6-8,5.27-12.14,8.3A50.41,50.41,0,0,1,76,225.44c-3.76,1.55-7.75,2.17-11.53,3.54l-.09,0A8.58,8.58,0,0,0,60,232.62c-.36.6-.73,1.2-1.13,1.75-.54.78-1.12,1.34-.7,2.33.77,1.84,4,1,4.91.69a1.11,1.11,0,0,1,.54,0,23.69,23.69,0,0,0,6.57-.11c.35,0,.7-.06,1-.07,0,0,0,0,0,.06,2-.14,10.47.25,12,.22,3.1,0,12.94-2.28,12.94-2.28s12.68-.68,16.57,2l6.08-13.84S110,220.2,109.15,217.84Z"/><path class="cls-3" d="M92.53,232.4A13.61,13.61,0,0,0,87.05,226c-2-1.22-4.36-.71-6.41.06-5,1.88-8.34,6.26-12.88,8.92l-4.47,2.61c-.42.25.19.46.48.3l4.37-2.56a43.75,43.75,0,0,0,5.94-4.5c2.61-2.2,5.56-4.43,9-5,2.24-.36,3.8.67,5.37,2.13a12.4,12.4,0,0,1,3.33,4.59c.11.31.83.1.72-.19Z"/><path class="cls-24" d="M113,179.15,101.23,219l15.14,2.55L115,248.31s77.05-2,81.56-7.58c8.06-10,8.45-13.85,4.1-20.9-8-13-63.6-42.71-64.59-42.2Z"/><path class="cls-6" d="M105.9,72.59l-1.21.43c-5.75,1.73-18,5.83-22.38,9.94-10.13,9.52-3.55,26.33-3.46,32.18C78.92,118,89.5,144,85.08,159.83a272.17,272.17,0,0,0-6.83,32.07l17.16,4.35c8.39,2.13,20.33-7.55,29-7.82l21.4-3.75c.83-11.19,3.24-10.72,3.71-25.46L154.63,115,150.24,93.6s-6.37-4.78-6.75-5.9l-8.64-9.27s1.36,9.27-7.44,9.47c-9.08.21-11.48-1.45-17.59-7.43C109.82,80.47,106.23,75.77,105.9,72.59Z"/><path class="cls-6" d="M62.68,178.34l.48-1.5a111.13,111.13,0,0,1,5.93-15.25c2.39-4.81,4.33-9.05,4.85-14.61,1.32-13.94-2.7-52.5,4.94-56.65,1.54-.84,18.91-8.43,18.91-8.43l.41-.55c-1.13,1.52,8.07,8.15,9,8.8,6.55,4.3,15.18,9.11,22.3,3.31l.2,1.8,2.31,9.52.08,26.72c0-.28.11,9.4-.31,13.86-1.56,16.8-5.92,59.63-7,62.61a5.48,5.48,0,0,1-4.93,3.7L64.48,191c-2.79-1-2.57-4.24-2.7-7.16A16.54,16.54,0,0,1,62.68,178.34Z"/><path class="cls-25" d="M113.24,256.7c.12-1.8-.73-3-1-2.94s.09,1.36,0,2.88-.63,2.71-.39,2.85S113.12,258.5,113.24,256.7Z"/><path class="cls-24" d="M61.93,186.93s9.81,3.33,25.29-4.13a149,149,0,0,0,15.53,8.31c10,4.73,20.32,8.82,30.18,13.78-7.47,6.35-21.1,17.31-29.81,22-11.39,6.22-25.62,4.1-35.18-4.46C64.08,218.87,55.66,199.31,61.93,186.93Z"/><path class="cls-26" d="M155.74,109.21c-1.58,11.56-3.32,23.11-4.8,34.69-.39,3.11-.77,6.22-1.09,9.34,0,.28.64.16.67-.08,1.25-12.07,3.07-24.08,4.78-36.08.37-2.65.75-5.3,1.11-8,0-.28-.64-.17-.67.08Z"/><path class="cls-6" d="M62.83,178.78c-1.86,1.92-1.54,6.15-1.18,8.32.11.66,1.09.9,1.47,1.45A4.64,4.64,0,0,0,65.57,190a103,103,0,0,0,15.83,4.41c10.54,1.75,21.31.18,31.86-1.49s21.17-3.49,31.06-7.53c1.72-.71,3.71-1.93,3.58-3.79-.15-2-2.62-2.86-4.62-3.2l-16-2.78"/><path class="cls-8" d="M205.85,213.82l.49-5.66,1.74-19.81-24-1.73S185.26,198,187,210.1c1.82,13,4,27.16,4.35,32.91,2,.31,3.86,1.05,5.84,1.35a7.14,7.14,0,0,0,2.48,0,10,10,0,0,0,2.63-1.14,1.75,1.75,0,0,1,1.18-.19L206,227.73a39.86,39.86,0,0,0,.14-12.19Z"/><path class="cls-27" d="M191.17,244.27a13.91,13.91,0,0,0,12.08.24l1.64-10.35s-11,3.23-14.35.35C190.54,234.51,191.48,243.11,191.17,244.27Z"/><path class="cls-24" d="M191.43,202.5c-3.4-.25-7.79-.77-10.25-2.82l-1.05-51.22,18.79-5.09,4,57.58C199.12,201,195.2,202.77,191.43,202.5Z"/><path class="cls-8" d="M174.51,66.57a36.65,36.65,0,0,1-.87-7.64c-.15-1-.33-2.18-.53-3.6-.06-.41-.1-.81-.15-1.2a3.08,3.08,0,0,0-.06-.61c-.62-7,1.22-10.85,1.22-10.85A15.36,15.36,0,0,1,186.73,34c6.4-.65,12.64,2.53,16.12,6.07a10,10,0,0,1,2.88,6.54,41.46,41.46,0,0,1-.37,6.83c2.21-.38,4.5.15,4.19,4.36-.42,5.81-3.87,8-5.78,6.67-.38.12-1,1.93-.91,3.13.1,2.29.68,6.3,2,8.15l0,.65c-3.86,8.35-6.15,13.18-23.17,10.61l4.33-8.18-.27-2.55a6.76,6.76,0,0,1-2.8-.06C177.7,75.49,175.12,69.11,174.51,66.57Z"/><path class="cls-23" d="M246.29,119.28l0,.07-.15-.16Z"/><path class="cls-28" d="M185.85,76.25A20.4,20.4,0,0,0,197,71.72s-.44,1.91-4.17,3.76A15.82,15.82,0,0,1,186,77.24Z"/><ellipse class="cls-18" cx="176.08" cy="56.83" rx="1.37" ry="1.37" transform="translate(-8.72 65.86) rotate(-20.69)"/><path class="cls-11" d="M174.34,55.89a4.43,4.43,0,0,1,2.78-.92c2.13-.07,3.41,2.45,3.41,2.45a4.73,4.73,0,0,0-3.47-1.86,7.57,7.57,0,0,0-3.3,1.29A1.66,1.66,0,0,1,174.34,55.89Z"/><path class="cls-18" d="M208.19,58.26a3.23,3.23,0,0,0-.14-2c-.08-.15-.16-.39-.36-.37-.53.05-1,.63-1.26,1a11.71,11.71,0,0,0-1.28,2.36c-.07.18.24.12.3,0s.37-.3.54-.19a.84.84,0,0,1,.24.62c0,.68-.55,1.07-1.16,1.21-.21,0-.15.25.06.2.78-.18,1.56-.73,1.43-1.63-.05-.32-.22-.65-.58-.66a1.27,1.27,0,0,0-.81.37l.31.06a8.7,8.7,0,0,1,1.65-2.8,2.33,2.33,0,0,1,.44-.35c.07,0,.05,0,.09,0s0,0,0,0l-.14,0a2.7,2.7,0,0,1,.31,2.22c0,.15.32.1.35,0Z"/><ellipse class="cls-29" cx="190.22" cy="55.23" rx="1.37" ry="1.37" transform="translate(-7.25 70.76) rotate(-20.69)"/><path class="cls-11" d="M186.52,56.6s1.7-3,4-3.11c3.29-.14,4,1.14,4.79,2.1a8.09,8.09,0,0,0-4.79-1.54C188.26,54.2,186.52,56.6,186.52,56.6Z"/><path class="cls-30" d="M184,66.76c1.95-.24,5.09-.86,5.09-.86s.85,5.46-4.58,6.06c-4.54.5-5.18-4.73-5.18-4.73S182.07,67,184,66.76Z"/><path class="cls-31" d="M184,66.76c.93-.11,4.38-.58,4.38-.58a4.56,4.56,0,0,1-3.86,3.75c-3.64.46-4.47-2.46-4.47-2.46Z"/><path class="cls-16" d="M184,67.2c.92-.12,3.73-.63,3.73-.63a7.35,7.35,0,0,1-3.8,1.26c-2.79.35-3.67-.29-3.67-.29Z"/><path class="cls-30" d="M179.36,67.19c0-.1.19-.17.64-.26.76-.16,1-.47,1.53-.58a9.27,9.27,0,0,1,2,0,8.71,8.71,0,0,1,1.93-.54c.56,0,2,0,2.74,0a7.68,7.68,0,0,0,1.09-.25c.14,0,0,1.32-5.22,2S179.38,67.33,179.36,67.19Z"/><path class="cls-17" d="M186.09,51.12s.15-.08.13-.13a15.21,15.21,0,0,1,5.08-1.43,4.84,4.84,0,0,1,1.66.35,7.7,7.7,0,0,1,1.73.85c.22.28-.86,0-.86,0a4.49,4.49,0,0,0-.61-.09,11.89,11.89,0,0,0-3.63.22,16.84,16.84,0,0,0-3.22,1.75C186.25,52.11,186.25,51.62,186.09,51.12Z"/><path class="cls-17" d="M180.22,52.25s-.14,0-.14-.09a11.3,11.3,0,0,0-4.61-.12,4,4,0,0,0-1.32.75A6.92,6.92,0,0,0,172.9,54c-.12.34.72-.23.72-.23a3.12,3.12,0,0,1,.49-.23,9.44,9.44,0,0,1,3.1-.71,12.85,12.85,0,0,1,3.12.9C180.32,53.24,180.2,52.77,180.22,52.25Z"/><path class="cls-11" d="M203.69,58s0-.07,0-.11a5.06,5.06,0,0,1,1.08-2.29,4.65,4.65,0,0,1,1-.86,5.07,5.07,0,0,1,1.17-.57,3.48,3.48,0,0,1,1.78-.17l.31.1c1-5.1,1-10.44-3.25-16.07-1.24-1.62-4.19-3.23-5.1-3.76-5.48-3.11-10.05-2.87-15.57-1.68-6.39,1.37-12,6.21-12.71,12.91a11.9,11.9,0,0,0-.05,4.29s.59-6.08,3.5-8.29,3.78.46,8.21,0c5.12-.48,6.49-3.45,10.83-1.78a10.37,10.37,0,0,1,5.45,4.68c.82,2.16,2,3.53,1.67,6.16-.08.62-.13,1.25-.17,1.88a15.82,15.82,0,0,0,.37,3.37,2.15,2.15,0,0,0,.94,1.36C203.67,57.51,203.17,58.24,203.69,58Z"/><path class="cls-18" d="M204.06,58c.17-2.12,2.59-4.28,4.73-3.63.21.07.53,0,.57-.27.81-4.37.79-8.76-1.19-12.83a13.6,13.6,0,0,0-3.81-5,28.3,28.3,0,0,0-4.75-2.87c-4.2-2-8.61-2.16-13.13-1.32a19.14,19.14,0,0,0-10.42,5.13A14.9,14.9,0,0,0,172,49.88c.06.32.7.15.72-.12a14.46,14.46,0,0,1,2.39-7.09,3.66,3.66,0,0,1,4.29-1.53,12,12,0,0,0,4.64.67,17.39,17.39,0,0,0,5-1.38,7.07,7.07,0,0,1,5.31-.55,10.44,10.44,0,0,1,6.23,6,11.21,11.21,0,0,1,1.08,3c.21,1.46-.2,3-.12,4.42a7.54,7.54,0,0,0,.58,3.23c.21.37.55.53.77.84s.14.57.34.78a.39.39,0,0,0,.39.08l.19-.05c.44-.11.31-.61-.13-.49l-.19,0,.4.09c-.13-.13-.13-.52-.24-.7-.32-.52-.85-.77-1.06-1.43a12,12,0,0,1-.25-4.71,8.34,8.34,0,0,0-.09-3A22,22,0,0,0,201,45a10.35,10.35,0,0,0-6.24-5.65c-3.81-1.28-6.93,1.56-10.65,1.89-1.95.17-3.46-.58-5.31-.89a4.25,4.25,0,0,0-3.58,1.28c-2.1,2-2.93,5.36-3.22,8.14l.73-.12a14.51,14.51,0,0,1,3.18-11.43,17.11,17.11,0,0,1,9.71-5.52c4.34-.91,8.67-1.07,12.81.73a28.76,28.76,0,0,1,4.71,2.66,12.74,12.74,0,0,1,4,4.58c2.3,4.19,2.41,8.81,1.56,13.41l.58-.27c-2.57-.79-5.67,1.51-5.88,4.17C203.3,58.39,204,58.29,204.06,58Z"/><path class="cls-17" d="M209,54.09s4.86-5,.12-14.77a7.39,7.39,0,0,0-2.39-2.81l-.95-.68a10.85,10.85,0,0,0-4.16-4.92c-3.06-1.9-10.12-1.55-13.47-3.12s-4.36-3-4.36-3a11,11,0,0,0-1.12,4.32s-10.53,1.83-11,16.05c0,0,8.71-13,20.48-10S209,54.09,209,54.09Z"/><path class="cls-17" d="M186.22,28.78s-2.69.82-5.47-1.83c0,0-2.41,3.6-.1,5.67"/><path class="cls-17" d="M184,63.73a3.89,3.89,0,0,1-1.92.52,2,2,0,0,1-1.48-.37,1.2,1.2,0,0,1-.43-1.23,14.17,14.17,0,0,0,.43-1.58c0-.1-.26,0-.27,0a10,10,0,0,1-.39,1.45,1.22,1.22,0,0,0,.07,1c.48.87,1.52.89,2.4.8a4.25,4.25,0,0,0,1.76-.57c.15-.1-.09-.12-.17-.07Z"/><path class="cls-17" d="M186.31,61.7c.16,0,.29.21.34.32a2.09,2.09,0,0,1,.14.61.93.93,0,0,1-.08.57,1,1,0,0,1-.66.47,1.26,1.26,0,0,1-.58,0,4.15,4.15,0,0,0-.61-.14.36.36,0,0,0-.18,0s-.1.06,0,.07a4.09,4.09,0,0,0,1.25.16,1.83,1.83,0,0,0,.92-.43.84.84,0,0,0,.26-.67,2.08,2.08,0,0,0-.15-.74.49.49,0,0,0-.56-.34s-.16,0-.16.07.08,0,.11,0Z"/><path class="cls-8" d="M214,246.8c1.11,0,2.21,0,3.31,0l2-10.89c.65-4,1.66-11.3,1.09-15.35l-1-4.38,1.79-10.08.46-9.57-23-1.73s5.37,36.15,6.69,51.66C208.22,246.5,211.09,246.75,214,246.8Z"/><path class="cls-27" d="M205.14,247.4a2.11,2.11,0,0,1-.26.49c2.35,3.13,7.05,3.86,10.74,2.44a10.17,10.17,0,0,0,1.42-1.54l1.83-11.52s-11,3.22-14.35.34C204.52,237.61,205.48,246.36,205.14,247.4Z"/><path class="cls-24" d="M226.25,203.13c-2.21.21-4.11,1.47-10.05,2.5a66.28,66.28,0,0,1-9.38,1.19,15.46,15.46,0,0,1-5.16-.42c-.8-.18-2.48-.8-3.28-1l-.54-3.78-.85-38-5.56-19.32,37.09-.93.86,6.41a58.53,58.53,0,0,1-.11,16.19L226,185.11S226.19,200.46,226.25,203.13Z"/><path class="cls-32" d="M197.71,200.87l-1.14-34.68s-2.49-5.63-4.26-5.74"/><path class="cls-33" d="M222.46,106.15a108.8,108.8,0,0,0,2.19,13.35,171.65,171.65,0,0,0,6.12,24.21c-3,1.5-3.82,2.29-7.06,3.32-4.72,1.49-11.14,4.26-16,4.82-4.42.51-13.17,2.11-17.61,2.33-5.08.25-6.32-.66-11.48-2.11-.21-10.68-1-25-1.47-29.92-.55-5.44-1.51-10.32-1.51-10.32s-8.72-2.09-11-5.75c5.25-10.6,2.59-14.13,9.18-20.48,1.2-1.16,9.91-6.08,12.15-6.47a7.47,7.47,0,0,0-.14,3.84c.71,1.85,1.06,2.22,2.71,2.92,1.47.62,5.42.29,6.94-.26,4.76-1.72,7.81-7.19,9.13-10.52,4.46.68,9,3.7,12.13,5.58,10.43,6.27,5.42,24.1,5.42,24.1Z"/><path class="cls-34" d="M173.11,99.74A90.53,90.53,0,0,0,175,111.5c.69,3.63,1.88,7.13,1.83,10.88,0,.18.74.06.74-.2.05-3.74-1.13-7.25-1.83-10.88a90.23,90.23,0,0,1-1.88-11.76c0-.19-.76-.05-.75.2Z"/><path class="cls-28" d="M204.35,234c-.73-9.21-3.85-18.44-2.8-27.74,0-.3-.78-.15-.81.11-1.06,9.34,2.06,18.6,2.79,27.84,0,.24.84.08.82-.21Z"/><path class="cls-5" d="M187.91,243.05a3,3,0,0,0,1.11,2.41.54.54,0,0,0,.28,0,1.65,1.65,0,0,0,.43-.09c.06,0,.48-.2.33-.3a2.41,2.41,0,0,1-.91-1.43,3.45,3.45,0,0,1-.14-.9c0-.07-.17-.07-.19-.07a1.33,1.33,0,0,0-.4.05,1.58,1.58,0,0,0-.38.15c-.06,0-.13.08-.13.16Z"/><path class="cls-5" d="M185.83,244.29a3.23,3.23,0,0,0,1.21,2.65.71.71,0,0,0,.79-.06c.18-.15.29-.42.06-.58l-.19-.15,0,0,0,0-.08-.09a2.8,2.8,0,0,1-.25-.35l-.05-.09,0,0v0a.6.6,0,0,1-.08-.2c0-.12-.09-.24-.13-.37a4.48,4.48,0,0,1-.11-.62.49.49,0,0,1,0-.12c0-.06,0,.13,0,0v-.11c0-.27-.27-.39-.52-.37s-.6.17-.6.45Z"/><path class="cls-24" d="M100.17,195.08l-12.49,35.8-.29-1.07-1.49,2.95a37.9,37.9,0,0,0-4.05,16.79l0,5.26S164.1,271.65,182,259.48c10.82-7.33,8.85-15.52,4.9-22.79-7.19-13.23-53.54-43-55.36-43.09,0,0-7.32,2.19-3-3.29Z"/><path class="cls-35" d="M86.39,231c7.6,1.65,15.43,2.47,23.14,3.47,8.37,1.08,16.74,2.07,25.11,3.12,2.57.33,7.6.47,8.36,3.59.09.41.93.19.83-.22-.68-2.81-4.52-3.44-7-3.76-3.44-.44-6.88-.86-10.32-1.28-9.47-1.16-18.94-2.31-28.39-3.66-3.83-.55-7.7-1.07-11.49-1.89-.43-.1-.83.51-.28.63Z"/><path class="cls-35" d="M190.5,242.7c-.09-4.12.05-8.38-1.59-12.26-1.76-4.15-5-7.26-8.61-9.79s-7.81-4.91-11.58-7.58c-4.08-2.87-8.07-5.87-12.12-8.77a119.33,119.33,0,0,0-13.37-8.56c-.34-.17-1.06.28-.64.5,8.23,4.34,15.57,10.2,23.1,15.62,3.65,2.64,7.39,5.1,11.21,7.48s7.8,5.25,10.18,9.37c2.53,4.35,2.46,9.17,2.57,14,0,.45.86.33.85-.06Z"/><path class="cls-5" d="M201.89,246.15a3,3,0,0,0,1.11,2.41c.07.05.2,0,.28,0a2,2,0,0,0,.42-.1c.06,0,.49-.2.34-.3a2.37,2.37,0,0,1-.91-1.43,3.45,3.45,0,0,1-.14-.9c0-.06-.17-.07-.19-.07a1.08,1.08,0,0,0-.4.06,1,1,0,0,0-.38.15c-.06,0-.13.08-.13.15Z"/><path class="cls-5" d="M199.81,247.39A3.22,3.22,0,0,0,201,250a.69.69,0,0,0,.79-.06c.18-.15.29-.42.06-.58a1.39,1.39,0,0,1-.19-.15l-.05,0,0,0-.08-.09a2,2,0,0,1-.25-.35l0-.09,0,0v0a1.33,1.33,0,0,1-.09-.21l-.12-.37a4.23,4.23,0,0,1-.11-.62s0-.08,0-.12,0,.13,0,0v0s0,0,0-.08c0-.27-.26-.39-.51-.37s-.61.18-.6.45Z"/><path class="cls-8" d="M154.63,119.21c7.87,4.39,11.54,5.81,23.11,11.35,7.17,3.43,13.53,5.67,17.92,2.3,11.17-7.63,19.29-26.8,23.2-32.9a9.23,9.23,0,0,0-1.19-11.27L200.49,99.13l-12.1,18.61-1.65,1.67-27.1-7.13"/><path class="cls-33" d="M211.69,79.51s-10.11,12-14.36,23c0,0,9.49,8.16,21.84,5.52,0,0,4.75-18.07.53-23.24S211.69,79.51,211.69,79.51Z"/><path class="cls-34" d="M198.75,102.75c-.45-.15-1.58-.47-1.79-.91s.35-1.25.54-1.66c.5-1.13,1-2.24,1.6-3.34q1.65-3.23,3.59-6.29c2.41-3.8,6.23-9.13,11.49-7.29.31.11.88-.34.43-.49-4.48-1.57-8.47,1.72-10.93,5.15A73.53,73.53,0,0,0,196,101.8a.19.19,0,0,0,.07.25,7.45,7.45,0,0,0,2.2,1.19c.31.11.88-.34.44-.49Z"/><path class="cls-8" d="M160.31,112.66s-2.1-5.91-2.29-7.27-.43-4.83-1-5.23-1.35.65-1.81,1.86.84,4.2.16,4.52-8.3-3.13-9.89-3.85-6.1-2.46-6.63-.23c0,0-2.25-.5-2.56.43a3.22,3.22,0,0,0-.24,1.35,2,2,0,0,0,.61,2.48,11.87,11.87,0,0,0,2.33,1.15s-1.26.37-.45,1.75,4.84,3.8,4.84,3.8,2.38,3.29,4.76,4.35a42.45,42.45,0,0,0,7.33,1.94Z"/><path class="cls-28" d="M154.38,119.85c2.06,1,4.17,1.83,6.26,2.73s4.17,1.83,6.29,2.66c.16.06.71-.19.49-.27-2.12-.83-4.2-1.76-6.29-2.66s-4.2-1.77-6.25-2.73c-.16-.08-.72.16-.5.27Z"/><path class="cls-28" d="M163.73,113.3a36,36,0,0,1,4.77,1.47c2.35.74,4.86,1,7.16,1.87.14.06.69-.17.49-.25-2.3-.87-4.81-1.13-7.15-1.87a36,36,0,0,0-4.77-1.47c-.15,0-.68.22-.5.25Z"/><path class="cls-8" d="M207.62,113.4c-2,2-4.72,4.65-5.25,4.7s-4,.88-7,1.61a3,3,0,0,1-3.67-1.49c-.13-.33,6.31-3.83,4.31-6.18l-6.13,2a26,26,0,0,0-5.16,3.21c-1.82,1.64-5.1,7.67-5.1,7.67l-7.87,2.4,5.84,11.27,7.23-3.56,8.23-.63s14.55-3.92,15.86-5.42,1.79-5.58,1.79-5.58c2.11-1.72,1-5,1-5,2.37-3.77-.86-3.45-.86-3.45a.7.7,0,0,0,.22-.39C211.39,113,208.8,112.2,207.62,113.4Z"/><path class="cls-28" d="M207.35,113.31c-1.09,1.08-2.18,2.16-3.31,3.2a4.91,4.91,0,0,1-2.28,1.48c-1.18.24-2.35.53-3.51.81-1.77.42-4.26,1.47-5.74,0-.85-.85-.15-1,.57-1.59A24.32,24.32,0,0,0,195,115.6c1-.94,2.31-2.41,1.28-3.78-.07-.08-.33,0-.4,0-4.06,1.32-8.5,2.37-11.66,5.49a28.37,28.37,0,0,0-4.17,6.19,6.64,6.64,0,0,0-.59,1c-.13.38-.07.2,0,.15a17.63,17.63,0,0,1-2,.62l-5.76,1.75s-.32.1-.27.19l5.84,11.27c.07.14.39,0,.48,0l4.91-2.42c.75-.37,1.5-.73,2.24-1.11.05,0-.41,0,0,0a8.91,8.91,0,0,0,1.15-.09c2.16-.16,4.32-.31,6.47-.49a14.75,14.75,0,0,0,2.7-.65c2.36-.67,4.7-1.36,7-2.1a39.36,39.36,0,0,0,5.95-2.21c1.87-1,2.28-3.26,2.61-5.18a4.78,4.78,0,0,1,.17-1.06c.12-.25.47-.46.64-.7a3.58,3.58,0,0,0,.49-1.09,5,5,0,0,0,.16-1.63c0-.46-.26-1-.23-1.44.05-.94,1.41-2.08.58-3.12a1.5,1.5,0,0,0-.91-.48,3.77,3.77,0,0,1-.69,0c.31.28.38-.78.29-1a1.81,1.81,0,0,0-1.17-1,2.87,2.87,0,0,0-2.81.58c-.15.12.43.07.55,0,1-.91,3.81.17,2.67,1.62-.08.11.07.13.15.12a1.62,1.62,0,0,1,1.26.37,1.31,1.31,0,0,1,.25,1.18c-.12.64-.76,1.24-.83,1.83s.3,1.36.29,2a4.29,4.29,0,0,1-.42,1.86c-.23.45-.71.77-.89,1.21a23.09,23.09,0,0,0-.52,2.68,5.63,5.63,0,0,1-1.43,2.93c-1.23,1-3.14,1.39-4.6,1.88-3.47,1.18-7,2.23-10.56,3.17-.39.1,0,0-.47.07-.8,0-1.6.12-2.4.18-1.73.13-3.5.18-5.23.4a11.12,11.12,0,0,0-3.16,1.39l-4.6,2.27.49,0-5.84-11.27-.28.19,4.76-1.45,2.63-.8a1.73,1.73,0,0,0,.78-.34,10.43,10.43,0,0,0,1.14-2c.72-1.22,1.45-2.43,2.26-3.59a14.64,14.64,0,0,1,7.1-5.26c1.88-.64,3.78-1.23,5.67-1.85l-.39,0c1.47,1.94-1.92,4.2-3.21,5.16-.27.21-1.05.59-1.12,1s.67,1,.9,1.12a3.26,3.26,0,0,0,1.65.56c1.44.13,3-.51,4.35-.84s2.71-.52,4-.89a4.84,4.84,0,0,0,1.78-1.2c1.32-1.16,2.56-2.4,3.8-3.64C208,113.14,207.46,113.2,207.35,113.31Z"/><path class="cls-28" d="M209.36,116.8a12.37,12.37,0,0,1-3.78,4,17.75,17.75,0,0,1-5.1,1.84l0,.19c0,.08.05.16.07.24a16,16,0,0,0,5.43-1.8A10.89,10.89,0,0,0,209.8,117a6.46,6.46,0,0,0,.86-2.08A10.26,10.26,0,0,0,209.36,116.8Z"/><path class="cls-28" d="M210.17,120c-.45.49-1,1.08-1.52,1.75a15.39,15.39,0,0,1-2,2A8.58,8.58,0,0,1,204,125c-.79.24-1.58.45-2.39.63l.15.34a20.43,20.43,0,0,0,2.47-.52,8.72,8.72,0,0,0,2.93-1.3,12.17,12.17,0,0,0,2-2.12l1.4-1.81a6.84,6.84,0,0,0,1.15-1.76A7.31,7.31,0,0,0,210.17,120Z"/><path class="cls-28" d="M210.68,123.35c-.09,0-.33.48-.89,1.22a15.18,15.18,0,0,1-1,1.25,7.49,7.49,0,0,1-.7.68,2.09,2.09,0,0,1-.81.52c-1.57.5-2.92,1-3.91,1.35-.21.06-.41.14-.61.21,0,.11.07.22.1.33,1.06-.24,2.76-.74,4.65-1.35a2.73,2.73,0,0,0,1.06-.68,7.07,7.07,0,0,0,.71-.74,8.41,8.41,0,0,0,1-1.38C210.68,123.93,210.77,123.36,210.68,123.35Z"/><path class="cls-6" d="M81.53,83.55c-5.24,4.11-10.11,19.76-4.37,27.05,10.34,18.85,32,49.05,43,52.92,13.53,4.75,64.36-27.16,64.36-27.16l-6.67-14.25-51.73,16.42S101.45,91.8,98,90"/><path class="cls-26" d="M153,129.6l-22.67,7.68-3.24,1.09.45,0q-5-10.59-10.16-21.08c-2.58-5.21-5.19-10.41-8-15.53-1.71-3.17-3.35-6.75-5.73-9.5a33.76,33.76,0,0,0-3.33-3.22c-2.46-2.14-5.76-4.53-9.21-4-.29,0-.56.38-.1.31,3.42-.56,6.81,2.18,9.17,4.33.92.83,1.85,1.72,2.7,2.62a20.11,20.11,0,0,1,2.36,3.41c1.13,1.88,2.19,3.79,3.23,5.72,5.23,9.67,10,19.6,14.77,29.52q1.82,3.78,3.59,7.57c.07.14.35.05.45,0L150,130.92l3.24-1.1c.44-.15,0-.31-.24-.22Z"/><path class="cls-26" d="M79.93,118.1a243.06,243.06,0,0,0,20.58,30.29c3.39,4.21,6.82,8.5,11.08,11.87a20.66,20.66,0,0,0,6.77,3.79,19.06,19.06,0,0,0,8.37.12,62.67,62.67,0,0,0,15.8-4.95c1.6-.7,3.23-1.34,4.79-2.13l16.43-8.37,14.64-7.45c.38-.2-.21-.24-.4-.15l-29,14.77a93.38,93.38,0,0,1-16,6.59,41.94,41.94,0,0,1-10.07,1.76,14.37,14.37,0,0,1-8.36-2.51c-4.54-2.89-8.15-7.07-11.53-11.19a250.37,250.37,0,0,1-22.46-32.62c-.12-.19-.74,0-.66.18Z"/><path class="cls-26" d="M127.26,138.29c-4.18.61-7.19,4.78-7.39,8.85,0,.28.65.15.66-.08.17-3.67,2.77-7.82,6.65-8.39.32,0,.53-.45.08-.38Z"/><path class="cls-34" d="M214.1,109.05a11.89,11.89,0,0,0,3.73,1,1.14,1.14,0,0,0,1-.45,13.93,13.93,0,0,0,.91-1.76,56.45,56.45,0,0,0,3.08-7.72c.07-.21-.67-.12-.74.11a56.06,56.06,0,0,1-2.5,6.49c-.24.52-.49,1-.74,1.55-.12.24-.24.49-.37.73s-.24.61-.43.66a2.36,2.36,0,0,1-.78-.13c-.32-.07-.64-.15-1-.24a14.1,14.1,0,0,1-1.65-.59c-.19-.08-.87.21-.6.33Z"/><path class="cls-28" d="M139.07,108.13c2.05-.2,3.86,1,5.5,2.05.21.13.75-.15.48-.33-1.78-1.16-3.7-2.34-5.91-2.13-.33,0-.49.45-.07.41Z"/><path class="cls-28" d="M136.46,104.06a8.62,8.62,0,0,1,5.23,1.32c1.67.87,3.33,1.79,5,2.69.21.11.76-.18.47-.34-1.82-1-3.63-2-5.49-2.94a8.6,8.6,0,0,0-5.14-1.13c-.32,0-.48.47-.06.4Z"/><path class="cls-28" d="M139.11,102.44a4.16,4.16,0,0,1,2.3.58q1,.48,2,1,2.07,1.08,4,2.34c.16.1.69-.14.57-.22q-2.15-1.36-4.4-2.54c-1.35-.69-2.87-1.67-4.45-1.46-.27,0-.53.33-.1.28Z"/><path class="cls-5" d="M189.79,251.6a68.46,68.46,0,0,0,7.35-2.91c1.19-.55,2.36-1.14,3.52-1.76a8.88,8.88,0,0,1,4-1.41c.34,0,1.19-.53.46-.51-2.68,0-5,1.72-7.31,2.86a65.2,65.2,0,0,1-8.37,3.4c-.14,0-.43.19-.31.37s.59,0,.71,0Z"/><g class="cls-36"><rect class="cls-37" x="245.77" y="234.33" width="533.08" height="15.8"/></g></g></svg>