<?xml version="1.0" encoding="UTF-8"?>
<svg id="Layer_5" data-name="Layer 5" xmlns="http://www.w3.org/2000/svg" xmlns:xlink="http://www.w3.org/1999/xlink" viewBox="0 0 292.89 301.99">
  <defs>
    <style>
      .cls-1 {
        fill: #192a19;
      }

      .cls-2 {
        fill: #070707;
      }

      .cls-3 {
        fill: #8f8f8f;
      }

      .cls-4 {
        fill: #825739;
      }

      .cls-5 {
        fill: #010101;
      }

      .cls-6 {
        fill: #ddad6f;
      }

      .cls-7 {
        fill: #c69e81;
      }

      .cls-8 {
        fill: #0e668e;
      }

      .cls-9 {
        fill: #638e9f;
      }

      .cls-10 {
        fill: #231f20;
      }

      .cls-11 {
        fill: #e2e0e0;
      }

      .cls-12 {
        fill: #527569;
      }

      .cls-13 {
        fill: #27153c;
      }

      .cls-14 {
        fill: url(#linear-gradient);
      }

      .cls-15 {
        fill: #f1eef7;
      }

      .cls-16 {
        fill: #906244;
      }

      .cls-17 {
        fill: #0a2f44;
      }

      .cls-18 {
        fill: #28343a;
      }

      .cls-19 {
        fill: #1d140f;
      }

      .cls-20 {
        fill: #fff;
      }

      .cls-21 {
        fill: #725547;
      }

      .cls-22 {
        fill: #716d63;
      }

      .cls-23 {
        fill: none;
        stroke: #000;
        stroke-miterlimit: 10;
        stroke-width: .96px;
      }

      .cls-24 {
        fill: #054e66;
      }

      .cls-25 {
        fill: #4f2f26;
      }

      .cls-26 {
        fill: #14162a;
      }

      .cls-27 {
        fill: #311811;
      }

      .cls-28 {
        fill: #5b6a7d;
      }

      .cls-29 {
        fill: #523936;
      }

      .cls-30 {
        fill: #b4b3ab;
      }

      .cls-31 {
        fill: #94674b;
      }
    </style>
    <linearGradient id="linear-gradient" x1="149.76" y1="254.63" x2="137.79" y2="-13.84" gradientUnits="userSpaceOnUse">
      <stop offset=".06" stop-color="#d3c293"/>
      <stop offset=".68" stop-color="#f2ebd1"/>
    </linearGradient>
  </defs>
  <g id="Layer_6" data-name="Layer 6">
    <circle class="cls-14" cx="145.45" cy="157.83" r="134.37"/>
    <path class="cls-21" d="M31.2,228.34c38.93,63.19,121.72,82.86,184.91,43.93,17.87-11.01,32.92-26.06,43.93-43.93H31.2Z"/>
    <path class="cls-3" d="M222.75,257.43c.96,1.76,1.45,7.29-.19,8.59-1.65,1.3-10.84,2.87-10.84,2.87l-8.43,2.63-7.97.68h-3.36l-3.12-1.31-3.43-2.12s-.19-4.36,1.33-5.11,7.56-3.73,8.38-3.57l12.95-6.63s.98,4,6.02,3.74,6.95-2.54,6.95-2.54l1.71,2.77Z"/>
    <path class="cls-19" d="M222.56,266.01l-6.45,1.35c-5.81,1-11.54,2.48-17.35,3.43-4.04.66-8.4.73-12.03-1.65-.43-.31-.84-.65-1.22-1.01-.13.14,0,.45,0,.68.38.52.83,1,1.32,1.42,2.47,2.1,5.64,3.19,8.87,3.05,2.68-.18,5.34-.54,7.97-1.06,3.63-.55,7.27-1.14,10.91-1.54l4.24-.14s5.23-2.58,3.74-4.53Z"/>
    <path class="cls-3" d="M207.71,254.99c.96,1.76,1.97,6.89.36,8.19s-11.15,2.41-11.15,2.41l-12.32,1.38-4.08,1.92h-3.36l-3.12-1.3-3.43-2.12s-.19-4.37,1.33-5.11,7.56-3.74,8.39-3.58l12.94-6.62s.98,4,6.02,3.74,6.76-1.69,6.76-1.69l1.67,2.77Z"/>
  </g>
  <path class="cls-9" d="M125.7,75.55s22.02,7.68,27.68,11.88c7.24,5.31,12.12,26.94,15.38,33.91,3.61,7.71,13.4,33.22,13.4,33.22l-26.78,10.11-16.88-26.15-12.89-64.61.08,1.65Z"/>
  <ellipse class="cls-30" cx="101.69" cy="132.87" rx="7.13" ry="4.76"/>
  <path class="cls-7" d="M106.19,54.7c.38,3.5.3,7.03-.24,10.51-1.3,8.32-8.5,12.29-8.5,12.29l31.02,18,9.84-10.52s-4.89-5.14-5.01-6.8,3.12-14,3.12-14"/>
  <path class="cls-6" d="M134.11,18.58h0c1.22,0,2.21.99,2.2,2.21l-.02,7.36c0,1.22-.99,2.21-2.21,2.2h0c-1.22,0-2.21-.99-2.2-2.21l.02-7.36c0-1.22.99-2.21,2.21-2.2Z"/>
  <path class="cls-6" d="M124.33,33.23h0c1.02.66,1.32,2.03.65,3.06l-4,6.18c-.66,1.02-2.03,1.32-3.06.65h0c-1.02-.66-1.32-2.03-.65-3.06l4-6.18c.66-1.02,2.03-1.32,3.06-.65Z"/>
  <path class="cls-4" d="M106.24,56.8v.08s-.01-.07,0-.08Z"/>
  <path class="cls-7" d="M125.26,75.66l8.35,1.44,3.78.24c1.59.17,3.12-.63,3.9-2.03,1.78-3.03,2.39-4.6,2.62-4.96,1.46-2.38,2.73-4.86,3.8-7.44.87-2.23,1.77-3.53,2.35-6.25.51-2.25.41-4.59-.29-6.79-.2-.85-.15-1.74.14-2.57.58-1.86.92-4.06,1.66-6.55.17-.44.27-.89.31-1.36,0,0,1.31-10.53-.3-14.47s-3.19-7.94-5.87-8.88-12.13.93-12.13.93l-11.21-2.54-10.02,3.98-5.84,11.3-.4,13.65.14,13.36"/>
  <path class="cls-5" d="M110.1,24.09c-.28-6.1,5.31-7.94,7.63-8.81,1.98-.73,7.51-2.05,11.41-1.15,1.68.38.59,3.9,1.47,4.61.29.08,3.69,1.15,5.05,1.46,1.7.5,3.47.68,5.24.52.97-.25,1.98-.25,2.94,0,1.73.4,2.83-3.88,6.1.49l.19-.17c-4.09-6.37-10.07-6.71-17.15-8.34-.74-.18-1.52-.32-2.31-.45-11.32-1.71-10.96-1.59-18.94,5.31-4.64,4.05-7.5,8.04-7.65,10.69v.59c-.16,2.75-3.54,10.01-2.69,11.59.54,1.01,2.12,5.41,3.52,9.14l5.43.54c0-1.06.21-9.83.24-10.88"/>
  <path class="cls-7" d="M106.48,57.01c-4.74,3.92-5.01-3.44-5.01-3.44-2.72-3.96-2.35-7.88-1.99-10.56s3.3-2.33,3.3-2.33c2.49.51,3.83,1.25,5.13,9.9"/>
  <path class="cls-5" d="M142.45,18.15c-4.07-.38-14.55-4.03-20.06-4.81-2.28-.32-10.33,4.76-11.41,5.97-2.5,2.78,2.22,9.99-2.42,19.12-1.53,3.02-2.92-2.57-4.72-.66s-2.48,2.69-2.48,2.69c-.51-9.11-.5-8.8,2.12-17.56,2.62-8.76,12.66-11.87,17.42-12.25s19.68,2.26,23.61,4.47"/>
  <path class="cls-26" d="M105.66,49.5c-.44-1.31-1.01-2.58-1.69-3.78-.35-.62-.79-1.19-1.31-1.68-.2-.19-.45-.34-.71-.42-.33-.08-.5.22-.65.46-.59,1.08-.78,2.33-.55,3.54,0,.19.46.08.42-.11-.17-.95-.08-1.93.25-2.84.11-.32.29-.62.51-.87l-.24.1h.13c.16.09.32.19.47.31.71.68,1.28,1.49,1.69,2.39.48.96.91,1.96,1.26,2.97.06.19.48.07.41-.11v.04Z"/>
  <path class="cls-26" d="M104.69,49.89c-1.76-.23-1.06,2.12-1.2,3.12,0,.06,0,.11,0,.17v.07h.13l-.24-.4c-.18-.52-.28-1.06-.32-1.61-.12-.72-.12-1.46,0-2.18.15-.76.46-2,1.31-2.27.24-.07.2-.29,0-.2-.77.33-1.33,1.02-1.51,1.84-.19.56-.29,1.14-.29,1.73-.04.74,0,1.48.1,2.21.06.32.15.87.45,1.06.25.12.54.03.68-.21.13-.27.17-.57.13-.87,0-.44-.31-2.36.49-2.25.13,0,.5-.19.27-.22l.02.02Z"/>
  <path class="cls-5" d="M135.74,35.74l-.25,1.91c-.06.49-.18,1.6-.24,2.12-1.65-.64-3.1-1.44-4.19-1.76-2.1-.78-4.31-1.25-6.55-1.38-1.02-.02-2.03.15-2.99.51-.3.13-1.14.7-1.53.47-.16-.08.22-.84.25-.91.79-1.51,2.36-1.98,4.25-2.12,3.8-.2,7.6.2,11.27,1.19"/>
  <path class="cls-5" d="M152.28,38.08l-1.06-.33c-3.04-.84-6.21-1.08-9.35-.72l-.1,1.93c0,.49-.1,1.37-.12,1.86,1.44-.34,2.69-.78,3.62-.9,1.84-.38,3.73-.43,5.59-.15l1.06.25c.59-.86.66-1.8.35-1.94Z"/>
  <path class="cls-31" d="M135.87,61.81c-3.19-.39-8.28-1.41-8.28-1.41,0,0-.36,7.79,7,8.71s8.6-6.75,8.6-6.75c0,0-4.15-.15-7.33-.55Z"/>
  <path class="cls-2" d="M135.9,61.82c-1.51-.19-7.56-1.21-7.56-1.21,0,0,1.35,5.56,6.81,6.24,3.2.6,6.33-1.3,7.28-4.42l-6.52-.61Z"/>
  <path class="cls-15" d="M135.93,62.06c-1.51-.19-6.07-1.06-6.07-1.06,0,0,1.44,1.86,5.97,2.42,4.53.56,6.17-.85,6.17-.85l-6.08-.51Z"/>
  <path class="cls-31" d="M143.33,61.93c-.15-.06.22.28-.51.12-1.24-.25-1.98-.69-2.88-.87-1.09-.1-2.18-.07-3.26.1-1.02-.43-2.09-.73-3.19-.89-.91-.05-3.19,0-4.46-.05-.6-.1-1.19-.23-1.76-.41-.23,0,0,1.72,8.45,2.78,8.45,1.06,7.84-.7,7.62-.76Z"/>
  <path class="cls-5" d="M135.87,59.33l-.27.79c-.06.22-.26.37-.49.36-1.57,0-7.35.39-8.76.22h-.35c-.51-.15-.28-.84.24-.98,1.26-.34,2.54-.6,3.83-.76,1.76-.22,3.54-.3,5.31-.23.3.03.51.3.48.6,0,0,0,0,0,0Z"/>
  <path class="cls-5" d="M137.93,59.48l-.11.87c.01.21.15.39.35.46,1.26.37,5.31,1.8,6.5,1.92l.49.07h.27c.44,0,.1-1.06-.3-1.26-2.05-1.32-4.34-2.21-6.73-2.62-.26,0-.47.2-.48.46,0,.04,0,.07,0,.11Z"/>
  <path class="cls-5" d="M139.98,77.65l1.06-1.51s-14.67.83-17.41-.23c-7.28-2.8-12.05-13.98-12.05-13.98.99,3.46,2.62,6.71,4.81,9.56,3.73,4.97,4.66,5.64,9.07,6.02,3.36.29,9.56.91,12.29,1.2.88.08,1.73-.33,2.22-1.06Z"/>
  <path class="cls-5" d="M99.69,42.23c-1.33-3.91-1.8-8.06-1.38-12.17.59-7.44,1.92-17.37,10.84-20.58,1.59-.57,3.25-.91,4.93-1.01,0,0,6.13-5.43,21.75-1.06,10.96,3.05,14.97,7.96,15.29,16.57,0,0-2.72-4.68-3.7-4.36s-1.99,2.52-5.76,2.54-9.71-1.06-12.04-2.8-6.67-3.75-9.26-3.61c-6.31.34-7.44,5-8.13,7.71s-3.05,12.33-6.23,13.42c-1.77.5-3.11,1.94-3.48,3.74l-.52.16c-.9.27-1.7.79-2.31,1.5v-.04Z"/>
  <path class="cls-5" d="M111.59,61.93c6.28,8.77,10.34,11.48,12.94,11.92s4.6,1.41,6.54.8c2.37-.76,3.19-1.9,3.71-1.4.24.21,1.06,1.72,1.32,1.94.9.38,1.9.44,2.84.16,1.63-.4,3.04-1.41,3.94-2.83-.78,1.66-1.52,4.04-3.19,4.76-1.06.45-2.54.13-3.66.06-2.48-.13-4.83-.24-7.31-.46-2.17-.01-4.33-.4-6.37-1.13-3.35-1.49-6.68-6.37-8.59-9.56l-2.16-4.27Z"/>
  <path class="cls-5" d="M136.23,56.89c.73.39,1.53.61,2.35.66.68.12,1.37.06,2.02-.17.52-.24.97-.61,1.32-1.06.21-.48.23-1.02.06-1.52-.11-.52-.3-1.06-.41-1.55,0-.06-.35,0-.34.1.29.82.46,1.67.5,2.54,0,.51-.4.8-.79,1.06-.21.19-.46.33-.72.41-.41.05-.82.05-1.23,0-.85-.04-1.68-.27-2.43-.67-.07,0-.35.11-.32.12v.08Z"/>
  <path class="cls-5" d="M133.47,54.22c-.3-.05-.61.08-.8.32-.17.26-.27.55-.28.86-.05.29,0,.59.16.84.27.32.65.53,1.06.59.27.06.55.06.82,0,.32-.08.64-.14.97-.19.06,0,.2,0,.23-.08s0,0-.08,0c-.46.13-.93.2-1.4.21-.38-.04-.75-.18-1.06-.4-.41-.37-.53-.96-.3-1.47.04-.14.1-.27.18-.39.03-.05.07-.1.12-.14,0,0,.07,0,0,0s0,0,0,0c.08.03.16.03.24,0,0,0,.12-.06,0-.08l.14-.06Z"/>
  <path class="cls-9" d="M154.9,140.8c9.27,1.55,10.54,0,10.54,0l52.72-26.39h0c1.22,6.14,2.83,10.25,7.37,14.55l-1.7,1.82s-29.9,26.56-44.14,34.74c-2.96,1.71-9.91,7.07-20.56,2.28-3.32-1.06-7.44-8.55-8.45-11.12"/>
  <path class="cls-7" d="M126.1,123.38c8.36,4.66,11.09,5.46,23.37,11.35,7.62,3.64,14.38,6.02,19.04,2.44,11.87-8.11,23.48-28.47,27.62-34.95,2.37-3.81,1.84-8.74-1.27-11.97l-20.52,8.64-13.52,22.21-1.76,1.78-28.76-7.57"/>
  <path class="cls-8" d="M205.79,215.59s3.88,14.38,3.36,17.52-1.6,3.39-7.56,4.19c-4.91.57-9.89.21-14.67-1.06-2.79-.8-2.35-5.09-.85-9.94,1.5-4.85,3.19-10.95,3.19-10.95,0,0,9.68-7.09,16.54.25Z"/>
  <path class="cls-22" d="M207.46,235.95s-3.81,2.12-10.77,1.75-9.2.62-11.56-3c.96,1.07,2.3,1.73,3.74,1.84,2.12,0,2.78-1.26,3.82-2.33s3.47-1.46,5.01-1.51c3.92-.13,4.16,2.54,5.08,2.73s2.7,1.31,4.67.51Z"/>
  <path class="cls-24" d="M190.65,216.16s-1.31,9.83-.71,11.74,3.29,1.31,5.79,1.26,5.95-.88,7.69,0,2.58-.8,1.95-4.44c-.63-3.64-1.97-10.06-1.97-10.06,0,0-10.21-1.81-12.76,1.5Z"/>
  <path class="cls-20" d="M192.55,215.12s9.91,0,10.06-.91-.82-.92-.82-.92c0,0-7.31.19-9.56,1-1.12.38.32.84.32.84Z"/>
  <path class="cls-20" d="M192.55,212.4s9.91,0,10.06-.91-.82-.92-.82-.92c0,0-7.31.2-9.56,1-1.12.38.32.84.32.84Z"/>
  <path class="cls-24" d="M203.41,208.68c-.19-.69-.19-1.43,0-2.12.56-2.05-4.25-2.12-7.12-2.05s-5.56.36-5.84,2.27c-.21,1.03-.01,2.11.55,3,0,0,8.13-2.23,12.41-1.09Z"/>
  <path class="cls-20" d="M192.57,209.68s9.92,0,10.06-.91-.82-.92-.82-.92c0,0-7.31.2-9.56,1-1.1.38.32.84.32.84Z"/>
  <path class="cls-22" d="M183.23,235.95s3.81,2.12,10.77,1.75,9.19.62,11.55-3c-.96,1.07-2.3,1.73-3.73,1.84-2.12,0-2.78-1.26-3.82-2.33s-3.47-1.46-5.01-1.51c-3.92-.13-4.16,2.54-5.08,2.73s-2.7,1.31-4.67.51Z"/>
  <path class="cls-20" d="M198.13,215.12s-9.91,0-10.06-.91.82-.92.82-.92c0,0,7.31.19,9.56,1,1.1.38-.32.84-.32.84Z"/>
  <path class="cls-20" d="M198.13,212.4s-9.91,0-10.06-.91.82-.92.82-.92c0,0,7.31.2,9.56,1,1.1.38-.32.84-.32.84Z"/>
  <path class="cls-24" d="M187.27,208.68c.19-.7.19-1.43,0-2.12-.56-2.05,4.2-2.12,7.12-2.05s5.56.36,5.84,2.27c.21,1.03,0,2.11-.56,3,0,0-8.12-2.23-12.4-1.09Z"/>
  <path class="cls-20" d="M198.1,209.68s-9.91,0-10.05-.91.82-.92.82-.92c0,0,7.3.2,9.56,1,1.1.38-.33.84-.33.84Z"/>
  <path class="cls-29" d="M229.32,94.25h.06l-.07-.13v.13Z"/>
  <path class="cls-29" d="M213.72,80.76v.06l-.14-.11.14.04Z"/>
  <path class="cls-20" d="M87.97,241.98c-.85-2.5-3.68-5.31-5.74-6.66-2.06-1.35-4.78-.46-5.51-.23-5.41,1.7-8.5,5.6-12.9,8.82-3.42,2.48-7.12,4.54-11.03,6.15-3.98,1.65-8.23,2.31-12.25,3.76h-.1c-1.97.71-3.64,2.07-4.72,3.87-.38.64-.78,1.27-1.19,1.86-.58.83-1.2,1.42-.75,2.48.83,1.95,4.25-.15,5.22-.47.19-.04.38-.04.57,0,2.32.29,4.67.25,6.98-.12.35-.05.71-.07,1.06-.07h0c2.12-.16,13.33.05,15,0,3.29,0,11.56-.97,11.56-.97,0,0,13.47-.72,17.6,2.12l6.5-14.68s-9.43-3.35-10.31-5.85Z"/>
  <path class="cls-20" d="M106.01,226.41c-.85-2.5-3.68-5.31-5.74-6.66s-4.78-.46-5.51-.23c-5.41,1.7-8.5,5.6-12.9,8.82-3.43,2.48-7.15,4.55-11.07,6.15-3.99,1.65-8.23,2.31-12.25,3.76h-.1c-1.95.72-3.59,2.09-4.65,3.87-.38.64-.78,1.27-1.2,1.86-.57.83-1.19,1.42-.74,2.48.82,1.95,4.25,1.06,5.22.73.19-.05.39-.05.57,0,2.32.29,4.67.25,6.98-.12.37,0,.74-.06,1.06-.07v.06c2.12-.15,11.12.27,12.75.23,3.29,0,13.75-2.42,13.75-2.42,0,0,13.47-.72,17.6,2.12l6.46-14.7s-9.33-3.37-10.23-5.87Z"/>
  <path class="cls-21" d="M88.35,241.88c-1.17-2.82-3.21-5.21-5.82-6.8-2.12-1.3-4.63-.75-6.81.06-5.31,2-8.86,6.65-13.68,9.48l-4.75,2.77c-.45.27.2.49.51.32l4.64-2.72c2.24-1.41,4.35-3.01,6.31-4.78,2.77-2.34,5.91-4.71,9.56-5.31,2.38-.38,4.04.71,5.7,2.26,1.54,1.33,2.75,3,3.54,4.88.12.33.88.11.76-.2l.03.04Z"/>
  <path class="cls-17" d="M110.1,185.31l-12.5,42.33,16.08,2.71-1.46,28.43s81.01-3.05,85.8-8.98c8.56-10.62,9.82-13.79,5.19-21.28-8.5-13.81-67.56-45.37-68.61-44.83l-24.51,1.61Z"/>
  <path class="cls-9" d="M102.56,72.12l-1.29.46c-6.11,1.84-19.12,6.19-23.77,10.56-10.76,10.11-3.77,27.97-3.68,34.18.07,3.04,11.31,30.66,6.62,47.47-3.1,11.2-5.52,22.58-7.26,34.07l18.23,4.62c8.91,2.26,21.6-8.02,30.81-8.31l22.73-3.98c.88-11.89,3.44-11.39,3.94-27.05l5.43-46.97-4.66-22.73s-6.77-5.08-7.17-6.27l-9.18-9.85s1.44,9.85-7.9,10.06c-9.65.22-12.2-1.54-18.69-7.89,0,0-3.81-4.99-4.16-8.37Z"/>
  <path class="cls-9" d="M56.64,184.45l.51-1.59c1.7-5.55,3.8-10.96,6.3-16.2,2.54-5.11,4.6-9.61,5.15-15.52,1.4-14.81-2.87-55.77,5.25-60.18,1.64-.89,20.09-8.96,20.09-8.96l.44-.58c-1.2,1.61,8.57,8.66,9.56,9.35,6.96,4.57,16.13,9.68,23.69,3.52l.21,1.91,2.45,10.11.08,28.38c0-.3.12,9.99-.33,14.72-1.66,17.85-6.29,63.34-7.44,66.51-.77,2.26-2.85,3.82-5.24,3.93l-58.82-21.96c-2.96-1.06-2.73-4.5-2.87-7.61-.01-1.99.31-3.96.96-5.84Z"/>
  <path class="cls-18" d="M110.35,267.7c.13-1.91-.78-3.19-1.06-3.12s.1,1.44,0,3.06c-.1,1.61-.67,2.88-.41,3.03s1.35-1.05,1.48-2.96Z"/>
  <path class="cls-17" d="M55.85,193.58s10.42,3.54,26.87-4.39c5.32,3.27,10.83,6.21,16.5,8.83,10.62,5.02,21.59,9.37,32.06,14.64-7.94,6.75-22.41,18.39-31.67,23.37-12.1,6.61-27.22,4.36-37.37-4.74-4.1-3.78-13.04-24.56-6.38-37.71Z"/>
  <path class="cls-13" d="M155.5,111.02c-1.68,12.28-3.53,24.55-5.1,36.85-.41,3.3-.82,6.61-1.16,9.92,0,.3.68.17.71-.08,1.33-12.82,3.26-25.58,5.08-38.33.39-2.82.8-5.63,1.18-8.5,0-.3-.68-.18-.71.08v.05Z"/>
  <path class="cls-9" d="M56.8,184.92c-1.98,2.04-1.64,6.53-1.25,8.84.12.7,1.16.96,1.56,1.54.68.77,1.6,1.31,2.6,1.54,5.47,2.01,11.09,3.57,16.82,4.68,11.2,1.86,22.64.19,33.84-1.58,11.21-1.77,22.49-3.71,32.99-8,1.83-.75,3.94-2.05,3.8-4.03-.16-2.12-2.78-3.04-4.91-3.4l-17-2.95"/>
  <path class="cls-7" d="M208.73,222.14l.52-6.01,1.85-21.04-25.49-1.84s1.25,12.09,3.1,24.94c3.76,23.93,4.06,28.19,4.43,34.3,2.12.33,4.14.33,6.24.65.87.15,1.64-.2,2.51-.35.98-.27,1.72.11,2.59-.43.38-.21,1.06.3,1.49.39l2-16.14c.71-4.28,1.68-8.33,1.07-12.63l-.31-1.83Z"/>
  <path class="cls-11" d="M193.14,252.49c4.02,2.04,8.74,2.13,12.83.25l1.74-10.99s-11.95,3.38-15.51.32c0,0,1.27,9.19.94,10.42Z"/>
  <path class="cls-17" d="M193.41,210.12c-3.61-.27-8.28-.82-10.89-3l-1.12-54.41,19.96-5.41,4.25,61.17c-4.04.05-8.2,1.93-12.21,1.65Z"/>
  <path class="cls-7" d="M175.44,65.72c-.59-2.67-.9-5.39-.92-8.12-.16-1.06-.35-2.32-.56-3.82-.06-.44-.11-.86-.16-1.27,0-.22-.02-.43-.06-.65-.66-7.44,1.3-11.53,1.3-11.53,2.51-5.23,7.61-8.74,13.4-9.21,6.8-.69,13.43,2.69,17.12,6.45,1.84,1.86,2.93,4.33,3.06,6.95.07,2.43-.06,4.85-.39,7.26,2.35-.4,4.78.16,4.45,4.63-.45,6.17-4.11,8.5-6.14,7.09-.4.13-1.06,2.05-.97,3.32.11,2.43.72,6.69,2.12,8.66v.69c-4.1,8.87-6.53,14-24.61,11.27l4.6-8.69-.29-2.71c-.99.19-2,.16-2.97-.06-5.58-.78-8.32-7.55-8.97-10.25Z"/>
  <path class="cls-29" d="M251.69,121.72v.07l-.16-.17.16.1Z"/>
  <path class="cls-25" d="M187.49,76c4.34-.38,8.47-2.05,11.84-4.81,0,0-.47,2.03-4.43,3.99-2.25,1.16-4.73,1.8-7.26,1.87l-.16-1.05Z"/>
  <path class="cls-10" d="M211.22,56.89c.18-.71.12-1.45-.15-2.12-.08-.16-.17-.41-.38-.39-.56.05-1.06.67-1.34,1.06-.55.78-1,1.62-1.36,2.51-.07.19.25.13.32,0s.39-.32.57-.2c.17.18.26.41.25.66,0,.72-.58,1.14-1.23,1.29-.22,0-.16.27.06.21.83-.19,1.66-.78,1.52-1.73-.05-.34-.23-.69-.62-.7-.32.02-.63.16-.86.39l.33.06c.39-1.09.99-2.1,1.75-2.97.14-.14.3-.27.47-.37h.1s0,0,0,0h-.15c.45.7.57,1.56.33,2.36,0,.16.34.11.37,0v-.04Z"/>
  <path class="cls-16" d="M185.52,65.92c2.07-.25,5.41-.91,5.41-.91,0,0,.9,5.8-4.87,6.44-4.82.53-5.5-5.02-5.5-5.02,0,0,2.91-.24,4.96-.5Z"/>
  <path class="cls-27" d="M185.52,65.92c.99-.12,4.65-.62,4.65-.62-.35,2.08-2.01,3.69-4.1,3.98-3.87.49-4.75-2.61-4.75-2.61l4.2-.75Z"/>
  <path class="cls-15" d="M185.52,66.39c.98-.13,3.96-.67,3.96-.67-1.2.81-2.59,1.27-4.04,1.34-2.96.37-3.9-.31-3.9-.31l3.97-.36Z"/>
  <path class="cls-16" d="M180.59,66.38c0-.11.2-.18.68-.28.81-.17,1.06-.5,1.63-.62.71-.08,1.42-.08,2.12,0,.66-.27,1.35-.46,2.05-.57h2.91c.39-.06.78-.15,1.16-.27.15,0,0,1.4-5.55,2.12s-4.98-.24-5-.39Z"/>
  <path class="cls-5" d="M187.74,49.31s.16-.08.14-.14c1.7-.82,3.52-1.33,5.4-1.52.61.02,1.2.15,1.76.37.65.22,1.27.53,1.84.9.23.3-.91,0-.91,0-.21-.05-.43-.08-.65-.1-1.29-.12-2.59-.04-3.86.23-1.2.49-2.35,1.12-3.42,1.86-.13-.56-.13-1.08-.3-1.61Z"/>
  <path class="cls-5" d="M181.51,50.51s-.15,0-.15-.1c-1.61-.38-3.27-.42-4.9-.13-.51.17-.99.44-1.4.8-.49.37-.94.8-1.33,1.29-.13.36.76-.24.76-.24.17-.1.34-.18.52-.24,1.05-.44,2.16-.69,3.29-.75,1.14.18,2.25.5,3.31.96-.01-.52-.14-1.02-.12-1.57Z"/>
  <path class="cls-5" d="M206.44,56.62v-.12c.17-.9.56-1.73,1.15-2.43.31-.35.67-.66,1.06-.91.39-.25.8-.46,1.24-.61.6-.22,1.26-.29,1.89-.18l.33.11c1.06-5.42,1.06-11.09-3.45-17.07-1.32-1.72-4.45-3.43-5.42-3.99-5.82-3.3-10.68-3.05-16.54-1.78-6.79,1.46-12.75,6.6-13.5,13.71-.29,1.5-.31,3.05-.05,4.56,0,0,.63-6.46,3.72-8.81,3.09-2.35,4.02.49,8.72,0,5.44-.51,6.89-3.66,11.5-1.89,2.46.91,4.51,2.68,5.79,4.97.87,2.29,2.12,3.75,1.77,6.54-.08.66-.14,1.33-.18,2,0,1.2.13,2.4.39,3.58.13.6.49,1.12,1,1.44.55.36.02,1.14.57.88Z"/>
  <path class="cls-5" d="M203.13,43.74c.53,1,.92,2.08,1.15,3.19.22,1.55-.21,3.19-.13,4.7-.05,1.18.16,2.35.62,3.43.22.39.58.56.82.89s.15.61.36.83c.11.1.27.13.41.08l.2-.05c.47-.12.33-.65-.14-.52h-.2l.42.1c-.14-.14-.14-.55-.25-.74-.34-.55-.9-.82-1.13-1.52-.42-1.63-.51-3.33-.27-5,.16-1.06.13-2.14-.1-3.19-.37-1.07-.81-2.12-1.33-3.12-1.26-2.85-3.67-5.03-6.63-6-4.05-1.36-7.36,1.66-11.31,2.01-2.07.18-3.68-.62-5.64-.95-1.41-.17-2.82.33-3.8,1.36-2.23,2.12-3.11,5.69-3.42,8.65l.82,1.41c-.66-4.34.53-10.3,3.33-13.68,2.69-3.05,6.32-5.12,10.31-5.86,4.61-.97,9.21-1.14,13.61.78,1.75.78,3.43,1.73,5,2.83,1.79,1.26,3.25,2.92,4.25,4.87,2.44,4.45,2.56,9.36,1.66,14.25l.62-.29c-2.73-.84-6.02,1.6-6.25,4.43-.11.44.64.33.7.02.18-2.25,2.75-4.55,5.02-3.86.22.07.56,0,.61-.29.86-4.64.84-9.31-1.26-13.63-.92-2.06-2.3-3.88-4.05-5.31-1.58-1.18-3.27-2.2-5.05-3.05-4.46-2.12-9.15-2.29-13.95-1.4-4.17.63-8.03,2.53-11.07,5.45-3.47,3.56-5.07,8.54-4.31,13.46.06.34.73,1.09.75.8.17-2.69,1.06-6.22,2.55-8.46.96-1.54,2.85-2.21,4.56-1.63,1.58.56,3.26.8,4.93.71,1.83-.22,3.62-.71,5.31-1.47,1.73-.92,3.76-1.13,5.64-.58"/>
  <path class="cls-5" d="M212.08,52.46s5.16-5.31.13-15.69c-.58-1.19-1.45-2.22-2.54-2.99l-1.01-.72c-.91-2.15-2.45-3.97-4.42-5.23-3.25-2.02-10.75-1.65-14.31-3.31-3.56-1.67-4.63-3.19-4.63-3.19-.71,1.43-1.11,2.99-1.19,4.59,0,0-10.89,2.55-11.39,17.65,0,0,8.96-14.41,21.46-11.22,12.5,3.19,17.9,20.11,17.9,20.11Z"/>
  <path class="cls-5" d="M187.88,25.58s-2.86.87-5.81-1.94c0,0-2.56,3.82-.11,6.02"/>
  <path class="cls-5" d="M185.52,62.7c-.62.36-1.32.55-2.04.55-.56.08-1.12-.06-1.57-.39-.4-.31-.57-.82-.46-1.31.18-.55.34-1.11.46-1.68,0-.11-.28,0-.29,0-.1.52-.24,1.04-.41,1.54-.13.35-.1.74.07,1.06.51.92,1.61.95,2.55.85.66-.06,1.3-.27,1.87-.61.16-.11-.1-.13-.18-.07v.05Z"/>
  <path class="cls-5" d="M187.98,60.55c.17,0,.31.22.36.34.08.21.13.43.15.65.04.21,0,.42-.08.61-.15.26-.41.44-.7.5-.2.05-.41.05-.62,0-.21-.07-.43-.12-.65-.15-.06-.02-.13-.02-.19,0,0,0-.11.06,0,.07.43.12.88.18,1.33.17.36-.06.7-.22.98-.46.19-.18.3-.45.28-.71,0-.27-.06-.54-.16-.79-.08-.25-.33-.41-.59-.36,0,0-.17,0-.17.07s.08,0,.12,0l-.04.05Z"/>
  <path class="cls-7" d="M217.39,257.18c1.18,0,2.73-2.08,3.9-2.08l1.77-11.17c.69-4.25,1.73-21.32,1.12-25.62l-1.06-4.65,1.9-8.71.49-1.17-24.43-1.84s6.43,35.87,7.83,52.34c3.06.04,5.38,2.84,8.47,2.9Z"/>
  <path class="cls-11" d="M207.98,253.62c-.07.18-.16.36-.28.52,2.5,3.32,7.49,4.1,11.41,2.59.56-.49,1.73-1.04,2.18-1.64l1.94-12.24s-13.41,4-16.97.95c0,0,1.69,9.47,1.71,9.82Z"/>
  <path class="cls-17" d="M230.4,210.79c-2.35.22-4.37,1.56-10.68,2.66-3.29.66-6.62,1.08-9.96,1.26-1.84.16-3.69,0-5.48-.45-.85-.19-2.63-.85-3.48-1.06l-.57-4.02-.9-40.37-5.91-20.52,39.4-.99.91,6.81c.76,5.71.72,11.5-.12,17.2l-3.47,20.33s.2,16.31.27,19.14Z"/>
  <path class="cls-23" d="M200.09,208.39l-1.21-36.84s-2.65-5.98-4.53-6.1"/>
  <path class="cls-12" d="M226.38,107.77c.48,4.77,1.26,9.51,2.33,14.18,1.54,8.72,3.71,17.31,6.5,25.72-3.19,1.59-4.06,2.43-7.5,3.53-5.01,1.58-11.83,4.53-17,5.12-4.7.54-13.99,2.24-18.71,2.48-5.4.27-6.71-.7-12.2-2.24-.22-11.35-1.06-26.56-1.56-31.78-.58-5.78-1.6-10.96-1.6-10.96,0,0-9.26-2.22-11.69-6.11,5.58-11.26,2.75-15.01,9.75-21.76,1.27-1.23,10.53-6.46,12.91-6.87-.4,1.32-.46,2.73-.15,4.08.75,1.97,1.13,2.36,2.88,3.1,1.56.66,5.76.31,7.37-.28,5.06-1.83,8.3-7.64,9.7-11.18,4.74.72,9.56,3.93,12.89,5.93,11.08,6.66,5.76,25.6,5.76,25.6l.32,1.44Z"/>
  <path class="cls-1" d="M173.95,100.96c.39,4.2,1.06,8.38,2.01,12.49.73,3.86,2,7.57,1.94,11.56,0,.19.79.06.79-.21.05-3.97-1.2-7.7-1.94-11.56-.94-4.12-1.61-8.29-2-12.49,0-.2-.81-.05-.8.21Z"/>
  <path class="cls-25" d="M207.28,241.58c-.78-9.78-2.5-22.68-3.11-27.46,0-.32-.83-.16-.86.12,0,0,2.33,17.76,3.1,27.57,0,.25.89.08.87-.22h0Z"/>
  <path class="cls-19" d="M189.67,253.19c-.03.99.41,1.94,1.18,2.56.1.03.2.03.3,0,.16-.01.31-.04.46-.1.06,0,.51-.21.35-.32-.5-.37-.84-.91-.97-1.52-.09-.31-.14-.63-.15-.96,0-.07-.18-.07-.2-.07-.14,0-.29.01-.42.05-.14.04-.28.09-.4.16-.06,0-.14.08-.14.17v.02Z"/>
  <path class="cls-19" d="M187.47,254.51c-.04,1.09.43,2.13,1.29,2.82.27.15.6.13.84-.06.19-.16.31-.45.06-.62l-.2-.16h0l-.08-.1c-.1-.12-.19-.24-.27-.37l-.05-.1h0c-.04-.07-.07-.14-.08-.21,0-.13-.1-.25-.14-.39-.05-.22-.09-.44-.12-.66,0-.04,0-.09,0-.13,0-.06,0,.14,0,0v-.12c0-.29-.29-.41-.55-.39s-.64.18-.64.48h-.05Z"/>
  <path class="cls-17" d="M96.47,202.24l-13.27,38.03-.31-1.14-1.58,3.13c-2.79,5.53-4.26,11.64-4.3,17.84v5.59s87.37,17.89,106.39,4.96c11.49-7.79,9.4-16.49,5.21-24.21-7.64-14.05-56.88-45.68-58.81-45.77,0,0-7.78,2.33-3.19-3.49l-30.14,5.07Z"/>
  <path class="cls-28" d="M81.83,240.39c8.07,1.75,16.39,2.62,24.58,3.69,8.89,1.15,17.78,2.2,26.67,3.31,2.73.35,8.07.5,8.88,3.81.1.44.99.2.88-.23-.72-2.99-4.8-3.65-7.44-3.99-3.65-.47-7.31-.91-10.96-1.36-10.06-1.23-20.12-2.45-30.16-3.89-4.07-.58-8.18-1.14-12.21-2.01-.46-.11-.88.54-.3.67h.04Z"/>
  <path class="cls-28" d="M192.43,252.82c-.1-4.38.05-8.9-1.69-13.02-1.87-4.41-5.31-7.71-9.15-10.4s-8.3-5.22-12.3-8.05c-4.33-3.05-8.57-6.24-12.87-9.32-4.53-3.34-9.27-6.38-14.2-9.09-.36-.18-1.13.3-.68.53,8.74,4.61,16.54,10.84,24.54,16.59,3.88,2.8,7.85,5.42,11.91,7.95,4.06,2.53,8.29,5.58,10.81,9.95,2.69,4.62,2.63,8.67,2.75,13.8,0,.48.91.35.9-.06l-.02,1.12Z"/>
  <path class="cls-19" d="M204.53,254.49c-.03.99.41,1.94,1.18,2.56.07.05.21,0,.3,0,.15-.02.3-.05.45-.11.06,0,.52-.21.36-.32-.5-.37-.84-.91-.97-1.52-.09-.31-.14-.63-.15-.96,0-.06-.18-.07-.2-.07-.14,0-.29.02-.42.06-.14.02-.28.08-.4.16-.06,0-.14.08-.14.16v.03Z"/>
  <path class="cls-19" d="M202.32,255.81c-.04,1.07.43,2.1,1.26,2.77.27.16.6.13.84-.06.19-.16.31-.45.06-.62-.07-.05-.14-.1-.2-.16h-.05l-.08-.1c-.1-.11-.19-.24-.27-.37v-.1h0c-.04-.07-.07-.15-.1-.22l-.13-.39c-.06-.22-.09-.44-.12-.66v-.13s0,.14,0,0h0v-.08c0-.29-.28-.41-.54-.39s-.65.19-.64.48l-.04.03Z"/>
  <path class="cls-7" d="M154.32,121.64c8.36,4.66,12.26,6.17,24.55,12.06,7.62,3.64,14.37,6.02,19.04,2.44,11.87-8.11,20.49-28.47,24.65-34.95,2.37-3.81,1.85-8.74-1.26-11.97l-18.25,11.09-12.85,19.77-1.75,1.77-28.79-7.57"/>
  <path class="cls-12" d="M214.94,79.47s-10.74,12.75-15.25,24.43c0,0,10.69,6.69,22.84,7.53,0,0,5.41-20.86.92-26.36-4.48-5.49-8.51-5.61-8.51-5.61Z"/>
  <path class="cls-1" d="M201.19,104.16c-.48-.16-1.68-.5-1.9-.97s.37-1.33.57-1.76c.53-1.2,1.06-2.38,1.7-3.55,1.17-2.29,2.44-4.51,3.81-6.68,2.56-4.04,6.62-9.7,12.21-7.74.33.12.93-.36.46-.52-4.76-1.67-9,1.83-11.61,5.47-3.24,4.61-5.98,9.55-8.16,14.74-.05.09-.02.21.07.27.7.55,1.49.98,2.34,1.26.33.12.93-.36.47-.52h.04Z"/>
  <path class="cls-7" d="M160.36,114.68s-2.23-6.28-2.43-7.72c-.2-1.44-.46-5.13-1.06-5.56s-1.43.69-1.92,1.98.89,4.46.17,4.8-8.82-3.32-10.51-4.09-6.48-2.61-7.04-.24c0,0-2.39-.53-2.72.46-.19.45-.27.94-.25,1.43-.45.92-.17,2.03.65,2.63.78.5,1.61.91,2.48,1.22,0,0-1.34.39-.48,1.86s5.14,4.04,5.14,4.04c0,0,2.53,3.49,5.06,4.62,2.53.92,5.13,1.61,7.79,2.06l5.14-7.49Z"/>
  <path class="cls-25" d="M154.06,122.32c2.19,1.06,4.43,1.94,6.65,2.9s4.43,1.94,6.68,2.83c.17.06.75-.2.52-.29-2.25-.88-4.46-1.87-6.68-2.83s-4.46-1.88-6.64-2.9c-.17-.08-.76.17-.53.29Z"/>
  <path class="cls-25" d="M163.99,115.36c1.72.4,3.42.92,5.07,1.56,2.5.79,5.16,1.06,7.61,1.99.15.06.73-.18.52-.27-2.44-.92-5.11-1.2-7.6-1.99-1.65-.64-3.34-1.16-5.07-1.56-.16,0-.72.23-.53.27h0Z"/>
  <path class="cls-7" d="M210.61,115.47c-2.12,2.12-5.01,4.94-5.58,4.99s-4.25.93-7.44,1.71c-1.51.53-3.18-.15-3.9-1.58-.14-.35,6.7-4.07,4.58-6.56l-6.51,2.12c-1.95.92-3.79,2.06-5.48,3.41-1.93,1.74-5.42,8.15-5.42,8.15l-8.36,2.55,6.2,11.97,7.68-3.78,8.74-.67s15.46-4.16,16.85-5.76c1.39-1.59,1.9-5.93,1.9-5.93,2.24-1.83,1.06-5.31,1.06-5.31,2.52-4-.91-3.66-.91-3.66.12-.11.2-.25.23-.41.35-1.66-2.4-2.51-3.65-1.23Z"/>
  <path class="cls-25" d="M210.33,115.37c-1.16,1.15-2.32,2.29-3.52,3.4-.64.74-1.48,1.29-2.42,1.57-1.25.25-2.5.56-3.73.86-1.88.45-4.53,1.56-6.1,0-.9-.9-.16-1.06.61-1.69.71-.53,1.39-1.11,2.04-1.71,1.06-1,2.45-2.56,1.36-4.02-.07-.08-.35,0-.42,0-4.31,1.4-9.03,2.52-12.39,5.83-1.76,1.99-3.25,4.2-4.43,6.58-.24.34-.45.69-.63,1.06-.14.4-.07.21,0,.16-.69.26-1.4.48-2.12.66l-6.12,1.86s-.34.11-.29.2l6.2,11.97c.07.15.41,0,.51,0l5.22-2.57c.8-.39,1.59-.78,2.38-1.18.05,0-.44,0,0,0,.41,0,.82-.04,1.22-.1,2.29-.17,4.59-.33,6.87-.52.98-.14,1.94-.37,2.87-.69,2.51-.71,4.99-1.44,7.44-2.23,2.17-.61,4.28-1.4,6.32-2.35,1.99-1.06,2.42-3.46,2.77-5.5.02-.38.08-.76.18-1.13.13-.27.5-.49.68-.74.24-.35.41-.75.52-1.16.15-.56.21-1.15.17-1.73,0-.49-.28-1.06-.24-1.53.05-1,1.5-2.21.62-3.31-.25-.28-.59-.46-.97-.51-.24.02-.49.02-.73,0,.33.3.4-.83.31-1.06-.24-.52-.69-.91-1.24-1.06-1.03-.34-2.17-.11-2.99.62-.16.13.46.07.58,0,1.06-.97,4.05.18,2.84,1.72-.08.12.07.14.16.13.48-.06.97.08,1.34.39.29.35.39.82.27,1.25-.13.68-.81,1.32-.88,1.94s.32,1.44.31,2.12c0,.68-.15,1.36-.45,1.98-.24.48-.75.82-.95,1.29-.24.94-.42,1.89-.55,2.85-.19,1.16-.72,2.25-1.52,3.11-1.31,1.06-3.34,1.48-4.89,2-3.69,1.25-7.44,2.37-11.22,3.37-.41.11,0,0-.5.07-.85,0-1.7.13-2.55.19-1.84.14-3.72.19-5.56.42-1.19.31-2.32.81-3.36,1.48l-4.89,2.41h.52l-6.2-11.97-.3.2,5.06-1.54,2.79-.85c.3-.05.59-.17.83-.36.48-.66.89-1.37,1.21-2.12.76-1.3,1.54-2.58,2.4-3.81,1.88-2.59,4.51-4.55,7.54-5.59,2-.68,4.02-1.31,6.02-1.97h-.41c1.56,2.06-2.04,4.46-3.41,5.48-.29.22-1.12.63-1.19,1.06s.71,1.06.96,1.19c.52.35,1.13.56,1.75.59,1.53.14,3.19-.54,4.62-.89s2.88-.55,4.25-.95c.72-.28,1.36-.71,1.89-1.27,1.4-1.23,2.72-2.55,4.04-3.87.18-.22-.39-.16-.51-.04Z"/>
  <path class="cls-25" d="M212.46,119.08c-1,1.7-2.37,3.15-4.02,4.25-1.7.93-3.52,1.58-5.42,1.95v.2c0,.08.05.17.07.25,2.02-.29,3.98-.93,5.77-1.91,1.73-1.12,3.13-2.69,4.06-4.54.43-.68.74-1.43.91-2.21-.53.61-1,1.28-1.38,2Z"/>
  <path class="cls-25" d="M213.32,122.48c-.48.52-1.06,1.15-1.61,1.86-.64.77-1.35,1.48-2.12,2.12-.86.6-1.81,1.05-2.82,1.33-.84.25-1.68.48-2.54.67l.16.36c.89-.13,1.76-.31,2.62-.55,1.11-.26,2.17-.73,3.11-1.38.8-.66,1.51-1.42,2.12-2.25l1.49-1.92c.5-.56.91-1.19,1.22-1.87-.62.46-1.18,1.01-1.64,1.64Z"/>
  <path class="cls-25" d="M213.86,126.04c-.1,0-.35.51-.95,1.3-.33.46-.69.9-1.06,1.33-.23.26-.48.5-.74.72-.24.25-.53.44-.86.55-1.67.53-3.1,1.06-4.15,1.43-.22.06-.44.15-.65.22,0,.12.07.23.11.35,1.13-.25,2.93-.79,4.94-1.43.43-.15.81-.4,1.13-.72.27-.24.52-.51.75-.79.4-.45.76-.94,1.06-1.47.42-.88.52-1.49.42-1.5Z"/>
  <path class="cls-9" d="M76.67,83.76c-5.57,4.37-10.74,20.99-4.64,28.73,10.98,20.02,33.99,52.11,45.68,56.22,14.37,5.05,68.37-28.85,68.37-28.85l-7.09-15.14-54.95,17.44s-26.21-49.64-29.87-51.55"/>
  <path class="cls-13" d="M152.59,132.68l-24.08,8.16-3.44,1.16h.48c-3.54-7.5-7.14-14.96-10.79-22.39-2.74-5.53-5.51-11.06-8.5-16.5-1.82-3.37-3.56-7.17-6.09-10.09-1.1-1.22-2.28-2.36-3.54-3.42-2.61-2.27-6.12-4.81-9.78-4.25-.31,0-.59.4-.11.33,3.63-.59,7.23,2.32,9.74,4.6.98.88,1.97,1.83,2.87,2.78.96,1.12,1.8,2.33,2.51,3.62,1.2,2,2.33,4.03,3.43,6.08,5.56,10.27,10.62,20.82,15.69,31.36,1.29,2.68,2.56,5.36,3.81,8.04.07.15.37.05.48,0l24.14-8.07,3.44-1.17c.47-.16,0-.33-.25-.23h0Z"/>
  <path class="cls-13" d="M74.97,120.46c6.47,11.26,13.78,22.02,21.86,32.18,3.6,4.47,7.24,9.03,11.77,12.61,2.12,1.78,4.56,3.15,7.19,4.03,2.92.7,5.95.74,8.89.13,5.8-1,11.45-2.77,16.78-5.26,1.7-.74,3.43-1.42,5.09-2.26l17.45-8.89,15.55-7.91c.4-.21-.22-.25-.42-.16l-30.81,15.69c-5.44,2.85-11.13,5.2-17,7-3.48,1.06-7.07,1.68-10.7,1.87-3.17.05-6.27-.88-8.88-2.67-4.82-3.07-8.66-7.51-12.25-11.89-8.86-10.9-16.83-22.49-23.86-34.65-.13-.2-.79,0-.7.19h.02Z"/>
  <path class="cls-13" d="M125.25,141.91c-4.44.65-7.64,5.08-7.85,9.4,0,.3.69.16.7-.08.18-3.9,2.94-8.31,7.06-8.91.34,0,.56-.48.08-.4Z"/>
  <path class="cls-1" d="M217.5,110.85c1.25.57,2.59.93,3.96,1.06.41.03.81-.15,1.06-.48.37-.6.69-1.22.97-1.87,1.29-2.65,2.38-5.39,3.27-8.2.07-.22-.71-.13-.79.12-.74,2.35-1.63,4.65-2.66,6.89-.25.55-.52,1.06-.79,1.65-.13.25-.25.52-.39.78s-.25.65-.46.7c-.28,0-.56-.05-.83-.14-.34-.07-.68-.16-1.06-.25-.6-.17-1.18-.38-1.75-.63-.2-.08-.92.22-.64.35l.1.02Z"/>
  <path class="cls-25" d="M137.79,109.87c2.18-.21,4.1,1.06,5.84,2.18.22.14.8-.16.51-.35-1.89-1.23-3.93-2.49-6.28-2.26-.35,0-.52.48-.07.44h0Z"/>
  <path class="cls-25" d="M135.02,105.55c1.95-.14,3.9.35,5.56,1.4,1.77.92,3.54,1.9,5.31,2.86.22.12.81-.19.5-.36-1.93-1.06-3.86-2.12-5.83-3.12-1.65-.96-3.56-1.38-5.46-1.2-.34,0-.51.5-.06.42h-.01Z"/>
  <path class="cls-25" d="M137.83,103.83c.86-.04,1.71.18,2.44.62.71.34,1.42.69,2.12,1.06,1.47.76,2.88,1.59,4.25,2.49.17.11.73-.15.61-.23-1.52-.96-3.08-1.86-4.67-2.7-1.43-.73-3.05-1.77-4.73-1.55-.29,0-.56.35-.11.3l.08.02Z"/>
  <path class="cls-19" d="M191.67,260.28c2.66-.88,5.27-1.91,7.81-3.09,1.26-.58,2.51-1.21,3.74-1.87,1.27-.84,2.73-1.35,4.25-1.5.36,0,1.26-.56.49-.54-2.85,0-5.31,1.83-7.77,3.04-2.88,1.41-5.85,2.61-8.89,3.61-.15,0-.46.2-.33.39s.63,0,.75,0l-.05-.04Z"/>
  <path class="cls-20" d="M121.15,43.18s4.51,1.89,7,1.97,4.64-.77,4.64-.77c0,0-3.72-2.44-5.03-2.52s-5.52.27-6.61,1.32Z"/>
  <path class="cls-20" d="M141.52,45.88s3.18,1.82,6.01,1.81c2.28,0,2.7-1.18,2.7-1.18,0,0-1.03-1.94-2.52-2.04s-4.32.55-6.19,1.41Z"/>
  <path class="cls-5" d="M129.21,42.21c-.58-.31-1.48-.34-2,.06-.24.17-.33.38-.44.66-.18.51,0,1.19.33,1.62.41.51,1.09.7,1.7.48.74-.3,1.16-1.08,1.01-1.86-.06-.39-.28-.74-.61-.97"/>
  <path class="cls-5" d="M147.21,44.56c.64-.13,1.29.14,1.67.67.19.23.3.52.32.82.02.54-.23,1.06-.67,1.38-.54.36-1.25.34-1.77-.05-.61-.51-.78-1.37-.41-2.07.18-.35.5-.62.87-.74"/>
  <path class="cls-5" d="M141.49,45.84s2.97-1.97,4.82-1.75c2.69.3,3.19,1.06,3.92,2.43-.89-.95-2.07-1.58-3.36-1.78-1.82-.15-5.39,1.1-5.39,1.1Z"/>
  <path class="cls-5" d="M132.95,44.45s-3.52-2.74-5.31-2.97c-2.68-.34-6.04.93-7.03,2.12,0,0,4.45-1.91,6.37-1.63,2.07.62,4.07,1.45,5.97,2.48Z"/>
  <path class="cls-5" d="M119.85,40.52l.44,2.07c.4,1.96,1.01,3.87,1.83,5.69.63,1.26,8.93,2.75,10.7,2.02s3.19-5.31,3.8-6.37l3.32.59c.13,1.44.65,6.02,1.21,6.7s4.41,1.06,4.84,1.06.87.07,1.42.1c1.47.08,3.25.06,3.86-.39.89-.68,2.12-3.56,3.19-6.28l.18-.44c0-.1.07-.17.08-.2h0l.19-.49c-4.45-2.79-10.82-3.21-15.07-.91h0l-3.19-.55c-3.4-2.86-9.61-4.96-14.38-3.79h0l-13.17,1.95-.19,1.22,10.94-1.99ZM141.6,50.86c-.35-.42-.81-3.64-1.06-6.14,3.62-1.92,9.36-1.54,13.46.76v.06c-.59,1.47-2.12,5.31-3.04,6.02-1.06.79-8.71,0-9.33-.7h-.03ZM123.14,48.12c-1.16-2.34-1.93-4.85-2.29-7.44,4.25-1.31,11.6.66,14.94,3.39-.82,1.89-1.95,5.23-3.19,5.75-1.81.76-9.03-.86-9.42-1.66l-.03-.04Z"/>
  <path class="cls-20" d="M181.77,55.93s-3.79,1.29-5.11.86-2.02-1.4-2.02-1.4c0,0,.31-1.14,1.77-1.52s2.98-.97,5.35,2.05Z"/>
  <path class="cls-20" d="M197.13,53.9s-2.34,1.36-4.8,1.46-4.13-.17-4.13-.17c0,0,1.39-2.41,3.05-2.99s4.78.06,5.88,1.7Z"/>
  <path class="cls-5" d="M175.26,54.38c.85-.65,1.89-1,2.95-.98,2.26-.07,3.62,2.6,3.62,2.6-.88-1.16-2.23-1.88-3.69-1.98-1.26.17-2.46.64-3.51,1.37.08-.4.3-.76.62-1.02Z"/>
  <circle class="cls-5" cx="191.9" cy="53.66" r="1.46"/>
  <path class="cls-5" d="M188.2,55.13s1.81-3.19,4.25-3.3c3.49-.15,4.25,1.21,5.09,2.23-1.48-1.07-3.26-1.65-5.09-1.64-2.4.16-4.25,2.71-4.25,2.71Z"/>
  <circle class="cls-5" cx="177.06" cy="55.13" r="1.46"/>
</svg>