<?xml version="1.0" encoding="UTF-8"?>
<svg id="Layer_4" data-name="Layer 4" xmlns="http://www.w3.org/2000/svg" xmlns:xlink="http://www.w3.org/1999/xlink" viewBox="0 0 292.89 301.99">
  <defs>
    <style>
      .cls-1 {
        fill: none;
      }

      .cls-2 {
        fill: #192a19;
      }

      .cls-3 {
        fill: #f78e48;
      }

      .cls-4 {
        fill: #87664e;
      }

      .cls-5 {
        fill: #010101;
      }

      .cls-6 {
        fill: #231f20;
      }

      .cls-7 {
        fill: #527569;
      }

      .cls-8 {
        fill: url(#linear-gradient);
      }

      .cls-9 {
        fill: #f1eef7;
      }

      .cls-10 {
        fill: #2f8a42;
      }

      .cls-11 {
        fill: #2c468f;
      }

      .cls-12 {
        fill: #906244;
      }

      .cls-13 {
        fill: #0a2f44;
      }

      .cls-14 {
        fill: #fff;
      }

      .cls-15 {
        fill: #0a0808;
      }

      .cls-16 {
        fill: #2d383e;
      }

      .cls-17 {
        fill: #8e382e;
      }

      .cls-18 {
        fill: #0f8dce;
        stroke: #231f20;
        stroke-miterlimit: 10;
        stroke-width: .22px;
      }

      .cls-19 {
        fill: #dbb28f;
      }

      .cls-20 {
        fill: #4f2f26;
      }

      .cls-21 {
        fill: #d68b28;
      }

      .cls-22 {
        fill: #523936;
      }

      .cls-23 {
        fill: #a38166;
      }

      .cls-24 {
        fill: #f9da04;
      }

      .cls-25 {
        clip-path: url(#clippath);
      }
    </style>
    <clipPath id="clippath">
      <path class="cls-1" d="M240.97,61.64c-3.13-3.13-6.37-6.06-9.71-8.82.4-2.53.62-5.12.62-7.76,0-26.96-21.86-48.82-48.82-48.82-18.7,0-34.93,10.51-43.13,25.95-32.71,1.33-65.02,14.47-90,39.45C-2.83,114.4-2.83,199.93,49.92,252.69c52.76,52.76,138.29,52.76,191.05,0,52.76-52.76,52.76-138.29,0-191.05Z"/>
    </clipPath>
    <linearGradient id="linear-gradient" x1="147.4" y1="89.3" x2="137.16" y2="359.28" gradientUnits="userSpaceOnUse">
      <stop offset="0" stop-color="#d1d3d4"/>
      <stop offset=".94" stop-color="#6d6e71"/>
    </linearGradient>
  </defs>
  <g class="cls-25">
    <circle class="cls-8" cx="144.83" cy="157.17" r="135.09"/>
    <path class="cls-16" d="M29.97,281.55c2.33-17.82,3.55-35.78,3.64-53.75.04-4.98.04-9.97,0-14.95,0-.33-1.07-.13-1.07.28.32,17.89-.31,35.79-1.89,53.61-.47,4.98-1.04,9.97-1.71,14.95-.05.42.98.23,1.07-.12l-.04-.02Z"/>
    <path class="cls-19" d="M128.22,205.47c10.5-12.82,20.95-35.66,25.17-50.1l-5.54-37.38c-17.79-7.79-19.91,18.28-19.91,18.28-1.07,6.41-16.24,39.58-21.03,50.27,9.13,3.52,15.49,11.05,21.31,18.92Z"/>
    <path class="cls-19" d="M121.18,196.15c1.37-4.74-.78-10-1.07-15.06l-48.14-43.34-9.41,10.97s23.5,45.44,42.72,59.49c.82.61,6.08.97,7.48,1.47,2.83-4.88,6.88-8.15,8.43-13.53Z"/>
    <path class="cls-19" d="M139.77,183.23s-7.03,17.09-11.56,22.24-13.77,5.03-18.34,4.52c-12.69-1.43-7.36-18.26-7.36-18.26l12.11-19.58,25.14,11.09Z"/>
    <path class="cls-13" d="M183.39,287.99l-1.63-56.18,38.78,5.81,3.64,45.18c-13.63,1.51-27.19,3.48-40.79,5.19Z"/>
    <path class="cls-19" d="M143.03,71.23c0-4.43.9-12.64,1.75-15.24.15-2.03.34-4.39.58-7.24.07-.82.16-1.61.26-2.39.08-.4.14-.8.16-1.21,1.91-13.8,7.24-20.56,7.24-20.56,6.8-8.55,17.63-12.83,28.44-11.24,12.74,1.6,23.5,10.58,28.62,19.03,2.58,4.18,3.52,9.17,2.65,14-.9,4.47-2.17,8.85-3.79,13.11,4.47.27,8.68,2.33,6.19,10.38-3.44,11.11-11.13,13.88-14.24,10.37-.8,0-2.74,3.32-3.2,5.67-.83,4.5-1.51,12.56.31,16.76l-.26,1.28c-11.25,14.46-17.87,22.88-49.81,10.19l11.75-12.44.99-6.6c-2.48-.44-3.2-.19-5.43-1.37-10.02-3.72-12.18-17.29-12.22-22.51Z"/>
    <path class="cls-7" d="M232.2,157c3.37,11.75,6.77,7.39,7.1,8.97.41,1.93,4.69,51.94,10.68,86.28-2.86,3.52-17.6,5.52-24.18,7.22-9.51,2.37-19.24,3.82-29.03,4.34-8.85.57-16.59-1.07-25.46-1.07-10.15,0-22.13,1.22-32.27-2.14.69-20.91-3.12-63.41-3.58-73.11-.54-10.68-.36-6.29-.36-6.29,0,0-19.72-7.66-23.94-15.04,17.45-32.22,9.79-42.05,29.23-55.17,2.76-1.86,14.38-8.44,18.87-8.99-.87,2.39-1.11,4.97-.67,7.48,1.23,3.68,1.89,4.43,5.12,5.97,2.85,1.35,10.77,1.07,13.88.16,9.61-2.93,16.31-13.34,19.22-19.74,8.82,1.75,18.96,5.54,25.87,7.79,25.81,8.41,18.16,47.48,18.16,47.48-4.14,3.07-8.63,5.86-8.63,5.86Z"/>
    <path class="cls-20" d="M160.73,95.17c8.12,1.17,16.41-.15,23.76-3.79,0,0-1.71,3.51-9.79,5.45-4.64,1.18-9.49,1.29-14.18.32l.21-1.98Z"/>
    <path class="cls-12" d="M161.44,75.89c3.91.41,10.28.61,10.28.61,0,0-.59,11.03-11.42,9.75-9.05-1.07-8.16-11.56-8.16-11.56,0,0,5.38.8,9.29,1.2Z"/>
    <path class="cls-15" d="M161.4,75.89c1.86.19,8.79.82,8.79.82,0,0-2.26,6.29-8.98,5.6-7.29-.75-7.8-6.82-7.8-6.82l7.99.41Z"/>
    <path class="cls-9" d="M161.24,76.77c1.86.18,7.54.46,7.54.46,0,0-2.38,1.3-7.96.74-5.57-.57-7.01-2.26-7.01-2.26l7.42,1.07Z"/>
    <path class="cls-12" d="M152.18,74.64c0-.2.44-.25,1.37-.22,1.55,0,2.14-.47,3.2-.44,1.91.05,3.05.9,3.88.98s2.14-.51,3.99-.18c1.07.19,3.83.87,5.34,1.15.74.06,1.49.06,2.23,0,.27.1-.63,2.56-11.03,1.5-10.4-1.07-9-2.51-8.98-2.79Z"/>
    <path class="cls-5" d="M173.58,45.6c0-.1.33-.05.34-.15,5.27-.48,9.14,0,10.52.5,1.07.39,2.05.97,2.92,1.71,0,0,2.5,2.01,2.73,2.69s-1.61-.58-1.61-.58c-.34-.21-.7-.39-1.07-.54-2.35-.77-4.54-1.86-7.01-1.89-2.44.16-4.86.59-7.2,1.29.06-1.05.36-1.99.37-3.03Z"/>
    <path class="cls-5" d="M145.45,45.62c-.01-.15-.04-.29-.07-.44.8-.66,1.83-1.35,1.83-1.35.83-.58,1.77-1,2.76-1.24,1.25-.27,4.67-.16,9.13,1.07,0,.1.29.12.28.21-.14,1.07,0,2-.06,3.04-1.91-1.03-3.93-1.83-6.03-2.37-2.14-.33-4.17.42-6.29.82-.37.09-.72.22-1.07.37l-.49.25c.04-.12.04-.19.03-.37Z"/>
    <path class="cls-2" d="M130.26,143.48c.17,5.32.71,10.62,1.61,15.87.41,2.95.87,5.8,1.55,8.68,1.05,4.33,1.44,8.8,1.15,13.25,0,.35,1,.14,1.07-.15.26-3.93,0-7.88-.79-11.75-.27-1.37-.7-2.7-.98-4.06-.88-4.42-1.33-8.99-1.86-13.46-.39-2.87-.61-5.76-.67-8.66,0-.26-1.07-.09-1.07.27h-.01Z"/>
    <path class="cls-5" d="M202.1,67.29c0-.06.31,0,.34-.06.79-1.55,1.37-3.88,2.82-4.89.67-.46,2.14-2,2.94-2.26,1.09-.16,2.19-.2,3.29-.13,1.26-.01,2.5.31,3.6.92.19.11.81.62,1,.74,4.17-9.48,6.33-18.96.52-31.84-1.68-3.71-6.7-8.17-8.22-9.61-9.27-8.54-18.26-10.09-29.52-10.27-13.05-.21-26.06,6.7-30.52,19.39-1.07,3.05-.53,3.48-.6,6.72,2.01-3.87,5.03-7.47,9-9.27,6.65-3,7.24-1.07,16.02.12,10.19,1.36,14.17-3.8,21.87,1.4,4.12,2.71,7.13,6.81,8.49,11.54.62,4.58,2.32,7.77.49,12.73-.45,1.17-.83,2.37-1.19,3.58-.51,2.21-.77,4.46-.8,6.73.07,1.07-1.28,3.07-.41,3.83.01.02-.27.89.87.64Z"/>
    <path class="cls-5" d="M211.82,14.08c2.72,3.36,4.71,7.25,5.83,11.43l1.54,1.74c1.66,1.86,4.27,3.98,4.77,6.41,4.8,21.23-8.26,28.84-8.26,28.84,0,0-2.67-33.11-24.18-44.32s-43.36,11.64-43.36,11.64c3.12-25.64,27.57-27.8,27.57-27.8,0,0,27.16,1.26,36.08,12.07Z"/>
    <path class="cls-5" d="M162.79,70.09c-1.3.33-2.67.33-3.97,0-.97-.11-1.88-.53-2.6-1.2-.64-.63-.82-1.6-.44-2.42.2-.38.47-.73.7-1.07.33-.51.61-1.06.84-1.62,0-.09-.6,0-.66.13-.42.86-.91,1.69-1.45,2.48-.39.56-.47,1.28-.2,1.9.69,1.75,2.87,2.14,4.52,2.25,1.16.12,2.33.01,3.45-.32.07,0,.27-.09.21-.18s-.38,0-.44,0l.03.05Z"/>
    <path class="cls-5" d="M168.03,67.63c.31,0,.45.34.5.64.07.38.07.78,0,1.16-.03.37-.23.71-.53.92-.47.24-.99.35-1.52.3-.71-.16-1.4-.43-2.04-.78-.17-.05-.36,0-.49.13-.08.08-.08.21,0,.29.03.03.06.05.1.05.69.37,1.43.64,2.19.8.7.06,1.41-.06,2.05-.37.46-.25.79-.69.9-1.21.1-.47.1-.96,0-1.43-.03-.53-.44-.95-.96-1-.18-.03-.36.06-.45.21-.04.11.01.23.12.28.03.01.06.02.09.01h.04Z"/>
    <path class="cls-22" d="M119.04,155.49c-.02.06-.05.12-.09.17l-.33-.31.42.14Z"/>
    <path class="cls-18" d="M215.98,64.94s-.62-3.2-2.73-3.97c-3.14-1.21-6.68.24-8.05,3.31,0,0-.67-2.82.5-4.21,2.8-3.3,6.54-3.64,9.26-1.56,4.71,3.62,1.03,6.43,1.03,6.43Z"/>
    <path class="cls-3" d="M205.2,61.47s-3.72,5.94-.44,8.11c1.93,1.27,2.63-.18,3.2.85.34.67.34,1.46,0,2.14,0,0,1.07,1.61,1.78-.58.42-1.31-.54-3.94-2.67-3.42,0,0-1.93,1.07-2.14-1.66-.14-1.54.32-3.07,1.28-4.27,1.15-1.37-1.03-1.17-1.03-1.17Z"/>
    <path class="cls-6" d="M205.1,61.41c-.81,1.28-1.38,2.69-1.69,4.18-.22.94-.15,1.93.19,2.83.48,1.02,1.47,1.72,2.6,1.83.42,0,1.07-.22,1.4,0s.56.96.54,1.39c0,.32-.09.63-.22.92-.02.04-.02.09,0,.13.17.26.42.46.7.58.58.19.96-.34,1.16-.81.52-1.3.12-2.79-.98-3.65-.51-.35-1.14-.44-1.73-.27-.31.15-.66.19-1,.14-.91-.22-1-1.47-1-2.23,0-1.2.38-2.36,1.07-3.34.28-.41.92-1.07.3-1.48-.38-.19-.81-.26-1.23-.19-.15,0-.15.25,0,.23.28-.05.57-.05.85,0,.9.26-.06,1.14-.33,1.57-.81,1.3-1.08,2.86-.76,4.36.09.8.82,1.38,1.62,1.29.21-.05.41-.11.61-.19.68-.17,1.39.06,1.85.59.44.51.7,1.16.74,1.84,0,.58-.12,1.59-.7,1.87-.36.16-.74-.16-.93-.44,0-.06,0,.15,0,0s.07-.17.1-.25c.11-.32.16-.66.14-1,.01-.54-.25-1.05-.69-1.36-.35-.16-.79,0-1.15,0-1.47,0-2.73-1.06-2.96-2.51-.32-2.02.68-4.27,1.73-5.98.1-.03-.14-.15-.21-.02Z"/>
    <path class="cls-24" d="M206.1,69.78s1.94-4.97,5.43-4.59c1.43.16,2.05,2.94-.1,6.32-1.13,1.79-3.72,1.72-3.72,1.72,0,0,1.62-2.8-.59-3.2-.35-.02-.7-.1-1.03-.25Z"/>
    <path class="cls-6" d="M206.22,69.81c.62-1.84,1.93-3.37,3.65-4.27.6-.27,1.27-.33,1.9-.17.48.25.8.72.87,1.25.14.82.07,1.65-.19,2.44-.27,1.02-.75,1.97-1.41,2.79-.88.86-2.09,1.32-3.32,1.27l.1.17c.41-.64.61-1.38.59-2.14-.02-.45-.28-.85-.67-1.07-.48-.26-1.07-.15-1.57-.46-.12-.09-.23.12-.12.2.39.18.82.3,1.25.34.52.09.89.54.89,1.07-.03.65-.22,1.29-.57,1.85-.03.06,0,.14.06.17.01,0,.03.01.04.01,1.11.03,2.19-.31,3.09-.96.76-.71,1.33-1.61,1.64-2.61.36-.86.53-1.8.48-2.73,0-.59-.22-1.15-.61-1.59-.44-.36-1.02-.5-1.58-.37-1.35.24-2.54,1.01-3.32,2.14-.59.76-1.07,1.59-1.43,2.48-.05.28.17.34.23.2Z"/>
    <path class="cls-5" d="M206.48,70.56c.06,0-.14.07-.09,0h.05l.22-.11h.13c.1,0-.11,0,0,0h.23c.06,0,0,0,0,0h.18c-.1,0-.07,0,0,0h.09c-.1,0-.05,0,0,0h.09c-.1,0,0,0,0,0h0c.11.15.18.33.2.52v.12s0,.17,0,.09c0,.09,0,.19,0,.28-.02.2-.07.4-.13.6,0,.05,0-.09,0,0v.07s0,.09,0,.14l-.19.3h0l-.06.06s-.07.08-.11.12l-.14.13h0l-.11.09-.18.11c-.1.06.11,0,0,0h-.1c-.08.03-.15.06-.22.1h-.16l-.25.06c-.14,0,.07,0,0,0h-.74c-.26-.02-.52.09-.67.3-.12.21.1.36.3.37,1.47.16,2.9-.57,3.64-1.85.2-.45.28-.94.21-1.43-.02-.25-.11-.49-.26-.69-.22-.25-.53-.4-.87-.4-.59,0-1.17.17-1.67.48-.17.1-.28.34-.07.47.24.1.51.06.73-.09l-.07.16Z"/>
    <path class="cls-22" d="M162.02,193.06c.03.05.06.1.1.15l.29-.31-.38.16Z"/>
    <path class="cls-19" d="M231.47,215.84c6.04-15.46,9.01-40.37,8.54-55.41l-16.72-33.87c-19.33-1.95-13.35,23.5-13.35,23.5.95,6.41-3.33,42.66-4.6,54.29,9.83.59,18.23,5.79,26.13,11.49Z"/>
    <path class="cls-19" d="M220.74,210.91c-3.2-3.73-8.81-4.78-13.2-7.33l-62.57,16.86,4.09,13.88s50.92,4.98,73.16-3.5c.96-.36,4.12-4.57,5.34-5.48-2.61-5.03-3.14-10.21-6.81-14.44Z"/>
    <path class="cls-7" d="M196.8,95.91s43.99,5.88,45.6,31.77c.98,14.51,1.15,29.07.5,43.61,0,0-29.74-2.72-41.12-6.79-11.37-4.07-7.48-41.02-7.48-41.02"/>
    <path class="cls-2" d="M209.77,166.09l-5.18-1.23c-.85-.2-1.76-.34-2.58-.62-.4-.13-.18.12-.2-.29.01-1.26.09-2.53.22-3.78.16-2.46.35-4.91.58-7.36.48-5.93,1.27-11.83,2.35-17.69,1.07-5.6,2.49-11.42,6.82-15.43,3.06-2.81,6.95-4.56,11.09-4.98.31,0,1.07-.52.43-.47-7.49.56-14.04,5.25-16.97,12.16-1.64,4.64-2.75,9.45-3.3,14.34-.76,5.08-1.29,10.21-1.7,15.34-.22,2.81-.43,5.62-.56,8.43.02.04.05.07.1.09l8.07,1.92c.26.06,1.16-.35.83-.44h0Z"/>
    <path class="cls-19" d="M235.08,201.88s-3.78,18.08-7.28,23.98-12.61,7.48-17.21,7.79c-12.73.93-10.57-16.6-10.57-16.6l8.31-21.46,26.75,6.29Z"/>
    <rect class="cls-4" x="22.44" y="242.01" width="253.74" height="52.41"/>
    <rect class="cls-23" x="12.19" y="233.61" width="273.68" height="14.12"/>
    <path class="cls-20" d="M204.42,203.31c1.73.41,3.33,1.22,4.68,2.37,1.27,1.3,2.4,2.73,3.35,4.27.17.25,1.07-.16,1.07-.28-.97-1.57-2.12-3.02-3.42-4.34-1.39-1.17-3.03-2-4.8-2.41-.25-.04-.5,0-.72.13-.1.05-.35.2-.13.27h-.04Z"/>
    <rect class="cls-21" x="113.14" y="210.09" width="48.85" height="3.28" transform="translate(-114.58 225) rotate(-60)"/>
    <path class="cls-19" d="M157.21,219.23s-9.94-1.72-10.81-2.26-10.75-9.15-11.75-9.31-8.94,1.8-8.94,1.8l-4.27,1.46s-4.72,2.44-5.08,3.95c-.36,1.52,1.35,2.9,2.38,3.05.71.16,1.37.49,1.92.96-.66.67-1.02,1.58-.99,2.52.25,1.17,2.77,1.87,2.77,1.87-.27.95-.35,1.95-.25,2.94.26,1.17,1.92,1.63,1.92,1.63,0,0-1.39,2.71-1.07,3.66.32.95,4.27,2.94,8.9,2.86,3.37.3,4.04.5,5.67.34,2.66-.32,17.43-1.24,17.43-1.24l.57-10.83"/>
    <path class="cls-20" d="M112.2,173.9c.66.54,1.34,1.05,2.05,1.52,1.36,1.21,2.5,2.66,3.35,4.27.91,1.62,1.72,3.3,2.42,5.03.09.22,1.07-.11,1.07-.28-1.54-3.73-3.4-7.76-6.86-10.07-.38-.22-.74-.48-1.07-.77-.17-.18-1.07.19-.96.34v-.04Z"/>
    <rect class="cls-11" x="2.75" y="217.01" width="101.22" height="8.13" rx="2.4" ry="2.4"/>
    <rect class="cls-17" x="7.31" y="225.52" width="96.66" height="8.13" rx="2.34" ry="2.34"/>
    <rect class="cls-10" x="7.31" y="208.49" width="91.44" height="8.13" rx="2.28" ry="2.28"/>
    <polygon class="cls-14" points="183.3 238.64 81.05 238.64 87.57 233.61 189.82 233.61 183.3 238.64"/>
    <path class="cls-19" d="M64.64,152.75l-5.27-7.09s-11.4-4.4-15.48-8.35c-2.85-2.96-5.26-6.3-7.19-9.93l-9.44-8.81s-6.19-1.45-5.88-3.43c.31-1.98,2.78-2.03,5.17-2.14s33.94,10.21,33.94,10.21c-1.5-3.09-3.26-6.05-5.27-8.84-3.11-4.27-2.29-8.04.6-7.79,1.77.15,7.57,5.19,7.71,8.24s6.55,6.01,9.09,10.75c2.54,4.74.77,11.87.77,11.87.89,2.12,1.96,4.17,3.2,6.11-2.19,4.77-11.96,9.2-11.96,9.2Z"/>
    <path class="cls-20" d="M33.46,121.63c-.05-.25.59-.66.75-.77.37-.21.78-.34,1.21-.35.73-.01,1.45.1,2.14.33,1.57.54,3.03,1.39,4.27,2.5,1.16,1.02,2.21,2.16,3.13,3.4,1.09,1.35,1.99,2.84,2.66,4.44.16.42,1.17.13,1.07-.28-.81-1.94-1.92-3.74-3.29-5.34-1.29-1.63-2.84-3.04-4.59-4.15-1.47-.97-3.18-1.53-4.94-1.61-.79,0-1.56.2-2.24.6-.41.25-1.3.9-1.16,1.48s1.13.16,1.07-.28l-.05.03Z"/>
    <path class="cls-20" d="M43.88,122.3c-.3.4-.85.17-.48.26l.37.1c.36.11.73.23,1.07.37.99.37,1.98.78,2.96,1.22s1.85.84,2.74,1.32c.3.14.58.31.85.49.1,0,.17.13.27.18s0,.12.07,0c-.07.32.95.16,1.01-.15s-1.07-.84-1.28-.97c-1.13-.61-2.31-1.14-3.48-1.66-1.07-.48-2.17-.91-3.29-1.27-.49-.16-1.39-.46-1.78.07-.15.19.12.25.26.26.25,0,.5-.09.68-.27l.02.04Z"/>
    <path class="cls-20" d="M51.9,131.34c-.1,0,.41-.84.48-.94.51-.72,1.15-1.35,1.89-1.85.91-.63,1.96-1.02,3.07-1.14.13,0,1.44-.06,1.42.13s.99,0,1.07-.28-1.68-.25-1.84-.23c-1.37.1-2.69.51-3.89,1.19-.99.54-1.86,1.29-2.54,2.19-.09.11-.87,1.14-.59,1.28.22.05.46.02.66-.07,0,0,.45-.2.31-.27h-.04Z"/>
    <path class="cls-20" d="M72.98,136.58c-1.23,2.31-3.42,4.65-6.29,4.2-.51-.09-1.07.65-.35.76,1.65.21,3.31-.22,4.65-1.21,1.26-.96,2.28-2.2,2.98-3.62.13-.23-.11-.42-.31-.45-.27-.04-.54.09-.67.32Z"/>
    <path class="cls-14" d="M158.85,56.19s-7.72.8-10-.81c-2.28-1.61-3.4-4.09-3.4-4.09,0,0,1.53-.94,4.39-.94s5.59-.82,9.01,5.83Z"/>
    <path class="cls-14" d="M188.66,57.17s-5.45,2.42-8.6,2.42c-3.5,0-9.19-2.34-9.19-2.34,0,0,4.74-2.85,7.04-3.38s9.87.35,10.75,3.31Z"/>
    <ellipse class="cls-5" cx="150.68" cy="53.1" rx="2.72" ry="2.73" transform="translate(-5.74 20.59) rotate(-7.67)"/>
    <path class="cls-5" d="M177.43,54.36c2.27-1.37,4.88.68,4.09,3.24-.17.56-.56,1.04-1.06,1.34-2.27,1.37-4.88-.68-4.09-3.24.17-.56.56-1.04,1.06-1.34Z"/>
    <path class="cls-5" d="M170.87,57.24s4.6-4.67,9.25-4.27c5.06.49,7.48,1.98,8.54,4.2,0,0-2.35-2.01-7.37-2.82-4.53-.69-10.42,2.89-10.42,2.89Z"/>
    <path class="cls-5" d="M147.17,50.08c1.38-.68,3.55-.67,6.14-.17,4.18.81,5.53,6.29,5.53,6.29,0,0-1.82-4.27-5.92-5.17-2.52-.44-5.1-.33-7.58.3.09-.44.99-.83,1.83-1.25Z"/>
  </g>
</svg>