<svg xmlns="http://www.w3.org/2000/svg" xmlns:xlink="http://www.w3.org/1999/xlink" viewBox="0 0 292.89 301.99"><defs><style>.cls-1{fill:none;}.cls-2{clip-path:url(#clip-path);}.cls-3{fill:#a382ad;}.cls-4{fill:#0a2f44;}.cls-5{clip-path:url(#clip-path-2);}.cls-6{fill:#f2ebd1;}.cls-7{fill:#2d383d;}.cls-8{fill:#dbb28e;}.cls-9{fill:#517568;}.cls-10{fill:#4f2e25;}.cls-11{fill:#231f20;}.cls-12{fill:#151210;}.cls-13{fill:#1d170f;}.cls-14{fill:#906143;}.cls-15{fill:#070505;}.cls-16{fill:#f1eef7;}.cls-17{fill:#13110f;}.cls-18{fill:#162916;}.cls-19{fill:#513835;}.cls-20{fill:#008dce;stroke:#231f20;stroke-miterlimit:10;stroke-width:0.22px;}.cls-21{fill:#f68e46;}.cls-22{fill:#f9da03;}.cls-23{fill:#87654d;}.cls-24{fill:#a38166;}.cls-25{fill:#d78b28;}.cls-26{fill:#2c458e;}.cls-27{fill:#8d372d;}.cls-28{fill:#2e8942;}.cls-29{fill:#fff;}</style><clipPath id="clip-path"><path class="cls-1" d="M361.2-323.07a49.29,49.29,0,0,0-49.3-49.29,49.09,49.09,0,0,0-31.79,11.63,126,126,0,0,0-47.64-9.3,127,127,0,0,0-29.85,3.55A49.27,49.27,0,0,0,162-387.92a49.3,49.3,0,0,0-49.3,49.3,49,49,0,0,0,10.89,30.88,125.8,125.8,0,0,0-17.43,64.07A126.36,126.36,0,0,0,232.47-117.31,126.36,126.36,0,0,0,358.82-243.67a126.1,126.1,0,0,0-9.27-47.59A49.08,49.08,0,0,0,361.2-323.07Z"/></clipPath><clipPath id="clip-path-2"><path class="cls-1" d="M240.37,68.23A59.67,59.67,0,1,0,128.19,27.77,126.52,126.52,0,1,0,240.37,68.23Z"/></clipPath></defs><g id="Layer_9" data-name="Layer 9"><g class="cls-2"><path d="M177.41-102c-5.7,4.4-8.19,11.63-9.08,18.54-.58,4.52-.39,9-.61,13.58L167-54.29l-1.24,25.42L164.66-7c-.11,2.2-.15,4.41-.36,6.6L163,12.29,160.8,35,158.24,61,156,83.4l-1.17,11.92-.06.56c-.06.65,1.74.3,1.8-.25l.82-8.31,2-20.28,2.53-25.68,2.39-24.18L165.9,1.31c.17-1.72.3-3.41.39-5.14l.9-18.48L168.43-48l1-19.62c.42-8.65-.26-17.56,3.2-25.7a20.79,20.79,0,0,1,6.25-8.47c.34-.26.14-.46-.15-.57a1.62,1.62,0,0,0-1.28.34Z"/><path class="cls-3" d="M367.22-117.81c-.78-5-1.75-10-2.85-14.76h0a197.29,197.29,0,0,0-8.61-28.05L350-179.44l-.92-10.86L291.3-179.71c-4.21-3.61-7.93-8.16-12.86-8.26,3.26,12.07-8.29,39.93-9.13,46.21.23.49-4.71,55.86-.22,43.92l2.83,61.09c.22,11.07,1,31.15,2.35,42.16,1,7.9.36,11.69,1.21,19.6,6.66,3.79,17.3,8,23.11,8.18a158.87,158.87,0,0,0,59.2-10.26S367.83-113.84,367.22-117.81Z"/><path class="cls-4" d="M99-137.38l-1,23.27c-.28,15.51,3.07,26.13,7.36,41.05l9.1,63s0,27.39-2.79,50c-2.4,19.62,3.79,54.85,3.79,54.85l6.8,1.29a62.39,62.39,0,0,0,18.65.68l13.34-1.54L166.82-20.82,176-91.9l12.64-42.73Z"/><path class="cls-4" d="M199.18-137.38,190.47-11.54c0,5.49-2.2,10.47-4.73,36.91l-4.79,45L179.23,90l-3.87.67a59.64,59.64,0,0,1-16.16,1l-11.85-.48,13.14-226Z"/></g></g><g id="Layer_16" data-name="Layer 16"><g class="cls-5"><circle class="cls-6" cx="146.28" cy="153.27" r="126.49" transform="translate(-65.54 148.33) rotate(-45)"/><path class="cls-7" d="M38.73,269.74a405.21,405.21,0,0,0,3.41-50.33q.06-7,0-14c0-.31-1-.12-1,.26a472.48,472.48,0,0,1-1.77,50.2q-.66,7-1.6,14c-.05.39.92.22,1-.11Z"/><path class="cls-8" d="M130.72,198.5c9.83-12,19.62-33.39,23.57-46.91l-5.19-35c-16.66-7.29-18.64,17.12-18.64,17.12-1,6-15.21,37.06-19.69,47.07C119.32,184.08,125.27,191.13,130.72,198.5Z"/><path class="cls-8" d="M124.13,189.78c1.28-4.44-.73-9.36-1-14.1L78.05,135.1l-8.81,10.27s22,42.55,40,55.7c.77.57,5.69.91,7,1.38C118.89,197.88,122.68,194.82,124.13,189.78Z"/><path class="cls-8" d="M141.54,177.68s-6.58,16-10.82,20.82-12.89,4.71-17.17,4.23c-11.88-1.34-6.89-17.1-6.89-17.1L118,167.3Z"/><path class="cls-4" d="M182.38,275.77l-1.53-52.6,36.31,5.44,3.41,42.3C207.81,272.32,195.11,274.17,182.38,275.77Z"/><path class="cls-4" d="M183.1,278.56c-12.38,1.17-24.77,2.16-37.11,3.69a180.09,180.09,0,0,0-19.7,3.73l-5.2-18c-2.47-9.4-6.31-11-5.93-20.71l8.65-20.11,64.59-5.08-7,35.49Z"/><path class="cls-8" d="M144.59,72.81c0-4.15.84-11.84,1.64-14.27.14-1.9.32-4.11.54-6.78.07-.77.15-1.51.24-2.24a7.29,7.29,0,0,0,.15-1.13c1.79-12.92,6.78-19.25,6.78-19.25a28.66,28.66,0,0,1,26.63-10.52c11.93,1.5,22,9.91,26.8,17.82a18.68,18.68,0,0,1,2.48,13.11,78,78,0,0,1-3.55,12.28c4.19.25,8.13,2.18,5.8,9.72-3.22,10.4-10.42,13-13.33,9.71-.75,0-2.57,3.11-3,5.31-.78,4.21-1.41,11.76.29,15.69l-.24,1.2C185.29,117,179.09,124.88,149.18,113l11-11.65.93-6.18c-2.32-.41-3-.18-5.08-1.28C146.65,90.41,144.63,77.7,144.59,72.81Z"/><path class="cls-9" d="M228.08,153.12c3.16,11,6.34,6.92,6.65,8.4.38,1.81,4.39,48.63,10,80.79-2.68,3.3-16.48,5.17-22.64,6.76a143.42,143.42,0,0,1-27.18,4.06c-8.29.53-15.53-1-23.84-1-9.5,0-20.72,1.14-30.22-2,.65-19.58-2.92-59.37-3.35-68.46-.51-10-.34-5.89-.34-5.89s-18.46-7.17-22.42-14.08c16.34-30.17,9.17-39.37,27.37-51.66,2.58-1.74,13.46-7.9,17.67-8.42a13.64,13.64,0,0,0-.63,7c1.15,3.45,1.77,4.15,4.79,5.59,2.67,1.26,10.08,1,13,.15,9-2.74,15.27-12.49,18-18.48,8.26,1.64,17.75,5.19,24.22,7.29,24.17,7.87,17,44.46,17,44.46C232.28,150.5,228.08,153.12,228.08,153.12Z"/><path class="cls-10" d="M161.16,95.22a38,38,0,0,0,22.25-3.55s-1.6,3.29-9.17,5.1a29.71,29.71,0,0,1-13.28.3Z"/><ellipse class="cls-11" cx="153.82" cy="55.75" rx="2.55" ry="2.56" transform="translate(-6.06 21.03) rotate(-7.67)"/><path class="cls-12" d="M148.47,53c1.29-.64,3.32-.63,5.75-.16,3.91.76,5.18,5.89,5.18,5.89s-1.7-4-5.54-4.84a17,17,0,0,0-7.1.28C146.84,53.76,147.69,53.39,148.47,53Z"/><ellipse class="cls-13" cx="181.19" cy="58.78" rx="2.55" ry="2.56" transform="matrix(0.99, -0.13, 0.13, 0.99, -6.23, 24.71)"/><path class="cls-12" d="M170.66,59.71s4.31-4.37,8.66-4c4.74.46,7,1.85,8,3.93,0,0-2.2-1.88-6.9-2.64C176.18,56.35,170.66,59.71,170.66,59.71Z"/><path class="cls-14" d="M161.83,77.17c3.66.38,9.63.57,9.63.57s-.55,10.33-10.69,9.13c-8.47-1-7.64-10.82-7.64-10.82S158.17,76.8,161.83,77.17Z"/><path class="cls-15" d="M161.79,77.17c1.74.18,8.23.77,8.23.77s-2.12,5.89-8.41,5.24c-6.83-.7-7.3-6.39-7.3-6.39Z"/><path class="cls-16" d="M161.64,78c1.74.17,7.06.43,7.06.43s-2.23,1.22-7.45.69S154.69,77,154.69,77Z"/><path class="cls-14" d="M153.16,76c0-.19.41-.23,1.28-.21,1.45,0,2-.44,3-.41,1.79.05,2.86.84,3.63.92s2-.48,3.74-.17c1,.18,3.59.81,5,1.08a13.71,13.71,0,0,0,2.09,0c.25.09-.59,2.4-10.33,1.4S153.14,76.26,153.16,76Z"/><path class="cls-17" d="M173.2,48.81c0-.09.31-.05.32-.14,4.93-.45,8.56,0,9.85.47a8.82,8.82,0,0,1,2.73,1.6s2.34,1.88,2.56,2.52-1.51-.54-1.51-.54a8.21,8.21,0,0,0-1-.51c-2.2-.72-4.25-1.74-6.56-1.77a30.06,30.06,0,0,0-6.74,1.21C172.91,50.67,173.19,49.79,173.2,48.81Z"/><path class="cls-17" d="M146.86,48.83a2.7,2.7,0,0,0-.07-.41c.75-.62,1.71-1.26,1.71-1.26A7.56,7.56,0,0,1,151.08,46c1.17-.25,4.37-.15,8.55,1,0,.09.27.11.26.2-.13,1,0,1.87-.06,2.85a24.92,24.92,0,0,0-5.65-2.22c-2-.31-3.9.39-5.89.77a5.83,5.83,0,0,0-1,.35l-.46.23C146.87,49.07,146.87,49,146.86,48.83Z"/><path class="cls-18" d="M132.63,140.46a109.08,109.08,0,0,0,1.51,14.86c.38,2.76.81,5.43,1.45,8.13a41.46,41.46,0,0,1,1.08,12.41c0,.33.94.13,1-.14a41.42,41.42,0,0,0-.74-11c-.25-1.28-.66-2.53-.92-3.8-.82-4.14-1.25-8.42-1.74-12.6a71.07,71.07,0,0,1-.63-8.11c0-.24-1-.08-1,.25Z"/><path class="cls-12" d="M199.9,69.12c0-.06.29,0,.32-.06.74-1.45,1.28-3.63,2.64-4.58.63-.43,2-1.87,2.75-2.12a14.29,14.29,0,0,1,3.08-.12,6.82,6.82,0,0,1,3.37.86c.18.1.76.58.94.69,3.9-8.88,5.93-17.75.49-29.81-1.57-3.47-6.27-7.65-7.7-9-8.68-8-17.1-9.45-27.64-9.62-12.22-.2-24.4,6.27-28.58,18.16-1,2.86-.71,2.77-.77,5.8a18.19,18.19,0,0,1,8.64-8.19c6.23-2.81,6.78-1,15,.11,9.54,1.27,13.27-3.56,20.48,1.31a19.35,19.35,0,0,1,7.95,10.81c.58,4.29,2.17,7.28.46,11.92-.42,1.1-.78,2.22-1.11,3.35a29.8,29.8,0,0,0-.75,6.3c.07,1-1.2,2.87-.38,3.59C199.1,68.54,198.84,69.35,199.9,69.12Z"/><path class="cls-11" d="M200,69.58c1.09-.2,1.26-1.36,1.65-2.28A8.71,8.71,0,0,1,204.25,64a5.11,5.11,0,0,1,1.64-1.19,7.38,7.38,0,0,1,2.1-.07,7.58,7.58,0,0,1,4.49,1.44.86.86,0,0,0,1.16-.31c3.18-7.28,4.86-14.89,3-22.77a26.25,26.25,0,0,0-5.49-11.63,54.57,54.57,0,0,0-7.63-7.18c-6.39-4.92-13.93-6.89-21.88-7.29-7.6-.38-15,.73-21.57,4.81a27.37,27.37,0,0,0-8.68,8.52,25.75,25.75,0,0,0-2.76,5.92,16.52,16.52,0,0,0-.54,5.15c0,.69,1.12.48,1.33,0,2-4.48,6.81-7.91,11.5-9,2.37-.57,4.7.14,7,.63a33.92,33.92,0,0,0,10.72.79c2.8-.32,5.65-1.21,8.48-.91,3.53.38,6.7,2.76,9,5.35a18.67,18.67,0,0,1,3.78,6.43,10.3,10.3,0,0,1,.39,1.73c.32,1.85.85,3.68,1,5.55.25,2.57-.54,4.74-1.32,7.15a25.53,25.53,0,0,0-1.25,6.76,9.62,9.62,0,0,1-.38,2.78,3.05,3.05,0,0,0-.17,1.81c.2.72.51,1.31,1.6,1.16.74-.1,1-1.11.12-1-.32,0-.07,0-.18-.13l-.24-.51c-.17-.78.34-1.6.52-2.33a18.43,18.43,0,0,0,.14-2.58c.1-1.2.35-2.4.56-3.58.39-2.15,1.41-4.1,1.82-6.24a14.36,14.36,0,0,0-.16-5.54A34.35,34.35,0,0,0,201,41.45a20.29,20.29,0,0,0-4.74-7,15.23,15.23,0,0,0-8.46-4.52c-2.85-.34-5.67.46-8.48.82A33.52,33.52,0,0,1,168,29.93c-2.31-.49-4.54-1-6.9-.56-5.23,1.09-10.66,4.94-12.91,9.9l1.33,0a17.76,17.76,0,0,1,.22-4.12,23.75,23.75,0,0,1,2.1-5.18,25.28,25.28,0,0,1,7-8.11c6-4.49,13.27-6.2,20.63-6,7.54.23,14.89,1.57,21.25,5.87a50,50,0,0,1,7.75,6.71,28.72,28.72,0,0,1,3.44,4.11,24.27,24.27,0,0,1,2.6,5.95,31,31,0,0,1,1.37,13.38,42.79,42.79,0,0,1-3.54,11.79l1.17-.31a7.92,7.92,0,0,0-4.34-1.67c-1.31,0-3-.25-4.18.38a14.06,14.06,0,0,0-3.18,2.58c-1.12,1.19-1.54,2.86-2.24,4.29l.52-.38-.32.06C198.92,68.82,199.19,69.74,200,69.58Z"/><path class="cls-17" d="M209,19.3A28.82,28.82,0,0,1,214.46,30l1.44,1.63c1.55,1.74,4,3.73,4.47,6,4.49,19.88-7.73,27-7.73,27s-2.5-31-22.64-41.5-41.23,10.18-41.23,10.18C151.69,9.3,175.22,8,175.22,8S200.65,9.18,209,19.3Z"/><path class="cls-17" d="M163.09,71.74a7.68,7.68,0,0,1-3.72,0,4.22,4.22,0,0,1-2.43-1.12,2,2,0,0,1-.41-2.27c.19-.36.44-.68.66-1a9.15,9.15,0,0,0,.79-1.52c0-.08-.56,0-.62.12A17.94,17.94,0,0,1,156,68.27a1.83,1.83,0,0,0-.19,1.78c.65,1.64,2.69,2,4.23,2.11a8.37,8.37,0,0,0,3.23-.3c.07,0,.25-.08.2-.17s-.36,0-.41,0Z"/><path class="cls-17" d="M168,69.44c.29,0,.42.32.47.6a2.85,2.85,0,0,1,0,1.09,1.16,1.16,0,0,1-.5.86,2.58,2.58,0,0,1-1.42.28,7.39,7.39,0,0,1-1.91-.73.46.46,0,0,0-.46.12.19.19,0,0,0,.09.32,7.88,7.88,0,0,0,2.05.75,3.64,3.64,0,0,0,1.92-.35,1.65,1.65,0,0,0,.84-1.13,3.36,3.36,0,0,0,0-1.34,1,1,0,0,0-.9-.94.42.42,0,0,0-.42.2.2.2,0,0,0,.2.27Z"/><path class="cls-19" d="M122.13,151.7a.8.8,0,0,1-.08.16l-.31-.29Z"/><path class="cls-20" d="M212.9,66.92s-.58-3-2.56-3.72a5.92,5.92,0,0,0-7.54,3.1s-.63-2.64.47-3.94c2.62-3.09,6.12-3.41,8.67-1.46C216.35,64.29,212.9,66.92,212.9,66.92Z"/><path class="cls-21" d="M202.8,63.67s-3.48,5.56-.41,7.59c1.81,1.19,2.46-.17,3,.8a2.24,2.24,0,0,1,0,2s1,1.51,1.67-.54c.39-1.23-.51-3.69-2.5-3.2,0,0-1.81,1-2-1.55a5.62,5.62,0,0,1,1.2-4C204.84,63.49,202.8,63.67,202.8,63.67Z"/><path class="cls-11" d="M202.71,63.61a11.88,11.88,0,0,0-1.58,3.91,4.52,4.52,0,0,0,.18,2.65,3,3,0,0,0,2.43,1.71c.39,0,1-.21,1.31,0s.52.9.51,1.3a2.14,2.14,0,0,1-.21.86.17.17,0,0,0,0,.12,1.46,1.46,0,0,0,.66.54c.54.18.9-.32,1.09-.76a2.94,2.94,0,0,0-.92-3.42,1.9,1.9,0,0,0-1.62-.25,1.61,1.61,0,0,1-.94.13c-.85-.21-.94-1.38-.94-2.09a5.53,5.53,0,0,1,1-3.13c.26-.38.86-1,.28-1.39a1.89,1.89,0,0,0-1.15-.18c-.14,0-.14.23,0,.22a2.4,2.4,0,0,1,.8,0c.84.24-.06,1.07-.31,1.47a5.52,5.52,0,0,0-.71,4.08,1.38,1.38,0,0,0,1.52,1.21,3.77,3.77,0,0,0,.57-.18,1.72,1.72,0,0,1,1.73.55,2.85,2.85,0,0,1,.69,1.72c0,.54-.11,1.49-.66,1.75-.34.15-.69-.15-.87-.41,0-.06,0,.14,0,0s.07-.16.09-.23a2.49,2.49,0,0,0,.13-.94,1.51,1.51,0,0,0-.65-1.27c-.33-.15-.74,0-1.08,0a2.79,2.79,0,0,1-2.77-2.35c-.3-1.89.64-4,1.62-5.6C203,63.6,202.78,63.49,202.71,63.61Z"/><path class="cls-22" d="M203.65,71.45s1.82-4.65,5.08-4.3c1.34.15,1.92,2.75-.09,5.92-1.06,1.68-3.48,1.61-3.48,1.61s1.52-2.62-.55-3A2.6,2.6,0,0,1,203.65,71.45Z"/><path class="cls-11" d="M203.76,71.48a7.05,7.05,0,0,1,3.42-4,2.67,2.67,0,0,1,1.78-.16,1.54,1.54,0,0,1,.81,1.17,4.65,4.65,0,0,1-.18,2.28,6.93,6.93,0,0,1-1.32,2.61,4.19,4.19,0,0,1-3.11,1.19l.09.16a3.53,3.53,0,0,0,.55-2,1.2,1.2,0,0,0-.63-1c-.45-.24-1-.14-1.47-.43-.11-.08-.22.11-.11.19a3.63,3.63,0,0,0,1.17.32,1,1,0,0,1,.83,1,3.58,3.58,0,0,1-.53,1.73.12.12,0,0,0,.1.17,4.68,4.68,0,0,0,2.89-.9,5.69,5.69,0,0,0,1.54-2.44,5.9,5.9,0,0,0,.45-2.56,2.32,2.32,0,0,0-.57-1.49,1.74,1.74,0,0,0-1.48-.35,4.84,4.84,0,0,0-3.11,2,9.74,9.74,0,0,0-1.34,2.32C203.49,71.55,203.7,71.61,203.76,71.48Z"/><path class="cls-11" d="M204,72.18c.06,0-.13.07-.08,0l.05,0,.21-.1.12,0c.09,0-.1,0,0,0l.07,0,.15,0c.06,0,0,0,0,0h.17c-.09,0-.07,0,0,0h.08c-.09,0-.05,0,0,0l.08,0c-.09,0,0,0,0,0l0,0h0s0,0,0,0a1,1,0,0,1,.19.49s0,.07,0,.11,0,.16,0,.08a2.35,2.35,0,0,1,0,.26,2.8,2.8,0,0,1-.12.56c0,.05,0-.08,0,0l0,.07a.69.69,0,0,1,0,.13l-.18.28h0l-.06.06a.52.52,0,0,1-.1.11l-.13.12h0l-.1.08-.17.1c-.09.06.1,0,0,0l-.09,0a1.89,1.89,0,0,0-.21.09h0l-.15,0-.23.06c-.13,0,.07,0,0,0l-.15,0-.27,0h-.27a.71.71,0,0,0-.63.28c-.11.2.09.34.28.35a3.51,3.51,0,0,0,3.41-1.73,2.46,2.46,0,0,0,.2-1.34,1.35,1.35,0,0,0-.24-.65,1.05,1.05,0,0,0-.81-.37,3,3,0,0,0-1.56.45c-.16.09-.26.32-.07.44a.72.72,0,0,0,.68-.08Z"/><path class="cls-19" d="M162.37,186.88a.67.67,0,0,0,.09.14l.27-.29Z"/><path class="cls-8" d="M227.4,208.21c5.66-14.48,8.44-37.8,8-51.88l-15.66-31.71c-18.1-1.83-12.5,22-12.5,22,.89,6-3.12,39.94-4.31,50.83C212.13,198,220,202.87,227.4,208.21Z"/><path class="cls-8" d="M217.35,203.6c-3-3.49-8.25-4.48-12.36-6.86L146.4,212.53l3.83,13s47.68,4.66,68.5-3.28c.9-.34,3.86-4.28,5-5.13C221.29,212.41,220.79,207.56,217.35,203.6Z"/><path class="cls-9" d="M194.94,95.92s41.19,5.51,42.7,29.75a365.16,365.16,0,0,1,.47,40.83s-27.85-2.55-38.5-6.36-7-38.41-7-38.41"/><path class="cls-18" d="M207.08,161.63l-4.85-1.15c-.8-.19-1.65-.32-2.42-.58-.37-.12-.17.11-.19-.27a34.84,34.84,0,0,1,.21-3.54q.22-3.45.54-6.89a164.94,164.94,0,0,1,2.2-16.56c1-5.24,2.33-10.69,6.39-14.45a18,18,0,0,1,10.38-4.66c.29,0,1-.49.4-.44a18.78,18.78,0,0,0-15.89,11.39,60.48,60.48,0,0,0-3.09,13.43c-.71,4.76-1.21,9.56-1.59,14.36-.21,2.63-.4,5.26-.52,7.89a.14.14,0,0,0,.09.08l7.56,1.8c.24.06,1.09-.33.78-.41Z"/><path class="cls-8" d="M230.78,195.14s-3.54,16.93-6.82,22.45-11.81,7-16.11,7.29c-11.92.87-9.9-15.54-9.9-15.54l7.78-20.09Z"/><rect class="cls-23" x="-268.32" y="232.71" width="597.59" height="49.07" transform="translate(60.95 514.5) rotate(180)"/><rect class="cls-24" x="-277.92" y="224.85" width="626.26" height="13.22"/><path class="cls-10" d="M202.07,196.48a10.47,10.47,0,0,1,4.38,2.22,22.91,22.91,0,0,1,3.14,4c.16.23,1-.15,1-.26a23.26,23.26,0,0,0-3.2-4.06,10.85,10.85,0,0,0-4.49-2.26,1,1,0,0,0-.67.12c-.09.05-.33.19-.12.25Z"/><rect class="cls-25" x="137.94" y="181.5" width="3.07" height="45.74" transform="translate(120.87 -42.36) rotate(30)"/><path class="cls-8" d="M157.87,211.39s-9.31-1.61-10.12-2.12-10.07-8.57-11-8.72-8.37,1.69-8.37,1.69l-4,1.37s-4.42,2.28-4.76,3.7,1.26,2.72,2.23,2.86a4.25,4.25,0,0,1,1.8.9,3.25,3.25,0,0,0-.93,2.36c.23,1.1,2.59,1.75,2.59,1.75a7.28,7.28,0,0,0-.23,2.75c.24,1.1,1.8,1.53,1.8,1.53s-1.3,2.54-1,3.43,4,2.75,8.33,2.68c3.16.28,3.78.47,5.31.32,2.49-.3,16.32-1.16,16.32-1.16l.53-10.14"/><path class="cls-10" d="M115.72,168.94a22.67,22.67,0,0,0,1.92,1.42,14.35,14.35,0,0,1,3.14,4,40.8,40.8,0,0,1,2.27,4.71c.08.21,1-.1,1-.26-1.44-3.49-3.18-7.27-6.42-9.43a6.87,6.87,0,0,1-1-.72c-.16-.17-1,.18-.9.32Z"/><rect class="cls-26" x="13.24" y="209.31" width="94.78" height="7.61" rx="2.4"/><rect class="cls-27" x="17.51" y="217.28" width="90.51" height="7.61" rx="2.34"/><rect class="cls-28" x="17.51" y="201.33" width="85.62" height="7.61" rx="2.28"/><polygon class="cls-29" points="182.3 229.56 86.56 229.56 92.66 224.85 188.4 224.85 182.3 229.56"/><polygon class="cls-29" points="76.47 228.94 -19.27 228.94 -13.16 225.32 82.58 225.32 76.47 228.94"/><path class="cls-8" d="M71.19,149.14l-4.93-6.64s-10.67-4.12-14.49-7.82a41.41,41.41,0,0,1-6.73-9.3l-8.84-8.25s-5.8-1.36-5.51-3.21,2.6-1.9,4.84-2,31.78,9.56,31.78,9.56a56.16,56.16,0,0,0-4.93-8.28c-2.91-4-2.14-7.53.56-7.29,1.66.14,7.09,4.86,7.22,7.72s6.13,5.63,8.51,10.07.72,11.11.72,11.11a38,38,0,0,0,3,5.72C80.34,145,71.19,149.14,71.19,149.14Z"/><path class="cls-10" d="M42,120c-.05-.23.55-.62.7-.72a2.44,2.44,0,0,1,1.13-.33,5.87,5.87,0,0,1,2,.31,11.88,11.88,0,0,1,4,2.34,20.51,20.51,0,0,1,2.93,3.18,17.07,17.07,0,0,1,2.49,4.16c.15.39,1.1.12,1-.26a18.94,18.94,0,0,0-3.08-5,17.32,17.32,0,0,0-4.3-3.89,9.16,9.16,0,0,0-4.63-1.51,4.08,4.08,0,0,0-2.1.56c-.38.23-1.22.84-1.09,1.39s1.06.15,1-.26Z"/><path class="cls-10" d="M51.75,120.63c-.28.37-.8.16-.45.24l.35.09c.34.1.68.22,1,.35.93.35,1.85.73,2.77,1.14s1.73.79,2.57,1.24a6.94,6.94,0,0,1,.8.46c.09,0,.16.12.25.17s0,.11.07,0c-.07.3.89.15.95-.14s-1-.79-1.2-.91c-1.06-.57-2.16-1.07-3.26-1.55a31.08,31.08,0,0,0-3.08-1.19c-.46-.15-1.3-.43-1.67.07-.14.18.11.23.24.24a.89.89,0,0,0,.64-.25Z"/><path class="cls-10" d="M59.26,129.09c-.09,0,.38-.79.45-.88a6.93,6.93,0,0,1,1.77-1.73,6.24,6.24,0,0,1,2.87-1.07c.12,0,1.35-.06,1.33.12s.93,0,1-.26-1.57-.23-1.72-.22a8.72,8.72,0,0,0-3.64,1.11,7.57,7.57,0,0,0-2.38,2.05c-.08.1-.81,1.07-.55,1.2a1,1,0,0,0,.62-.07s.42-.19.29-.25Z"/><path class="cls-10" d="M79,134c-1.15,2.16-3.2,4.35-5.89,3.93-.48-.08-1,.61-.33.71a6,6,0,0,0,4.35-1.13,9.65,9.65,0,0,0,2.79-3.39c.12-.22-.1-.39-.29-.42a.62.62,0,0,0-.63.3Z"/></g></g></svg>