<?xml version="1.0" encoding="UTF-8"?>
<svg id="Layer_4" data-name="Layer 4" xmlns="http://www.w3.org/2000/svg" xmlns:xlink="http://www.w3.org/1999/xlink" viewBox="0 0 292.89 301.99">
  <defs>
    <style>
      .cls-1, .cls-2 {
        fill: none;
      }

      .cls-3 {
        fill: #010101;
      }

      .cls-4 {
        fill: url(#linear-gradient);
      }

      .cls-5 {
        fill: #f1eef7;
      }

      .cls-6 {
        fill: #7c4c2a;
      }

      .cls-7 {
        fill: #662817;
      }

      .cls-8 {
        clip-path: url(#clippath-1);
      }

      .cls-9 {
        fill: #a76328;
      }

      .cls-10 {
        fill: #c7c6c5;
      }

      .cls-11 {
        fill: #fff;
      }

      .cls-12 {
        fill: #251911;
      }

      .cls-13 {
        fill: #4f2f26;
      }

      .cls-14 {
        fill: #cdb731;
      }

      .cls-15 {
        fill: #b98354;
      }

      .cls-16 {
        fill: #6d3918;
      }

      .cls-17 {
        fill: #453b1c;
      }

      .cls-2 {
        stroke: #814a41;
        stroke-miterlimit: 10;
        stroke-width: .25px;
      }

      .cls-18 {
        fill: #814a41;
      }

      .cls-19 {
        clip-path: url(#clippath);
      }
    </style>
    <clipPath id="clippath">
      <path class="cls-1" d="M208.56,36.23c-5.44-22.37-25.6-38.99-49.65-38.99-19.94,0-37.2,11.43-45.63,28.08C54.2,40.14,10.44,93.58,10.44,157.25c0,75.11,60.89,136,136,136s136-60.89,136-136c0-52.73-30.01-98.45-73.89-121.02Z"/>
    </clipPath>
    <linearGradient id="linear-gradient" x1="148.24" y1="230.25" x2="139.04" y2="-41.6" gradientUnits="userSpaceOnUse">
      <stop offset="0" stop-color="#bbe5f5"/>
      <stop offset=".94" stop-color="#77c5da"/>
    </linearGradient>
    <clipPath id="clippath-1">
      <path class="cls-1" d="M58.91,263.09c-.86,21.93-.32,44.08-.11,66.12,0,2.15-.32,161.27,2.69,161.59,1.83.22,7.96.43,11.61.75l7.53.54c19.67,1.4,49.24,3.12,57.52,2.69,22.25-.97,28.71-.32,50.42-4.73,0,0,9.46-196.42,5.27-235.13v-.43c0-.32-.11-.65-.11-.97v-.22l.54-1.08c-.97-13.76-.75-32.25-.75-32.25l-5.27-10.86,6.56,3.23,10.11-17.42s.43-30.96-4.84-44.19c-2.8-7.1-27.52-33.22-33.01-35.69l-11.29-5.91,9.46,9.78-18.92,11.5-29.67-13.33-9.57-13.55-18.6,5.91-11.4,81.6s-7.63,24.41-12.79,44.94c-.32-.11-.65-.21-.97-.32l-4.41,27.42Z"/>
    </clipPath>
  </defs>
  <g class="cls-19">
    <circle class="cls-4" cx="145.78" cy="157.51" r="136"/>
    <path class="cls-15" d="M206.31,223.95c-.65-5.16,1.61-23.76,1.72-35.69-3.76,1.08-8.82-.32-12.79-.11,0,0,1.61,3.98,1.51,3.98-4.19.65-8.49,2.15-12.69,2.47,5.48,31.29,6.34,106.54,6.34,106.54l14.94,5.91,1.61-37.63c-.11-3.98,1.72-28.92-.65-45.48Z"/>
    <path class="cls-15" d="M205.55,303.83l3.01,19.14-3.66,8.82-5.16,8.17-13.76,10.21s-2.26-.54.11-4.09c2.26-3.12,4.84-6.02,7.53-8.82l1.83-9.68-2.26-4.41-2.8.32s.11,12.26-1.83,14.62c-.32.43-.65.75-.86,1.08-.65.75-1.83.75-2.58.11l-.11-.11-1.08-1.18.43-18.28s1.51-7.96,2.15-9.78c.97-2.15,2.15-4.19,3.44-6.24l.43-2.47,15.27,1.51-.11,1.08Z"/>
    <path class="cls-10" d="M129.44,29.46c2.47-2.9,6.02-4.73,9.57-3.44.43-7.1,7.63-10.64,14.62-10.32,3.66.32,7.2,2.26,10.75,1.4,2.15-.54,3.98-2.15,5.91-3.33,8.06-5.05,19.57,2.47,25.48,10,5.91,7.53,7.2,15.7-.97,22.04-1.94,3.98-1.18,8.06-2.04,12.36-.75,4.19-3.98,11.72-4.3,15.8s5.7,9.03,1.51,9.03l-45.15-9.03c-6.88.75-11.07-1.61-13.98-7.85-1.94-4.3-1.18-4.41-1.08-9.03,0-6.13-5.81-11.18-4.95-17.2.32-3.76,2.37-7.31,4.62-10.43Z"/>
    <path class="cls-10" d="M115.78,56.13c-1.4.43-2.69,1.18-3.87,2.15-6.02,4.73-8.71,13.33-7.2,20.86,1.72,7.63,6.99,13.98,14.19,16.99,3.66,1.4,7.42,2.26,11.29,2.47,2.26.32,4.62.22,6.88-.43,3.33-1.08,5.81-3.98,7.96-6.88,4.52-6.34,8.39-14.41,6.13-21.93-2.26-7.85-10.11-12.26-17.2-15.91"/>
    <path class="cls-10" d="M193.41,38.39s.86-26.13-20-26.66c-8.82-4.73-19.14-5.81-28.81-3.23-16.13,4.41-26.02,15.37-26.88,44.4-.86,29.03,75.69-14.51,75.69-14.51Z"/>
    <path class="cls-15" d="M196.74,56.66c.97-4.73-1.18-14.3-1.18-14.3h0c-.54.43-1.29.54-1.83.11-6.67-4.52-13.44-12.15-21.39-12.15-4.19,0-8.6,3.44-12.69,3.87-3.98.43-7.53-2.69-11.5-3.12-1.08-.11-1.94,2.58-1.94,3.33-.97-.32-1.94-.75-2.9-1.18-4.95,2.69-2.26,21.39-2.58,23.76-.32,2.37-1.83,2.9-1.83,2.9-.54-.97-1.83,1.51-2.04.43s.22-2.04,0-3.01c-.86-2.26-4.19-2.47-6.02-1.51l-.97.97c-2.69,2.47-.86,11.72.22,14.62-.54,5.38,3.66,9.14,6.99,5.91-.54,4.41-2.37,15.27-7.1,22.04-.97,1.4-13.98,4.3-13.98,4.3l16.02,38.27c7.74,3.33,32.58-7.2,40.96-8.6l3.87-14.94s-10.97-6.24-10.97-8.17c.11-1.18.32-2.47.65-3.66h.22c3.12.43,7.31,1.29,10.11-2.15s3.98-5.38,6.99-8.6c2.58-2.47,4.62-5.48,6.02-8.82,1.4-2.9,2.15-6.02,2.15-9.25.11-2.15.43-4.3.86-6.45.65-2.04,2.9-9.89,3.87-14.62Z"/>
    <path class="cls-13" d="M166.53,106.44c-2.15.11-4.3-.22-6.45-.75-2.26-.86-9.46-3.23-14.94-13.76,1.51,7.74,7.53,13.98,15.16,15.8,1.94.54,3.87.65,5.81.54l.43-1.83Z"/>
    <path class="cls-10" d="M183.94,54.73l-.97,1.4-.75,1.08c1.4.54,2.58,1.08,3.44,1.4,1.29.54,2.58,1.18,3.66,2.15.65.65,1.29,1.4,1.72,2.15.32.43.54.86.75,1.4.43,1.18.32,2.04.43,2.04s.32-.75.43-.75c.32-1.18.22-2.47-.11-3.66-.32-.97-.86-1.83-1.51-2.58-2.04-1.83-4.52-3.44-7.1-4.62"/>
    <path class="cls-10" d="M173.3,53.12c0,.54.22,1.83.22,2.47s0,.86.11,1.29c-1.72-.22-5.38-1.18-6.56-1.29-1.61-.22-3.33-.22-4.95,0-1.08.22-2.15.65-3.12,1.08-.54.22-1.08.54-1.61.86-1.08.75-1.51,1.61-1.72,1.61s.11-.75.11-.86c.43-1.18,1.29-2.26,2.26-3.12.97-.65,2.04-1.18,3.12-1.4,3.33-.65,6.77-.86,10.11-.65"/>
    <path class="cls-2" d="M136.64,67.52c-2.26-7.63-4.52-7.96-4.52-7.96,0,0-1.72,1.51-1.29,5.05"/>
    <path class="cls-2" d="M135.46,68.06c-1.94-.43-.86,3.44-1.51,4.3s-1.08-1.61-1.08-4.41c0,0,.43-3.76,2.37-4.19"/>
    <path class="cls-18" d="M188.78,50.21s-6.13.11-11.07-.32c-3.33-.43-6.56-1.61-9.46-3.44,0,0,5.59,2.37,9.46,2.69s11.07,1.08,11.07,1.08Z"/>
    <path class="cls-10" d="M193.41,36.45h0c-1.08-1.83-1.61-3.76-2.8-5.59-1.18-1.83-2.26-3.33-3.44-5.05-.11-.11-1.72-.32-1.72-.43l-.11-.11-.11-.11-.32-.32c-7.63-4.09-16.45-5.48-25.05-3.76-16.66,3.33-27.42,19.57-23.97,36.23h0c.32,1.4.75,4.62,2.04,5.59,1.29.97,1.51.54,2.8-.22s.97-3.66,1.72-4.95c4.19-6.34,6.02-16.88,5.16-24.4.75,1.51,6.13,4.3,8.6,4.52,2.26.22,6.02.11,10.11-4.95.32.75.75,1.51,1.29,2.15,5.7,7.2,24.62,9.68,28.92,8.39.54-.22-2.47-5.81-3.12-6.99Z"/>
    <path class="cls-3" d="M153.2,59.89l.43,2.69c.22,2.58.75,5.05,1.51,7.53.75,1.72,11.29,4.09,13.65,3.12,2.37-.97,4.52-6.77,5.27-8.17l4.19.97c.11,1.94.43,7.96,1.18,8.82s5.59,1.61,6.13,1.72,1.08.11,1.83.22c1.94.22,4.19.22,4.95-.32,1.18-.86,3.01-4.52,4.52-8.06l.22-.54c0-.11.11-.22.11-.22h0l.32-.65c-5.7-3.98-13.87-4.84-19.35-2.04v.11l-4.19-.97c-4.19-3.87-14.19-7.2-20.43-5.91l-.75.22-15.05.75.22,1.61,15.27-.86ZM180.07,74.51c-.43-.54-.86-4.84-.97-8.06,4.73-2.37,12.15-1.61,17.2,1.61v.11c-.86,1.94-3.12,6.88-4.3,7.74-1.51.97-11.29-.54-11.93-1.4h0ZM156.1,69.67c-.97-3.12-1.61-6.45-1.94-9.68,5.59-1.51,14.73,1.51,18.81,5.27-1.18,2.47-2.8,6.77-4.52,7.42-2.37.86-11.93-1.83-12.36-3.01h0Z"/>
    <path class="cls-3" d="M179.21,77.2c.22.65.32,1.4.43,2.04.11.43.11.86,0,1.29-.11.54-.43.97-.97,1.29-.97.54-2.04.65-3.12.43-1.18-.11-2.26-.43-3.33-.97-.11-.11-.54.11-.32.22.86.43,1.83.75,2.69.86.97.22,1.94.22,2.9.11.86-.11,1.51-.54,2.04-1.18.43-.65.54-1.4.43-2.15-.11-.75-.22-1.4-.43-2.15.11-.11-.32.11-.32.22h0Z"/>
    <path class="cls-3" d="M168.25,78.06c-.43-.11-.86.11-1.08.43s-.32.65-.32,1.08c-.11.32,0,.75.22,1.08.32.43.86.65,1.4.75.32.11.75.11,1.08,0,.43-.11.86-.22,1.29-.22.11,0,.22,0,.32-.11s0-.11-.11-.11c-.32,0-.54.11-.86.22s-.65.11-.97.11c-.54-.11-.97-.22-1.4-.54-.54-.54-.65-1.29-.43-1.94,0-.22.11-.32.22-.54,0-.11.11-.11.11-.22h0c-.11,0,0,0,0,0h.32l.11-.11.11.11Z"/>
    <ellipse class="cls-7" cx="177.35" cy="58.29" rx=".97" ry=".75" transform="translate(93.96 225.31) rotate(-81.66)"/>
    <path class="cls-3" d="M156.53,63.44s-1.29.22-1.61-1.4c1.4.54,2.9.54,4.41.11l-2.8,1.29Z"/>
    <path class="cls-6" d="M171.15,87.09c-4.19-.75-10.97-1.61-10.97-1.61,0,0-.65,10.43,8.92,12.26,9.57,1.83,11.83-8.17,11.83-8.17,0,0-5.59-1.72-9.78-2.47Z"/>
    <path class="cls-12" d="M171.58,87.09c-1.94-.32-9.68-1.08-9.68-1.08.97,3.98,4.3,6.99,8.28,7.53,7.74,1.4,9.68-4.09,9.68-4.09l-8.28-2.37Z"/>
    <path class="cls-5" d="M171.58,87.52c-1.94-.32-7.96-1.83-7.96-1.83,0,0,1.72,2.8,7.63,3.87s8.17-.97,8.17-.97l-7.85-1.08Z"/>
    <path class="cls-6" d="M181.58,89.35c-.75-.75-1.61-1.29-2.47-1.94-.75-.54-1.61-.97-2.58-1.18-1.94-.54-3.33.11-4.19,0s-1.94-1.29-3.98-1.4c-1.83,0-3.55,0-5.38.22-1.18.11-2.37.11-2.58.22s-.22,1.18,10.64,3.12,10.86,1.08,10.54.97Z"/>
    <path class="cls-14" d="M177.92,113.86s17.09,8.82,22.04,16.88c7.42,12.15,17.42,59.24,17.42,59.24l-21.61,8.92-17.85-85.04Z"/>
    <path class="cls-14" d="M85.36,250.72c11.29,3.44,22.79,4.62,34.51,5.81,13.33,1.4,26.77,2.9,40.21,2.15,11.4-.65,22.9.32,34.3.86v-2.37c-.32-20.64-.97-27.31-.97-27.31l.22-17.09,8.92-13.44c2.15-3.87,2.8-10.54,2.26-14.84-1.51-11.5-6.67-27.85-7.96-31.18l-4.73-27.95-18.92-12.69,6.67,7.96-20,9.46-28.17-16.23-12.04-12.9-14.19,5.27-20.64,77.19c-.43,1.72-1.94,3.66-2.69,5.38-2.15,4.52-4.3,9.03-6.24,13.65-2.69,6.45-5.27,13.01-7.74,19.57-1.29,3.33-2.47,6.56-3.66,9.89-.22.75-2.9,8.39-2.37,8.71,7.2,4.19,15.05,7.63,23.22,10.11Z"/>
    <path class="cls-14" d="M165.13,247.71c-13.65,1.51-21.5,1.51-35.26,1.4-11.29,0-40.85-10.86-51.93-13.44-6.56-1.61-17.42-7.63-18.38,19.24-.43,3.12-.75,5.91-.75,8.17-.86,21.93-.32,44.08,0,66.12,0,2.15-.32,161.27,2.69,161.59,1.83.22,7.96.43,11.61.75l7.53.54c19.67,1.4,49.24,3.12,57.52,2.69,22.25-.97,28.71-.32,50.42-4.73,0,0,8.92-185.78,5.59-231.58-13.76.75-15.37-12.26-29.03-10.75Z"/>
    <path class="cls-17" d="M205.12,188.47l11.5-.97,1.72,5.7-15.48,3.33c1.18-2.47,2.04-5.16,2.26-8.06Z"/>
    <polygon class="cls-17" points="119.55 100.96 125.03 116.76 160.83 137.51 181.47 121.28 178.78 114.18 171.47 111.06 175.02 120.63 159.75 130.09 131.59 113.86 126.21 99.24 119.55 100.96"/>
    <path class="cls-17" d="M110.51,104.61l3.33,14.84c.22.97.32.97,1.18,1.4l4.52,2.47,33.22,18.49,9.57,5.27c.22.11.43.11.65,0l23.87-17.74,3.44-2.47c.11-.11.22-.22.11-.32l-3.33-6.88c-.22-.32-.97-.11-.86.22l1.83,3.87,1.08,2.26c.11.22.22.43.32.65.22.22,0,.11.22-.11-.43.43-.86.75-1.4.97l-3.12,2.37-17.95,13.33-4.84,3.55.65-.11-24.3-13.55-16.56-9.25-5.38-3.01c-.43-.22-.97-.54-1.51-.86-.22-.11-.43-.32-.32-.22-.32-.86-.54-1.83-.65-2.8l-1.18-5.16-1.72-7.53c-.11-.32-.97-.11-.86.32h0Z"/>
    <path class="cls-17" d="M145.56,137.73c2.26,10.32,3.98,20.86,5.38,31.29,1.18,8.06,1.94,16.23,2.04,24.4,0,6.45-.54,12.79-1.51,19.14-2.15,16.66-5.05,33.22-6.67,50.1-1.29,13.55-1.72,27.2-1.83,40.85-.11,6.56-.11,13.12-.22,19.67-.11,10.43-.22,20.96-.43,31.39l-.43,36.45-.43,35.48-.43,27.85c-.11,4.73-.22,9.46-.22,14.08v.65c0,.22.86,0,.86-.22l.11-9.68.32-25.16c.11-11.29.32-22.68.43-33.97.22-12.26.32-24.62.43-36.88.11-10.97.22-22.04.43-33.11.11-7.74.22-15.48.22-23.22.11-9.57.11-19.24.65-28.81,1.08-18.71,3.76-37.2,6.56-55.69.97-6.67,1.94-13.33,2.47-20,.54-6.99.43-14.08-.32-21.07-1.29-13.87-3.44-27.63-6.24-41.18-.11-.86-.32-1.61-.54-2.47.21-.32-.75-.11-.65.11h0Z"/>
    <path class="cls-9" d="M136.64,139.02c2.69,11.72,4.62,23.65,5.81,35.69.86,7.74,1.08,15.48.65,23.22-.43,6.13-1.08,12.15-1.83,18.28-2.04,16.66-4.3,33.33-5.81,50.1-1.08,11.5-1.94,23.01-2.15,34.62-.11,7.1-.22,14.3-.32,21.39-.11,10.75-.22,21.5-.43,32.25-.11,12.26-.32,24.62-.43,36.98-.11,11.83-.22,23.65-.43,35.48l-.22,27.74c0,4.62-.11,9.35-.11,13.98v.65c0,.43.86.32.86-.11l.11-9.78.22-25.05c.11-11.4.22-22.79.32-34.19.11-12.47.22-24.84.43-37.31.11-11.29.22-22.58.43-33.87.11-8.17.22-16.34.32-24.51.11-7.96.54-15.8,1.08-23.65,1.29-18.38,3.33-36.66,5.7-54.94,1.51-12.79,3.55-25.7,3.23-38.6-.32-15.27-2.9-30.64-6.02-45.58-.22-.97-.43-1.94-.65-2.9,0-.54-.86-.32-.75.11h0Z"/>
    <path class="cls-17" d="M169.65,141.49c1.18,5.05,2.26,10.11,3.33,15.16.97,4.62,1.94,9.35,2.9,13.98.97,4.73,2.15,9.46,2.58,14.19,1.29,11.18-2.9,21.93-5.27,32.68-1.08,4.41-1.61,8.82-1.51,13.33v2.9c0,8.28-.43,16.45-.75,24.73-.54,12.47-1.08,25.05-1.72,37.52-.65,13.55-1.29,27.09-2.04,40.64-.65,11.29-1.18,22.58-1.83,33.87-.32,5.7-.65,11.5-.97,17.31-.22,4.62-.22,9.35-.32,13.98l-.86,36.88-.65,27.52v1.4c0,.32.86.11.86-.11l.43-20.1.86-37.84c.11-6.99.22-14.08.43-21.07.11-3.98.43-8.06.65-12.04.54-10.32,1.08-20.53,1.61-30.86.75-13.33,1.4-26.56,2.04-39.89.65-13.01,1.29-26.13,1.83-39.13.43-9.57.86-19.03,1.08-28.6,0-2.37.11-4.73,0-7.1-.43-10.43,3.66-20.32,5.7-30.32,1.18-5.16,1.51-10.54.97-15.91-.54-4.73-1.72-9.57-2.69-14.19-1.72-8.28-3.44-16.45-5.27-24.73l-.97-4.19c.32-.54-.54-.32-.43,0h0Z"/>
    <path class="cls-9" d="M175.99,137.73c.86,6.02,1.72,12.04,2.58,18.06.75,5.27,1.61,10.54,2.47,15.8.97,5.59,2.04,11.07,1.94,16.66-.22,4.41-.65,8.71-1.29,13.01-.65,4.41-.86,8.82-.65,13.33.11,2.37,0,4.84-.11,7.2-.32,9.68-.86,19.24-1.4,28.92-.75,13.33-1.61,26.66-2.37,39.99-.86,13.98-1.72,27.85-2.69,41.82-.75,11.29-1.51,22.58-2.26,33.87-.32,5.48-.86,10.86-1.08,16.34-.32,5.16-.22,10.43-.32,15.59l-.86,38.6-.65,28.38v1.51c0,.43.86.22.86-.11l.43-20.75.86-39.35c.11-7.85.22-15.7.54-23.54.11-3.76.54-7.42.75-11.18.75-10.21,1.4-20.43,2.04-30.64.97-13.65,1.83-27.2,2.69-40.85.86-13.76,1.72-27.63,2.58-41.39.65-10.75,1.29-21.61,1.72-32.36.32-8.92-.11-17.85,1.08-26.66.75-4.3,1.08-8.71,1.18-13.12-.11-5.48-1.18-10.75-2.04-16.13-1.61-9.46-3.01-18.92-4.41-28.28-.22-1.61-.43-3.33-.65-4.95-.11-.32-.97-.11-.86.22h-.11Z"/>
    <path class="cls-16" d="M119.12,106.76c-.11.97-.65,1.72-1.61,2.04-.97.11-1.94-.32-2.37-1.18-.54-.86-.43-1.94.11-2.69.43-.75,1.4-1.08,2.26-.75,1.08.43,1.72,1.51,1.61,2.58,0,.22.86.11.86-.11.11-1.18-.54-2.26-1.61-2.8-1.18-.43-2.58-.22-3.55.65-.86.86-1.18,2.15-.65,3.23s1.72,1.61,2.9,1.51c1.4-.11,2.58-1.18,2.8-2.58.11-.22-.65-.11-.75.11Z"/>
    <path class="cls-9" d="M117.5,106.55c0,.11,0,.22-.11.22,0,.11,0,0,0,0h0l-.11.11c0-.11,0,0,0,0h0s.11,0,0,0h0c-.11,0,.11,0,0,0h0s.11,0,0,0h0c.11,0,0,0,0,0,0,0-.11,0,0,0h-.32c-.11,0,0,0,0,0h0l-.22-.22h0v-.43h0v-.32h0l.11-.11h0l.11-.11s-.11,0,0,0h.11-.11.11c.11,0-.11,0,0,0h0q-.11,0,0,0h.11s-.11,0,0,0h.11s.11,0,0,0l.11.11h0c.11,0,.11.11.22.22,0,0,0,.11,0,0v.32l-.11.22c.11.22.32.22.43.22s.22-.11.32-.11l.22-.22c0-.43-.22-.86-.65-1.08-.54-.22-1.18-.11-1.72.32-.32.32-.43.86-.32,1.29.22.43.75.75,1.29.65.65,0,1.18-.43,1.29-1.08,0-.22-.22-.22-.32-.22s-.22,0-.32.11c-.11,0-.22.11-.22.11Z"/>
    <path class="cls-16" d="M120.94,114.72c-.11.97-.75,1.72-1.61,2.04-.97.11-1.94-.32-2.37-1.18-.54-.86-.43-1.94.11-2.69.43-.75,1.51-1.08,2.26-.65,1.08.32,1.72,1.29,1.61,2.47,0,.11.86,0,.86-.22.11-1.18-.54-2.26-1.72-2.69s-2.58-.11-3.55.75c-.86.86-1.08,2.15-.54,3.23.65,1.08,1.83,1.61,3.01,1.4,1.4-.11,2.58-1.18,2.8-2.58,0-.22-.86-.22-.86.11Z"/>
    <path class="cls-9" d="M119.22,114.4v.11h0v.11h0s-.11.11,0,0,0,0,0,0h0s-.11,0,0,0h-.11c-.11,0,0,0,0,0h-.11s-.11,0,0,0h-.11s.11,0,0,0h-.11s-.11,0,0,0h-.11l-.11-.11h0l-.11-.11h0v-.22h0c0,.11,0,0,0,0v-.22h0v-.22h0l.11-.11s-.11,0,0,0h0s.11-.11,0,0,0,0,0,0h0c.11,0-.11,0,0,0h0s.11,0,0,0h.11s-.11,0,0,0h.22l.11.11h0l.11.11h0v.22h0v.11c0,.22.22.32.43.32s.43-.11.43-.32c0-.54-.22-.97-.75-1.18s-1.18-.11-1.61.32c-.43.32-.43.97-.22,1.4.22.43.75.75,1.29.65.65,0,1.18-.54,1.29-1.18,0-.22-.22-.32-.43-.32s-.22.32-.32.54Z"/>
    <path class="cls-16" d="M125.46,120.85c-.11.97-.65,1.72-1.61,2.04-.97.11-1.83-.32-2.37-1.08-.54-.86-.54-1.94.11-2.69.54-.75,1.4-1.08,2.26-.75,1.08.32,1.72,1.4,1.61,2.47,0,.32.86.22.86-.11.11-1.18-.54-2.26-1.61-2.8-1.18-.43-2.58-.22-3.55.65-.86.86-1.18,2.15-.65,3.23.54,1.08,1.72,1.72,2.9,1.51,1.4-.11,2.58-1.18,2.8-2.58.11-.32-.75-.11-.75.11Z"/>
    <path class="cls-9" d="M123.85,120.63v.11s0,.11,0,0h0v.11h0s-.11,0-.11.11,0,0,0,0h-.11c-.11,0,0,0,0,0h-.11s-.11,0,0,0h-.22s.11,0,0,0h-.11l-.11-.11c.11,0,0,0,0,0l-.11-.11h0c0-.11,0,0,0,0v-.22h0c0,.11,0,0,0,0v-.22c0,.11,0,0,0-.11v-.11h0l.11-.11s.11-.11,0,0,0,0,0,0h0q.11,0,0,0h0c.11,0-.11,0,0,0h0s.11,0,0,0h0s.11,0,0,0h.11s-.11,0,0,0h.22l.11.11h0s.11,0,.11.11l.11.11v.11c0,.11,0,0,0,0v.22h0v.11c0,.22.22.22.43.22s.43-.11.43-.32c.11-.54-.22-.97-.65-1.18-.54-.22-1.18-.11-1.61.32-.32.32-.43.86-.22,1.29.22.43.75.75,1.29.65.65,0,1.18-.54,1.29-1.18,0-.32-.86-.22-.86.11Z"/>
    <path class="cls-16" d="M132.23,124.72c-.11,1.18-1.18,2.04-2.37,1.94-.65-.11-1.18-.43-1.61-.97-.54-.86-.43-1.83.11-2.58.54-.75,1.4-1.08,2.26-.75.97.22,1.72,1.18,1.61,2.37,0,.43.86.32.86-.11.11-1.18-.54-2.37-1.61-2.9-1.18-.54-2.58-.22-3.55.65-.86.86-1.08,2.15-.65,3.23.54,1.08,1.72,1.72,3.01,1.61,1.4-.11,2.58-1.18,2.8-2.69,0-.32-.86-.22-.86.22Z"/>
    <path class="cls-9" d="M130.51,124.5v.22h0l-.11.22c.11-.11,0,0,0,0h0c-.11.11.11,0,0,0h0c-.11,0,.11,0,0,0s-.11,0,0,0h0c.11,0,0,0,0,0h-.22c-.11,0,0,0,0,0h0q-.11-.11-.11-.22h0v-.43h0v-.32h0s0-.11.11-.11v-.11c0-.11-.11.11,0,0l.11-.11s-.11,0,0,0h.11c.11,0,0,0,0,0h0c.11,0-.11,0,0,0h.11q-.11,0,0,0h.11s-.11,0,0,0h.11s.11,0,0,0l.11.11h.11q.11.11.22.22h0v.43c0,.22.22.22.43.22.11,0,.22,0,.32-.11.11,0,.11-.11.11-.22,0-.43-.22-.86-.65-1.08-.54-.22-1.18-.11-1.72.32-.32.32-.43.86-.22,1.29.22.43.75.75,1.29.65.65,0,1.18-.43,1.29-1.08,0-.22-.22-.22-.32-.22s-.22,0-.32.11c-.75.11-.86.22-.86.22Z"/>
    <path class="cls-16" d="M139.22,128.59c-.11.97-.75,1.72-1.61,1.94s-1.83-.22-2.37-.97c-.54-.86-.43-1.83.11-2.58.54-.75,1.4-1.08,2.26-.75,1.08.32,1.72,1.29,1.61,2.37,0,.43.86.32.86-.11.11-1.18-.54-2.37-1.61-2.9-1.18-.54-2.58-.32-3.44.65-.86.86-1.18,2.15-.65,3.33.54,1.08,1.72,1.72,3.01,1.61,1.4-.11,2.58-1.29,2.8-2.69-.11-.43-.97-.32-.97.11Z"/>
    <path class="cls-9" d="M137.5,128.48v.11h0v.11s0,.11-.11.11h0c.11,0,0,0,0,0l-.11.11c.11-.11.11,0,0,0h-.32s.11,0,0,0h-.11s-.11,0,0,0,0,0,0,0h-.11l-.11-.11s-.11,0,0,0,0,0,0,0l-.11-.11h0v-.22h0c0,.11,0,0,0,0v-.22h0v-.22h0l.11-.11s-.11,0,0,0h0s-.11,0,0,0h0c.11-.11-.11,0,0,0h0s.11,0,0,0h.32l.11.11h0l.11.11v.11h0s0,.11.11.11v.11h0v.11c0,.22.22.32.43.32s.43-.11.43-.32c0-.54-.22-.97-.75-1.18s-1.18-.11-1.61.32c-.43.32-.43.97-.22,1.4s.75.75,1.29.65c.65,0,1.18-.54,1.29-1.18,0-.22-.22-.32-.43-.32s-.21,0-.21.22Z"/>
    <path class="cls-16" d="M146.21,132.46c-.11.97-.75,1.72-1.61,1.94-.97.22-1.83-.22-2.37-1.08s-.54-1.94.11-2.69c.54-.75,1.4-1.08,2.26-.75,1.08.43,1.72,1.51,1.61,2.58,0,.43.86.22.86-.11.11-1.18-.54-2.37-1.61-2.8-1.18-.54-2.58-.32-3.55.65-.86.86-1.08,2.15-.65,3.23.54,1.08,1.72,1.72,3.01,1.61,1.4-.11,2.58-1.18,2.8-2.58.11-.43-.75-.32-.86,0Z"/>
    <path class="cls-9" d="M144.6,132.35q0,.11-.11.22c0,.11-.11.11-.11.22l-.11.11h-.11s.11,0,0,0,.11,0,0,0h0q-.11,0-.22-.11l-.32-.32c-.22-.32-.22-.65,0-.97l.11-.11h.22s.11,0,0,0c.43.11.65.54.65.97-.11,0,.11,0,0,0h.43c.11,0,.43-.11.43-.22,0-.43-.22-.86-.65-.97-.32-.11-.54-.11-.86,0s-.65.22-.86.43c-.32.32-.43.75-.22,1.18.11.22.22.32.43.43.22.11.54.11.86.11s.65-.22.97-.43c.22-.22.32-.43.32-.65,0-.11-.11-.11-.11-.11h-.32c-.21,0-.43.11-.43.22Z"/>
    <path class="cls-16" d="M153.3,136.22c-.11.97-.75,1.72-1.61,1.94-.97.11-1.83-.22-2.37-1.08s-.54-1.94.11-2.69c.54-.75,1.4-1.08,2.26-.75,1.08.43,1.72,1.51,1.61,2.58,0,.32.86.22.86-.11.11-1.18-.54-2.37-1.61-2.8-1.18-.54-2.58-.22-3.55.65-.86.86-1.08,2.15-.65,3.23.54,1.08,1.72,1.72,3.01,1.51,1.4-.11,2.58-1.18,2.8-2.58,0-.32-.86-.22-.86.11Z"/>
    <path class="cls-9" d="M151.58,136.01v.11c0,.11,0-.11,0,0h0l-.11.11h0s.11-.11,0,0l-.11.11c.11-.11.11,0,0,0h-.11c-.11,0,0,0,0,0h-.11s-.11,0,0,0h-.11s.11,0,0,0h-.11s-.11,0,0,0h-.11s-.11,0-.11-.11c0,0-.11-.11,0,0h0l-.11-.11h0c0-.11,0,.11,0,0v-.22h0c0,.11,0,0,0,0v-.22c0-.11,0,0,0,0v-.22h0l.11-.11c0-.11-.11,0,0,0h.11s-.11.11,0,0h0c.11,0-.11,0,0,0h0s.11,0,0,0h.11s-.11,0,0,0h.22l.11.11h0l.11.11v.11c0,.11,0-.11,0,0v.11c.22,0,.22.11.22.22h0c-.11.43.75.32.75,0,0-.54-.22-.97-.75-1.18-.54-.22-1.18-.11-1.61.32-.32.32-.43.86-.22,1.29.22.54.75.75,1.29.75.65,0,1.18-.54,1.29-1.18,0-.22-.22-.32-.43-.32s-.22.11-.32.32Z"/>
    <path class="cls-16" d="M159.65,140.09c-.11.97-.75,1.72-1.61,1.94-.97.11-1.83-.22-2.37-1.08s-.43-1.94.11-2.69,1.4-1.08,2.26-.75c1.08.43,1.72,1.4,1.61,2.58,0,.43.86.22.86-.11.11-1.18-.54-2.37-1.61-2.8-1.18-.54-2.58-.22-3.55.65-.86.86-1.08,2.15-.65,3.23.54,1.08,1.72,1.72,3.01,1.61,1.4-.11,2.58-1.18,2.8-2.58.11-.54-.75-.32-.86,0Z"/>
    <path class="cls-9" d="M158.03,139.98c0,.11-.11.32-.22.43l-.11.11h0c.11,0,0,0,0,0h.11c-.11,0,.11,0,0,0h-.11q-.11,0-.22-.11c-.43-.22-.65-.75-.43-1.18,0,0,0-.11.11-.11l.11-.11h0s-.11,0,0,0h0c.11,0-.11,0,0,0s0,0,0,0h0s.11,0,0,0h.11c.32.11.54.54.65.97-.11,0,0,0,0,0h.32c.11,0,.43-.11.43-.22,0-.43-.22-.86-.65-.97-.32-.11-.54-.11-.86,0-.32,0-.65.22-.86.43-.32.32-.43.75-.22,1.18.22.43.75.65,1.18.54.32,0,.75-.22.97-.43s.32-.43.32-.65l-.11-.11h-.32s-.22,0-.22.22Z"/>
    <path class="cls-16" d="M168.03,139.23c-.11,1.18-1.18,2.04-2.37,1.83-.65-.11-1.18-.43-1.51-.97-.54-.86-.54-1.83.11-2.69.54-.75,1.4-1.08,2.26-.75.97.43,1.61,1.51,1.51,2.58,0,.43.86.32.86-.11.11-1.18-.54-2.37-1.61-2.8-1.18-.54-2.58-.32-3.55.65-.86.86-1.08,2.15-.65,3.23.54,1.08,1.72,1.72,3.01,1.61,1.4-.11,2.58-1.18,2.8-2.58,0-.54-.86-.32-.86,0Z"/>
    <path class="cls-9" d="M166.31,139.02v.22h0s0,.11-.11.11v.11h0s0,.11-.11.11h-.11c.11-.11.11,0,0,0h0q.11,0,0,0h0s.11,0,0,0h-.11s.11,0,0,0h0c-.11,0,0,0,0,0h-.11l-.11-.11h0l-.22-.22h0v-.22h0v-.22s0-.11,0,0,0,0,0-.11l.11-.11h0l.11-.11s-.11,0,0,0h0c.11,0-.11,0,0,0h0c.11,0-.11,0,0,0h.43l.22.22v.11h0v.22s0,.11,0,0v.11c0,.22.22.22.43.22.11,0,.22-.11.32-.11s.11-.11.11-.22c0-.43-.22-.86-.65-1.08-.54-.22-1.18-.11-1.72.32-.32.32-.43.86-.22,1.29s.75.75,1.29.65c.65,0,1.18-.43,1.29-1.08,0-.22-.22-.22-.43-.22-.22,0-.32,0-.43.11.11-.11,0,0,0,0Z"/>
    <path class="cls-16" d="M174.27,135.36c-.11.97-.65,1.72-1.61,2.04-.97.11-1.83-.32-2.37-1.18s-.43-1.94.11-2.69,1.4-1.08,2.26-.75c1.08.43,1.72,1.4,1.61,2.58,0,.32.86.11.86-.11.11-1.18-.54-2.26-1.61-2.8-1.18-.43-2.58-.22-3.55.65-.86.86-1.18,2.15-.65,3.23s1.72,1.72,2.9,1.51c1.4-.11,2.58-1.18,2.8-2.58.11-.32-.65-.22-.75.11Z"/>
    <path class="cls-9" d="M172.66,135.15c0,.11,0,.22-.11.22v.11h0s0,.11-.11.11v.11h0c-.11.11,0,0,0,0h0c-.11,0,.11,0,0,0h-.11c-.11,0,0,0,0,0h-.22l-.11-.11c-.11,0-.11-.11-.11-.22-.11-.11-.11-.32-.11-.43v-.22c0-.11.11-.11.11-.22l.11-.11c0-.11,0,0,0,0h0c.11,0-.11,0,0,0s0,0,0,0h.22s.11,0,0,0h.11l.11.11h.11l.22.22c-.11.11-.11.32-.11.43.11.22.32.22.43.22s.22-.11.32-.11c0,0,.11-.11.22-.11,0-.22,0-.43-.11-.65-.11-.22-.32-.32-.54-.43-.22-.11-.54-.11-.86-.11s-.65.22-.86.43c-.32.32-.43.75-.32,1.18.22.43.75.65,1.29.65.65,0,1.18-.43,1.29-1.08,0-.22-.22-.22-.32-.11-.11,0-.22,0-.32.11-.11-.11-.21-.11-.21,0Z"/>
    <path class="cls-16" d="M180.61,131.06c-.11.97-.75,1.72-1.61,2.04-.97.11-1.94-.32-2.37-1.18s-.43-1.94.11-2.69c.22-.43.65-.65,1.08-.75s.86-.11,1.29.11c1.08.32,1.72,1.29,1.51,2.47,0,.11.86,0,.86-.22.11-1.18-.54-2.26-1.72-2.69s-2.58-.11-3.55.75c-.86.86-1.08,2.15-.54,3.23.54,1.08,1.83,1.61,3.01,1.4,1.4-.11,2.58-1.18,2.8-2.58,0-.22-.86-.22-.86.11Z"/>
    <path class="cls-9" d="M179,130.85v.22h0s0,.11-.11.11v.11s0-.11,0,0l-.11.11s.11,0,0,0h0-.11c.11-.11,0,0,0,0h0c-.11,0,0,0,0,0h-.11c-.11,0,0,0,0,0h-.22c-.11,0,.11,0,0,0h-.22q-.11-.11-.11-.22h0v-.22h0v-.22h0l.11-.11c0-.11,0,0,0,0h0s-.11,0,0,0h0c-.11,0,.11,0,0,0s0,0,0,0h.11c.11,0-.11,0,0,0h.11l.11.11h0l.11.11s.11,0,.11.11v.11h0v.22h0v.11c0,.22.22.22.43.22.11,0,.22,0,.32-.11.11,0,.11-.11.11-.22,0-.43-.22-.86-.65-1.08-.54-.22-1.18-.11-1.72.32-.32.32-.43.86-.22,1.29s.75.75,1.29.65c.65,0,1.18-.54,1.29-1.18,0-.22-.22-.22-.43-.22-.11,0-.22,0-.32.11.22-.54.22-.43.22-.32Z"/>
    <path class="cls-16" d="M186.74,126.65c-.11.97-.65,1.72-1.61,2.04-.97.11-1.83-.32-2.37-1.08-.54-.86-.54-1.94.11-2.69.43-.75,1.4-1.08,2.26-.75,1.08.43,1.72,1.4,1.61,2.47,0,.32.86.22.86-.11.11-1.18-.54-2.26-1.61-2.8-1.18-.43-2.58-.22-3.55.65-.86.86-1.18,2.15-.65,3.23s1.72,1.72,3.01,1.51c1.4-.11,2.58-1.18,2.8-2.58,0-.22-.86-.11-.86.11Z"/>
    <path class="cls-9" d="M185.02,126.55v.22h0v.22h0l-.11.11s.11,0,0,0h-.11c.11-.11,0,0,0,0,0,0-.11,0,0,0h-.11c-.11,0,0,0,0,0h-.22s.11,0,0,0h-.32q-.11-.11-.22-.22h0c0,.11,0,0,0,0v-.22h0v-.22c0-.11,0,0,0,0h0s0-.11.11-.11h0s-.11,0,0,0h.11s.11,0,0,0h.22s-.11,0,0,0h.22l.11.11h0l.11.11.11.11.11-.11h0v.22h0v.11c0,.22.22.22.43.22.11,0,.22,0,.32-.11.11,0,.11-.11.11-.22,0-.43-.22-.86-.65-1.08-.54-.22-1.29-.11-1.72.32-.32.32-.43.86-.22,1.29.22.43.75.75,1.29.65.65,0,1.18-.54,1.29-1.18.11-.75-.75-.65-.86-.22Z"/>
    <path class="cls-9" d="M165.56,157.19c-.11,1.29-1.08,2.47-2.26,2.8-1.4.22-2.69-.54-3.33-1.72-.65-1.18-.54-2.58.22-3.66.32-.54.86-.97,1.51-1.18.65-.11,1.29-.11,1.94.22,1.29.65,2.15,2.04,1.94,3.55,0,.11.86,0,.86-.22.11-1.61-.75-3.01-2.26-3.66-1.51-.54-3.23-.22-4.41.97-1.18,1.08-1.4,2.8-.75,4.19.75,1.4,2.26,2.15,3.87,1.83,1.83-.22,3.23-1.51,3.55-3.33,0-.11-.75,0-.86.22Z"/>
    <path class="cls-17" d="M163.19,156.86c0,.11,0,.22-.11.32v.11s0-.11,0,0-.11.11-.11.11h0c-.11.11,0,0,0,0h-.11c-.11.11.11,0,0,0h-.11.11c-.11,0,.11,0,0,0s-.11,0,0,0h0c-.11,0,.11,0,0,0h-.43s-.11,0,0,0l-.11-.11-.22-.22c0-.11-.11-.22-.11-.22v-.65l.11-.11c0-.11,0,0,0,0l.11-.11.11-.11c-.11.11,0,0,.11,0h.11c.11,0,0,0-.11,0h.11c.11,0-.11,0,0,0h.11q-.11,0,0,0h.22c-.11,0,0,0,0,0l.22.11h0l.11.11.22.22c-.22.11-.11.43-.22.54.11.32.43.32.54.22.11,0,.32-.11.43-.11s.22-.11.22-.22c.11-.65-.32-1.18-.86-1.4-.75-.32-1.61-.11-2.26.43-.43.43-.65,1.08-.43,1.61.32.65,1.08.97,1.72.86.86,0,1.61-.65,1.72-1.51,0-.22-.32-.22-.43-.22s-.32.11-.43.11c-.11.11-.22.11-.22.22Z"/>
    <path class="cls-16" d="M169.22,157.51c-.32,2.8-2.47,5.05-5.27,5.48-2.8.43-5.7-.86-7.2-3.33-1.29-2.15-1.18-4.84.32-6.88,1.83-2.37,5.05-3.23,7.85-2.04,2.8,1.18,4.52,3.87,4.3,6.77,0,.11.86,0,.86-.22.22-3.12-1.83-6.02-4.73-6.99-2.8-.97-5.91-.32-8.17,1.61-2.26,2.04-2.8,5.38-1.18,7.96,1.61,2.58,4.73,3.87,7.74,3.44,3.23-.32,5.91-2.8,6.45-6.02-.11-.11-.97,0-.97.22Z"/>
    <path class="cls-9" d="M167.39,173.74c0,1.61-1.4,2.9-3.01,2.9-1.08,0-2.15-.65-2.58-1.61-.65-1.18-.65-2.58.11-3.66.75-1.08,2.04-1.51,3.33-1.08,1.4.43,2.26,1.94,2.15,3.44,0,.22.86.11.86-.11.11-1.51-.75-3.01-2.15-3.66-1.51-.65-3.23-.32-4.52.86-1.18,1.08-1.51,2.8-.86,4.19.75,1.4,2.26,2.15,3.87,2.04,1.83-.11,3.33-1.51,3.66-3.33,0-.43-.86-.22-.86,0Z"/>
    <path class="cls-17" d="M165.02,173.53c0,.22-.11.43-.22.54l-.11.11h-.11c.11-.11,0,0,0,0h-.11.11-.11c.11-.11.11,0,0,0s.11,0,.11,0h.11c-.11,0,.11,0,0,0h-.11c-.11,0-.22,0-.32-.11-.22-.11-.32-.22-.43-.43-.22-.43-.22-.86,0-1.29l.22-.22c-.11.11.11-.11.11,0s-.11,0,0,0,0,0,0,0h-.22c.11,0-.11,0,0,0s0,0,0,0h.11c.11,0-.11,0,0,0h.22c.43.32.75.86.75,1.4h.65c.11,0,.54-.11.54-.32,0-.54-.32-1.08-.86-1.29-.32-.11-.75-.11-1.18-.11-.43.11-.86.22-1.18.54-.43.43-.54,1.08-.32,1.61.32.54.97.86,1.61.65.86,0,1.61-.65,1.83-1.51,0-.11-.22-.11-.22-.11-.11,0-.32,0-.43.11-.11.22-.43.32-.43.43Z"/>
    <path class="cls-16" d="M171.04,174.07c-.32,2.69-2.37,4.95-5.05,5.48-2.8.54-5.59-.65-7.2-2.9-1.51-2.15-1.4-4.95.11-7.1,2.37-2.9,6.67-3.44,9.68-.97,1.61,1.29,2.58,3.33,2.47,5.48,0,.32.86.11.86-.11.22-3.01-1.61-5.91-4.52-6.88-2.9-1.08-6.13-.54-8.49,1.51-2.26,2.04-2.8,5.27-1.29,7.96,1.61,2.58,4.62,4.09,7.63,3.66,3.33-.22,6.13-2.8,6.67-6.13,0-.43-.86-.22-.86,0Z"/>
    <path class="cls-9" d="M168.68,190.3c0,1.61-1.4,2.9-3.01,2.9-1.08,0-2.15-.65-2.58-1.61-.75-1.18-.65-2.58.11-3.76.75-1.08,2.15-1.51,3.33-.97,1.4.54,2.26,1.94,2.15,3.44,0,.22.86,0,.86-.22.11-1.61-.75-3.01-2.26-3.66-1.51-.54-3.23-.22-4.41.86-1.18,1.08-1.51,2.8-.75,4.19.75,1.4,2.26,2.15,3.87,1.94,1.83-.22,3.33-1.51,3.55-3.33,0-.22-.86,0-.86.22Z"/>
    <path class="cls-17" d="M166.21,190.09v.32s0,.11,0,0-.11.11-.11.11v.11c0,.11,0-.11,0,0l-.11.11c-.11.11,0,0,0,0h-.11,0c.11-.11.11,0,0,0h0c-.11,0,.11,0,0,0h-.11c-.11,0,.11,0,0,0h-.11c-.11,0,0,0,0,0h-.22c-.11,0,.11,0,0,0l-.11-.11s-.11,0-.11-.11h0l-.22-.22h0c0,.11,0,0,0,0,0,0,0-.11-.11-.11v-.22s0-.11,0,0h0v-.32s0-.11,0,0h0c0-.11.11-.11.11-.22s-.11,0,0,0l.11-.11.11-.11c.11-.11,0,0,0,0l.11-.11c-.11.11-.11,0,0,0h.11-.11.11c.11,0-.11,0,0,0h.11s.11,0,0,0h.11c.11,0-.11,0,0,0h.22s.11.11,0,0c.11.11.22.11.22.22l.11.11c0-.11,0,0,0,0l.11.22v.22h0l-.11.22c0,.32.32.32.54.32.11,0,.32-.11.43-.11.11-.11.22-.11.22-.22.11-.65-.32-1.18-.86-1.51-.75-.32-1.61-.11-2.26.43-.43.43-.65,1.08-.32,1.72s1.08.97,1.72.86c.86,0,1.61-.65,1.72-1.51,0-.22-.32-.32-.54-.32-.11,0-.32.11-.43.11-.11,0-.11.11-.22.22Z"/>
    <path class="cls-16" d="M172.23,190.62c-.32,2.69-2.37,4.84-5.05,5.38-2.8.54-5.59-.54-7.31-2.8-1.51-2.15-1.4-5.05.22-7.1,1.83-2.15,4.73-3.01,7.42-2.15,3.01.86,4.95,3.66,4.73,6.67,0,.43.86.32.86,0,.22-3.01-1.61-5.81-4.41-6.99-2.9-1.18-6.24-.65-8.6,1.51-2.15,2.04-2.69,5.27-1.29,7.85,1.61,2.69,4.62,4.19,7.74,3.87,3.33-.32,6.13-2.8,6.67-6.13,0-.65-.86-.54-.97-.11Z"/>
    <path class="cls-9" d="M166.96,206.53c-.11,1.29-.97,2.37-2.26,2.8-1.29.22-2.58-.32-3.33-1.51-.75-1.18-.65-2.58.11-3.66.75-1.08,2.04-1.51,3.33-1.08,1.4.54,2.26,1.94,2.15,3.44,0,.32.75.22.86-.11.11-1.61-.75-3.01-2.15-3.66-1.51-.65-3.33-.32-4.52.86-1.18,1.08-1.51,2.8-.86,4.19.75,1.4,2.26,2.26,3.87,2.04,1.83-.11,3.33-1.61,3.55-3.44.11-.32-.75-.22-.75.11Z"/>
    <path class="cls-17" d="M164.59,206.43c0,.22-.11.43-.22.54l-.11.11c0,.11,0,0,0,0l-.11.11c-.11,0,0,0,0,0h-.11.22c-.11,0,0,0,0,0h-.11c-.11,0-.22,0-.32-.11-.54-.32-.75-.97-.54-1.51,0,0,0-.11.11-.11h0l.11-.11h0s.11-.11,0,0h.11c.11-.11,0,0,0,0h.11-.11s.11,0-.11,0h.11q-.11,0,0,0t0,0h.11l.22.11c.22.11.32.22.54.43.11.22.22.54.11.75,0,.11.22.11.22.11.11,0,.32,0,.43-.11.11,0,.54-.11.54-.32,0-.54-.32-1.18-.86-1.29-.32-.11-.75-.11-1.08,0-.43.11-.86.32-1.18.54-.43.43-.54,1.08-.32,1.61.11.22.32.43.65.54s.75.22,1.08.11c.43-.11.97-.22,1.29-.54.22-.22.43-.54.43-.86,0-.11-.22-.11-.22-.11-.11,0-.32,0-.43.11-.22-.32-.54-.22-.54,0Z"/>
    <path class="cls-16" d="M170.61,206.96c-.32,2.69-2.37,4.95-5.05,5.48-2.8.43-5.59-.65-7.2-2.9-1.51-2.15-1.51-4.95,0-7.1,2.37-2.9,6.67-3.44,9.68-1.08,1.61,1.29,2.58,3.44,2.58,5.59,0,.32.75.11.86-.11.22-3.01-1.61-5.81-4.52-6.88-2.9-1.08-6.13-.54-8.49,1.51-2.26,1.94-2.8,5.27-1.29,7.85,1.61,2.58,4.62,3.98,7.63,3.66,3.33-.22,6.13-2.8,6.67-6.02,0-.43-.86-.32-.86,0Z"/>
    <path class="cls-9" d="M164.05,222.66c-.11,1.61-1.51,2.9-3.12,2.8-.97-.11-1.94-.65-2.47-1.51-.65-1.18-.65-2.58.11-3.66.75-1.08,2.04-1.51,3.33-1.08,1.4.54,2.26,1.94,2.15,3.44,0,.43.86.22.86-.11.11-1.61-.75-3.12-2.15-3.76-1.51-.65-3.33-.32-4.52.75-1.18,1.08-1.51,2.8-.75,4.3.75,1.4,2.26,2.26,3.87,2.04,1.83-.22,3.33-1.61,3.55-3.44,0-.32-.86-.11-.86.22Z"/>
    <path class="cls-17" d="M161.69,222.45c0,.11,0,.22-.11.32,0,0,0,.11,0,0v.11l-.11.11c-.11.11,0,0,0,0l-.11.11h-.11c-.11.11.11-.11,0,0h0c-.11.11.11,0,0,0h-.11.11c-.11,0,.11,0,0,0s-.11,0,0,0-.11,0-.11,0h-.11c-.11,0,.11,0,0,0h-.11l-.11-.11h0c-.11-.11-.22-.11-.22-.22h0v-.86l-.11-.22c0,.11,0,0,0,0v-.22l.11-.11c.11-.11-.11,0,0,0h.11c.11,0,0,0,0,0h.11-.11.11c.11,0-.11,0,0,0h.11q-.11,0,0,0h.22c.11,0-.11,0,0,0l.22.11s.11,0,0,0l.11.11c.11.11.22.11.22.22s0-.11,0,0v.11c0,.11.11.11.11.22v.32c0,.22.32.22.54.22.11,0,.32-.11.43-.11s.22-.11.22-.22c.11-.65-.32-1.18-.86-1.4-.75-.32-1.61-.11-2.26.43-.43.43-.65,1.08-.32,1.72s1.08.97,1.72.86c.86,0,1.61-.65,1.72-1.51,0-.22-.32-.22-.54-.22-.11,0-.32.11-.43.11-.22,0-.32,0-.32.11Z"/>
    <path class="cls-16" d="M167.71,223.09c-.32,2.8-2.47,5.05-5.27,5.48-2.8.43-5.7-.86-7.2-3.33-1.29-2.15-1.18-4.95.43-6.99,2.47-2.9,6.77-3.23,9.68-.75,1.61,1.51,2.47,3.55,2.37,5.59,0,.11.86,0,.86-.22.22-3.12-1.72-5.91-4.62-6.88-2.9-.97-6.02-.43-8.28,1.61-2.26,2.04-2.8,5.38-1.18,7.96,1.72,2.58,4.73,3.87,7.74,3.44,3.33-.32,5.91-2.8,6.45-6.02-.11-.22-.97-.11-.97.11Z"/>
    <path class="cls-9" d="M161.47,238.9c-.11,1.29-1.08,2.47-2.26,2.8-1.4.22-2.69-.54-3.33-1.72-.65-1.18-.54-2.58.22-3.66.75-1.08,2.15-1.51,3.33-.97,1.4.65,2.26,2.04,2.04,3.55,0,.11.86,0,.86-.22.11-1.61-.75-3.01-2.26-3.66-1.51-.54-3.23-.22-4.41.97-1.18,1.08-1.4,2.8-.75,4.19.75,1.4,2.37,2.15,3.87,1.83,1.83-.22,3.23-1.61,3.55-3.33,0-.11-.75,0-.86.22Z"/>
    <path class="cls-17" d="M159.11,238.68c0,.11,0,.22-.11.32,0-.11,0,0,0,0h0s0,.11-.11.11c0,0,0,.11,0,0l-.11.11c-.11.11,0,0,0,0,0,0-.11,0-.11.11h.11-.11.11c-.11,0,.11,0,0,0h-.11c-.11,0,.11,0,0,0h-.11c-.11,0,.11,0,0,0h-.22l-.11-.11s-.11-.11,0,0h.11c-.11-.11-.11-.22-.22-.22,0-.11,0,0,0,0v-.54h0c0-.11,0-.22.11-.32v-.11c0,.11,0,0,0,0l.11-.11h0c0,.11,0,0,0,0h.11c.11-.11,0,0,0,0,0,0,.11,0,.11-.11-.11.11-.11,0,0,0h.11c.11,0,0,0-.11,0h.11c.11,0-.11,0,0,0h.11c.11,0-.11,0,0,0h-.43c.11,0-.11,0,0,0h.32l.11.11h.11l.22.22s.11.11,0,0v.11c0,.11.11.11.11.22v.32c0,.11-.22-.22-.11-.11-.11.22.22.22.43.22.11,0,.32-.11.43-.11.11-.11.22-.11.22-.22.11-.65-.32-1.18-.86-1.51-.75-.32-1.61-.11-2.26.43-.43.43-.65,1.08-.32,1.72s1.08.97,1.72.86c.86,0,1.61-.65,1.72-1.51,0-.22-.32-.32-.54-.32-.11,0-.32.11-.43.11,0,.11-.11.11-.11.32Z"/>
    <path class="cls-16" d="M165.13,239.22c-.32,2.69-2.37,4.84-5.05,5.38-2.8.54-5.59-.54-7.31-2.9-1.51-2.15-1.4-4.95.11-7.1,1.83-2.26,4.84-3.12,7.63-2.15,2.9.97,4.84,3.76,4.62,6.77,0,.32.86.11.86-.11.22-3.01-1.61-5.91-4.52-6.88-2.9-1.08-6.13-.54-8.49,1.51-2.26,2.04-2.8,5.27-1.29,7.96,1.61,2.58,4.62,4.09,7.63,3.66,3.33-.22,6.13-2.8,6.67-6.13,0-.43-.75-.32-.86,0Z"/>
    <path class="cls-9" d="M159.75,256.1c-.11,1.61-1.61,2.9-3.23,2.8-.97-.11-1.83-.65-2.37-1.51-.75-1.08-.65-2.58.11-3.66.75-1.08,2.04-1.51,3.33-1.08,1.4.54,2.26,1.94,2.15,3.44,0,.43.86.32.86-.11.11-1.61-.75-3.12-2.15-3.76-1.51-.65-3.33-.43-4.52.75-1.18,1.08-1.51,2.8-.75,4.3.75,1.51,2.26,2.37,3.87,2.15,1.83-.22,3.33-1.61,3.55-3.44,0-.32-.86-.32-.86.11Z"/>
    <path class="cls-17" d="M157.39,255.99c0,.11,0,.22-.11.32v.11h0l-.11.11-.11.11s.11-.11,0,0h-.11.11-.11.11-.11c-.11,0,.11,0,0,0s.11,0,0,0h-.11s.11,0,0,0h-.11c-.11,0,0,0,0,0l-.22-.11h-.11l-.11-.11-.22-.22c-.11-.22-.22-.43-.22-.65,0-.11,0-.22.11-.32q0-.11.11-.22l.11-.11c.11-.11,0,0,0,0h.22c.11,0,0,0,0,0h0c.11,0-.11,0,0,0s0,0,0,0h.22s.11,0,0,0h.11l.22.11c-.11,0,0,0,0,0l.11.11.22.22c0,.22.11.43.11.65,0,.32.32.32.43.22.11,0,.32-.11.43-.11s.22-.11.22-.22c0-.32,0-.54-.22-.86-.11-.22-.43-.43-.65-.54-.32-.11-.75-.22-1.08-.11-.43.11-.86.22-1.18.54-.43.43-.65,1.08-.43,1.61.32.65,1.08.97,1.72.75.86,0,1.61-.65,1.72-1.51,0-.22-.32-.22-.43-.22s-.32.11-.43.11c0,.11-.11.22-.11.32Z"/>
    <path class="cls-16" d="M163.41,256.53c-.32,2.69-2.37,4.84-5.05,5.38-2.8.54-5.59-.54-7.31-2.8-1.51-2.15-1.4-4.95.22-7.1,1.83-2.15,4.73-3.01,7.42-2.15,2.9.86,4.84,3.55,4.73,6.67,0,.43.86.32.86-.11.22-3.01-1.61-5.81-4.41-6.99-2.9-1.18-6.24-.65-8.6,1.51-2.15,2.04-2.69,5.27-1.29,7.85,1.61,2.69,4.62,4.19,7.74,3.87,3.33-.22,6.13-2.8,6.67-6.13-.11-.54-.97-.43-.97,0Z"/>
    <path class="cls-9" d="M158.68,273.19c0,1.29-.86,2.47-2.04,3.01-1.29.32-2.58-.11-3.44-1.18-.75-1.08-.86-2.58-.22-3.76.65-1.08,1.94-1.72,3.12-1.4,1.51.54,2.58,1.83,2.58,3.33,0,.22.86,0,.86-.22,0-1.61-1.08-3.01-2.58-3.44-1.61-.43-3.33,0-4.41,1.29-1.08,1.18-1.18,2.9-.32,4.3.86,1.29,2.58,1.94,4.09,1.61,1.83-.32,3.12-1.94,3.12-3.76.11-.22-.75-.11-.75.22Z"/>
    <path class="cls-17" d="M156.31,273.19v.32s0,.11-.11.11c0-.11,0,0,0,0v.22l-.11.11c-.11.11.11,0,0,0h-.11c-.11,0,.11,0,0,0h-.11c.11-.11.11,0,.11,0h0c-.11,0,.11,0,0,0h-.11c-.11,0,.11,0,0,0h-.43s-.11,0,0,0h0l-.11-.11q-.11-.11-.11-.22c0-.11-.11-.22-.11-.32v-.32h0c0,.11,0,0,0,0l.11-.11h0l.11-.11h0s-.11,0,0,0h.11c.11-.11-.11,0,0,0h.11c-.11.11-.11,0-.11,0h0c.11,0-.11,0,0,0h.11c.11,0-.11,0,0,0h.22l.22.11h0s0,.11.11.11l.11.11v.11h0c0,.11.11.11.11.22s.11.22.11.43c0,.11.11.11.22.11h.43c.22-.11.54-.22.54-.43,0-.65-.43-1.18-1.08-1.29-.75-.22-1.61,0-2.15.65-.43.43-.43,1.18-.11,1.72.65.86,1.94.86,2.69.22.32-.32.54-.65.65-1.18,0-.11,0-.22-.11-.22h-.43c-.11,0-.32.11-.43.11-.22-.54-.32-.43-.32-.32Z"/>
    <path class="cls-16" d="M162.33,273.08c-.11,2.69-1.83,5.05-4.41,5.91-2.69.86-5.7.11-7.53-2.04-1.72-1.94-1.94-4.73-.65-6.99,1.51-2.37,4.41-3.66,7.2-3.01,3.01.54,5.27,3.12,5.38,6.13,0,.43.86.22.86-.11-.11-3.01-2.15-5.59-5.05-6.45-3.01-.97-6.24-.11-8.39,2.15-2.04,2.15-2.26,5.48-.65,7.96,1.83,2.47,4.95,3.66,7.96,3.12,3.33-.54,5.91-3.33,6.13-6.77,0-.32-.86-.22-.86.11Z"/>
    <path class="cls-9" d="M158.68,291.47c0,1.4-.75,2.58-2.04,3.12-1.29.32-2.69-.22-3.44-1.29-.75-1.08-.86-2.47-.22-3.66s1.94-1.83,3.23-1.4c1.51.32,2.47,1.72,2.47,3.23,0,.11.86,0,.86-.22,0-1.61-1.08-2.9-2.58-3.33-1.61-.43-3.23.11-4.41,1.29-1.08,1.18-1.18,3.01-.32,4.3s2.47,1.83,4.09,1.51c1.83-.32,3.12-1.83,3.23-3.66,0-.22-.86-.11-.86.11Z"/>
    <path class="cls-17" d="M156.31,291.36v.43s0-.11,0,0l-.11.22h0c0-.11,0,0,0,0l-.11.11s.11-.11,0,0h-.11c-.11,0,0,0,0,0h-.11c-.11,0,.11,0,0,0s-.11,0,0,0-.22,0,0,0h-.11c-.11,0,.11,0,0,0h-.22s-.11,0-.11-.11h0l-.11-.11-.11-.11h0v-.11c0-.11-.11-.22-.11-.32,0,0,0-.11,0,0v-.43s0,.11,0,0v-.11s0-.11.11-.11c-.11,0,0,0,0,0h.11s-.11.11,0,0h.11c.11,0-.11,0,0,0h.11q-.11,0,0,0h.11q-.11,0,0,0h.11c.11,0-.11,0,0,0h.11s.11.11.22.11h.11l.11.11.11.11c.11.11,0,0,0,0v.11q-.22.11-.11.22-.11,0,0,0c-.11.11-.11.22,0,0-.11.22-.11.32,0,.32s.22.11.43,0c.11,0,.32-.11.43-.11s.22-.11.22-.22c0-.32-.11-.65-.32-.86-.22-.22-.43-.43-.75-.54-.75-.22-1.61,0-2.15.54-.43.54-.54,1.18-.22,1.83.43.54,1.18.86,1.83.65.86-.11,1.51-.75,1.51-1.61,0-.22-.32-.32-.54-.32-.11,0-.32.11-.43.11.11,0,0,.11,0,.22Z"/>
    <path class="cls-16" d="M162.33,291.47c-.11,2.8-1.94,5.16-4.52,6.02-2.69.75-5.7-.11-7.42-2.37-1.61-2.04-1.83-4.73-.54-6.99,2.04-3.12,6.24-4.09,9.46-2.04,1.72,1.18,2.9,3.12,3.01,5.38,0,.22.86,0,.86-.22-.11-3.12-2.26-5.81-5.27-6.45-2.9-.75-6.02.22-8.17,2.37-2.04,2.26-2.26,5.48-.43,7.96,1.94,2.47,5.05,3.55,8.06,2.8,3.33-.54,5.7-3.33,5.91-6.67-.11-.22-.97-.11-.97.22Z"/>
    <path class="cls-9" d="M178.68,144.29l7.63-6.77,5.38-4.84,2.04-1.72c.32-.22.65-.54.97-.86.32-.43,0-1.08,0-1.51l-.54-3.23c-.11-.32-.97-.11-.86.22l.43,2.58.22,1.51c0,.11.11.22.11.43s.22-.22,0-.11c-.86.86-1.83,1.61-2.69,2.37l-10.54,9.35-2.8,2.47c-.54.32.32.32.65.11h0Z"/>
    <path class="cls-17" d="M204.48,178.26l8.39-1.08,1.18-.11c.43-.11.65-.65.11-.65l-8.39,1.08-1.18.11c-.54.11-.75.75-.11.65Z"/>
    <path class="cls-9" d="M203.3,175.57l8.49-1.08,1.18-.11c.54-.11.65-.75.11-.65l-8.49,1.08-1.18.11c-.54.11-.75.75-.11.65h0Z"/>
    <path class="cls-17" d="M203.19,172.67l8.17-.97,1.18-.11c.11,0,.54-.11.54-.22s0-.11-.22-.11l-8.17.97h-1.18c-.11,0-.54.11-.54.22s0,.11.22.22h0Z"/>
    <path class="cls-9" d="M214.91,180.41c-.54.43-.86,1.18-.75,1.83.11.86.86,1.61,1.72,1.61.11,0,.22,0,.32-.11s0-.11-.11-.11c-.75,0-1.4-.65-1.51-1.4-.11-.54.11-1.18.54-1.51.11,0,.11-.11,0-.22h0c0-.22-.11-.22-.22-.11h0Z"/>
    <path class="cls-16" d="M214.69,178.8c-1.51.43-2.47,1.94-2.26,3.55.22,1.72,1.72,3.12,3.44,3.12.11,0,.43-.22.22-.22-1.61,0-3.01-1.18-3.23-2.8-.32-1.4.54-2.9,1.94-3.44.22-.11.11-.32-.11-.22h0Z"/>
    <path class="cls-16" d="M108.04,171.06c0,.97-.65,1.83-1.51,2.15-.97.22-1.83-.22-2.37-.97-.54-.86-.65-1.94-.11-2.8.43-.75,1.4-1.18,2.26-.86.97.32,1.72,1.4,1.72,2.47,0,.22.86.11.86-.22,0-1.18-.75-2.26-1.94-2.58-1.29-.32-2.58,0-3.44.97-.75.86-.97,2.15-.32,3.23.65.97,1.94,1.51,3.12,1.18,1.4-.22,2.47-1.4,2.58-2.8,0-.22-.86-.11-.86.22Z"/>
    <path class="cls-9" d="M106.32,170.95v.32c0,.11,0,0,0,0v.11l-.11.11h0s-.11,0,0,0,0,0,0,0h0c-.11,0,.11,0,0,0s0,0,0,0h-.32c.11,0,0,0,0,0l-.11-.11h0c-.11,0-.11-.11-.22-.22-.11-.11-.11-.32-.11-.43v-.32h0s0-.11.11-.11h.11-.11.11c.11,0-.11,0,0,0s0,0,0,0h.11s.11,0,0,0h.11c.11,0,.11.11.22.22.11.11.22.32.22.54,0,.11.11.11.22.11h.32c.11,0,.43-.11.43-.32,0-.43-.32-.86-.75-.97-.65-.22-1.29,0-1.72.43-.32.32-.32.86-.11,1.18.32.43.86.65,1.29.54.65-.11,1.18-.54,1.29-1.18q0-.11-.11-.11h-.32c-.22.11-.32.11-.54.22.11,0,0,0,0,0Z"/>
    <path class="cls-16" d="M119.76,179.01c.97,0,1.83.65,2.15,1.51.32.86.11,1.94-.65,2.58-.75.65-1.72.65-2.47.11-.75-.54-1.18-1.51-.97-2.47.22-1.08,1.08-1.83,2.15-1.72.22,0,.43-.11.43-.32s-.22-.22-.43-.22c-1.29,0-2.37.75-2.9,1.83-.43,1.08-.11,2.47.75,3.23.97.86,2.37.97,3.44.32,1.08-.54,1.61-1.72,1.51-2.9-.22-1.4-1.4-2.37-2.8-2.37-.22,0-.43.11-.54.22,0,0,.22.22.32.22Z"/>
    <path class="cls-9" d="M119.76,180.62h0q.11,0,0,0h.22c.11,0,0,0,0,0h0s.11,0,.11.11c.11,0,0,0,0,0h0l.11.11.11.11c0-.11,0,0,0,0v.32h0v.32h0v.11h0l-.11.11h-.11c.11-.11.11,0,0,0s-.11,0,0,0h-.32c-.11,0,0,0,0,0l-.11-.11h0l-.11-.11-.11-.11h0q0-.11-.11-.22v-.11c0-.11,0,0,0,0v-.22c0-.11,0,0,0,0v-.11h0s0-.11.11-.11-.11,0,0,0h.11c.11-.11-.11,0,0,0l.22-.11s-.22,0,0,0h.22c.11,0,.22-.11.22-.22.11-.22-.11-.32-.22-.32-.54,0-1.18.32-1.4.75-.22.43-.11.97.22,1.29.43.32,1.08.43,1.61.11.54-.22.75-.75.75-1.29-.11-.54-.54-.97-1.18-.97-.11,0-.22,0-.32.11-.11,0-.22.11-.22.22,0,.22.11.32.32.32Z"/>
    <path class="cls-16" d="M107.07,208.04c0,.97-.54,1.72-1.4,2.04-.86.32-1.83,0-2.37-.75s-.65-1.83-.11-2.58c.43-.75,1.4-1.18,2.26-.97.97.22,1.61,1.18,1.61,2.26,0,.43.86.32.86-.11,0-1.18-.75-2.37-1.83-2.8-1.18-.43-2.58-.11-3.44.86-.86.97-.97,2.26-.32,3.33s1.83,1.61,3.12,1.4c1.4-.22,2.47-1.4,2.58-2.8,0-.43-.97-.32-.97.11Z"/>
    <path class="cls-9" d="M105.46,208.15c0,.22,0,.32-.11.43l-.11.11h.11c-.11,0,.11,0,0,0s.11,0,0,0,0,0,0,0h-.22c-.11-.11-.32-.22-.32-.32-.22-.32-.22-.65,0-.97,0-.11.11-.11.11-.11l.11-.11h0c-.22.11.11,0-.11,0,0,0,.11,0,0,0,.11,0-.11,0,0,0s.11,0,0,0h.22c.11.22.32.54.32.97h.22c.22,0,.43-.11.65-.11l.11-.11c0-.43-.32-.86-.65-.97-.32-.11-.65-.11-.97,0s-.54.22-.75.43c-.32.32-.32.75-.11,1.18.32.43.86.54,1.29.43.65-.11,1.18-.43,1.29-1.08h-.43c-.11,0-.22.11-.32.11-.22-.11-.32,0-.32.11Z"/>
    <path class="cls-16" d="M114.6,215.89c1.4.11,2.47,1.29,2.37,2.69,0,.65-.32,1.18-.75,1.61-.32.32-.65.54-1.08.54s-.97-.11-1.29-.32c-.86-.54-1.29-1.51-1.18-2.47,0-1.08.86-1.94,1.94-2.04.22,0,.43,0,.54-.11s.11-.22,0-.22c-1.29-.11-2.47.54-3.12,1.72-.54,1.08-.32,2.37.65,3.23.97.75,2.37.97,3.44.32,1.08-.54,1.72-1.61,1.72-2.8-.22-1.4-1.29-2.37-2.69-2.37-.22,0-.43,0-.65.11-.11,0-.11.11.11.11Z"/>
    <path class="cls-9" d="M114.6,217.61h.22c.11,0,.11.11.22.11.11.11.22.22.32.32v.43c0,.11-.11.32-.22.43h0c-.11.11.11,0,0,0s0,0,0,0h-.11q-.11,0-.22-.11c-.32-.22-.43-.54-.43-.86-.11,0,0-.22.22-.32h0q-.11,0,0,0h0s-.11,0,0,0h0q-.11,0,0,0h0c.22,0,.43,0,.65-.11l.11-.11-.11-.11c-.65-.11-1.18.22-1.51.75-.22.43-.11.86.22,1.18.54.32,1.08.32,1.61.11.43-.22.75-.65.75-1.08-.11-.54-.54-.86-1.08-.86-.22,0-.43,0-.65.11l-.11.11h.11Z"/>
    <path class="cls-16" d="M130.94,193.53c.97,0,1.83.65,2.15,1.51.32.97.11,1.94-.65,2.58-.65.54-1.72.65-2.37.11-.75-.54-1.18-1.51-1.08-2.47,0-.97.86-1.72,1.94-1.72.22,0,.43-.11.65-.22.11-.22-.11-.32-.22-.32-1.29,0-2.47.65-3.01,1.83-.54,1.08-.22,2.37.65,3.23.97.86,2.37.97,3.44.32,1.08-.54,1.72-1.72,1.61-3.01-.22-1.4-1.4-2.37-2.8-2.47-.22,0-.43.11-.54.22-.22.22,0,.32.22.43Z"/>
    <path class="cls-9" d="M130.73,195.03h.22c.11,0,.11.11.22.11l.32.32v.43c0,.11-.11.32-.22.43h0c-.11.11,0,0,0,0h0c-.11,0,.11,0,0,0s0,0,0,0h-.11q-.11,0-.22-.11c-.32-.22-.43-.54-.43-.86,0-.11,0-.22.11-.32q0,.11.11,0h0q-.11,0,0,0h-.11c.22,0,.43,0,.65-.11l.11-.11-.11-.11c-.65,0-1.18.22-1.51.75-.22.43-.11.86.22,1.18.54.32,1.18.32,1.61.11s.75-.65.65-1.08c-.11-.54-.65-.97-1.18-.86-.11,0-.32.11-.43.11l-.11.11h.22Z"/>
    <path class="cls-16" d="M130.94,170.41c.97,0,1.83.65,2.15,1.61s.11,1.94-.65,2.58c-.65.54-1.72.65-2.37.11-.86-.54-1.18-1.51-1.08-2.47,0-.97.86-1.83,1.94-1.83.22,0,.43-.11.65-.22.11-.22-.11-.32-.22-.32-1.29,0-2.47.65-3.01,1.83-.54,1.08-.22,2.47.65,3.23.97.75,2.37.97,3.44.32,1.08-.54,1.72-1.72,1.61-2.9-.22-1.4-1.4-2.37-2.8-2.37-.22,0-.43.11-.54.22-.22.11,0,.22.22.22Z"/>
    <path class="cls-9" d="M130.83,172.13s.11,0,0,0h0c.11,0,.22,0,.11,0h.22l.22.22h0s0,.11,0,0v.11c.11.11.11.32,0,.43v.11c0,.11,0,0,0,0h0s0,.11-.11.11c0,.11,0,0,0,0l-.11.11h.11c.11-.11.11,0,0,0s0,0,0,0c0,0-.11,0,0,0s-.11,0-.11,0h0s-.11,0,0,0h0l-.11-.11c-.11,0,0,0,0,0h0l-.11-.11-.11-.11h0v-.11c-.11-.11-.11-.32-.11-.43v-.11h0l.11-.11h.11s.11,0,0,0h.11c.11,0-.11,0,0,0h.11c.22,0,.43-.11.54-.22.11-.22-.11-.22-.22-.22-.54,0-1.18.32-1.4.86-.22.43-.11.97.22,1.18.86.65,2.47.11,2.37-1.08-.11-.54-.54-.97-1.18-.97-.22,0-.43.11-.54.22-.43.11-.22.11-.11.22Z"/>
    <path class="cls-16" d="M128.04,150.84c.97,0,1.83.65,2.15,1.61s.11,1.94-.65,2.58c-.65.54-1.72.65-2.37.11-.86-.54-1.29-1.51-1.08-2.47,0-1.08.86-1.83,1.94-1.83.22,0,.43-.11.65-.22.11-.22-.11-.32-.22-.32-1.29,0-2.47.65-3.01,1.83-.54,1.08-.22,2.47.65,3.23.97.75,2.37.97,3.44.32,1.08-.54,1.72-1.72,1.61-2.9-.22-1.4-1.4-2.37-2.8-2.37-.22,0-.43.11-.54.22-.22.11,0,.22.22.22Z"/>
    <path class="cls-9" d="M127.82,152.46c.11,0,0,0,0,0h0l.32.11c.11.11.22.22.32.43v.54c0,.11-.11.32-.22.43v.11h-.11s.11,0,0,0h.11-.11l-.22-.11c-.32-.22-.43-.54-.43-.86,0-.22.11-.32.22-.43l.11-.22c.11,0,0,0,0,0q.11,0,0,0h0c-.11,0,0,0,0,0q-.11,0,0,0h0c.11.11.32,0,.54-.11l.11-.11h-.11c-.43,0-.75.11-1.08.32-.22.11-.32.22-.43.43-.22.43-.11.86.22,1.18.54.32,1.18.32,1.61,0,.43-.22.75-.65.75-1.08,0-.22-.11-.43-.32-.65-.22-.22-.43-.32-.75-.22-.22,0-.43.11-.65.11l-.11.11h.22Z"/>
    <path class="cls-16" d="M129.97,213.41c.97,0,1.83.65,2.15,1.61s.11,1.94-.65,2.58c-.65.54-1.72.65-2.37.11-.86-.54-1.18-1.51-1.08-2.47.11-.97.97-1.83,1.94-1.83.22,0,.43-.11.65-.22.11-.22-.11-.22-.22-.22-1.29,0-2.47.65-3.01,1.83-.54,1.08-.22,2.47.65,3.23.97.75,2.37.86,3.44.32s1.72-1.72,1.61-2.9c-.22-1.4-1.4-2.37-2.8-2.37-.22,0-.43.11-.54.22-.22,0,0,.11.22.11Z"/>
    <path class="cls-9" d="M129.87,215.14h.22s-.11,0,0,0l.11.11h0l.11.11.11.11h0v.32s0,.11,0,0v.22s0,.11,0,0h0l-.11.11s0,.11,0,0,0,0,0,0h0l-.11.11h-.11.11-.11c.11,0,0,0,0,0h-.11s.11,0,0,0h-.11c-.11,0,.11,0,0,0h-.11l-.11-.11c.11,0,0,0,0,0l-.11-.11h0q0-.11-.11-.22v-.11c0,.11,0,0,0,0v-.22s0-.11,0,0l.11-.11h0l.11-.11h0l.22-.11s-.11,0,0,0h0s-.11,0,0,0h0c.11,0,0,0,0,0q.22,0,0,0c.22.11.32,0,.43,0s.22-.11.22-.22c.11-.22-.11-.32-.22-.32-.54,0-1.18.32-1.4.75s-.11.97.32,1.29c.65.54,1.51.43,2.04-.22.22-.22.32-.54.32-.86-.11-.54-.65-.97-1.18-.97h-.32c-.11,0-.22.11-.22.22-.32.11-.11.32,0,.32Z"/>
    <path class="cls-16" d="M106.21,244.81c0,.97-.65,1.83-1.51,2.15-.97.22-1.83-.22-2.37-.97-.54-.86-.65-1.94-.11-2.8.43-.75,1.4-1.18,2.26-.86,1.08.32,1.72,1.29,1.72,2.47,0,.22.86,0,.86-.22,0-1.18-.75-2.26-1.94-2.58-1.29-.32-2.58,0-3.44.97-.75.86-.97,2.26-.32,3.23s1.94,1.51,3.12,1.18c1.4-.22,2.47-1.4,2.58-2.8,0-.22-.86-.11-.86.22Z"/>
    <path class="cls-9" d="M104.49,244.7v.22c0-.11,0,0,0,0v.11h0s0,.11-.11.11,0,0,0,0h-.11c.11,0-.11,0,0,0h-.11s.11,0,0,0h-.22s.11,0,0,0l-.11-.11h0l-.11-.11-.11-.11h0v-.22h0v-.43h0s0-.11.11-.11h0c0,.11,0,0,0,0l.11-.11s-.11.11,0,0h0s.11,0,0,0h.22s-.11,0,0,0h0c.11,0-.11,0,0,0h.22l.11.11.11.11c0,.11,0-.11,0,0v.22h0c0,.22.22.32.43.22.11,0,.22-.11.32-.11q.11-.11.11-.22c0-.54-.32-.97-.75-1.08-.54-.22-1.18,0-1.61.43-.32.32-.43.86-.11,1.29s.86.65,1.4.54c.65-.11,1.08-.54,1.18-1.18,0-.22-.22-.22-.43-.22-.11,0-.22,0-.32.11-.11.32-.22.43-.22.54Z"/>
    <path class="cls-16" d="M126.43,245.24c0,.97-.65,1.83-1.51,2.15-.97.22-1.83-.22-2.37-.97-.54-.86-.65-1.83-.11-2.69.43-.75,1.4-1.18,2.26-.97,1.08.43,1.72,1.4,1.72,2.47,0,.22.86.11.86-.22,0-1.18-.75-2.26-1.83-2.58-1.29-.32-2.58,0-3.44.97-.75.86-.97,2.15-.32,3.23.65.97,1.94,1.51,3.12,1.18,1.4-.22,2.47-1.4,2.58-2.8-.11-.11-.97,0-.97.22Z"/>
    <path class="cls-9" d="M124.81,245.13v.22c0-.11,0,0,0,.11v.11h0l-.11.11h-.11c.11,0-.11,0,0,0h-.11s.11,0,0,0h-.22s.11,0,0,0l-.11-.11h0l-.11-.11-.11-.11c0-.11,0,0,0,0v-.22h0v-.43c0-.11,0,0,0,0l.11-.11s0-.11,0,0,0,0,0,0l.11-.11s-.11.11,0,0h.22s-.11,0,0,0h0c.11,0-.11,0,0,0s.11,0,.11.11h.11l.11.11.11.11c0,.11,0-.11,0,0v.32h0c0,.22.22.22.43.22.11,0,.22-.11.32-.11q.11-.11.11-.22c0-.43-.32-.86-.75-1.08-.54-.22-1.18,0-1.61.43-.32.32-.43.97-.11,1.4.32.43.86.65,1.4.54.65-.11,1.08-.54,1.18-1.18,0-.22-.22-.32-.43-.22-.11,0-.22,0-.32.11q-.22,0-.22.11Z"/>
    <path class="cls-16" d="M113.85,252.66c.97,0,1.83.65,2.15,1.61s.11,1.94-.65,2.58c-.65.54-1.72.65-2.37.11-.75-.54-1.18-1.51-1.08-2.47,0-.97.86-1.83,1.94-1.83.22,0,.43-.11.65-.22.11-.22-.11-.32-.22-.32-1.29,0-2.47.65-3.01,1.83-.54,1.08-.22,2.47.75,3.23.97.75,2.37.97,3.44.32,1.08-.54,1.72-1.72,1.61-2.9-.22-1.4-1.4-2.37-2.8-2.37-.22,0-.43.11-.54.22-.32.11-.11.22.11.22Z"/>
    <path class="cls-9" d="M113.63,254.27h.22c.22.11.43.22.43.43v.43c0,.11-.11.32-.22.43h0s.11,0,0,0h0c-.11,0,.11,0,0,0s0,0,0,0h0c-.11,0,0,0,0,0h0c-.11,0,0,0,0,0h0q-.11,0-.22-.11c-.32-.22-.43-.54-.43-.86.11-.11.22-.22.22-.32h0q.11-.11,0,0l.11-.11h0s-.11,0,0,0l-.11.11h0c.32,0,.54-.11.65-.22l.11-.11s-.11-.11-.22-.11c-.65,0-1.18.22-1.51.75-.22.43-.11.86.22,1.18.54.32,1.18.32,1.61.11s.75-.65.75-1.08c-.11-.54-.54-.86-1.08-.86-.22,0-.43.11-.65.22l-.11.11h.22Z"/>
    <path class="cls-16" d="M114.17,232.34c.97.11,1.83.75,2.15,1.61.32.97.11,2.04-.54,2.69-.32.32-.65.54-1.08.54s-.97-.11-1.4-.43c-.86-.54-1.29-1.51-1.18-2.47.11-.97.97-1.83,2.04-1.94.11,0,.32,0,.54-.11q.11-.11,0-.11c-1.29-.11-2.47.54-3.12,1.61-.54,1.08-.32,2.37.65,3.23.97.75,2.37.86,3.44.32,1.08-.43,1.72-1.61,1.72-2.8-.22-1.4-1.29-2.37-2.69-2.37-.22,0-.43,0-.65.11,0,0,0,.11.11.11Z"/>
    <path class="cls-9" d="M114.28,234.06h0q.11,0,0,0h.22c.11,0-.11,0,0,0h0l.11.11c.11,0,0,0,0,0h0l.11.11.11.11h0v.32h0v.32s0-.11,0,0v.22h0l-.11.11s.11,0,0,0h-.32s-.11,0,0,0h-.11c-.11,0,0,0,0,0,0,0-.11,0-.11-.11h0l-.11-.11-.11-.11h0c0-.11-.11-.11-.11-.22v-.11c0-.11,0,0,0,0v-.22c0,.11,0,0,0,0v-.11h0s0-.11.11-.11-.11,0,0,0h0c.11-.11-.11,0,0,0h.11c.11,0-.11,0,0,0h0c.11,0,.22,0,.32-.11.11,0,.22-.11.22-.22.11-.22-.11-.32-.22-.32-.54,0-1.18.22-1.4.75-.22.43-.11.97.22,1.29.43.32,1.08.43,1.61.11.54-.22.75-.75.75-1.29-.11-.54-.54-.97-1.18-.97-.11,0-.22,0-.32.11-.11,0-.22.11-.22.22.11.11.22.22.43.22Z"/>
    <path class="cls-16" d="M105.25,281.79c0,.97-.54,1.72-1.4,2.15-.86.32-1.83-.11-2.37-.86-.54-.75-.65-1.83-.11-2.69.43-.75,1.29-1.18,2.15-.97.97.22,1.72,1.29,1.72,2.37,0,.43.86.22.86-.11,0-1.18-.75-2.26-1.83-2.69-1.18-.43-2.58-.11-3.44.86-.86.86-.97,2.26-.32,3.33.65,1.08,1.94,1.61,3.12,1.4,1.4-.22,2.47-1.4,2.58-2.8-.11-.54-.97-.32-.97,0Z"/>
    <path class="cls-9" d="M103.63,281.79v.22q0,.11-.11.22l-.11.11h0c-.11,0,.11,0,0,0h-.32c-.11,0-.11-.11-.22-.22s-.11-.32-.22-.43v-.32h0l.11-.11h0c0-.11-.11,0,0,0h0c.11,0,0,0,0,0h0c.11,0-.11,0,0,0h.11c.11,0,0,0,0,0h.11c.11,0,.11.11.22.22s.11.32.11.54c0,.11.11.11.22.11h.32c.11,0,.32-.11.32-.32,0-.43-.32-.86-.75-.97-.65-.22-1.29,0-1.72.43-.32.32-.32.86-.11,1.18.32.43.86.65,1.29.54.65-.11,1.18-.54,1.29-1.18q0-.11-.11-.11h-.32c.11,0,0,0-.11.11,0,0,0-.11,0,0Z"/>
    <path class="cls-16" d="M125.57,282.33c0,.97-.54,1.83-1.4,2.15-.86.22-1.83-.11-2.37-.86-.54-.75-.65-1.83-.11-2.69.43-.75,1.29-1.18,2.15-.97.86.22,1.61,1.18,1.72,2.37,0,.32.86.22.86-.11,0-1.18-.75-2.26-1.83-2.69-1.18-.43-2.58-.11-3.44.86-.86.86-.97,2.15-.32,3.23s1.83,1.61,3.01,1.29c1.4-.22,2.47-1.4,2.58-2.8,0-.32-.86-.11-.86.22Z"/>
    <path class="cls-9" d="M123.85,282.33c0,.22-.11.32-.22.43l-.11.11h-.11.11c-.11,0,.11,0,0,0s0,0,0,0h-.22c-.11-.11-.32-.22-.32-.32-.22-.32-.22-.65,0-.97,0-.11.11-.11.11-.11h0s-.11,0,0,0c-.22.11.11,0-.11,0h.11c.32.11.54.43.54.86,0,0,.11,0,.11.11h.32c.11,0,.22-.11.32-.11,0,0,.11,0,.11-.11,0-.43-.32-.86-.75-.97-.32-.11-.65-.11-.86,0-.32.11-.54.22-.75.43-.32.32-.32.75-.11,1.18.32.43.86.54,1.29.43.65,0,1.18-.54,1.29-1.18h-.43c-.11,0-.22.11-.32.11s0,0,0,.11Z"/>
    <path class="cls-16" d="M112.88,289.64c.97,0,1.83.65,2.15,1.61s.11,1.94-.65,2.69c-.65.54-1.72.65-2.37.11-.75-.54-1.18-1.51-1.08-2.47.11-1.08.97-1.83,1.94-1.94.22,0,.43-.11.65-.22.11-.22-.11-.22-.22-.22-1.29,0-2.47.65-3.01,1.72s-.22,2.47.65,3.23c.97.75,2.37.86,3.55.32,1.4-.65,2.04-2.26,1.4-3.66-.43-.97-1.51-1.61-2.58-1.61-.22,0-.43.11-.54.22-.22.22,0,.22.11.22Z"/>
    <path class="cls-9" d="M112.88,291.47h.22c.11,0,0,0,0,0l.11.11h0l.11.11s0,.11.11.11c0,.11,0,0,0,0v.22h0s0,.11,0,0v.22s0-.11,0,0h0l-.11.11s0-.11,0,0h0c0,.11.11,0,0,0v.32h.11c-.11,0,.11,0,0,0h-.11c.11,0,0,0,0,0h0c-.11,0,.11,0,0,0h-.22l-.11-.11h0l-.11-.11h0c0-.11,0,0,0,0,0,0,0-.11-.11-.22v-.22h0v-.11h0v-.11h0c0-.11-.11,0,0,0h.11s.11,0,0,0h.22c.22,0,.43-.11.43-.32s-.22-.32-.43-.32c-.54,0-1.08.32-1.29.86-.22.43-.11.97.32,1.29.43.32,1.08.43,1.51.11.54-.22.75-.75.75-1.29-.11-.54-.65-.97-1.18-.97-.11,0-.22,0-.32.11-.11,0-.22.11-.22.22,0,0,.11,0,.22,0Z"/>
    <path class="cls-16" d="M113.42,269.43c.97,0,1.83.65,2.15,1.61s.11,1.94-.65,2.58c-.65.54-1.72.65-2.37.11-.86-.54-1.29-1.51-1.08-2.47.11-.97.97-1.72,1.94-1.83.32,0,.43-.11.65-.22.11-.22-.11-.32-.22-.32-1.29,0-2.47.65-3.01,1.83-.54,1.08-.22,2.37.65,3.23.97.75,2.37.97,3.44.32,1.08-.54,1.72-1.72,1.61-2.9-.22-1.4-1.4-2.37-2.8-2.37-.22,0-.43.11-.54.22-.11.11,0,.22.22.22Z"/>
    <path class="cls-9" d="M113.42,271.15h.11s.11,0,0,0h.22l.11.11.11.11c0,.11,0,0,0,0v.22h0c0,.11,0-.11,0,0v.22h0s0,.11,0,0,0,0,0,0h0l-.11.11c.11-.11,0,0,0,0h0c-.11,0,.11,0,0,0h-.22l-.43.32h0l-.11-.11h0c0-.11,0,0,0,0,0-.11-.11-.11-.11-.22s0,.11,0,0h0v-.11s0-.11,0,0,0,0,0,0c0,0,0-.11.11-.11s0,.11,0,0v-.11h.32c.22,0,.43-.11.43-.32s-.22-.32-.43-.32c-.54,0-1.08.32-1.29.86-.22.43-.11.97.32,1.29.43.32,1.08.43,1.51.11.54-.22.75-.75.75-1.29-.11-.54-.54-.97-1.18-.97-.11,0-.22,0-.32.11-.11,0-.22.11-.22.22.11-.11.22,0,.43-.11Z"/>
    <path class="cls-16" d="M94.39,222.88c0,.97-.54,1.72-1.4,2.04-.86.32-1.83,0-2.37-.86-.54-.75-.65-1.83-.11-2.69.43-.75,1.4-1.18,2.26-.97.97.54,1.61,1.4,1.61,2.47,0,.43.86.32.86-.11,0-1.18-.75-2.37-1.83-2.8-1.18-.43-2.58-.11-3.44.86-.86.97-.97,2.26-.32,3.33s1.83,1.61,3.12,1.4c1.4-.22,2.47-1.4,2.58-2.8-.11-.32-.97-.22-.97.11Z"/>
    <path class="cls-9" d="M92.78,222.88v.22c0,.11,0,0,0,0v.22c0,.11,0-.11,0,0l-.11.11h0c-.11,0,.11,0,0,0h0s-.22,0-.11,0,0,0-.11,0h0s-.11,0,0,0h-.22l-.11-.11s-.11,0-.11-.11c.11.11,0,0,0,0v-.11s0-.11-.11-.11c0-.11,0,0,0,0v-.22h0v-.11h0l.11-.11c0-.11,0,0,0,0h0l.11-.11h.11s.11,0,0,0h.11q-.11,0,0,0h.11c.11,0-.11,0,0,0h.11c.11,0,0,0,0,0h.22l.11.11h0v.11l.11.11c0,.11,0-.11,0,0v.22h0v.11c0,.22.22.32.43.32s.43-.11.43-.32c0-.65-.43-1.18-1.08-1.18-.54-.22-1.18,0-1.61.43-.32.43-.43.97-.11,1.4.32.43.86.65,1.4.54.65-.11,1.08-.54,1.18-1.18,0-.22-.22-.32-.43-.32s-.43-.11-.43.11Z"/>
    <path class="cls-16" d="M81.81,230.4c.97,0,1.83.65,2.15,1.61s.11,1.94-.65,2.58c-.65.54-1.72.65-2.37.11-.75-.54-1.18-1.51-1.08-2.47,0-1.08.86-1.83,1.94-1.83.22,0,.43-.11.65-.22.11-.22-.11-.22-.22-.22-1.29,0-2.47.65-3.01,1.72s-.22,2.47.75,3.23c.97.75,2.37.97,3.44.32,1.08-.54,1.72-1.72,1.61-2.9-.22-1.4-1.4-2.37-2.8-2.37-.22,0-.43.11-.54.22-.22.11-.11.22.11.22Z"/>
    <path class="cls-9" d="M81.7,232.01h0c.22,0,.11,0,0,0h.22l.11.11h0l.11.11.11.11h0v.32h0v.32s0-.11,0,0c0,0,0,.11-.11.11v.11s0-.11,0,0l-.11.11s.11,0,0,0h-.11s-.11,0,0,0h0s-.11,0,0,0h0s-.11,0,0,0h-.11c.11.11,0,0,0,0h-.11s-.11,0,0,0l-.11-.11-.11-.11h0l-.11-.22h0c0-.11,0,0,0,0v-.22c0,.11,0,0,0,0v-.22h0l.11-.11h.11c.11-.11-.11,0,0,0h.11c.11,0-.11,0,0,0s.11,0,0,0,.22,0,.11,0c.11,0,.22,0,.32-.11.11,0,.22-.11.22-.22.11-.22-.11-.32-.22-.32-.54,0-1.18.32-1.4.75-.22.43-.11.97.22,1.29.43.32,1.08.43,1.61.11.54-.32.75-.97.54-1.51-.11-.54-.54-.97-1.18-.97-.11,0-.22,0-.32.11-.11,0-.22.11-.22.22,0,.22.22.32.32.32Z"/>
    <path class="cls-16" d="M82.24,210.08c.97,0,1.83.65,2.15,1.61s.11,1.94-.65,2.69c-.65.54-1.72.65-2.37.11-.86-.54-1.18-1.51-1.08-2.47.11-1.08.97-1.94,1.94-1.94.22,0,.43-.11.65-.22.11-.11-.11-.22-.22-.22-1.29-.11-2.47.65-3.01,1.72-.54,1.08-.22,2.47.65,3.23.97.75,2.37.86,3.44.32s1.72-1.72,1.51-2.9c-.22-1.4-1.4-2.37-2.8-2.37-.22,0-.43.11-.54.22,0,.22.22.22.32.22Z"/>
    <path class="cls-9" d="M82.24,211.8h.22l.11.11h0l.11.11.11.11h0v.54s0,.11,0,0h0v.11h0c0-.11,0,0,0,0h0s-.11,0-.11.11h-.22c.11,0,0,0,0,0h-.11s.11,0,0,0h-.11c-.11,0,.11,0,0,0h0l-.11-.11c.11,0,0,0,0,0l-.11-.11h0c0-.11-.11-.11-.11-.22v-.11c0,.11,0,0,0,0v-.22s0-.11,0,0v-.11h0l.11-.11h0c.11,0-.11,0,0,0l.22-.11q-.11.11,0,0h0c.11.11.22.11.32,0,.11,0,.22-.11.22-.22s0-.32-.11-.32h-.11c-.54,0-1.18.32-1.4.75-.22.43-.11.97.32,1.29s1.08.43,1.61.11c.43-.22.75-.75.75-1.29-.11-.54-.54-.97-1.18-.97-.11,0-.22,0-.32.11-.11,0-.22.11-.22.22-.22.22-.11.32.11.32Z"/>
    <path class="cls-16" d="M93.53,259.64c0,.97-.65,1.83-1.51,2.15-.97.22-1.94-.22-2.37-1.08-.54-.86-.54-1.94-.11-2.8.22-.43.65-.75,1.08-.97.43-.11.86-.11,1.18,0,1.08.43,1.83,1.51,1.72,2.69.11,0,.97-.11.97-.32,0-1.18-.75-2.26-1.94-2.58-1.18-.32-2.58,0-3.44.97-.86.86-.97,2.26-.32,3.23s1.94,1.51,3.12,1.18c1.4-.22,2.47-1.29,2.58-2.69-.11-.11-.97,0-.97.22Z"/>
    <path class="cls-9" d="M91.81,259.54v.32h0l-.11.11s0,.11,0,0h0l-.11.11s.11,0,0,0h0c.11,0,0,0,0,0,0,0,.11,0,0,0h-.11c-.11,0,.11,0,0,0h-.11l-.11-.11c.11,0,0,0,0,0h0l-.11-.11h0s0-.11,0,0v-.75c0-.11,0,0,0,0v-.11s0-.11.11-.11,0,0,0,0h0s.11,0,0,0h0c-.11.11-.11,0,0,0s0,0,0,0h.11c.11,0,0,0,0,0h.11c.11,0,0,0,0,0h.22c-.11,0,0,0,0,0l.11.11h0l.11.11.11.11v.11s0,.11,0,0v.11l-.22.11h0c0,.22.22.22.43.22.11,0,.22-.11.32-.11,0,0,.11-.11.11-.22,0-.22,0-.43-.22-.65-.11-.22-.32-.32-.54-.43-.54-.22-1.18,0-1.61.43-.32.32-.43.86-.22,1.29.32.43.75.65,1.29.54.65-.11,1.18-.54,1.18-1.18,0-.22-.22-.22-.32-.22s-.22.11-.32.11c0,.11-.11.11-.11.22Z"/>
    <path class="cls-16" d="M80.84,267.06c.97,0,1.83.65,2.15,1.51.32.86.11,1.94-.65,2.58-.65.54-1.72.65-2.47.11-.86-.54-1.18-1.51-1.08-2.37.22-1.08,1.08-1.83,2.04-1.83.22,0,.54-.11.65-.22.11-.22-.11-.32-.22-.32-1.29,0-2.47.65-3.01,1.83-.54,1.08-.22,2.37.75,3.23.97.86,2.37.97,3.44.32,1.08-.54,1.72-1.72,1.61-3.01-.22-1.4-1.4-2.37-2.8-2.47-.22,0-.43.11-.54.22-.22.22,0,.43.11.43Z"/>
    <path class="cls-9" d="M80.84,268.78h.32l.11.11h0l.11.11.11.11h0v.32q0,.11,0,0v.22s0,.11,0,0h0v.11h0s-.11,0-.11.11h-.11s-.11,0,0,0h-.11c.11,0,0,0,0,0h-.22s.11,0,0,0h-.11c-.11,0,.11,0,0,0h-.11l-.11-.11h0l-.11-.11h0q0-.11-.11-.22h0v-.22s0-.11,0,0l.11-.11h0s.11,0,.11-.11h.11c.11,0-.11,0,0,0h.11q-.11,0,0,0h.11c.11,0,.22,0,.32-.11.11,0,.22-.11.22-.22s0-.32-.11-.32h-.11c-.54,0-1.18.32-1.4.75-.22.43-.11.97.32,1.29.43.32,1.08.43,1.61.11.54-.22.75-.75.75-1.29-.11-.54-.54-.97-1.18-.97-.11,0-.22,0-.32.11-.11,0-.22.11-.22.22-.32,0-.22.11,0,.21Z"/>
    <path class="cls-16" d="M81.38,246.85c.97,0,1.83.65,2.15,1.51.32.86.11,1.94-.65,2.47s-1.72.65-2.47.11c-.75-.54-1.18-1.51-.97-2.37.22-1.08,1.08-1.72,2.15-1.72.22,0,.43-.11.43-.32s-.22-.32-.43-.32c-1.29,0-2.37.75-2.9,1.94-.43,1.18-.11,2.47.75,3.23.97.86,2.37.97,3.44.32,1.08-.54,1.72-1.83,1.61-3.01-.22-1.4-1.4-2.37-2.8-2.47-.22,0-.43.11-.54.22-.11.11,0,.32.22.43h0Z"/>
    <path class="cls-9" d="M81.27,248.46h.11s-.11,0,0,0h.22c.11.11.22.22.22.32v.54s0,.11,0,0h0l-.11.11h0c-.11.11.11,0,0,0h0c-.11,0,.11,0,0,0h.11-.22c-.11,0,0,0,0,0h0l-.11-.11h0l-.11-.11c0-.11-.11-.11-.11-.22-.11-.11-.11-.32-.11-.43l.11-.11h0q.11,0,0,0h0q.11,0,0,0h.11-.11c.32,0,.54-.11.65-.22.11-.22-.11-.22-.22-.22-.65,0-1.18.32-1.4.86-.22.43-.11.86.22,1.18.86.65,2.47.11,2.37-1.08,0-.22-.11-.43-.32-.65-.22-.22-.54-.32-.86-.32-.22,0-.43.11-.54.22-.22.11,0,.22.11.22Z"/>
    <path class="cls-16" d="M92.56,296.63c0,.97-.54,1.72-1.4,2.04s-1.83,0-2.37-.75-.65-1.83-.11-2.69c.43-.75,1.29-1.08,2.15-.97.97.32,1.72,1.29,1.72,2.37,0,.43.86.32.86-.11,0-1.18-.75-2.26-1.83-2.69-1.18-.43-2.58-.11-3.44.86-.86.97-.97,2.26-.32,3.33s1.94,1.61,3.12,1.4c1.4-.22,2.47-1.4,2.58-2.8,0-.54-.97-.43-.97,0Z"/>
    <path class="cls-9" d="M90.95,296.63c0,.11,0,.32-.11.43,0,0-.11.11,0,0l-.11.11h-.11c.11,0,0,0,0,0,0,0,.11,0,0,0h-.11s.11,0,0,0h-.11c-.11,0,.11,0,0,0h-.22c-.11,0-.11-.11-.22-.22s-.11-.32-.11-.43v-.32s0-.11,0,0v-.11l.11-.11s0-.11,0,0h0c.11,0,0,0,0,0h.11-.11.22c.11,0,0,0,0,0h.11l.11.11h0l.11.11.11.11c0,.11.11.11.11.22v.22q0,.11.11.11h.32c.11,0,.22-.11.32-.11,0,0,.22-.11.22-.22,0-.43-.22-.86-.75-1.08-.65-.22-1.29,0-1.72.43-.32.32-.43.86-.11,1.29.32.43.75.65,1.29.54.65-.11,1.18-.54,1.29-1.18,0-.22-.22-.22-.32-.22s-.22.11-.32.11c-.32,0-.11.11-.11.22Z"/>
    <path class="cls-16" d="M80.3,283.73c.97,0,1.83.65,2.26,1.61.32.97.11,1.94-.65,2.69-.65.65-1.72.65-2.47.11-.86-.54-1.18-1.51-1.08-2.47.11-1.08.97-1.83,2.04-1.94.22,0,.43-.11.54-.22s-.11-.22-.22-.22c-1.29-.11-2.47.65-3.01,1.72s-.22,2.37.65,3.12c1.94,1.72,5.38.11,5.16-2.47-.22-1.29-1.29-2.37-2.58-2.37-.22,0-.43,0-.65.11-.11.22-.11.32,0,.32Z"/>
    <path class="cls-9" d="M80.41,285.45c-.11,0,0,0,0,0,.11,0,0,0,0,0h.22c.11,0,0,0,0,0h0c.11.11.22.22.22.32v.65h0l-.11.11h0c0,.11,0,0,0,0h.11-.32c-.32-.22-.43-.54-.32-.86,0-.11,0-.22.11-.22h0v-.11h0l.11.11s-.22,0,0,0h0c.11,0,.32-.11.43-.22s-.11-.22-.22-.22c-.65,0-1.18.32-1.4.75-.22.43-.11.86.22,1.18.54.32,1.18.32,1.61.11.43-.22.75-.65.65-1.18,0-.22-.11-.43-.32-.65-.22-.22-.54-.32-.75-.32s-.43.11-.54.22c0,.32.22.32.32.32Z"/>
    <g class="cls-8">
      <path class="cls-16" d="M195.56,182.02c.97.11,1.83.65,2.15,1.61s.11,2.04-.65,2.69c-.65.65-1.72.65-2.37.11-.86-.54-1.18-1.51-1.08-2.47.11-.97.97-1.83,1.94-1.94.22,0,.43-.11.65-.22.11-.11-.11-.22-.22-.22-1.29,0-2.47.65-3.01,1.83-.54,1.08-.22,2.37.75,3.12,1.94,1.61,5.38,0,5.05-2.58-.22-1.4-1.4-2.37-2.8-2.26-.22,0-.43.11-.54.22-.22.11,0,.11.11.11Z"/>
      <path class="cls-9" d="M195.45,183.74h.22c.11,0,.11.11.22.11.11.11.22.22.32.43.11.32,0,.65-.11.86h-.11s.11,0,0,0-.11,0,0,0,0,0,0,0c0,0-.11,0,0,0h-.11q-.11,0-.22-.11c-.32-.22-.43-.54-.43-.86,0-.11,0-.22.11-.32,0,0,.11-.11.11-.11h0s.11,0,0,0h0c.22,0,.32,0,.43-.11.11,0,.22-.11.22-.11.11-.11-.11-.11-.22-.11-.54,0-1.18.32-1.51.75-.22.43-.11.86.22,1.18.54.32,1.18.32,1.61,0,.43-.22.75-.65.65-1.08-.11-.54-.54-.86-1.08-.86-.22,0-.43,0-.65.11l-.11.11.43.11Z"/>
      <path class="cls-16" d="M192.76,161.92c.97,0,1.72.65,2.04,1.51.32.86.11,1.94-.65,2.58-.65.54-1.72.65-2.47.11-.86-.54-1.18-1.51-1.08-2.37.22-1.08,1.08-1.83,2.15-1.83.22,0,.43-.11.54-.32s-.22-.32-.43-.32c-1.29,0-2.37.75-2.9,1.94-.43,1.18-.11,2.47.86,3.23.97.75,2.37.86,3.44.22,1.4-.75,1.83-2.58,1.08-3.98-.54-.86-1.51-1.4-2.47-1.4-.22,0-.43.11-.43.32-.11.32.11.32.32.32Z"/>
      <path class="cls-9" d="M192.55,163.64h.22s.11,0,.11.11h0l.11.11s0,.11.11.11c0,.11,0,0,0,0v.32h0v.32h0s0,.11-.11.11v.11h0l-.11.11h-.11.11c.11-.11.11,0,0,0h-.11q.11,0,0,0h-.22l-.11-.11c.11,0,0,0,0,0l-.11-.11h0q0-.11-.11-.22v-.11c0-.11,0,0,0,0v-.22c0-.11,0,0,0,0v-.11h0s0-.11.11-.11h.32c.11,0,.22,0,.32-.11.11,0,.22-.11.22-.22.11-.22-.11-.32-.22-.32-.54,0-1.18.32-1.4.86-.22.43-.11.97.32,1.29.86.75,2.47,0,2.26-1.18-.11-.54-.65-.97-1.18-.97-.11,0-.22,0-.32.11-.11,0-.22.11-.22.22-.22-.22,0,0,.11,0Z"/>
      <path class="cls-16" d="M204.59,211.59c0,.97-.54,1.83-1.4,2.15s-1.83,0-2.37-.75c-.65-.75-.65-1.83-.22-2.69.43-.75,1.29-1.18,2.15-.97,1.08.22,1.83,1.18,1.83,2.26,0,.43.86.22.86-.11,0-1.18-.75-2.37-1.94-2.69-1.18-.43-2.58-.11-3.44.86-.75.86-.97,2.26-.32,3.33.65,1.08,1.94,1.61,3.12,1.29,1.4-.22,2.47-1.4,2.58-2.8,0-.43-.86-.22-.86.11Z"/>
      <path class="cls-9" d="M202.87,211.59c0,.22-.11.32-.11.43s-.11.11-.11.11c.11-.11,0,0,0,0,0,0,.11,0,0,0s.11,0,0,0h-.22l-.11-.11c-.11,0-.11-.11-.22-.22-.22-.32-.22-.65,0-.97,0-.11.11-.11.11-.11h0s-.11,0,0,0-.11,0,0,0-.11,0,0,0c-.11,0,0,0,0,0,0,0-.11,0,0,0s.11,0,0,0h.11l.22.11c.11,0,.11.11.22.22s.22.32.22.54c0,0,.11,0,.11.11h.32c.11,0,.22-.11.32-.11l.11-.11c0-.43-.32-.86-.75-.97-.32-.11-.65-.11-.97,0-.32.11-.54.22-.75.43-.32.32-.32.86-.11,1.18.32.43.86.54,1.4.43.65-.11,1.18-.54,1.18-1.18l-.11-.11h-.32c-.11,0-.22.11-.32.11q-.11.22-.22.22Z"/>
      <path class="cls-16" d="M192.01,219.22c.97,0,1.83.65,2.15,1.51.32.86.11,1.94-.65,2.58-.65.54-1.61.65-2.37.22-.75-.54-1.18-1.51-1.08-2.37.22-1.08.97-1.83,1.94-1.94.22,0,.54-.11.65-.22s-.11-.32-.22-.32c-1.29,0-2.47.65-3.01,1.83-.43,1.08-.22,2.47.75,3.23s2.37.97,3.44.32c1.08-.54,1.72-1.72,1.61-3.01-.22-1.4-1.4-2.37-2.8-2.37-.22,0-.43,0-.54.22s0,.32.11.32Z"/>
      <path class="cls-9" d="M192.01,220.94h.22s.11,0,0,0h0l.11.11h0s.11,0,.11.11l.11.11h0v.32h0v.32h0s0,.11-.11.11v.11h0l-.11.11h-.11c.11-.11.11,0,0,0h0c.11-.11.11,0,0,0h-.11q.11,0,0,0t0,0h-.11s.11,0,0,0h-.22l-.11-.11c.11,0,0,0,0-.11l-.11-.11h0c0-.11-.11-.11-.11-.22v-.11c0-.11,0,0,0,0v-.22c0,.11,0,0,0,0v-.11h0l.11-.11h.32c.11,0,.22,0,.32-.11.11,0,.22-.11.22-.22.11-.22-.11-.32-.22-.32-.54,0-1.18.32-1.4.86-.22.43-.11.97.32,1.29.65.43,1.51.32,2.04-.22.22-.22.32-.54.32-.86-.11-.54-.65-.97-1.18-.97-.11,0-.22,0-.32.11-.11,0-.22.11-.22.22-.11-.22.11,0,.22,0Z"/>
      <path class="cls-16" d="M192.22,199.01c.97,0,1.83.65,2.15,1.51.32.86.11,1.94-.65,2.58-.65.65-1.72.65-2.47.11-.86-.54-1.29-1.51-1.08-2.37.22-1.08,1.08-1.83,2.15-1.83.22,0,.43-.11.43-.32s-.22-.22-.43-.22c-1.29,0-2.47.75-2.9,1.94s-.11,2.47.86,3.23c.97.75,2.37.86,3.44.32s1.72-1.83,1.51-3.01c-.22-1.4-1.4-2.37-2.8-2.37-.22,0-.43.11-.54.22-.11.11,0,.32.11.32.11-.11.22-.11.22-.11Z"/>
      <path class="cls-9" d="M192.22,200.62h0q.11,0,0,0h.22s-.11,0,0,0h0l.11.11c.11,0,0,0,0,0h0l.11.11.11.11h0v.11q0,.11.11.22v.32c0-.11,0,0,0,0h0s0,.11-.11.11h-.22.22-.11q.11,0,0,0t0,0h-.11s-.11,0,0,0h-.11c-.11,0,0,0,0,0l-.11-.11h0s-.11-.11,0,0l-.11-.11-.11-.11h0c0-.11-.11-.11-.11-.22v-.11s0-.11,0,0h0v-.22s0-.11,0,0,0,0,0,0c0,0,0-.11.11-.11h0v-.11h.22c.11,0-.11,0,0,0h.11s-.11,0,0,0,.11,0,0,0c.11,0,.22,0,.32-.11.11,0,.22-.11.22-.22.11-.22-.11-.32-.22-.32-.54,0-1.18.32-1.4.75s-.11.97.22,1.29c.43.32,1.08.43,1.61.11.54-.22.75-.75.75-1.29-.11-.54-.65-.97-1.18-.97-.11,0-.22,0-.32.11-.11,0-.22.11-.22.22-.32.32-.22.43,0,.43Z"/>
      <path class="cls-16" d="M188.57,248.03c0,.97-.54,1.83-1.4,2.15s-1.83,0-2.37-.86c-.65-.75-.65-1.83-.22-2.69.43-.75,1.29-1.18,2.15-.97,1.08.32,1.83,1.29,1.83,2.37,0,.32.86.22.86-.11,0-1.18-.75-2.26-1.94-2.69s-2.58-.11-3.44.86c-.75.86-.97,2.26-.32,3.33.65,1.08,1.94,1.61,3.12,1.29,1.4-.22,2.47-1.4,2.58-2.8,0-.32-.86-.22-.86.11Z"/>
      <path class="cls-9" d="M186.95,248.03v.32h0l-.11.11s-.11.11,0,0h0l-.11.11s.11,0,0,0-.11,0,0,0-.11,0,0,0-.11,0,0,0,0,0,0,0h-.11c-.11,0,0,0,0,0h0l-.11-.11s-.11,0,0,0,0,0,0,0l-.11-.11-.11-.11h0v-.11c0-.11,0-.22-.11-.22h0v-.32c0-.11,0,0,0,0v-.11q0-.11.11-.11c.11,0,0,0,0,0h0s.11,0,0,0h.11q-.11,0,0,0h.11s-.11,0,0,0h.11c.11,0-.11,0,0,0l.11.11h0l.11.11.11.11h0v.11c-.11,0-.11.11,0,.22h0c-.11.11-.11.22,0,.22h.32c.11,0,.22,0,.32-.11,0,0,.11-.11.11-.22,0-.22-.11-.43-.22-.65-.11-.22-.32-.32-.54-.43-.54-.22-1.18,0-1.61.43-.32.32-.32.86-.11,1.29.32.43.86.65,1.4.54.65-.11,1.08-.54,1.18-1.18,0-.22-.22-.22-.43-.22-.11,0-.22,0-.32.11q-.11.11-.11.22Z"/>
      <path class="cls-16" d="M204.26,248.36c0,.97-.54,1.83-1.51,2.15-.97.22-1.83-.11-2.37-.97-.54-.86-.65-1.83-.11-2.8.43-.75,1.29-1.18,2.26-.97.97.43,1.72,1.4,1.72,2.58,0,.22.86,0,.86-.22,0-1.18-.75-2.26-1.94-2.58-1.29-.32-2.58,0-3.44.97-.75.86-.86,2.26-.22,3.23s1.94,1.51,3.12,1.18c1.4-.22,2.47-1.4,2.47-2.8,0-.22-.86-.11-.86.22Z"/>
      <path class="cls-9" d="M202.54,248.25v.22c0-.11,0,0,0,.11v.11h0l-.11.11h0s-.11.11,0,0-.11,0,0,0h-.11s-.11,0,0,0h-.22s-.11,0-.11-.11-.11-.11,0,0l-.11-.11-.11-.11h0c0,.11,0,0,0,0v-.22s0-.11,0,0,0,0,0,0v-.32c0,.11,0,0,0,0v-.11s0-.11,0,0,0,0,0,0l.11-.11h.22c-.11.11-.11,0,0,0h0q-.11,0,0,0h.11c.11,0,0,0,0,0h.11c.11,0,0,0,0,0h.11s.11.11,0,0l.11.11.11.11s0,.11,0,0v.11l-.11.22h0c.11.22.32.32.43.22.11,0,.22,0,.32-.11.11,0,.11-.11.11-.22,0-.22-.11-.54-.22-.65-.11-.22-.32-.32-.54-.43-.54-.22-1.18,0-1.61.43-.32.32-.43.97-.11,1.4.32.43.86.65,1.4.54.65-.11,1.08-.54,1.18-1.18,0-.22-.22-.32-.43-.22-.11,0-.22,0-.32.11-.11-.11-.22,0-.22.11Z"/>
      <path class="cls-16" d="M191.58,255.77c.97,0,1.83.65,2.26,1.61.43.97.22,2.04-.54,2.69-.32.32-.65.54-1.08.54s-.97-.11-1.4-.32c-.86-.54-1.29-1.51-1.18-2.47,0-1.08.86-1.94,1.94-2.04.22,0,.43,0,.54-.11s.11-.22,0-.22c-1.29,0-2.47.65-3.12,1.72-.54,1.08-.22,2.37.65,3.12.97.75,2.37.86,3.44.32s1.72-1.61,1.61-2.8c-.22-1.4-1.29-2.37-2.69-2.37-.22,0-.43.11-.65.11,0,.11,0,.22.22.22Z"/>
      <path class="cls-9" d="M191.69,257.6h.11s-.11,0,0,0h0s.11,0,0,0h0l.11.11h0l.11.11.11.11h0v.11q0,.11.11.22v.32h0s0,.11-.11.11h0l-.11.11h-.11c.11-.11.11,0,0,0h0q.11,0,0,0h0c.11,0,0,0,0,0h-.11s.11,0,0,0h-.11l-.11-.11c.11,0,0,0,0-.11l-.11-.11h0c0-.11-.11-.11-.11-.22v-.11c0-.11,0,0,0,0v-.22c0-.11,0,0,0,0v-.11h0l.11-.11h.32c.11,0,.22,0,.32-.11.11,0,.22-.11.22-.22.11-.22-.11-.32-.22-.32-.54,0-1.18.32-1.4.86-.22.43-.11.97.32,1.29.65.43,1.51.32,2.04-.22.22-.22.32-.54.32-.86-.11-.54-.65-.97-1.18-.97-.11,0-.22,0-.32.11-.11,0-.22.11-.22.22-.32-.11-.22.11,0,.11Z"/>
      <path class="cls-16" d="M191.9,235.67c.97,0,1.83.65,2.15,1.51.32.97.11,1.94-.65,2.58-.65.54-1.61.65-2.37.11s-1.18-1.51-1.08-2.37c.11-.97.97-1.72,1.94-1.83.32,0,.54-.11.65-.22.11-.22-.11-.32-.22-.32-1.29,0-2.47.65-3.01,1.83-.54,1.08-.22,2.47.75,3.23.97.75,2.37.86,3.44.32s1.72-1.72,1.61-3.01c-.22-1.4-1.4-2.37-2.8-2.37-.22,0-.43.11-.54.22-.22.22-.11.32.11.32Z"/>
      <path class="cls-9" d="M192.01,237.39c-.11,0,0,0,0,0h.11s-.11,0,0,0h.11l.11.11.11.11c0,.11,0,0,0,0v.32c0,.11,0-.11,0,0v.11h0s0,.11,0,0v.22c0,.11,0,0,0,0l-.11.11h0s-.11,0-.11.11.11,0,0,0h-.22s.11,0,0,0h-.22s.11,0,0,0l-.11-.11h0l-.11-.11h0q0-.11-.11-.22s0-.11,0,0,0,0,0-.11v-.11h0v-.11s0-.11.11-.11c0,0,0,.11,0,0v-.11h0c.11-.11-.11.11,0,0h.22s.11,0,0,0h.11l.11-.11c.11,0,.32-.11.32-.32s-.22-.32-.43-.32c-.54,0-1.08.32-1.29.86-.22.43,0,1.08.32,1.4.43.32,1.08.43,1.61.11.43-.22.75-.75.65-1.29-.11-.32-.22-.54-.43-.65-.22-.22-.54-.32-.86-.32-.22,0-.43.11-.43.32s.32.22.54.22Z"/>
      <path class="cls-16" d="M188.24,285.12c0,.97-.54,1.83-1.4,2.15s-1.83,0-2.37-.86c-.54-.75-.65-1.83-.22-2.69.43-.75,1.29-1.18,2.15-.97,1.08.32,1.83,1.29,1.83,2.37,0,.43.86.22.86-.11,0-1.18-.75-2.26-1.94-2.69s-2.58-.11-3.44.86c-.86.86-.97,2.26-.32,3.23.65,1.08,1.94,1.61,3.12,1.29,1.4-.22,2.47-1.4,2.58-2.8,0-.32-.86-.11-.86.22Z"/>
      <path class="cls-9" d="M186.52,285.12v.32h0l-.11.11h0l-.11.11s.11,0,0,0h0s-.11,0,0,0-.11,0,0,0,0,0,0,0h-.22l-.11-.11h0l-.11-.11-.11-.11h0v-.65s0-.11,0,0v-.11l.11-.11c0-.11,0,0,0,0h0s-.11,0,0,0h-.11.11c.11,0,0,0,0,0h.22c-.11,0,0,0,0,0l.11.11h.11l.11.11.11.11h0v.22h0v.11q0,.11.11.11h.32c.11,0,.22,0,.32-.11.11,0,.11-.11.11-.22,0-.22-.11-.43-.22-.65-.11-.22-.32-.32-.54-.43-.54-.22-1.18,0-1.61.43-.32.32-.43.86-.11,1.29.32.43.86.65,1.4.54.65-.11,1.08-.54,1.18-1.18,0-.22-.22-.22-.43-.22-.11,0-.22,0-.32.11-.11.22-.22.22-.22.32Z"/>
      <path class="cls-16" d="M203.83,285.34c0,.97-.54,1.72-1.4,2.04s-1.83,0-2.37-.75-.65-1.83-.22-2.58c.43-.75,1.29-1.18,2.26-.97,1.08.22,1.72,1.18,1.72,2.26,0,.43.86.32.86-.11,0-1.18-.75-2.26-1.94-2.69s-2.58-.11-3.44.86c-.86.97-.97,2.26-.32,3.33.65,1.08,1.94,1.61,3.12,1.4,1.4-.22,2.47-1.4,2.47-2.9.22-.43-.75-.32-.75.11Z"/>
      <path class="cls-9" d="M202.22,285.34c0,.22,0,.32-.11.43,0,.11-.11.11-.11.11h0c.11,0,0,0,0,0h.11c-.11,0,.11,0,0,0s0,0,0,0h-.22c-.11-.11-.32-.22-.43-.32-.22-.32-.22-.65-.11-.97l.11-.11.11-.11h-.22.22c.43.22.65.65.65.97h.11c.22,0,.43-.11.65-.11l.11-.11c0-.43-.32-.86-.75-.97-.32-.11-.65-.11-.97,0-.32.11-.54.22-.75.43-.32.32-.32.75-.11,1.18.32.43.86.54,1.29.43.32-.11.65-.22.97-.43.22-.22.32-.43.22-.65h-.43c-.11,0-.22.11-.32.11.11-.11,0,.11,0,.11Z"/>
      <path class="cls-16" d="M191.26,292.87c.97,0,1.83.65,2.26,1.61.32.97.22,2.04-.54,2.69-.32.32-.65.54-1.08.54s-.97-.11-1.4-.32c-.86-.54-1.29-1.51-1.18-2.47,0-1.08.86-1.94,1.94-2.04.22,0,.43,0,.54-.22.11-.11.11-.22-.11-.22-1.29,0-2.47.65-3.01,1.72s-.22,2.37.65,3.23c.97.75,2.37.86,3.44.32s1.72-1.61,1.61-2.8c-.22-1.4-1.4-2.37-2.69-2.37-.22,0-.43,0-.65.11,0,.11,0,.22.22.22Z"/>
      <path class="cls-9" d="M191.36,294.69h.11s.11,0,0,0h.22l.11.11.11.11s0,.11,0,0h0v.11h0s0,.11,0,0v.22h0s0,.11-.11.11c0,.11,0,0,0,0h-.11s-.11,0-.11.11.11,0,0,0h-.32l-.11-.11h0s-.11,0-.11-.11h0s0-.11,0,0c0-.11-.11-.11-.11-.22v-.32c0-.11,0,0,0,0l.11-.11h0c.11-.11,0,0,0,0,0,0,.11,0,.11-.11-.11.11-.11,0,0,0l.22.22c-.11,0-.11-.11,0,0h0c.32-.11.54-.22.54-.43s-.22-.32-.43-.32c-.54,0-1.08.32-1.29.86-.22.43-.11.97.32,1.29.43.32,1.08.43,1.61.11.43-.22.75-.75.65-1.29-.11-.54-.65-.97-1.18-.97-.11,0-.22,0-.32.11-.11,0-.22.11-.22.22-.11.11-.11.32.11.32q.11.11.22.11Z"/>
      <path class="cls-16" d="M191.58,272.65c.97,0,1.83.65,2.15,1.51.32.97.11,1.94-.65,2.69-.65.54-1.61.65-2.37.11-.86-.54-1.29-1.51-1.18-2.47.11-.97.97-1.72,2.04-1.83.22,0,.43-.11.54-.22s-.11-.22-.22-.22c-1.29,0-2.47.65-3.01,1.83-.54,1.08-.22,2.47.75,3.23s2.37.86,3.55.32c1.08-.54,1.72-1.72,1.51-2.9-.22-1.4-1.4-2.37-2.8-2.37-.22,0-.43.11-.54.22-.11,0,0,.11.22.11Z"/>
      <path class="cls-9" d="M191.47,274.27h.22l.22.11c.11.11.22.22.32.32.11.11.11.32.11.54,0,.11,0,.22-.11.22,0,.11-.11.11-.11.22l-.11.11h0s.11,0,0,0h0q.11,0,0,0c-.11,0,0,0,0,0h-.11c-.11,0,.11,0,0,0h-.11q-.11,0-.22-.11c-.32-.22-.43-.54-.43-.86,0-.11,0-.22.11-.22,0-.11,0-.22.22-.32h0c-.11,0,0,0,0,0h0c.11,0-.11,0,0,0h0c-.22,0,0,0,0,0,.22,0,.43-.11.65-.22l.11-.11-.11-.11c-.65,0-1.18.22-1.51.75-.22.43-.11.86.22,1.18.54.32,1.18.32,1.61,0,.43-.22.75-.65.65-1.08-.11-.54-.54-.86-1.08-.86-.22,0-.43.11-.65.11l-.11.11s.11.22.22.22Z"/>
    </g>
    <path class="cls-17" d="M199.53,150.74c-.22,2.37-.11,4.62.11,6.99.43,4.73,1.18,9.46,2.37,14.08,1.4,5.48,2.9,11.5,2.37,17.2-.22,2.9-.75,5.7-1.61,8.49-.11.22.75.11.86-.11,1.72-5.59,2.04-11.5,1.08-17.2-1.08-6.88-3.12-13.44-3.98-20.32-.54-3.01-.65-6.13-.43-9.14.11-.32-.75-.22-.75,0h0Z"/>
    <path class="cls-9" d="M209.85,182.77c0,.65-.32,1.29-.97,1.51-.65.22-1.29-.11-1.61-.65-.43-.54-.43-1.29-.11-1.94.22-.54.86-.86,1.51-.75.75.43,1.18,1.08,1.18,1.83,0,.11.43,0,.43-.11,0-.75-.54-1.51-1.29-1.72-1.08-.32-2.15.32-2.37,1.4-.11.54,0,1.08.22,1.51.43.65,1.29.97,2.04.75.86-.22,1.51-.97,1.51-1.94-.11-.11-.54,0-.54.11Z"/>
    <path class="cls-17" d="M208.78,182.88v.43h0s.11,0,0,0h0c-.11,0,.11,0,0,0s0,0,0,0h0c.11,0,0,0,0,0h-.11l-.11-.11c-.11-.22-.11-.43,0-.65,0,0,0-.11.11-.11h0c.11,0,0,0,0,0,0,0,.11,0,0,0h0c.11,0,.22.11.22.22.11.11.11.22.11.32l.11.11h.22c.11,0,.22-.11.22-.22,0-.32-.22-.54-.43-.65-.43-.11-.86,0-1.08.32-.22.22-.22.54,0,.86s.65.43.97.32c.22,0,.43-.11.54-.32.11-.11.22-.32.11-.43h-.32c-.43-.32-.54-.32-.54-.11Z"/>
    <path class="cls-16" d="M211.68,182.77c0,1.4-.86,2.58-2.15,3.12-1.4.43-2.8,0-3.66-1.18-.75-1.08-.86-2.47-.22-3.55.65-1.29,2.15-1.94,3.55-1.51,1.4.32,2.37,1.61,2.47,3.12,0,.11.43,0,.43-.11,0-1.51-1.08-2.8-2.58-3.23-1.4-.43-2.9.11-3.87,1.18-.97,1.18-1.08,2.8-.22,4.09.86,1.18,2.37,1.72,3.76,1.4,1.72-.32,2.9-1.72,2.9-3.44,0-.11-.43,0-.43.11Z"/>
    <path class="cls-15" d="M89.76,199.55l.54,1.18c4.09,9.78,7.85,20.64,16.34,27.63,2.9,2.37,6.13,4.09,9.68,5.16.97-4.19-.54-14.84,1.72-16.02,2.69-1.4,5.48-2.58,8.49-3.44,1.4-.43,2.9-.65,4.41-.86l-12.79-66.23h-37.63c2.15,17.42,5.59,39.56,9.25,51.93-.11.22,0,.43,0,.65Z"/>
    <path class="cls-17" d="M80.09,178.69l36.55-9.89,5.16-1.4c.54-.11.43-.54-.11-.43l-36.55,9.89-5.16,1.4c-.54.11-.43.54.11.43h0Z"/>
    <path class="cls-14" d="M129.65,190.84l-14.84-54.4-5.16-31.93s-32.68,9.25-35.8,32.79c-3.01,21.29,3.66,46.34,8.82,66.76,10.54-3.23,36.12-10.54,46.98-13.22Z"/>
    <path class="cls-17" d="M96.65,123.64c5.38-.75,9.89,4.52,12.79,8.39,2.8,3.87,5.27,8.06,7.2,12.36,4.19,9.46,7.2,19.35,9.25,29.46,1.18,5.48,2.15,10.86,3.01,16.34l.43-.22-9.35,2.8c-.43.11-.43.43.11.32l9.35-2.8c.11,0,.43-.11.43-.22-1.51-10.54-3.76-20.86-6.67-31.07-3.01-9.78-6.88-19.67-13.12-27.85-3.01-3.98-7.42-8.71-13.01-7.96-.65.11-.97.54-.43.43h0Z"/>
    <path class="cls-17" d="M128.36,185.03c-8.28,3.12-45.8,14.19-45.8,14.19l1.83,6.88,45.69-14.41-1.72-6.67Z"/>
    <path class="cls-9" d="M89.44,191.38c.32.65.22,1.29-.22,1.83-.43.54-1.08.65-1.61.32-.65-.32-.97-.97-.97-1.72,0-.65.43-1.29,1.08-1.4.75-.11,1.4.32,1.72.97.11.11.54,0,.54-.11-.32-.65-1.08-1.08-1.83-1.08s-1.51.54-1.72,1.29c-.22,1.08.32,2.04,1.4,2.37.54.11,1.08,0,1.61-.32.75-.54.97-1.51.65-2.37-.32,0-.75.11-.65.22Z"/>
    <path class="cls-17" d="M88.37,191.81v.32h0v.22h0v.11h-.11c-.11,0,0,0,0,0h0c.11,0,0,0,0,0,0,0,.11,0,0,0h-.22l-.11-.11h0v-.22c0-.11,0,0,0,0h0v-.11h0v-.11h0s-.11,0,0,0h0c.11,0-.11,0,0,0h.11l.32-.11h0c0,.22.22.22.32.22s.11,0,.22-.11l.11-.11c-.11-.11-.22-.32-.32-.32-.11-.11-.32-.11-.54-.11-.43,0-.75.32-.86.65-.11.32.11.65.32.86.32.22.75.22,1.08,0s.43-.65.32-.97c-.11-.11-.22-.11-.32-.11-.22-.11-.22,0-.32,0h0Z"/>
    <path class="cls-16" d="M90.95,190.62c.54,1.18.32,2.58-.54,3.66-.97,1.08-2.47,1.4-3.76.75-1.18-.65-1.94-1.83-1.83-3.12.11-1.83,1.72-3.12,3.44-2.9,1.29,0,2.26.65,2.69,1.61.11.11.43,0,.43-.11-.65-1.29-2.04-2.15-3.55-1.94-1.51.11-2.8,1.18-3.23,2.58-.43,1.51.11,3.01,1.4,3.87,1.29.75,2.8.75,4.09-.11,1.4-.97,1.94-2.8,1.29-4.3,0-.22-.43-.11-.43,0Z"/>
    <path class="cls-9" d="M97.4,189.33c.32.65.22,1.29-.22,1.83-.43.43-1.08.54-1.61.22s-.97-.97-.86-1.61c0-.65.43-1.18,1.08-1.29s1.29.22,1.61.86c.11.22.54,0,.43-.11-.32-.65-1.08-1.08-1.94-1.08-.75.11-1.51.65-1.72,1.4s.11,1.61.75,2.04c.86.65,2.04.43,2.58-.43.43-.54.54-1.29.22-1.94,0-.22-.43,0-.32.11Z"/>
    <path class="cls-16" d="M98.9,188.58c.54,1.18.32,2.69-.54,3.66-.97.97-2.47,1.29-3.66.65-1.61-.75-2.26-2.69-1.51-4.3s2.69-2.26,4.3-1.51c.65.32,1.18.86,1.4,1.51.11.22.54,0,.43-.22-.65-1.29-2.15-2.15-3.55-1.94-1.51.11-2.8,1.18-3.23,2.69s.22,3.01,1.51,3.87c1.29.75,2.9.75,4.09-.11,1.4-.97,1.94-2.8,1.29-4.41-.11-.11-.54,0-.54.11Z"/>
    <path class="cls-9" d="M105.35,186.86c.32.65.22,1.29-.22,1.83-.43.43-1.08.65-1.61.32-.65-.32-.97-.97-.97-1.72,0-.65.43-1.29,1.08-1.4.75-.11,1.51.32,1.72.97.11.11.54,0,.43-.11-.32-.65-1.08-1.08-1.83-1.08s-1.51.54-1.72,1.4c-.22,1.08.32,2.04,1.4,2.37.54.11,1.08,0,1.51-.22.75-.54.97-1.51.65-2.37,0-.22-.43-.11-.43,0Z"/>
    <path class="cls-17" d="M104.28,187.4q0,.11.11.22v.32s0,.11,0,0v.11h0v.11h0s.11,0,0,0h0c.11,0,0,0,0,0,0,0,.11,0,0,0h0c.11,0,0,0,0,0h0s.11,0,0,0h-.11l-.11-.11h0l-.11-.11h0v-.32h0v-.22h0v-.11h0c-.11,0,0,0,0,0,0,0-.11,0,0,0h.22v.11h0c.11.11.22.11.32,0,.11,0,.11-.11.22-.11,0,0,.11-.11,0-.11-.11-.11-.22-.32-.32-.32-.11-.11-.32-.11-.54-.11-.43,0-.75.32-.86.65-.11.32.11.65.32.86.32.22.75.22,1.08,0s.43-.65.32-.97c0-.11-.22-.11-.32-.11s-.11,0-.22.11c.11-.11,0,0,0,.11Z"/>
    <path class="cls-17" d="M96.43,189.87q0,.11.11.22v.32s0,.11,0,0v.11h0v.11h0s.11,0,0,0h0c.11,0,0,0,0,0,0,0,.11,0,0,0h0c.11,0,0,0,0,0h0s.11,0,0,0h-.11l-.11-.11h0l-.11-.11h0v-.32h0v-.22h0v-.11h0c-.11,0,0,0,0,0,0,0-.11,0,0,0h.22v.11h0c.11.11.22.11.32,0,.11,0,.11-.11.22-.11,0,0,.11-.11,0-.11-.11-.11-.22-.32-.32-.32-.11-.11-.32-.11-.54-.11-.43,0-.75.32-.86.65-.11.32.11.65.32.86.32.22.75.22,1.08,0s.43-.65.32-.97c0-.11-.22-.11-.32-.11s-.11,0-.22.11c0-.11-.11,0,0,.11Z"/>
    <path class="cls-16" d="M106.97,186.11c.54,1.18.32,2.58-.43,3.55-.97,1.08-2.47,1.4-3.76.75-1.61-.86-2.37-2.8-1.51-4.52.43-.86,1.08-1.4,1.94-1.72,1.51-.22,3.12.54,3.76,1.94,0,.11.43-.11.43-.11-.65-1.29-2.04-2.15-3.55-1.94-1.51.11-2.8,1.18-3.23,2.58-.43,1.51.11,3.01,1.4,3.87,1.29.75,2.8.75,4.09-.11,1.4-.97,1.94-2.8,1.29-4.3,0-.22-.43,0-.43,0Z"/>
    <path class="cls-9" d="M113.31,184.49c.32.65.22,1.29-.22,1.83-.22.22-.43.43-.75.43s-.65,0-.86-.22c-.54-.32-.97-.97-.97-1.61s.43-1.29.97-1.51c.86,0,1.51.32,1.83,1.08,0,.11.43,0,.43-.11-.43-.97-1.61-1.4-2.58-.86-.43.22-.86.65-.97,1.18-.22.75.11,1.61.75,2.04s1.51.43,2.15,0c.75-.54.97-1.51.65-2.26,0-.22-.43-.11-.43,0Z"/>
    <path class="cls-17" d="M112.23,184.92v.22h0v.22h0v.11h0s-.11,0,0,0h-.11l-.11-.11h0l-.11-.11h0v-.22h0v-.22s0-.11,0,0v-.11h0v-.11h0s.11,0,0,0h.32l.11.11h0s0,.11,0,0c-.11.22,0,.22-.11.22h.32c.11,0,.11-.11.22-.11,0,0,.11-.11,0-.11-.11-.11-.22-.32-.32-.43-.22-.11-.32-.11-.54-.11-.43,0-.75.32-.86.65-.11.32.11.65.32.86.32.22.75.22,1.08,0s.43-.65.32-.97c-.11-.11-.22-.22-.32-.11-.11,0-.11.11-.22.11v.22h0Z"/>
    <path class="cls-16" d="M114.92,183.74c.54,1.18.32,2.58-.54,3.66-.97,1.08-2.47,1.4-3.76.75-1.61-.75-2.37-2.8-1.51-4.41.43-.86,1.18-1.51,2.04-1.72,1.51-.43,3.12.32,3.76,1.72.11.11.54,0,.43-.11-.65-1.29-2.04-2.15-3.55-1.94-1.51.11-2.8,1.18-3.23,2.58-.43,1.4.11,3.01,1.4,3.87,1.29.75,2.9.75,4.19-.11,1.4-.97,1.94-2.8,1.29-4.3-.22-.32-.65-.11-.54,0Z"/>
    <path class="cls-9" d="M121.91,181.91c.32.65.22,1.29-.22,1.83-.43.43-1.08.54-1.61.22-.65-.32-.97-.97-.97-1.61s.43-1.18,1.08-1.4c.75-.11,1.51.32,1.72.97.11.22.54,0,.43-.11-.32-.75-1.08-1.08-1.83-1.08s-1.51.65-1.72,1.4.11,1.61.75,2.04,1.51.43,2.15,0c.75-.54.97-1.51.65-2.37-.11-.22-.54,0-.43.11Z"/>
    <path class="cls-17" d="M120.84,182.34v.22h0v.11h0v.22h0s.11,0,0,0h0c-.11,0,.11,0,0,0h-.11c.11,0,0,0,0,0h-.11v-.11h0v-.22h0v-.11h0v-.11h.11s-.11,0,0,0h0s-.11,0,0,0h0s.11,0,0,0h.11c.11.11.22.22.22.22,0,0,.11.11.22.11h.22c.11,0,.11-.11.11-.11v-.22c-.22-.32-.54-.54-.86-.43-.43,0-.75.32-.86.65-.11.32.11.65.32.86.32.22.75.22,1.08,0s.43-.65.22-.97c0-.11-.11-.11-.11-.11h-.22c-.11,0-.11.11-.22.11.11-.11,0-.11-.11-.11Z"/>
    <path class="cls-16" d="M123.52,181.16c.54,1.18.32,2.58-.54,3.66-.97.97-2.47,1.29-3.66.75-1.61-.75-2.37-2.58-1.72-4.19.43-.97,1.18-1.61,2.15-1.83,1.51-.54,3.01.22,3.76,1.61.11.22.54,0,.43-.11-.65-1.29-2.04-2.15-3.55-2.04s-2.8,1.18-3.23,2.58c-.43,1.4.11,3.01,1.4,3.87,1.29.86,2.9.75,4.19-.11,1.4-.97,1.94-2.8,1.29-4.41-.22-.11-.65.11-.54.22Z"/>
    <path class="cls-17" d="M79.23,188.69l15.8-4.3,25.27-6.77,5.81-1.61c.54-.11.43-.43-.11-.32l-15.8,4.3-25.27,6.88-5.81,1.51c-.54.11-.43.43.11.32h0Z"/>
    <path class="cls-17" d="M78.15,180.84l15.48-4.19,24.51-6.56,5.7-1.51c.54-.11.32-.65-.11-.54l-15.48,4.19-24.51,6.56-5.7,1.51c-.54.22-.43.75.11.54h0Z"/>
    <path class="cls-9" d="M78.48,184.82l15.59-4.19,24.94-6.77,5.7-1.51c.54-.11.43-.43-.11-.22l-15.59,4.19-24.94,6.67-5.7,1.51c-.43.22-.43.43.11.32h0Z"/>
    <path class="cls-16" d="M88.37,157.83c.22.97,0,1.94-.75,2.47s-1.72.54-2.47,0c-.75-.54-1.18-1.61-.97-2.58.22-.86.97-1.51,1.83-1.61,1.18,0,2.15.75,2.37,1.72.11.43.97.11.86-.22-.32-1.18-1.4-1.94-2.58-2.04-1.29-.11-2.47.54-3.12,1.72-.54,1.08-.22,2.37.65,3.23.97.86,2.37.97,3.44.43,1.29-.54,1.94-1.94,1.61-3.33,0-.32-.86-.11-.86.22Z"/>
    <path class="cls-9" d="M86.75,158.26c.11.32,0,.65-.22.86h0s-.11,0,0,0h-.11c-.11,0-.11-.11-.22-.11-.22-.22-.43-.54-.32-.86q0-.11.11-.22c0-.11.11-.11.11-.22l.11-.11s-.11,0,0,0h0c.11,0-.11,0,0,0h0q-.11,0,0,0h.11c.11,0,.22.11.22.11.11.11.22.32.22.54h.54c.11,0,.22-.11.32-.11l.11-.11c-.11-.43-.54-.75-.97-.75-.32,0-.75.11-1.08.22-.22.11-.32.32-.43.43-.22.43-.11.86.22,1.18.54.32,1.18.32,1.61,0,.22-.11.43-.32.65-.54.11-.22.11-.43.11-.65h-.43c-.11,0-.22.11-.32.11-.11,0-.32.22-.32.22Z"/>
    <path class="cls-16" d="M107.93,152.35c.22.97,0,1.94-.75,2.47s-1.72.54-2.47,0c-.75-.54-1.18-1.61-.97-2.58.22-.86.97-1.61,1.83-1.72,1.18.11,2.04.86,2.37,1.83.11.32.97.11.86-.22-.32-1.18-1.4-1.94-2.58-2.04-1.29-.11-2.47.54-3.12,1.72-.54,1.08-.22,2.37.65,3.23.97.86,2.37.97,3.44.43,1.29-.54,1.94-1.94,1.61-3.33-.11-.32-.97-.11-.86.22Z"/>
    <path class="cls-9" d="M106.32,152.89v.22c0,.11,0,0,0,0v.32h0l-.11.11h0s-.11.11,0,0h0c-.11,0,.11,0,0,0h0c-.11.11.11,0,0,0s-.11,0,0,0,0,0,0,0c0,0,.11,0,0,0h0q.11,0,0,0h0s-.11,0,0,0h-.11c-.11,0,0,0,0,0h-.11c-.11,0,0,0,0,0-.11-.11-.22-.22-.32-.32v-.22s0-.11,0,0,0,0,0-.11v-.22s0-.11,0,0,0,0,0-.11l.11-.11h0c.11,0-.11,0,0,0h.11c-.11.11-.11,0,0,0s.11,0,0,0,.11,0,0,0h0c.11,0,0,0,0,0h.32c.11,0,.11.11.22.22h0v.11c-.11-.11-.11,0-.11.11.11.11.43.11.54,0,.11,0,.22-.11.32-.11,0,0,.11-.11.11-.22-.32-1.18-2.04-.97-2.58,0-.22.43-.11.97.22,1.29.43.32,1.08.43,1.61.11.32-.11.54-.32.65-.54s.11-.54.11-.75c0-.11-.11-.11-.22-.11h-.32c-.11,0-.22.11-.32.11s-.11.11-.11.22h0Z"/>
    <path class="cls-16" d="M98.15,163.1c.97-.22,1.83.22,2.37.97.54.86.65,1.94.11,2.8-.43.75-1.4,1.18-2.26.86-.97-.32-1.61-1.18-1.72-2.15-.11-1.08.54-2.04,1.51-2.47.11,0,.43-.11.43-.22s-.43-.11-.43-.11c-1.18.32-2.15,1.29-2.26,2.47s.54,2.26,1.72,2.8c1.18.43,2.58.11,3.55-.75.86-.86,1.08-2.15.54-3.23-.65-1.18-2.15-1.72-3.44-1.29-.11,0-.43.11-.43.32s.22,0,.32,0Z"/>
    <path class="cls-9" d="M98.58,164.82h0s.11,0,0,0h.11s-.11,0,0,0h.11l.11.11h0l.11.11v.11h0s0,.11.11.11v.22h0v.32c0-.11,0,0,0,0,0,0,0,.11-.11.11v.11h0s-.11,0,0,0h0s.11,0,0,0h-.11.11s-.11,0,0,0-.11,0,0,0,0,0,0,0h-.11s.11,0,0,0h-.22l-.11-.11h0c-.11,0,0,0,0,0l-.11-.11-.11-.11h0v-.11c0-.11-.11-.22-.11-.22h0v-.32c0-.11,0,0,0,0,.22-.11.32-.22.32-.22h0s-.11,0,0,0h0q-.11,0,0,0h0c.11,0-.11,0,0,0s.11-.11.22-.11q.11-.11.11-.22c-.11-.22-.32-.22-.54-.11-.54.11-.97.54-1.08,1.08,0,.43.22.86.65,1.08.54.22,1.18.11,1.72-.32.32-.32.43-.86.22-1.29-.32-.54-.97-.75-1.51-.65-.11,0-.22.11-.32.11,0,.11-.11.11-.11.22s.54.22.65.22Z"/>
    <path class="cls-16" d="M92.78,143.64c.86-.22,1.83.22,2.37.97s.54,1.83.11,2.69c-.43.75-1.4,1.18-2.26.86-.97-.32-1.61-1.18-1.72-2.15-.11-1.08.54-2.04,1.51-2.37.11,0,.43-.11.32-.32s-.32-.11-.43-.11c-1.18.32-2.15,1.29-2.26,2.58-.11,1.18.54,2.37,1.72,2.9s2.58.22,3.55-.65c.86-.86,1.08-2.15.54-3.23-.65-1.29-2.15-1.83-3.44-1.51-.11,0-.43.11-.32.32s.22,0,.32,0Z"/>
    <path class="cls-9" d="M93.21,145.15c.11,0-.11,0,0,0h.22c.11.11.32.22.32.32.22.32.22.65,0,.97,0,.11-.11.11-.11.22h0s.11,0,0,0h.11c-.11,0,.11,0,0,0s.11,0,0,0h-.22c-.32-.11-.54-.43-.54-.75,0-.22,0-.32.11-.54,0-.11.11-.22.11-.22h0s.11,0,0,0h0c.11-.11.22-.11.32-.22l.11-.11h-.43c-.32.11-.65.22-.86.43-.11.11-.22.32-.22.54,0,.43.22.86.65.97.32.11.54.11.86,0,.32,0,.65-.22.86-.43.32-.32.43-.75.22-1.18-.11-.22-.32-.32-.54-.43-.32-.11-.75-.11-1.08,0-.11,0-.22.11-.32.11l-.11.11s.43.22.54.22Z"/>
    <path class="cls-13" d="M126.21,223.74c-3.55.54-6.67,2.8-8.28,6.02-.22.32.54.32.65.11,1.4-3.01,4.19-5.16,7.53-5.59.11,0,.43-.11.43-.22s-.11-.32-.32-.32h0Z"/>
    <path class="cls-9" d="M105.35,106.76l2.47,12.47.65,3.01c0,.43.11.86.32,1.18.54.43,1.18.75,1.94.97l26.45,13.65,8.49,4.41c.32.11,1.08-.22.65-.43l-20.96-10.86-12.69-6.67c-.97-.43-1.94-.97-2.9-1.51-.32-.22,0,.22-.11-.22-.22-.75-.32-1.51-.43-2.26l-2.8-14.08c-.32-.22-1.18,0-1.08.32h0Z"/>
    <path class="cls-15" d="M143.74,150.09l6.13-17.2s4.19-19.24,4.73-21.61c.43-1.51,1.29-2.8,2.47-3.76,0,0,4.52-10.43,4.62-10.54.65-.75,7.42-2.37,8.92-1.94,1.18.32,4.62,3.01,6.02,4.19,0,0,.11,0,.11.11.32.32.32.97,0,1.29-.54.43-1.18.75-1.94.86-2.04.32-4.41-1.4-4.41-1.4l-4.19.54-.65,4.95.97,1.61s7.31.11,8.82,0c1.61-.22,3.12.86,3.55,2.47,0,1.08-.11,2.15-.54,3.12.22,1.29.32,2.58.32,3.87-.22,1.4-2.58,4.19-2.58,4.19-.65,2.04-1.61,3.98-2.8,5.81-.86,1.29-1.72,2.69-2.37,3.44-.54.65-1.29.86-2.04.65h0c-1.29.65-.43.75-1.61.75l-.11,2.04c-.11,1.08-.32,2.26-.86,3.23-1.72,1.94-4.95,6.13-4.95,6.13"/>
    <path class="cls-13" d="M151.05,129.23c.75-3.23,1.4-6.56,2.15-9.78.43-2.15.97-4.19,1.4-6.34.11-.65.22-1.18.43-1.83.22-.75.43-1.4.86-1.94.43-.75,1.18-1.18,1.72-1.83.65-1.18,1.18-2.47,1.61-3.76.86-1.94,1.61-3.76,2.47-5.7.11-.43.32-.75.65-1.08.75-.65,2.37-.86,3.23-1.08,1.4-.32,2.69-.54,4.09-.65,1.08.11,2.04.65,2.9,1.29.65.43,1.4.97,2.04,1.51.65.43,1.29.86,1.83,1.4.22.22.32.43.22.75,0,.65-1.94,1.29-2.58,1.18-.54-.11-1.08-.22-1.61-.43-.54-.22-.97-.65-1.51-.86-.54-.11-1.18-.11-1.72.11l-2.8.32c-.11,0-.54.11-.54.22l-.43,3.23c-.11.54-.22.97-.22,1.51.11.43.32.75.54,1.08.54.86.54.75,1.4.75h4.52c1.29,0,2.58-.11,3.87,0,1.29,0,2.37.75,2.9,1.94.22.97.22,1.94-.11,2.8-.32,1.29.11,2.37.11,3.66,0,1.83-1.08,3.23-2.15,4.52-.65.97-1.08,2.04-1.4,3.12-.43,1.18-1.08,2.26-1.72,3.33-.65.97-2.26,4.19-3.76,3.87-.22,0-.86.22-.65.32,1.72.43,2.69-.65,3.66-2.04,1.51-2.04,2.69-4.19,3.66-6.45.11-.54.32-1.08.54-1.51.32-.43.65-.86.97-1.29,1.29-1.4,1.83-3.23,1.61-5.05-.11-.65-.22-1.18-.22-1.83.22-.86.43-1.61.54-2.47-.11-1.72-1.61-3.12-3.33-3.01-1.51-.11-3.12,0-4.62,0h-2.58c-.65.11-1.18.11-1.83,0-.22-.11-.43-.65-.75-1.08-.22-.32-.32-.75-.22-1.18l.65-4.19-.54.22,2.8-.32c.43-.11.97-.22,1.4-.22.22,0-.22,0,0,0,.32.11.54.32.75.43,1.18.65,2.47.97,3.76.86.86-.11,2.9-.75,2.69-1.94-.11-.54-.65-.86-1.08-1.18-.65-.54-1.4-1.08-2.04-1.51-.97-.86-2.15-1.61-3.44-2.04-.97-.11-1.94-.11-2.8.11-1.4.22-2.69.54-4.09.86-.86.11-1.72.43-2.47.97-.32.32-.54.65-.65,1.08-.97,2.15-1.94,4.3-2.8,6.45-.43.86-.75,1.72-1.18,2.58-.43.86-1.4,1.51-1.94,2.37-1.08,1.72-1.29,4.09-1.72,6.13l-3.01,13.76c-.21.22.54.11.54-.11h0Z"/>
    <path class="cls-13" d="M167.17,131.49c2.8-.75,4.73-3.23,6.24-5.59.97-1.29,1.72-2.69,2.04-4.3.11-1.4-.65-2.8-1.83-3.55-1.29-.75-2.8-1.29-4.3-1.72-1.72-.54-2.9-1.72-4.52-2.58-1.08-.65-2.37-.75-3.55-.54-.86.22-2.58.65-2.8,1.61-.11.22.65,0,.75-.11l.11-.22c.11-.22-.65-.11-.75,0-.11.11-.11.22-.22.32l.75-.11c.22-.86,1.61-1.18,2.37-1.29s1.61,0,2.37.43c1.08.54,2.04,1.4,3.12,1.94,2.15,1.18,4.73,1.18,6.56,2.9,2.15,1.94.75,4.62-.54,6.56-1.4,2.15-3.23,5.05-5.91,5.7-.32.43-.32.65.11.54h0Z"/>
    <path class="cls-13" d="M167.71,131.38c-.11-.65-.22-1.18-.43-1.83-.22-.75-.43-1.4-.65-2.15-.11-.75-.32-1.4-.54-2.04-.22-.32-.43-.75-.54-1.08-.22-.22-.22-.54-.32-.86l-.11.22h-.75q0,.11.11.22l.65-.32h0l.11.11v-.11c-.11-.32-.86-.11-.75.22,0,.11.11.22.22.22s.65,0,.65-.32c0-.11,0-.22-.11-.22-.11-.22-.54-.11-.75,0s0,.54.11.65c.11.43.43.75.54,1.18.22.43.43.86.54,1.29.11.32.11.65.22.97.22.75.43,1.4.65,2.15.22.65.43,1.29.43,1.94,0,.22.75.11.75-.22h0Z"/>
    <path class="cls-13" d="M164.7,123.86c.65-.11,1.18-.54,1.4-1.18.11-.43.11-.97,0-1.51l-.75.22c0,.11,0,.22.11.32s.22.22.43.32c.54.32.97.65,1.51.86s.75.43,1.18.54.54,0,.86-.11l-.43-.22c-.75.43-1.18,1.08-1.29,1.94,0,.22.65,0,.75-.11l.11-.11c.22-.22-.32-.22-.43-.22-.97.22-1.72.75-2.37,1.51-.11.11.11.22.22.22.22,0,.43-.11.54-.22.43-.54.97-.97,1.72-1.18l-.43-.22-.11.11.75-.11c0-.75.65-1.29,1.08-1.61.11-.11.11-.22,0-.22-.11-.11-.32-.11-.43,0l-.32.11h.43c-.54-.32-1.18-.54-1.72-.86-.43-.22-.75-.43-1.08-.65q-.11-.11-.11-.22l-.11-.22c0-.22-.75,0-.75.22v1.08c0,.22-.11.32-.22.54-.11.11-.11.22-.22.22l-.11.11s-.11.11,0,.11c-.11,0-.43.11-.43.22s0,.32.22.32h0Z"/>
    <path class="cls-13" d="M175.56,120.74v.22c0,.22.65,0,.75-.11.86-1.94,1.61-4.52.43-6.45-1.18-1.94-3.98-2.04-6.02-2.47-2.37-.43-4.84-.86-7.2-1.29-1.72-.32-3.76-.65-5.38.54-.32.22.43.11.65,0,1.61-1.18,4.62-.11,6.45.22,2.04.32,4.09.75,6.13,1.18,2.04.43,4.09.65,4.84,2.69.75,1.94.11,3.98-.65,5.81l.75-.11v-.22c-.11-.32-.75-.22-.75,0h0Z"/>
    <path class="cls-13" d="M178.78,113.21c0-.75-.22-1.51-.54-2.26-.22-.65-.65-1.29-1.08-1.94-.86-1.18-2.26-1.94-3.76-1.94-.11,0-.43,0-.54.22s.11.22.22.22c1.4.11,2.58.75,3.44,1.94.43.54.75,1.18.97,1.83.32.65.43,1.4.43,2.04.11.32.86.11.86-.11h0Z"/>
    <path class="cls-13" d="M165.78,107.52c-.11-.11-.32-.11-.43-.11l-1.18-.11c-.86-.11-1.72-.22-2.69-.22-1.61-.11-3.66-.11-5.05.97-.11.11-.11.22.11.22s.43,0,.54-.11c1.18-.97,3.12-.75,4.52-.65.65,0,1.29.11,1.94.22l.97.11h.43c.11,0,.22,0,.11,0,.22,0,.86-.22.75-.32h0Z"/>
    <path class="cls-15" d="M119.65,196.11c-5.59,11.07-11.5,16.45-12.15,28.49.11,1.83.43,3.76.97,5.48,2.37,1.72,8.6,3.87,12.15,4.19,9.78.97,18.17-5.91,23.11-13.87,5.38-8.71,7.96-18.92,9.78-28.81,1.72-8.92,2.8-17.95,4.19-26.99,1.29-8.17,2.69-16.45,3.87-24.62.22-1.51.43-3.01.65-4.41,0,0-10-4.62-10.11-4.52-2.58,3.98-26.23,54.62-27.63,57.3-.43.97-4.3,6.77-4.84,7.74Z"/>
    <path class="cls-13" d="M120.84,193.42c-1.08,1.08-2.15,2.37-3.01,3.66-.86,1.51-1.61,3.12-2.26,4.73-1.4,3.01-1.51,6.56-.43,9.68.11.22.86,0,.75-.22-.54-1.61-.86-3.33-.75-5.05.11-1.61.54-3.12,1.18-4.52.65-1.51,1.4-2.9,2.15-4.41.86-1.4,1.94-2.69,3.12-3.87.22-.22-.54-.22-.75,0h0Z"/>
    <path class="cls-1" d="M215.98,41.18c-.54-30.32-25.48-54.4-55.8-53.86-24.19.43-45.26,16.66-51.82,39.89C36.22,48.06-5.38,123.43,15.47,195.57c20.86,72.14,96.22,113.75,168.36,93,72.14-20.75,113.75-96.22,93-168.36-9.57-33.11-31.29-61.39-60.85-79.02Z"/>
    <path class="cls-11" d="M156.53,63.44s2.26,2.19,6.03,2.55,6.74.67,6.74.67c0,0-4.01-4.45-6.4-4.45-2.39,0-3.57-.06-6.37,1.23Z"/>
    <path class="cls-18" d="M164.91,78.96c-.97-.2-1.84.39-2.55.98s-1.44,1.21-2.14,1.85c-1.35,1.23-2.63,2.57-3.64,4.1-.56.85-1.02,1.76-1.34,2.72-.04.12.65.05.71-.13,1.09-3.19,3.57-5.62,6.07-7.77.36-.31.72-.61,1.08-.91.34-.28.74-.67,1.21-.57.16.03.36-.02.51-.09.06-.03.25-.15.09-.18h0Z"/>
    <path class="cls-18" d="M168.81,67.3c-1.68.57-3.45.97-5.23.91-.83-.03-1.66-.14-2.46-.37-.68-.2-1.38-.48-1.91-.97-.13-.12-.33-.12-.49-.05-.1.05-.31.23-.18.36.94.86,2.25,1.23,3.48,1.42,1.5.23,3.03.13,4.51-.17.82-.16,1.62-.39,2.4-.66.14-.05.34-.16.3-.33-.04-.17-.3-.18-.43-.14h0Z"/>
    <path class="cls-18" d="M181.12,69.68c.26,1,1.07,1.78,1.93,2.3.53.32,1.1.56,1.68.78s1.15.38,1.75.48c.68.11,1.38.12,2.05-.05.09-.02.36-.11.32-.25s-.32-.07-.4-.05c-1.02.25-2.15-.09-3.1-.44-1.02-.37-2.03-.85-2.77-1.67-.34-.37-.6-.81-.73-1.3-.06-.21-.78-.02-.72.19h0Z"/>
    <path class="cls-18" d="M182.51,83.85c.44,2.86.56,5.82-.52,8.55-.37.94-.87,1.82-1.48,2.62-.1.13.09.17.18.17.15,0,.38-.06.48-.19,1.05-1.38,1.77-2.98,2.12-4.68.3-1.47.33-2.98.22-4.47-.06-.74-.16-1.47-.27-2.2-.03-.2-.76-.04-.72.19h0Z"/>
    <path class="cls-3" d="M169.43,66.77s-3.01-4.95-6.34-5.16c-2.15-.11-4.19.43-6.02,1.4-.65.43-.65.32-.54.54,2.15-.75,4.41-.97,6.56-.75,1.72.11,6.34,3.98,6.34,3.98Z"/>
    <path class="cls-11" d="M192.6,70.46s-.8,1.2-4.43.13-6.5-1.9-6.5-1.9c0,0,5.38-2.63,7.6-1.74,2.22.89,1.23,1.27,3.34,3.51Z"/>
    <path class="cls-3" d="M188.57,67.09c-.75-.54-1.72-.54-2.58-.22-.32.22-.54.43-.75.75-.22.54-.11,1.29.22,1.72.54.65,1.4.86,2.15.65.86-.22,1.51-1.08,1.4-2.04,0-.11.11-.32-.43-.86"/>
    <path class="cls-3" d="M181.47,68.71s4.09-2.69,6.88-2.15c1.83.22,3.33,1.29,4.19,3.01.32.65-.86.11,0,1.08-1.08-1.51-2.69-2.69-4.52-3.33-1.4-.43-6.56,1.4-6.56,1.4Z"/>
    <path class="cls-3" d="M192.33,70.64c.65.54,1.61.43,2.15-.32h0c-1.51-.32-2.8-1.08-3.76-2.15l1.61,2.47Z"/>
    <path class="cls-3" d="M164.41,62.91c-.75-.54-1.72-.54-2.58-.22-.32.22-.54.43-.75.75-.22.54-.11,1.29.22,1.72.54.65,1.4.86,2.15.65.86-.22,1.51-1.08,1.4-2.04,0-.11.11-.32-.43-.86"/>
  </g>
</svg>