<?xml version="1.0" encoding="utf-8"?>
<!-- Generator: Adobe Illustrator 26.0.1, SVG Export Plug-In . SVG Version: 6.00 Build 0)  -->
<svg version="1.1" id="Layer_1" xmlns="http://www.w3.org/2000/svg" xmlns:xlink="http://www.w3.org/1999/xlink" x="0px" y="0px"
	 viewBox="0 0 292.9 302" style="enable-background:new 0 0 292.9 302;" xml:space="preserve">
<style type="text/css">
	.st0{clip-path:url(#SVGID_00000047039429647727046610000011087795812583009174_);}
	.st1{fill:#C3E6F7;}
	.st2{fill:#383838;}
	.st3{opacity:0.34;fill:#606060;enable-background:new    ;}
	.st4{fill:#A382AD;}
	.st5{fill:#774E80;}
	.st6{fill:#C79E81;}
	.st7{fill:#13110F;}
	.st8{fill:#FFFFFF;}
	.st9{fill:#27153C;}
	.st10{fill:#4F2E25;}
	.st11{fill:#24180F;}
	.st12{fill:#975449;}
	.st13{fill:#513835;}
	.st14{fill:#628E9F;}
	.st15{fill:#DDAD6F;}
	.st16{fill:#4C3059;}
	.st17{fill:#0A2F44;}
	.st18{fill:#825639;}
	.st19{fill:#151210;}
	.st20{fill:#131429;}
	.st21{fill:#040404;}
	.st22{fill:#94664A;}
</style>
<g id="Layer_9">
	<g>
		<defs>
			<path id="SVGID_1_" d="M275.9,72.4c0-27.2-22-49.3-49.3-49.3c-11.6,0-22.9,4.1-31.8,11.6c-24.6-10-51.7-12-77.5-5.7
				C102.1,6.4,71.5,0.5,48.9,15.7S20.4,61.5,35.6,84.1c0.8,1.2,1.7,2.4,2.7,3.6C2.9,147.9,23,225.3,83.2,260.6
				s137.6,15.2,172.9-44.9c19.9-33.9,22.9-75.1,8.1-111.6C271.8,95.3,275.9,84,275.9,72.4z"/>
		</defs>
		<clipPath id="SVGID_00000122689274918574643570000012669694415062170509_">
			<use xlink:href="#SVGID_1_"  style="overflow:visible;"/>
		</clipPath>
		<g style="clip-path:url(#SVGID_00000122689274918574643570000012669694415062170509_);">
			<circle class="st1" cx="147.2" cy="151.8" r="126.4"/>
			<path class="st2" d="M187.4,182.8c0.3,0,0.5-0.1,0.8-0.1h4.9c2,0,3.6,1.3,3.6,2.8s-1.6,2.8-3.6,2.8h-4.9c-0.3,0-0.5,0-0.8-0.1
				L187.4,182.8z"/>
			<path class="st3" d="M183.8,178.4c3.1,0.4,6.6,1.3,9.7,0.2c2.7-1,4.3-3.4,5.4-5.9c1.4-2.8,3.1-5.3,6.3-6.1
				c2.2-0.5,5.7-0.3,6.8,2.1c0.4,0.9,0.4,2-0.1,2.9c-0.5,0.9-1.3,1.5-2.3,1.7c-1.1,0.4-2.3-0.2-2.6-1.3c0,0,0,0,0,0
				c-0.1-0.4,0-0.8,0.1-1.2c0.1-0.1,0-0.3-0.1-0.3c-0.1,0-0.2,0-0.2,0c-0.6,0.3-1,1-0.9,1.7c0.1,0.4,0.2,0.7,0.4,1
				c1.3,2,4,2.5,6,1.2c0.6-0.4,1.1-1,1.4-1.6c1.1-2.5,0.9-5.2-1.5-6.8c-3.4-2.2-7.3-1.5-10.4,0.8c-2.5,1.8-3.7,4.4-5,7.1
				C194.9,178.6,188.4,179,183.8,178.4z"/>
			<path class="st3" d="M188.3,177.3c2.2-0.4,3.9-0.6,5.7-2.2c1.8-1.6,3-3.8,3.2-6.3c0.2-1.8-0.3-4.8-2.5-5.1c-1-0.1-2,0.2-2.8,0.8
				c-0.8,0.9-1.1,2.2-0.8,3.3c0,0.5,0.2,0.9,0.3,1.4c0.1,0.2,0.4,0.3,0.7,0.2c0.2-0.1,0.3-0.3,0.2-0.5c-0.1-0.6-0.1-1.1-0.1-1.7
				c0-0.7,0.4-1.4,1-1.8c1.1-0.5,2.2,0.7,2.5,1.6C197.2,171.7,192.6,176.4,188.3,177.3z"/>
			<path class="st3" d="M206,179.4c0.6-0.5,0.7-1.5,0.2-2.1c-0.1-0.1-0.1-0.1-0.2-0.2c-0.6-0.5-1.5-0.7-2.3-0.5
				c-0.7,0.1-1.2,0.9,0.1,1.9c0.1,0.1,0.1,0.2,0,0.3c0,0.1-0.1,0.1-0.2,0.1c-2.9-0.5-1.7-2.9-0.9-3.2c0.9-0.4,1.9-0.4,2.8-0.2
				c1,0.2,1.8,1,2,2c0.4,2.2-1.6,3.8-3.3,4.2c-1.3,0.3-2.6,0.3-3.9,0c-1.7-0.5-7.6-1.2-7.6-1.2s6.3,0.2,7.9,0.4
				S204.8,180.8,206,179.4z"/>
			<path d="M92.1,293.4c-5.7,4.4-8.2,11.6-9.1,18.5c-0.6,4.5-0.4,9-0.6,13.6l-0.8,15.6l-1.2,25.4l-1.1,21.9
				c-0.1,2.2-0.2,4.4-0.4,6.6l-1.2,12.7l-2.2,22.7L73,456.4l-2.2,22.5l-1.2,11.9v0.6c-0.1,0.6,1.7,0.3,1.8-0.2l0.8-8.3l2-20.3
				l2.5-25.7l2.4-24.2l1.6-15.9c0.2-1.7,0.3-3.4,0.4-5.1l0.9-18.5l1.2-25.6l1-19.6c0.4-8.6-0.3-17.5,3.2-25.7
				c1.3-3.3,3.5-6.2,6.2-8.5c0.3-0.3,0.1-0.5-0.2-0.6c-0.5-0.1-0.9,0.1-1.3,0.3L92.1,293.4z"/>
			<path class="st4" d="M200.4,131.5c0,0-11.7,5.7-15.2,10.8s-19.9,52-18.8,60.9s6.7,14.4,11.6,14.5c4.1,0,7.9-1.9,10.4-5.1
				c4.8-5.8,5-15,5-15l3-63.4"/>
			<path class="st4" d="M251.5,127.4c0,0,17,8.2,21.7,15.2c6.6,9.8,14.5,82.5-11.2,76.1c-20.3-5-20.4-55.8-20.4-55.8l4.7-27.4"/>
			<path class="st4" d="M258.1,220.4l-1.5-4.1l11.7-72l-15.7-10.6l-9.1-2.3l-0.2,1.6c-3.1,3.9-7.9,6.1-12.9,5.9
				c-1.6,0-3.2-0.2-4.9-0.4c-4.6-0.7-10.5-3.6-12.5-7.3c-0.1-0.1-7,1-7.7,1.1c-3.7,0.4-10.6,2.5-11.5,3.8c0,0-4.1,37.7-4.3,43.2
				c-0.2,3.8,4.6,14,3.5,37c-0.2,5.3-1.3,17-2.8,21.9c-0.9,3,1.1-8.8,0.2-5.8c5.6,3.9,5.4,15.9,11.5,19.1c8.6,4.4,18.2,6.4,27.6,7.7
				c8.9,1.2,18,2.4,26.8,0.4c3.8-0.9,7.4-2.2,10.9-3.9"/>
			<path class="st5" d="M239,159.5c3.3-1.6,18.5-20.7,18.5-20.7c5.8-6.7,8.8-1.6,2.4-10.3l-4.8-10.8c0,0,19.1-56.2-20.5-63.3
				c0,0-24.7-6.9-32.1,17.1c0,0-4,15.5-4,25.8c0,9.6,2.2,27.4,2.2,27.4"/>
			<path class="st5" d="M191.6,138.2c0,0,2.1,1.8,4.2,8.5c0.8,4.4,2.4,8.7,4.7,12.6c6.3,11.2,19.4,13.6,31.9,8.6
				c8.9-3.6,20.4-23.4,20.4-23.4l0.4-34.5l-12.1,3c0,0-5.7,18.6-25,17s-15.6-17.5-15.6-17.5l-1.7,13.6c-0.6,5.5-2.4,5.5-5.6,9.7
				L191.6,138.2z"/>
			<path class="st6" d="M201.9,83.2c0.2-3.7,2.9-11.4,2.9-11.4c0.1-0.4,1.7-5.9,1.9-6.2c5.9-1.9,14.2-4.5,20-2.5
				c5.6,1.9,18.5,6.6,18.1,13.9c-0.1,2.2-2.9,16.4-1.2,16.9c0,0.3,0,0.5-0.1,0.8c-0.2,2-0.2,4-0.1,6c0.9-0.9,1.6-1.8,2.3-2.8
				c0.4-0.7,0.2-1.6,0.6-2.2c1.1-1.5,3.2-0.8,4.3,0.3l0.2,0.3c1.5,2.4-1,9.2-2.4,11.2c-0.7,4.2-4.6,6.1-6.5,2.9l-0.7,1.6l-5.4,5.1
				c-4.7,4-13.1,10.3-19.8,9.7c-4.6-0.5-5.9-1.7-7.4-3.4c-2.3-2.6-3.4-5.4-5.1-8.3c-1.4-2.4-2.3-5-2.7-7.8c-0.5-2.4-0.4-4.9,0.2-7.3
				c0.3-1.6,0.5-3.3,0.6-5C201.9,93.2,201.7,86.9,201.9,83.2z"/>
			<path class="st7" d="M206.1,92.4c-0.6-0.3-1.3-0.3-1.8,0.1c-0.2,0.2-0.4,0.4-0.4,0.7c-0.2,0.5-0.1,1,0.2,1.5
				c0.4,0.5,1.1,0.7,1.6,0.4c0.7-0.3,1.1-1.1,0.9-1.8C206.6,93,206.4,92.6,206.1,92.4"/>
			<path class="st7" d="M211.5,94.8c-1-0.9-2.2-1.6-3.5-2.1c-3-0.8-5.2-0.4-6,0.6c1.8-0.4,3.8-0.4,5.6,0
				C208.9,93.7,210.2,94.2,211.5,94.8z"/>
			<path class="st7" d="M226.1,94.2c0.7-0.3,1.4-0.2,2,0.3c0.2,0.2,0.3,0.5,0.4,0.8c0.1,0.5-0.1,1-0.5,1.4c-0.5,0.4-1.2,0.5-1.7,0.2
				c-0.6-0.4-0.9-1.2-0.6-1.9C225.7,94.8,225.7,94.5,226.1,94.2"/>
			<path class="st7" d="M222.2,95.9c1.5-1.3,3.4-2.1,5.4-2.3c2.2,0,4.3,0.7,6,2c0,0-4.3-1.3-5.9-1.3C225.9,94.6,224,95.2,222.2,95.9
				z"/>
			<path class="st7" d="M234.4,92.3c-0.3-0.2-0.6-0.4-0.9-0.6c-2-1.1-4-2-6.2-2.6c-1.9-0.5-3.8-0.9-5.8-1.1c0.1-0.4-0.1-0.2,0.1-0.6
				s0.3-1,0.5-1.5c3.2,0.6,6.3,1.6,9.2,3c0.9,0.5,1.7,1.1,2.4,1.8c0.8,0.7,1.5,1.5,2.1,2.4C235.9,93.5,234.4,92.3,234.4,92.3z"/>
			<path class="st7" d="M201.1,89.2c0-0.1,0-0.1,0-0.2l0,0c0.4-0.4,0.9-0.7,1.4-1c2.5-1.1,5.2-1.8,7.9-2.2c0.2,0.7,0.5,1.4,0.7,2.1
				c-1.7,0-3.4,0.2-5.1,0.6c-1.6,0.4-3.1,0.9-4.6,1.6c-0.1-0.1-0.2-0.3-0.3-0.4c0-0.1-0.1-0.2-0.1-0.3
				C201.1,89.3,201.1,89.2,201.1,89.2z"/>
			<path class="st8" d="M244.8,96.8c0,0-3.4-21-24.3-23.7c-12.1-1.6-18.6,8.2-18.6,8.2s1.1-11.3,6.4-15.1s21.2-2.9,28.2,1.2
				S244.8,96.8,244.8,96.8z"/>
			<path class="st5" d="M254.9,82.1c0,0-3.9-23.9-23.9-26.6c-24.8-3.3-30,22.6-30,22.6l-1.6,19.5c0.3-5,0.4-9.6,2.2-14.3
				c0.5-2.8,0.1-10.4,8.7-14.5c4.6-2.2,10-2.2,14.9-1c4.5,1.1,9.5,3.3,11.9,7.6c2,3.6,3.3,7.5,3.8,11.5c0.8,5.4,0.1,13-0.9,18.3
				c-1,4.8-1.7,11.3-10.3,18.7c22.3-4.9,25.8-29.9,25.8-41.6L254.9,82.1z"/>
			<path class="st9" d="M243.6,61.7c4,4,6.3,9.9,7,15.4c1.1,8.6-1.8,17.6-4.8,25.6c-0.8,2.1-1.6,4.3-2.6,6.3c-0.2,0.3,0.6,0.3,0.7,0
				c2.5-5.4,4.5-11,5.9-16.8c1.2-4.3,1.8-8.9,1.7-13.4c-0.3-4.3-1.5-8.5-3.6-12.3c-1-1.9-2.2-3.6-3.6-5.1
				C244.1,61.1,243.4,61.4,243.6,61.7L243.6,61.7z"/>
			<path class="st9" d="M254.2,117.7c-1.2,3.1-2.6,6.1-4.1,9c-2.9,5.5-6.4,11.1-11.1,15.3c-2.6,2.3-5.8,4.3-9.4,4.5
				c-0.2,0-0.8,0.3-0.3,0.3c6.1-0.4,11-4.8,14.7-9.4c3.8-4.9,7-10.3,9.4-16c0.6-1.3,1.1-2.5,1.6-3.8
				C255,117.4,254.3,117.5,254.2,117.7L254.2,117.7z"/>
			<path class="st7" d="M233,95.6c0.7,0.2,1.4-0.1,1.6-0.8c-1.3,0.4-2.6,0.3-3.8-0.2L233,95.6z"/>
			<path class="st9" d="M234.9,118.2c-3.3,6.3-7.5,13.2-14.4,16c-3.5,1.4-7.5,1.3-10.9-0.2c-3.2-1.4-6.2-3.4-8.9-5.7
				c-0.2-0.2-0.9,0.1-0.6,0.4c2.9,2.6,6.2,4.6,9.8,6.1c3.3,1.3,6.9,1.4,10.2,0.1c7.5-2.7,12-9.9,15.5-16.7
				C235.8,117.9,235.1,117.9,234.9,118.2L234.9,118.2z"/>
			<path class="st9" d="M197.9,132c1.8,0.5,3.5,1.6,4.8,3c1.5,1.9,2.7,3.9,3.8,6.1c2,3.5,4.3,8.6,9.1,8.5c0.2,0,0.8-0.4,0.3-0.4
				c-2.5,0-4.4-1.7-5.8-3.6s-2.6-4.3-3.9-6.5c-0.9-1.7-2-3.4-3.2-4.8c-1.2-1.2-2.8-2.1-4.4-2.6C198.2,131.6,197.6,131.9,197.9,132
				L197.9,132z"/>
			<path class="st7" d="M214.4,106.3c-1,0.3-2,0.4-3,0.1c-1.2-0.2-2-1.2-1.9-2.4c0.2-0.7,0.5-1.5,0.9-2.2c0-0.1-0.3-0.1-0.4,0
				c-0.4,0.7-0.7,1.4-0.9,2.1c-0.1,0.6,0.1,1.3,0.5,1.7c0.8,0.8,2,1.1,3.1,1c0.6,0,1.2-0.1,1.8-0.3
				C214.8,106.3,214.6,106.2,214.4,106.3L214.4,106.3z"/>
			<path class="st7" d="M217.8,104.4c0.5,0,0.5,0.9,0.5,1.3c0,0.3-0.1,0.5-0.3,0.7c-0.3,0.2-0.6,0.3-1,0.3c-0.5-0.1-1-0.2-1.4-0.5
				c-0.1,0-0.2,0-0.2,0c0,0-0.1,0.1,0,0.1c0.5,0.2,1,0.4,1.5,0.5c0.5,0,0.9-0.1,1.3-0.3c0.3-0.2,0.5-0.4,0.6-0.8
				c0.1-0.3,0.1-0.6,0-0.9c-0.1-0.3-0.2-0.6-0.6-0.6c-0.1,0-0.2,0-0.2,0.1C217.8,104.3,217.8,104.3,217.8,104.4L217.8,104.4z"/>
			<path class="st10" d="M219.1,84.3c0,0-4.6,3.5,0.5,5.8C219.5,90.1,216,87.6,219.1,84.3z"/>
			<path class="st11" d="M213.7,110.2c2.5,0,7.9,1.6,9,2.6c0,0-2.9,3.3-8.6,3.2s-6.7-3.5-6.7-3.5S210.5,110.1,213.7,110.2z"/>
			<path class="st8" d="M220.4,111.7c0,0-2.9-0.3-5.3-0.3s-6,0.2-6,0.2s0.3-1.7,4.6-1.6C216,109.8,218.3,110.4,220.4,111.7z"/>
			<path class="st12" d="M214.1,115.3c2.7-0.3,5.4-2.8,8.6-2.6c0,0-0.9,5.1-7.7,4.9s-7.6-5.2-7.6-5.2
				C210.5,112.3,211.4,114.9,214.1,115.3z"/>
			<path class="st12" d="M210.8,108.8c1,0,2,0.2,2.9,0.5c1-0.2,2-0.4,2.9-0.4c1.3,0.1,6.9,3.4,6.2,3.8s-4.9-2-9.2-2.1
				s-5.9,2.2-6.5,1.8S209.4,108.9,210.8,108.8z"/>
			<path class="st13" d="M198.4,152.4L198.4,152.4l0.1-0.2L198.4,152.4z"/>
			<path class="st4" d="M282,277.6c-0.8-5-1.8-10-2.9-14.8l0,0c-2.2-9.6-5-18.9-8.6-28.1l-5.8-18.8l-0.9-10.9L206,215.7
				c-4.2-3.6-7.9-8.1-12.9-8.3c3.2,12.1-8.3,39.9-9.1,46.2c0.2,0.5-4.7,55.9-0.2,43.9l2.8,61.1c0.2,11.1,1,31.1,2.4,42.2
				c1,7.9,0.4,11.7,1.2,19.6c6.7,3.8,17.3,8,23.1,8.2c20.2,0.4,40.3-3.1,59.2-10.2C272.5,418.4,282.6,281.6,282,277.6z"/>
			<path class="st4" d="M192.8,199.4c0,0,1.5-6.1,4.7-25.1s3.7-26.5,3.7-26.5l0.6-3.3l-12.5-4.6l-1.6,3.4c0,0-15,35.2-16.9,43.5"/>
			<path class="st9" d="M193,199.4c1.4-5.8,2.4-11.7,3.4-17.6c1.8-10.5,3.7-21.1,4.8-31.7c0.2-1.9,0.5-3.7,0.8-5.5c0,0,0,0,0-0.1
				l-12.5-4.6c-0.1,0-0.5,0-0.5,0.1c-2,4.2-3.8,8.4-5.6,12.7c-3.3,8-6.6,16.1-9.7,24.3c-1.3,3.2-2.4,6.5-3.3,9.9
				c0,0.1,0.5,0,0.6-0.1c0.8-2.9,1.7-5.8,2.8-8.6c1.5-4.1,3.1-8.1,4.7-12.1c2.8-7,5.7-13.9,8.6-20.8c0.8-1.8,1.6-3.6,2.5-5.4
				L189,140l11.2,4.2c0.3,0.1,1.1,0.3,1.2,0.5s-0.2,1.1-0.3,1.4c-0.1,0.6-0.2,1.1-0.3,1.7s-0.1,1.1-0.1,1.6
				c-1.3,13.8-3.8,27.5-6.4,41.1c-0.6,3-1.1,6-1.8,9C192.5,199.6,193,199.5,193,199.4L193,199.4z"/>
			<path class="st4" d="M265.7,219.1c0,0-15.9-0.1-22.1-17.3c-4.2-11.5-15.4-54.9-15.4-54.9l2.9-1.5l11.1-5.8l9.7,21
				c0,0,18,26.3,18.2,38.6"/>
			<path class="st9" d="M265.8,218.9c-5.4-0.1-11-2.8-14.9-6.3c-6.3-5.8-8.3-14.3-10.6-22.2c-2.5-8.7-4.9-17.4-7.2-26.1
				c-1-3.7-2-7.3-2.9-11c-0.3-1.3-0.7-2.6-1-3.8c-0.1-0.7-0.3-1.4-0.6-2.1c-0.1-0.1-0.1-0.3-0.1-0.4c0,0.3-0.3,0.2,0,0.1
				c0.2-0.1,0.4-0.2,0.6-0.3l1.3-0.7l2.9-1.5l9.1-4.7l-0.4-0.1c3.2,6.9,6.2,13.9,9.5,20.7c1.1,1.9,2.3,3.7,3.5,5.5
				c3.1,5,6.1,10.1,8.8,15.4c1.6,3.1,3,6.3,4.2,9.5c1.1,2.7,1.7,5.5,1.9,8.4c0,0.3,0.6,0.2,0.6-0.1c-0.2-5.4-2.6-10.7-4.9-15.5
				c-2.6-5.4-5.5-10.7-8.7-15.8c-1.5-2.4-3.4-5-4.7-7.3c-0.6-1-0.9-2.1-1.4-3.1l-3.1-6.6l-5.2-11.3c-0.1-0.2-0.3-0.1-0.4-0.1
				l-14.1,7.3c-0.1,0.1-0.2,0.1-0.2,0.2c2.7,10.3,5.4,20.5,8.2,30.7c1.8,6.6,3.7,13.3,5.8,19.9c0.8,3,2,5.9,3.4,8.6
				c1.9,3.4,4.5,6.4,7.6,8.6c3.7,2.7,8.1,4.2,12.7,4.4C265.8,219.3,266.2,218.9,265.8,218.9L265.8,218.9z"/>
			<path class="st9" d="M263.2,143.2c-1.3,0.4-2.5,1.1-3.5,2c-2.5,2.2-4.3,5.2-5.1,8.5c-0.8,3.2-1.1,6.5-0.9,9.8
				c0,0.3,0.5,0.2,0.5,0c-0.3-6.9,1-15.9,7.9-19.4c0.4-0.2,0.8-0.4,1.2-0.5C263.6,143.5,263.5,143.2,263.2,143.2L263.2,143.2z"/>
			<path class="st6" d="M226.8,116.7c-0.2,1.9,2.5,6.4,2.5,6.4s-1.4,11.9-0.9,14.4c0.1,0.6,2.9,2.5,3.5,4.1c2.1,5.1,0.9,3.1,0.9,3.1
				l9.5-5.1l-0.5-1.1l1.3-12.2l-0.1-11.7l-6.7-7.5c-0.1,0-0.1,0.1-0.2,0.1c-0.5,0.4-0.6,1.1-0.2,1.6l-2.6-2.6
				c-2.1,1.3,0.5,5.6,0.5,5.6l-3.2-3.6c-1.8,1.6,0,4.6,0,4.6l3.1,5.4c0,1.6-0.1,3.2-0.4,4.8c-0.4,1.2-0.6,2.4-0.6,2.4l-0.6-4.1
				l-4.3-7.3C227.2,114.8,226.8,115.7,226.8,116.7z"/>
			<path class="st10" d="M229.3,123c-0.7-1.3-1.4-2.6-1.9-3.9c-0.6-1.5-1-3.8,0.5-5h-0.4l3.6,6.1c0.4,0.5,0.6,1.1,0.8,1.7l0.5,3.5
				c0,0.1,0.4,0,0.5-0.1c0.2-1,0.6-2,0.7-3.1c0.1-0.9,0.2-1.9,0.2-2.8c0.1-0.5,0.1-1,0-1.5c-0.2-0.5-0.5-1-0.8-1.4
				c-0.7-1.3-1.5-2.6-2.2-3.9s-1.4-3.3-0.1-4.6l-0.4,0.1l3.2,3.6c0.1,0.1,0.5,0,0.4-0.2c-0.8-1.4-2.2-4.3-0.5-5.5l-0.4,0.1l2.6,2.6
				c0.1,0.1,0.5,0,0.4-0.1c-0.4-0.5-0.3-1.1,0.2-1.5c0,0,0.1-0.1,0.1-0.1H236c0.9,1,1.8,2,2.8,3c0.1,0.1,0.5-0.1,0.4-0.2
				c-0.9-1-1.9-2-2.8-3c-0.1-0.1-0.3,0-0.4,0c-0.6,0.3-0.9,1-0.6,1.7c0,0,0,0.1,0.1,0.1l0.4-0.2l-2.6-2.6c-0.1-0.1-0.3,0-0.4,0.1
				c-1.8,1.3-0.4,4.2,0.4,5.7l0.4-0.1l-3.1-3.6c-0.1-0.1-0.3,0-0.4,0.1c-2.3,2.2,0.7,6,1.9,8.1c0.4,0.6,0.7,1.2,1,1.8
				c0.1,0.3,0.2,0.7,0.1,1.1c0,1.1-0.1,2.2-0.2,3.3c-0.2,1-0.5,2-0.7,3.1l0.5-0.1l-0.5-3.5c-0.1-0.6-0.4-1.2-0.8-1.7l-3.5-6
				c-0.1-0.1-0.3,0-0.4,0c-1.3,1.1-1.3,3.1-0.8,4.5c0.6,1.6,1.3,3.1,2.1,4.5C229,123.3,229.4,123.1,229.3,123L229.3,123z"/>
			<path class="st10" d="M237.7,122c0.1-1.2,0.1-3,0.2-4.8v-0.6v-0.1c-1.1-1.4-2.1-2.6-2.8-3.5c-0.4-0.5-0.8-0.9-1.3-1.3
				c0.3,0.6,0.6,1.1,1,1.6c0.6,0.9,1.6,2.2,2.7,3.6l-0.1-0.2c0,0.2,0,0.3,0,0.5c0,1.9,0,3.6,0,4.8c0,0.7,0,1.3,0.1,2
				C237.7,123.3,237.8,122.7,237.7,122z"/>
			<path class="st10" d="M240.7,118.7c0.1-1.1,0.1-2.7,0.2-4.5v-0.1l-0.1-0.1l-0.4-0.4c-1.3-1.4-2.4-2.7-3.3-3.6
				c-0.4-0.5-0.9-1-1.5-1.4c0.3,0.6,0.7,1.1,1.2,1.6c0.8,1,1.9,2.2,3.2,3.7l0.4,0.4l-0.1-0.2c0,1.8,0,3.4,0,4.5c0,0.6,0,1.2,0.1,1.8
				C240.7,120,240.7,119.3,240.7,118.7z"/>
			<path class="st6" d="M205.7,117c0.2,1.9-2,6.7-2,6.7s1.3,11.6,0.9,14.1c-0.1,0.6-2.9,2.5-3.4,4.2c-1,3.1-0.7,2.5-0.7,2.5
				l-10.1-3.5l0.8-2l-1.6-12.2l-0.2-11.7l6.5-7.6l0.2,0.1c0.5,0.4,0.6,1.1,0.3,1.6l2.6-2.6c2.1,1.3-0.4,5.6-0.4,5.6l3.1-3.7
				c1.9,1.6,0.1,4.6,0.1,4.6l-3,5.5c0,1.6,0.2,3.2,0.5,4.8c0.4,1.2,0.7,2.4,0.7,2.4l0.5-4.1l4.1-7.4
				C205.2,115.1,205.6,116,205.7,117z"/>
			<path class="st10" d="M197.7,108l1.5-1.4l-0.4,0.1c1.8,1.2,0.5,4.1-0.4,5.5c-0.1,0.1,0.4,0,0.4,0l3.1-3.7l-0.4,0.1
				c1.4,1.2,0.8,3.2,0.1,4.6s-1.4,2.6-2.1,3.9c-0.3,0.5-0.6,1-0.8,1.5c-0.1,0.4-0.1,0.9,0,1.3c0,1,0.1,2,0.3,3c0.2,1,0.6,2,0.8,3.1
				c0,0.1,0.4,0,0.4-0.1l0.4-3.4c0.1-0.7,0.4-1.3,0.8-1.9l3.4-6.2l-0.4,0.1c0.5,0.4,0.8,0.9,0.9,1.5c0.2,0.6,0.3,1.2,0.3,1.8
				c0,0.2,0,0.4,0,0.6c0.2,0.3-0.6-0.4,0.3,0.1c-0.1-0.1-0.5,0.1-0.4,0.2c0.4,0.3,0.6-0.4,0.7-0.7c0.1-1.2-0.2-2.9-1.2-3.7
				c-0.1-0.1-0.4,0-0.4,0.1l-3.5,6.3c-0.3,0.5-0.6,1.1-0.7,1.7l-0.4,3.5l0.4-0.1c-0.2-1-0.6-2-0.8-3c-0.2-1-0.3-2.1-0.3-3.2
				c-0.1-0.4-0.1-0.8,0-1.2c0.3-0.6,0.6-1.3,1-1.8c1.1-2.1,4.1-6,1.8-8.2c-0.1-0.1-0.4,0-0.4,0.1l-3.1,3.7h0.4
				c0.8-1.4,2.1-4.4,0.4-5.6c-0.1-0.1-0.3,0-0.4,0.1l-1.5,1.2C197.2,108.1,197.7,108.1,197.7,108z"/>
			<path class="st10" d="M194.8,122.5c-0.1-1.2-0.2-3-0.3-4.8v-0.5v-0.1l0.1-0.1c1.1-1.4,2-2.7,2.7-3.6c0.4-0.5,0.8-1,1.2-1.4
				c-0.3,0.6-0.6,1.1-1,1.6c-0.6,0.9-1.6,2.2-2.6,3.7v-0.2c0,0.2,0,0.3,0,0.5c0.1,1.9,0.1,3.6,0.1,4.8c0.1,0.7,0,1.3-0.1,2
				C194.9,123.9,194.8,123.2,194.8,122.5z"/>
			<path class="st10" d="M191.8,119.3c-0.1-1.1-0.2-2.7-0.3-4.5v-0.1l0.1-0.1l0.4-0.4c1.2-1.4,2.4-2.8,3.2-3.7
				c0.4-0.5,0.9-1,1.4-1.4c-0.3,0.6-0.7,1.1-1.2,1.7c-0.8,1-1.9,2.3-3.1,3.8l-0.4,0.4l0.1-0.2c0.1,1.8,0.1,3.4,0.1,4.5
				c0.1,0.6,0,1.2-0.1,1.8C191.9,120.6,191.8,119.9,191.8,119.3z"/>
			<path class="st13" d="M183.3,114.9L183.3,114.9l0-0.1L183.3,114.9z"/>
			<path class="st13" d="M155.1,104.2C155.1,104.2,155.1,104.2,155.1,104.2l-0.2,0L155.1,104.2z"/>
			<path class="st6" d="M147.8,126.3l1.9-5.3c0,0-0.2-5.7,0.3-7.6s4.6-8.5,4.9-8.8s1.1-10,2.9-10.3s3.4,0.5,3.7,2.9
				s-1.9,8.3-0.6,8.7c1,0.2,2.1,0.2,3.1,0.1c0,0-0.4-2.8,0.7-4.1s3.3-0.5,3.3-0.5l0.4,1.1l1-1.8c0,0-0.4-5.8,1.9-6.6
				c0.1-1.3,0.5-2.6,1.2-3.8c0.6-1,1.9-1.2,2.9-0.6c0,0,0,0,0,0c0.2,0.1,0.3,0.2,0.4,0.4l0,0l0.1,13.4l-6.9,16.2
				c0,0-5.8,4.5-6.9,5.6l-1.9,5.3l-1-0.2c-4.1-0.7-9,0.8-10.9-3.4L147.8,126.3z"/>
			<path class="st10" d="M161.2,106.2c0.1-0.2-0.8-0.5-1.8-0.4s-1.8,0.5-1.8,0.6s0.8,0,1.8,0S161.2,106.4,161.2,106.2z"/>
			<path class="st10" d="M174.7,104c-0.3-0.9-0.5-1.8-0.6-2.7c-0.3-1.7-0.8-4.1-1.2-6.8l0.3,0.3c-0.5,0-1-0.2-1.4-0.1
				c-0.4,0-0.8,0.2-1.1,0.6c-0.5,0.6-0.8,1.4-0.8,2.2c-0.1,0.8-0.1,1.5,0,2.3c0.2,1.5,0.4,2.9,0.6,4c0.3,1.2,0.4,2.5,0.5,3.7
				c-0.5-1.2-0.8-2.4-1-3.6c-0.2-1.1-0.5-2.5-0.7-4c-0.1-0.8-0.1-1.6,0-2.5c0-0.9,0.4-1.8,1-2.6c0.4-0.5,1-0.7,1.6-0.8
				c0.5,0,1,0.1,1.6,0.2h0.2v0.2c0.4,2.8,0.8,5.2,1,6.9C174.7,102.2,174.8,103.1,174.7,104z"/>
			<path class="st10" d="M163.6,119.3c-0.1-0.2-0.1-0.4-0.1-0.5c0-0.5,0-1,0-1.5c0.2-1.8,0.7-3.6,1.4-5.3v0.1c0-2.6-1.9-5.6-0.9-9.3
				c0.3-0.8,1-1.5,1.8-1.7c0.8-0.2,1.6-0.2,2.3,0h0.2l0.1,0.2c0.8,3.5,1.4,6.5,1.8,8.7c0.2,0.8,0.3,1.7,0.1,2.6
				c-0.1,0.6-0.2,0.9-0.3,0.9c0-0.3,0-0.6,0.1-0.9c0.1-0.8,0-1.7-0.3-2.5c-0.5-2.1-1.3-5.1-2.1-8.6l0.2,0.2c-0.6-0.2-1.3-0.2-1.9,0
				c-0.6,0.2-1.2,0.7-1.4,1.3c-0.3,0.8-0.4,1.6-0.3,2.3c0.1,0.8,0.2,1.6,0.3,2.4c0.1,0.8,0.3,1.4,0.5,2.2c0.1,0.7,0.2,1.4,0.2,2.1
				v0.1v0.1c-0.8,1.6-1.3,3.3-1.6,5.1C163.6,118.6,163.7,119.3,163.6,119.3z"/>
			<path class="st10" d="M149.7,121c1.7,1.5,4.1,2.2,6.4,1.8C156.1,122.8,151.1,125,149.7,121z"/>
			<path class="st14" d="M97.1,106.8c0,0,9.6,3.4,15.9,9.2c8.1,7.3,18.2,38.4,22.1,47.3s11.4,26.4,11.4,26.4L123.2,214l-28.5-36.1
				l1.4-71.2L97.1,106.8z"/>
			<path class="st15" d="M80.3,34L80.3,34c1.4-0.1,2.5,1,2.6,2.3l0.5,8.2c0.1,1.4-1,2.5-2.3,2.6l0,0c-1.4,0.1-2.5-1-2.6-2.3L78,36.6
				C77.9,35.2,78.9,34.1,80.3,34z"/>
			<path class="st16" d="M69,117.2c0.3-6.7,1.1-13.3,2.2-19.9c1-5.5,2-11.6,6.1-15.8c0.7-0.7-0.9-0.8-1.3-0.3
				c-4,4.1-5.2,9.9-6.2,15.4c-1.2,6.9-2.1,13.8-2.4,20.8C67.4,118.1,69,117.8,69,117.2L69,117.2z"/>
			<path class="st15" d="M70.4,51.1L70.4,51.1c1.2,0.7,1.6,2.2,0.9,3.4l-4.1,7.2c-0.7,1.2-2.2,1.6-3.4,0.9l0,0
				c-1.2-0.7-1.6-2.2-0.9-3.4L67,52C67.7,50.8,69.2,50.4,70.4,51.1z"/>
			<path class="st17" d="M13.7,258l-1,23.3c-0.3,15.5,3.1,26.1,7.4,41l9.1,63c0,0,0,27.4-2.8,50c-2.4,19.7,3.8,54.9,3.8,54.9
				l6.8,1.3c6.1,1.2,12.4,1.4,18.6,0.7l13.4-1.5l12.5-116.1l9.2-71.1l12.6-42.7L13.7,258z"/>
			<path class="st17" d="M113.9,258l-8.7,125.9c0,5.5-2.2,10.5-4.7,36.9l-4.8,45L94,485.4l-3.9,0.7c-5.3,1.1-10.8,1.4-16.2,1
				l-11.8-0.5l13.1-226L113.9,258z"/>
			<path class="st6" d="M51.7,77.6c0.7,3.9,0.8,7.8,0.5,11.8c-0.9,9.4-8.7,14.3-8.7,14.3l35.9,18L91.9,108c0,0-8.1-4.2-8.4-6
				s2.5-15.8,2.5-15.8"/>
			<path class="st18" d="M51.8,78.6C51.8,78.7,51.8,78.7,51.8,78.6C51.8,78.7,51.8,78.7,51.8,78.6z"/>
			<path class="st6" d="M74.3,98.4l9.4,1H88c1.8,0.1,3.4-0.9,4.2-2.5c1.8-3.5,2.4-5.3,2.6-5.7c1.5-2.7,2.7-5.6,3.7-8.5
				c0.8-2.6,1.8-4.1,2.2-7.1c0.3-2.3,0.4-3.8-0.8-7.6c-0.3-0.9-0.3-1.9,0-2.9c0.5-2.1,0.8-4.6,1.4-7.4c0.1-0.5,0.2-1,0.2-1.5
				c0,0,0.7-11.9-1.3-16.1s-4.1-8.7-7.2-9.5s-13.5,1.9-13.5,1.9l-12.7-2.1L56,35.4l-5.8,13l0.5,15.3l1.1,14.9"/>
			<path class="st19" d="M53.9,41.8c-0.7-6.8,5.4-9.2,7.9-10.4c2.2-1,8.2-2.8,12.7-2.1c1.9,0.3,0.9,4.3,2,5c0.3,0.1,4.2,1,5.7,1.3
				c1.9,0.5,3.9,0.6,5.8,0.3c1.1-0.4,2.2-0.4,3.3-0.2c2,0.3,2.9-4.5,6.8,0.1l0.2-0.2c-5-6.8-11.7-6.8-19.7-8.1
				c-0.8-0.1-1.7-0.3-2.6-0.3c-12.8-1.1-12.4-1-20.8,7.3c-4.9,4.8-7.8,9.5-7.8,12.5v0.7c0,3.1-3.3,11.4-2.2,13.1
				c0.7,1.1,2.8,5.9,4.6,10l6.1,0.2c-0.1-1.2-0.4-11-0.5-12.2"/>
			<path class="st6" d="M52,78.8c-5,4.7-5.8-3.5-5.8-3.5c-3.3-4.2-3.2-8.7-2.9-11.7s3.5-2.9,3.5-2.9c2.8,0.4,4.4,1.1,6.4,10.7"/>
			<path class="st19" d="M89.6,33c-4.6-0.2-16.5-3.5-22.7-4c-2.6-0.2-11.2,6-12.3,7.5c-2.6,3.3,3.2,11-1.4,21.5
				c-1.5,3.5-3.4-2.7-5.3-0.4s-2.6,3.2-2.6,3.2c-1.2-10.2-1.2-9.8,1.2-19.8S59.8,26.8,65.1,26s22.2,1.2,26.7,3.4"/>
			<path class="st20" d="M50.6,70.5c-0.6-1.4-1.3-2.8-2.2-4.1c-0.4-0.7-0.9-1.2-1.5-1.7c-0.2-0.2-0.5-0.3-0.8-0.4
				c-0.4-0.1-0.6,0.2-0.7,0.5c-0.6,1.2-0.7,2.7-0.4,4c0,0.1,0.5,0,0.5-0.1c-0.3-1.1-0.2-2.2,0.1-3.2c0.1-0.4,0.3-0.7,0.5-1l-0.4,0.1
				l0,0h0.2c0.2,0.1,0.4,0.2,0.6,0.3c0.9,0.7,1.6,1.6,2.1,2.6c0.6,1,1.1,2.1,1.6,3.2C50.2,70.8,50.6,70.7,50.6,70.5L50.6,70.5z"/>
			<path class="st20" d="M49.5,71c-2-0.2-0.9,2.6-1.1,3.6c0,0.1,0,0.1,0,0.2s0,0.1,0,0.1l0,0l0.2-0.1c0,0-0.1-0.1-0.1-0.1
				c-0.1-0.1-0.1-0.2-0.2-0.3c-0.2-0.6-0.4-1.2-0.5-1.8c-0.2-0.8-0.2-1.6-0.1-2.4c0.1-0.9,0.4-2.2,1.4-2.6c0.3-0.1,0-0.3-0.2-0.2
				c-0.8,0.4-1.4,1.3-1.5,2.2c-0.2,0.7-0.2,1.3-0.2,2c0.1,0.8,0.2,1.6,0.4,2.4c0.1,0.3,0.2,0.9,0.6,1.1c0.3,0.1,0.6,0,0.7-0.3
				c0.1-0.3,0.1-0.7,0.1-1c0-0.5-0.5-2.6,0.4-2.5C49.5,71.3,49.8,71,49.5,71L49.5,71z"/>
			<path class="st19" d="M76.3,60.8c-0.7-0.3-1.4-0.2-2,0.3c-0.3,0.2-0.5,0.5-0.6,0.8c-0.2,0.6,0,1.2,0.4,1.7
				c0.5,0.6,1.3,0.7,1.9,0.5c0.8-0.4,1.2-1.3,1-2.1C76.9,61.4,76.6,61.1,76.3,60.8"/>
			<path class="st19" d="M96.6,62.2c0.7-0.2,1.4,0.1,1.9,0.6c0.2,0.3,0.4,0.6,0.4,0.9c0.1,0.6-0.2,1.2-0.7,1.6
				c-0.6,0.5-1.4,0.5-2,0.1c-0.7-0.5-1-1.5-0.6-2.3C95.8,62.6,96.1,62.3,96.6,62.2"/>
			<path class="st19" d="M90.4,64c0,0,3.2-2.4,5.3-2.3c3,0.2,3.7,0.9,4.6,2.5c-1.1-1-2.4-1.6-3.9-1.8C94.3,62.3,90.4,64,90.4,64z"/>
			<path class="st19" d="M80.8,63c0,0-4.1-2.8-6.2-3c-3-0.2-6.7,1.5-7.7,2.9c0,0,4.8-2.4,7-2.2S80.8,63,80.8,63z"/>
			<path class="st19" d="M82.6,50.2c0.2,1.4,0.2,2.9,0,4.3c-1.3,0.2-2.8-0.3-4.1-0.2c-2.5,0.1-5.1,0.1-7.4,1c-1.1,0.4-2.1,0.9-3,1.7
				c-0.3,0.2-0.9,1.2-1.4,1.1c-0.2,0-0.1-1-0.1-1.1c0.3-1.9,1.7-3,3.7-3.8C74.1,51.5,78.3,50.5,82.6,50.2"/>
			<path class="st19" d="M102.6,56.1l-1-0.8c-1.9-1.4-4-2.6-6.2-3.5c-0.6-0.2-2.8-1.3-3.3-1c-0.3,0.2-0.4,1.5-0.5,1.9
				c-0.2,0.5-0.2,1.1-0.2,1.7c0.2,0.5,0.6,0.4,1.1,0.4c0.7,0,1.3,0.1,2,0.3c2.1,0.4,4.1,1.1,5.9,2.1l1,0.7
				C102.4,57.3,102.8,56.4,102.6,56.1z"/>
			<path class="st21" d="M65.9,59.5l0.6,2.3c0.6,2.2,1.4,4.2,2.4,6.2c0.8,1.4,10.2,2.5,12.1,1.6s3.2-6.2,3.8-7.3l3.8,0.4
				c0.2,1.6,1.1,6.7,1.8,7.4s5,0.9,5.5,0.9s1,0,1.6,0c1.6,0,3.6-0.2,4.3-0.7c1-0.8,2.2-4.1,3.2-7.2l0.2-0.5c0-0.1,0.1-0.2,0.1-0.2
				l0,0l0.2-0.6c-5.3-2.9-12.4-2.9-16.9-0.1v0.1l-3.7-0.5c-4-3-11.1-4.9-16.3-3.2l0,0l-14.5,3.1l-0.1,1.4L65.9,59.5z M90.9,69.6
				c-0.4-0.4-1.2-4-1.6-6.8c3.9-2.4,10.3-2.4,15.1-0.1v0.1c-0.6,1.7-2,6.1-3,6.9C100.2,70.7,91.6,70.3,90.9,69.6L90.9,69.6z
				 M70.1,67.7c-1.5-2.6-2.5-5.3-3.1-8.2c4.7-1.7,13,0,16.9,2.8c-0.8,2.2-1.8,6-3.2,6.6C78.7,69.9,70.6,68.6,70.1,67.7L70.1,67.7z"
				/>
			<path class="st14" d="M49.3,96.4L49.3,96.4c-7,3.1-32.1,13.7-36.9,19.6C5.2,124.9,35,150.9,36,158.2c0.5,3.6,3.7,30.1,0.6,50.8
				c-2.1,13.8-3.3,27.6-3.6,41.5l22.3,2.8c10.9,1.4,22,1.2,32.8-0.5l28.7-4.8c-0.7-14.2,0-26.4-1.7-45.1l-1.7-60.7l-5-27
				c0,0-7.3-5.8-8-7.2L84.1,102c0,0,5,8.5-6.1,10.1c-11.4,1.7-15.1-2.4-23.8-9C54.2,103.1,50.3,100.4,49.3,96.4z"/>
			<path class="st14" d="M21.3,153.1c0,0,5.1,47.6,3.5,61.5s-4.7,41.6-3.6,50.5s41.2,13.5,60.4,11.4s40.3,6.3,35.3-30.9
				c-1.3-10-42.4-102.1-42.4-102.1L21.3,153.1z"/>
			<path class="st19" d="M90.9,99.6l1-1.8c0,0-16.3,1.9-19.5,0.9c-8.2-2.6-14.3-14.9-14.3-14.9c1.3,3.8,3.4,7.3,6,10.4
				c4.5,5.3,5.6,6,10.6,6.1c3.8,0.1,10.7,0.4,13.8,0.5C89.5,101,90.4,100.5,90.9,99.6z"/>
			<path class="st19" d="M43.5,62.8c0,0-2.5-5.2-2.4-13.5S42,29.7,51.8,25.5c1.7-0.7,3.6-1.2,5.4-1.5c0,0,6.5-6.5,24.2-2.7
				c12.5,2.6,17.3,7.9,18.2,17.5c0,0-3.4-5.1-4.4-4.6s-2,2.9-6.3,3.2S78.1,37,75.3,35.2s-7.7-3.7-10.6-3.4c-7,0.8-7.9,6.1-8.5,9.2
				s-2.6,14-6,15.4c-1.9,0.7-3.3,2.4-3.6,4.4L46,61C45,61.3,44.1,62,43.5,62.8L43.5,62.8z"/>
			<path class="st19" d="M58.1,83.9c7.6,9.4,12.3,12.1,15.3,12.4s5.2,1.3,7.4,0.4c2.6-1,3.4-2.3,4-1.8c0.3,0.2,1.3,1.9,1.6,2.1
				c0.6,0.5,3.4,0.6,4.1,0.3c1.8-0.7,2.3-1.9,3.3-3.8c-0.8,1.9-1.4,4.6-3.2,5.5c-1.1,0.6-2.8,0.3-4.1,0.3c-2.8,0-5.4,0-8.2,0
				c-2.4,0-4.9,0-7.2-0.8c-3.8-1.4-7.9-6.7-10.3-10.2L58.1,83.9z"/>
			<path class="st14" d="M35.4,157.6l-2.9-52.8c0,0-20.4,5.7-26.4,19.8c-5.4,15.1-12.2,65.6-12.2,75.5c0,30,5.1,52.1,12.4,82.8
				l20.9-3l-1.8-81.2L35.4,157.6z"/>
			<path class="st7" d="M85.3,76.7c1.4,0.7,2.9,0.9,4.4,0.5c0.7-0.2,1.2-0.6,1.6-1.1c0.3-0.5,0.3-1.1,0.2-1.6
				c-0.1-0.7-0.4-1.4-0.6-2.2c-0.1-0.2-0.4-0.1-0.4,0.1c0.2,0.6,0.4,1.1,0.5,1.7c0.2,0.5,0.2,1,0.1,1.6c-0.4,1.3-2.2,1.5-3.4,1.4
				c-0.8-0.1-1.5-0.3-2.3-0.6C85.4,76.4,85.1,76.6,85.3,76.7z"/>
			<path class="st7" d="M82,73.9c-0.3,0-0.7,0.1-0.9,0.4c-0.2,0.3-0.3,0.7-0.3,1c0,0.3,0.1,0.7,0.2,0.9c0.3,0.3,0.8,0.6,1.3,0.6
				c0.3,0.1,0.6,0.1,0.9,0c0.4-0.1,0.7-0.2,1.1-0.3c0,0,0.2,0,0.2-0.1s-0.1,0-0.2,0c-0.5,0.2-1,0.3-1.5,0.3c-0.4,0-0.9-0.2-1.2-0.4
				c-0.4-0.4-0.6-1-0.4-1.6c0-0.2,0.1-0.3,0.2-0.4c0-0.1,0.1-0.1,0.1-0.2h0.1c0,0-0.1,0,0,0c0.1,0,0.2-0.1,0.3-0.1
				C82,74,82.1,73.9,82,73.9L82,73.9z"/>
			<path class="st14" d="M115.2,211.9c0,0-3.9-18.1-4-24.9c-0.1-4.5,12.9-11.9,12.6-16.4l16-32.6c1.1-3,6.5-14.6,7.4-13.9v0.2
				c3.3,3.5,9,5,13.6,5.1l1.8,0.1c1.2,0.8-2.9,14.5-3.6,17.3c-2.8,12.3-7.9,32.4-11.1,43.4c-2.3,7.7-4.9,23.7-17.9,26
				C119.9,218,115.2,211.9,115.2,211.9z"/>
			<path class="st20" d="M120.9,186.9c-1.1-5.7,0.9-11.8,2.9-17.1c2-5.4,4.8-10.5,8.2-15.2c0.2-0.3-0.5-0.2-0.7,0
				c-3.5,4.7-6.2,10-8.3,15.5c-2,5.2-4,11.4-2.9,17.1C120.2,187.4,121,187.3,120.9,186.9L120.9,186.9z"/>
			<path class="st10" d="M85.6,49.5c0,0,4.7,3.8-0.6,6C85,55.5,88.8,53,85.6,49.5z"/>
			<path class="st11" d="M85.8,80.9c-2.7-0.2-8.8,1.1-10,2c0,0,2.9,3.8,9.1,4.2s7.5-3.1,7.5-3.1S89.2,81.1,85.8,80.9z"/>
			<path class="st8" d="M78.4,82.2c0,0,3.2-0.1,5.8,0.1s6.5,0.7,6.5,0.7s-0.2-1.9-4.9-2.2C83.3,80.6,80.7,81.1,78.4,82.2z"/>
			<path class="st22" d="M84.9,86.8c-2.9-0.6-5.7-3.6-9.1-3.6c0,0,0.6,5.6,7.9,6.1s8.7-5,8.7-5C89,83.8,87.8,86.5,84.9,86.8z"/>
			<path class="st22" d="M89.1,80c-1.1,0-2.2,0-3.2,0.3c-1-0.3-2.1-0.6-3.2-0.7c-1.4,0-7.8,3.1-7.1,3.6s5.6-1.8,10.2-1.5
				s6.2,2.9,6.9,2.5S90.5,80.2,89.1,80z"/>
			<path class="st19" d="M84.9,78.5l-0.1,0.9c0,0.3-0.2,0.5-0.4,0.5c-1.7,0.4-7.9,2.2-9.5,2.4h-0.4c-0.6,0-0.5-0.8,0-1.1
				c1.3-0.7,2.6-1.3,4-1.8c1.9-0.7,3.8-1.2,5.8-1.6c0.3,0,0.6,0.2,0.7,0.5C84.9,78.4,84.9,78.5,84.9,78.5z"/>
			<path class="st19" d="M87.6,78.5l-0.2,0.9c0,0.2,0.1,0.4,0.3,0.6c1.2,0.6,5.1,2.9,6.3,3.2c0,0,0.5,0.2,0.5,0.2h0.3
				c0.4,0,0.3-1.1-0.1-1.4c-0.8-0.7-1.6-1.4-2.5-2c-1.2-0.8-2.6-1.5-3.9-2C87.9,77.9,87.6,78.2,87.6,78.5z"/>
			<path class="st7" d="M202.4,93.3c-0.6,0.3-1.3,0.1-1.7-0.4c0,0,0.9,0.7,2.6-0.4L202.4,93.3z"/>
			<path class="st20" d="M116.5,145.4c-0.9,8.3-1.3,16.6-1.3,25c-0.2,9.6-0.1,19.1-0.2,28.7c0,4.3,0,8.6-0.2,12.9
				c0,0.4,0.7,0.2,0.7-0.1c0.5-17.9-0.1-35.9,0.7-53.8c0.2-4.3,0.4-8.6,1-12.8C117.3,145,116.6,145.1,116.5,145.4L116.5,145.4z"/>
		</g>
	</g>
</g>
</svg>
