<?xml version="1.0" encoding="UTF-8"?>
<svg id="Layer_6" xmlns="http://www.w3.org/2000/svg" xmlns:xlink="http://www.w3.org/1999/xlink" version="1.1" viewBox="0 0 292.9 302">
  <!-- Generator: Adobe Illustrator 29.6.1, SVG Export Plug-In . SVG Version: 2.1.1 Build 9)  -->
  <defs>
    <style>
      .st0, .st1 {
        fill: none;
      }

      .st2 {
        fill: #4f2f26;
      }

      .st3 {
        fill: #010101;
      }

      .st4 {
        fill: #638e9f;
      }

      .st5 {
        fill: #27153c;
      }

      .st6 {
        fill: #171413;
      }

      .st7 {
        fill: #f1eef7;
      }

      .st8 {
        fill: url(#linear-gradient);
      }

      .st9 {
        fill: #7c4c2a;
      }

      .st10 {
        fill: #060606;
      }

      .st11 {
        fill: #c7c6c5;
      }

      .st12 {
        fill: #fff;
      }

      .st13 {
        fill: #14162a;
      }

      .st14 {
        fill: #b98354;
      }

      .st1 {
        stroke: #4f2f26;
        stroke-miterlimit: 10;
      }

      .st15 {
        fill: #161412;
      }

      .st16 {
        fill: #311811;
      }

      .st17 {
        clip-path: url(#clippath);
      }
    </style>
    <clipPath id="clippath">
      <path class="st0" d="M302.1,128.6c0-27.5-20.5-50.6-47.8-53.9-23.1-29.9-57.7-48.7-95.4-51.9-7.9-29-37.7-46.2-66.7-38.4C63.2-7.9,46.1,21.9,53.9,50.9c.6,2.2,1.3,4.4,2.1,6.4C.7,107.7-3.4,193.3,47,248.5c50.3,55.3,135.9,59.4,191.2,9,24.8-22.6,40.3-53.5,43.7-86.8,12.7-10.3,20.2-25.9,20.2-42.3h-.1q0,.1,0,.1Z"/>
    </clipPath>
    <linearGradient id="linear-gradient" x1="-409.1" y1="263.3" x2="-138.3" y2="263.3" gradientTransform="translate(410.6 -116.1) rotate(-90) scale(1 -1)" gradientUnits="userSpaceOnUse">
      <stop offset=".3" stop-color="#bbe5f5"/>
      <stop offset="1" stop-color="#77c5da"/>
    </linearGradient>
  </defs>
  <path class="st15" d="M215.5,82.5c-.8.4-1.8.6-2.7.6-.7,0-1.4,0-2.1-.4-.6-.3-.9-1-.7-1.6,0-.3.2-.6.3-.8.2-.4.3-.8.4-1.3,0-.2-.3,0-.3,0-.2.7-.4,1.3-.7,1.9-.2.4-.1.9.1,1.3.7,1.1,2.2,1.1,3.4,1.1.8,0,1.6-.3,2.4-.7.2,0,.1-.3,0-.2h0c0,0,0,0,0,0Z"/>
  <path class="st15" d="M218.8,80.1c.6,0,.7.8.7,1.2,0,.3,0,.5-.2.8-.3.3-.7.5-1.1.5-.5,0-1-.1-1.5-.3,0,0-.2,0-.2,0,0,0-.1.1,0,.1.5.2,1,.2,1.5.3.5,0,1-.2,1.4-.5.3-.2.5-.5.6-.9,0-.3,0-.7-.1-1,0-.3-.3-.6-.7-.6,0,0-.2,0-.2,0,0,0-.1.1,0,0h0c0,0,0,0,0,0Z"/>
  <g id="Layer_20">
    <g class="st17">
      <g>
        <circle class="st8" cx="147.3" cy="157.6" r="135.4"/>
        <path class="st14" d="M140.8,151.5c2.8.9,5.1,1.5,7.5,2.2,1.2.4,2.4.9,3.5,1.4.3.1,3,1.7,2.1,1.1,3.8,2.6,10.2-9,13.4-12.7,16.1,21.5,35.2,66.2,39.3,76-1.4,1.1-2.8,2.2-4,3.6-3.2,3.6-5.8,7.8-7.7,12.2-2.4,4.9-3.5,10.4-3.6,15.8,0,4.2.2.2,1.6,4.1-2.5-.2-15.5-3.7-17.4-4.9-8.4-5.5-20.4-36.9-20.4-36.9l-17.6-63c1.1.3,2.1.8,3.2,1.1h0Z"/>
        <path class="st4" d="M173.1,201.8c3.1-1-1.9,3.8,1,2.6.2-.3-1.9,21.6-1.4,21.6,2.7.2,28.4-5.8,33.4-19.9-17.2-32.3-22.6-53.3-27.4-61.8-8-14-37.9-20.7-40.1-20.9,0,0,18.9,54.4,31.8,73.5,1,1.5,1.9,3.1,2.8,4.8h0Z"/>
        <path class="st13" d="M203,199.5c-5.9,8-16.4,11.2-25.3,14.8-.5.2,0,.6.3.4,9-3.6,19.6-6.9,25.6-15,.3-.4-.4-.5-.6-.2h0Z"/>
        <path class="st14" d="M210.1,249.1s-8.2,10.1-17.9,9.5c-12.8-.6-17-6.3-20.2-9.7s16.9-11.3,16.9-11.3l21.2,11.6h0Z"/>
        <path class="st14" d="M194.1,245.8c-3-3.9-5.1-8.4-6.4-13.2-1.3-4.4-3.7-4.7-3.4-9.2,0-1.3,1.9-6.9,2.2-8.1,1.3-5.6,33-58.4,42.5-66.1l15.8,8.4c-3.7,5.3-18.4,58.1-18.4,58.1,0,0-6.2,25.1-18.7,36.1-4.3-2.3-10.4-2.1-13.4-5.9h-.1,0Z"/>
        <path class="st14" d="M223,160.3l4.4-9.9s2.3-8.8,3.9-11.5,10.8-11.3,11.3-11.6,6-14.8,8.9-14.7,4.9,2,4.4,5.8-6.5,12-4.7,13c1.4.7,3.1,1.1,4.7,1.2,0,0,.6-4.4,2.8-6s5.1.4,5.1.4l.2,1.9,2.2-2.4s2-9,5.8-9.3c.8-2,2-3.8,3.4-5.3,1.3-1.2,3.4-1.1,4.5,0,.2.2.4.5.5.7h0l-5.6,20.5-17.5,22.2s-14.1,4.3-16.2,5.6l-3.8,6-15.2-4.2.9-2.6h0Z"/>
        <path class="st2" d="M251.4,132.1c0-.2-.9-1-2.6-1.4s-2.9,0-2.9.4,1.3.4,2.7.7,2.7.7,2.8.4h0c0-.1,0-.1,0-.1Z"/>
        <path class="st2" d="M272.7,133.6c-.2-1.4,0-2.9.2-4.3.2-2.7.6-6.4,1.2-10.8l.3.5-2.1-.7c-.7-.1-1.4,0-2,.5-1,.8-1.8,1.8-2.1,3-.4,1.2-.8,2.4-1,3.5-.4,2.3-.7,4.5-.9,6.3-.2,1.9-.4,3.9-1,5.8-.1,0-.2-2.2.1-5.9.1-1.8.3-4,.6-6.4.2-1.3.6-2.6,1-3.7.5-1.4,1.4-2.7,2.6-3.6.8-.6,1.8-.8,2.8-.6.8.2,1.5.5,2.3.8h.3s0,.5,0,.5c-.6,4.4-1.1,8.1-1.5,10.8-.1,1.5-.4,2.9-.9,4.3h0Z"/>
        <path class="st2" d="M249.1,152.8c0-.3,0-.6,0-.9.1-.8.4-1.5.7-2.2,1.1-2.7,2.6-5.3,4.6-7.6h-.1c1.1-3.7-.4-9.1,2.8-14.4.9-1.1,2.1-1.9,3.5-1.9,1.2-.2,2.4.3,3.5.8l.2.2v.3c-.4,5.6-.8,10.4-1,13.8,0,1.4-.4,2.8-1.1,4-.5.9-.8,1.2-.9,1.2.2-.5.3-.9.5-1.4.5-1.2.7-2.6.7-3.9.1-3.4.4-8.3.7-13.9v.4c-.7-.5-1.7-.8-2.7-.7-1.1.1-2.1.6-2.6,1.5-.8,1-1.2,2.2-1.4,3.4-.3,1.2-.5,2.4-.5,3.7-.2,1.3-.1,2.4-.2,3.5s-.3,2.2-.6,3.4h0v.2c-1.8,2.2-3.4,4.6-4.7,7.2-.9,1.8-1.1,3.1-1.2,3l-.2.2h0Z"/>
        <path class="st2" d="M227.4,150.4s2.1,4.4,8.9,5.1c0,0-8.5,1.4-8.9-5.1Z"/>
        <path class="st14" d="M87.3,81.4s2.1,15.6,1.7,24.4c-.2,7.3-3.4,14.2-8.8,19.2l52.9,31.2,14.7-29.6s-10.7-8.2-11.1-10.7,0-16.8,0-16.8"/>
        <path class="st4" d="M179.6,266.5v-7.4c-.1,0,0-.8,0-.8l1.8-83.9-6.4-27.2s-8.1-10.3-9-12l-24.2-16.6c-2.2,4.4-4.3,9-5.9,13.6-1.5,4,1.2,17-3.4,17.6,0,0-2.9-11.2-14.8-19.9,0,0-27.7-10.8-28.9-15.8-9.8,3.8-41.3,16.5-48.2,24-8.1,8.7,15.3,31.4,26.4,45.3l-15,2.1s-1.8,53-4.1,81.4c0,1.1-.2,2.1-.2,3.2-.3,3.4-.5,6.3-.9,8.7h.6c0,20.3,3.2,49.3,4.5,58.3,1.6,11.3,57.8,17.1,84.8,14.5,26.4-2.6,45.8-1.5,44.3-44h.1c-1.1-18.1-.6-16.5-1.4-41.1h-.3c0-.1,0-.1,0-.1Z"/>
        <path class="st2" d="M136.9,113.4c-5,.2-10.1-.3-14.9-1.5-11.2-3.1-25.8-16.4-25.8-16.4,2,5,5.9,9.6,9.7,13.6,6.3,6.8,8.6,8.3,15.4,8.2,3.2,0,10.7.2,15.6-.9v-3.1h0Z"/>
        <path class="st14" d="M57.8,234.9c-18.1-2.2-23.7-2.4-38-5.8-2,12.4-3.1,46.8-2.8,51,1.9,29.1,7,39.4,15.7,75.9l18.4-1.3,3-72.1,2.4-12.1,1.2-35.7h0Z"/>
        <path class="st4" d="M60.1,233.4l7.2-41.9-2.2-67.1s-29.8,8.5-37.8,26.1c-4.5,11.6-10.3,52.8-13.9,76,27.5,9.4,34.7,8.8,46.8,7h0Z"/>
        <path class="st5" d="M60.1,139.6c6.6,1.4,10.5,9.3,12,15.3,1.1,5,1.6,10.2,1.4,15.3-.1,14.1-1.4,28.1-3.6,42.1-1.1,7.2-2.3,14.3-3.8,21.4l.5-.4c-2.7.5-5.3.9-8.1.9-7.6.2-15.1-.5-22.5-2.4-6.1-1.4-12.1-3.3-17.9-5.7-.4-.2-1.5.4-1,.6,14.4,5.9,30.9,9.9,46.7,7.7,1-.1,1.9-.3,2.9-.5.2,0,.4-.2.5-.4,3-13.7,5.1-27.6,6.4-41.5.6-7,1.1-14,1.2-21.1.2-5.2-.2-10.6-1.3-15.7-1.5-6.4-5.6-14.8-12.6-16.3-.4-.1-1.5.6-.8.8h0Z"/>
        <path class="st14" d="M76,29.4s3.8-12.2,18.9-16.7c11.4-3.4,34-3.1,42.8.6,7.6,3.3,13.4,9.7,15.8,17.7l-77.7-1.5h.1c0-.1,0-.1,0-.1Z"/>
        <path class="st14" d="M119.6,112.1l15.7-1.1,7.8-2c.9,0,4.1-8.3,4.5-9.4,1.8-3.5,3.4-7.3,4.6-11.1,1-3.8,3.2-7.2,3.6-11.7.3-3.3.2-5.7-1.7-11-.4-1.4-.5-2.8-.2-4.2.6-3.1.8-6.7,1.5-10.9.2-.8.2-1.5.2-2.2,0,0,.4-15.7-4.7-23.2-4-5.7-6.3-9.1-10.9-10.2s-17.9.2-17.9.2l-18.5-2.1-15.4,8.4-7.4,19.5,1.8,22.3,3,19.8"/>
        <path class="st11" d="M77.1,39.8v-1c-.2-2.8,1.4-6.8,4.4-11.3,1.4.3,2.9.5,4.3.6,0,1,0,1.9.2,2.9l2.2,30.4c.1,1.7,2.6,10.3,2.8,11.9h-8.8c-2.9-5.7-6.2-12.5-7.3-14.1-1.6-2.5,2.5-14.9,2.2-19.4h-.1,0Z"/>
        <path class="st14" d="M141.4,106.8h-.3c-1.7-1.1-1.8-1.7-2.7-1.9-.3,0-.5-.1-.9-.2-2.4-.2-3.9-.4-10.1,3.8-.1,0-8.4-.8-8.7-.8l-4.4-1.9c-.8-.4-17.2-13.7-17.2-13.7-.2-.4-3.2-3.6-3.4-4.1h-.1v.6c0,.9.2,1.6.5,2.3.4,1.2.6,2.5,1.1,3.6.1.4.3.9.4,1.3,1.9,1.1,14,15.6,20.8,18.7,1.8.4,3.6.6,5.5.6,6.8.3,13.4.2,20.1-2,1.7-.5,3.1-1.8,3.8-3.5,1.9-4.7,6-15.3,6.9-22.4-1.7,4.1-5.4,12.9-7.9,18.9-1,.2-1.9.4-2.9.4"/>
        <path class="st14" d="M88,85.2c-6.8,7.3-8.7-4.7-8.7-4.7-5.1-6-5.2-12.4-5.1-16.8.1-4.4,4.9-4.4,4.9-4.4,4.1.3,5.9,2.6,9.6,16.4"/>
        <path class="st11" d="M86.2,30.4c1.2,5.8,3.6,13.9-.1,24.2-1.9,5.1-5.1-3.6-7.7-.2-2.6,3.4-3.5,4.8-3.5,4.8-2.5-14.5-2.3-14.2.2-28.5l11.1-.3h0Z"/>
        <path class="st6" d="M119.7,59c-1-.4-2.1-.2-2.9.5s-.6.8-.8,1.2c-.2.9,0,1.8.6,2.5s1.9,1,2.8.4c1.2-.6,1.7-1.9,1.3-3.2-.2-.6-.6-1.2-1.2-1.5"/>
        <path class="st6" d="M148.8,58.8c1-.4,2.1-.2,2.9.5.3.3.6.8.8,1.2.2.9,0,1.8-.6,2.5s-1.8,1-2.8.5c-1.2-.6-1.7-1.9-1.4-3.2.1-.6.5-1.2,1.1-1.5"/>
        <path class="st11" d="M127.1,45.1l.4,3.1c.1.8.4,2.6.4,3.4-2.6-.3-4.9-1.1-6.5-1.2-3.2-.2-6.6-.5-9.7.4-1.5.4-2.8,1.1-4,2-.3.3-1.3,1.6-1.9,1.4-.2,0,0-1.4,0-1.6.5-2.7,2.6-4.1,5.1-5,5.2-1.8,10.8-2.7,16.3-2.6"/>
        <path class="st11" d="M156.4,47.5l-1.8-.5c-4.9-1.2-10.2-1.4-15.2-.5v6.2c2.2-.6,4.3-1.4,5.8-1.7,3-.5,6.1-1.2,9-.6l1.7.3c.9-1.5.9-3,.4-3.2h.1Z"/>
        <path class="st11" d="M71.1,46.7c-.8-.2.9-.9.2-1.4-.6-.4-.9-1.3-.5-2s.4-1.5.2-2.2c0-.8,1.4-1,1-1.6-.9-1.1.2-2.7,1.2-3.6-.6-.3,0-.5-.3-1.2-.4-.6-.4-1.4,0-2,.3-.3.6-.5,1.1-.9,1-.9.8-2.2.2-3.5.3-.2.8-.3,1.2-.4.5-.2,1.2-.3,1.7-.2h.2l-1.3,32.4c-.6,0-1.4,0-1.9-.3-.6-.3-1-1.1-.8-1.7.4-1,2.1-1.3,2-2.3-1-1.1-3-.5-3.5-1.8-.4-1.1.6-2,1.5-2.7-.6-.6-.4,0-1.4-.2s-1.5-2.3-1.1-3.1,1-.2.5-1.2h-.2c0,.1,0,0,0,0Z"/>
        <path class="st11" d="M85.2,28.8h.3c.3,0,.6,0,1,.2s.6.2,1,.3h.3l.4.3c.1,0,.3.2.4.2h.1v.2c.1,0,.2.2.4.3h0c-.2.4-.3.8-.4,1.2.1,1,.1,1.9,0,2.8-.3.9-1.2,1.8-.5,2.5s.9.4,1.2.6c1,.9-.3,2.6.2,3.8.3.8,1.1,1.1,1.4,1.7.6,1.4-1.1,2.8-1.1,4.3s1.2,2.6.9,4c-.2.6-.8,1.2-1,1.9-.5,1.5.9,3.2.2,4.7-.3.4-.6,1-1,1.4-1.1,1.9.8,4.7-.2,6.6l-7.1-23,3.1-13.8.3-.2h0Z"/>
        <path class="st11" d="M89,73.8h1.9c.3-.2,0-.8,0-1.1-.1-.9,0-1.8.4-2.6s.4-1.8,0-2.6c-.3-.3-.9-.5-1-1s.6-1,1-1.5c.4-.6.3-1.6-.4-2-.1,0-.2-.1-.4-.2.6-1.1.9-2.3.4-3.5-.5-2.3-1.4-4.8-1.4-4.8l-3.5-1.7,2.9,21h.1,0Z"/>
        <path class="st10" d="M103.4,58.9l1.3,3.2c1.2,3.1,2.7,6,4.4,8.7,1.3,1.9,15,2.1,17.6.4s3.8-9.4,4.4-11.2h5.5c.5,2.3,2.6,9.6,3.6,10.6s7.3.5,8,.5,1.4,0,2.2-.2c2.4-.2,5.2-.8,6.1-1.7,1.3-1.3,2.5-6.3,3.5-11l.2-.8v-.3h0l.2-.9c-8-3.4-18.3-2.3-24.3,2.5h-5.4c-6.2-3.8-16.7-5.5-24-2.3h0l-20.4,6.5v2l16.9-6.1h.1c0,.1,0,0,0,0ZM140.9,69.9c-.6-.6-2.2-5.7-3.3-9.6,5.2-4.1,14.6-4.9,21.6-2.2h0c-.5,2.6-2,9.3-3.3,10.6-1.5,1.5-13.9,2.2-15.1,1.3h.1ZM110.7,70.2c-2.3-2.9-4.3-7.5-5.6-11.5,6.5-3.2,18.7-1.9,24.7,1.6-.9,3.2-1.7,9-3.6,10.2-2.7,1.7-14.7,1-15.5-.2h0Z"/>
        <path class="st11" d="M120.7,87.1l.3-.3h-.3c.5,0,1-.1,1.4-.2s.9-.4,1.2-.8c0-.1.1-.3.2-.4s.4-.3-.3-.1-.5,0-.2.2c.1,0,.3.1.4.2.4.1,1,.2,1.4,0,.9-.1,1.6-.5,2.1-1.1-.3.3-1.6-.1-1.2.2.1.1.3.2.4.3.4.1.9.2,1.3,0,1-.1,1.7-.6,2.3-1.4,0,0,.2-.2.2-.3-1.2,0-1.5.2-1.1.3h.2c.3.2.8.3,1.1.3,1,0,1.9-.3,2.6-1.1.3-.5-.2-.8-.8-.8s-1.4.2-1.8.8l1.3-.3h-.2c-.1-.1-.2-.2-.4-.2-.3,0-.8-.1-1.2,0-.8,0-1.5.4-2.1,1l-.5.5c-.4.5,1.5.2,1.1-.2,0,0-.2-.1-.3-.2-.8-.3-1.5-.3-2.2,0-.3,0-.5.2-.8.4-.1,0-.5.3-.5.4,0,0,1.1-.3,1.1-.2-.1,0-.2-.1-.4-.2-.2-.1-.5-.2-.9-.2-.9,0-1.7.1-2.5.6-.3.2-.5.4-.8.6-.1.2-.3.5-.4.8l.4-.3.8-.2h-.8c-.4,0-.9.2-1.3.4-.6.3-1.2.8-1.5,1.4-.3.5.3.8.8.8.6,0,1.4-.2,1.8-.8h.1Z"/>
        <path class="st11" d="M138.3,84c-.2.1-.4.1-.8,0h.2l.5.4c.6.3,1.4.4,2,.3.2,0,.1,0-.4,0h0c0,.2.2.4.4.4.3.2.8.3,1.2.3s.9-.1,1.3-.3c.1,0,.3-.1.4-.2l.3-.2h-1s-.1-.2,0,0,0,.1.1.2c.1.2.3.4.4.5.5.4,1.3.6,2,.4h.3c.1,0,0,0,0,0,0,0-.1-.2-.1,0s0,.2.1.3c.1.3.4.6.8.6h.5c.3,0,.2,0-.4-.3.3,1.2,3.1.5,2.8-.8-.1-.3-.4-.6-.8-.8h-.6c.4.3.5.4.4.2,0-.9-1-1.2-1.6-1.3h-1.1c-.5,0,.2,0,0,0v-.2c-.4-.6-1.1-1.1-1.7-1.1s-1,0-1.5.3l-.4.2c-.6.3.5-.1.6,0-.3-.8-1.5-.9-2.1-.8-.3,0,0,0,0,0-.3,0,0,0-.2,0s-.4-.2-.6-.3c-.9-.4-1.7-.4-2.6,0-.4.2-1.1.9-.6,1.4s1.3.4,1.9.2h0v.2h.1Z"/>
        <path class="st11" d="M89.4,32c0-.4,0-1-.2-1.4s-.6-.8-1.1-.9h-.6c-.3-.1-.4-.5-.3-1v-1.1c-.3-.5-1.1-.5-1.7-.3s-1.2.6-1.8.5c-.9-.2-1.3-1.3-2-1.6-1-.4-2,.3-3.2.4h-1.4c-.6.2-1.1.8-1.3,1.4-.1.6-.2,1.3-.1,1.9,0,.2,0,.4.2.6s.5.3.9.3l11.2.2"/>
        <path class="st9" d="M134.4,88.5c-5.4.2-14-.2-14-.2,0,0,1.9,12.6,14.3,12.2,12.4-.4,11.3-12.4,11.3-12.4,0,0-6.3.2-11.7.3h0c0,.1,0,0,0,0Z"/>
        <path class="st16" d="M134.4,88.5h-11.2s2,7.3,11.2,7.1c9.9-.3,10.7-7.3,10.7-7.3l-10.6.2h-.1Z"/>
        <path class="st7" d="M134.5,89c-2.6,0-10.3-.1-10.3-.1,0,0,2.9,2.9,10.5,2.6s9.9-3.1,9.9-3.1l-10.2.6Z"/>
        <path class="st9" d="M148.8,86.6c-1,.2-2,.3-3,.4-2.1-.1-3.4-.6-4.9-.8-2.6-.1-4.2,1-5.4,1.1s-2.8-1-5.5-.8c-1.5.2-5.2.9-7.4,1.1-1,0-2,0-3-.2-.3,0,.4,3,14.7,2.6s14.9-3.3,14.4-3.4h0Z"/>
        <path class="st11" d="M133.6,83.6l-.2,2.3c0,.3-.3.6-.6.8-2.4.5-11.6,2.7-13.7,2.9,0,0,.3.9.2.9h-.5c-.9,0-.5-3,.2-3.3,1.8-1,3.8-1.7,5.7-2.5,2.7-.9,5.3-1.6,8-2,.4,0,.9.3.9.8v.2h.1Z"/>
        <path class="st11" d="M136.5,83.9v2.1c.2.3.4.6.8.6,2,.3,8.8,1.6,10.7,1.6h.8c.6-.3.2-2-.4-2.3-3.4-1.8-7.2-2.9-11.1-3.1-.4,0-.8.4-.6,1h0c0,.1,0,0,0,0Z"/>
        <path class="st11" d="M148.2,86.7c.6,1.1.8,2.3.4,3.5,0,0,0,.2-.1.3s-.3.2-.5.1c-.2,0-.3-.2-.4-.3-.6-.8-.8-1.9-1.3-2.8-.1-.2-.4-.4-.3-.8s.3-.2.5-.2h1.1"/>
        <path class="st11" d="M122.5,87.3c-.8.6-1.3,1.5-1.6,2.5-.2.8-.4,1.6-1.2,1.9-.2,0-.4.1-.6.2h-.4c-.1,0-.2-.2-.3-.3-.2-.5-.2-1.2,0-1.7v-.2s0-.2-.1-.2c-.2-.3-.3-.8-.2-1.1.3-.6.9-1.1,1.6-1.2.6,0,1.4-.2,2-.4"/>
        <path class="st4" d="M135.3,151.4c-.5-.6-18.9-16.7-18.9-16.7l-9.6,10.3-5.2-2.9c-13.9-7.6-26.9-24.3-26.9-24.3l12.1-11.6c4.5,7,32.1,23.3,32.1,23.3l15.6,18.6,1.7-20.7c4.1-2.7,1.7-11.8,1.7-11.8l13.1,4.7c1.3,15.1-2.5,17.3-2.5,17.3l-9.6-4.6c-1.1,5.6-2.6,11.2-3.4,16.8-1.6,10.3,1.5,22.1,2.2,32.8,1.5,23.5,3.1,55.8.8,79.2,0,0,1.1,31.5.8,42.3s-.2,48.9-.2,48.9"/>
        <path class="st5" d="M136,151c-.6-.6-1.4-1.3-2.1-1.9-1.5-1.4-3-2.7-4.6-4.1-3.3-2.9-6.7-5.9-10.1-8.8l-2.3-2c-.3-.2-.9,0-1.1.2l-9.6,10.2,1.1-.2c-4.9-2.6-9.6-5.6-14-8.9-5.6-4.5-10.6-9.4-15.2-14.9-1-1.1-1.9-2.1-2.8-3.3v.4l12.1-11.6h-1.2c1.2,1.7,2.5,3.1,4.1,4.4,2.1,1.8,4.4,3.5,6.6,5.1,4.8,3.5,9.8,6.7,14.9,9.9,1.7,1.1,3.3,2.1,5,3.1l1.3.9s.2,0,.2.2c0,0-.1-.1,0,0,1,1.1,1.8,2.1,2.7,3.2l4.8,5.8,8.1,9.6c.3.3,1.3.1,1.3-.3l1.1-13.1.5-6.9v-.6h0c-.2.3.6-.4.6-.5,1-1.1,1.5-2.5,1.6-3.8.3-2.6.1-5.1-.5-7.7l-1.1.6,11.8,4.3c.3,0,.6.2.9.3.4.3.3,0,.2.6,0,1.3,0,2.6.2,3.8v3.1c0,2.6-.4,5-1.3,7.4-.2.5-.5,1.1-.9,1.5l-.3.3h1l-9.6-4.6c-.4-.2-1.1,0-1.2.4-1.2,5.6-2.6,11.1-3.4,16.9-.6,5-.5,10.2.1,15.2.6,5.2,1.5,10.5,1.9,15.8.4,4.6.6,9.3.9,14,1.1,19.5,1.8,39.2.6,58.6-.2,2.9-.6,5.8-.6,8.7s.1,3.3.1,4.9c.2,6.3.3,12.6.4,18.9.2,11.2,0,22.6-.1,33.8v33.1c0,.6,1.4.4,1.3-.1v-28.1c0-11.2.4-22.4.2-33.5,0-6.7-.2-13.5-.4-20.2-.2-3.5-.3-7.2-.1-10.8,1.8-19.4,1.2-38.9.2-58.4-.4-9.4-.9-18.9-2-28.2-.8-5.5-1.3-10.9-1.5-16.4,0-5.5.8-10.8,2-16.1.6-2.7,1.2-5.5,1.7-8.1l-1.2.4,5,2.4,3.2,1.5c.4.3,1,.5,1.5.6,2,.3,3-4.3,3.2-5.5.6-4.2.8-8.3.3-12.5,0-.1-.2-.2-.3-.2l-13.1-4.7c-.3-.1-1.2.1-1.1.6.5,2.1.8,4.4.6,6.6,0,1.6-.5,3.1-1.6,4.3-.6.6-.8.6-.9,1.4l-1.3,15-.4,5.1,1.3-.3-15.3-18.2c-.3-.4-.8-.8-1.2-1-1.4-.9-2.8-1.7-4.2-2.6-4.8-3-9.6-6.1-14.2-9.3-2.7-1.9-5.3-3.8-7.9-6-1.9-1.4-3.5-3.1-5-5-.2-.4-.9-.1-1.2,0l-12.1,11.6c-.1.1-.2.3,0,.4,2.6,3.2,5.3,6.3,8.2,9.3,5.5,5.7,11.6,11,18.4,14.9l5.6,3.1c.3.2.8,0,1.1-.2l9.6-10.3-1.1.2c5.5,4.7,10.9,9.4,16.3,14.2,1,.8,1.8,1.5,2.6,2.4.4.4,1.6,0,1.2-.5h.4Z"/>
        <path class="st5" d="M20,220.4c11.9,3.2,24.1,5.2,36.4,6.1,4.3.3,7.6.2,11.9-.3.6,0,1-.9.1-.8-7.8,1.2-15,.2-22.8-.9-7-1-13.8-2.4-20.6-3.9-1.4-.3-2.8-.6-4.2-1-.4-.1-1.5.5-.8.8h0c0-.1,0-.1,0-.1Z"/>
        <path class="st4" d="M83.5,176.6s18.1,2.4,31.1.6c0,1.6.9,4.8-1.3,5.7-1.7.8-4.4.8-6.3.9h-6.6c-5.2-.2-10.4-.5-15.6-1-1.6-.1-1.5-.3-1.4-1.5v-4.6h.1c0-.1,0-.1,0-.1Z"/>
        <path class="st5" d="M83.3,176.9c10.3,1.3,21,1.9,31.2.6l-.5-.3c0,1.2.1,2.4,0,3.5-.3,2.1-2.5,2.2-4.3,2.5-4.1.2-8.1.2-12.1-.1-4.3-.2-8.4-.4-12.7-.9-.8,0-1.1-.1-1.1-1v-5c0-.4-1.2-.1-1.1.3v4.1c0,1.1-.2,1.9,1,2.2,2.3.3,4.7.5,7.1.5,2.7.2,5.3.3,8,.4,4.3.2,9,.6,13.3-.3,1.3,0,2.3-.9,2.9-2,.5-1.4,0-3,0-4.4s-.3-.3-.5-.3c-10.2,1.3-20.9.6-30.9-.6-.4,0-1.1.6-.3.8h.1Z"/>
        <path class="st15" d="M140.7,72.8c.3.8.5,1.6.8,2.3.1.5.2,1.1.2,1.6s-.4,1.2-.9,1.5c-1.1.8-2.4,1.2-3.6,1-1.3,0-2.7-.1-3.9-.5-.2,0-.6.2-.3.3,1.1.3,2.1.5,3.2.6,1.2,0,2.4,0,3.5-.3,1-.3,1.7-.9,2.2-1.7.4-.8.4-1.7.1-2.6-.2-.9-.4-1.6-.8-2.5,0-.2-.6,0-.5.1h-.1c0,.1,0,.1,0,.1Z"/>
        <path class="st15" d="M128.1,75.6c-.4,0-1,.2-1.2.6-.2.4-.3,1-.2,1.4,0,.4.2.9.4,1.3,1,.6,2,.9,3.1.5.4-.1,1-.3,1.4-.4,0,0,.2,0,.2-.2s-.2,0-.3,0c-.6.2-1.3.4-1.9.6-.6,0-1.2-.1-1.7-.4-.6-.5-1-1.4-.6-2.1,0-.2,0-.4.2-.6,0,0,0-.1.2-.2h.4v-.4h0Z"/>
        <path class="st13" d="M180.9,224.9c-.6-14.3,0-28.7,1.8-42.9,0-.4-.8-.3-.9,0-1.9,14.2-2.6,28.6-1.9,42.9,0,.4.9.3.9,0h.1,0Z"/>
      </g>
    </g>
  </g>
  <path class="st2" d="M112.5,36.6c7.3-1.3,14.8-1.8,22.1-1.7s6,.3,9,.8,1-.4.4-.4c-5.4-1-10.8-1-16.3-.8s-8.6.6-12.8,1.2-1.6.2-2.5.3-.6.5,0,.5h0c0,.1,0,0,0,0Z"/>
  <path class="st12" d="M105.8,61.3s6.4,3.6,11.3,3.4c4.9-.2,8.8-2.7,8.8-2.7,0,0-6.7-3.2-9.8-3.1-3.1,0-8.7.9-10.2,2.3h-.1,0Z"/>
  <path class="st12" d="M140.4,63.3s3.4,1.4,7.6,1.2c0,0,4.8.2,5.9-4.1h0s-2.3-2-5.7-1.2-6.6,1.8-7.7,4"/>
  <path class="st3" d="M125.9,62.1s-4.9-4.7-10.5-4.7-7.3,2-9.6,4c0,0,6.4-1.9,9.5-1.9s10.6,2.7,10.6,2.7h0Z"/>
  <path class="st3" d="M140.4,63.3s1.9-3.3,4.4-4.2c5.8-2,7.5-.4,9.1,1.3,0,0-4.6-1.2-9,.2-2.5.8-4.5,2.7-4.5,2.7h0Z"/>
  <path class="st3" d="M147,59.2c-1.6,0-1.3.5-2.2.9-.4.8-.5,1.2-.4,1.8,0,.2.2.9.8,1.5.8.8,1.8.9,2.8.6,1.2-.3,1.9-1.4,2-2.6,0-.6-.2-1.8-1-2-.4-.1-1.5-.1-1.9-.1h0c0-.1,0-.1,0-.1Z"/>
  <path class="st3" d="M115.8,59c-1.6.2-1.8.2-2.8.5-.4.9-.8,2.2-.5,2.9,0,.2.3.9,1,1.4.8.6,1.9.8,2.8.4,1.2-.4,1.7-1.6,1.7-2.8s-.4-1.6-.7-2.1c-.4,0-1-.4-1.4-.3h0c0-.1,0-.1,0-.1Z"/>
  <path class="st2" d="M78.4,69.9c-.5-1.9-.2-4.1,1-5.7l-.4.2h0c-.1,0,0,0,0,0h.2c-.1,0,0,0,0,0h0c.1,0,.3.2.4.3.4.3.8.8,1.2,1.2.6.8,1.1,1.5,1.6,2.3.9,1.4,1.5,2.9,2.1,4.5.6,1.6.9.1.8-.2-.8-1.7-1.5-3.4-2.5-5.1s-1.2-1.8-1.9-2.6-.9-.8-1.4-1.1-.5-.2-.8-.1-.4.4-.6.8-.2.4-.3.8c-.2.5-.4,1.1-.5,1.6-.2,1.1-.1,2.2.1,3.3.2,1.1.9.1.8-.2h.3Z"/>
  <path class="st2" d="M82.9,68.4c-1.3.4-1.9,1.8-2.2,3.1s-.3,1.8-.3,2.8.2,2.1.5,3.2.2.8.4,1.1.2.4.4.4c.5.2,1.1-.2,1.2-.6s0-1.1,0-1.6-.1-1.4,0-2.1,0-.5.2-.8,0,0,0,0h.2c.2,0,.4,0,.5-.1s0-.2,0-.2c-.5,0-1.3,0-1.6.5s-.3,1-.3,1.4,0,1.2.1,1.8.1,1,0,1.4,0,.2,0,.2c0,.2.4-.2.4,0h0c-.2-.2-.3-.4-.3-.6-.3-.9-.5-1.8-.6-2.7s-.2-1.3-.2-1.9,0-.9.1-1.3c.1-.6.3-1.4.6-2s.6-1.2,1.3-1.4.3-.1.2-.2-.4,0-.5,0h0v-.3Z"/>
  <path class="st1" d="M188,211.6s-6.1,7.9-3.9,26.5"/>
  <path class="st2" d="M124.9,64.2c-.2.7-.7,1.3-1.1,1.8-1.1,1.3-2.5,2.3-4.1,2.8-1.4.4-2.8.5-4.3.5-.2,0-.4,0-.5.1-.1,0,0,.1,0,.1,2.5.1,5.2-.3,7.3-1.7,1.2-.8,2.3-1.8,3-3.1.1-.2.3-.5.3-.7,0-.1-.7,0-.7.1h0Z"/>
  <path class="st2" d="M140.5,64.2c.1.5.4,1.1.7,1.5.7,1.1,1.6,1.9,2.8,2.5.9.4,1.8.7,2.8.7.2,0,.4,0,.5-.2,0-.2,0-.3-.2-.3-1.5,0-2.9-.6-4-1.6-.4-.4-.8-.8-1.1-1.3-.1-.2-.2-.4-.4-.6,0-.1,0,0-.1-.2,0,0,0-.2-.1-.2,0-.2-.1-.3-.2-.5,0-.3-.8-.1-.7.2h0Z"/>
  <path class="st2" d="M119.8,92.5c0,.7,0,1.4,0,2.1,0,1.4,0,2.9.3,4.3.1.7.3,1.5.6,2.2,0,.2.3.2.4.1.1,0,.4-.2.3-.3-.6-1.2-.7-2.7-.8-4,0-1.2,0-2.4,0-3.7,0-.2,0-.5,0-.7,0-.4-.7-.2-.7,0h0Z"/>
  <path class="st2" d="M147.1,91.8c.1.7.1,1.4.2,2,0,1.3,0,2.6-.3,3.9-.1.6-.4,1.2-.8,1.6-.1.1,0,.3,0,.3.2,0,.4,0,.5-.1.9-.9,1.1-2.3,1.2-3.5s0-2.4,0-3.6c0-.2,0-.5,0-.8,0-.3-.8-.1-.7.2h0Z"/>
</svg>