<?xml version="1.0" encoding="UTF-8"?>
<svg id="Layer_3" data-name="Layer 3" xmlns="http://www.w3.org/2000/svg" xmlns:xlink="http://www.w3.org/1999/xlink" viewBox="0 0 292.89 301.99">
  <defs>
    <style>
      .cls-1 {
        fill: none;
      }

      .cls-2 {
        fill: #d68881;
      }

      .cls-3 {
        fill: #4c1816;
      }

      .cls-4 {
        fill: #231f20;
      }

      .cls-5 {
        fill: #1e1811;
      }

      .cls-6 {
        fill: url(#linear-gradient);
      }

      .cls-7 {
        fill: #f1eef7;
      }

      .cls-8 {
        fill: #171413;
      }

      .cls-9 {
        fill: #fff;
      }

      .cls-10 {
        fill: #251911;
      }

      .cls-11 {
        fill: #dbb28f;
      }

      .cls-12 {
        fill: #4f2f26;
      }

      .cls-13 {
        fill: #523936;
      }

      .cls-14 {
        fill: #ab3928;
      }

      .cls-15 {
        fill: #161412;
      }

      .cls-16 {
        fill: #94674b;
      }

      .cls-17 {
        clip-path: url(#clippath);
      }
    </style>
    <clipPath id="clippath">
      <circle class="cls-1" cx="146.45" cy="158.04" r="134.78"/>
    </clipPath>
    <linearGradient id="linear-gradient" x1="146.64" y1="304.63" x2="145.77" y2="35.07" gradientUnits="userSpaceOnUse">
      <stop offset=".06" stop-color="#d3c293"/>
      <stop offset=".68" stop-color="#f2ebd1"/>
    </linearGradient>
  </defs>
  <g class="cls-17">
    <circle class="cls-1" cx="146.17" cy="158.04" r="134.78"/>
    <circle class="cls-6" cx="146.17" cy="158.04" r="134.78"/>
    <path class="cls-14" d="M203.74,282.79c4.66,36.48,3.59,78.27,5.19,91.25-7.46,4.84-8.35-1.89-19.05,1.07-10.7,2.95-13.96,3.2-21.31,0-7.35-3.2-13.45-2.13-22.92,1.07s-17.12-.28-22.62-.54c-5.5-.27-12.79,2.7-22.61,2.96-9.82.27-6.09-3.59-11.9-3.31.21-4.44.88-69.94,5.33-109.92-.12,0,.98-17.45.85-17.52,1.37-11,.92-15.09,2.13-22.53,12.97,1.5,26.17.49,39.17.36,10.74-.1,35.45-2.46,46.01-4.18,8.78-1.42,2.8,2.75,11.72,2.13.45,2.91,2.04,14.6,4.09,30.09l5.92,29.07Z"/>
    <path class="cls-11" d="M41.07,197.67c2.33-3.61,4.3-7.44,5.87-11.44,1.59-3.59,2.52-7.43,2.76-11.35,8.32-3.06,32.2-11.72,40.41-13.1,9.99-1.68,16.39-2.63,16.39-2.63l-14.92,33.88s-38.54,15.86-56.52,11.52c2.35-1.96,4.38-4.29,6.01-6.88Z"/>
    <path class="cls-11" d="M189.49,154.15s5.91,1.88,15.14,5.01c7.46,2.53,26.5,7.75,33.63,9.69,2.13,6.96,4.7,13.85,8.52,20.1,1.91,3.13,4.22,6,6.88,8.52-.41.2-.83.38-1.26.54-16.29,6.03-54.45-12.64-54.45-12.64l-8.47-31.22Z"/>
    <path class="cls-2" d="M100.97,195.83l-20.93,3.97c-.26.28-5.92-10.43-6.71-20.35-.67-8.46,3.51-16.34,3.51-16.34,0,0,27.64-11.72,34.33-12.42,8-.83,25.24,2.64,25.24,2.64l-35.45,42.49Z"/>
    <path class="cls-13" d="M110.88,112.11h.11l-.07-.26-.03.26Z"/>
    <path class="cls-8" d="M184.43,118.81c-2.21,5.17-5.03,10.42-9.38,14.11-4.35,3.69-10.39,4.76-15.98,5.47-10.98,1.35-22.38.09-32.41-4.78-10.29-5.02-18.33-13.7-22.55-24.35-3.06-7.66-4.6-15.85-4.53-24.1.14-.54.27-1.07.43-1.61,4.55-15.23,8.72-22.59,23.34-26.49,8.96-2.48,16.52-5.65,31.13-1.52,3.2.88,6.73,4,10.82,5.55,6.16,2.34,12.95,6.72,15.86,11.42,5.54,8.95,5.55,22.71,7.26,33.83-.84,4.3-2.18,8.48-3.97,12.48Z"/>
    <path class="cls-11" d="M102.94,128.98c-.71-4.45-1.39-12.9-.94-15.64-.16-2.07-.34-4.46-.53-7.36-.06-.84-.1-1.64-.12-2.44.03-.41.03-.82,0-1.24-.23-14.16,4.03-21.78,4.03-21.78,5.5-9.64,15.71-15.63,26.81-15.72,13.04-.36,25.19,6.99,31.71,14.66,3.24,3.8,4.97,8.67,4.84,13.66-.21,4.63-.8,9.23-1.77,13.76,4.54-.43,9.09.98,7.84,9.46-1.73,11.72-8.52,15.6-12.79,12.46-1.93,1.29-2.24,4.4-2.3,6.82-.14,4.65,1.47,12.18,3.94,16.11l-.06,1.33c-9.05,16.31-14.4,25.75-48.45,18.02l9.79-17.7v-3.41c-1.92,0-3.84-.17-5.72-.53-10.57-2.21-15.43-15.23-16.28-20.46Z"/>
    <path class="cls-12" d="M124.95,149.97c8.04,0,15.99-2.55,22.49-7.28,0,0-.23,3.58-8.04,6.78-4.48,1.9-9.59,2.8-14.45,2.56v-2.06Z"/>
    <path class="cls-8" d="M163.65,114.44v-.21c.44-1.66,1.29-3.19,2.47-4.43,1.23-1.24,2.77-2.11,4.46-2.53,1.16-.34,2.39-.37,3.56-.07l.61.23c2.67-10.03,3.6-20.66-4.12-32.51-2.23-3.42-7.87-7.05-9.59-8.24-10.48-7.01-19.63-7.18-30.79-5.64-12.95,1.8-24.76,10.66-27.24,23.88-.59,3.2-.86.58-.43,3.79,0,0,1.78-7.28,7.9-11.27,6.12-4,7.46,1.47,16.35,1.32,10.28-.22,13.45-5.94,21.85-1.97,7.69,3.64,7.13,6.64,7.13,6.64.73,1.8,1.6,3.54,2.61,5.2.78,1.71,1.25,3.55,1.4,5.42.55,3.84.83,7.72.84,11.6-.09,2.41-1.01,7.36,1.36,8.86,1.09.69.55.35,1.64-.08Z"/>
    <path class="cls-4" d="M172.79,117.05c.45-1.33.45-2.78,0-4.11-.13-.33-.26-.75-.66-.71-1.1.29-2.05.98-2.69,1.92-1.13,1.4-2.1,2.93-2.9,4.55-.16.3.4.26.53.15s.7-.53,1.07-.42.53.92.52,1.3c-.11,1.28-1.16,2.28-2.45,2.33-.34,0-.53.5-.07.43,1.61-.25,3.3-1.2,3.2-3.05,0-.62-.28-1.34-.97-1.45-.63-.04-1.25.17-1.73.6l.53.15c.68-1.36,1.48-2.65,2.38-3.88.48-.67,1.05-1.26,1.69-1.77.16-.13.33-.23.51-.32.09-.05.19-.09.29-.11,0,0,.05,0,0,0s-.16-.12-.12,0c.05.11.1.22.16.32.5,1.33.53,2.79.07,4.13-.09.28.6.19.67-.07h-.04Z"/>
    <path class="cls-7" d="M121.88,131.43c1.9-.1,7.66-.7,7.66-.7,0,0-1.97,2.13-7.68,2.41s-7.61-1.56-7.61-1.56l7.63-.15Z"/>
    <path class="cls-15" d="M126.6,102.92c0-.09.25-.23.19-.32,4.13-3.44,7.66-5.33,9.09-5.66,1.12-.28,2.28-.36,3.43-.25,0,0,3.2.23,3.84.67s-1.68.46-1.68.46c-.42.02-.83.08-1.24.17-2.4.71-4.86,1.07-6.95,2.45-1.96,1.55-3.75,3.31-5.33,5.24-.48-.93-.77-1.89-1.35-2.77Z"/>
    <path class="cls-15" d="M116.29,102.86c0-.1-.26-.18-.22-.28-4.08-2.38-7.46-3.34-8.72-3.38-1.03-.02-2.06.16-3.03.53-1.13.37-2.2.88-3.2,1.52-.46.55,1.52.05,1.52.05.35-.06.71-.1,1.07-.11,2.2.14,4.38-.09,6.39.78,1.93,1.06,3.72,2.36,5.33,3.86.35-1.01.46-2,.85-2.98Z"/>
    <path class="cls-8" d="M162.19,85.91s-20.25,6.15-37.04,2.99l-3.43-9.25s0,8.52.59,10.03l-3.59.21s-1.07-7.23-.59-10.04c0,0-2.77,8.32-2.44,10.21,0,0-12.59,1.14-13.97.2-1.37-.94,8.64-18.56,15.83-20.25s37.34-5.84,44.64,15.89Z"/>
    <path class="cls-8" d="M181.24,74.53c-.9-4.9,1.39-11.16,6.34-11.72,1.21-.08,2.43.04,3.61.33l5.33,1.07c1.62.24,3.2.71,4.68,1.42,2.57,1.58,4.36,4.16,4.93,7.12.56,2.92.7,5.91.43,8.88-.12,2.72-.51,5.91-2.89,7.26-1.41.79-3.13.67-4.67,1.14-1.34.53-2.63,1.16-3.88,1.88-4.61,2.05-10,.95-13.45-2.73"/>
    <path class="cls-15" d="M122.43,124.71c-1.18.53-2.47.77-3.76.7-1.04.08-2.07-.19-2.94-.77-.72-.52-1.03-1.45-.76-2.3.4-.93.76-1.88,1.07-2.84,0-.18-.47-.1-.51.06-.26.89-.59,1.76-.99,2.6-.3.6-.28,1.31.05,1.9.91,1.61,2.97,1.69,4.59,1.62,1.18-.03,2.34-.29,3.42-.78.32-.15,0-.31-.19-.19h.02Z"/>
    <path class="cls-15" d="M127.15,121.42c.34,0,.56.33.67.61.14.37.21.76.2,1.15.04.38-.06.75-.27,1.07-.36.4-.86.65-1.4.7-.78-.01-1.56-.15-2.29-.42-.12-.02-.25,0-.36.06,0,0-.18.11-.06.12.75.27,1.54.42,2.34.45.66-.06,1.29-.27,1.85-.62.4-.26.65-.7.68-1.17.04-.46-.02-.92-.16-1.35-.1-.46-.52-.78-.99-.75-.1,0-.3,0-.34.12s0,.09.12.07v-.04Z"/>
    <path class="cls-11" d="M46.35,185.63c-2.7,2.94-5.67,5.62-8.88,8-2.69,1.97-4,5.09-7.3,4.44-1.15-.22-.54,0-2.54.07-9.33-12.18,17.36-66.55,17.36-66.55l14.05-1.62-4.82,47.78h.18c-1.43,2.92-5.88,5.5-8.07,7.87Z"/>
    <path class="cls-2" d="M95.88,228.07c0,.83.07,1.66.12,2.49.1,2.04,1.07,5.05.48,7.03,4.26.18,6.92,4.36,11.17,4.62,29.4,1.77,58.86-6.14,88.22-3.99-.31-1.63-.49-3.28-.55-4.93-.52-22.71,1.74-41.29,1.75-63.93,0-.43,9.91.97,9.91.54-3.4-3.94-11.35-10.56-17.47-13.53-6.76-3.28-17.52-4.33-26.52-6.81-3.61,6.19-11.77,16.04-22.03,18.19-3.28.68-11.51.3-14.35-1.3-3.2-1.8-6.53-6.46-2.51-11.74.84-1.07-2.1-.32-.96-2.18-4.71.18-15.17,5.85-18.18,7.46-3.09,1.7-5.96,3.78-8.52,6.19-.8.75,0,6.88,0,8.2,0,3.2-.07,6.34-.15,9.52-.13,6.19-.31,12.39-.44,18.58-.13,6.19-.2,12.39-.1,18.58.01,2.31.07,4.66.16,6.99Z"/>
    <path class="cls-3" d="M96.94,196.66c-.31-5.12-.29-10.25.05-15.37,0-.53-1.07-.36-1.07.11-.37,5.11-.41,10.24-.13,15.35,0,.54,1.14.35,1.07-.1h.07Z"/>
    <path class="cls-11" d="M262.25,190.69c-9.77-2.62-18.18-9.43-25.57-16.65l-12.15-42.43,12.89-5.79s33.52,46.16,24.83,64.87Z"/>
    <path class="cls-12" d="M234.03,168.4c-.66,1.79-.69,3.75-.09,5.56.54,1.91,1.37,3.72,2.46,5.38.19.3,1.35-.07,1.12-.45-1.05-1.62-1.86-3.39-2.39-5.25-.59-1.76-.56-3.67.09-5.41.14-.32-1.07-.19-1.19.17h0Z"/>
    <path class="cls-2" d="M175.71,192.62l36.71,6.78,1.26-2.09c6.39-10.55,8.81-23.03,6.85-35.21h0s-30.53-12.7-34.63-12.79c-8.03-.14-15.71-1.94-22.93.26l12.74,43.05Z"/>
    <path class="cls-11" d="M36.82,204.91s-10.14-1.6-10.66-12.2c-.23-6.59,1.04-13.15,3.72-19.18l23.13.13s-7.57,22.66-10.41,26.59-5.79,4.67-5.79,4.67Z"/>
    <path class="cls-12" d="M53.99,173.73c.57,2.67.66,5.42.26,8.12-.14,1.48-.4,2.94-.78,4.38-.24,1.16-.75,2.25-1.47,3.2-.52.61.76.67,1.07.29,1.77-2.05,2.2-5.24,2.47-7.82.43-2.83.35-5.72-.25-8.52-.13-.51-1.46-.16-1.32.36h.02Z"/>
    <path class="cls-11" d="M263.29,178.75s6.39,21.7-20.92,20.39l-1.86-26.48,22.78,6.08Z"/>
    <path class="cls-11" d="M244.84,138.83l-5.06-10.53s1.07-8.4-.93-13c-1.06-2.57-2.56-4.95-4.43-7.01,0,0-2.42-4.95-4.76-5.73s-2.66,1.21-2.66,1.21c0,0-3.75-2.7-5.58,1-1.38-1.41-3.65-1.44-5.06-.06-.08.08-.16.16-.23.25,0,0-5.19-1.49-5.51,2.57-.18,2.22,2.07,8.69,2.07,8.69,2.22,3.27,4.72,6.35,7.46,9.21,3.06,3.62,4.4,7.7,7.04,12.63l17.66.78"/>
    <path class="cls-12" d="M226.46,104.32c.45,1.36.63,2.79.95,4.19.3,1.34.86,2.6,1.66,3.72.64,1.13,1.92,1.74,3.2,1.53,1.07-.27,1.26-1.4,1.26-2.33-.04-.66-.13-1.31-.27-1.95-.18-.57-.29-1.15-.32-1.75,0-.5-1.19-.28-1.24.15,0,.56.1,1.11.28,1.64.05.29.06.56.13.84.07.31.13.62.16.94.09.58.02,1.17-.2,1.7l-.15.18c-.14.15,0,.13.28-.07h-.42c-.32-.12-.61-.3-.85-.54-2.41-2.23-2.25-5.65-3.2-8.52-.15-.44-1.37-.1-1.24.33l-.03-.05Z"/>
    <path class="cls-12" d="M220.79,104.94c.31.76.62,1.5,1,2.23s.76,1.29,1.12,1.94c.86,1.59,1.51,3.27,2.4,4.84.36.65.9,1.17,1.56,1.52.58.42,1.32.56,2.01.37,1.48-.47,1.29-1.93,1.34-3.2,0-.59-1.21-.37-1.24.12s0,1.13-.07,1.67c0,.18-.06.53-.25.64s-.28,0-.45-.1c-.59-.25-1.12-.64-1.51-1.15-.42-.64-.77-1.32-1.07-2.04-1.13-2.45-2.6-4.71-3.63-7.19-.2-.49-1.43-.14-1.23.33h.01Z"/>
    <path class="cls-12" d="M215.23,105.53c.51,1.7,1.21,3.33,2.08,4.87.76,1.46,1.64,2.86,2.63,4.18.91,1.27,2.42,1.98,3.97,1.86,1.48-.21,3.13-1.29,2.58-2.97-.11-.34-1.33,0-1.23.33.29.67.06,1.44-.53,1.85-.55.34-1.25.34-1.8,0-1.18-.67-2.15-1.66-2.78-2.87-1.62-2.31-2.86-4.86-3.69-7.55-.1-.33-1.33,0-1.24.33v-.03Z"/>
    <path class="cls-12" d="M211.08,109.58c-.02.81.18,1.62.56,2.33.65,1.29,1.57,2.43,2.7,3.35.53.48,1.16.84,1.84,1.07.71.19,1.47.11,2.13-.22,1.22-.71,1.9-2.07,1.75-3.47.03-.72-.2-1.43-.64-2-.48-.45-.92-.93-1.33-1.44-.31-.5-1.48,0-1.07.56.47.77,1.49,1.24,1.73,2.13.35,1.11.09,2.32-.68,3.2-.95.83-2.13-.13-2.88-.78-.91-.79-1.67-1.73-2.25-2.79-.36-.65-.55-1.39-.55-2.13,0-.67-1.2-.52-1.25.07l-.06.13Z"/>
    <path class="cls-11" d="M223.83,129.57c-.32-.56-.62-.22-1.07-.68-.91-1.07-3.07-2.02-4.41-3.63-.7-.85-2.54-2.79-3.2-3.81-.17-1.11-.17-2.23,0-3.34.06-.72.18-1.43.36-2.13.8-3.13,2.57-4.26,3.93-7.22l2.25-2.66c.94.67,1.58,1.69,1.78,2.83.28.32-2.74.77-2.61,1.16.1.44.17.89.2,1.34.09.91.14,1.83.19,2.74.02.93.13,1.86.35,2.76.04.16.1.3.19.44.13.13.28.24.46.3.24.09.48.15.72.19.44.09.86.12,1.29.16,1.55.1,3.1.33,4.61.68.66.15,1.29.41,1.86.77.48.37.87.84,1.14,1.37.89,1.75,1.55,3.62,1.94,5.55.09.74.28,1.45.59,2.13"/>
    <path class="cls-12" d="M215.69,118.95c.18-2.77,1.07-5.44,2.59-7.76.71-1.07,1.39-2.02,2.18-2.97l1.81-2.13-1.14.26c.8.56,1.39,1.38,1.65,2.32.31,1.07-.4,1.94-.92,2.89-.52.71-.88,1.52-1.07,2.38,0,.62.05,1.24.16,1.85.03.48.16.95.4,1.37.49.56,1.59.6,2.26.69,1.07.16,2.02.29,3.03.53,1.02.17,1.99.59,2.81,1.21.56.76.98,1.62,1.24,2.54.14.29,1.32-.14,1.23-.33-.27-.82-.62-1.6-1.07-2.34-.62-.63-1.41-1.07-2.27-1.28-.98-.31-1.98-.52-2.99-.65-.84-.13-2.48-.09-3.05-.8-.27-.49-.41-1.03-.42-1.59-.11-.57-.14-1.16-.09-1.74.32-1.04.79-2.01,1.42-2.9.55-.68.7-1.59.42-2.41-.31-.87-.89-1.61-1.65-2.13-.4-.11-.82-.01-1.13.26l-1.86,2.2c-.8.97-1.54,1.99-2.24,3.04-1.54,2.35-2.44,5.06-2.6,7.86,0,.15,1.19,0,1.23-.33l.06-.04Z"/>
    <path class="cls-11" d="M39.19,147.97l2.87-12.23s-3.08-8.52-2.06-13.85c.52-2.95,1.54-5.78,3.03-8.39,0,0,1.39-5.78,3.67-7.13s3.08.65,3.08.65c0,0,3.31-3.7,6.09-.26,1.11-1.81,3.48-2.37,5.29-1.26.01,0,.02.01.04.02l.3.2s5.1-2.77,6.39,1.42c.7,2.28-.15,9.59-.15,9.59-1.58,3.95-4.71,8.27-6.93,11.9-2.38,4.52-4.02,21.51-5.64,27.3l-15.98-7.98"/>
    <path class="cls-12" d="M49.11,107.6c-.33,3.27.62,6.84-1.4,9.74-.15.22-.5.74-.8.78.19,0,.06,0,0-.13s-.2-.15-.28-.26c-.35-.54-.56-1.17-.61-1.81-.03-.33-.03-.67,0-1,0-.29,0-.59-.06-.87.06-.58.04-1.17-.07-1.75-.09-.28-1.41.11-1.32.35.1.53.13,1.07.07,1.61v1.76c.07.84.35,2.46,1.43,2.6,1.24.03,2.4-.6,3.05-1.65.74-1.23,1.17-2.62,1.26-4.05.14-1.89-.12-3.78.06-5.67,0-.14-1.29,0-1.32.35h-.01Z"/>
    <path class="cls-12" d="M55.2,106.82c-.5,2.81-1.5,5.49-2.13,8.28-.14.81-.34,1.6-.61,2.38-.32.65-.79,1.21-1.36,1.65-.15.14-.23.19-.49,0-.18-.16-.32-.37-.39-.6-.19-.57-.34-1.15-.46-1.74-.16-.59-1.49-.22-1.33.35.35,1.27.48,2.92,2.13,2.99.67-.01,1.31-.29,1.78-.77.69-.52,1.21-1.24,1.49-2.06.62-1.84.88-3.81,1.43-5.69.22-.8.52-1.57.75-2.37s.38-1.72.53-2.59c.12-.63-1.24-.45-1.34.12v.03Z"/>
    <path class="cls-12" d="M61.19,106.2c-.24,2.97-.94,5.88-2.07,8.63-.37,1.38-1.13,2.63-2.2,3.59-1.2.9-3.2.4-3-1.31.06-.69-1.29-.52-1.34.1-.18,1.79,1.45,2.81,3.12,2.69,1.77-.29,3.27-1.48,3.97-3.13.75-1.65,1.36-3.36,1.82-5.11.56-1.8.91-3.66,1.07-5.54,0-.7-1.31-.52-1.34.1h-.03Z"/>
    <path class="cls-12" d="M66.5,109.69c.14.62.14,1.27,0,1.89-.28,1.31-.83,2.55-1.61,3.63-.56.83-1.42,2.13-2.59,1.84s-1.75-1.65-1.92-2.75c-.13-.63-.01-1.29.33-1.83.39-.5.72-1.04.98-1.61.25-.69-1.07-.64-1.26-.12-.26.58-.58,1.12-.96,1.63-.35.57-.49,1.24-.4,1.9.02,1.47.84,2.8,2.13,3.49.68.28,1.43.32,2.13.1.74-.26,1.39-.71,1.89-1.32,1.04-1.17,1.83-2.53,2.32-4.02.4-1.02.49-2.13.26-3.2-.17-.58-1.5-.22-1.33.35h.03Z"/>
    <path class="cls-11" d="M59.1,133.36c.2-.66.6-.36.95-.96.69-1.35,2.75-2.83,3.78-4.83.54-1.07,2.01-3.53,2.48-4.76-.09-1.2-.36-2.38-.8-3.49-.22-.74-.51-1.45-.86-2.13-1.58-3.1-3.7-3.91-5.81-6.67l-2.98-2.27c-.83.93-1.27,2.14-1.21,3.39-.2.39,3.06.16,3.02.61,0,.49.03.98.1,1.46.13.97.29,1.96.44,2.93.2.98.3,1.97.28,2.97,0,.18-.04.35-.11.51-.1.17-.24.31-.4.42-.23.14-.47.26-.71.36-.43.18-.87.34-1.32.47-1.6.47-3.17,1.07-4.68,1.79-.66.31-1.26.73-1.79,1.24-.41.5-.71,1.09-.87,1.72-.53,2.05-.78,4.16-.75,6.28.08.79.04,1.58-.12,2.35"/>
    <path class="cls-12" d="M66.51,120.16c-.83-2.92-2.42-5.57-4.59-7.69-.99-.92-1.95-1.84-3.03-2.66l-2.53-1.91c-.36-.18-.79-.1-1.07.19-1.16,1.26-1.98,3.52-.75,4.94.71.83,1.46,1.63,2.13,2.46.67,1.07.94,2.34.79,3.59,0,1.07-1.76,1.41-2.63,1.75-1.1.39-2.17.87-3.2,1.43-.92.45-1.71,1.12-2.3,1.95-.37.95-.6,1.95-.68,2.97-.14.61,1.21.44,1.34-.12.23-1.07.11-2.29.91-3.11.91-.82,1.98-1.46,3.13-1.89.98-.4,1.98-.75,2.96-1.16.7-.29,1.56-.69,1.73-1.51.12-1.01.05-2.04-.19-3.03-.22-.82-.67-1.56-1.3-2.13-.62-.71-1.93-1.76-2.01-2.74-.08-1.12.3-2.23,1.07-3.06l-1.07.19c1.86,1.42,3.63,2.82,5.33,4.4,2.12,2.05,3.67,4.62,4.49,7.46.18.56,1.5.2,1.32-.36l.15.03Z"/>
    <path class="cls-10" d="M121.71,129.95c3.36-.13,10.84,1.72,12.38,3-2.61,3.69-6.8,5.94-11.32,6.06-7.77.31-9.34-5.23-9.34-5.23,0,0,4.02-3.65,8.28-3.84Z"/>
    <path class="cls-9" d="M130.87,131.58s-4.01-.17-7.18,0-7.16.62-7.16.62c0,0-.61-2.46,5.16-2.7,3.2-.25,6.4.48,9.18,2.08Z"/>
    <path class="cls-16" d="M122.73,137.92c3.61-.69,7.11-5.06,11.36-4.97,0,0-.81,7.96-9.95,8.33s-10.66-7.46-10.66-7.46c4.18-.48,5.58,3.68,9.25,4.09Z"/>
    <path class="cls-16" d="M117.66,128.21c1.92-.22,3.2.49,4,.46s2.02-.84,3.95-.77,9.59,4.35,8.77,4.99-6.86-2.51-12.64-2.28-7.71,3.69-8.6,3.13,2.73-5.32,4.52-5.53Z"/>
    <path class="cls-12" d="M124.46,107.67c-1.92-.44-2.5-2.44-2.39-4.2.12-1.75.94-3.37,2.27-4.52.22-.19-.2-.22-.31-.21-.31,0-.61.12-.86.31-1.4,1.2-2.26,2.92-2.39,4.76-.13,1.91.59,3.9,2.62,4.36.31.04.63-.01.91-.16.11,0,.44-.28.15-.34Z"/>
    <path class="cls-13" d="M50.13,279.71s-.07.01-.11,0v-.28l.11.28Z"/>
    <path class="cls-13" d="M77.93,86.66s-.04.07-.06.1l-.2-.21.27.12Z"/>
    <path class="cls-2" d="M195.22,231.27s.65,9.18,1.74,11.6c0,0-22.96,6.48-40.87,8.04-17.91,1.57-61.35-1.67-61.35-1.67v-11.26s40.81,3.74,63.78.75c22.97-2.99,36.71-7.46,36.71-7.46Z"/>
    <path class="cls-3" d="M194.35,231.48c.12,1.63.27,3.26.46,4.89.11,2.29.54,4.55,1.28,6.71l.81-.48c-16.46,4.64-33.54,8.22-50.7,8.38-16.2.15-32.41-.8-48.56-1.92-.68,0-1.41-.17-2.13-.15-.43,0,.1,0,.1,0,.05-.5.05-1,0-1.49v-9.7l-1.6.55c11.02,1.07,22.1,1.59,33.16,1.83,8.49.26,16.99.09,25.47-.51,9.63-.87,19.19-2.39,28.62-4.54,4.8-.98,9.55-2.21,14.24-3.67,1.18-.38.06-.56-.6-.35s-1.75.53-2.74.81c-2.73.77-5.47,1.45-8.23,2.13-9.36,2.21-18.85,3.82-28.42,4.82-15.89,1.53-32.06.77-47.95-.23-4.04-.26-8.07-.53-12.09-.9-.32,0-1.6.09-1.6.56v11.26c0,.1.27.1.3.11,10.93.81,21.86,1.4,32.8,1.78,7.8.27,15.62.47,23.44.18,9.04-.49,18.03-1.72,26.86-3.7,6.63-1.37,13.24-2.92,19.77-4.75.11,0,.91-.26.81-.48-.74-2.17-1.18-4.43-1.29-6.71-.18-1.63-.34-3.26-.46-4.89-.02-.3-1.78,0-1.75.45Z"/>
    <path class="cls-3" d="M197.14,195.85c-.2-1.88-.2-3.78,0-5.67.22-1.65.69-3.25,1.39-4.75.27-.58-.84-.6-1.07-.14-.73,1.57-1.22,3.25-1.45,4.97-.21,1.96-.21,3.93,0,5.89.05.51,1.16.25,1.07-.3h.06Z"/>
    <path class="cls-9" d="M115.6,110.89s-5.63,1.36-7.86.7-5.98-2.72-5.98-2.72c0,0,.19-.25,2.15-1.34,1.96-1.09,7.5-2.79,11.69,3.36Z"/>
    <path class="cls-9" d="M146.69,108.24s-5.17,2.77-9.14,2.72-9.14-.43-9.14-.43c0,0,4-4,6.68-4.66,2.68-.66,8.17-.95,11.6,2.37Z"/>
    <path class="cls-8" d="M106.45,108.61c-.12,1.53,1.02,2.86,2.55,2.98s2.86-1.02,2.98-2.55c.12-1.53-1.02-2.86-2.55-2.98-.36-.03-.73.02-1.08.13-1.06.35-1.81,1.3-1.9,2.42Z"/>
    <ellipse class="cls-5" cx="138.17" cy="108.18" rx="2.77" ry="2.78" transform="translate(-25.01 43.64) rotate(-16.48)"/>
    <path class="cls-8" d="M128.41,110.53s4.39-6.02,9.13-5.88c6.68.21,8.14,2.13,9.14,3.59-3.06-1.4-6.37-2.17-9.73-2.27-4.68-.02-8.55,4.56-8.55,4.56Z"/>
    <path class="cls-8" d="M103.25,107.48c1.51-1.19,3.41-1.76,5.33-1.6,4.26.17,7.02,5.01,7.02,5.01,0,0-2.98-3.55-7.23-3.81-2.05-.13-5.09,1.25-6.61,2.13-.04-.43.7-1.13,1.49-1.73Z"/>
  </g>
</svg>