<?xml version="1.0" encoding="UTF-8"?>
<svg id="Layer_4" data-name="Layer 4" xmlns="http://www.w3.org/2000/svg" xmlns:xlink="http://www.w3.org/1999/xlink" viewBox="0 0 292.89 301.99">
  <defs>
    <style>
      .cls-1 {
        fill: none;
      }

      .cls-2 {
        fill: #825739;
      }

      .cls-3 {
        fill: #010101;
      }

      .cls-4 {
        fill: #ddad6f;
      }

      .cls-5 {
        fill: #c0c0c1;
      }

      .cls-6 {
        fill: #755346;
      }

      .cls-7 {
        fill: #638e9f;
      }

      .cls-8 {
        fill: #27153c;
      }

      .cls-9 {
        fill: url(#linear-gradient);
      }

      .cls-10 {
        fill: #b0aeb0;
      }

      .cls-11 {
        fill: #e9e8e8;
      }

      .cls-12 {
        fill: #060606;
      }

      .cls-13 {
        fill: #384f52;
      }

      .cls-14 {
        fill: #fff;
      }

      .cls-15 {
        fill: #251911;
      }

      .cls-16 {
        fill: #4c3059;
      }

      .cls-17 {
        fill: #dbb28f;
      }

      .cls-18 {
        fill: #4f2f26;
      }

      .cls-19 {
        fill: #14162a;
      }

      .cls-20 {
        fill: #523936;
      }

      .cls-21 {
        fill: #94674b;
      }

      .cls-22 {
        clip-path: url(#clippath);
      }
    </style>
    <clipPath id="clippath">
      <path class="cls-1" d="M297.21,133.34c0-15.06-11.71-27.38-26.52-28.37-6.6-15.68-16.27-30.36-29.04-43.13-22.1-22.1-49.95-34.95-78.74-38.56C155.18,8.95,140.02-.79,122.59-.79c-23.98,0-43.64,18.43-45.62,41.9-9.51,5.65-18.47,12.55-26.65,20.73C-2.51,114.68-2.51,200.34,50.33,253.17c52.83,52.83,138.5,52.83,191.33,0,26.07-26.07,39.26-60.12,39.61-94.28,9.44-4.63,15.94-14.33,15.94-25.55Z"/>
    </clipPath>
    <linearGradient id="linear-gradient" x1="146.74" y1="194.76" x2="140.19" y2="-75.74" gradientUnits="userSpaceOnUse">
      <stop offset="0" stop-color="#bbe5f5"/>
      <stop offset=".77" stop-color="#77c5da"/>
    </linearGradient>
  </defs>
  <g class="cls-22">
    <circle class="cls-9" cx="145.84" cy="157.71" r="135.29"/>
    <path class="cls-7" d="M148.63,196.55c3.14-.26,6.29-.61,9.42-1.07.26-.34,1.73,2.02,2.29,2.02,5.26,0,11.24,0,16.23-1.57.09-21.12-1.64-49.02-4.22-59.18-4.28-16.85-36.29-25.59-38.41-26.45,0,0,5.55,56.87,13.21,80.44.6,1.91,1.09,3.85,1.49,5.81Z"/>
    <rect class="cls-4" x="124.36" y="27.24" width="15.92" height="5.97" rx="2.79" ry="2.79" transform="translate(101.21 162.34) rotate(-89.62)"/>
    <path class="cls-16" d="M112.22,121.54c.94-8.04,2.37-16.01,4.28-23.87,1.6-6.58,3.34-13.78,8.56-18.48.86-.77-1.07-.89-1.57-.42-5.18,4.65-7.06,11.59-8.68,18.11-2.04,8.19-3.56,16.49-4.55,24.87-.1.86,1.86.52,1.95-.2h.02Z"/>
    <path class="cls-4" d="M119.35,42.52h0c1.38.91,1.77,2.76.87,4.15l-5.47,8.36c-.91,1.38-2.76,1.77-4.15.87h0c-1.38-.91-1.77-2.76-.87-4.15l5.47-8.36c.91-1.38,2.76-1.77,4.15-.87Z"/>
    <path class="cls-17" d="M94.44,72.55c.51,4.72.38,9.49-.37,14.18-1.81,11.23-11.63,16.56-11.63,16.56l39.41,26.74,18.64-17.77s-9.47-5.64-9.63-7.89c-.16-2.26,4.28-18.89,4.28-18.89"/>
    <path class="cls-2" d="M94.52,73.77v.12c-.01-.05-.02-.1,0-.12Z"/>
    <path class="cls-17" d="M120.09,99.37l11.28,2,5.1.35c2.15.23,4.22-.84,5.28-2.72,2.42-4.09,3.21-6.21,3.57-6.71,1.99-3.18,3.72-6.51,5.18-9.96,1.2-3.02,2.42-4.75,3.21-8.43.57-2.7.75-4.61-.34-9.18-.27-1.15-.2-2.36.19-3.48.8-2.5,1.27-5.48,2.28-8.83.23-.59.37-1.21.43-1.84,0,0,1.82-14.23-.32-19.54s-4.21-10.7-7.88-12.03-16.43,1.19-16.43,1.19l-15.13-3.5-13.56,5.35-7.93,15.22-.61,18.43.11,18.07"/>
    <path class="cls-3" d="M99.92,29.6c-.33-8.25,7.2-10.7,10.35-11.86,2.67-.98,10.16-2.72,15.42-1.49,2.27.53.78,5.27,1.96,6.24.4.13,4.97,1.57,6.8,2,2.29.69,4.69.94,7.08.74,1.3-.33,2.67-.33,3.97,0,2.35.55,3.85-5.22,8.25.7l.26-.22c-5.49-8.56-13.57-9.13-23.12-11.38-1.01-.24-2.05-.44-3.1-.6-15.28-2.39-14.8-2.22-25.67,7.12-6.29,5.43-10.18,10.81-10.4,14.39v.8c-.24,3.73-4.85,13.46-3.7,15.61.73,1.37,2.91,7.32,4.71,12.36l7.33.76c0-1.4.35-13.27.4-14.7"/>
    <path class="cls-17" d="M94.83,74.05c-6.42,5.26-6.76-4.67-6.76-4.67-3.65-5.35-3.12-10.7-2.62-14.27s4.48-3.21,4.48-3.21c3.35.7,5.17,1.72,6.88,13.4"/>
    <path class="cls-3" d="M143.64,21.76c-5.5-.55-19.64-5.53-27.07-6.61-3.07-.45-13.97,6.42-15.44,8-3.39,3.74,2.94,13.49-3.38,25.79-2.14,4.06-3.94-3.5-6.42-.92-2.48,2.58-3.37,3.62-3.37,3.62-.63-12.32-.62-11.89,3.05-23.7,3.67-11.81,17.23-15.98,23.65-16.46,6.42-.48,26.6,3.21,31.88,6.18"/>
    <path class="cls-19" d="M93.77,63.9c-.58-1.77-1.34-3.47-2.26-5.09-.46-.84-1.04-1.61-1.74-2.27-.28-.27-.61-.47-.97-.59-.45-.11-.67.29-.88.62-.81,1.44-1.08,3.12-.77,4.75,0,.2.61.07.58-.15-.22-1.28-.1-2.6.34-3.82.16-.44.4-.85.71-1.21l-.34.12c-.12,0,0,0,0,0l.15.05c.24.11.46.27.65.45.98.94,1.76,2.07,2.3,3.32.64,1.3,1.2,2.63,1.67,4,.07.2.64,0,.57-.15v-.03Z"/>
    <path class="cls-19" d="M92.45,64.45c-2.39-.33-1.38,2.91-1.64,4.21-.05.14-.12.28-.19.42l.25-.06h0s-.07-.06-.09-.09-.14-.24-.19-.36c-.24-.69-.39-1.41-.44-2.14-.17-1.03-.17-2.07,0-3.1.21-1.07.64-2.72,1.79-3.09.32-.11.28-.32-.06-.21-1.06.44-1.83,1.38-2.06,2.5-.25.73-.38,1.5-.39,2.28,0,1.02.12,2.04.32,3.05.09.4.2,1.19.63,1.39.34.11.72-.03.9-.34.16-.37.22-.78.16-1.19,0-.59-.39-3.14.66-2.99.15,0,.66-.22.36-.27h-.01Z"/>
    <path class="cls-18" d="M131.37,101.37c-5.88-.4-11.62-.93-13.53-1.68-9.73-3.84-16.15-19.03-16.15-19.03,1.31,4.68,3.49,9.08,6.42,12.96,5.02,6.75,8.12,7.86,14.08,8.41,2.83.26,5.04.79,8.78,1.19l.41-1.85Z"/>
    <path class="cls-3" d="M85.74,54.05s-2.62-6.42-1.79-16.48c.83-10.06,2.68-23.48,14.75-27.76,2.15-.76,4.4-1.21,6.67-1.33,0,0,8.31-7.31,29.38-1.35,14.79,4.18,20.18,10.83,20.56,22.46,0,0-3.66-6.35-4.97-5.9s-2.7,3.38-7.8,3.39-13.1-1.43-16.25-3.83c-3.14-2.4-8.98-5.09-12.49-4.92-8.56.42-10,6.71-11.03,10.36-1.03,3.66-4.18,16.65-8.47,18.1-2.4.66-4.23,2.6-4.74,5.04l-.7.2c-1.22.35-2.31,1.05-3.13,2.01Z"/>
    <path class="cls-3" d="M134.56,47.37s-10.35-.95-14.65.64-5.58,2.71-5.58,2.71c0,0-1.24-.31-.64-1.07s3.78-3.85,6.13-4.75,14.08-1.45,14.08-1.45l.67,3.93Z"/>
    <path class="cls-3" d="M155.74,53.2c.08-.11.16-.21.26-.31l-.11.11c.17-.17.32-.34.46-.53.1-.6.37-1.07.5-1.66-3.42-2.02-6.94-3.86-10.56-5.51l-2.52,3.34c4,1.01,7.83,2.57,11.4,4.64.18-.06.37-.09.57-.07Z"/>
    <path class="cls-3" d="M142.06,69.76c.15.66.3,1.32.43,1.97.09.44.17.88.25,1.33.07.29.1.58.09.88-.14.96-1.47,1.23-2.25,1.3-.99.1-1.99.1-2.98,0-1.23-.04-2.43-.35-3.53-.9-.17-.11-.52.12-.32.25.99.53,2.09.84,3.21.93,1.13.15,2.27.17,3.4.07.94.01,1.85-.35,2.52-1.01.52-.64.27-1.42.13-2.14-.17-.92-.37-1.84-.58-2.75,0-.2-.46-.1-.42.11l.05-.04Z"/>
    <path class="cls-3" d="M130.99,70.86c-.47,0-.92.16-1.29.43-.38.28-.62.71-.67,1.18-.12.49.03,1.01.41,1.35.42.32.91.53,1.43.61.64.17,1.31.24,1.98.19.09,0,.27,0,.31-.11s0-.07-.11-.06c-.63.03-1.26-.04-1.87-.21-.57-.07-1.09-.34-1.49-.75-.3-.48-.33-1.07-.09-1.57.16-.47.57-.81,1.07-.88.12,0,.23-.02.33-.09.05,0,.07-.1,0-.09h-.01Z"/>
    <path class="cls-12" d="M113.46,51.73l.58,2.76c.52,2.6,1.32,5.14,2.4,7.57.82,1.69,11.86,3.71,14.2,2.74,2.34-.97,4.33-7.04,5.09-8.41l4.42.81c.16,1.93.82,8.02,1.56,8.92s5.87,1.42,6.42,1.49,1.14.1,1.88.13c1.95.12,4.28.1,5.13-.51,1.2-.9,2.86-4.71,4.28-8.32l.25-.57c0-.14.11-.22.11-.27h0l.27-.65c-6.03-3.82-14.49-4.41-20.05-1.39v.07l-4.28-.82c-4.5-3.82-12.76-6.64-19.1-5.12h0l-17.52,2.52-.26,1.63,14.63-2.58ZM142.34,65.64c-.46-.57-1.07-4.85-1.4-8.17,4.82-2.53,12.45-1.99,17.88,1.07v.07c-.79,1.95-2.89,7.1-4.06,7.99-1.4,1.07-11.57-.1-12.41-.97h-.01ZM117.74,61.8c-1.54-3.13-2.55-6.5-3.02-9.96,5.69-1.71,15.41.94,19.83,4.59-1.07,2.5-2.62,6.93-4.28,7.62-2.42,1.01-12.01-1.19-12.51-2.25h-.02Z"/>
    <path class="cls-19" d="M136.78,50.46c1.63-.32,2.97-1.45,3.57-2.99.46-1.45-.17-3.02-1.5-3.76-.15-.07-.67.15-.46.26,1.2.68,1.79,2.09,1.43,3.42-.44,1.44-1.64,2.52-3.11,2.82-.34.09-.28.34.06.26Z"/>
    <path class="cls-7" d="M169.62,142.11l-4.28-18.27s-7.77-7.89-15.56-10.41c-4.64-1.49-14.71-6.1-17.47-6.97.72,3.67-.2,9.2-2.73,11.2-3.53,2.79-6,2.99-10.49,3.11-4.35.02-8.66-.76-12.73-2.29-7.58-2.67-16.36-12.44-18.18-20.71l-7.03,3.52s-24.04,11.05-27.74,12.56,4.43,96.35,4.43,96.35l-12.09,32.34c-.84,3.93-17.98,38.18-4.88,69.08,0,0,81.34-11.43,89.93-11.55,9.99-.15,31.83,3.21,34.35-1.55s4.46-156.41,4.46-156.41Z"/>
    <path class="cls-7" d="M181.24,234.55c9.91,5.45,14.87-25.54,22.55-33.85-2.63-2.65-6.42-11.57-7.95-14.87-3.21-6.67-6.22-13.41-9.24-20.16-3.79-8.46-7.28-17.06-11.44-25.36-2.07-4.19-4.37-8.26-6.89-12.19-2.14-3.37-4.28-6.63-7.57-8.97-3.37-2.35-7.02-4.26-10.87-5.71l-18.96,37.27s11.14,26.59,20.58,32.61c.31.19,4,8.94,5.25,11.39.27.52-3.76,1.44-3.7,2.03.49,4.52,6.16,25.67,28.25,37.81Z"/>
    <path class="cls-17" d="M237.7,133.34l-17.68,12.83s-32.6,22.89-39.44,27.28c.47,1.6,6.52,6,7.03,7.6,2.86,9.13-5.55,34.74-5.55,34.74,27.68,6.89,42.42-36.31,46.24-43.07,4.16-7.36,18.54-26.28,18.54-26.28l-9.13-13.11Z"/>
    <path class="cls-20" d="M240.4,285.91h-.09v-.15l.09.15Z"/>
    <path class="cls-20" d="M115.79,172.39h.1c0,.12.06.24,0,.33l-.1-.33Z"/>
    <path class="cls-20" d="M121.6,204.74h-.07v-.21l.07.21Z"/>
    <path class="cls-6" d="M142.21,167.73h-.12l.12-.06s0,.04,0,.06Z"/>
    <path class="cls-6" d="M125.22,170.68l.11-.07h0l-.11.07Z"/>
    <path class="cls-6" d="M141.85,167.76h-.16s.11-.05.15,0c0,0,0,0,0,0Z"/>
    <path class="cls-6" d="M116.16,172.28s.08-.05.12-.02c0,0,.01.01.02.02h-.14Z"/>
    <path class="cls-17" d="M65,130.68s8.43,1.07,7.63,25.58c-.82,24.9-11.32,77.33-11.32,77.33,0,0,58,8.95,69.04,12.95l4.67,16.41c-19.92,3.89-80,9.27-93.71,1.99,0,0-12.83-3.9-14.39-19.52-1.37-13.9,8.56-90.81,8.56-90.81"/>
    <path class="cls-13" d="M165.87,221.89c1.25-17.19,1.91-34.44,2.52-51.66.13-3.86.26-7.72.33-11.57,0-.39-.75-.28-.75.05-.3,17.23-1.2,34.47-2.14,51.68-.21,3.85-.43,7.71-.71,11.55,0,.39.72.29.74-.05Z"/>
    <path class="cls-18" d="M61.6,233.09c-2.33-.46-4.74-.25-6.95.61-2.07,1.12-3.84,2.74-5.14,4.7-.58.75.9.84,1.27.36,1.12-1.75,2.63-3.21,4.42-4.28,1.86-.7,3.89-.85,5.84-.43.68.09,1.6-.87.57-1.01v.04Z"/>
    <path class="cls-13" d="M200.66,194.85c-2.94.24-5.28,2.5-6.94,4.76-1.79,2.32-3,5.03-3.55,7.9,0,.26.7.13.73-.11.5-2.62,1.57-5.1,3.13-7.26,1.5-2.2,3.69-4.7,6.52-4.92.34,0,.62-.41.11-.37h0Z"/>
    <polygon class="cls-5" points="228.1 262.84 158.52 250.05 168.34 143.93 236.93 160.65 228.1 262.84"/>
    <rect class="cls-10" x="188.57" y="133.32" width="13.06" height="67.62" transform="translate(10.7 345.98) rotate(-84.71)"/>
    <rect class="cls-10" x="193.53" y="144.4" width="1.07" height="67.62" transform="translate(-1.27 355.02) rotate(-84.71)"/>
    <rect class="cls-10" x="193.22" y="147.8" width="1.07" height="67.62" transform="translate(-4.94 357.8) rotate(-84.71)"/>
    <rect class="cls-10" x="192.9" y="151.19" width="1.07" height="67.62" transform="translate(-8.61 360.55) rotate(-84.71)"/>
    <rect class="cls-10" x="192.59" y="154.6" width="1.07" height="67.62" transform="translate(-12.29 363.34) rotate(-84.71)"/>
    <rect class="cls-10" x="192.32" y="157.56" width="1.07" height="67.62" transform="translate(-15.48 365.75) rotate(-84.71)"/>
    <rect class="cls-10" x="192" y="160.96" width="1.07" height="67.62" transform="translate(-19.15 368.53) rotate(-84.71)"/>
    <rect class="cls-10" x="183.1" y="188.98" width="1.11" height="19.34" transform="translate(-31.08 363.2) rotate(-84.71)"/>
    <rect class="cls-10" x="182.77" y="192.54" width="1.11" height="19.34" transform="translate(-34.93 366.11) rotate(-84.71)"/>
    <rect class="cls-10" x="182.44" y="196.11" width="1.11" height="19.34" transform="translate(-38.78 369.02) rotate(-84.71)"/>
    <rect class="cls-10" x="210.3" y="204.15" width="1.12" height="29.71" transform="translate(-26.17 409.39) rotate(-84.86)"/>
    <rect class="cls-10" x="208.54" y="207.3" width="1.11" height="29.6" transform="translate(-31.33 409.83) rotate(-84.71)"/>
    <rect class="cls-10" x="209.65" y="211.31" width="1.12" height="29.71" transform="translate(-33.9 415.26) rotate(-84.86)"/>
    <rect class="cls-10" x="182.1" y="199.67" width="1.11" height="19.34" transform="translate(-42.63 371.92) rotate(-84.71)"/>
    <rect class="cls-10" x="181.82" y="202.78" width="1.11" height="19.34" transform="translate(-45.99 374.46) rotate(-84.71)"/>
    <rect class="cls-10" x="181.48" y="206.33" width="1.11" height="19.34" transform="translate(-49.83 377.35) rotate(-84.71)"/>
    <rect class="cls-10" x="181.16" y="209.89" width="1.11" height="19.34" transform="translate(-53.66 380.26) rotate(-84.71)"/>
    <rect class="cls-10" x="180.84" y="213.45" width="1.11" height="19.34" transform="translate(-57.5 383.17) rotate(-84.71)"/>
    <rect class="cls-10" x="180.5" y="217.02" width="1.11" height="19.34" transform="translate(-61.36 386.07) rotate(-84.71)"/>
    <rect class="cls-10" x="180.17" y="220.58" width="1.11" height="19.34" transform="translate(-65.2 388.98) rotate(-84.71)"/>
    <rect class="cls-10" x="179.88" y="223.68" width="1.11" height="19.34" transform="translate(-68.56 391.5) rotate(-84.71)"/>
    <rect class="cls-10" x="179.56" y="227.24" width="1.11" height="19.34" transform="translate(-72.39 394.42) rotate(-84.71)"/>
    <rect class="cls-10" x="179.22" y="230.8" width="1.11" height="19.34" transform="translate(-76.24 397.31) rotate(-84.71)"/>
    <rect class="cls-10" x="178.9" y="234.36" width="1.11" height="19.34" transform="translate(-80.08 400.22) rotate(-84.71)"/>
    <rect class="cls-10" x="178.61" y="237.48" width="1.11" height="19.34" transform="translate(-83.44 402.76) rotate(-84.71)"/>
    <rect class="cls-10" x="178.27" y="241.03" width="1.11" height="19.34" transform="translate(-87.29 405.66) rotate(-84.71)"/>
    <rect class="cls-10" x="135.33" y="216.87" width="53.38" height="12.05" transform="translate(-74.86 363.69) rotate(-84.71)"/>
    <rect class="cls-10" x="204.6" y="193.37" width="14.47" height="29.71" transform="translate(-14.54 400.54) rotate(-84.86)"/>
    <rect class="cls-10" x="206.3" y="231.47" width="1.11" height="29.6" transform="translate(-57.43 429.54) rotate(-84.71)"/>
    <rect class="cls-10" x="207.46" y="235.57" width="1.12" height="29.71" transform="translate(-60.05 435.16) rotate(-84.86)"/>
    <rect class="cls-10" x="205.65" y="238.59" width="1.11" height="29.6" transform="translate(-65.11 435.35) rotate(-84.71)"/>
    <rect class="cls-10" x="200.65" y="220.74" width="14.41" height="29.6" transform="translate(-45.84 420.79) rotate(-84.71)"/>
    <rect class="cls-11" x="137.92" y="168.74" width="106.58" height="83.11" transform="translate(-35.82 381.3) rotate(-84.71)"/>
    <rect class="cls-10" x="188.17" y="137.64" width="13.06" height="67.62" transform="translate(6.04 349.51) rotate(-84.71)"/>
    <rect class="cls-10" x="193.14" y="148.74" width="1.07" height="67.62" transform="translate(-5.96 358.57) rotate(-84.71)"/>
    <rect class="cls-10" x="192.82" y="152.13" width="1.07" height="67.62" transform="translate(-9.62 361.32) rotate(-84.71)"/>
    <rect class="cls-10" x="192.5" y="155.53" width="1.07" height="67.62" transform="translate(-13.29 364.1) rotate(-84.71)"/>
    <rect class="cls-10" x="192.19" y="158.93" width="1.07" height="67.62" transform="translate(-16.96 366.88) rotate(-84.71)"/>
    <rect class="cls-10" x="191.92" y="161.89" width="1.07" height="67.62" transform="translate(-20.15 369.29) rotate(-84.71)"/>
    <rect class="cls-10" x="191.6" y="165.29" width="1.07" height="67.62" transform="translate(-23.83 372.05) rotate(-84.71)"/>
    <rect class="cls-10" x="182.7" y="193.31" width="1.11" height="19.34" transform="translate(-35.76 366.74) rotate(-84.71)"/>
    <rect class="cls-10" x="182.36" y="196.88" width="1.11" height="19.34" transform="translate(-39.62 369.64) rotate(-84.71)"/>
    <rect class="cls-10" x="182.03" y="200.44" width="1.11" height="19.34" transform="translate(-43.46 372.55) rotate(-84.71)"/>
    <rect class="cls-10" x="208.47" y="208.07" width="1.11" height="29.6" transform="translate(-32.16 410.46) rotate(-84.71)"/>
    <rect class="cls-10" x="209.59" y="212.08" width="1.12" height="29.71" transform="translate(-34.71 415.89) rotate(-84.86)"/>
    <rect class="cls-10" x="207.81" y="215.2" width="1.11" height="29.6" transform="translate(-39.86 416.27) rotate(-84.71)"/>
    <rect class="cls-10" x="181.71" y="203.99" width="1.11" height="19.34" transform="translate(-47.29 375.45) rotate(-84.71)"/>
    <rect class="cls-10" x="181.42" y="207.1" width="1.11" height="19.34" transform="translate(-50.65 377.99) rotate(-84.71)"/>
    <rect class="cls-10" x="181.09" y="210.66" width="1.11" height="19.34" transform="translate(-54.49 380.89) rotate(-84.71)"/>
    <rect class="cls-10" x="180.76" y="214.22" width="1.11" height="19.34" transform="translate(-58.34 383.79) rotate(-84.71)"/>
    <rect class="cls-10" x="180.43" y="217.79" width="1.11" height="19.34" transform="translate(-62.19 386.7) rotate(-84.71)"/>
    <rect class="cls-10" x="180.1" y="221.35" width="1.11" height="19.34" transform="translate(-66.03 389.61) rotate(-84.71)"/>
    <rect class="cls-10" x="179.78" y="224.9" width="1.11" height="19.34" transform="translate(-69.86 392.51) rotate(-84.71)"/>
    <rect class="cls-10" x="179.48" y="228.01" width="1.11" height="19.34" transform="translate(-73.23 395.04) rotate(-84.71)"/>
    <rect class="cls-10" x="179.15" y="231.57" width="1.11" height="19.34" transform="translate(-77.07 397.94) rotate(-84.71)"/>
    <rect class="cls-10" x="178.82" y="235.13" width="1.11" height="19.34" transform="translate(-80.92 400.84) rotate(-84.71)"/>
    <rect class="cls-10" x="178.5" y="238.7" width="1.11" height="19.34" transform="translate(-84.76 403.76) rotate(-84.71)"/>
    <rect class="cls-10" x="178.21" y="241.8" width="1.11" height="19.34" transform="translate(-88.1 406.29) rotate(-84.71)"/>
    <rect class="cls-10" x="177.88" y="245.36" width="1.11" height="19.34" transform="translate(-91.97 409.19) rotate(-84.71)"/>
    <rect class="cls-10" x="134.94" y="221.19" width="53.38" height="12.05" transform="translate(-79.53 367.21) rotate(-84.71)"/>
    <rect class="cls-10" x="202.81" y="197.33" width="14.41" height="29.6" transform="translate(-20.58 401.69) rotate(-84.71)"/>
    <rect class="cls-10" x="205.91" y="235.79" width="1.11" height="29.6" transform="translate(-62.09 433.07) rotate(-84.71)"/>
    <rect class="cls-10" x="205.58" y="239.36" width="1.11" height="29.6" transform="translate(-65.94 435.98) rotate(-84.71)"/>
    <rect class="cls-10" x="205.24" y="242.92" width="1.11" height="29.6" transform="translate(-69.79 438.88) rotate(-84.71)"/>
    <rect class="cls-10" x="200.25" y="225.08" width="14.41" height="29.6" transform="translate(-50.52 424.33) rotate(-84.71)"/>
    <path class="cls-17" d="M124.64,245.51l1.3,10.81.09,7.19s15.12,1.71,19.02.75,13.3-2.07,13.3-2.07c-.82,2.54.57,5.27,3.11,6.1.1.03.21.06.31.09l3.28-6.75c1.52,2.72,3.81.23,3.81.23l2.28-5.86c1.71,3.42,4.77.29,4.77.29l.7-7.86c1.12,1.12,2.46,2.01,3.93,2.63,1.87.59,2.05-2.51,2.05-2.51l-8.24-11.03-18.67-3-27.93,10.77-3.1.22Z"/>
    <path class="cls-18" d="M163.08,238.13c1.2.18,2.39.44,3.56.78,1.3.37,2.75.76,4.23,1.34,1.41.51,2.75,1.18,4.02,1.99.64.37,1.1.98,1.29,1.69.14.56.24,1.12.31,1.69.26,1.09.29,2.22.08,3.32-.28-1.05-.5-2.11-.66-3.18-.1-.49-.22-1.06-.38-1.6-.17-.54-.55-.98-1.05-1.23-1.24-.74-2.55-1.36-3.9-1.85-1.44-.55-2.84-.96-4.14-1.36s-2.45-.76-3.42-.96c-1.05-.17-2.13-.17-3.18,0,.96-.64,2.13-.86,3.25-.62Z"/>
    <path class="cls-18" d="M160.91,245.21c1.87.43,4.57.75,7.42,1.6.77.17,1.5.5,2.12.98.44.57.79,1.21,1.04,1.88.52,1.06.76,2.24.71,3.42-.13.78-.32,1.54-.58,2.28-.08.27-.18.54-.31.8-.04-.28-.04-.57,0-.86.17-.75.28-1.51.32-2.28-.01-1.11-.3-2.21-.83-3.18-.23-.57-.54-1.1-.9-1.6-.54-.37-1.14-.63-1.78-.76-2.8-.81-5.47-1.23-7.34-1.83-1.04-.22-2.03-.64-2.91-1.24,1.03.2,2.05.46,3.05.79Z"/>
    <path class="cls-18" d="M165.55,259.53c.27-.73.31-1.53.11-2.28-.28-.87-.97-1.54-1.85-1.8-.93-.29-1.91-.42-2.89-.4l-2.51-.09c-.64,0-1.23-.11-1.6-.11-.19.02-.38.05-.57.09-.07,0,.08-.3.53-.41.56-.1,1.13-.15,1.7-.16l2.52-.08c1.08-.08,2.16.05,3.18.38,1.11.37,1.97,1.27,2.28,2.4.18.9.07,1.83-.31,2.66-.29.75-.75,1.42-1.36,1.94.21-.72.46-1.43.75-2.12Z"/>
    <path class="cls-7" d="M58.62,188.09c3.89.44,7.8.7,11.77.86l4.28-12.64s9.85-29.8,3.64-44.43c-3.61-8.65-9.77-15.99-17.66-21.04,0,0-22.15,6.42-27.73,32.72-1.55,7.27-3.79,24.03-5.35,36.79,10.24,2.74,20.35,6.56,31.06,7.74Z"/>
    <path class="cls-17" d="M231.32,144.52c-1.12-1.32-1.75-2.99-1.75-4.73.06-1.63,2.6-2.61,3.66-3.83l2.87-2.67s5.05-5.55,7.27-6.88c2.23-1.33,12.13-3.77,12.62-3.73s10.14-8.35,12.13-7.01c2,1.34,2.76,3.54.83,6.14-1.94,2.59-9.37,6.1-8.49,7.66.76,1.14,1.73,2.13,2.86,2.91,0,0,2.13-3.03,4.43-3.25s3.56,2.5,3.56,2.5l-.62,1.46,2.56-.8s4.97-5.73,7.8-4.39c1.34-1.14,2.9-1.98,4.59-2.48,1.46-.31,2.9.62,3.22,2.08.03.26.03.53,0,.79l-12.1,12.62-21.24,9.03s-7.78-.53-9.82-.54c-.63,0-3.25,1.32-6.58,3.13-1.35-.92-2.63-1.93-3.84-3.02-1.44-1.29-2.7-2.75-3.77-4.36.05-.22,0-.46-.16-.63Z"/>
    <path class="cls-18" d="M256.6,125.68c-1-.77-1.86-1.31-1.79-1.53s1.15,0,2.29.89,1.61,1.87,1.42,1.98-.94-.57-1.93-1.35Z"/>
    <path class="cls-18" d="M277.44,137.44c1.36-1.8,3.23-4.35,5.34-7.32l.21-.28-.22-.25c-.4-.55-.85-1.08-1.32-1.57-.61-.53-1.41-.79-2.21-.73-1.22.14-2.36.67-3.25,1.51-.81.7-1.55,1.46-2.21,2.29-1.22,1.63-2.18,3.14-2.98,4.42-.94,1.34-1.75,2.78-2.41,4.28,1.08-1.23,2.06-2.53,2.94-3.91.86-1.2,1.89-2.72,3.11-4.27.64-.79,1.35-1.52,2.13-2.17.74-.71,1.7-1.16,2.72-1.28.57-.06,1.14.12,1.58.49.38.36.81.99,1.2,1.45v-.52c-2.08,2.98-3.85,5.6-5.09,7.49-.72.97-1.34,2.01-1.85,3.11.87-.83,1.64-1.75,2.31-2.74Z"/>
    <path class="cls-18" d="M252.78,142.73c1.92-1.35,4-2.46,6.19-3.28h.07v-.08c.63-.69,1.2-1.44,1.71-2.23.54-.86.96-1.69,1.55-2.53.58-.86,1.2-1.69,1.87-2.48.64-.83,1.46-1.51,2.4-1.97.79-.39,1.72-.39,2.51,0,.77.4,1.41,1.01,1.85,1.75v-.44c-2.42,3.99-4.51,7.45-5.94,9.94-.5.99-1.2,1.87-2.05,2.58-.33.24-.63.51-.89.81,0,.08.4-.08,1.06-.54.95-.64,1.74-1.5,2.29-2.51,1.58-2.4,3.76-5.81,6.25-9.79l.1-.23-.03-.16c-.51-.91-1.27-1.66-2.2-2.14-1.03-.5-2.24-.5-3.27,0-4.35,2.51-5.39,7.1-7.72,9.52l.15-.1c-2.24.91-4.33,2.15-6.2,3.67-.5.42-.97.9-1.38,1.41-.14.19-.26.4-.37.61.05-.03.62-.84,2.06-1.81Z"/>
    <path class="cls-18" d="M236.15,133.29s-.13,4.12,4.34,7.52c-.06,0-6.73-2.58-4.34-7.52Z"/>
    <path class="cls-8" d="M68.1,122.56c4.63.8,7.81,5.2,9.51,9.27,1.28,3.45,1.95,7.1,1.99,10.78.46,9.78-.82,19.68-2.41,29.3-.88,5.35-1.95,10.66-3.21,15.93l.56-.36c-2.15.33-4.34.35-6.49.07-.36-.06-1.18.49-.6.6,2.31.32,4.66.32,6.97,0,.21,0,.51-.14.57-.36,2.37-10.03,4.06-20.22,5.06-30.48.48-4.73.65-9.48.51-14.23.04-3.86-.61-7.69-1.89-11.33-1.75-4.28-5.09-8.92-9.97-9.77-.36-.06-1.18.49-.6.6v-.02Z"/>
    <path class="cls-15" d="M135.92,80.8c-3.21-.31-10.33.93-11.86,2.01,0,0,3.21,4.49,10.49,5.22s9-3.35,9-3.35c0,0-3.6-3.49-7.63-3.88Z"/>
    <path class="cls-14" d="M127.17,81.75s3.79.06,6.79.36,6.74.96,6.74.96c0,0,.7-2.14-4.75-2.72-3-.39-6.05.09-8.78,1.39Z"/>
    <path class="cls-21" d="M134.57,87.59c-3.39-.82-6.49-4.63-10.52-4.78,0,0,.4,6.89,9.02,7.73,8.62.84,10.48-5.82,10.48-5.82-3.98-.64-5.49,2.72-8.97,2.87Z"/>
    <path class="cls-21" d="M139.82,79.48c-1.8-.32-3.02.26-3.8.18s-1.87-.88-3.69-.92-9.29,3.38-8.56,3.99,5.63-1.58,11.08-1.07,8.09,3.48,8.94,3.02-2.29-4.91-3.98-5.2Z"/>
    <path class="cls-14" d="M115.17,53.61s5.42,3.51,8.38,3.56c2.96.05,7.18.45,7.18.45,0,0-4.77-4.1-6.34-4.18s-6.18-.43-9.22.16Z"/>
    <path class="cls-3" d="M123.99,53.67c-.76-.41-1.67-.41-2.43,0-.28.21-.49.5-.62.82-.19.61-.07,1.28.33,1.79.49.59,1.31.79,2.02.5.86-.37,1.34-1.31,1.13-2.22,0-.15.14-.42-.44-.77"/>
    <path class="cls-3" d="M130.73,57.63s-3.85-4.47-7.35-4.87c-2.66-.3-7.49.62-8.79.83,0,0,6.54.19,8.42.44s7.72,3.59,7.72,3.59Z"/>
    <path class="cls-14" d="M144.35,59.5s5,2.03,7.02,1.03c.63-.31,1.16-.71,1.59-1.09.67-.6,1.05-1.14,1.05-1.14,0,0-3.31-1.79-4.27-1.44s-3.84,1.27-5.39,2.63Z"/>
    <path class="cls-3" d="M144.35,59.44s2.14-2.4,4.16-2.59c4.15-.39,4.27.51,5.88,1.65-1.77-.95-3.43-1.14-5.42-.89-1.63.34-3.2.96-4.62,1.83Z"/>
    <path class="cls-3" d="M150.19,57.49c-.75-.41-1.66-.41-2.42,0-.8.59-.97,1.72-.37,2.51.03.04.06.07.09.11.5.58,1.31.79,2.02.5.86-.38,1.33-1.31,1.13-2.22,0-.15.13-.42-.44-.77"/>
  </g>
</svg>