<?xml version="1.0" encoding="UTF-8"?>
<svg id="Layer_3" data-name="Layer 3" xmlns="http://www.w3.org/2000/svg" xmlns:xlink="http://www.w3.org/1999/xlink" viewBox="0 0 292.89 301.99">
  <defs>
    <style>
      .cls-1 {
        fill: none;
      }

      .cls-2 {
        fill: #070707;
      }

      .cls-3 {
        fill: #825739;
      }

      .cls-4 {
        fill: #ddad6f;
      }

      .cls-5 {
        fill: #c69e81;
      }

      .cls-6 {
        fill: #638e9f;
      }

      .cls-7 {
        fill: #27153c;
      }

      .cls-8 {
        fill: url(#linear-gradient);
      }

      .cls-9 {
        fill: #f1eef7;
      }

      .cls-10 {
        fill: #171413;
      }

      .cls-11 {
        fill: #060606;
      }

      .cls-12 {
        fill: #0a2f44;
      }

      .cls-13 {
        clip-path: url(#clippath-1);
      }

      .cls-14 {
        fill: #fff;
      }

      .cls-15 {
        fill: #725547;
      }

      .cls-16 {
        fill: #4c3059;
      }

      .cls-17 {
        fill: #9c5a25;
      }

      .cls-18 {
        fill: #4f2f26;
      }

      .cls-19 {
        fill: #14162a;
      }

      .cls-20 {
        fill: #b1742f;
      }

      .cls-21 {
        fill: #161412;
      }

      .cls-22 {
        fill: #94674b;
      }

      .cls-23 {
        clip-path: url(#clippath);
      }
    </style>
    <clipPath id="clippath">
      <path class="cls-1" d="M-82.19,62.08c-19.45-19.45-43.35-31.72-68.42-36.82-5.25-15.1-19.6-25.95-36.49-25.95-18.99,0-34.78,13.71-38.02,31.77-17.54,6.56-33.99,16.89-48.1,31-52.75,52.75-52.75,138.28,0,191.03,52.75,52.75,138.28,52.75,191.03,0,52.75-52.75,52.75-138.28,0-191.03Z"/>
    </clipPath>
    <clipPath id="clippath-1">
      <path class="cls-1" d="M300.51,183.63c0-14.68-8-28.19-20.87-35.25-4.01-61.61-49.16-112.71-109.81-124.28C160.38-.55,132.73-12.87,108.08-3.42c-17.89,6.86-29.96,23.74-30.66,42.89C12.45,76.54-10.18,159.25,26.88,224.23c37.06,64.98,119.78,87.61,184.75,50.55,21.23-12.11,38.79-29.74,50.82-51.02,21.33-1.14,38.05-18.76,38.06-40.12Z"/>
    </clipPath>
    <linearGradient id="linear-gradient" x1="145.62" y1="194.62" x2="138.32" y2="-76.14" gradientUnits="userSpaceOnUse">
      <stop offset=".21" stop-color="#bbe5f5"/>
      <stop offset=".55" stop-color="#77c5da"/>
    </linearGradient>
  </defs>
  <g class="cls-23">
    <polyline class="cls-15" points="-333.6 284.11 48.8 284.11 48.8 191.23 -333.6 191.23"/>
    <polygon class="cls-20" points="59 298.55 -343.51 298.55 -328.56 206.02 44.05 206.02 59 298.55"/>
    <rect class="cls-17" x="-347.67" y="236.51" width="417.59" height="7.29"/>
    <rect class="cls-17" x="-347.22" y="217.2" width="417.59" height="7.29"/>
    <rect class="cls-17" x="-349.82" y="255" width="417.59" height="7.29"/>
    <rect class="cls-17" x="-349.64" y="273.12" width="417.59" height="7.29"/>
    <polygon class="cls-1" points="59 298.16 -343.51 298.16 -328.56 215.91 44.05 215.91 59 298.16"/>
  </g>
  <g class="cls-13">
    <circle class="cls-8" cx="144.61" cy="157.15" r="135.43"/>
    <path class="cls-5" d="M284.93,176.51c.8-.28,1.58-.61,2.34-.99.68-.56,1.03-1.43.92-2.3-.1-.74-.25-1.47-.46-2.18-.34-.62-.07-.22.4-.73l.62-.66c.24-.25.4-.57.44-.91.09-.71.07-1.43-.06-2.14-.28-1.18-2.48-2.38-2.48-2.38l.75-.6c.68-.6.89-1.58.49-2.41l-.19-.49c-.26-.46-.58-.87-.96-1.24-.6-.57-.71-1.49-.25-2.18.4-.49.61-1.12.58-1.75-.63-1.89-2.3-3.25-4.28-3.49-.13-.01-.26-.01-.39,0-3.47.3-6.92.83-10.32,1.59-.24,0-4.22,0-4.5-.06-1.27,1.45.88,2.56-.98,3.26-1.85.7-3.51,1.06-5.26,1.61-.56.18-.99.65-1.12,1.23h0c-.04.17-.1.33-.19.47l-5.62,9.69c-.33.57-3.23,1.26-3,1.89,2.46,6.81,6.99,14.03,6.75,14.12s4.59-3.32,6.61-3.02c.06,0,11.71-2.45,20.16-6.32Z"/>
    <path class="cls-5" d="M270.89,155.43c-.92-.57-1.78-1.24-2.56-1.99-.04-.11-.07-.23-.09-.35-.58-3.31-1.66-6.51-3.19-9.5-1.84-3.14-4.06-3.27-5.39-3-.56.1-.92.64-.82,1.19,0,.01,0,.03,0,.04v.17c.92,2.15,1.7,4.37,2.33,6.62.22,1.12-.33,7.23-.7,10.95,3.14-1.39,8.38-1.45,10.41-4.14Z"/>
    <path class="cls-18" d="M280.95,152.72c-1.61.58-3.18,1.21-4.74,1.89-1.18.52-2.36,1.07-3.5,1.69-.89.41-1.71.97-2.41,1.66-.66.87-.91,1.98-.69,3.05.31,1.21,1.73,1.32,2.78,1.19,2.39-.41,4.74-1.03,7.02-1.85,1.93-.61,3.86-1.24,5.79-1.89.58-.2,0-.49-.35-.36-3.68,1.33-7.44,2.46-11.24,3.37-.87.2-2.25.57-2.9-.22s-.27-2.41.24-3.14c.58-.64,1.29-1.15,2.09-1.5,1.06-.6,2.17-1.12,3.27-1.59,1.63-.75,3.28-1.41,4.95-1.99.58-.2.06-.49-.34-.35l.03.03Z"/>
    <path class="cls-18" d="M286.07,163.92c-1.8.57-3.63,1.12-5.46,1.52-1.4.35-2.82.62-4.25.81-1.11.27-2.29.13-3.31-.39-.69-.41-1.02-1.24-.81-2.01.42-.94,1.25-1.64,2.25-1.91.57-.21.06-.56-.36-.4-1.35.52-3.26,1.78-2.77,3.51.38,1.32,1.89,1.82,3.11,1.85,1.49-.01,2.97-.2,4.42-.55,1.59-.31,3.16-.72,4.71-1.12.88-.25,1.74-.49,2.61-.78.53-.17.4-.65-.12-.48l-.02-.03Z"/>
    <path class="cls-18" d="M286.85,169.95c-1.9.53-3.84.96-5.79,1.29-1.46.28-2.94.45-4.43.51-1.19,0-2.72,0-3.53-1.05-1.41-1.8,1.84-3.47,3.11-3.89.53-.17.39-.73-.15-.55-1.56.52-3.84,1.57-4.15,3.43-.25,1.53,1.42,2.36,2.69,2.56,1.53.17,3.08.12,4.6-.15,1.69-.22,3.37-.55,5.01-.92.93-.21,1.87-.43,2.78-.69.54-.15.39-.7-.15-.55h0Z"/>
    <path class="cls-18" d="M286.34,175.41c-1.34.04-2.68.04-4.01,0-1.12,0-2.25-.06-3.31-.15-.83-.02-1.66-.16-2.45-.42-.61-.17-1.06-.67-1.19-1.28.01-.67.47-1.25,1.12-1.42.07,0,.45-.12.4-.25s-.4,0-.48,0c-.92.25-2.37,1.12-1.84,2.25.4.91,1.56,1.12,2.44,1.28,2.28.29,4.58.4,6.88.31h1.85c.22.04.45,0,.65-.09.1-.09.15-.19-.06-.19v-.06Z"/>
    <path class="cls-18" d="M273.6,167.79c-3.31-.92-6.95-1.56-10.06.29-.16.09-.21.26-.07.38s.48,0,.63-.08c2.74-1.63,6.08-.89,8.99-.09.3.09,1.03-.37.53-.51h-.02Z"/>
    <path class="cls-18" d="M263.33,182.49c-2.23-.65-3.73-2.75-3.61-5.07,0-.47-.87-.37-.9.06-.08,2.63,1.66,4.96,4.2,5.62.46.11.88-.53.3-.66v.06Z"/>
    <path class="cls-6" d="M178.25,194.66c10.84,2.46,12.44.7,12.44.7l63.98-27.52h0c1.02,7.32,4.28,14.15,9.35,19.54l1.16,1.22s-40.99,29.4-58.32,38.06c-3.62,1.81-19.86,14.54-32.12,8.16-3.85-1.43-14.29-17.31-15.32-20.42"/>
    <path class="cls-6" d="M143.03,102.52s16.5,6.52,23.19,11.46c8.57,6.3,15.56,31.34,18.2,40.04,5.21,17.42,14.57,42.24,14.57,42.24l-28.91,14.78-21.41-36.72-15.26-76.33,9.61,4.54Z"/>
    <path class="cls-7" d="M199.27,191.72c-2.79.67-5.29,2.23-7.12,4.44-2.49,2.71-4.14,6.08-4.74,9.71,0,.27.74.13.78-.11.54-3.33,1.98-6.45,4.16-9.02,1.71-2.04,4.09-4.18,6.8-4.65.35-.06.66-.48.12-.39h0Z"/>
    <rect class="cls-4" x="126.9" y="19.97" width="5.62" height="14.99" rx="2.62" ry="2.62" transform="translate(-2.37 15.85) rotate(-6.93)"/>
    <path class="cls-16" d="M121.89,115.28c-.08-7.63.31-15.26,1.16-22.84.71-6.3,1.45-13.29,5.74-18.29.72-.84-1.07-.91-1.48-.39-4.28,4.96-5.22,11.55-5.97,17.83-.93,7.93-1.35,15.91-1.27,23.89,0,.82,1.84.47,1.83-.2Z"/>
    <rect class="cls-4" x="107.99" y="44.01" width="14.99" height="5.62" rx="2.62" ry="2.62" transform="translate(22.97 130.3) rotate(-64.13)"/>
    <path class="cls-12" d="M57.8,277.85l-1.07,26.46c-.31,17.63,3.49,29.71,8.37,46.66l10.34,71.65s0,31.14-3.21,56.86c-2.72,22.3,4.28,62.36,4.28,62.36l7.73,1.47c6.99,1.32,14.13,1.58,21.2.77l15.18-1.77,14.3-131.97,10.45-80.82,14.37-48.57-101.95-3.09Z"/>
    <path class="cls-12" d="M169.59,277.85l-9.9,143.06c0,6.24-2.51,11.91-5.35,41.96l-5.45,51.2-1.96,22.26-4.4.76c-6.04,1.22-12.22,1.61-18.37,1.16l-13.47-.55,14.99-256.96,43.92-2.89Z"/>
    <path class="cls-5" d="M96.18,71.53c1.04,4.35,1.49,8.82,1.35,13.3-.34,10.71-8.83,16.85-8.83,16.85l41.99,17.87,13.32-16.42s-9.52-4.08-9.95-6.22c-.43-2.14,1.76-18.2,1.76-18.2"/>
    <path class="cls-3" d="M99.61,72.66v.12s0-.08,0-.12Z"/>
    <path class="cls-5" d="M123.36,93.51l10.78.51,4.81-.28c2.04-.05,3.85-1.32,4.61-3.21,1.77-4.11,2.29-6.2,2.53-6.69,1.48-3.21,2.7-6.52,3.65-9.93.75-2.96,1.69-4.72,1.98-8.25.21-2.59.14-4.4-1.41-8.57-.38-1.03-.46-2.14-.25-3.21.46-2.44.54-5.27,1.07-8.57.13-.58.19-1.17.17-1.77,0,0,0-13.5-2.64-18.2-2.64-4.7-5.22-9.53-8.81-10.29-3.59-.76-15.17,3.07-15.17,3.07l-14.54-1.42-12.02,6.61-5.61,15.19,1.63,17.29,2.27,16.85"/>
    <path class="cls-10" d="M96.13,30.76c-1.3-7.67,5.44-10.87,8.25-12.32,2.38-1.24,9.16-3.76,14.23-3.21,2.14.22,1.36,4.83,2.57,5.59.39.06,4.84.87,6.6,1.07,2.22.37,4.5.32,6.7-.16,1.17-.48,2.45-.65,3.7-.51,2.26.24,2.98-5.35,7.78-.33l.21-.25c-6.16-7.39-13.77-6.91-22.96-7.86-.97-.1-1.98-.16-2.98-.19-14.57-.39-14.1-.3-23.09,9.73-5.2,5.78-8.18,11.27-7.96,14.64v.76c.28,3.52-2.86,13.16-1.53,15.05.85,1.2,3.6,6.49,5.88,11l6.94-.17c-.21-1.31-1.26-12.44-1.39-13.78"/>
    <path class="cls-5" d="M96.72,72.89c-5.35,5.7-6.86-3.55-6.86-3.55-4.06-4.58-4.21-9.64-4.16-13.02.04-3.38,3.81-3.49,3.81-3.49,3.21.26,5.03.99,8.03,11.7"/>
    <path class="cls-10" d="M139.28,18.19c-5.2.15-19.02-2.82-26.08-2.93-2.93,0-12.29,7.62-13.48,9.33-2.71,3.91,4.37,12.26-.06,24.51-1.47,4.04-4.1-2.81-6.06-.11-1.96,2.7-2.71,3.78-2.71,3.78-2.07-11.42-2-11.03,0-22.48,2-11.46,14.13-16.97,20.08-18.2s25.21-.22,30.51,1.96"/>
    <path class="cls-19" d="M94.53,63.57c-.76-1.56-1.66-3.06-2.69-4.45-.52-.72-1.16-1.36-1.87-1.88-.28-.22-.6-.38-.95-.45-.44-.06-.63.18-.8.54-.62,1.45-.69,3.08-.19,4.58,0,.11.58,0,.55-.15-.37-1.19-.42-2.46-.14-3.68.1-.44.29-.86.55-1.23l-.45.15h.18c.24.07.46.19.66.33,1.02.76,1.89,1.71,2.56,2.79.77,1.16,1.45,2.36,2.06,3.61.06.13.58-.06.55-.15Z"/>
    <path class="cls-19" d="M93.31,64.2c-2.33,0-.78,3-1.01,4.28-.02.06-.04.12-.05.18,0,.06-.16.12,0,.06s0,0,0,0c0,0-.13-.13-.15-.17-.08-.11-.15-.23-.2-.36-.3-.69-.53-1.4-.66-2.14-.22-.85-.3-1.73-.25-2.61.09-1.07.31-2.54,1.35-3.03.33-.16,0-.32-.21-.21-.92.55-1.51,1.52-1.58,2.59-.12.76-.12,1.54,0,2.3.13.89.34,1.76.63,2.61.13.39.31,1.07.7,1.25.31.15.69.03.86-.27.14-.36.15-.76.05-1.13-.07-.57-.78-3,.29-2.99.19,0,.58-.29.21-.3l.03-.06Z"/>
    <path class="cls-10" d="M130.39,41.46v5.13c-2.14-.54-4.14-1.34-5.56-1.56-2.81-.46-5.66-1.07-8.5-.73-1.28.13-2.53.49-3.68,1.07-.36.19-1.33,1.07-1.86.84-.21-.1.15-1.07.18-1.2.75-2.03,2.67-2.87,5.01-3.34,4.76-.84,9.63-.91,14.41-.2"/>
    <path class="cls-10" d="M151.61,41.81l-1.45-.24c-3.97-.59-8.02-.4-11.92.56.06.81.13,1.63.18,2.45.05.62.1,1.75.15,2.37,1.77-.66,3.28-1.4,4.42-1.71,2.27-.77,4.65-1.13,7.05-1.07.18,0,1.2.13,1.38.16.66-1.18.51-2.36.18-2.52Z"/>
    <path class="cls-6" d="M95.12,94.07h0c-7.96,3.51-33.26,15.57-38.77,22.32-8.22,10.1,25.62,39.61,26.77,47.98.6,4.06,4.28,34.26.73,57.82-2.31,15.64-3.68,31.41-4.09,47.22l25.41,3.21c12.41,1.56,24.97,1.37,37.32-.56l29.21-6.42c-.79-16.19,1.07-34.68-.88-55.91l.46-63.43-5.72-30.75s-5.28-3.96-6.02-5.51l-25.18-12.55s5.95,12.52-6.64,14.37c-12.99,1.91-16.63-.76-26.46-8.25,0,0-5.14-5.01-6.15-9.53Z"/>
    <path class="cls-6" d="M66.44,158.55s-1.64,54.1-3.57,69.94c-1.93,15.84,2.14,38.33,3.45,48.46,1.31,10.13,46.9,15.32,68.72,13,21.82-2.32,38.8,2.41,36.69-24.35-.91-11.48-44.67-117.92-44.67-117.92l-60.62,10.88Z"/>
    <path class="cls-22" d="M134.59,74.36c-4.07,0-10.71-.49-10.71-.49,0,0,.77,9.89,10.2,9.9s9.81-9.87,9.81-9.87c0,0-5.22.52-9.3.46Z"/>
    <path class="cls-2" d="M134.67,74.36c-1.94,0-9.73-.34-9.73-.34,0,0,2.57,6.8,9.57,6.82,4.14.27,7.81-2.64,8.5-6.72l-8.34.25Z"/>
    <path class="cls-9" d="M134.67,74.65c-1.94,0-7.83-.33-7.83-.33,0,0,2.14,2.14,7.92,2.14s7.66-2.03,7.66-2.03l-7.75.22Z"/>
    <path class="cls-22" d="M144.03,73.35c-.2,0,.33.32-.63.24-1.61-.14-2.6-.57-3.77-.65-1.98-.16-3.21.62-4.1.62s-2.14-.78-4.1-.64c-1.17.1-4.04.5-5.64.64-.77-.02-1.54-.1-2.29-.25-.29.07.27,2.14,11.1,2.14s9.71-2.1,9.43-2.1Z"/>
    <path class="cls-10" d="M134.2,71.21l-.2,1.07c-.05.28-.28.49-.56.54-1.98.27-9.23,1.61-11.04,1.61h-.45c-.69-.12-.48-1.07.15-1.27,1.54-.62,3.12-1.15,4.72-1.57,2.2-.53,4.44-.89,6.69-1.07.37,0,.68.29.69.66,0,.01,0,.03,0,.04Z"/>
    <path class="cls-10" d="M136.81,71.08v1.12c.05.26.25.46.5.51,1.66.27,7.03,1.43,8.51,1.41h.96c.55-.13,0-1.31-.57-1.54-1.16-.55-2.37-1.01-3.6-1.39-1.75-.46-3.54-.75-5.35-.87-.32.06-.53.36-.48.68,0,.02,0,.04.02.07Z"/>
    <path class="cls-19" d="M172.33,146.03c-.97,7.74-1.51,15.52-1.61,23.32-.12,7.64-.27,15.31-.27,22.96s.4,15.88.58,23.8c.13,5.47.26,10.94.34,16.4,0,.24.78.09.78-.2-.17-10.14-.43-20.27-.67-30.41-.25-9.74-.09-19.46,0-29.22,0-8.95.55-17.89,1.64-26.77,0-.29-.74-.15-.77.1l-.02.02Z"/>
    <path class="cls-10" d="M142.26,93.7l1.07-2.07s-18.4,3.34-22.03,2.43c-9.57-2.41-17.34-15.85-17.34-15.85,1.79,4.23,4.36,8.08,7.57,11.35,5.48,5.7,6.78,6.42,12.41,6.19,4.28-.16,12.16-.33,15.7-.41,1.11-.02,2.13-.66,2.63-1.65Z"/>
    <path class="cls-10" d="M85.83,55.3s-3.22-5.72-3.62-15.14c-.4-9.42-.32-22.27,10.43-27.73,1.92-.97,3.97-1.66,6.08-2.04,0,0,6.88-7.82,27.28-4.78,14.31,2.14,20.15,7.7,21.9,18.53,0,0-4.16-5.49-5.35-4.91s-2.14,3.48-6.87,4.1-12.41.2-15.63-1.66c-3.22-1.86-9.02-3.68-12.27-3.09-7.9,1.41-8.57,7.49-9.05,11-.48,3.5-1.93,16.06-5.76,17.92-2.16.9-3.63,2.94-3.81,5.27l-.63.28c-1.09.48-2.03,1.27-2.69,2.26Z"/>
    <path class="cls-10" d="M103.94,78.24c9.29,10.11,14.84,12.85,18.2,13.03s6.03,1.07,8.38,0c2.87-1.34,3.67-2.89,4.46-2.36.34.25,1.63,2.01,1.97,2.25.73.5,2.82.13,3.61-.24,1.99-.76,3.61-2.26,4.53-4.19-.72,2.21-1.27,5.35-3.29,6.51-1.23.73-3.21.55-4.6.65-3.15.24-6.15.44-9.3.57-2.77.11-5.59.4-8.24-.42-4.46-1.35-9.43-7-12.37-10.78l-3.35-5.03Z"/>
    <path class="cls-6" d="M79.29,163.64l-3.28-60.04s-23.16,6.49-30.04,22.48c-6.18,17.13-13.87,74.59-13.87,85.88,0,34.13,9.9,60.26,18.2,95.2l19.64-4.44-2.02-92.32,11.37-46.76Z"/>
    <path class="cls-7" d="M66.92,123.36c3.93,2.2,6.81,5.89,7.99,10.24.71,3.52.96,7.12.75,10.71-.21,8.73-.92,17.44-2.14,26.09-1.94,15.05-4.81,29.98-6.97,44.97-.47,3.21-1.24,6.51-1.39,9.74-.11,2.44.06,4.94.1,7.38l.41,32.55.2,15.47c0,2.76-.13,5.59.1,8.34v.39c0,.36.78.21.78-.07l-.26-20.25-.43-33.83-.12-9.44c.12-2.37.42-4.72.9-7.05l2.14-14.99c.56-3.9,1.37-7.76,2.02-11.64.91-5.35,1.77-10.8,2.53-16.23,1.31-9.23,2.42-18.51,2.81-27.84.28-6.87.93-14.99-3.67-20.71-1.45-1.71-3.19-3.16-5.13-4.28-.25-.15-.95.19-.61.41v.05Z"/>
    <path class="cls-21" d="M134.3,68.1c.98.37,2.03.53,3.07.47.89.06,1.78-.13,2.57-.54.32-.23.63-.49.9-.78.24-.21.43-.47.58-.75.15-.64.08-1.32-.2-1.92-.21-.63-.54-1.22-.75-1.85,0-.14-.48,0-.44.12.51,1.01.88,2.09,1.07,3.21-.05.59-.36,1.12-.85,1.46-.24.25-.52.46-.82.62-.45.15-.93.23-1.4.24-1.13.12-2.27-.03-3.34-.43-.12,0-.52.13-.35.2l-.03-.05Z"/>
    <path class="cls-21" d="M130.39,65.16c-.39-.01-.75.18-.95.51-.16.36-.23.76-.2,1.16-.02.37.12.74.37,1.01.74.54,1.69.71,2.57.46.37-.11.74-.29,1.12-.37,0,0,.26-.05.26-.12s-.13,0-.17,0c-.29.04-.58.11-.86.19-.27.12-.55.2-.85.22-.5.01-1-.11-1.45-.35-.55-.42-.78-1.14-.58-1.81.03-.18.09-.36.17-.52.04-.07.09-.14.15-.19.02,0,.05,0,.07,0,0,0-.07,0,0,0,.11,0,.22-.03.31-.09.06,0,.06-.09,0-.09h.02Z"/>
    <path class="cls-14" d="M112.53,53.69s6.63,1.25,9.4.74,6.26-1.54,6.26-1.54c0,0-5.57-2.98-7.05-2.77s-7.23,1.75-8.61,3.57Z"/>
    <path class="cls-14" d="M139.19,53.3s4.87,1.92,7.5,1.2c2.11-.58,3.67-1.71,3.67-1.71,0,0-2.25-2.05-3.65-2.15-1.47-.11-5.41,1.41-7.52,2.66Z"/>
    <path class="cls-10" d="M120.57,50.48c-1.11-.41-2.34.15-2.75,1.26-.02.06-.04.13-.06.2-.14.67.06,1.38.54,1.87.59.58,1.48.71,2.22.33.88-.5,1.3-1.54,1-2.51-.16-.46-.5-.84-.93-1.07"/>
    <path class="cls-10" d="M143.57,50.69c.79-.25,1.65-.02,2.22.59.27.27.45.61.52.99.11.68-.13,1.37-.63,1.84-.62.54-1.52.63-2.24.21-.85-.55-1.2-1.61-.85-2.56.17-.47.52-.86.97-1.07"/>
    <path class="cls-10" d="M139.19,53.3s3.45-2.94,5.81-2.98c3.44,0,4.28.8,5.35,2.46-1.28-1.06-2.87-1.66-4.53-1.71-2.33.09-6.64,2.23-6.64,2.23Z"/>
    <path class="cls-10" d="M128.18,52.89s-4.87-2.91-7.23-2.91c-3.44,0-7.49,2.14-8.57,3.79,0,0,5.35-3.12,7.74-3.04s8.05,2.16,8.05,2.16Z"/>
    <path class="cls-11" d="M111.02,49.98l.88,2.55c.82,2.41,1.89,4.73,3.21,6.91.99,1.5,11.72,2.08,13.82.87,2.1-1.21,3.21-7.21,3.81-8.57l4.28.24c.39,1.8,1.76,7.49,2.58,8.28s5.74.63,6.3.62,1.07,0,1.8-.11c1.86-.13,4.12-.43,4.82-1.07,1.07-1.01,2.14-4.83,3.09-8.44l.15-.57c0-.14.09-.24.09-.27h0l.17-.65c-6.2-2.89-14.3-2.42-19.22,1.12v.06l-4.2-.25c-4.73-3.08-12.92-4.76-18.76-2.54h0l-16.33,4.53v1.57l13.5-4.29ZM140.1,59.62c-.5-.47-1.58-4.48-2.32-7.58,4.28-3,11.57-3.42,17.13-1.13v.07c-.51,1.94-1.87,7.09-2.88,8.07-1.2,1.17-11.01,1.33-11.91.59l-.02-.02ZM116.37,59c-1.83-2.79-3.21-5.86-4.07-9.09,5.19-2.31,14.74-.99,19.38,1.94-.73,2.52-1.64,6.92-3.15,7.77-2.14,1.24-11.54.33-12.16-.62Z"/>
  </g>
</svg>