<svg xmlns="http://www.w3.org/2000/svg" xmlns:xlink="http://www.w3.org/1999/xlink" viewBox="0 0 292.89 301.99"><defs><style>.cls-1{fill:none;}.cls-2{clip-path:url(#clip-path);}.cls-3{fill:#f2ebd1;}.cls-4{fill:#aa3828;}.cls-5{fill:#dbb28e;}.cls-6{fill:#d58780;}.cls-7{fill:#513835;}.cls-10,.cls-8{fill:#151210;}.cls-8{stroke:#231f20;stroke-miterlimit:10;stroke-width:0.47px;}.cls-9{fill:#4f2e25;}.cls-11{fill:#231f20;}.cls-12{fill:#1d170f;}.cls-13{fill:#f1eef7;}.cls-14{fill:#13110f;}.cls-15{fill:#4d1513;}.cls-16{fill:#24180f;}.cls-17{fill:#fff;}.cls-18{fill:#94664a;}</style><clipPath id="clip-path"><circle class="cls-1" cx="146.28" cy="153.27" r="126.49" transform="translate(-65.54 148.33) rotate(-45)"/></clipPath></defs><g id="Layer_17" data-name="Layer 17"><g class="cls-2"><circle class="cls-3" cx="146.28" cy="153.27" r="126.49" transform="translate(-65.54 148.33) rotate(-45)"/><path class="cls-4" d="M200.31,270.35c4.37,34.24,3.37,73.46,4.87,85.64-7,4.54-7.84-1.77-17.88,1s-13.1,3-20,0-12.62-2-21.51,1-16.07-.26-21.23-.51-12,2.53-21.22,2.78-5.72-3.37-11.17-3.11c.2-4.17.83-65.64,5-103.16-.11,0,.92-16.38.8-16.44,1.29-10.32.86-14.16,2-21.14,12.17,1.41,24.56.46,36.76.34,10.08-.09,33.27-2.31,43.18-3.92,8.24-1.33,2.63,2.58,11,2,.42,2.73,1.91,13.7,3.84,28.24Z"/><path class="cls-5" d="M47.64,190.47a60.82,60.82,0,0,0,5.51-10.74,31,31,0,0,0,2.59-10.65c7.81-2.87,30.22-11,37.92-12.29,9.38-1.58,15.38-2.47,15.38-2.47l-14,31.8S58.87,201,42,196.93A27.2,27.2,0,0,0,47.64,190.47Z"/><path class="cls-5" d="M186.93,149.63s5.55,1.76,14.21,4.7c7,2.37,24.87,7.27,31.56,9.09,2,6.53,4.41,13,8,18.86a39,39,0,0,0,6.46,8,12.34,12.34,0,0,1-1.18.51c-15.29,5.66-51.1-11.86-51.1-11.86Z"/><path class="cls-6" d="M103.86,188.74l-19.64,3.73c-.46.48-3-34.43-3-34.43s25.94-11,32.22-11.66c7.51-.78,23.69,2.48,23.69,2.48Z"/><path class="cls-7" d="M113.16,110.17h.1l-.07-.24Z"/><path class="cls-8" d="M182.18,116.46c-2.07,4.85-4.72,9.78-8.8,13.24s-9.75,4.47-15,5.13c-10.3,1.27-21,.08-30.42-4.49a43.07,43.07,0,0,1-21.16-22.85,59.52,59.52,0,0,1-4.25-22.62c.13-.51.25-1,.4-1.51,4.27-14.29,8.18-21.2,21.9-24.86,8.41-2.33,15.5-5.3,29.22-1.43,3,.83,6.32,3.75,10.15,5.21C170,64.48,176.37,68.59,179.1,73c5.2,8.4,5.21,21.31,6.81,31.75A53.77,53.77,0,0,1,182.18,116.46Z"/><path class="cls-5" d="M105.71,126c-.67-4.18-1.3-12.11-.88-14.68-.15-1.94-.32-4.19-.5-6.91-.06-.79-.09-1.54-.11-2.29a7.46,7.46,0,0,0,0-1.16C104,87.67,108,80.52,108,80.52a29.24,29.24,0,0,1,25.16-14.75c12.24-.34,23.64,6.56,29.76,13.76a19,19,0,0,1,4.54,12.82,78.09,78.09,0,0,1-1.66,12.91c4.26-.4,8.53.92,7.36,8.88-1.62,11-8,14.64-12,11.69-1.81,1.21-2.1,4.13-2.16,6.4-.13,4.36,1.38,11.43,3.7,15.12l-.06,1.25c-8.49,15.31-13.51,24.17-45.47,16.91l9.19-16.61,0-3.2a27.94,27.94,0,0,1-5.37-.5C111.07,143.13,106.51,130.91,105.71,126Z"/><path class="cls-9" d="M126.47,145.71a35.74,35.74,0,0,0,21-6.84s-.22,3.36-7.55,6.36a30.27,30.27,0,0,1-13.32,2.37Z"/><path class="cls-10" d="M162.68,112.36c0-.06,0-.13,0-.2A9.64,9.64,0,0,1,165,108a8.83,8.83,0,0,1,4.19-2.37,6.31,6.31,0,0,1,3.34-.07l.57.22c2.51-9.41,3.38-19.39-3.87-30.51-2.09-3.21-7.39-6.62-9-7.73-9.84-6.58-18.42-6.74-28.9-5.29-12.15,1.69-23.24,10-25.56,22.41-.55,3-.81.54-.4,3.56,0,0,1.67-6.83,7.41-10.58s7,1.38,15.34,1.24c9.65-.21,12.62-5.57,20.51-1.85,7.22,3.42,6.69,6.23,6.69,6.23a33.73,33.73,0,0,0,2.45,4.88,15.24,15.24,0,0,1,1.31,5.09,77.89,77.89,0,0,1,.79,10.89c-.08,2.26-.4,5.28,1.82,6.69C162.71,111.46,161.66,112.76,162.68,112.36Z"/><path class="cls-11" d="M163.36,112.31c.62-4,5.46-7.58,9.39-6a.85.85,0,0,0,1.08-.51c2.09-7.94,2.66-16.12-.38-23.9a25.61,25.61,0,0,0-6.79-10.33,52.48,52.48,0,0,0-9-6.24c-7.41-4.07-15.49-4.77-23.77-3.82-7.45.85-14.57,3.26-20.23,8.35a27.18,27.18,0,0,0-6.94,9.56,37.33,37.33,0,0,0-1.74,6c-.1.42-.35.78-.45,1.18a5.88,5.88,0,0,0,.18,1.91c.09.65,1.25.22,1.36-.24a18.2,18.2,0,0,1,2.07-4.74c1.59-2.69,4.28-5.86,7.49-6.55,2.29-.49,4.56,1,6.67,1.7a20.88,20.88,0,0,0,10.06.35c2.92-.55,5.62-1.8,8.51-2.43,3.59-.79,6.92.49,10,2.38,1.56,1,3.49,2.32,3.84,4.26a8.87,8.87,0,0,0,.79,2.18c1,2,2.16,3.72,2.64,5.92,1.05,4.92,1,10,1.05,15a6.06,6.06,0,0,0,1.43,4.49c.31.3.78.52.92,1,.07.24-.08.57,0,.81.24.51.8.45,1.26.32.83-.24.59-1.17-.24-.93.59-.17.18.18.32-.19a2.76,2.76,0,0,0,0-.38,1.61,1.61,0,0,0-.32-.64c-.66-.77-1.35-1.09-1.69-2.15-.57-1.72-.25-3.63-.24-5.4a58.5,58.5,0,0,0-.47-7A31.26,31.26,0,0,0,159,89.2c-.71-2-2.36-3.76-2.88-5.83-.08-.33-.07-.69-.17-1-.66-2.25-3.21-3.8-5.1-4.85-2.83-1.56-5.84-2.61-9.1-2.12-2.95.43-5.69,1.75-8.59,2.42a19.38,19.38,0,0,1-11.21-.52c-2.1-.79-4.12-1.84-6.42-1.34-3.44.74-6.33,3.74-8.17,6.57a19.26,19.26,0,0,0-2.63,5.78l1.36-.24a7.37,7.37,0,0,1-.2-1.5c0-.11.31-.64.38-.87.52-1.79.78-3.6,1.45-5.35a25.66,25.66,0,0,1,5.52-8.6,31.69,31.69,0,0,1,18.7-9.05c8-1.06,15.93-1,23.31,2.65a52.35,52.35,0,0,1,8.7,5.59A24.31,24.31,0,0,1,168,74.7a27.08,27.08,0,0,1,3.33,5.7c3.77,8.2,3.38,16.9,1.13,25.45l1.07-.51c-4.71-1.83-10.78,2.18-11.54,7.07C161.89,113.09,163.27,112.92,163.36,112.31Z"/><path class="cls-11" d="M109,106.89a2.6,2.6,0,1,0,1.78-2.27A2.61,2.61,0,0,0,109,106.89Z"/><path class="cls-10" d="M106,105.83a7.09,7.09,0,0,1,5-1.5c4,.16,6.59,4.7,6.59,4.7s-2.8-3.33-6.79-3.58c-1.92-.12-4.78,1.17-6.2,2C104.56,107.05,105.26,106.39,106,105.83Z"/><path class="cls-11" d="M171.26,114.81a6,6,0,0,0,0-3.86c-.12-.31-.24-.7-.62-.67a4.41,4.41,0,0,0-2.52,1.8,22.71,22.71,0,0,0-2.72,4.27c-.15.28.38.24.5.14s.66-.5,1-.39.5.86.49,1.22a2.4,2.4,0,0,1-2.3,2.19c-.32,0-.5.47-.07.4,1.51-.23,3.1-1.13,3-2.86,0-.58-.26-1.26-.91-1.36a2.22,2.22,0,0,0-1.62.56l.5.14a26.09,26.09,0,0,1,2.23-3.64,8.07,8.07,0,0,1,1.59-1.66,2.41,2.41,0,0,1,.48-.3.82.82,0,0,1,.27-.1s.05,0,0,0-.15-.11-.11,0a2.8,2.8,0,0,0,.15.3,5.74,5.74,0,0,1,.07,3.88c-.08.26.56.18.63-.07Z"/><ellipse class="cls-12" cx="138.77" cy="106.02" rx="2.6" ry="2.61" transform="translate(-24.38 43.74) rotate(-16.48)"/><path class="cls-10" d="M129.61,108.69s4.12-5.65,8.57-5.52c6.27.2,7.64,2,8.58,3.37a23.67,23.67,0,0,0-9.13-2.13C133.24,104.39,129.61,108.69,129.61,108.69Z"/><path class="cls-13" d="M123.48,128.3c1.78-.09,7.19-.66,7.19-.66s-1.85,2-7.21,2.26-7.14-1.46-7.14-1.46Z"/><path class="cls-14" d="M127.91,101.55c0-.08.23-.22.18-.3,3.88-3.23,7.19-5,8.53-5.31a9.32,9.32,0,0,1,3.22-.23s3,.22,3.6.63-1.58.43-1.58.43a7.53,7.53,0,0,0-1.16.16c-2.25.67-4.56,1-6.52,2.3a32,32,0,0,0-5,4.92C128.73,103.28,128.46,102.38,127.91,101.55Z"/><path class="cls-14" d="M118.23,101.49c0-.09-.24-.17-.21-.26-3.83-2.23-7-3.13-8.18-3.17a7.38,7.38,0,0,0-2.84.5,12.72,12.72,0,0,0-3,1.43c-.43.52,1.43.05,1.43.05a7.32,7.32,0,0,1,1-.1c2.06.13,4.11-.08,6,.73a25,25,0,0,1,5,3.62C117.76,103.34,117.86,102.41,118.23,101.49Z"/><path class="cls-8" d="M161.31,85.58s-19,5.77-34.76,2.81l-3.22-8.68s0,8,.55,9.41l-3.37.2s-1-6.79-.55-9.42c0,0-2.6,7.81-2.29,9.58,0,0-11.82,1.07-13.11.19s8.11-17.42,14.86-19S154.46,65.19,161.31,85.58Z"/><path class="cls-11" d="M179.19,74.9c-.84-4.6,1.3-10.47,5.95-11a11.12,11.12,0,0,1,3.39.31l5,1a15.4,15.4,0,0,1,4.39,1.33,10.12,10.12,0,0,1,4.63,6.68,29.76,29.76,0,0,1,.4,8.33c-.11,2.55-.48,5.55-2.71,6.81-1.32.74-2.94.63-4.38,1.07a27.67,27.67,0,0,0-3.64,1.76,11.1,11.1,0,0,1-12.62-2.56"/><path class="cls-14" d="M124,122a7.64,7.64,0,0,1-3.53.66,4.39,4.39,0,0,1-2.76-.72,1.94,1.94,0,0,1-.71-2.16,27.71,27.71,0,0,0,1-2.67c0-.17-.44-.09-.48.06a15.94,15.94,0,0,1-.93,2.44,1.9,1.9,0,0,0,.05,1.78c.85,1.51,2.79,1.59,4.31,1.52a8.22,8.22,0,0,0,3.21-.73c.3-.14,0-.29-.18-.18Z"/><path class="cls-14" d="M128.43,118.91c.32,0,.53.31.63.57a2.86,2.86,0,0,1,.19,1.08,1.54,1.54,0,0,1-.25,1,2,2,0,0,1-1.31.66,6.64,6.64,0,0,1-2.15-.39.58.58,0,0,0-.34.06s-.17.1-.06.11a7.32,7.32,0,0,0,2.2.42,4,4,0,0,0,1.74-.58,1.44,1.44,0,0,0,.64-1.1,3.22,3.22,0,0,0-.15-1.27.88.88,0,0,0-.93-.7c-.09,0-.28,0-.32.11s0,.08.11.07Z"/><path class="cls-5" d="M52.6,179.17a60,60,0,0,1-8.33,7.51c-2.52,1.85-3.75,4.78-6.85,4.17-1.08-.21-.51,0-2.38.07-8.76-11.43,16.29-62.46,16.29-62.46l13.19-1.52L60,171.78h.17C58.83,174.52,54.65,176.94,52.6,179.17Z"/><path class="cls-6" d="M99.08,219c0,.78.07,1.56.11,2.34.09,1.91,1,4.74.45,6.6,4,.17,6.49,4.09,10.48,4.34,27.59,1.66,55.24-5.76,82.79-3.74a31.79,31.79,0,0,1-.52-4.63c-.49-21.31,1.63-38.75,1.64-60,0-.4,9.3.91,9.3.51-3.19-3.7-10.65-9.91-16.4-12.7-6.34-3.08-14-4.06-22.45-6.39-3.39,5.81-13.49,15.05-23.12,17.07-3.08.64-10.8.28-13.47-1.22-3-1.69-3.92-7.68-.15-12.63.79-1-4.18,1.31-3.11-.43-4.42.17-14.24,5.49-17.06,7a39.21,39.21,0,0,0-8,5.81c-.75.7,0,6.46,0,7.7,0,3-.07,5.95-.14,8.93-.12,5.81-.29,11.63-.41,17.44s-.19,11.63-.09,17.44C98.94,214.61,99,216.81,99.08,219Z"/><path class="cls-15" d="M100.07,189.52a111.91,111.91,0,0,1,.05-14.42c0-.5-1-.34-1,.1A113.59,113.59,0,0,0,99,189.61c0,.51,1.07.33,1-.09Z"/><path class="cls-5" d="M255.22,183.92c-9.17-2.46-17.06-8.85-24-15.63l-11.4-39.82,12.1-5.43S263.38,166.36,255.22,183.92Z"/><path class="cls-9" d="M226.84,163a7.92,7.92,0,0,0-.08,5.22,18.34,18.34,0,0,0,2.31,5.05c.18.28,1.27-.07,1.05-.42a18.3,18.3,0,0,1-2.24-4.93,7.63,7.63,0,0,1,.08-5.08c.13-.3-1-.18-1.12.16Z"/><path class="cls-6" d="M174,185.73l34.45,6.36,7.61-35s-28.65-11.92-32.5-12a52.71,52.71,0,0,0-21.92,4.36Z"/><path class="cls-5" d="M43.65,197.26s-9.52-1.5-10-11.45a40.82,40.82,0,0,1,3.49-18l21.71.12s-7.1,21.27-9.77,24.95S43.65,197.26,43.65,197.26Z"/><path class="cls-9" d="M59.77,168a21.43,21.43,0,0,1,.24,7.62,24.92,24.92,0,0,1-.73,4.11,7.43,7.43,0,0,1-1.38,3c-.49.57.71.63,1,.27,1.66-1.92,2.06-4.92,2.32-7.34a22.51,22.51,0,0,0-.23-8c-.12-.48-1.37-.15-1.24.34Z"/><path class="cls-5" d="M256.19,172.71s6,20.37-19.63,19.14L234.81,167Z"/><path class="cls-9" d="M225.7,110.78l0,0"/><path class="cls-5" d="M238.88,135.25l-4.75-9.88s1-7.88-.87-12.2a22.77,22.77,0,0,0-4.16-6.58s-2.27-4.65-4.47-5.38-2.5,1.14-2.5,1.14-3.52-2.53-5.24.94a3.36,3.36,0,0,0-4.75-.06,2.39,2.39,0,0,0-.22.23s-4.87-1.4-5.17,2.41c-.17,2.08,1.94,8.16,1.94,8.16a66,66,0,0,0,7,8.64c2.87,3.4,4.13,7.23,6.61,11.85l16.57.73"/><path class="cls-9" d="M221.63,102.86c.42,1.28.59,2.62.89,3.93a9.49,9.49,0,0,0,1.56,3.49,2.92,2.92,0,0,0,3,1.44c1-.25,1.18-1.31,1.18-2.19a12.58,12.58,0,0,0-.25-1.83,6.67,6.67,0,0,1-.3-1.64c0-.47-1.12-.26-1.16.14a5.08,5.08,0,0,0,.26,1.54c.05.27.06.53.12.79a6.74,6.74,0,0,1,.15.88,2.91,2.91,0,0,1-.19,1.6l-.14.17c-.13.14,0,.12.26-.07,0,0-.35,0-.39,0a2.19,2.19,0,0,1-.8-.51c-2.26-2.09-2.11-5.3-3-8-.14-.41-1.29-.09-1.16.31Z"/><path class="cls-9" d="M216.31,103.44c.29.71.58,1.41.94,2.09s.71,1.21,1.05,1.82c.81,1.49,1.42,3.07,2.25,4.54a3.65,3.65,0,0,0,1.46,1.43,2.24,2.24,0,0,0,1.89.35c1.39-.44,1.21-1.81,1.26-3,0-.55-1.14-.35-1.16.11s0,1.06-.07,1.57c0,.17-.06.5-.23.6s-.26,0-.42-.09a3.52,3.52,0,0,1-1.42-1.08,11.53,11.53,0,0,1-1-1.91c-1.06-2.3-2.44-4.42-3.41-6.75-.19-.46-1.34-.13-1.15.31Z"/><path class="cls-9" d="M211.09,104a22.22,22.22,0,0,0,1.95,4.57,28.41,28.41,0,0,0,2.47,3.92,4.22,4.22,0,0,0,3.73,1.75c1.39-.2,2.94-1.21,2.42-2.79-.1-.32-1.25,0-1.15.31a1.43,1.43,0,0,1-.5,1.74,1.61,1.61,0,0,1-1.69,0,6.63,6.63,0,0,1-2.61-2.69,25.37,25.37,0,0,1-3.46-7.09c-.09-.31-1.25,0-1.16.31Z"/><path class="cls-9" d="M207.19,107.8a4.43,4.43,0,0,0,.53,2.19,9.72,9.72,0,0,0,2.53,3.14,4.77,4.77,0,0,0,1.73,1,2.8,2.8,0,0,0,2-.21,3.36,3.36,0,0,0,1.64-3.26,2.86,2.86,0,0,0-.6-1.88,12.26,12.26,0,0,1-1.25-1.35c-.29-.47-1.39,0-1,.53.44.72,1.4,1.16,1.62,2a3.12,3.12,0,0,1-.64,3c-.89.78-2-.12-2.7-.73a9.37,9.37,0,0,1-2.11-2.62,4.19,4.19,0,0,1-.52-2c0-.63-1.13-.49-1.17.07Z"/><path class="cls-5" d="M219.16,126.56c-.3-.53-.58-.21-1-.64-.85-1-2.88-1.9-4.14-3.41-.66-.8-2.38-2.62-3-3.58a10.6,10.6,0,0,1,0-3.13,11.82,11.82,0,0,1,.34-2c.75-2.94,2.41-4,3.69-6.78l2.11-2.5a4.13,4.13,0,0,1,1.67,2.66c.26.3-2.57.72-2.45,1.09a8.7,8.7,0,0,1,.19,1.26c.08.85.13,1.72.18,2.57a11.85,11.85,0,0,0,.33,2.59,1.38,1.38,0,0,0,.18.41,1.11,1.11,0,0,0,.43.28,4,4,0,0,0,.68.18c.41.08.81.11,1.21.15a27.58,27.58,0,0,1,4.33.64,5.83,5.83,0,0,1,1.75.72,3.8,3.8,0,0,1,1.07,1.29,20.54,20.54,0,0,1,1.82,5.21,6.85,6.85,0,0,0,.55,2"/><path class="cls-9" d="M211.52,116.59a15,15,0,0,1,2.43-7.28c.67-1,1.3-1.9,2.05-2.79l1.7-2-1.07.24a3.94,3.94,0,0,1,1.55,2.18c.29,1-.38,1.82-.86,2.71a5.89,5.89,0,0,0-1,2.23,9.23,9.23,0,0,0,.15,1.74,2.89,2.89,0,0,0,.38,1.29c.46.53,1.49.56,2.12.65,1,.15,1.9.27,2.84.5a6,6,0,0,1,2.64,1.14,7.43,7.43,0,0,1,1.16,2.38c.13.27,1.24-.13,1.15-.31a10.85,10.85,0,0,0-1-2.2,4.44,4.44,0,0,0-2.13-1.2,15.82,15.82,0,0,0-2.81-.61c-.79-.12-2.33-.08-2.86-.75a3.15,3.15,0,0,1-.39-1.49,5.59,5.59,0,0,1-.08-1.63,9.54,9.54,0,0,1,1.33-2.72,2.35,2.35,0,0,0,.39-2.26,4.14,4.14,0,0,0-1.55-2,1.15,1.15,0,0,0-1.06.24l-1.75,2.06a34.86,34.86,0,0,0-2.1,2.85,15,15,0,0,0-2.44,7.38c0,.14,1.12,0,1.15-.31Z"/><path class="cls-9" d="M54,115.07l0-.06"/><path class="cls-5" d="M45.88,143.83l2.69-11.48s-2.89-8-1.93-13a24.52,24.52,0,0,1,2.84-7.87s1.3-5.42,3.44-6.69,2.89.61,2.89.61,3.11-3.47,5.72-.24a3.61,3.61,0,0,1,5-1.16l.28.19s4.79-2.6,6,1.33c.66,2.14-.14,9-.14,9-1.48,3.71-4.42,7.76-6.5,11.17-2.23,4.24-3.77,20.19-5.29,25.62l-15-7.49"/><path class="cls-9" d="M55.19,105.94c-.31,3.07.58,6.42-1.31,9.14-.14.21-.47.69-.75.73.18,0,.06,0,0-.12s-.19-.14-.26-.24a3.55,3.55,0,0,1-.57-1.7,5.92,5.92,0,0,1,0-.94c0-.27,0-.55-.06-.82a5.6,5.6,0,0,0-.07-1.64c-.08-.26-1.32.1-1.24.33a5.08,5.08,0,0,1,.07,1.51c0,.24,0,.47,0,.71s0,.63,0,.94c.07.79.33,2.31,1.34,2.44a3.26,3.26,0,0,0,2.86-1.55,8.34,8.34,0,0,0,1.18-3.8c.13-1.77-.11-3.55.06-5.32,0-.13-1.21,0-1.24.33Z"/><path class="cls-9" d="M60.9,105.21c-.47,2.64-1.41,5.15-2,7.77a14.3,14.3,0,0,1-.57,2.23,4.37,4.37,0,0,1-1.28,1.55c-.14.13-.22.18-.46,0a1.25,1.25,0,0,1-.37-.56,13,13,0,0,1-.43-1.63c-.15-.55-1.4-.21-1.25.33.33,1.19.45,2.74,2,2.81a2.39,2.39,0,0,0,1.67-.72,4.15,4.15,0,0,0,1.4-1.93c.58-1.73.83-3.58,1.34-5.34.21-.75.49-1.47.7-2.22s.36-1.61.5-2.43c.11-.59-1.16-.42-1.26.11Z"/><path class="cls-9" d="M66.52,104.62a27.25,27.25,0,0,1-1.94,8.1,7,7,0,0,1-2.06,3.37c-1.13.84-3,.38-2.82-1.23.06-.65-1.21-.49-1.26.09-.17,1.68,1.36,2.64,2.93,2.52a4.92,4.92,0,0,0,3.73-2.94,31.13,31.13,0,0,0,1.71-4.8,24.21,24.21,0,0,0,1-5.2c0-.66-1.23-.49-1.26.09Z"/><path class="cls-9" d="M71.51,107.9a3.92,3.92,0,0,1,0,1.77A9.06,9.06,0,0,1,70,113.08c-.53.78-1.33,2-2.43,1.73s-1.64-1.55-1.8-2.58a2.35,2.35,0,0,1,.31-1.72A7.64,7.64,0,0,0,67,109c.23-.65-1-.6-1.18-.11a8.41,8.41,0,0,1-.9,1.53,2.71,2.71,0,0,0-.38,1.78,3.79,3.79,0,0,0,2,3.28,2.9,2.9,0,0,0,2,.09,3.92,3.92,0,0,0,1.77-1.24,10.8,10.8,0,0,0,2.18-3.77,5.17,5.17,0,0,0,.24-3c-.16-.54-1.41-.21-1.25.33Z"/><path class="cls-5" d="M64.56,130.11c.19-.62.56-.34.89-.9.65-1.27,2.58-2.66,3.55-4.53.51-1,1.89-3.31,2.33-4.47a11.48,11.48,0,0,0-.75-3.28,11.76,11.76,0,0,0-.81-2c-1.48-2.91-3.47-3.67-5.45-6.26l-2.8-2.13a4.48,4.48,0,0,0-1.14,3.18c-.19.37,2.87.15,2.83.57a10.51,10.51,0,0,0,.09,1.37c.12.91.27,1.84.41,2.75a12.39,12.39,0,0,1,.26,2.79,1.37,1.37,0,0,1-.1.48,1.28,1.28,0,0,1-.38.39,4.22,4.22,0,0,1-.67.34,11.44,11.44,0,0,1-1.24.44,29.19,29.19,0,0,0-4.39,1.68,6.46,6.46,0,0,0-1.68,1.16,4.11,4.11,0,0,0-.82,1.61,22,22,0,0,0-.7,5.89,7.45,7.45,0,0,1-.11,2.21"/><path class="cls-9" d="M71.52,117.73a16.37,16.37,0,0,0-4.31-7.22c-.93-.86-1.83-1.73-2.84-2.5L62,106.22a.84.84,0,0,0-1,.18c-1.09,1.18-1.86,3.3-.7,4.64.67.78,1.37,1.53,2,2.31a5.17,5.17,0,0,1,.74,3.37c0,1-1.65,1.32-2.47,1.64a20.07,20.07,0,0,0-3,1.34,5.73,5.73,0,0,0-2.16,1.83,9.77,9.77,0,0,0-.64,2.79c-.13.57,1.14.41,1.26-.11.22-1,.1-2.15.85-2.92a9,9,0,0,1,2.94-1.77c.92-.38,1.86-.7,2.78-1.09.66-.27,1.46-.65,1.62-1.42a8,8,0,0,0-.18-2.84,4.17,4.17,0,0,0-1.22-2c-.58-.67-1.81-1.65-1.89-2.57a3.84,3.84,0,0,1,1-2.87l-1,.18c1.75,1.33,3.41,2.65,5,4.13a15.88,15.88,0,0,1,4.21,7c.17.53,1.41.19,1.24-.34Z"/><path class="cls-16" d="M123.32,126.91c3.15-.12,10.17,1.61,11.62,2.82a13.45,13.45,0,0,1-10.62,5.69c-7.29.29-8.77-4.91-8.77-4.91S119.32,127.08,123.32,126.91Z"/><path class="cls-17" d="M131.92,128.44s-3.76-.16-6.74,0-6.72.58-6.72.58-.57-2.31,4.84-2.53A15,15,0,0,1,131.92,128.44Z"/><path class="cls-18" d="M124.28,134.39c3.39-.65,6.67-4.75,10.66-4.66,0,0-.76,7.47-9.34,7.82s-10-7-10-7C119.52,130.1,120.84,134,124.28,134.39Z"/><path class="cls-18" d="M119.52,125.28c1.8-.21,3,.46,3.75.43s1.9-.79,3.71-.72,9,4.08,8.23,4.68-6.44-2.36-11.86-2.14-7.24,3.46-8.07,2.94S117.84,125.48,119.52,125.28Z"/><path class="cls-9" d="M125.9,106c-1.8-.41-2.35-2.29-2.24-3.94a6.17,6.17,0,0,1,2.13-4.24c.21-.18-.19-.21-.29-.2a1.4,1.4,0,0,0-.81.29,6.46,6.46,0,0,0-2.24,4.47c-.12,1.79.55,3.66,2.46,4.09a1.4,1.4,0,0,0,.85-.15c.1,0,.41-.26.14-.32Z"/><path class="cls-7" d="M56.14,267.46a.17.17,0,0,1-.1,0v-.26Z"/><path class="cls-7" d="M82.23,86.29a.24.24,0,0,1-.06.09l-.19-.2Z"/><path class="cls-6" d="M192.31,222s.61,8.62,1.63,10.89c0,0-21.55,6.08-38.36,7.55S98,238.87,98,238.87V228.3s38.3,3.51,59.86.7S192.31,222,192.31,222Z"/><path class="cls-15" d="M191.49,222.2c.11,1.53.25,3.06.43,4.59a23.19,23.19,0,0,0,1.2,6.3l.76-.45c-15.45,4.35-31.48,7.71-47.58,7.86-15.2.14-30.42-.75-45.57-1.8-.64,0-1.32-.16-2-.14-.4,0,.09,0,.09,0a6.55,6.55,0,0,0,0-1.4v-9.1l-1.5.52c10.34,1,20.74,1.49,31.12,1.72a235.3,235.3,0,0,0,23.9-.48,203.67,203.67,0,0,0,26.86-4.26,137,137,0,0,0,13.36-3.44c1.11-.36.06-.53-.56-.33s-1.64.5-2.57.76c-2.56.72-5.13,1.36-7.72,2a211.56,211.56,0,0,1-26.67,4.52c-14.91,1.44-30.09.72-45-.22-3.79-.24-7.57-.5-11.35-.84-.3,0-1.5.08-1.5.53v10.57c0,.09.25.09.28.1q15.38,1.14,30.78,1.67c7.32.25,14.66.44,22,.17a153.2,153.2,0,0,0,25.21-3.47c6.22-1.29,12.43-2.74,18.55-4.46.1,0,.85-.24.76-.45a22.83,22.83,0,0,1-1.21-6.3c-.17-1.53-.32-3.06-.43-4.59C193.11,221.5,191.46,221.78,191.49,222.2Z"/><path class="cls-15" d="M194.11,188.76a24.9,24.9,0,0,1,0-5.32,15.36,15.36,0,0,1,1.3-4.46c.25-.54-.79-.56-1-.13a16.2,16.2,0,0,0-1.36,4.66,26.21,26.21,0,0,0,0,5.53c.05.48,1.09.23,1-.28Z"/></g></g></svg>