<svg xmlns="http://www.w3.org/2000/svg" xmlns:xlink="http://www.w3.org/1999/xlink" viewBox="0 0 292.89 301.99"><defs><style>.cls-1{fill:none;}.cls-2{clip-path:url(#clip-path);}.cls-3{fill:#4f2e25;}.cls-4{fill:#b98354;}.cls-5{clip-path:url(#clip-path-2);}.cls-6{fill:#f2ebd1;}.cls-7{fill:#dbb28e;}.cls-8{fill:#2951a4;}.cls-9{fill:#0f1f28;}.cls-10{fill:#0a2f44;}.cls-11{fill:#517568;}.cls-12{fill:#231f20;}.cls-13,.cls-27{fill:#151210;}.cls-14{fill:#1d170f;}.cls-15{fill:#906143;}.cls-16{fill:#070505;}.cls-17{fill:#f1eef7;}.cls-18{fill:#13110f;}.cls-19{fill:#162916;}.cls-20{fill:#513835;}.cls-21{fill:#008dce;stroke-width:0.01px;}.cls-21,.cls-27{stroke:#231f20;stroke-miterlimit:10;}.cls-22{fill:#f68e46;}.cls-23{fill:#f9da03;}.cls-24{fill:#606161;}.cls-25{fill:#412b12;}.cls-26{fill:#745245;}.cls-27{stroke-width:0.19px;}.cls-28{fill:#94664a;}.cls-29{fill:#ccb631;}.cls-30{fill:#aa3828;}.cls-31{fill:#d58780;}.cls-32{fill:#4d1513;}.cls-33{fill:#192141;}.cls-34{fill:#050606;}.cls-35{fill:#c95744;}.cls-36{fill:#661d0d;}.cls-37{fill:#ce8d2a;}.cls-38{fill:#fff;}.cls-39{fill:#975449;}.cls-40{fill:#87654d;}.cls-41{fill:#a38166;}.cls-42{fill:#e2e2e2;}.cls-43{fill:#95c5d5;}.cls-44{fill:#1e572b;}.cls-45{fill:#f17f29;}.cls-46{fill:#5b321e;}.cls-47{fill:#23803f;}.cls-48{fill:#9e9d9e;}</style><clipPath id="clip-path"><path class="cls-1" d="M53.48-225.3l-.08-5.37h0c-.41-15.64-1.24-36.2-4.59-43A22.28,22.28,0,0,0,44-281.51a125.92,125.92,0,0,0-12.88-29,44.73,44.73,0,0,0,8.26-25.94A44.88,44.88,0,0,0-5.53-381.3a44.76,44.76,0,0,0-33.94,15.53A126.37,126.37,0,0,0-77-371.45q-6.49,0-12.81.64A44.85,44.85,0,0,0-127.36-391a44.88,44.88,0,0,0-44.88,44.89,44.92,44.92,0,0,0,2.6,15.09c-6.92,7.45-11.69,14.9-16.67,23.86-4.08,2.41-11.41,6.91-13.53,12.42-2.77,7.18-8.86,30.29-11.12,44.66l2.94,1c-.88,5.78-1.8,15.52-2.28,22.13l0,.7a11.55,11.55,0,0,0-.14,2c-.1,1.66-.15,2.93-.15,3.64,0,0-.07,2.32,0,2.32a47.87,47.87,0,0,0,.55,8.74c1.62,9.92,10.72,14.3,10.72,14.31l3.27,1.54c.94.38,1.59.53,2.52.85,19.21,45.3,64.28,74.13,116.58,74.13,44.52,0,84-24.14,106.45-58.94,6.19-2.34,11.37-4.85,15.24-8.9,7.19-5.41,5.83-29.14,4.88-38.58Z"/></clipPath><clipPath id="clip-path-2"><path class="cls-1" d="M291.44,99.7a39.31,39.31,0,0,0-55-36.05A126.65,126.65,0,0,0,122.16,29.3a54.29,54.29,0,0,0-95.11,51,12.41,12.41,0,0,0-.82,1.09c-4.39,6.69-6.37,22.46-6.37,22.46s1,.27,2.55.65c-.72,6.54-4,27.72-3.88,30.72.17,3.89.67,7.51,2.46,10.09q-.25,4-.26,8a126.5,126.5,0,1,0,251.44-19.78A39.28,39.28,0,0,0,291.44,99.7Z"/></clipPath></defs><g id="Layer_1" data-name="Layer 1"><g class="cls-2"><path class="cls-3" d="M24.66,6.38s.84,0,.88,2.92c.06,3.85-10.53,3.59-13.71,3.85s-13.34,3.3-20.5,3.52-14.42-4.15-15.12-6.41.17-3.3,1.71-3.88S22.47,4.06,22.47,4.06Z"/><g id="freepik--character-1--inject-1332"><path class="cls-4" d="M29.58-23.6S27.89-1.15,28,.07L17.39,1.23,12.69.72,8.2-23.62Z"/></g><path class="cls-4" d="M22.69-10.07c-.22,2.41.59,5.83,1.11,10.89.23,2.23,2,5.43-.35,7-4.16,2.84-10.18,1.88-12.06,2.32a63.29,63.29,0,0,0-7.87,2A26.17,26.17,0,0,1-5.33,13.9,3.29,3.29,0,0,1-7,13.64c-.34-.18-.6-.45-.94-.63-1.2-.62-2.71.19-4.08,0a7.81,7.81,0,0,1-1.71-.57,30.39,30.39,0,0,0-4.68-1.12A8.58,8.58,0,0,1-22.7,9.38a3.06,3.06,0,0,1-.54-4C-21.8,3.61-20,4.67-18,4.51a10.49,10.49,0,0,0,4.35-1.22C-9.33,1.34-8.66.94-5-.59A112.28,112.28,0,0,0,9.57-8.35l-.45-2.89"/><path class="cls-3" d="M-14.09,5.54a2.61,2.61,0,0,1,2.18-1.22c5.5-.71,17.78-.48,19.23,7.58l-2,.77S2.84,6.55-2.27,6-14.09,5.54-14.09,5.54Z"/></g></g><g id="Layer_15" data-name="Layer 15"><g class="cls-5"><circle class="cls-6" cx="146.44" cy="153.44" r="126.49" transform="translate(-65.61 148.49) rotate(-45)"/><path class="cls-7" d="M192.65,144.55c.49-.51,4.87.24,5-.11s-5.21-1.31-6-2.05c-.44-.38-.29-.65,0-.83a.87.87,0,0,1,.72-.1c.54.15,1.5.09,3.08.37a18.93,18.93,0,0,0,2.66.49c0-.09-.7-.39-2.61-.77-1-.24-2.25-.79-3.34-1a1.1,1.1,0,0,1-.81-.55c-.24-.45-.11-.94.55-1,1.56,0,7,1.59,6.91,1.59s-1.48-.74-2.51-1.28-3.64-1.31-3.27-1.94,2.43-.17,3.8.21c1.55.41,6.05,1.64,6.05,1.64a34.27,34.27,0,0,1-2.73-2.66c-1-1.26-.3-2-.3-2a78.59,78.59,0,0,1,6.55,4.44,7.35,7.35,0,0,1,1.92,2.48l4.34,1.1c-.13.36-1.69,5.84-1.92,6.1,0,0-2.45-1.22-3.7-1-3.49,1.93-12.07-1.88-13.14-2.12S192.37,144.84,192.65,144.55Z"/><path class="cls-8" d="M73.51,276.93l-4.59-73.36a2.59,2.59,0,0,0-.39-1.37l-5-5.63a3.34,3.34,0,0,0-2.84-1.48H14.72a3.33,3.33,0,0,0-2.84,1.48l-5,5.63a2.6,2.6,0,0,0-.4,1.37L1.85,276.78A2.64,2.64,0,0,0-.4,279.29v1.14A2.68,2.68,0,0,0,2.38,283H10a2.68,2.68,0,0,0,2.77-2.55v-1.2l2.29-31a3.08,3.08,0,0,1,3.25-2.86H57.53a3.07,3.07,0,0,1,3.24,2.86l2.3,30.35a2.25,2.25,0,0,0-.15.82v1.14a2.68,2.68,0,0,0,2.77,2.55h7.15a2.68,2.68,0,0,0,2.78-2.55v-1.14A2.61,2.61,0,0,0,73.51,276.93ZM56.73,235.14H19.6c-3.78,0-2.94-2.7-2.94-6l.69-13.51c0-3.33,4.21-6,8-6h26.8c3.78,0,6.84,2.69,6.84,6l.69,13.51C59.67,232.44,60.5,235.14,56.73,235.14Z"/><path class="cls-8" d="M188.61,276,184,202.64a2.54,2.54,0,0,0-.4-1.38l-5-5.62a3.33,3.33,0,0,0-2.85-1.49H129.82a3.33,3.33,0,0,0-2.85,1.49l-5,5.62a2.63,2.63,0,0,0-.4,1.38L117,275.85a2.61,2.61,0,0,0-2.25,2.5v1.14a2.68,2.68,0,0,0,2.77,2.56h7.62a2.68,2.68,0,0,0,2.77-2.56V278.3l2.29-31a3.08,3.08,0,0,1,3.25-2.86h39.23a3.07,3.07,0,0,1,3.24,2.86l2.29,30.36a2.42,2.42,0,0,0-.14.81v1.14a2.67,2.67,0,0,0,2.77,2.55h7.15a2.68,2.68,0,0,0,2.78-2.55v-1.14A2.62,2.62,0,0,0,188.61,276ZM171.83,234.2H134.7c-3.78,0-2.94-2.7-2.94-6l.69-13.5c0-3.33,4.21-6,8-6h26.8c3.77,0,6.84,2.7,6.84,6l.68,13.5C174.76,231.5,175.6,234.2,171.83,234.2Z"/><path class="cls-8" d="M289.34,275.07l-4.59-73.36a2.6,2.6,0,0,0-.4-1.37l-5-5.63a3.35,3.35,0,0,0-2.85-1.48H230.55a3.35,3.35,0,0,0-2.85,1.48l-5,5.63a2.51,2.51,0,0,0-.4,1.37l-4.59,73.21a2.63,2.63,0,0,0-2.25,2.51v1.14a2.67,2.67,0,0,0,2.77,2.55h7.61a2.68,2.68,0,0,0,2.78-2.55v-1.14a.13.13,0,0,0,0-.06l2.3-31a3.07,3.07,0,0,1,3.24-2.86h39.23a3.08,3.08,0,0,1,3.25,2.86l2.29,30.35a2.48,2.48,0,0,0-.15.82v1.14a2.68,2.68,0,0,0,2.78,2.55h7.15a2.67,2.67,0,0,0,2.77-2.55v-1.14A2.61,2.61,0,0,0,289.34,275.07Zm-16.79-41.79H235.43c-3.78,0-2.94-2.7-2.94-6l.69-13.51c0-3.32,4.21-6,8-6H268c3.78,0,6.84,2.7,6.84,6l.69,13.51C275.49,230.58,276.33,233.28,272.55,233.28Z"/><path class="cls-3" d="M93.84,275.22a6.69,6.69,0,0,1,2.82,2l-.1,0a2.63,2.63,0,0,1,2.21.16,2.78,2.78,0,0,0-2.21,0,8.7,8.7,0,0,0-2.72-2.15Z"/><path class="cls-7" d="M86.68,124.77l.62-2.36a12.7,12.7,0,0,1-3.54,2.88c-.08-.06-.84-.46-.85-.46-3.34,5-5.85,12.55-1.28,17.43,4.05,2.81,8,2.39,14.17-4.52.47-.53,5.07-6.6,6.14-8.38C98.71,125.8,90.29,127.91,86.68,124.77Z"/><path class="cls-7" d="M85.44,93.54c-3.23-.11-3.55,4.9-6.78,4.87-2.22,0-4.44,0-6.65.19a21.86,21.86,0,0,0-2.93.5c0,.2,0,.41,0,.61.78,7.88,2,10.45,3.48,18.22,1,5.14,1,10.44,2.36,15.5a20.76,20.76,0,0,0,3.41,7.18c2,2.58,4.48,3.18,7.66,3.28.89,0,6.94-15.1,6.54-16.75C90.13,116.92,86.54,99.88,85.44,93.54Z"/><path class="cls-7" d="M100.57,131.27c5.83-7.64,13.78-21.53,13.78-21.53-2.65-2.24-3.88-2.38-4.72-4.81L88,123.52C89.2,130,97.43,127.83,100.57,131.27Z"/><g id="freepik--Character--inject-2"><path class="cls-7" d="M106.6,107.31l3.35-3s1.32-3.6,2.14-4.45a34.14,34.14,0,0,1,5.13-3.26c.23,0,3.44-5,4.5-4.66a1.8,1.8,0,0,1,1.15,2.62c-.53,1.4-3.39,3.91-2.8,4.49a5,5,0,0,0,1.65.93s.56-1.62,1.55-2,1.89.66,1.89.66l-.08.72,1-.68s1.47-3.19,2.9-2.94A5.86,5.86,0,0,1,130.72,94a1.27,1.27,0,0,1,1.7.52,2,2,0,0,1,.12.34h0L128.78,102l-8.31,6.68s-4.52.4-5.43.65-2.48,4-2.75,3.63A36.21,36.21,0,0,0,106.6,107.31Z"/></g><path class="cls-3" d="M109.91,104.74a1.92,1.92,0,0,0,.6,1,6.9,6.9,0,0,0,1.4.79.39.39,0,0,0,.35,0c.06,0,.15-.13,0-.18a6.3,6.3,0,0,1-1.34-.75,1.48,1.48,0,0,1-.36-.39,3.18,3.18,0,0,1-.21-.54c0-.16-.53,0-.48.13Z"/><path class="cls-3" d="M91,120.66a15.69,15.69,0,0,0-5.29,5,17.21,17.21,0,0,0-1.91,4.78c0,.13.44.06.48-.08A17.45,17.45,0,0,1,86,125.81a15.25,15.25,0,0,1,5.3-5.11c.22-.13-.27-.1-.37,0Z"/><path class="cls-3" d="M117,107.34a6.61,6.61,0,0,1,2.47-2.67,4,4,0,0,0,1.24-1.2c.36-.69.6-1.46.89-2.18.48-1.16.9-3,2.39-3.15.21,0,.69,0,.87.11s0,.28,0,.43l-.21.66c-.24.72-.49,1.43-.73,2.15s-.47,1.58-.78,2.34a8.69,8.69,0,0,1-1.26,2.08c-.19.23.27.3.41.13a10.4,10.4,0,0,0,1.78-3.53c.45-1.45,1-2.88,1.43-4.33,0,0,0-.09-.06-.12a2.44,2.44,0,0,0-2.51.13c-1,.7-1.4,2.22-1.84,3.3a9.6,9.6,0,0,1-.91,2.1,6.48,6.48,0,0,1-1.46,1.24,5.83,5.83,0,0,0-2.13,2.46c-.09.26.39.25.46,0Z"/><path class="cls-3" d="M125.41,102.33a15,15,0,0,1,1.1-3.33,13.2,13.2,0,0,1,.85-1.57,6.45,6.45,0,0,1,1-1.28,1.06,1.06,0,0,1,1.1-.23c.19.08.25.14.2.34-.11.52-.29,1-.44,1.53l-1.16,3.91c-.06.2.43.14.49,0L129.62,98l.45-1.51c.08-.29.19-.53-.08-.72a1.82,1.82,0,0,0-2.33.59A12.14,12.14,0,0,0,126.05,99a15.69,15.69,0,0,0-1.13,3.41c0,.21.45.14.49,0Z"/><path class="cls-3" d="M117.86,98.15a5.26,5.26,0,0,1,1.78,1,.32.32,0,0,0,.33,0s.21-.14.12-.21a5.86,5.86,0,0,0-1.94-1.07.36.36,0,0,0-.34.09.11.11,0,0,0,0,.2Z"/><path class="cls-7" d="M231.13,132.76c-1.45,3.9-3.53,10.2-3.53,10.2l-18.35-1.2-1.7,5.74s16.9,7.68,25.91,5.95c2.85-.54,4-5.12,5.64-10.46l-.44-5.87A15.22,15.22,0,0,1,231.13,132.76Z"/><path class="cls-3" d="M227.34,143.1a4.25,4.25,0,0,1,2.5,2.67c0,.17.53,0,.48-.13a4.42,4.42,0,0,0-2.59-2.77.43.43,0,0,0-.35,0s-.15.14,0,.18Z"/><path class="cls-7" d="M236.76,157.31l-.81,3.46.51,1.79s-5.26,1.57-6.59,1.31-4.5-.49-4.5-.49a1.8,1.8,0,0,1,0,1.21,1.78,1.78,0,0,1-1,.91l-1.23-2.2c-.46.93-1.27.14-1.27.14l-.86-1.92c-.52,1.18-1.6.17-1.6.17l-.38-2.62a3.79,3.79,0,0,1-1.27.94c-.62.23-.73-.8-.73-.8l2.57-3.81,6.22-1.29,9.58,3.17Z"/><path class="cls-3" d="M223.31,155.27a13,13,0,0,0-1.75.5,10.52,10.52,0,0,0-1.65.71c-.43.25-.95.52-1.09,1a4.24,4.24,0,0,0-.12.87,2.84,2.84,0,0,0,.07.92c0,.22.54.09.48-.13a2.59,2.59,0,0,1-.06-.83,4.5,4.5,0,0,1,.11-.81c.11-.47.71-.72,1.11-.92a11.67,11.67,0,0,1,3-1c.1,0,.23-.12.2-.23s-.19-.12-.28-.1Z"/><path class="cls-3" d="M224.3,157.75c-.46.13-.92.22-1.38.33a6.4,6.4,0,0,0-1.6.53,1.11,1.11,0,0,0-.52.53,3.35,3.35,0,0,0-.29.74,2.58,2.58,0,0,0-.08.83,3,3,0,0,0,.25.81c.07.19.56,0,.48-.13a4.32,4.32,0,0,1-.23-.72,2,2,0,0,1,0-.74,3.28,3.28,0,0,1,.27-.74.91.91,0,0,1,.5-.46,23.85,23.85,0,0,1,2.64-.7c.08,0,.23-.09.2-.2s-.2-.1-.28-.08Z"/><path class="cls-3" d="M225.27,160.64a9,9,0,0,0-1.56.07,1.91,1.91,0,0,0-1.19.63,1.3,1.3,0,0,0-.16,1.25,2.37,2.37,0,0,0,.4.64c.06.08.16.21.27.22a.39.39,0,0,0,.34-.09c.07-.07.06-.17-.05-.18h0s0,0,0,0l0,0-.12-.12a3.17,3.17,0,0,1-.32-.49,1.18,1.18,0,0,1,0-1.11c.33-.52,1-.5,1.59-.51h.59a.37.37,0,0,0,.32-.14c.05-.09,0-.15-.14-.15Z"/><path class="cls-7" d="M182,241.38l-1.62-11.29-3.08-17.34c-.58-3.77-1.2-15-.24-18.24L167,181.36l19.06-2.93s8.22,4.11,7.68,18.22c-.58,15.23-3.37,41.72-2.5,42.74.06.06,0,1.09.1,1.15-.38.06-3.1.3-3.47.38-2.45.5-2.59.74-5.07,1.07C182.26,241.36,182.84,241.63,182,241.38Z"/><path class="cls-9" d="M171.79,187.62A4.39,4.39,0,0,1,175,187a.91.91,0,0,0,.73-.2c.16-.14.12-.33-.1-.37a6.35,6.35,0,0,0-4.46.85c-.14.09-.31.3-.09.41a.82.82,0,0,0,.73-.09Z"/><path class="cls-7" d="M169.55,114.71a11.79,11.79,0,0,1,5.87,6.93c1.26,4.36,1,30.38,1.5,34.2.85,5.44,4.75,12.68,4.29,18.17-.17,2.05-3.73-2.06-3.91,0a9,9,0,0,1-.32-2.35l-5.65-1s.06-27.41-2.22-33.54S169.55,114.71,169.55,114.71Z"/><path class="cls-10" d="M155.3,183.15l-.72-24.85,17.15,2.57,1.61,20C167.31,181.52,161.31,182.39,155.3,183.15Z"/><path class="cls-10" d="M170.6,163.84l23.8,16.43c-4.66.91-10.83,2.46-11.89,5.17-1.19,3-4.78,8.39-5.26,11.26L155.05,194C157.47,188.68,168.09,169.13,170.6,163.84Z"/><path class="cls-10" d="M155.64,184.47c-5.85.55-11.7,1-17.53,1.74a85.19,85.19,0,0,0-9.3,1.76l-2.46-8.5c-1.16-4.44-3-5.2-2.8-9.79l4.08-9.49,30.52-2.4-3.29,16.76Z"/><path class="cls-7" d="M167.79,89a31.48,31.48,0,0,0-.13-6.78c0-.91,0-2,.05-3.22,0-.36,0-.71,0-1.06a3.25,3.25,0,0,1,0-.54c-.26-6.16-2.32-9.36-2.32-9.36a13.55,13.55,0,0,0-12-6.15,18.41,18.41,0,0,0-13.41,7.17,8.88,8.88,0,0,0-1.76,6.05,36.31,36.31,0,0,0,1.12,5.94c-2-.07-3.92.66-3.17,4.3,1.05,5,4.31,6.57,5.83,5.17.35.06,1.07,1.58,1.16,2.63.18,2,.13,5.6-.84,7.37l.06.57c4.34,6.86,6.9,10.83,21.5,6.61l-4.74-6.66L159,98.79a6.09,6.09,0,0,0,2.45-.37C166,97.19,167.55,91.31,167.79,89Z"/><path class="cls-11" d="M129.08,128.16c-1.06,5.32-2.72,3.5-2.81,4.21s-.2,23.06-1.6,38.41c1.39,1.45,8,1.8,10.91,2.32a68.56,68.56,0,0,0,12.95.87c3.93-.07,7.28-1.07,11.19-1.39,4.47-.36,9.8-.26,14.15-2.09-1.05-9.2-.9-28.06-1.05-32.36-.14-4.74-.06-2.79-.06-2.79s4.64-.35,6.24-3.75c-1.93-5.38-2.05-21.92-11.09-27-1.28-.72-6.64-3.2-8.65-3.28a6.43,6.43,0,0,1,.57,3.28,3.37,3.37,0,0,1-2,2.82c-1.21.69-4.71.86-6.1.56-4.36-.94-7.67-5.29-9.2-8a103.86,103.86,0,0,0-11.12,4.36c-11.08,4.63-6.3,21.58-6.3,21.58C127,127.08,129.08,128.16,129.08,128.16Z"/><path class="cls-3" d="M159,98.8a18,18,0,0,1-10.29-2.68s.6,1.62,4.07,2.81a13.9,13.9,0,0,0,6.23.74Z"/><ellipse class="cls-12" cx="165.29" cy="80.67" rx="1.21" ry="1.21" transform="translate(49.1 223.25) rotate(-76.84)"/><path class="cls-13" d="M166.86,79.5a4.51,4.51,0,0,0-2.7-.33c-1.87.18-2.7,2.53-2.7,2.53a4.15,4.15,0,0,1,2.82-2,8,8,0,0,1,3.33.45C167.59,80,167.21,79.74,166.86,79.5Z"/><ellipse class="cls-14" cx="152.73" cy="80.9" rx="1.21" ry="1.21" transform="translate(39.17 211.2) rotate(-76.84)"/><path class="cls-13" d="M156.12,81.67s-1.85-2.54-3.89-2.25c-2.32.32-3.39.55-3.95,1.48a12,12,0,0,1,4-1C154.33,79.78,156.12,81.67,156.12,81.67Z"/><path class="cls-15" d="M159.49,90.28c-1.74,0-4.56-.17-4.56-.17s-.21,4.37,4.61,4.26c4-.09,4.09-4.22,4.09-4.22S161.22,90.27,159.49,90.28Z"/><path class="cls-16" d="M159.5,90.28c-.82,0-3.9,0-3.9,0a3.68,3.68,0,0,0,3.72,2.33c3.24,0,3.72-2.16,3.72-2.16Z"/><path class="cls-17" d="M159.54,90.66c-.83,0-3.34-.11-3.34-.11a6.59,6.59,0,0,0,3.47.66c2.48,0,3.18-.68,3.18-.68Z"/><path class="cls-15" d="M163.61,90.12c0-.09-.18-.13-.59-.16-.68,0-.91-.29-1.4-.33a7.61,7.61,0,0,0-1.75.27,8,8,0,0,0-1.76-.25c-.49,0-1.72.22-2.4.29a7.19,7.19,0,0,1-1-.1c-.12,0,.17,1.15,4.79,1.13S163.61,90.24,163.61,90.12Z"/><path class="cls-18" d="M155.57,75.52s-.15,0-.16,0a12.9,12.9,0,0,0-4.55,1,4,4,0,0,0-1.15,1,7.05,7.05,0,0,0-1,1.37c-.05.32.67-.37.67-.37a5,5,0,0,1,.44-.32,10.8,10.8,0,0,1,2.91-1.34,14.66,14.66,0,0,1,3.24,0C155.85,76.36,155.65,76,155.57,75.52Z"/><path class="cls-18" d="M167.63,78.18a.76.76,0,0,1,.09-.18c-.26-.38-.61-.79-.61-.79a3.34,3.34,0,0,0-1-.87,10.15,10.15,0,0,0-4-.66s-.13,0-.14,0c-.07.46-.24.85-.35,1.31a11.26,11.26,0,0,1,2.86-.27A8.24,8.24,0,0,1,167,77.89a2.82,2.82,0,0,1,.39.29l.18.16S167.61,78.23,167.63,78.18Z"/><path class="cls-19" d="M173,118.58a61.33,61.33,0,0,1-.27,9.09c0,.63-.14,1.23-.22,1.86a23.25,23.25,0,0,0,0,6.56c0,.18.69,0,.66-.18-.43-2.92.08-5.7.28-8.59a61.7,61.7,0,0,0,.26-8.91c0-.17-.67,0-.66.17Z"/><path class="cls-13" d="M142,84.77s-.14,0-.15,0c-.28-.71-.44-1.76-1-2.27-.28-.23-.86-1-1.2-1.12a6.85,6.85,0,0,0-1.44-.2,3.31,3.31,0,0,0-1.63.25c-.08,0-.38.24-.47.28-1.43-4.35-2-8.61,1.12-14,.89-1.56,3.29-3.31,4-3.88,4.45-3.36,8.47-3.67,13.44-3.27,5.75.46,11.19,4.05,12.61,9.83a5.6,5.6,0,0,1,.1,2.76,8.56,8.56,0,0,0-3.69-4.24c-2.8-1.6-3.14-.79-7.07-.63-4.54.17-6.07-2.27-9.68-.31a9.16,9.16,0,0,0-4.23,4.73c-.47,2-1.35,3.32-.75,5.58.14.54.26,1.08.37,1.63a13.58,13.58,0,0,1,.06,3c-.08.49,1.08,1.06.66,1.37S142.44,84.93,142,84.77Z"/><path class="cls-12" d="M142.13,84.56c-.28-.08-.55-1.56-.78-1.9a5.24,5.24,0,0,0-1.53-1.51,4.53,4.53,0,0,0-3.93.34l.46.1a17,17,0,0,1-.67-9.72,12.77,12.77,0,0,1,2.76-5.45,22.62,22.62,0,0,1,3.5-2.91,17,17,0,0,1,10.93-2.89,16.55,16.55,0,0,1,9.42,3A10.93,10.93,0,0,1,167,73.11l.64-.11a8.9,8.9,0,0,0-4.71-4.84,5.87,5.87,0,0,0-3.18-.47,20.07,20.07,0,0,1-5.58.11,30.4,30.4,0,0,0-4.3-.89,6.58,6.58,0,0,0-3.73,1.16A9.58,9.58,0,0,0,142,73.72a12.72,12.72,0,0,0-.63,2.5,10.77,10.77,0,0,0,.42,3.09,13.25,13.25,0,0,1,.25,2.26,8.8,8.8,0,0,0,0,1.35,1.72,1.72,0,0,0,.31.62s.32.28.33.36c0,.26-.34.66-.6.64s-.65.43-.22.46c.63,0,1.63-.42,1.53-1.16,0-.16-.21-.27-.29-.4a1.93,1.93,0,0,1-.37-1.27,17.56,17.56,0,0,0-.16-2.62,13.87,13.87,0,0,1-.51-3.19,11.37,11.37,0,0,1,.66-2.75,8.72,8.72,0,0,1,.88-2.22,9,9,0,0,1,3.78-3.47c1.64-.8,3.13-.51,4.8-.07a14.74,14.74,0,0,0,4.38.59c1.37,0,2.75-.37,4.12-.34,2.69.07,5.48,2.6,6.34,5.07.09.26.62.15.64-.11.64-7.31-6.5-12.3-13.13-12.82-3.76-.3-7.53-.07-10.92,1.7-3.14,1.64-6.13,4.08-7.61,7.34-1.86,4.1-1.63,8.27-.27,12.48.06.17.33.18.46.1a3.71,3.71,0,0,1,2.42-.44,2.89,2.89,0,0,1,1.88,1.18,7.24,7.24,0,0,1,.91,1.93c.14.28.08.37.39.46S142.52,84.67,142.13,84.56Z"/><path class="cls-18" d="M139.94,60.94a13.55,13.55,0,0,0-3.07,4.79l-.75.7c-.81.75-2,1.58-2.37,2.62-3,9.14,2.41,13,2.41,13s2.58-14.46,12.53-18.49,18.92,6.65,18.92,6.65c-.29-11.41-11.3-13.08-11.3-13.08S144.3,56.56,139.94,60.94Z"/><path class="cls-18" d="M159,87.74a3.83,3.83,0,0,0,1.42.25,4.49,4.49,0,0,0,1.31-.17c.58-.19,1.18-.78.91-1.43a4.89,4.89,0,0,0-.26-.51,4.93,4.93,0,0,1-.31-.75c0-.06-.24,0-.22.06a11.26,11.26,0,0,0,.55,1.23.92.92,0,0,1-.24,1,1.91,1.91,0,0,1-1.29.42,3.7,3.7,0,0,1-1.68-.24c-.05,0-.26.07-.19.1Z"/><path class="cls-18" d="M157,86.2a.56.56,0,0,0-.5.27,1.23,1.23,0,0,0-.1.6.73.73,0,0,0,.18.53,1.26,1.26,0,0,0,.79.31,1.4,1.4,0,0,0,.54,0c.2-.06.39-.16.6-.21,0,0,.13,0,.13-.06s-.07,0-.09,0a3.38,3.38,0,0,0-.42.13,1.37,1.37,0,0,1-.44.12,1.46,1.46,0,0,1-.74-.19.87.87,0,0,1-.3-1,.71.71,0,0,1,.09-.28.36.36,0,0,1,.07-.1.05.05,0,0,1,0,0h0a.29.29,0,0,0,.16,0s0,0,0,0Z"/><path class="cls-20" d="M178.91,123.43a.25.25,0,0,0,0,.07l.13-.15Z"/><path class="cls-21" d="M135.94,83.15s.4-1.38,1.37-1.63a2.78,2.78,0,0,1,3.4,1.8s.42-1.22,0-1.88a2.87,2.87,0,0,0-4-1.07C134.43,81.76,135.94,83.15,135.94,83.15Z"/><path class="cls-22" d="M140.83,82.08s1.39,2.77-.15,3.59c-.9.48-1.15-.2-1.46.24a1.06,1.06,0,0,0-.1.93s-.55.66-.76-.33c-.13-.6.4-1.71,1.32-1.39,0,0,.8.54,1-.64a2.66,2.66,0,0,0-.38-1.92C139.88,81.9,140.83,82.08,140.83,82.08Z"/><path class="cls-12" d="M140.83,82.08a5.11,5.11,0,0,1,.57,2.26,1.38,1.38,0,0,1-1.79,1.43.33.33,0,0,0-.33.06.9.9,0,0,0-.22.76c0,.14.09.21,0,.31a.33.33,0,0,1-.57-.05,1.17,1.17,0,0,1-.07-.95,1,1,0,0,1,1.31-.75.6.6,0,0,0,.72-.06,1.28,1.28,0,0,0,.29-.81,2.63,2.63,0,0,0-.14-1.18,3.4,3.4,0,0,0-.29-.57c-.08-.15-.16-.34,0-.43a1,1,0,0,1,.49,0s0,0,0,0c-.23,0-.72-.06-.61.31a3.56,3.56,0,0,0,.27.51,2.73,2.73,0,0,1,.24.89,1.74,1.74,0,0,1-.31,1.32.59.59,0,0,1-.68.05.89.89,0,0,0-.6-.06,1.3,1.3,0,0,0-.8,1.34c0,.22.13.64.42.63a.5.5,0,0,0,.36-.22h0a1.07,1.07,0,0,1,.06-.86c.16-.28.35-.22.6-.16a1.35,1.35,0,0,0,1.28-.45,2.68,2.68,0,0,0,.08-2.54,7,7,0,0,0-.31-.75S140.82,82.08,140.83,82.08Z"/><path class="cls-23" d="M140.08,85.7s-.64-2.27-2.2-2.25c-.63,0-1,1.2-.22,2.79a2.05,2.05,0,0,0,1.57.91s-.6-1.3.39-1.37A1.25,1.25,0,0,0,140.08,85.7Z"/><path class="cls-12" d="M140.09,85.7a3.2,3.2,0,0,0-1.63-2.15,1.08,1.08,0,0,0-.75-.07.81.81,0,0,0-.42.52,2.2,2.2,0,0,0,0,1,3.27,3.27,0,0,0,.53,1.39,2,2,0,0,0,1.45.71h0a1.69,1.69,0,0,1-.17-.85.51.51,0,0,1,.42-.49,2.44,2.44,0,0,0,.6-.11s0,0,0,0c-.29.16-.67,0-.91.28a.87.87,0,0,0-.09.74,2.3,2.3,0,0,0,.1.35l0,.07s0,0,0,0-.27,0-.33-.06a1.9,1.9,0,0,1-.56-.21,2.1,2.1,0,0,1-1-1.39,2.39,2.39,0,0,1,0-1.54c.36-.93,1.48-.31,1.93.2a4.2,4.2,0,0,1,.83,1.56Z"/><path class="cls-12" d="M140.14,85.88a1.11,1.11,0,0,0-.51-.22.62.62,0,0,0-.44.11.61.61,0,0,0-.19.32,1.13,1.13,0,0,0,.36,1.13,1.72,1.72,0,0,0,1,.36.2.2,0,0,0,.2-.09c0-.06,0-.1-.09-.1a1.24,1.24,0,0,1-1.13-.71,1.06,1.06,0,0,1-.06-.5,1,1,0,0,1,.05-.2.31.31,0,0,1,.08-.11s0,0,0,0,0,0,0,0,0,0,0,0h0a.69.69,0,0,1,.3.09.6.6,0,0,1,.15.09c.09.06.36-.07.23-.16Z"/><path class="cls-10" d="M187.46,178.31a8.35,8.35,0,0,1,2-1.14l1.88-1.1c.91.62,3,1.61,3.82,2.33a4.85,4.85,0,0,1,.58,1,3.91,3.91,0,0,1,.5,1.68,13.56,13.56,0,0,1-.09,4.41C194.22,180.77,191,179.46,187.46,178.31Z"/><path class="cls-7" d="M176.55,228.42c-.1,1.56-2.86,14.28-1.41,15.82-.38.07-4.31-.08-4.69,0-2.63.58-1.66-.28-4.35,0-.9.1-.3-.64-1.22-.57-.24-.14,1.35-3,1.35-3l-.31-4-2.7-22.4c-.61-3.77-2.77-13.76-.36-18.24h0l-10.14-13,21.72-1.61s9.32,1.34,7.3,16.82C179.78,213.3,176.69,226.38,176.55,228.42Z"/><path class="cls-7" d="M167.58,239.46a41.38,41.38,0,0,1-4.06,5.82c-.72.87-2.68,2.95-1.71,4.14,1.7,2.1,4.91,2.7,5.91,3.29,2.09,1.25,3.95,1.94,5.87,3.28a18.58,18.58,0,0,0,4.75,2.7,2.83,2.83,0,0,0,1.07.28c.25,0,.47-.06.72-.06.87,0,1.55.68,2.41.91a6.34,6.34,0,0,0,1.16.14,27.28,27.28,0,0,1,3.05.58,7.57,7.57,0,0,0,3,.13c.92-.2,1.62-.83,1.37-1.53-.38-1.05-1.74-1-2.83-1.51a7.56,7.56,0,0,1-2.25-1.47c-2.05-1.78-2.34-2.09-4.1-3.54-1.36-1.12-5.73-6.93-7.38-8.94l2.57-21.11"/><path class="cls-3" d="M180.36,259.18a1.05,1.05,0,0,0,1-.41.76.76,0,0,0,.07-.82,2.58,2.58,0,0,0-.61-.78c-.25-.23-.52-.44-.78-.66s-.59.1-.37.29a5.9,5.9,0,0,1,1.2,1.14.71.71,0,0,1,.14.56.46.46,0,0,1-.49.31.32.32,0,0,0-.32.16c0,.11.05.2.16.21Z"/><path class="cls-3" d="M182.64,260a1.25,1.25,0,0,0,1.53-.82.88.88,0,0,0-.09-.8,3.43,3.43,0,0,0-.91-.87,4.35,4.35,0,0,0-1.14-.82.5.5,0,0,0-.34.07c-.05,0-.16.08-.06.12a4.41,4.41,0,0,1,1.08.79,2.9,2.9,0,0,1,1,1,.88.88,0,0,1-.07.82,1.09,1.09,0,0,1-.29.35l-.05,0s0,0,0,0a.54.54,0,0,1-.22-.05.51.51,0,0,0-.34.07s-.16.08-.06.12Z"/><path class="cls-3" d="M184.72,260.35a1.42,1.42,0,0,0,1.26-.53,1,1,0,0,0,.11-1,3,3,0,0,0-.8-1,7.19,7.19,0,0,0-1.14-.85.34.34,0,0,0-.35,0c-.07.06-.13.19,0,.25a6.48,6.48,0,0,1,1,.69,3.48,3.48,0,0,1,.76.82.93.93,0,0,1,.17.82.76.76,0,0,1-.77.48.34.34,0,0,0-.32.15c0,.11.05.19.15.2Z"/><path class="cls-3" d="M186.59,260.76a2.31,2.31,0,0,0,1.36-.34,1.17,1.17,0,0,0,.61-.91,1.45,1.45,0,0,0-.45-.86,5.8,5.8,0,0,0-.91-.81l-.49-.37a2.58,2.58,0,0,0-.66-.43.4.4,0,0,0-.35.09.13.13,0,0,0,.06.22,2.61,2.61,0,0,1,.63.43l.45.34a5.28,5.28,0,0,1,.95.88.77.77,0,0,1,.19.9,1.38,1.38,0,0,1-1.22.53.37.37,0,0,0-.32.15c-.05.1.05.18.15.18Z"/><path class="cls-7" d="M182.16,239.84c-.67,1.08-2.1,5.6-2.76,6.62-.77,1.18-.36,2.23,1.26,3,1.36.69,5.59.39,7.23.59,2.15.26,5,1.16,7.14,1.42,1.84.22,7.68.78,9.39,1.32a13.86,13.86,0,0,0,5.81.66c.37,0,.58,0,.8-.16.58-.45.71-1-.07-1.6-1-.74-2.6-.21-3.47-1a4,4,0,0,0-.49-.42,3.9,3.9,0,0,0-1.41-.35c-2.45-.38-2-1.16-5-2.31-.89-.33-8.75-6.89-9.53-7.34"/><path class="cls-3" d="M204.74,250a5.27,5.27,0,0,1,2.33,1.15l-.09,0a2.86,2.86,0,0,1,1.83.09,3.34,3.34,0,0,0-1.83.07,7.74,7.74,0,0,0-2.24-1.27Z"/><path class="cls-10" d="M123.55,168.85c.33-.73.71-1.47,1.12-2.22,8.82,5,19.75,3.58,29.38,2.58l13.92,9.9,3.21,1.85c-.1.7,10,2.22,9.83,2.91-.41,2.18-3.25.3-5.71.59-2.92.35-7.8,3.44-9.16,5.27-3.13,4.2-3.67,9.17-4.67,10.8-2.39-1.07-24.29-6-24.29-6l-7.43-.3C118.62,187,122.26,171.7,123.55,168.85Z"/><path class="cls-24" d="M181.75,187.49l.39-.61-.52-.17c.41.13.59.09.56-.15a2.34,2.34,0,0,1,0-.26c0-.23.1-.45.14-.67a6.76,6.76,0,0,0,.14-1.56,5.67,5.67,0,0,0-.71-2.73c-1.09-1.87-3.25-2.45-5.08-3.33a34.34,34.34,0,0,1-4.88-3,37.43,37.43,0,0,1-4.61-3.71c-.21-.19-.82.07-.6.29a39.34,39.34,0,0,0,4.9,3.92,31.25,31.25,0,0,0,5.34,3.16,11.5,11.5,0,0,1,3.59,2,5,5,0,0,1,1.4,3.58,7.86,7.86,0,0,1-.2,1.67c0,.21-.23.69-.1.91s.55.17.69-.06-.4-.26-.52-.17a2.68,2.68,0,0,0-.59.83c-.19.29.47.29.62.06Z"/><path class="cls-25" d="M180.39,186.74c2.09,2.92,1.57,7,1.11,10.3-.35,2.58-.68,5.15-1,7.73-.62,4.8-1.52,9.49-2.41,14.24,0,.21.45.13.48,0,.93-5,1.86-9.88,2.51-14.91.34-2.7.74-5.41,1.06-8.12.37-3.1.62-6.72-1.3-9.39-.1-.15-.57,0-.44.2Z"/><path class="cls-20" d="M149.09,141.16a.18.18,0,0,0,0,.07l.12-.14Z"/><path class="cls-7" d="M135.46,148.83c-4.6-6.24-8.38-16.06-9.66-22.59l4-16.23c8.15-2.7,8,8.87,8,8.87.21,2.84,5.55,18.09,7.22,23C140.84,143,138.34,145.6,135.46,148.83Z"/><path class="cls-7" d="M139.72,143.83a20.82,20.82,0,0,1,1.27-6.59l26.85-11.73,2.33,6s-16.54,16.37-26.61,19.44a16.14,16.14,0,0,1-2.31-.2C140.8,148.26,139.58,146.3,139.72,143.83Z"/><path class="cls-11" d="M142.49,100s-19.18,4.17-19,15.64a125.52,125.52,0,0,0,1.64,19s12.71-2,17.58-4.21S144.59,112,144.59,112"/><path class="cls-19" d="M141.65,130.89l1.88-.7c.07,0,.23-.09.21-.19-.53-3.16-1.21-6.31-2-9.41-1.08-4.07-2.26-8.87-6.55-10.65a9.18,9.18,0,0,0-3.88-.73c-.2,0-.7.33-.27.3a8.52,8.52,0,0,1,8,5.15,57.35,57.35,0,0,1,3.41,12.16c.23,1.12.45,2.24.64,3.36l.2-.18-1.88.7c-.43.16,0,.29.24.19Z"/><path class="cls-7" d="M129.78,138.53s2.4,7.82,4.18,10.27,5.9,3.12,7.9,2.73c7.13-1.37,12.9-6.91,12.9-6.91l-11.38-7.84Z"/><path class="cls-7" d="M69.94,266.88s13.74,8.62,18.41,9.75,5.82,2.53,5.82,2.53-8.31-11.32-13.61-15.51c-1.12-.89,12.64-37.5,19.23-59.61,3.81-12.79,4.3-19.29,4.3-19.29l-18.34-2.49L82,202.09l-1.76,3.38a52.48,52.48,0,0,0-3,6.85c-1.6,5.16-2.22,13.3-2.63,16-.69,4.63-1.37,10.27-1.57,11.91l-2,22.16Z"/><path class="cls-7" d="M70,262.42c.08,1.72-1.21,5.21-2,6.92-.9,2-.38,3.76,1.58,5.17a9.22,9.22,0,0,0,4.57,1.77c2.59.5,5.43.68,8,1.18,2.22.43,9.25,1.54,11.32,2.49a12.31,12.31,0,0,0,7,1.28c.45-.05.7,0,1-.25a1.82,1.82,0,0,0-.12-2.71c-1.2-1.26-3.13-.41-4.2-1.82a5.23,5.23,0,0,0-.59-.73,3.89,3.89,0,0,0-1.7-.63c-3-.71-2.45-2-6.09-4-1.07-.59-6.83-4.7-7.77-5.48"/><path class="cls-7" d="M60.34,266.38s18.11,12.73,22.89,13.25,3.39-2.13,3.39-2.13-13.27-11.86-14.27-14.21c-.54-1.28,12.06-39.45,16.12-58.22,2.83-13,4-23.52,4-23.52l-25.78-.13-1,19.17-1.3,3.58a51.61,51.61,0,0,0-2,7.19c-.91,5.32-.55,14.46-.59,17.22-.08,4.68,0,10.37,0,12l-.49,20.58Z"/><path class="cls-7" d="M61.36,260.17c-.12,2-2.74,6.18-3.76,10.29-.45,1.8-.66,2.75,1,4.39,2.94,2.9,7.79,2.91,9.21,3.52a51.69,51.69,0,0,1,6,2.67,20.3,20.3,0,0,0,6.75,2.65,2.55,2.55,0,0,0,1.37,0c.29-.11.53-.3.82-.4,1-.35,2.11.52,3.21.55a5.72,5.72,0,0,0,1.42-.25,22.87,22.87,0,0,1,3.81-.29,6.51,6.51,0,0,0,3.58-1,2.59,2.59,0,0,0,.9-3.22c-.91-1.65-2.48-1-4-1.41a8.51,8.51,0,0,1-3.28-1.6c-3.19-2.19-3.67-2.61-6.37-4.36a91.71,91.71,0,0,1-10.52-8.35l.65-5.47"/><path class="cls-20" d="M219.22,166.49h0v-.1Z"/><path class="cls-26" d="M71.45,113.09l.06,0,0,0Z"/><path class="cls-20" d="M242.35,99.79h0v-.1Z"/><path class="cls-20" d="M227.69,99a.08.08,0,0,1,0,0l-.08-.08Z"/><path class="cls-7" d="M270.91,164.41l4.67,8.36c1.71,3-.95-1.24.59,1.66,2.05,3.86-34.32,18.91-34.69,19.5,2.55,4,1.06,24.58,1.06,24.58L232.81,222s-9.51-35.33-7.17-39.15c2.52-4.12,16.64-13.76,28.62-17a7.16,7.16,0,0,0,2.25-1.5c5.88.15,12.69,0,14.4.08Z"/><path class="cls-7" d="M267.24,165.24l4,8.64c1.46,3.15-.86-1.3.45,1.69,1.76,4-34.26,6.64-34.68,7.21s-3.14,37-3.14,37l-5.59.56S216.38,184.65,219,181c2-6.65,19.4-12.74,31.57-15.29a7.09,7.09,0,0,0,2.34-1.37c5.84.49,12.63.76,14.33.93Z"/><path class="cls-27" d="M268.74,108.29a13.88,13.88,0,0,1-4.59,4.4c-1.94,1-4.2.89-6.32.69A21.8,21.8,0,0,1,246.35,109a17.26,17.26,0,0,1-6.26-10.77,23.86,23.86,0,0,1,.32-9.2c.1-.19.19-.38.29-.56,2.92-5.2,5.05-7.56,10.72-7.78,3.49-.18,6.52-.71,11.54,2,1.08.58,2.13,2,3.5,2.92,2.06,1.36,4.2,3.53,4.88,5.49,1.3,3.73.17,8.77-.12,13A21.15,21.15,0,0,1,268.74,108.29Z"/><path class="cls-7" d="M238.06,105.32a28.42,28.42,0,0,1,.94-5.8c.11-.77.24-1.67.41-2.74,0-.32.1-.62.15-.91a1.79,1.79,0,0,0,.09-.46c1.08-5.2,3.29-7.64,3.29-7.64a11.69,11.69,0,0,1,11.11-3.55,15.93,15.93,0,0,1,10.41,8,7.67,7.67,0,0,1,.65,5.4,31,31,0,0,1-1.78,4.9c1.7.21,3.25,1.1,2.1,4.11-1.6,4.14-4.4,5-5.71,3.51-.81.31-1.18,1.43-1.4,2.31a13,13,0,0,0,.12,6.23l-.13.48c-4.66,5.23-7.39,8.25-19.23,2.62l5-5.68.29-1.25a11.64,11.64,0,0,1-2-.66C238.65,112.48,237.94,107.31,238.06,105.32Z"/><path class="cls-3" d="M244.44,114.83a14.27,14.27,0,0,0,8.77-.83s-.37,1.29-3.5,1.82a12.13,12.13,0,0,1-5.41-.24Z"/><path class="cls-13" d="M261.49,105a.26.26,0,0,1,0-.08,3.75,3.75,0,0,1,1.27-1.41,3.37,3.37,0,0,1,.88-.41,3.44,3.44,0,0,1,1-.15,2.57,2.57,0,0,1,1.31.26l.21.14c1.8-3.45,3-7.27,1.16-12.25a14.5,14.5,0,0,0-2.85-3.8c-3.26-3.43-6.59-4.25-10.81-4.6-4.89-.4-10,1.86-11.94,6.51-.48,1.12-.36.14-.47,1.35a7.78,7.78,0,0,1,3.82-3.47c2.57-1,2.61,1.15,5.88,1.82,3.79.76,5.41-1.07,8.17,1.08,2.51,2,2.06,3,2.06,3a12.89,12.89,0,0,0,.53,2.12,6.23,6.23,0,0,1,.07,2.11,31.35,31.35,0,0,1-.65,4.31c-.23.88-.62,2,.13,2.77C261.58,104.64,261.06,105.05,261.49,105Z"/><path class="cls-12" d="M261.75,105c.58-1.49,2.78-2.47,4.19-1.52a.35.35,0,0,0,.46-.13,15.23,15.23,0,0,0,1.91-9.67,13,13,0,0,0-4.83-7.7c-4.45-3.84-12.13-4.81-17.31-2a11.18,11.18,0,0,0-3.65,3.22A7.27,7.27,0,0,0,241,90.58c0,.28.44.17.53,0a7.46,7.46,0,0,1,2.06-2.44,3.93,3.93,0,0,1,3.09-1.06,5.19,5.19,0,0,1,1.46.84A8.21,8.21,0,0,0,252,89.27c1.36.1,2.68-.19,4-.18a5.75,5.75,0,0,1,4.5,2.73,6,6,0,0,1,.5,2.1,9.57,9.57,0,0,1,.43,3.32c-.09,1-.2,2-.37,3s-.48,1.69-.56,2.55.55,1.45.48,2.15c0,.11.09.16.18.18l.17,0c.27,0,.55-.32.19-.39.19,0-.46-1.45-.45-1.39a6.65,6.65,0,0,1,.41-2.53,17.56,17.56,0,0,0,.53-5.2c-.11-1-.48-2-.6-3A3.93,3.93,0,0,0,260,90.4a5.84,5.84,0,0,0-3.17-1.67,26,26,0,0,0-3.63.17,8.36,8.36,0,0,1-5-1.49,3.41,3.41,0,0,0-2.17-.77c-2.12.16-4.15,2.06-5.08,3.88h.53a8,8,0,0,1,2.1-3.91,11,11,0,0,1,4.93-3.17,16.93,16.93,0,0,1,10.88.63,13.86,13.86,0,0,1,4.91,3.45A12.49,12.49,0,0,1,267,91.16c1.68,4.11.81,8.34-1.15,12.15l.46-.13c-1.67-1.12-4.4-.06-5.12,1.77C261.12,105.24,261.66,105.24,261.75,105Z"/><circle class="cls-12" cx="241.24" cy="98.52" r="1.04" transform="translate(-6.06 16.4) rotate(-3.85)"/><path class="cls-13" d="M239.93,97.47a2.83,2.83,0,0,1,2.06-.15c1.57.42,2.17,2.41,2.17,2.41a4.35,4.35,0,0,0-2.34-2,5.51,5.51,0,0,0-2.6.23C239.27,97.82,239.6,97.63,239.93,97.47Z"/><path class="cls-12" d="M264.61,106.69a2.44,2.44,0,0,0,.34-1.53c0-.13,0-.28-.17-.3a1.87,1.87,0,0,0-1.17.52,9.82,9.82,0,0,0-1.41,1.4c-.09.11.09.13.16.1a.51.51,0,0,1,.4-.07c.17.07.16.33.14.48a.93.93,0,0,1-1.09.69c-.11,0-.27.15-.1.16a1.23,1.23,0,0,0,1.44-.9c0-.22,0-.52-.26-.59a1,1,0,0,0-.64.1l.16.09a6.51,6.51,0,0,1,1.81-1.66l.23-.11.1,0h0s0,0,0,0h.06s0,0,0,0,0,0,0,0l-.05,0a2.06,2.06,0,0,1-.25,1.69c-.07.11.19.1.23,0Z"/><circle class="cls-14" cx="251.9" cy="100.48" r="1.04" transform="translate(-6.17 17.12) rotate(-3.85)"/><path class="cls-13" d="M248.9,100.66s1.9-1.82,3.63-1.38c2.43.63,2.44,1.14,3.25,2a9.48,9.48,0,0,0-3.37-1.63A5,5,0,0,0,248.9,100.66Z"/><path class="cls-28" d="M244.88,107.52c1.48.26,3.91.5,3.91.5s-.46,4.48-4.55,3.72c-3.43-.64-2.88-4.91-2.88-4.91S243.4,107.27,244.88,107.52Z"/><path class="cls-16" d="M244.86,107.52l3.34.54s-1.15,2.61-3.7,2.18a3.07,3.07,0,0,1-2.67-3.08Z"/><path class="cls-17" d="M244.79,107.78c.7.12,2.87.37,2.87.37a4.36,4.36,0,0,1-3,.25c-2.12-.36-2.67-1.2-2.67-1.2Z"/><path class="cls-28" d="M241.38,106.81c0-.08.17-.08.53,0,.59,0,.81-.13,1.24-.09a6.42,6.42,0,0,1,1.46.48,6.16,6.16,0,0,1,1.53,0c.41.1,1.43.43,2,.58a7.4,7.4,0,0,0,.85.06c.1,0-.31,1-4.25.28S241.36,106.91,241.38,106.81Z"/><path class="cls-18" d="M248.86,97.72s.11-.07.1-.1a11.33,11.33,0,0,1,3.79-1.32,3.56,3.56,0,0,1,1.28.19,5.63,5.63,0,0,1,1.35.56c.18.21-.65,0-.65,0a2.56,2.56,0,0,0-.47,0,9,9,0,0,0-2.75.33,12.24,12.24,0,0,0-2.36,1.48C249,98.47,249,98.09,248.86,97.72Z"/><path class="cls-18" d="M245.09,96.85s-.08-.09-.06-.12a8.78,8.78,0,0,0-2.91-2,3,3,0,0,0-1.16-.06,5,5,0,0,0-1.31.3c-.21.16.55.14.55.14a2.84,2.84,0,0,1,.42,0,6.91,6.91,0,0,1,2.28.82,10.09,10.09,0,0,1,1.64,1.85C244.74,97.53,244.86,97.18,245.09,96.85Z"/><path class="cls-27" d="M263.3,94.41s-7.93.59-13.82-1.94L249,88.8a23.92,23.92,0,0,0-.61,3.72L247,92.3a20.23,20.23,0,0,1,.61-3.72,18.23,18.23,0,0,0-1.73,3.54s-4.7-.62-5.13-1.08,4.69-6.09,7.47-6.13S262.41,85.85,263.3,94.41Z"/><path class="cls-12" d="M271.21,91.81c.08-1.87,1.42-4,3.28-3.77a4.6,4.6,0,0,1,1.3.42l1.86.81a5.94,5.94,0,0,1,1.59.9,4.07,4.07,0,0,1,1.23,3,12.35,12.35,0,0,1-.57,3.29c-.27,1-.68,2.13-1.66,2.42a8.31,8.31,0,0,1-1.8,0,12.47,12.47,0,0,0-1.58.37,4.45,4.45,0,0,1-4.7-2.1"/><path class="cls-18" d="M245.55,105.36a3.14,3.14,0,0,1-1.43,0,1.92,1.92,0,0,1-1-.48.79.79,0,0,1-.15-.92,3.73,3.73,0,0,1,.28-.38,4.6,4.6,0,0,0,.37-.6c0-.08-.15-.07-.18,0a5.88,5.88,0,0,1-.59.88.77.77,0,0,0-.13.7c.19.67,1,.87,1.55,1a3.34,3.34,0,0,0,1.3,0c.12,0,.09-.14,0-.11Z"/><path class="cls-18" d="M247.51,104.55c.31,0,.26.52.22.73a.62.62,0,0,1-.2.36.89.89,0,0,1-.62.1,3.31,3.31,0,0,1-.74-.34.16.16,0,0,0-.12,0s-.09,0-.06,0a3.42,3.42,0,0,0,.75.35,1.59,1.59,0,0,0,.75-.07.61.61,0,0,0,.39-.38,1.26,1.26,0,0,0,.06-.51.35.35,0,0,0-.27-.37.31.31,0,0,0-.13,0s-.07,0,0,0Z"/><line class="cls-29" x1="243.95" y1="120.38" x2="241.99" y2="120.08"/><path class="cls-30" d="M269.64,192.49a15.6,15.6,0,0,0,2.28-1.59c3-2.61,4.21-7.55,4.8-11.46a41.65,41.65,0,0,0-.37-13.73c-.9-4.73-3.64-9-3.55-13.9a.62.62,0,0,1,0-.13c-.38-1-.51-.6-.44-3.55a15.23,15.23,0,0,0-4.37,0c-2.12.36-4.22.86-6.33,1.28a55.59,55.59,0,0,1-6.55.84q-3.63.27-7.28.31c-1.64,0-7.09,1.16-8.73,1.13.84,4,1.15,7.84,2.71,10.14l-.22,2-3.46,9.83s7.44.12,11.89,3.57c2.08,1.61,4.7,5.63,5.33,5.5l2,2.53c.94,1.34,4.66,8.32,4.66,8.32A17.9,17.9,0,0,0,269.64,192.49Z"/><path class="cls-31" d="M233.68,122.43c1.82-2.35,10-5.93,10-5.93a3.88,3.88,0,0,0,2.46,5.24c1.67.18,10.07-.63,12.2-6.43,0,0,0,.52,4.29,2.23,7.07,2.83,9.16,11.06,9.46,14.24.2,2.05-.42,8.72-.5,14.34A25.37,25.37,0,0,0,266,147c-2.33.57-4.62,1.32-6.94,2-1.12.31-2.24.6-3.38.82a28.79,28.79,0,0,1-3.47.4c-2.53.17-5.07.34-7.6.34-1.34,0-4.08,1-5.42.89-.41-1.82-.84-3.5-1.56-6.74L236.44,139c-5.76-.37-7.9-4.06-7.9-4.06S231.86,124.79,233.68,122.43Z"/><path class="cls-30" d="M242.75,163.89c-2.34.46-5.84,3.77-8.17,4.23a25.09,25.09,0,0,0-10.84,5.21c-.2.19-.42.49-.29.74s.32.23.52.29c1.33.42,1.71,2.28,2.88,3.07s2.56.38,3.61,1.12,1.25,2.08,2,3a4.58,4.58,0,0,0,3.1,1.43c1.15.13-.17.2,1,.32.53.06,1.33,1.37,1.61,1.85a2.78,2.78,0,0,1,.39,1.55c0,.89-.25,2.62.45,3.12a15.54,15.54,0,0,0,2.27,1.14,1.57,1.57,0,0,1,.82.72,1.75,1.75,0,0,1,.08.76c0,.66-.28.78-.31,1.44,4.86.23,16.5-.33,21.36-.09,0,0,3.26-10.19-1.5-17.1S242.75,163.89,242.75,163.89Z"/><path class="cls-32" d="M236.64,138.76c-.24-1-.41-2-.61-3-.36-1.81-.75-3.61-1.2-5.4,0-.14-.5,0-.47.12q.67,2.69,1.21,5.4c.2,1,.36,2,.61,3.06,0,.13.49,0,.46-.13Z"/><path class="cls-31" d="M271.59,144.64a25.75,25.75,0,0,0,.65,4.59s-9.14,3.58-15.82,4.2a137,137,0,0,1-16.72,0l-1.15-4.26a101.06,101.06,0,0,0,18.2-.47A58.42,58.42,0,0,0,271.59,144.64Z"/><path class="cls-32" d="M271.26,144.73a16.9,16.9,0,0,0,.64,4.59l.23-.16a59.83,59.83,0,0,1-15.39,4.13,87.58,87.58,0,0,1-10.12.26c-1.4,0-2.79-.07-4.18-.13a10.8,10.8,0,0,1-2.28-.11c-.37-.1,0,.14-.18-.17a8.83,8.83,0,0,1-.36-1.34l-.74-2.72-.55.22c11.12.81,23.17.06,33.45-4.62.4-.19-.23-.15-.38-.08-10,4.57-21.79,5.23-32.63,4.44-.09,0-.6.08-.56.22l1.15,4.26s.1,0,.12,0a108.17,108.17,0,0,0,16.79,0,61.16,61.16,0,0,0,16.08-4.27s.25-.08.23-.15a16.53,16.53,0,0,1-.65-4.59C271.92,144.45,271.24,144.56,271.26,144.73Z"/><path class="cls-7" d="M255.13,150.26l-.07.09-21,5.08.06,4.92s19.48,2.35,27.16-.42c0,0,.51-.44.55-.46C261.19,156,258.08,152.19,255.13,150.26Z"/><path class="cls-7" d="M253.46,150.58a15.36,15.36,0,0,1,5.14,2.85c1.41,1.15,2.28,4.45,3.22,6,2.63-3.68,6.33-16.19,7.26-22.38l-4.21-13.66c-7-2-6.45,7.8-6.45,7.8C258.35,133.68,254.63,146.56,253.46,150.58Z"/><path class="cls-32" d="M266.66,143.12c.77-.14,2-.1,2.51-.78a7.66,7.66,0,0,0,.87-1.77,18.92,18.92,0,0,0,.72-2.08,17.89,17.89,0,0,0,.22-8.42c0-.09-.48,0-.46.12a17.7,17.7,0,0,1,0,7.53,17.35,17.35,0,0,1-1.14,3.44c-.26.58-.48,1.29-1.12,1.53a9.24,9.24,0,0,1-1.5.28c-.18,0-.42.21-.09.15Z"/><path class="cls-31" d="M268.17,142.81c-5.25,1-10.43-1.64-15.14-4.16a3.5,3.5,0,0,1-1.15-.82c-.79-1-.36-2.41.1-3.57a42.17,42.17,0,0,1,4.13-8.52,14.37,14.37,0,0,1,7.26-5.82,1.94,1.94,0,0,1,.82-.11,1.75,1.75,0,0,1,.79.4c2.46,1.9,3.45,5.12,4,8.17.9,4.65,1.19,9.54-.26,14"/><path class="cls-32" d="M256.6,140.12a4.69,4.69,0,0,1-2.17-.94,2,2,0,0,1-.48-.32c-.27-.42-.07-1.22,0-1.66a49.11,49.11,0,0,1,1.36-6.46,41.34,41.34,0,0,1,1.52-4.43,6,6,0,0,1,5.32-4c.13,0,.5-.2.2-.19a6.68,6.68,0,0,0-5.18,2.7,19.19,19.19,0,0,0-2.05,5.15,39.36,39.36,0,0,0-1.7,7.89c-.09,1,0,1.15.72,1.61a4.83,4.83,0,0,0,2.16.89c.11,0,.53-.2.3-.2Z"/><path class="cls-7" d="M242.27,217.62a36,36,0,0,0,3.21,6.16c.59.78,2.17,1.66,1.29,2.64-1.56,1.72-4.34,2.09-5.22,2.55-1.85,1-3.48,1.49-5.18,2.56a16.5,16.5,0,0,1-4.2,2.1,2.44,2.44,0,0,1-.93.18c-.21,0-.4-.07-.61-.08-.75,0-1.36.52-2.11.67a5.61,5.61,0,0,1-1,.07,21.73,21.73,0,0,0-2.64.36,6.44,6.44,0,0,1-2.59,0c-.79-.22-1.36-.79-1.11-1.38.37-.88,1.53-.79,2.49-1.17a6.25,6.25,0,0,0,2-1.16c1.84-1.43,2.1-1.68,3.68-2.84a67.94,67.94,0,0,0,5.54-5.75l-1.24-4.42"/><path class="cls-3" d="M230.4,233.67a.53.53,0,0,1-.46-.34.59.59,0,0,1,.12-.54,4.93,4.93,0,0,1,1.09-.95c.08-.06.06-.14,0-.16a.46.46,0,0,0-.34.09c-.23.18-.46.34-.67.52a2.14,2.14,0,0,0-.57.63.63.63,0,0,0,0,.65.8.8,0,0,0,.8.34c.08,0,.26-.06.28-.15s-.15-.1-.2-.09Z"/><path class="cls-3" d="M228.22,234.35a.3.3,0,0,1-.28,0,.88.88,0,0,1-.24-.27.85.85,0,0,1-.11-.64,1.83,1.83,0,0,1,.78-.78,3.82,3.82,0,0,1,.93-.63c.08,0,.24-.09.21-.19s-.21-.09-.28-.07a3.41,3.41,0,0,0-1,.6,5.78,5.78,0,0,0-.86.69.93.93,0,0,0-.29.75,1.16,1.16,0,0,0,.3.63.86.86,0,0,0,.91.22c.08,0,.24-.09.21-.2s-.21-.08-.28-.06Z"/><path class="cls-3" d="M226.66,234.48a.81.81,0,0,1-.74-.47.79.79,0,0,1,.11-.74,2.75,2.75,0,0,1,.68-.68,6.1,6.1,0,0,1,.86-.57c.07,0,.14-.12.05-.17a.41.41,0,0,0-.34.05,6.41,6.41,0,0,0-1,.67,2.93,2.93,0,0,0-.75.82.81.81,0,0,0,0,.86,1.06,1.06,0,0,0,1,.48.42.42,0,0,0,.33-.12c.05-.1,0-.14-.13-.13Z"/><path class="cls-3" d="M225.1,234.79a1.43,1.43,0,0,1-1.14-.53.65.65,0,0,1,.06-.84,3.91,3.91,0,0,1,.86-.76l.43-.29.23-.15.15-.1s.12-.07.08-.06.25-.06.23-.13-.23,0-.26,0a3.38,3.38,0,0,0-1,.54,7.16,7.16,0,0,0-.83.62,1.91,1.91,0,0,0-.57.69.68.68,0,0,0,.21.74,1.68,1.68,0,0,0,1.19.44.67.67,0,0,0,.34-.09c.08,0,.08-.09,0-.09Z"/><path class="cls-7" d="M234,218.42c.77.68,1.16,1.09,1.91,1.73s.8,1.64-.26,2.65a13.33,13.33,0,0,1-3.51,2.27c-1.61.7-3.42,1.31-5,2a76.68,76.68,0,0,0-7,3.22,11.23,11.23,0,0,1-4.35,1.88c-.3.06-.45.14-.66.06-.55-.21-.79-.63-.32-1.26.59-.8,2-.77,2.46-1.61a2.27,2.27,0,0,1,.27-.44,3.26,3.26,0,0,1,1-.6c1.82-.87,1.3-1.37,3.36-3,.61-.47,5.18-7.39,5.67-7.92"/><path class="cls-3" d="M219.24,228.2a6.68,6.68,0,0,0-1.44,1.52,2.74,2.74,0,0,0-1.44.37,2.2,2.2,0,0,1,1.4-.52l-.08.07a4,4,0,0,1,1.56-1.44Z"/><path class="cls-25" d="M227.05,177.58a9.67,9.67,0,0,0-3.07,5.84,22.92,22.92,0,0,0,.37,6,69.45,69.45,0,0,0,2.7,10c1.83,5.79,3.81,11.53,5.79,17.27.33,1,.66,1.92,1,2.89a5.79,5.79,0,0,1,.56,1.9,8.09,8.09,0,0,1-1.11,1.87l-.9,1.52c-.13.21.37.2.46,0,.61-1,1.26-2,1.83-3.08.46-.84-.23-2-.51-2.85-1.24-3.75-2.63-7.46-3.88-11.21-1.79-5.39-3.67-10.83-5-16.36a32.71,32.71,0,0,1-.84-5.74,9.71,9.71,0,0,1,3-7.93c.21-.21-.26-.26-.39-.12Z"/><path class="cls-3" d="M252.93,150.67a4,4,0,0,1,3.09,1.51c.09.11.56-.06.46-.18a4.29,4.29,0,0,0-3.35-1.57.41.41,0,0,0-.32.13c-.06.09.05.11.12.11Z"/><path class="cls-33" d="M17.65,143.27s-18.57,25.33-6,45.46c4.56,9.29,33.9,6.6,33.9,6.6l-1.69-16.26L65.3,150Z"/><path class="cls-33" d="M69,194.8c.58,3.83,1,7.89,1.36,12.07.32.06-.92,2-.59,2.07,11.52,1.84,21.86,3.37,33,0,1.23-7.05,3.19-16.59,4.1-22.3,2.38-14.91.7-21.8-5.94-25.54-10-5.65-64-10.63-72.93-8.41C22.3,154.1,65.13,169.37,69,194.8Z"/><path class="cls-33" d="M96.91,195.67c.31-1.44.68-2.86,1.1-4.25a65,65,0,0,1,3.57-9.13,65.67,65.67,0,0,1,4.9-8.62c1.24-1.85-5.66-5.21-4.22-6.86-25.93-8.8-73.08-8.69-73.08-8.69S7.47,162,11.53,181.68c3.89,18.8,62.59,13.71,85.09,14.06A1.53,1.53,0,0,0,96.91,195.67Z"/><path class="cls-33" d="M59.23,207.27c3.65.53,7.9,1.44,11.55,2,7,1.12,14.67-.2,21.67-.37,4.63-22.47,8.46-41.44,8.46-41.44a31.8,31.8,0,0,0-7.3.2,23.38,23.38,0,0,0,.85-3.9c-.43-.5-.89-1-1.37-1.54a45.28,45.28,0,0,0-7,3.55,58.19,58.19,0,0,0-7.48,5.53,54.87,54.87,0,0,0-6.42,6.59c-.56.68-7.29.47-7.81,1.19.07,0-.56,4.5-.49,4.51C60.23,189.14,58.85,198.56,59.23,207.27Z"/><path class="cls-34" d="M47,38.1s-4.69,13.21-.07,20.76,23.79,14,29.9,10.74S86.9,51.36,83.89,47.91,47,38.1,47,38.1Z"/><path class="cls-34" d="M46.11,48.76s-5.28,2-6.64,7.16,1.44,9.94,7.8,12.73,15.94,3.2,17-.47,3-9.44.06-12S46.11,48.76,46.11,48.76Z"/><path class="cls-7" d="M56.4,55.42s.56,8.92-3.32,14.67c-.55.81-6,2-6,2l4,4.21c3.27,3.42,8.94,8.86,13.64,9.42,2.67.32,6.64-1.3,8.88-1.57l1.74-5.45L70.67,75c0-1.14,2-8.84,2-8.84"/><path class="cls-35" d="M82.92,115.66C83.2,125,79.49,127,79.49,127c-1.17,2.39-5.38,3-6.66,5.32-.76,1.36-3.26,15.53-2.53,22.52a68.82,68.82,0,0,1-27.51,2,204.91,204.91,0,0,1-30.95-6.4c5.37-14.87,12.63-21.17,12.63-21.17l2.41-20.63L25.18,86.6C27.39,78.14,35.9,73.89,44,72.13l8.63-1.7s3.44,11.94,13.75,12.3,4.86-7.31,4.86-7.31,10.33,4.87,12.39,7.2S90,91,90.43,97.85a55.08,55.08,0,0,0,2.66,13.57c.38,1.2-10.19,2.55-10.19,2.55"/><path class="cls-7" d="M37.55,83.53c2.51,1.14,2.48,7,2.48,7,2.87,11.9-5.22,42.7-5.22,42.7l31.07,18.48-.13,6.84c-12.19-1.8-27.33-3.74-41.55-10.13-4.71-2.12-5.66-7.26-5.92-13-.16-3.45,4.24-31,4-32.57a48.43,48.43,0,0,0,2.77-12.4C25.86,82.78,32.59,81.29,37.55,83.53Z"/><path class="cls-7" d="M63.73,151.21l1.1,4.67-.7,2.42s7.11,2.13,8.9,1.78,6.1-.66,6.1-.66a2.35,2.35,0,0,0,0,1.63,2.32,2.32,0,0,0,1.39,1.23l1.65-3c.62,1.25,1.73.18,1.73.18l1.16-2.59c.7,1.59,2.17.22,2.17.22l.5-3.53a5.53,5.53,0,0,0,1.72,1.27c.84.3,1-1.09,1-1.09L87,148.62l-8.41-1.74-13,4.28Z"/><path class="cls-3" d="M81.77,148.85a15.93,15.93,0,0,1,2.12.6,14.48,14.48,0,0,1,2,.84c.54.28,1.31.63,1.48,1.28a7.8,7.8,0,0,1,.15,1.08,3.67,3.67,0,0,1-.09,1.19c-.06.24.44.18.49,0a3.57,3.57,0,0,0,.09-1.17,6.81,6.81,0,0,0-.16-1.19c-.18-.71-.91-1.07-1.5-1.38a13.49,13.49,0,0,0-2.14-.91,18.6,18.6,0,0,0-2.32-.66c-.24-.05-.49.29-.17.36Z"/><path class="cls-3" d="M80.32,152.09c.55.15,1.11.27,1.67.4a12,12,0,0,1,2,.6,1.44,1.44,0,0,1,.77.71,5.17,5.17,0,0,1,.36.95,3.21,3.21,0,0,1,.09,1,3.91,3.91,0,0,1-.33,1.07c0,.11.43.06.48-.07a5.37,5.37,0,0,0,.33-1,2.76,2.76,0,0,0-.08-1.07,4.45,4.45,0,0,0-.37-1,1.17,1.17,0,0,0-.68-.7,9,9,0,0,0-2-.64c-.61-.15-1.23-.28-1.83-.44a.45.45,0,0,0-.34.06s-.17.11-.06.14Z"/><path class="cls-3" d="M79.29,156.06c.52,0,1,0,1.55,0a2.3,2.3,0,0,1,1.51.57,1.48,1.48,0,0,1,.32,1.44,2.58,2.58,0,0,1-.43.82,2.2,2.2,0,0,1-.2.23l-.05,0h0s.16-.05.14-.05-.26.07-.27.19.13.15.22.13c.38-.06.66-.54.83-.84a1.88,1.88,0,0,0,.19-1.76c-.49-1-1.69-1.11-2.67-1.12l-1,0a.36.36,0,0,0-.32.14c-.05.1,0,.18.14.18Z"/><path class="cls-3" d="M34.73,133.28a6,6,0,0,0-3.45,1.54A8,8,0,0,0,29.55,138c0,.11.44.06.49-.08a8.19,8.19,0,0,1,1.54-3,4.84,4.84,0,0,1,3.07-1.46c.06,0,.28-.06.28-.15s-.14-.07-.2-.07Z"/><path class="cls-35" d="M43.16,72.24S30.38,74.9,26,81.59s-6.37,22.46-6.37,22.46,15.12,4.16,23.33,3.18S43.16,72.24,43.16,72.24Z"/><path class="cls-36" d="M37.36,79c2.84.38,5,3.12,6.09,5.61a23.66,23.66,0,0,1,1.92,7.88c.3,5.21-1.36,10.41-2,15.55l.47-.25-2.61-.28c-.3,0-.71.38-.26.43l2.62.28c.14,0,.44-.07.47-.25.65-5.5,2.47-11.09,1.88-16.67-.51-4.74-2.78-12-8.36-12.74-.3,0-.71.37-.25.44Z"/><path class="cls-35" d="M78.34,79.24s8.34,3.25,8.31,16.35.67,16.15.67,16.15L75,112.9Z"/><path class="cls-34" d="M92.36,42.82S95.29,27.23,82.79,25a24.1,24.1,0,0,0-17-4.6c-10.11,1.18-17.07,6.87-20.23,24.2S92.36,42.82,92.36,42.82Z"/><path class="cls-34" d="M52.06,43.35c1.35,4.45,5.1,8,9.34,10.28s9,3.45,13.69,4.62l5.79.93c3.13-2.53,6.34-3.94,8.42-7.33a30.85,30.85,0,0,0,3.12-9.41c.52-3.16-.92-7.18-2.07-10.21a11.92,11.92,0,0,0-5.39-6c-2.43-1.42-3.74-2.57-7.4-3.53a22,22,0,0,0-18.22,3.07C53.89,29.42,50.18,37.14,52.06,43.35Z"/><path class="cls-3" d="M71.1,73.31a22.35,22.35,0,0,0-2.71-1.46c-1.31-.57-3.67-.84-9.25-6.95,0,0,1,6.63,8.82,9.2a6.66,6.66,0,0,0,2.81.51Z"/><path class="cls-7" d="M89.29,43.09A11.66,11.66,0,0,1,89,48c-.71,2.66-1.76,5.6-2.11,6.74a25.48,25.48,0,0,0-.72,3.66,12,12,0,0,1-1.54,5.23,15.71,15.71,0,0,1-3.6,4.9A34.81,34.81,0,0,1,74.78,73c-1.42.88-1.69,1-4.89.27A17.45,17.45,0,0,1,59,64.93L56.47,59.1l0-2.34c-3,1.93-3.7-2.2-3.44-2.89-.5-1.71-2.19-7.6.26-9.17l.2-.2c1-.53,2.14-.45,2.54.87.11.56.27,1.09.37,1.65a14.56,14.56,0,0,0,.92,2.51,35.54,35.54,0,0,0,1.34-4.27c.25-1.4,2.1-5.17,4.91-6.57,0,0,1.07-4.87,2.47-6.07l.42-.06c.22.06.36.17.59.22,0-.07,0-.16,0-.31a2.44,2.44,0,0,0,1,.31c0-.09-.19-.2-.17-.27a3.89,3.89,0,0,0,.91.21c-.06-.09-.18-.27-.16-.34.34.23.6.14.91.21a.61.61,0,0,1-.09-.33,2,2,0,0,0,.89.29c0-.09-.1-.25-.15-.34.34.23.6.14.9.21.08,0-.11-.18-.1-.25a2.94,2.94,0,0,0,.74.25c0-.07-.11-.18-.1-.25a2.29,2.29,0,0,0,1,.23l-.16-.34a1,1,0,0,0,.87.35.86.86,0,0,1-.16-.34,1.47,1.47,0,0,0,1.18.43c-.08,0-.18-.27-.16-.34a1.47,1.47,0,0,0,1,.47c-.06-.09-.1-.26-.22-.44a1.54,1.54,0,0,0,1.39.56c-.07,0-.1-.21-.09-.3s0-.15.15-.15c0,0,.8.5.82.43.25.29-.51-1.42-.13-1.33,0-.16,2.14.65,2,.46.31.38.27.22.74.25,0,0,1.37,1.24,1.31,1.15a.48.48,0,0,0,.35.26S86.6,39.4,89.29,43.09Z"/><path class="cls-37" d="M54.88,55.85a1.81,1.81,0,0,0-2,1.27,1.6,1.6,0,0,0,.22,1.22,1.36,1.36,0,0,0,.53.45,1.85,1.85,0,0,0,1.56.07s.12-.06.09-.12-.18,0-.22,0a1.42,1.42,0,0,1-1.47-2.36A1.29,1.29,0,0,1,54.68,56a.31.31,0,0,0,.23-.06c.05-.05.05-.1,0-.11Z"/><path class="cls-18" d="M64.51,38.11l-1.66,2.34a35.08,35.08,0,0,0-4.51,8.86l-.3.9a.28.28,0,0,1-.53,0L56.4,47S58.36,37,64.51,38.11Z"/><path class="cls-12" d="M55.13,48.93c-.67.13-1.06.81-1.28,1.4a3.29,3.29,0,0,0-.22,1.76c.08.49.4,1.62,1.1,1.52s.7-.76.65-1.24a8,8,0,0,1-.12-1c0-.41.27-.38.61-.3.09,0,.24-.06.22-.17a17,17,0,0,0-.87-3.29c-.2-.52-.48-1.12-1.09-1.24-.78-.16-1.25.65-1.45,1.28a4.67,4.67,0,0,0,.09,2.84c0,.15.38.06.33-.09a4.53,4.53,0,0,1-.23-2c.06-.58.47-2.22,1.37-1.66A2.51,2.51,0,0,1,55,48.1a16.16,16.16,0,0,1,.5,1.81c.09.36.16.73.23,1.1l.23-.16c-.4-.09-1-.09-1.05.4a7,7,0,0,0,.12,1.43c0,.21,0,.57-.28.66s-.53-.43-.61-.62A2.92,2.92,0,0,1,54,50.79c.17-.6.49-1.5,1.17-1.63.21,0,.15-.27-.06-.23Z"/><path class="cls-34" d="M57.72,32.93c1.43-5.57,10.71-5.47,15.48-5,3.07.41,7.34,3.94,9.83,5.81.91-.68-8.12,6.81-25,7l-.5,4.1A30.79,30.79,0,0,1,57.72,32.93Z"/><path class="cls-18" d="M80.41,53.64a7.26,7.26,0,0,1,3.13-1.26,5.46,5.46,0,0,1,4.19,1.86,10.81,10.81,0,0,0-4.18-1.17A13.14,13.14,0,0,0,80.41,53.64Z"/><path class="cls-18" d="M71.11,49.22A1.47,1.47,0,0,0,69.7,49a1,1,0,0,0-.43.44,1.13,1.13,0,0,0,.06,1.07,1.05,1.05,0,0,0,1.14.45,1.19,1.19,0,0,0,.84-1.22c0-.08.11-.23-.2-.48"/><path class="cls-18" d="M85.55,53.15a1.47,1.47,0,0,0-1.41-.2,1,1,0,0,0-.43.44,1.13,1.13,0,0,0,.05,1.06,1.06,1.06,0,0,0,1.15.46,1.17,1.17,0,0,0,.83-1.22c0-.09.12-.23-.19-.48"/><path class="cls-18" d="M73.72,51.63s-1.38-2.71-3.4-3.21a24.13,24.13,0,0,0-4.93-.54l4.75,1.21C71.17,49.37,73.72,51.63,73.72,51.63Z"/><path class="cls-18" d="M75.92,47.08s-.17-.12-.15-.16A24.25,24.25,0,0,0,70,44.15,6.64,6.64,0,0,0,68,44a9.67,9.67,0,0,0-2.13.29c-.29.21,1,.23,1,.23a6.09,6.09,0,0,1,.73.1,18.43,18.43,0,0,1,4.22,1.22,23.7,23.7,0,0,1,3.55,2.54A13.78,13.78,0,0,1,75.92,47.08Z"/><path class="cls-18" d="M89.34,50.87l0-.15h0A7.86,7.86,0,0,0,88.23,50a24.5,24.5,0,0,0-6-1.58l-.39,1.17a15.87,15.87,0,0,1,3.42.5,23.37,23.37,0,0,1,3.95,1.29c.06-.1,0,0,0-.11a2,2,0,0,0,.08-.22C89.33,51,89.34,50.93,89.34,50.87Z"/><path class="cls-16" d="M74.21,63.7l-5.06-1.38s.65,3.86,4.15,4.79a4.47,4.47,0,0,0,5.32-2.32Z"/><path class="cls-17" d="M74.21,63.86c-1-.26-3.86-1.22-3.86-1.22S71.12,64,74,64.78s4.1,0,4.1,0Z"/><path class="cls-18" d="M79.62,58.58c0,.36.07.72.09,1.08s0,.46,0,.7a2,2,0,0,1,0,.49c-.14.5-.89.54-1.3.52a7.09,7.09,0,0,1-1.59-.22A4.55,4.55,0,0,1,75,60.41c-.09-.07-.28.05-.17.13a4.37,4.37,0,0,0,1.7.73,9.31,9.31,0,0,0,1.82.28,1.83,1.83,0,0,0,1.41-.41c.29-.32.2-.78.18-1.17s-.07-1-.11-1.45c0-.11-.24-.06-.23.06Z"/><path class="cls-18" d="M73.65,58.35a1.22,1.22,0,0,0-.72.14,1,1,0,0,0-.45.59.75.75,0,0,0,.12.76,1.74,1.74,0,0,0,.72.42,3.23,3.23,0,0,0,1,.24.26.26,0,0,0,.17,0s0,0,0,0a3.42,3.42,0,0,1-1-.25,1.45,1.45,0,0,1-.73-.48.87.87,0,0,1,0-.84.68.68,0,0,1,.66-.4.47.47,0,0,0,.17,0s.09-.06,0-.06Z"/><path class="cls-36" d="M83.76,104.59c-1.93,2.07-1.42,5-1.29,7.54a36.72,36.72,0,0,1-.21,7.7,13.8,13.8,0,0,1-3.57,7.6c-1.56,1.59-3.67,2.66-5.5,3.94-.37.26.17.53.46.33A41,41,0,0,0,79,127.88a13.57,13.57,0,0,0,3.62-6.65,29.11,29.11,0,0,0,.57-7.79c-.11-2.79-1-6.4,1.11-8.63.29-.32-.35-.46-.58-.22Z"/><path class="cls-38" d="M69.77,62.57s2.26.62,4,1.25,3.87,1.55,3.87,1.55.81-1.05-2.36-2.18A11,11,0,0,0,69.77,62.57Z"/><path class="cls-39" d="M74.6,63.36c-2.14-.74-6.07-1.89-6.07-1.89s-.85,5.82,4.11,7.53,7.23-4,7.23-4S76.74,64.1,74.6,63.36Z"/><path class="cls-16" d="M74.62,63.37l-5.33-1.86s.29,4.22,4,5.49a5,5,0,0,0,6-2.13Z"/><path class="cls-17" d="M74.61,63.54c-1-.35-4-1.59-4-1.59s.72,1.54,3.77,2.59,4.41.26,4.41.26Z"/><path class="cls-39" d="M80.05,64.94a5.6,5.6,0,0,1-.83-.32c-.81-.45-1.1-.9-1.69-1.16a9,9,0,0,0-2.28-.39,9,9,0,0,0-2-1.09c-.62-.16-2.07-.16-2.94-.37-.52-.13-1.74-.38-1.85-.39s.28.78,6,2.74S80.18,65,80.05,64.94Z"/><path class="cls-3" d="M85.64,211c-3.65,14.22-7,28.51-10.59,42.74-.61,2.43-1.24,4.86-1.68,7.33a8.5,8.5,0,0,0,0,3.1,3.53,3.53,0,0,0,.52,1.77,9.44,9.44,0,0,0,1.31,1l2.41,1.87c2.08,1.59,4.17,3.16,6.31,4.66a40,40,0,0,0,6.19,3.86c1.82.82,6-.22,5.51,2.9,0,.16.47.07.49-.07.42-2.77-2.65-2.45-4.41-2.64s-3.53-1.68-4.91-2.58c-4-2.63-7.8-5.55-11.55-8.5a5.16,5.16,0,0,1-1-.82,7.45,7.45,0,0,1-.55-3.35c0-2.3.9-4.75,1.44-7q2-8.37,4.11-16.75c2.26-9.22,4.53-18.45,6.89-27.65,0-.15-.45-.08-.48.07Z"/><rect class="cls-40" x="-1.16" y="162.81" width="295.12" height="23.18" transform="translate(292.81 348.8) rotate(180)"/><polygon class="cls-40" points="15.62 165.66 -1.16 165.66 -1.16 283.94 4.83 283.94 15.62 165.66"/><polygon class="cls-40" points="277.19 165.72 293.96 165.72 293.96 283.99 287.98 283.99 277.19 165.72"/><rect class="cls-41" x="-6.19" y="159.57" width="305.26" height="6.24"/><polygon class="cls-42" points="191.84 128.32 207.19 128.32 205.36 147.03 193.56 146.89 191.84 128.32"/><path class="cls-12" d="M191.49,128.36H206c.15,0,.63-.09.74,0s0,.06-.05.23c-.12.86-.17,1.75-.25,2.62l-.9,9.22-.65,6.6.34-.14-6-.07-4.07,0H194c-.16,0-.51-.07-.45,0a4.15,4.15,0,0,1-.12-1.37l-.31-3.28-.78-8.43-.5-5.48c0-.08-.43,0-.42.11l1.51,16.26.21,2.3s.06,0,.08,0l11.8.14c.08,0,.32,0,.34-.14l1.59-16.35.23-2.35s-.07,0-.07,0H191.75C191.66,128.19,191.29,128.36,191.49,128.36Z"/><polygon class="cls-42" points="108.28 140.92 123.64 140.92 121.81 159.63 110 159.49 108.28 140.92"/><path class="cls-12" d="M108.15,141h14.57c.14,0,.62-.08.73,0s0,.06,0,.23c-.12.87-.17,1.76-.25,2.63l-.9,9.22-.65,6.6.34-.14-6-.07-4.07,0-1.23,0c-.16,0-.51-.07-.44,0-.17-.23-.1-1.09-.13-1.37l-.3-3.28L109,146.3l-.51-5.49c0-.07-.42,0-.41.11l1.51,16.27.21,2.3s.06,0,.07,0l11.81.14c.08,0,.32,0,.34-.14l1.59-16.35.23-2.36s-.07,0-.07,0H108.42C108.33,140.78,108,141,108.15,141Z"/><path class="cls-43" d="M120.42,148.64a11,11,0,0,1-2.43-.79c-1.51-.54-2.88.72-4.42.44-.79-.15-1.48-.57-2.26-.75a2,2,0,0,0-1.18.06l1,10.64,9.61.11,1-9.74A4.36,4.36,0,0,1,120.42,148.64Z"/><path class="cls-44" d="M154.1,155.09a5.61,5.61,0,0,1-2.2,0,5.33,5.33,0,0,1-1.25-.6c-.53-.33-1.05-.67-1.56-1a.15.15,0,0,1-.09-.14c0-.06.07-.1.13-.12a5.09,5.09,0,0,1,4.11.62,1.34,1.34,0,0,1,.79.89"/><path class="cls-44" d="M153.32,155.69a5.47,5.47,0,0,1-2,.86,5.4,5.4,0,0,1-1.39-.06c-.62-.09-1.23-.2-1.84-.33-.06,0-.13,0-.14-.1s0-.12.07-.16a5.08,5.08,0,0,1,4-1.06,1.32,1.32,0,0,1,1.08.51"/><path class="cls-44" d="M157.72,156.18A5.67,5.67,0,0,1,158,154a5.32,5.32,0,0,1,.77-1.16c.4-.48.81-.95,1.24-1.4,0,0,.09-.09.15-.08a.18.18,0,0,1,.1.15,5,5,0,0,1-1.17,4,1.34,1.34,0,0,1-1,.66"/><path class="cls-45" d="M158.82,156.07a3.74,3.74,0,0,1,.24-2.19,2.45,2.45,0,0,1,1.77-1,12.34,12.34,0,0,1,1.34-.19,3.27,3.27,0,0,1,2.79.78,2.68,2.68,0,0,1,.63,2.11,1,1,0,0,1-.13.42.91.91,0,0,1-.5.32,8.63,8.63,0,0,1-2.68.25l-2.3,0c-.34,0-.75-.07-.86-.44"/><path class="cls-45" d="M151.6,156.07a3.74,3.74,0,0,1,.24-2.19,2.45,2.45,0,0,1,1.77-1,12.52,12.52,0,0,1,1.35-.19,3.26,3.26,0,0,1,2.78.78,2.68,2.68,0,0,1,.63,2.11,1,1,0,0,1-.13.42.87.87,0,0,1-.5.32,8.63,8.63,0,0,1-2.68.25l-2.3,0c-.34,0-.75-.07-.86-.44"/><path class="cls-46" d="M166.26,155.82a2.82,2.82,0,0,1-.17-1.43,1.22,1.22,0,0,1,1.09-.95,1,1,0,0,0,.43-.06c.18-.1.18-.33.22-.51.1-.47.64-.79,1.17-1a8.15,8.15,0,0,0,1.58-.53c.73-.43,1.18-1.3,2.07-1.37s1.42.57,2.19.73,1.84-.2,2.57.21c.41.24.61.66,1,1s.7.41,1,.67a2.84,2.84,0,0,1,.68,2.56.51.51,0,0,1-.14.39.78.78,0,0,1-.51.11l-13-.18"/><path class="cls-47" d="M178.64,155a5.71,5.71,0,0,1,2.16-.33,5.16,5.16,0,0,1,1.34.39c.57.24,1.14.49,1.7.77,0,0,.11.07.12.13s-.06.1-.11.14a5.11,5.11,0,0,1-4.16,0,1.32,1.32,0,0,1-.92-.76"/><path class="cls-44" d="M179.3,154.29a5.59,5.59,0,0,1,1.86-1.16,5,5,0,0,1,1.38-.17c.62,0,1.25,0,1.87,0a.16.16,0,0,1,.16.07c0,.05,0,.12,0,.17a5.09,5.09,0,0,1-3.8,1.7,1.31,1.31,0,0,1-1.14-.34"/><path class="cls-44" d="M164,156.06a5.61,5.61,0,0,1,1.07-1.91,5.12,5.12,0,0,1,1.14-.81c.54-.3,1.09-.59,1.66-.86.05,0,.12,0,.17,0s0,.11,0,.17a5.08,5.08,0,0,1-2.53,3.3,1.3,1.3,0,0,1-1.17.25"/><path class="cls-44" d="M164.27,155a5.69,5.69,0,0,1,.32-2.17,4.88,4.88,0,0,1,.77-1.16c.39-.48.81-.94,1.23-1.4,0,0,.1-.09.16-.07s.08.09.1.15a5.12,5.12,0,0,1-1.17,4,1.33,1.33,0,0,1-1,.65"/><polygon class="cls-38" points="183.55 159.5 145.47 159.5 144.16 157.2 184.86 157.2 183.55 159.5"/><path class="cls-12" d="M183.56,159.36H148.42c-.87,0-1.76,0-2.64,0-.37,0-.16,0-.2,0a12.55,12.55,0,0,1-1.26-2.2l-.18.22H181.6a22.74,22.74,0,0,0,2.86,0c.54-.07.13,0,.19-.11-.38.77-.85,1.5-1.27,2.25-.11.18.26.19.34.05l1.31-2.31c.06-.11-.08-.16-.16-.16h-40.7c-.11,0-.24.1-.18.22l1.31,2.3a.17.17,0,0,0,.15.06h38.09C183.75,159.64,183.81,159.36,183.56,159.36Z"/><rect class="cls-38" x="140.85" y="155.58" width="46.61" height="1.62" rx="0.81"/><path class="cls-12" d="M186.72,157.11H143.43a7.58,7.58,0,0,1-1.65,0,.73.73,0,0,1-.1-1.45,2.36,2.36,0,0,1,.65,0h41.88a11.77,11.77,0,0,1,2.14,0c.61.11,1.7,1.18.33,1.46-.15,0-.31.2-.06.15,1.23-.24,1.32-1.69,0-1.78-.72,0-1.45,0-2.17,0H147.94c-2,0-4.11-.17-6.13,0-1.18.1-1.62,1.58-.22,1.79a9.89,9.89,0,0,0,1.44,0h35.85c2.44,0,4.9.11,7.34,0h.35C186.68,157.28,187,157.11,186.72,157.11Z"/><polygon class="cls-38" points="89.71 159.83 51.63 159.83 50.32 157.52 91.02 157.52 89.71 159.83"/><path class="cls-12" d="M89.83,159.75H54.69a15.52,15.52,0,0,1-2.64,0c-.26-.05-.2,0-.29-.07a8.7,8.7,0,0,1-1.26-2.21l-.29.13H87.66c1,0,1.91,0,2.87,0,0,0,.24,0,.28,0s0-.16,0,0-.56,1-.68,1.2l-.59,1.05s.3,0,.35-.06l1.31-2.31s0-.05-.06-.05H50.44s-.34.05-.3.13l1.31,2.31a.08.08,0,0,0,.07,0H89.6C89.68,159.9,90,159.75,89.83,159.75Z"/><rect class="cls-38" x="47.02" y="155.9" width="46.61" height="1.62" rx="0.81"/><path class="cls-12" d="M92.93,157.45H49.54a7.49,7.49,0,0,1-1.57,0c-.84-.19-1.06-1.24-.17-1.48a2.83,2.83,0,0,1,.65,0H90.39a11.55,11.55,0,0,1,2.12,0c.67.13,1.57,1.24.34,1.49-.14,0-.33.17-.07.12,1.21-.24,1.33-1.66,0-1.75-.73,0-1.48,0-2.2,0H54.06c-2,0-4.06-.16-6.05,0-1.14.09-1.71,1.53-.3,1.76a9.27,9.27,0,0,0,1.49,0h23c6.7,0,13.44.22,20.14,0h.35C92.77,157.59,93.1,157.45,92.93,157.45Z"/><path class="cls-44" d="M214.61,155.06a5.61,5.61,0,0,1-2.2,0,5.13,5.13,0,0,1-1.25-.6c-.53-.33-1-.67-1.56-1,0,0-.1-.09-.09-.15s.07-.09.13-.12a5.09,5.09,0,0,1,4.11.62c.36.2.75.48.79.9"/><path class="cls-44" d="M213.83,155.67a5.62,5.62,0,0,1-2,.85,5,5,0,0,1-1.39-.06c-.61-.09-1.23-.2-1.84-.33a.18.18,0,0,1-.14-.09c0-.06,0-.12.07-.17a5.11,5.11,0,0,1,4-1.06,1.31,1.31,0,0,1,1.08.51"/><path class="cls-44" d="M218.24,156.15a5.69,5.69,0,0,1,.31-2.17,5.57,5.57,0,0,1,.77-1.16c.4-.48.81-.95,1.24-1.4,0,0,.1-.09.15-.07s.09.08.1.15a5.05,5.05,0,0,1-1.17,4,1.35,1.35,0,0,1-1,.65"/><path class="cls-45" d="M212.11,156a3.68,3.68,0,0,1,.25-2.19,2.45,2.45,0,0,1,1.76-1,12.52,12.52,0,0,1,1.35-.19,3.28,3.28,0,0,1,2.79.78,2.68,2.68,0,0,1,.62,2.12.9.9,0,0,1-.13.42.84.84,0,0,1-.5.32,8.9,8.9,0,0,1-2.67.24l-2.31,0c-.34,0-.75-.07-.86-.44"/><path class="cls-46" d="M230.17,154l-.07-.08-.12-.07a2.2,2.2,0,0,1-2-1.56,5.93,5.93,0,0,1-1.52,0,9,9,0,0,1-2-.57l-.25.16a5.23,5.23,0,0,1-1.28.62,8.32,8.32,0,0,1-3,.33c0,.18,0,.4-.21.49a1,1,0,0,1-.43.06,1.22,1.22,0,0,0-1.09,1,2.79,2.79,0,0,0,.17,1.42l.16-.34,11.86.16a2.15,2.15,0,0,1-.2-1.05Z"/><path class="cls-47" d="M232.13,154.42a5.73,5.73,0,0,1,2.17-.33,5.2,5.2,0,0,1,1.33.39c.58.24,1.14.5,1.7.77.06,0,.12.07.12.13s-.06.11-.11.14a5.11,5.11,0,0,1-4.16,0,1.32,1.32,0,0,1-.92-.76"/><polygon class="cls-38" points="244.06 159.47 205.98 159.47 204.67 157.17 245.37 157.17 244.06 159.47"/><path class="cls-12" d="M244.13,159.38H209a17.76,17.76,0,0,1-2.63,0c-.34,0-.18,0-.26,0a10.36,10.36,0,0,1-1.25-2.21l-.25.14h37.45c.95,0,1.91.05,2.86,0a.94.94,0,0,1,.29,0c.18.11,0-.19,0,0s-.52.91-.68,1.2l-.6,1c0,.08.3.05.36-.05l1.31-2.31s-.08-.06-.11-.06h-40.7s-.3,0-.25.14l1.31,2.3a.12.12,0,0,0,.11,0H244C244.11,159.57,244.37,159.38,244.13,159.38Z"/><rect class="cls-38" x="201.36" y="155.55" width="46.61" height="1.62" rx="0.81"/><path class="cls-12" d="M247.22,157.05H204a7.79,7.79,0,0,1-1.74,0c-1-.25-.8-1.12-.1-1.38a2.36,2.36,0,0,1,.65,0h41.76a12.66,12.66,0,0,1,2.22,0c.63.12,1.68,1.11.3,1.39-.22,0-.16.26.06.22,1.3-.26,1.16-1.76-.13-1.85-.73-.05-1.47,0-2.2,0H208.35c-2,0-4.06-.16-6,0-1.22.1-1.57,1.64-.19,1.86a10.59,10.59,0,0,0,1.49,0h35.89c2.41,0,4.85.11,7.25,0h.35C247.25,157.29,247.47,157.05,247.22,157.05Z"/><path class="cls-48" d="M174.57,113.37c1.37-.82,1.37-2.3.64-4.85l-2.48-6.58-.54.16,1.95,6.8a.32.32,0,0,1-.22.38.31.31,0,0,1-.38-.21l-1.95-6.8-.52.15,2,6.8a.32.32,0,0,1-.22.38.31.31,0,0,1-.38-.21l-1.95-6.8-.52.15,2,6.8a.32.32,0,0,1-.22.38.31.31,0,0,1-.38-.21l-2-6.8-.55.16,1.37,6.89c.74,2.55,1.52,3.81,3.12,3.77l2.92,10.19c.36,2,.41,5.9.85,7.43.36,1.26,1.27,3,2.72,2.61s1.28-2.39.92-3.65c-.43-1.49-2.24-4.69-3.21-6.76Z"/><path class="cls-45" d="M173.87,100.08a3,3,0,0,0-1.69-.83,1.05,1.05,0,0,1-.3.43,1.15,1.15,0,0,1-.9.2l-.11,0c-.08.57-.29,1.09-1,1.22a1.34,1.34,0,0,1-1.36-.58,1.19,1.19,0,0,1-1.43-.27,2.13,2.13,0,0,0-.61.71,4.72,4.72,0,0,0-.19,2.75l.09.14c.15.45,1,.37,1.38.36l2.89-.08a10.74,10.74,0,0,0,3.34-.45,1.11,1.11,0,0,0,.61-.43,1.31,1.31,0,0,0,.15-.53A3.36,3.36,0,0,0,173.87,100.08Z"/><path class="cls-7" d="M166.24,126.15a27.76,27.76,0,0,0,3.19-2.16c.26-.39,2.77-5.87,3.18-6.13s4.2-2.14,4.2-2.14l2.06,1.13s2.47.18,2.92.76a1.36,1.36,0,0,1-.41,1.75,1.91,1.91,0,0,0-.63.75,1.74,1.74,0,0,1,.91.9c.12.55-.81,1.3-.81,1.3a3.75,3.75,0,0,1,.68,1.22c.12.55-.5,1-.5,1s1.12.9,1.15,1.38-1.22,2-3.21,2.83a13,13,0,0,1-2.34,1.18c-1.19.35-7.62,2.64-7.62,2.64l-2.35-4.53"/><path class="cls-7" d="M208.58,141.39a12,12,0,0,0-2.21-2.7,3.26,3.26,0,0,0-1-.65,3.47,3.47,0,0,0-1.36-.17c-.75,0-1.49,0-2.23.13a1,1,0,0,0-.47.13c-.37.26-.21.88.15,1.14a4.11,4.11,0,0,0,1.26.45,4.78,4.78,0,0,1,2.21,1.92,11,11,0,0,0,1.85,2.32,2.63,2.63,0,0,0,2.76.52"/><path class="cls-3" d="M82.61,283.55a1.17,1.17,0,0,0,1-.91,1.61,1.61,0,0,0-.23-1.28,6.82,6.82,0,0,0-2.3-1.85c-.13-.09-.58.1-.39.23a8.55,8.55,0,0,1,2,1.54,1.72,1.72,0,0,1,.45,1.07c0,.28-.14.89-.49.93-.08,0-.26.06-.27.17s.14.11.21.1Z"/><path class="cls-3" d="M85.82,284.11c1,.14,1.37-.85,1.39-1.68a2.07,2.07,0,0,0-.29-1.22A3.93,3.93,0,0,0,85.46,280a6.27,6.27,0,0,0-2-1,.42.42,0,0,0-.34.09c-.06.07-.07.15,0,.16a6.58,6.58,0,0,1,1.92,1,3.3,3.3,0,0,1,1.52,1.48,2.29,2.29,0,0,1,.08,1.27c0,.27-.18,1-.57.91a.43.43,0,0,0-.34.1c-.06.06-.07.15,0,.16Z"/><path class="cls-3" d="M88.41,283.66a1.6,1.6,0,0,0,1.25-1.22,2.15,2.15,0,0,0-.31-1.69A5,5,0,0,0,88,279.44a8.31,8.31,0,0,0-1.8-1c-.11,0-.54.13-.39.19a9.38,9.38,0,0,1,1.56.84,6.05,6.05,0,0,1,1.27,1.1,2.48,2.48,0,0,1,.6,1.44,1.85,1.85,0,0,1-.16.8c-.1.23-.31.6-.58.66-.06,0-.28,0-.28.13s.14.06.19.05Z"/><path class="cls-3" d="M88.26,278.07a3,3,0,0,1,1,.47c.26.14.52.28.77.43a7.52,7.52,0,0,1,1.56,1.14,1.88,1.88,0,0,1,.64,1.61,2.08,2.08,0,0,1-1.32,1.68s-.25.07-.22.15.22,0,.27,0a2.44,2.44,0,0,0,1.63-1.47,1.85,1.85,0,0,0-.31-1.91,6.5,6.5,0,0,0-1.8-1.41l-.85-.47a2.91,2.91,0,0,0-1-.47.5.5,0,0,0-.34.09c-.07.06-.08.12,0,.13Z"/><path class="cls-3" d="M142.9,136.07a8.48,8.48,0,0,0-2.89,7.35c0,.21.51.09.48-.13a8.19,8.19,0,0,1,2.73-7c.25-.21-.14-.36-.32-.2Z"/></g></g></svg>