<svg xmlns="http://www.w3.org/2000/svg" xmlns:xlink="http://www.w3.org/1999/xlink" viewBox="0 0 292.89 301.99"><defs><style>.cls-1{fill:none;}.cls-2{clip-path:url(#clip-path);}.cls-3{fill:#f2ebd1;}.cls-4{fill:#715446;}.cls-5{fill:#628e9f;}.cls-6{fill:#b17430;}.cls-7{clip-path:url(#clip-path-2);}.cls-8{fill:#9b5925;}.cls-9{fill:#4c53a3;}.cls-10{fill:#25255d;}.cls-11{fill:#3b3b8c;}.cls-12{fill:#ddd42b;}.cls-13{fill:#7c732e;}.cls-14{fill:#a29934;}.cls-15{fill:#c79e81;}.cls-16{fill:#4f2e25;}.cls-17{fill:#513835;}.cls-18{fill:#af3c25;}.cls-19{fill:#42221a;}.cls-20{fill:#773022;}.cls-21{fill:#4696a3;}.cls-22{fill:#1a4244;}.cls-23{fill:#246868;}.cls-24{fill:#0a2f44;}.cls-25{fill:#5a697c;}.cls-26{fill:#ddad6f;}.cls-27{fill:#825639;}.cls-28,.cls-43,.cls-45{fill:#151210;}.cls-29{fill:#131429;}.cls-30{fill:#040404;}.cls-31{fill:#f1eef7;}.cls-32{fill:#13110f;}.cls-33{fill:#f3bb1a;}.cls-34{fill:#78459b;}.cls-35{fill:#412b12;}.cls-36{fill:#c580b7;}.cls-37{fill:#231f20;}.cls-38{fill:#27153c;}.cls-39{fill:#24180f;}.cls-40{fill:#fff;}.cls-41{fill:#94664a;}.cls-42{fill:#262828;}.cls-43,.cls-45{stroke:#231f20;stroke-miterlimit:10;}.cls-43{stroke-width:0.2px;}.cls-44{fill:#1d170f;}.cls-45{stroke-width:0.25px;}.cls-46{fill:#e3bcd9;}.cls-47{fill:#975449;}.cls-48{fill:#77c8ce;}.cls-49{fill:#411436;}.cls-50{fill:#61174e;}</style><clipPath id="clip-path"><path class="cls-1" d="M278.17,121.87c0-7.56-8.86-17.85-19.06-26.87A127.09,127.09,0,0,0,216,47.72a31.63,31.63,0,0,0-60-20.12q-4.46-.32-9-.32A126.49,126.49,0,0,0,20.59,153.77q0,4.08.26,8.09l-.08.4a10,10,0,0,0-.92,3.25c-.24,2,1.14,5.18,1.14,5.18l-.22,1.37c-2,6.21-6.29,21.76-1.88,26.76h0c1.18,1.86,3.48,3.34,8,2l.21-.06.33-.11.6-.21.15,0h0c.37-.15.75-.3,1.13-.47a126.51,126.51,0,0,0,244.28-46.19q0-6-.55-11.86C275.88,133.55,278.17,125.67,278.17,121.87Z"/></clipPath><clipPath id="clip-path-2"><polygon class="cls-1" points="363.87 289.58 -65.31 289.58 -49.38 216.92 347.93 216.92 363.87 289.58"/></clipPath></defs><g id="Layer_9" data-name="Layer 9"><g class="cls-2"><circle class="cls-3" cx="147.28" cy="153.27" r="126.49" transform="translate(-65.24 149.03) rotate(-45)"/><polyline class="cls-4" points="-54.76 291.19 352.98 291.19 352.98 192.16 -54.76 192.16"/><path class="cls-5" d="M184.18,74.4s-17.47,9.54-21.66,13.84c-5.36,5.51-5.75,31.49-7.53,37.81-2,7-1.86,23.08-1.86,23.08L173,153.86l9.24-24.67L184,73Z"/><path class="cls-5" d="M254.93,160.68c-.18-.44-.38-.88-.57-1.31a100.34,100.34,0,0,0-6.86-13.17c-2.63-4.1-4.8-7.73-5.83-12.69-2.56-12.44,1.5-42.61-5.8-45.6-1.47-.6-22.14-10.72-22.14-10.72l-.43-.45c1.18,1.25-6.46,8.14-7.29,8.82-5.47,4.53-12.78,9.72-19.77,5.2v1.65l-1.14,8.8,2.58,24.11c0-.26.83,8.48,1.65,12.46,3.07,15,11.24,53.18,12.55,55.76a5,5,0,0,0,4.81,2.85l47.89-24.16c2.41-1.21,1.89-4.08,1.72-6.72A14.72,14.72,0,0,0,254.93,160.68Z"/><polygon class="cls-6" points="363.87 289.92 -65.31 289.92 -49.38 208.19 347.93 208.19 363.87 289.92"/><g class="cls-7"><rect class="cls-8" x="-69.74" y="235.12" width="445.26" height="6.44"/><rect class="cls-8" x="-69.27" y="218.06" width="445.26" height="6.44"/><rect class="cls-8" x="-72.05" y="251.45" width="445.26" height="6.44"/><rect class="cls-8" x="-71.86" y="267.46" width="445.26" height="6.44"/></g><rect class="cls-9" x="95.66" y="208.99" width="13.41" height="9.18"/><polygon class="cls-10" points="109.06 218.18 112.49 216.43 112.49 207.25 109.06 208.99 109.06 218.18"/><polygon class="cls-11" points="95.66 208.99 99.09 207.25 112.49 207.25 109.06 208.99 95.66 208.99"/><rect class="cls-12" x="95.6" y="199.25" width="13.41" height="9.18"/><polygon class="cls-13" points="109.01 208.43 112.44 206.68 112.44 197.5 109.01 199.25 109.01 208.43"/><polygon class="cls-14" points="95.6 199.25 99.03 197.5 112.44 197.5 109.01 199.25 95.6 199.25"/><path class="cls-15" d="M79.18,212.85A46.25,46.25,0,0,1,79.55,225c7.86-.91,34.22-1.69,34.22-1.69l-.66-7.35s-23.39-4.89-34.44-5.24C78.87,211.43,79,212.13,79.18,212.85Z"/><path class="cls-15" d="M113,222.87c.82.6,1.31.9,2.09,1.5s1.82.5,2.66-.58a11,11,0,0,0,1.68-3.44c.43-1.54.72-3.25,1.15-4.79a58.26,58.26,0,0,1,2-6.69,9,9,0,0,0,1.13-4.16c0-.27.06-.42-.06-.6a.79.79,0,0,0-1.34-.13c-.71.63-.43,1.88-1.2,2.42a2.87,2.87,0,0,0-.4.31,2.57,2.57,0,0,0-.43,1c-.56,1.75-1.16,1.34-2.42,3.4-.37.61-4.93,4-5.38,4.52"/><path class="cls-16" d="M120.28,208.32a3.8,3.8,0,0,1,1.2-1.57l0,.07a1.87,1.87,0,0,1,.26-1.33,2.1,2.1,0,0,0-.13,1.35,5.54,5.54,0,0,0-1.28,1.48Z"/><path class="cls-17" d="M116.74,69.48a.13.13,0,0,0,0,.06l.12-.06Z"/><rect class="cls-9" x="54.24" y="242.85" width="13.41" height="9.18"/><polygon class="cls-10" points="67.64 252.03 71.07 250.28 71.07 241.1 67.64 242.85 67.64 252.03"/><polygon class="cls-11" points="54.24 242.85 57.67 241.1 71.07 241.1 67.64 242.85 54.24 242.85"/><rect class="cls-18" x="118.33" y="192.96" width="13.41" height="9.18"/><polygon class="cls-19" points="131.74 202.14 135.17 200.39 135.17 191.21 131.74 192.96 131.74 202.14"/><polygon class="cls-20" points="118.33 192.96 121.76 191.21 135.17 191.21 131.74 192.96 118.33 192.96"/><rect class="cls-21" x="133.02" y="192.93" width="13.43" height="9.03"/><polygon class="cls-22" points="146.27 202.5 149.88 200.7 149.88 191.22 146.27 193.02 146.27 202.5"/><polygon class="cls-23" points="133.01 192.93 136.45 191.22 149.88 191.22 146.44 192.93 133.01 192.93"/><rect class="cls-12" x="125.48" y="183.75" width="13.41" height="9.18"/><polygon class="cls-13" points="138.88 192.93 142.31 191.19 142.31 182.01 138.88 183.75 138.88 192.93"/><polygon class="cls-14" points="125.48 183.75 128.91 182.01 142.31 182.01 138.88 183.75 125.48 183.75"/><path class="cls-15" d="M234.91,215.12a12.61,12.61,0,0,1,4.43-5.43c1.59-1.1,3.69-.37,4.25-.18,4.18,1.38,6.55,4.55,10,7.17a40.36,40.36,0,0,0,8.51,5c3.08,1.34,6.35,1.88,9.46,3.06l.06,0a7.15,7.15,0,0,1,3.65,3.12c.29.53.6,1,.92,1.52.45.67.92,1.16.58,2-.64,1.59-3.26-.12-4-.38a1.08,1.08,0,0,0-.44,0,18.37,18.37,0,0,1-5.39-.09,6.18,6.18,0,0,0-.85-.06s0,0,0,0c-1.61-.13-10.29.05-11.58,0-2.54,0-8.93-.79-8.93-.79s-10.4-.59-13.59,1.75l-5-12S234.25,217.15,234.91,215.12Z"/><path class="cls-15" d="M221,202.46a12.75,12.75,0,0,1,4.43-5.43c1.59-1.1,3.69-.37,4.25-.18,4.18,1.38,6.55,4.55,10,7.17a40.61,40.61,0,0,0,8.51,5c3.08,1.34,6.36,1.88,9.46,3.06l.07,0a7.13,7.13,0,0,1,3.64,3.12c.3.53.6,1,.92,1.52.46.67.92,1.16.58,2-.63,1.59-3.26.85-4,.59a1.08,1.08,0,0,0-.44,0,18.29,18.29,0,0,1-5.38-.09c-.3,0-.58-.06-.86-.07a.13.13,0,0,0,0,.06c-1.61-.13-8.6.21-9.88.19-2.55,0-10.61-2-10.61-2s-10.41-.59-13.6,1.75l-5-12S220.33,204.49,221,202.46Z"/><path class="cls-16" d="M235.18,215.14A11,11,0,0,1,238,211a6.35,6.35,0,0,1,2.34-1.63,4.87,4.87,0,0,1,2.54.12c3.07.84,5.44,3,7.75,5.05a58.44,58.44,0,0,0,8,5.67c.2.13.72-.14.45-.31l-4.37-2.79c-2.25-1.42-4.06-3.37-6.12-5s-5.11-3.64-7.95-3.16a6.23,6.23,0,0,0-3.15,1.93,11.29,11.29,0,0,0-2.93,4.2c-.1.3.47.27.55,0Z"/><path class="cls-24" d="M211.94,167.6,222,205.71l-12.93,2.44,1.17,25.54s-66.25.14-70.11-5.24c-6.88-9.59-6.8-15.24-3.08-22,6.82-12.38,54.34-40.82,55.19-40.33Z"/><path class="cls-15" d="M201.27,55.66a33.42,33.42,0,0,0,1.15,8.65,15.18,15.18,0,0,0,8.15,9.38l-24,17.67-9.84-7.87s4.33-4.61,4.29-6-3.85-11.28-3.85-11.28"/><path class="cls-24" d="M221.62,179.54,237,211.81l.32.79h0c2.25,5,6.26,12.52,6.28,18.07l0,5S168.32,256,153,244.37c-9.25-7-7.57-14.84-4.19-21.78,6.15-12.65,52-46.38,53.56-46.44h.06Z"/><path class="cls-24" d="M256.36,171.75s-8.59,5.73-22.63-1.4a135.45,135.45,0,0,1-14.1,7.94c-9.07,4.51-18.43,8.43-27.37,13.16,6.77,6.07,19.13,16.55,27,21,10.33,6,23.92-.94,32.6-9.12C255.4,200,262.05,183.58,256.36,171.75Z"/><path class="cls-25" d="M237.25,212.45c-15.8,3.65-31.58,7.55-47.5,10.59-2.49.48-6.69.85-7.39,3.83-.05.22.72.1.77-.12.66-2.83,4.78-3,7.12-3.49,3.42-.66,6.83-1.41,10.23-2.15,8.87-1.94,17.73-4,26.58-6l10.27-2.37c.46-.1.38-.4-.08-.3Z"/><rect class="cls-26" x="173.55" y="27.35" width="3.67" height="9.78" rx="1.83" transform="translate(353.27 44.71) rotate(173.6)"/><rect class="cls-26" x="185.5" y="37.5" width="3.67" height="9.78" rx="1.83" transform="translate(359.29 -43.19) rotate(140.79)"/><path class="cls-27" d="M201.31,56.42a.2.2,0,0,0,0,.07S201.32,56.43,201.31,56.42Z"/><path class="cls-15" d="M187.33,73.72l-6.77,2-3.1.55a3.32,3.32,0,0,1-3.4-1.32c-1.75-2.34-2.39-3.59-2.62-3.87a44.05,44.05,0,0,1-3.81-5.75,26.91,26.91,0,0,1-2.5-5,10.71,10.71,0,0,1-.39-5.63,3.79,3.79,0,0,0-.34-2.11c-.65-1.48-1.13-3.27-2-5.26a4.22,4.22,0,0,1-.38-1.1s-2-8.57-1.07-12,1.88-6.84,4-7.86,10.1-.33,10.1-.33l9-3.12,8.63,2.38,5.85,8.81,1.57,11.23,1.1,11.05"/><path class="cls-28" d="M195.16,29.77c-.33-5.06-5.1-6.08-7.1-6.59-1.7-.42-6.39-1-9.53.09-1.35.47-.13,3.27-.79,3.94-.23.1-2.94,1.28-4,1.66a11.87,11.87,0,0,1-4.28.91A4.86,4.86,0,0,0,167,30c-1.4.49-2.69-3-5,1l-.17-.12c2.8-5.62,7.71-6.47,13.4-8.45.6-.21,1.23-.4,1.86-.57,9.2-2.44,8.91-2.32,16.13,2.7,4.2,2.92,6.92,5.95,7.28,8.12l.09.49c.38,2.26,3.83,7.94,3.27,9.33-.36.89-1.31,4.66-2.08,7.86l-4.43.94c-.07-.86-1.07-8.09-1.19-9"/><path class="cls-15" d="M201.14,56.61c4.27,2.81,3.83-3.29,3.83-3.29a11.73,11.73,0,0,0,.68-8.89c-.54-2.18-3-1.65-3-1.65-2,.65-3,1.39-3.33,8.64"/><path class="cls-28" d="M167.92,27.8c3.32-.69,11.65-4.65,16.12-5.79,1.85-.48,9,3,10,3.89,2.31,2.07-.93,8.44,3.73,15.55,1.54,2.35,2.18-2.39,3.84-1s2.29,2,2.29,2c-.41-7.57-.39-7.31-3.4-14.3S188.93,19.52,185,19.64s-16.05,3.65-19.09,5.83"/><path class="cls-29" d="M201.48,50.33a15.66,15.66,0,0,1,1.3-3.76,3.42,3.42,0,0,1,1-1.23c.07,0,.09,0,.12-.07h0l-.07,0h-.13a2.43,2.43,0,0,1,.54.73,4.72,4.72,0,0,1,.45,2.34s.35,0,.36-.1a4.43,4.43,0,0,0-.67-2.68,1.26,1.26,0,0,0-.34-.39.39.39,0,0,0-.26,0c-.67.23-1.11,1-1.4,1.63a16,16,0,0,0-1.2,3.57c0,.06.32,0,.34-.07Z"/><path class="cls-29" d="M202.11,50.74c.65-.16.65,1,.67,1.42s0,1.35.53,1.29c.29,0,.39-.29.46-.53a6.29,6.29,0,0,0,.12-1.5,5.89,5.89,0,0,0-.28-1.87c-.25-.71-.66-1.56-1.47-1.73-.11,0-.41.14-.22.19.69.14,1.06.89,1.28,1.49a4.71,4.71,0,0,1,.32,1.43,8.77,8.77,0,0,1-.05,1.7,2.77,2.77,0,0,1-.1.5,1.29,1.29,0,0,1-.09.16l.07,0c.07,0,.08,0,0,0s-.06-.05-.07-.06a1.41,1.41,0,0,1-.16-.7c0-.32,0-.63-.07-.94a1.51,1.51,0,0,0-.27-.81.73.73,0,0,0-.76-.16c-.21.06-.16.23.05.17Z"/><path class="cls-28" d="M181.16,46.45a1.41,1.41,0,0,1,2,.47,1.39,1.39,0,0,1-.06,1.27,1.26,1.26,0,0,1-1.36.55,1.39,1.39,0,0,1-1-1.44,1.22,1.22,0,0,1,.42-.85"/><path class="cls-28" d="M166.49,50a1.35,1.35,0,0,0-1.31.7,1.26,1.26,0,0,0-.19.71,1.35,1.35,0,0,0,.68,1.07,1.26,1.26,0,0,0,1.45-.2,1.39,1.39,0,0,0,.16-1.75,1.24,1.24,0,0,0-.79-.53"/><path class="cls-28" d="M171.21,50.56s-2.63-1.34-4.13-1c-2.19.49-2.58,1.15-3,2.36a4.9,4.9,0,0,1,2.61-1.77A15.42,15.42,0,0,1,171.21,50.56Z"/><path class="cls-28" d="M178.14,48.65s2.66-2.58,4.15-2.94c2.19-.52,5.08.22,6,1.12,0,0-3.86-1.18-5.38-.77A26.86,26.86,0,0,0,178.14,48.65Z"/><path class="cls-28" d="M175.05,41.08c.12.52.23,1,.35,1.57s.26,1.31.35,1.71c1.32-.65,2.47-1.42,3.34-1.77A18.92,18.92,0,0,1,184.41,41a6.56,6.56,0,0,1,2.51.21c.25.07,1,.49,1.3.27.12-.09-.25-.68-.28-.74-.76-1.19-2.1-1.46-3.66-1.44a29.61,29.61,0,0,0-9.23,1.81"/><path class="cls-28" d="M161.58,45.21l.72-.45a16,16,0,0,1,6.59-2.14l.45,1.54c.11.39.34,1.09.45,1.48-1.1,0-2.09-.17-2.78-.13a10.54,10.54,0,0,0-4.06.81c-.1,0-.62.33-.71.39C161.61,46.12,161.43,45.37,161.58,45.21Z"/><path class="cls-30" d="M197.82,44.86l-.26-1-11.06-.42h0c-4-.53-9,1.77-11.53,4.44l-2.63.79,0,0c-3.65-1.51-8.88-.59-12.38,2.18l.21.39h0l.09.16.19.34c1.15,2.15,2.43,4.41,3.23,4.89.54.32,2,.18,3.22,0,.46-.07.87-.15,1.17-.21s3.5-.73,3.9-1.34.42-4.44.39-5.65l2.69-.79c.57.8,2.2,4.44,3.72,4.89s8.25-1.54,8.65-2.64a23.06,23.06,0,0,0,1-4.86l.17-1.76Zm-26.23,9.87c-.46.61-6.71,2-7.64,1.42s-2.44-3.54-3-4.69l0-.05c3.18-2.28,7.88-3.12,11-1.86,0,2.09-.08,4.79-.33,5.17Zm15-4c-.24.7-6.06,2.69-7.63,2.23-1.08-.32-2.33-3-3.17-4.46,2.51-2.56,8.37-4.84,12-4.15a20.1,20.1,0,0,1-1.22,6.38Z"/><path class="cls-31" d="M177.27,63.45c1.23-.29,4.92-1.39,4.92-1.39s-1,1.66-4.71,2.54-5.17-.14-5.17-.14Z"/><path class="cls-28" d="M175.35,76.69l-1-1.15s12.19-.64,14.35-1.77c5.72-3,8.64-12.67,8.64-12.67a23.79,23.79,0,0,1-3.1,8.34c-2.63,4.45-3.34,5.09-6.95,5.8-2.74.54-7.77,1.62-10,2.11A2,2,0,0,1,175.35,76.69Z"/><path class="cls-28" d="M205.41,43.8a24,24,0,0,0,0-10.19c-1.16-6.08-3.15-14.17-10.8-16a14.66,14.66,0,0,0-4.17-.38s-5.55-3.93-18.05,1.07c-8.77,3.51-11.64,7.92-11.11,15.07,0,0,1.82-4.12,2.65-3.93s1.87,1.89,5,1.57,7.91-1.74,9.68-3.41,5.17-3.69,7.32-3.81c5.24-.3,6.55,3.45,7.41,5.62s3.64,9.91,6.35,10.52a4.07,4.07,0,0,1,3.22,2.77l.44.08a4.09,4.09,0,0,1,2,1Z"/><path class="cls-28" d="M197.36,61.1c-4.39,7.81-7.49,10.41-9.61,11s-3.66,1.59-5.32,1.25c-2-.42-2.77-1.28-3.19-.82-.18.2-.73,1.52-.91,1.72a3.42,3.42,0,0,1-2.33.39,5.45,5.45,0,0,1-3.51-2c.79,1.29,1.62,3.19,3.07,3.64a7.44,7.44,0,0,0,3-.28c2-.33,4-.65,6-1a16,16,0,0,0,5.17-1.51c2.63-1.53,4.94-5.87,6.23-8.71Z"/><path class="cls-32" d="M176.33,59.12a3.86,3.86,0,0,1-3.34.68,2.27,2.27,0,0,1-.77-.44,1.14,1.14,0,0,1-.36-.85,15.1,15.1,0,0,1,.26-1.77c0-.14-.28-.1-.29,0a9,9,0,0,0-.24,2,1.68,1.68,0,0,0,1.3,1.25,4.3,4.3,0,0,0,3.63-.76c.15-.11-.08-.21-.19-.13Z"/><path class="cls-32" d="M178.73,56.84c.16,0,.33.2.39.31a1.9,1.9,0,0,1,.21.62.87.87,0,0,1-.09.59,1.42,1.42,0,0,1-.74.51,3.56,3.56,0,0,1-1.26,0,.34.34,0,0,0-.2.06s0,0,0,0a5.16,5.16,0,0,0,1.36,0,2.22,2.22,0,0,0,1-.51.86.86,0,0,0,.25-.71,1.91,1.91,0,0,0-.24-.73.56.56,0,0,0-.68-.28s-.14,0-.13.08.14,0,.15,0Z"/><path class="cls-25" d="M146.06,230.78c.09-4.36.2-8.82,1.5-13a23.73,23.73,0,0,1,6-9.26,53.1,53.1,0,0,1,8.31-7.17c3.8-2.61,7.47-5.4,11.17-8.15a154,154,0,0,1,13.58-9.26c.44-.26,0-.69-.34-.47-8.43,5-16,11.26-24,16.86a61.34,61.34,0,0,0-8.48,7c-2.57,2.58-5,5.36-6.42,8.79-1.86,4.64-2,9.77-2.09,14.7,0,.41.76.3.77-.05Z"/><circle class="cls-33" cx="22.47" cy="244.12" r="15.62"/><path class="cls-34" d="M8.56,237.21a15.62,15.62,0,0,0,26.09-3,15.62,15.62,0,0,0-26.09,3Z"/><path class="cls-34" d="M37.76,247.64c-2.88,5.15-8.87,8.69-15.79,8.69a19.12,19.12,0,0,1-13.9-5.73s3.62,9.72,15.74,9.14S37.76,247.64,37.76,247.64Z"/><path class="cls-15" d="M71.57,228.77c1.84,1.28,3.7,2.52,5.61,3.69,9.75,1,33.92,3.81,33.92,3.81l4.07-7.19s-37.7-13.57-41.76-11.91c-1.89.78-5,3.38-8.18,6.93C67.31,225.7,69.42,227.27,71.57,228.77Z"/><path class="cls-15" d="M108.44,235.7a18.76,18.76,0,0,1,3.46,2.89c.67.69,1.26,2.3,2.41,1.75,2-1,2.94-3.37,3.58-4,1.34-1.41,2.16-2.74,3.56-4a14,14,0,0,0,2.92-3.23,2,2,0,0,0,.37-.79c0-.19,0-.37,0-.56.1-.67.77-1.09,1.07-1.71a4.57,4.57,0,0,0,.26-.87,18.74,18.74,0,0,1,.86-2.26,5.08,5.08,0,0,0,.48-2.31c-.07-.74-.54-1.38-1.18-1.3-1,.12-1.09,1.17-1.65,1.94a5.54,5.54,0,0,1-1.56,1.5c-1.79,1.29-2.1,1.47-3.57,2.59a63.55,63.55,0,0,1-6.86,3.58l-4.22-2.13"/><path class="cls-16" d="M125.08,227.48a.67.67,0,0,0-.29-.74.91.91,0,0,0-.74-.09,4,4,0,0,0-1.41.85c-.06,0-.11.12,0,.17a.28.28,0,0,0,.28,0,4.91,4.91,0,0,1,1.12-.73.52.52,0,0,1,.44,0,.53.53,0,0,1,.24.6c0,.09.12.11.17.1a.25.25,0,0,0,.22-.14Z"/><path class="cls-16" d="M126.16,225.8c.37-.62-.49-1.22-1-1.17a2.34,2.34,0,0,0-1.25.63,3.92,3.92,0,0,0-.91.81c-.1.16.3.13.37,0a2.57,2.57,0,0,1,.74-.65,2.3,2.3,0,0,1,.91-.57c.42-.08,1.09.48.83.93-.1.16.29.12.36,0Z"/><path class="cls-16" d="M126.63,224.29a.91.91,0,0,0-.38-.95,1.17,1.17,0,0,0-1-.11,3,3,0,0,0-1,.48,5.41,5.41,0,0,0-.89.76c-.07.07,0,.1.1.1a.42.42,0,0,0,.26-.1,4.64,4.64,0,0,1,.71-.62,2.77,2.77,0,0,1,.75-.42.69.69,0,0,1,.67.08.81.81,0,0,1,.33.83c0,.12.36.07.39-.05Z"/><path class="cls-16" d="M127.21,222.91a1.4,1.4,0,0,0-.32-1.24,1,1,0,0,0-1.07-.16,3.7,3.7,0,0,0-1.11.67c-.16.12-.31.25-.46.38a2,2,0,0,0-.49.47c0,.06.14,0,.16,0a.34.34,0,0,0,.23-.11,1.6,1.6,0,0,1,.42-.4l.36-.31a4.15,4.15,0,0,1,.9-.6.58.58,0,0,1,.74.22,1.33,1.33,0,0,1,.25,1.11c0,.08.37,0,.39-.07Z"/><path class="cls-35" d="M91.63,221.37c3,1.06,6.17,1.58,9.18,2.65.18.06.56-.2.28-.29-3-1.07-6.17-1.59-9.18-2.66-.18-.06-.56.2-.28.3Z"/><path class="cls-36" d="M40.87,206.71s-4.77,11.19-3.29,20,9.45,11,16.87,10.16c11.83-1.38,33.36.53,36.84,1.46s2-8.32,0-9.7-.16-6,1.45-6.46,3.91-3.31,3.15-4.93S97,214.13,97,214.13s1.1-2.67-2.55-4.6-23.77-9.07-23.77-9.07Z"/><path class="cls-5" d="M248.87,235.37c0-.14-1.62.15,0,0Z"/><polygon class="cls-23" points="53.87 233.21 57.31 231.49 70.74 231.49 67.3 233.21 53.87 233.21"/><rect class="cls-21" x="53.87" y="233.21" width="13.43" height="9.03"/><polygon class="cls-22" points="67.3 242.24 70.74 240.52 70.74 231.49 67.3 233.21 67.3 242.24"/><rect class="cls-18" x="53.97" y="223.47" width="13.41" height="9.18"/><polygon class="cls-19" points="67.38 232.65 70.81 230.9 70.81 221.72 67.38 223.47 67.38 232.65"/><polygon class="cls-20" points="53.97 223.47 57.4 221.72 70.81 221.72 67.38 223.47 53.97 223.47"/><path class="cls-37" d="M32.25,169.1l1.43-4.29c.07-.21-.65-.12-.72.1l-1.43,4.29c-.07.21.65.12.72-.1Z"/><path class="cls-37" d="M33.27,170.12c.45-1.29.95-2.55,1.51-3.79.15-.34-.58-.29-.69,0-.57,1.28-1.09,2.58-1.55,3.9,0,.17.23.2.33.19a.46.46,0,0,0,.4-.26Z"/><path class="cls-37" d="M89,163.93l-2.82-3.3c-.18-.21-.87.06-.67.29l2.82,3.31c.17.21.87-.06.67-.3Z"/><path class="cls-37" d="M88.2,165.55l-2.82-2.69a.44.44,0,0,0-.5-.06c-.1,0-.31.25-.17.38l2.83,2.69a.42.42,0,0,0,.49,0c.11,0,.31-.24.17-.37Z"/><path class="cls-37" d="M100.11,162.32V156.6c0-.19-.73-.06-.73.19v5.72c0,.19.73.06.73-.19Z"/><path class="cls-37" d="M101.94,162.11v-4.49c0-.22-.72-.09-.72.19v4.5c0,.22.72.09.72-.2Z"/><path class="cls-37" d="M16.42,164.6a18.66,18.66,0,0,0,.79-4.38c0-.33-.71-.2-.73.07a19.18,19.18,0,0,1-.79,4.39c-.09.29.65.19.73-.08Z"/><path class="cls-37" d="M15.06,164.74a16.3,16.3,0,0,1,.38-3.75c0-.18-.21-.25-.34-.25a.43.43,0,0,0-.4.3,16.3,16.3,0,0,0-.38,3.75c0,.39.75.28.74,0Z"/><path class="cls-5" d="M205,70l1.68-.09c5.36,1,20,2.3,24.39,5.57C241.11,83,233.6,100,234.1,105.29c.22,2.56-6.75,27.06-1.19,40.91a246.23,246.23,0,0,1,9.33,28.24l-15,5.63c-7.35,2.75-19.08-4.8-26.89-4.19l-19.67-1.26c-1.86-10-4-9.35-5.87-22.59l-9-39.34,1.83-19.76s5.28-4.93,5.51-6l8-9.32s-1.41,8.6,6.54,7.91c8.21-.72,10.21-2.45,15.12-8.45C202.74,77.09,205,72.87,205,70Z"/><path class="cls-5" d="M255.55,165.51c1.82,1.61,1.84,5.45,1.67,7.44-.06.61-.93.89-1.24,1.42a4.23,4.23,0,0,1-2.1,1.49,92.85,92.85,0,0,1-14,5.11c-9.4,2.34-19.25,1.69-28.91.93s-19.4-1.64-28.63-4.58c-1.61-.52-4.63-1.29-4.64-3,0-1.84,1.83-6.51,3.61-7,4.76-1.22,11,1.1,15.76-.11"/><path class="cls-15" d="M125.75,101.55s-4-13.14-4.53-14.67c-.51-1.34-10-9.76-12.56-12.13h0a3.32,3.32,0,0,0-.19,4.14c2.1,2.89,6.33,8.24,6.33,8.24a7.8,7.8,0,0,1-2,.7c-4.37-.82-4.7,1.38-4.7,1.38a5.13,5.13,0,0,0-1.84,1.61c-1.47,1.73.45,4.06.45,4.06s-1.06-.08-1.71,2.2,3.71,2.32,3.71,2.32-.45,0,1.68,4.4,7.76,5.7,7.76,5.7l4.73,10.89,11.41-6.82Z"/><path class="cls-15" d="M228.25,170.36l6.4-2.87s-3.31-.45-2.93-2.17c0,0,8.57-3,9.37-2.67s3.8,1.34,3.8,1.34c.94.9,2.51.93,3.56,1.69s1.79,0,3,.19c.58-.05,1,1.79,1.5,1.56l12.52-34s-5.58,7.46-5.17,7.71,3.48,23.92-1.42,34.91l-.09,0c-.45.66-2,2.88-3.25,3.43-4.4,1.95-10.87-2.17-10.87-2.17l-2.19-.12s-7.73,2.51-8.76.09l-.18-.7,7.56-2.88,3-.31-5.45-.55s-7.36,1.61-8.08,1.59-1.75-.88-1.63-1.57l.95-.87S228.47,171.47,228.25,170.36Z"/><path class="cls-35" d="M244.86,169.63a17.42,17.42,0,0,0-3.93-1.23,6.2,6.2,0,0,0-3.41-.13,50.14,50.14,0,0,0-7.58,3.52c-.25.14.14.13.25.07a60.16,60.16,0,0,1,6.44-3.05,4.52,4.52,0,0,1,2-.58,14.48,14.48,0,0,1,2.07.37,17,17,0,0,1,3.75,1.18c.11.06.46-.12.4-.15Z"/><path class="cls-35" d="M244.9,167.25a3.1,3.1,0,0,0-1.07-.68,11.12,11.12,0,0,0-1.23-.53,8,8,0,0,0-2.66-.31,11.49,11.49,0,0,0-5.24,1.49c-.24.15.12.27.28.18a10.56,10.56,0,0,1,4.77-1.37,6.22,6.22,0,0,1,3.5.66,3.94,3.94,0,0,1,1.25.74c.13.13.53,0,.4-.18Z"/><path class="cls-5" d="M219.62,73,231,75.44c9.55,3.63,47.15,30.85,47.15,46.43,0,10.11-16.24,49.18-16.24,49.18s-15.16-2.78-14.7-9.46,10.93-36.19,10.93-36.19-30-20-32.74-23.41C222.17,97.91,203.1,76.36,219.62,73Z"/><path class="cls-38" d="M225.05,78.92c-4.6,2.83-4.63,9.79-3.18,14.27,1.11,3.45,3.4,6.48,5.74,9.18a75.26,75.26,0,0,0,8,7.82c1.56,1.33,3.15,2.63,4.81,3.82.17.12.72-.12.57-.23a79.65,79.65,0,0,1-10.95-9.56c-5.08-5.29-10.26-12.45-8-20.23a8.7,8.7,0,0,1,3.3-4.91c.35-.21-.18-.27-.37-.16Z"/><path class="cls-38" d="M258.19,125.38a3.93,3.93,0,0,1,1.89-.91c2.12-.47,4.32.38,6.13,1.43.15.09.66-.16.57-.21a9.44,9.44,0,0,0-6.67-1.44,5.15,5.15,0,0,0-2.47,1.17c-.13.13.44.07.55,0Z"/><path class="cls-38" d="M249.63,150.94l-3.13,11.22-.45,1.62c0,.05,0,.11.07.14l3,2.2c.2.15.75-.14.47-.34l-1.28-.93a10.33,10.33,0,0,0-1.63-1.17c-.22-.09,0-.07-.06,0a1.81,1.81,0,0,1,.09-.31l.34-1.22,2.45-8.79.7-2.48c.07-.27-.55-.2-.62.05Z"/><path class="cls-5" d="M170.88,138.57c-7.94-1.16-8.56-2.77-8.56-2.77l-36-33.06h0c-2.59,4.67-5.58,7.91-10.4,10.22l.32,1s18.55,27.88,28,38.24c2,2.17,8.51,11.72,18.41,10.61,8.76-.56,12.84-12.74,14.34-14.57"/><path class="cls-38" d="M154.56,128.61c4.25,3.46,10.23,8.5,9,14.7-.06.31.59.22.65-.05,1.26-6.34-4.79-11.47-9.15-15-.21-.17-.77.13-.49.36Z"/><path class="cls-38" d="M163.57,107.63q4.67,18.69,9,37.48c.7,3,1.4,6.1,2.06,9.16,0,.22.66.07.61-.16-2.79-13-5.95-25.85-9.07-38.73-.64-2.64-1.28-5.28-1.94-7.91-.06-.23-.67-.07-.61.16Z"/><path class="cls-35" d="M112.24,88a3.52,3.52,0,0,0-.09,1.93c.09.57.24,1.25.91,1.34a.48.48,0,0,0,.31-.08c.06,0,0-.1,0-.11-.62-.08-.7-.9-.78-1.37a3.22,3.22,0,0,1,.11-1.77c0-.09-.38,0-.43.06Z"/><path class="cls-35" d="M107.9,89.14a5.15,5.15,0,0,0,1.53,3.64c.1.1.5-.06.39-.17a5.13,5.13,0,0,1-1.5-3.59c0-.12-.42,0-.42.12Z"/><path class="cls-35" d="M106.6,95.09l2.64,1.26a5.07,5.07,0,0,0,2.37.77,1.56,1.56,0,0,0,1.41-.81c.31-.78-.39-1.46-.93-1.92-.1-.1-.5.07-.39.16.47.41,1.07,1,.94,1.64s-1.07.77-1.67.58a15.86,15.86,0,0,1-1.92-.87l-2.11-1c-.12-.06-.51.12-.34.2Z"/><path class="cls-35" d="M108.59,99.67a3.17,3.17,0,0,0,2-.15,1.5,1.5,0,0,0,.77-.78c.15-.42-.2-.77-.46-1.06s-.74-.78-1.13-1.14c-.14-.13-.51.08-.33.25.38.35.75.73,1.1,1.12a1.45,1.45,0,0,1,.4.55c.08.23-.07.42-.22.58a2.27,2.27,0,0,1-2,.32c-.21,0-.43.26-.14.31Z"/><path class="cls-35" d="M120.18,103.07a9,9,0,0,1-4.33-3.19,4,4,0,0,1-.81-2.94c.13-1.09.33-2.17.49-3.26,0-.12-.17-.11-.25-.09a7.77,7.77,0,0,1-3.43.52,2.22,2.22,0,0,1-1.44-1c-.5-1,1.22-1.27,1.86-1.43a31.14,31.14,0,0,0,4.18-1.86c1.59-.69,3.93-.82,4.68,1.13.07.16.49,0,.43-.12-.87-2.24-3.62-2-5.41-1.16a25.84,25.84,0,0,1-4,1.76,4,4,0,0,0-2.46,1.3.08.08,0,0,0,0,.07,2.81,2.81,0,0,0,2.45,1.68,11.94,11.94,0,0,0,3.17-.61l-.25-.1a32.29,32.29,0,0,0-.53,3.79,4,4,0,0,0,.89,2.53,9.09,9.09,0,0,0,4.47,3.27c.15.06.5-.17.25-.25Z"/><path class="cls-39" d="M176.89,62.91c2.12-.38,7.05.08,8.14.74,0,0-2.13,2.1-7.07,3s-6.05-.65-6.05-.65S174.18,63.39,176.89,62.91Z"/><path class="cls-40" d="M182.86,63.09s-2.56.25-4.58.61-4.52,1-4.52,1-.59-1.44,3.07-2.1A10.67,10.67,0,0,1,182.86,63.09Z"/><path class="cls-41" d="M177.84,66.21c2.26-.74,4.47-2.25,7.19-2.56,0,0-.21,3.45-6,4.48S171.91,66,171.91,66C174.58,65.33,175.47,66.29,177.84,66.21Z"/><path class="cls-41" d="M174.16,62.21a11.26,11.26,0,0,1,2.59-.07,11.09,11.09,0,0,1,2.45-.82c1.16-.12,6.48,1.8,6,2.26s-4.08-.74-7.75-.09-5.13,2.74-5.73,2.48S173,62.5,174.16,62.21Z"/><path class="cls-28" d="M177.12,60.65l.17.67a.44.44,0,0,0,.38.34c1.3.13,6.06.79,7.24.74l.15,0h.14c.44-.1.29-.69-.13-.83a26.07,26.07,0,0,0-3.13-.89,28.35,28.35,0,0,0-4.39-.53A.45.45,0,0,0,177.12,60.65Z"/><path class="cls-28" d="M175.32,61l.29.67a.42.42,0,0,1-.17.44c-.92.6-3.82,2.7-4.72,3.07l-.37.17-.21.07c-.36.06-.32-.79-.06-1.08a17.67,17.67,0,0,1,1.79-1.77,18.47,18.47,0,0,1,2.95-1.91A.39.39,0,0,1,175.32,61Z"/><path class="cls-15" d="M97.33,189.34a27.19,27.19,0,0,1-2.22-4.61,14.07,14.07,0,0,1-1-4.57c-3.15-1.23-12.19-4.71-15.3-5.27-3.78-.68-6.2-1.06-6.2-1.06l5.63,13.64s14.61,6.36,21.43,4.64A11.63,11.63,0,0,1,97.33,189.34Z"/><path class="cls-36" d="M77.62,189.65l8.42,1.6c.2.2,1.26-14.76,1.26-14.76s-11.11-4.72-13.8-5c-3.22-.33-10.15,1.07-10.15,1.07Z"/><path class="cls-42" d="M74.7,154.87s-1.57,2.46-.14,3.56l-8.91.65A3.53,3.53,0,0,1,65,155.6C65.85,153.82,74.7,154.87,74.7,154.87Z"/><path class="cls-43" d="M52,166.63c6.3,1.4,13.18-2,17.75-6.16a16.88,16.88,0,0,0,5.62-9.13,21.62,21.62,0,0,0-.74-9.42,13.41,13.41,0,0,0-3.92-7,15.17,15.17,0,0,0-7.37-3.47q-1.22-.21-2.43-.33c-7.23-.77-16.73,2.33-19.83,8.43a14.8,14.8,0,0,0-.76,1.76,13,13,0,0,0-.45,1.78c-.49,8.15-.63,21.71,11,21.83A1.27,1.27,0,0,1,52,166.63Z"/><path class="cls-15" d="M75.52,159.11a15.73,15.73,0,0,0-1-5.91c0-.88-.06-1.92-.1-3.16q0-.54-.06-1a3.07,3.07,0,0,1,0-.53c-.54-6-2.73-9.1-2.73-9.1a13.42,13.42,0,0,0-12.18-5.51,18.2,18.2,0,0,0-12.9,7.67,8.69,8.69,0,0,0-1.45,6,34.82,34.82,0,0,0,1.38,5.79c-2,0-4.42.71-3.5,4.27,1.27,4.9,5,5.12,6.59,4a11,11,0,0,1,1.78,4.89c.21,1.42.4,3.82-.33,5.05l-2.23,1.26c4.62,6.55,18.06,10.47,21.9-.23l-3.53-1.32L67,169.85c1.09-.13.33,0,2.36-.73C75.44,166.41,75.39,161.39,75.52,159.11Z"/><path class="cls-16" d="M67.11,170.9,67,169.85s-5.89,1-10.24-2c0,0,3.06,2.91,6.31,3.19S67.11,170.9,67.11,170.9Z"/><path class="cls-28" d="M48.83,155a.7.7,0,0,1,.05.47.46.46,0,0,1-.55.23,1.61,1.61,0,0,1-.55-.35c-1.08-.9-2.61-2.31-4-1.9a15.26,15.26,0,0,1,1.1-15c.95-1.47,3.37-3,4.11-3.55,4.49-3,8.42-3.11,13.23-2.47,7.2,1,7.91,2.45,10.53,8.51,0,0-5.71,3.05-15.57-1.09.24.07-1.43,2.79-1.5,2.88a12.5,12.5,0,0,1-2.43,2.39c-1,.63-2.35.93-3.23,1.69a4.18,4.18,0,0,0-1.12,2.69Z"/><path class="cls-37" d="M48.52,155.05c.18.63-.94-.27-1.17-.45a8.52,8.52,0,0,0-1.53-1.06,3,3,0,0,0-2-.31l.36.1a16,16,0,0,1-1.36-8.19A13.27,13.27,0,0,1,46,137.55a17.39,17.39,0,0,1,13.75-5.16c3.4.24,7.84.56,10.1,3.49a11.92,11.92,0,0,1,1.16,1.9,21,21,0,0,0,1.21,2.63c.33.47.54.25.2.51a3.8,3.8,0,0,1-1.09.37c-4.6,1.31-9.61.16-13.91-1.61-.15-.07-.63.09-.47.31s-.77,1.5-.88,1.7a10.45,10.45,0,0,1-1.23,1.73,9.27,9.27,0,0,1-3.32,2.35,4.56,4.56,0,0,0-2.22,1.64,7.2,7.2,0,0,0-.7,3.89l-.08,3.7c0,.29.62.18.63-.06l.08-3.82c0-2,.07-3.85,2.21-4.89a10.69,10.69,0,0,0,4.63-3.54c.3-.44,1.81-2.45,1.45-3l-.47.32a24.9,24.9,0,0,0,11.63,2.11,11.56,11.56,0,0,0,4.25-1c.07,0,.23-.14.18-.24-1-2.21-1.87-4.83-3.8-6.4s-4.86-2-7.34-2.28c-3.69-.47-7.38-.37-10.79,1.26-3,1.42-5.91,3.54-7.43,6.52a15.72,15.72,0,0,0-.23,13.53c.06.14.24.12.36.1a3.55,3.55,0,0,1,2.71,1.09c.41.32,1,1,1.56,1.16s1.18-.31,1-1C49.06,154.64,48.44,154.8,48.52,155.05Z"/><path class="cls-28" d="M74.61,150.64a4.15,4.15,0,0,0-2.62-.37c-1.89.28-2.63,2.71-2.63,2.71a4.25,4.25,0,0,1,2.78-2.19,4.41,4.41,0,0,1,2.5.4A2.54,2.54,0,0,1,74.61,150.64Z"/><path class="cls-44" d="M63.82,149.91s-4.2-2.54-5.56-2.15c0,0,1.31-.85,5.05,1C63.31,148.77,65,150,63.82,149.91Z"/><path class="cls-44" d="M69.41,150.17s3.57-3.39,5-3.3c0,0-1.46-.55-4.72,2.07C69.66,148.94,68.29,150.45,69.41,150.17Z"/><path class="cls-37" d="M44.92,157.6a2.35,2.35,0,0,1-.08-1.94l-.18.1s0,0,0,0,0,0,.09,0a1.5,1.5,0,0,1,.45.24,7.56,7.56,0,0,1,1.87,2.15l.29-.16a1,1,0,0,0-.74-.18.62.62,0,0,0-.44.67c0,.79.74,1.16,1.44,1.19.15,0,.36-.21.13-.22a1.14,1.14,0,0,1-1.22-.88c0-.13,0-.47.11-.55s.35.08.45.15.38,0,.29-.16a10.53,10.53,0,0,0-1.3-1.67,3.36,3.36,0,0,0-.84-.66,1.09,1.09,0,0,0-.46-.15c-.19,0-.27.1-.33.26a2.63,2.63,0,0,0,.13,1.89c.06.13.39,0,.34-.09Z"/><path class="cls-45" d="M40.88,141.2s-3.48-6.66-8.94-4.28-5.05,11.41-.76,14.61c0,0-1.42-5.24-.15-5.86,0,0,1,2.36,2.33,2.83,0,0-1.45-5.65,2.31-5.83a14.51,14.51,0,0,1,4.79.79"/><path class="cls-46" d="M48.56,146.41c-.25.7-1.7.74-2.35.46s-.65-.93-.4-1.63.65-1.19,1.31-.91S48.81,145.71,48.56,146.41Z"/><path class="cls-46" d="M48.47,146.37c-.25.7.79,1.81,1.45,2.09s1-.21,1.3-.92.26-1.35-.4-1.63S48.72,145.67,48.47,146.37Z"/><path class="cls-32" d="M66.76,158.75a3.72,3.72,0,0,0,2.65-.05,1.64,1.64,0,0,0,1-1.59,1.48,1.48,0,0,0-.51-1c-.07-.07-.28,0-.21.1a1.35,1.35,0,0,1,.49,1,1.55,1.55,0,0,1-.52,1.14,2.39,2.39,0,0,1-1.17.38,2.93,2.93,0,0,1-1.55-.17c-.09,0-.27.09-.14.14Z"/><path class="cls-32" d="M64.59,157.6a.48.48,0,0,0-.45.28,1,1,0,0,0,0,.56.62.62,0,0,0,.27.46,1.62,1.62,0,0,0,1.29.07c.18-.07.35-.16.53-.22,0,0,.11,0,.11-.06s-.11,0-.13,0l-.38.14a1.18,1.18,0,0,1-.37.14,1,1,0,0,1-.38,0,1.05,1.05,0,0,1-.35-.08.62.62,0,0,1-.34-.37,1.19,1.19,0,0,1,0-.46.76.76,0,0,1,.06-.25.36.36,0,0,1,.07-.1l0,0h0s.13,0,.15-.05,0,0,0,0Z"/><path class="cls-39" d="M68.05,161.25a9.16,9.16,0,0,0-4.13,1.51s1,1.86,4,1.67,3.51-2,3.51-2A5.94,5.94,0,0,0,68.05,161.25Z"/><path class="cls-40" d="M64.61,162.27s1.53-.23,2.75-.31,2.76,0,2.76,0,.14-1-2.08-.86A6,6,0,0,0,64.61,162.27Z"/><path class="cls-47" d="M68.16,164.19c-1.42-.13-2.9-1.38-4.52-1.16,0,0,.6,2.77,4.11,2.55s3.83-3.06,3.83-3.06C69.94,162.52,69.54,163.89,68.16,164.19Z"/><path class="cls-47" d="M69.53,160.4a6.34,6.34,0,0,0-1.51.34,6.08,6.08,0,0,0-1.54-.14c-.69.1-3.14,2.22-2.8,2.44s2.17-1.38,4.39-1.52,3.12,1.43,3.43,1.18S70.23,160.41,69.53,160.4Z"/><path class="cls-35" d="M66.09,151.66a1.53,1.53,0,0,0,.75-1.11,1.92,1.92,0,0,0-.85-1.37s-.27,0-.23.09a1.94,1.94,0,0,1,.84,1.27,1.34,1.34,0,0,1-.7,1.1s0,.05,0,.06a.38.38,0,0,0,.17,0Z"/><path class="cls-48" d="M61.32,151.69c-.69.69-1.44,1.57-1.2,2.52s1.25,1.58,1,2.45-1.16.91-1.71,1.44a1.6,1.6,0,0,0-.38,1.71,4.9,4.9,0,0,0,1,1.34,1.57,1.57,0,0,1,.44,1.55,2.56,2.56,0,0,1-.73.81,3.8,3.8,0,0,0-1.15,2.84,5.82,5.82,0,0,0,.94,3L56.81,168a3.86,3.86,0,0,1-1.19-.79,2.47,2.47,0,0,1-.1-2.8c.28-.5.72-1,.53-1.59a2.67,2.67,0,0,0-.36-.54,3.08,3.08,0,0,1,.11-3.77,5.56,5.56,0,0,0,.64-.74c.49-.76.23-1.76.25-2.67a4.06,4.06,0,0,1,4.81-3.87"/><path class="cls-28" d="M64.36,153.15s-2-2.38-4.08-2.1c-2.94.4-3.35,2.38-3.87,3.36,0,0,1.68-2.61,4-2.87C62.44,151.32,64.36,153.15,64.36,153.15Z"/><path class="cls-48" d="M75.68,159.19a15.66,15.66,0,0,0-1-5.91c0-.66,0-1.39-.07-2.22a3.81,3.81,0,0,0-1.46-.17l.12.52c.61.76,1.25,1.73.91,2.64s-1.42,1.43-1.26,2.33c.13.74,1,1,1.54,1.61a1.66,1.66,0,0,1,.19,1.75A5,5,0,0,1,73.49,161a1.55,1.55,0,0,0-.6,1.49,2.58,2.58,0,0,0,.64.88,3.63,3.63,0,0,1,.79,1.75A12.61,12.61,0,0,0,75.68,159.19Z"/><path class="cls-15" d="M43.67,175s-2.09,1.52-5.33,4c-2.61,2-9.45,6.54-12,8.24a40.9,40.9,0,0,1-1,9.5,19.36,19.36,0,0,1-1.7,4.43,4.86,4.86,0,0,0,.55.07c7.06.51,19.79-12.07,19.79-12.07Z"/><path class="cls-15" d="M95.34,183.85a23.59,23.59,0,0,0,3.36,3c1,.75,1.51,1.93,2.76,1.69.43-.09.2,0,1,0C106,184,95.85,163.4,95.85,163.4l-5.32-.61,2.72,18.08h-.07A12.48,12.48,0,0,0,95.34,183.85Z"/><path class="cls-36" d="M79.22,203.37a7.81,7.81,0,0,1,.27.9c-1.63.07-3.26.16-4.9.26-11.26.71-22.48,2.06-33.73,2.93a16.1,16.1,0,0,0,.21-2c.2-9.13-.67-16.6-.67-25.73,0-.17-3.8.39-3.8.22a25.88,25.88,0,0,1,6.7-5.45c2.59-1.31,3.87-1.24,7.32-2.24,1.38,2.49,7.36,6,11.29,6.82,1.26.28,4.41.12,5.5-.52A3.09,3.09,0,0,0,69.25,176a6,6,0,0,0-.51-3c1.81.08,5.82,2.35,7,3A15.78,15.78,0,0,1,79,178.47c-.07,6.66.19,13.31.34,20a2.17,2.17,0,0,1,0,.26A31,31,0,0,0,79.22,203.37Z"/><path class="cls-49" d="M79.74,190a47.66,47.66,0,0,0,0-6.21c0-.17-.56-.05-.54.14a46.75,46.75,0,0,1,0,6.15c0,.21.53.1.54-.08Z"/><path class="cls-15" d="M19,198.82c3.51-2.15,6.54-7,8.61-10.64l-.16-18-5.7-.76S13.39,192.52,19,198.82Z"/><path class="cls-16" d="M27.54,186.59a3.11,3.11,0,0,1,.54,2.18,10.86,10.86,0,0,1-.46,2.39c0,.13.48.06.52-.08a10.3,10.3,0,0,0,.47-2.45A3.14,3.14,0,0,0,28,186.4c-.1-.11-.6.08-.5.19Z"/><path class="cls-36" d="M52.27,189.26l-13.55,6.88-7.47-13.62s10.45-8.49,12-9c4.7-1.81,4.83-1.7,7.53-.78Z"/><path class="cls-49" d="M41.05,195.11c2.58-1.78,5.53-3.47,7.34-6.12a7.1,7.1,0,0,0,.51-7.82c-.13-.22-.64,0-.49.24a6.92,6.92,0,0,1-.86,7.93c-1.82,2.31-4.48,3.86-6.87,5.51-.3.2.14.42.37.26Z"/><path class="cls-15" d="M98.94,192.25s4.26-.72,4.45-5a15.06,15.06,0,0,0-1.83-7.64l-8.75,0s2.86,9.13,3.94,10.71A4.47,4.47,0,0,0,98.94,192.25Z"/><path class="cls-16" d="M92.69,179.86a4.42,4.42,0,0,0,1,4c.11.12.62-.06.5-.2a4.27,4.27,0,0,1-.92-3.89c0-.17-.49-.09-.53.07Z"/><path class="cls-15" d="M17.71,194.47s0,9.91,10.51,6l-2.33-11.36Z"/><path class="cls-16" d="M22.32,163.93l0,0"/><path class="cls-15" d="M20.29,175.39l.76-4.7s-1.38-3.15-1.14-5.18a10,10,0,0,1,.92-3.25s.38-2.21,1.2-2.78,1.18.16,1.18.16,1.15-1.48,2.3-.26a1.44,1.44,0,0,1,2-.6l.12.07s1.86-1.19,2.45.36a15.14,15.14,0,0,1,.2,3.63,28.51,28.51,0,0,1-1.85,4.46c-.78,1.77-.83,3.51-1.29,5.74l-6.81,2.35"/><path class="cls-16" d="M23,159.81c0,.69.12,1.37.13,2.06a3.13,3.13,0,0,1-.42,1.69.73.73,0,0,1-.28.27c-.11.07-.17,0-.26-.05a1.38,1.38,0,0,1-.26-.64,3.27,3.27,0,0,1,0-.44c0-.09,0-.17-.05-.27a2.32,2.32,0,0,0-.07-.65c-.07-.16-.42-.06-.36.09a3.22,3.22,0,0,1,.09.76,3.86,3.86,0,0,0,.16.9.92.92,0,0,0,.4.56.7.7,0,0,0,.7-.15,2.46,2.46,0,0,0,.73-1.73c.07-.81-.13-1.62-.11-2.43,0-.18-.35-.12-.36,0Z"/><path class="cls-16" d="M25.33,159.41c-.11,1.07-.42,2.11-.58,3.18a2.4,2.4,0,0,1-.61,1.59c-.09.08-.16.16-.29.11a.49.49,0,0,1-.23-.26,5,5,0,0,1-.22-.65c0-.12-.39,0-.35.1.15.44.23,1,.81,1s.93-.57,1.07-1a8.34,8.34,0,0,0,.2-1.13c.05-.37.12-.74.2-1.1s.16-.62.22-.94a7.8,7.8,0,0,0,.13-1c0-.13-.34-.07-.35,0Z"/><path class="cls-16" d="M27.57,159a11.07,11.07,0,0,1-.56,3.37,3.16,3.16,0,0,1-.7,1.39.81.81,0,0,1-1,.19.66.66,0,0,1-.35-.66c0-.07-.36,0-.36.09,0,.67.65.91,1.22.79a1.89,1.89,0,0,0,1.3-1.16,11.86,11.86,0,0,0,.57-2,9.56,9.56,0,0,0,.23-2.06c0-.07-.36,0-.36.09Z"/><path class="cls-16" d="M29.67,160.17a1.8,1.8,0,0,1,.06.73,3.8,3.8,0,0,1-.51,1.41c-.21.37-.52.9-1,.84s-.73-.56-.83-1a1,1,0,0,1,.06-.75,2.77,2.77,0,0,0,.31-.62c.06-.21-.29-.21-.34-.05a4.07,4.07,0,0,1-.33.66,1.17,1.17,0,0,0-.09.71,1.53,1.53,0,0,0,.87,1.23,1.13,1.13,0,0,0,.77,0,1.46,1.46,0,0,0,.61-.49A4.45,4.45,0,0,0,30,161.3a2,2,0,0,0,0-1.22c-.06-.17-.41-.07-.35.09Z"/><path class="cls-15" d="M27.43,169.34c.05-.25.21-.15.33-.39.23-.52,1-1.14,1.3-1.92.18-.41.67-1.38.81-1.86a4.64,4.64,0,0,0-.39-1.3,5.62,5.62,0,0,0-.38-.78c-.68-1.12-1.5-1.38-2.37-2.36L25.54,160a1.78,1.78,0,0,0-.37,1.31c-.07.16,1.16,0,1.16.15a3.31,3.31,0,0,0,.07.55c.07.36.16.73.24,1.09a4.78,4.78,0,0,1,.19,1.12.69.69,0,0,1,0,.2.43.43,0,0,1-.14.16,1.4,1.4,0,0,1-.26.16,5.16,5.16,0,0,1-.49.21,12.2,12.2,0,0,0-1.72.8,2.66,2.66,0,0,0-.64.52,1.71,1.71,0,0,0-.29.66,9.13,9.13,0,0,0-.11,2.39,3.39,3.39,0,0,1,0,.9"/><path class="cls-16" d="M29.81,164.2A6.44,6.44,0,0,0,28,161.48a13.91,13.91,0,0,0-1.23-.95l-1-.68a.23.23,0,0,0-.29.05,1.46,1.46,0,0,0-.15,1.84c.29.3.59.58.88.87a2.1,2.1,0,0,1,.4,1.31c0,.51-.6.65-1,.83a8.16,8.16,0,0,0-1.09.58,2.23,2.23,0,0,0-.84.8,3.56,3.56,0,0,0-.18,1.13c0,.18.33.13.36,0,.06-.41,0-.88.27-1.22a3.54,3.54,0,0,1,1.16-.82c.35-.18.72-.34,1.08-.52s.53-.27.58-.57a2.87,2.87,0,0,0-.15-1.12,1.7,1.7,0,0,0-.53-.76c-.26-.26-.76-.6-.84-1a1.57,1.57,0,0,1,.33-1.25l-.28.05c.74.49,1.45,1,2.14,1.53a6.4,6.4,0,0,1,1.91,2.72c.06.16.41.06.35-.1Z"/><path class="cls-16" d="M96.61,158.17l0,0"/><path class="cls-15" d="M98.05,169.6,97,165s1.16-3.25.78-5.25a10,10,0,0,0-1.14-3.18s-.53-2.18-1.39-2.69-1.17.25-1.17.25-1.25-1.41-2.31-.1a1.46,1.46,0,0,0-2-.47l-.12.08s-1.93-1.05-2.41.53a15.23,15.23,0,0,0,0,3.64,34,34,0,0,0,2.63,4.51c.89,1.7,1.51,8.14,2.13,10.33l6-3"/><path class="cls-16" d="M93.86,154.3c.06.62,0,1.24,0,1.85a4,4,0,0,0,.4,1.66c.19.35.55.75,1,.68s.55-.51.62-.85a5.25,5.25,0,0,0,.06-.79,2.82,2.82,0,0,1,0-.71c0-.13-.32-.09-.36,0a2.44,2.44,0,0,0,0,.66c0,.1,0,.2,0,.3s0,.31,0,.47a1.33,1.33,0,0,1-.23.62l-.08.07c.08,0,.09,0,0,0s-.13,0-.18-.07a1,1,0,0,1-.3-.28,3.18,3.18,0,0,1-.53-1.69c0-.68.05-1.36,0-2,0-.12-.37,0-.36.1Z"/><path class="cls-16" d="M91.55,154.05c.06.32.12.65.21,1s.19.59.28.89.19.71.27,1.07a7.1,7.1,0,0,0,.28,1.1c.16.45.64,1,1.17.92s.59-.71.71-1.15c0-.16-.32-.11-.36,0a4.84,4.84,0,0,1-.18.68c-.11.23-.26.25-.45.1a1.48,1.48,0,0,1-.55-.71,6.52,6.52,0,0,1-.22-.87c-.23-1.06-.61-2.07-.8-3.14,0-.15-.38-.06-.36.1Z"/><path class="cls-16" d="M89.29,153.81a9.37,9.37,0,0,0,.39,2.1,11.48,11.48,0,0,0,.71,2,1.67,1.67,0,0,0,1.46,1c.56,0,1.11-.36,1.05-1,0-.08-.36,0-.35.1a.6.6,0,0,1-.43.7,1,1,0,0,1-.9-.31,3.29,3.29,0,0,1-.81-1.4,11.41,11.41,0,0,1-.77-3.25c0-.08-.36,0-.35.09Z"/><path class="cls-16" d="M87.28,155.07a1.8,1.8,0,0,0,0,1,4,4,0,0,0,.79,1.54,1.73,1.73,0,0,0,.61.53,1.24,1.24,0,0,0,.74,0,1.41,1.41,0,0,0,1-1.09,1.27,1.27,0,0,0,0-.84,4.92,4.92,0,0,1-.41-.7c0-.09-.39,0-.36.09.13.37.5.65.51,1.06a1.5,1.5,0,0,1-.56,1.3c-.48.29-1-.3-1.21-.64a4,4,0,0,1-.66-1.35,1.76,1.76,0,0,1,0-.94c0-.08-.32,0-.35.06Z"/><path class="cls-15" d="M90.51,164.07c-.07-.25-.22-.14-.36-.37-.26-.51-1-1.07-1.43-1.83-.21-.4-.76-1.33-.94-1.8a4.68,4.68,0,0,1,.3-1.32,5.6,5.6,0,0,1,.33-.8c.6-1.17,1.4-1.48,2.2-2.53l1.13-.85a1.79,1.79,0,0,1,.46,1.28c.07.15-1.16.06-1.14.23s0,.37,0,.55c0,.37-.11.74-.17,1.11a5.34,5.34,0,0,0-.1,1.13.36.36,0,0,0,.19.34,1.16,1.16,0,0,0,.27.14,5,5,0,0,0,.5.18,12.2,12.2,0,0,1,1.77.68,2.66,2.66,0,0,1,.68.47,1.63,1.63,0,0,1,.33.64,8.71,8.71,0,0,1,.28,2.38,3,3,0,0,0,0,.89"/><path class="cls-16" d="M88.13,159.11a6.44,6.44,0,0,1,1.7-2.85c.38-.35.74-.69,1.14-1l.9-.68-.3,0a1.69,1.69,0,0,1,.45,1.11c0,.47-.41.78-.69,1.11a2.16,2.16,0,0,0-.54.76,3,3,0,0,0-.1,1.19c0,.32.39.43.66.54s.78.29,1.17.46a3.82,3.82,0,0,1,1.1.7c.32.35.28.83.38,1.25,0,.1.37,0,.35-.09a2.83,2.83,0,0,0-.31-1.18,2.65,2.65,0,0,0-.89-.66,11.09,11.09,0,0,0-1.12-.48c-.38-.14-1-.25-1-.74a2.23,2.23,0,0,1,.28-1.37c.25-.32.53-.62.8-.92a.9.9,0,0,0,.25-.82,1.78,1.78,0,0,0-.46-1c-.06-.06-.25,0-.3.05l-.95.73a13.48,13.48,0,0,0-1.14,1,6.61,6.61,0,0,0-1.73,2.9c0,.08.32,0,.35-.06Z"/><path class="cls-17" d="M86.39,146.5l0,0,.08-.09Z"/><path class="cls-50" d="M50.63,171.28s3.64,7.59,14.2,7.11c0,0,3.6-1.14,2.78-7a6.24,6.24,0,0,1,3.51.68,7,7,0,0,1,1.53,8c-.94,1.93-4.48,1.62-7.61-.63,0,0-3.24,4.91-8.86,3.4s-9.75-6.18-8.86-10.55Z"/><path class="cls-48" d="M54.81,156.54s-2.17.23-2.28,1.55,1,.86,1.22.37S54,157,54.81,156.54Z"/><path class="cls-48" d="M53.87,160s-2.31,1.15-1.88,2.67,1.5.51,1.5-.1S53.17,160.84,53.87,160Z"/><path class="cls-48" d="M76,153.6s2.18.23,2.29,1.56-1,.85-1.22.37S76.85,154.06,76,153.6Z"/><path class="cls-48" d="M77,157.06s2.31,1.16,1.88,2.67-1.5.51-1.5-.09S77.69,157.9,77,157.06Z"/></g></g></svg>