<svg xmlns="http://www.w3.org/2000/svg" xmlns:xlink="http://www.w3.org/1999/xlink" viewBox="0 0 292.89 301.99"><defs><style>.cls-1,.cls-12,.cls-38,.cls-43{fill:none;}.cls-2{isolation:isolate;}.cls-3{clip-path:url(#clip-path);}.cls-4{fill:#f2ebd1;}.cls-5{fill:#a4a3a4;}.cls-6{opacity:0.8;}.cls-30,.cls-7,.cls-8{fill:#fff;}.cls-7,.cls-8{stroke:#a5a4a4;}.cls-12,.cls-38,.cls-43,.cls-7,.cls-8{stroke-miterlimit:10;}.cls-7{stroke-width:0.56px;}.cls-8{stroke-width:0.56px;}.cls-9{fill:#c79e81;}.cls-10{fill:#4f2e25;}.cls-11{fill:#0a2f44;}.cls-12{stroke:#1d1e1e;stroke-width:1.07px;}.cls-13{fill:#513835;}.cls-14{fill:#231f20;}.cls-15{fill:#151210;}.cls-16{fill:#1d170f;}.cls-17{fill:#906143;}.cls-18{fill:#31160e;}.cls-19{fill:#f1eef7;}.cls-20{fill:#13110f;}.cls-21{fill:#f58235;opacity:0.67;}.cls-22{fill:#a382ad;}.cls-23{fill:#565656;}.cls-24{fill:#848484;}.cls-25,.cls-26{fill:#cfcfcf;}.cls-26{mix-blend-mode:multiply;opacity:0.27;}.cls-27{fill:#27153c;}.cls-28{fill:#774e80;}.cls-29{fill:#975449;}.cls-31{fill:#52656c;}.cls-32{fill:#aa834f;}.cls-33{fill:#7a5931;}.cls-34{fill:#517568;}.cls-35{fill:#162916;}.cls-36{fill:#f47920;}.cls-37{fill:#ad3624;}.cls-38,.cls-43{stroke:#282b2b;}.cls-38{stroke-width:2.14px;}.cls-39{fill:#61686c;}.cls-40{fill:#282b2b;}.cls-41{fill:#8e8e8e;}.cls-42{fill:#383838;}.cls-43{stroke-width:2.24px;}</style><clipPath id="clip-path"><path class="cls-1" d="M245,72.64c3-15.58,6-49.62-24.19-53.89,0,0-22.83-5.52-30.3,15.52A126.64,126.64,0,0,0,36,93.49a13.08,13.08,0,0,0-4.19,2,12.06,12.06,0,0,0-3.88,6l-.95.88a8.33,8.33,0,0,0-2.24,3.45c-2.41,7.34-.83,11.94.65,14.31A126.5,126.5,0,1,0,245,72.64Z"/></clipPath></defs><g class="cls-2"><g id="Layer_7" data-name="Layer 7"><g class="cls-3"><circle class="cls-4" cx="147.28" cy="153.27" r="126.49" transform="translate(-65.24 149.03) rotate(-45)"/><polyline class="cls-5" points="162.45 279.98 162.45 118.19 -47.33 118.19 -47.33 279.98"/><g class="cls-6"><rect class="cls-7" x="93.46" y="168.19" width="22.42" height="23.32"/><rect class="cls-7" x="93.46" y="143.81" width="22.42" height="23.32"/><rect class="cls-7" x="-0.08" y="168.15" width="22.42" height="23.32"/><rect class="cls-7" x="23.27" y="168.17" width="22.42" height="23.32"/><rect class="cls-7" x="-0.08" y="143.77" width="22.42" height="23.32"/><rect class="cls-7" x="23.27" y="143.78" width="22.42" height="23.32"/><rect class="cls-7" x="-0.08" y="119.37" width="22.42" height="23.32"/><rect class="cls-7" x="23.27" y="119.39" width="22.42" height="23.32"/><rect class="cls-7" x="46.8" y="168.17" width="22.42" height="23.32"/><rect class="cls-7" x="70.14" y="168.19" width="22.42" height="23.32"/><rect class="cls-7" x="46.8" y="143.79" width="22.42" height="23.32"/><rect class="cls-7" x="70.14" y="143.81" width="22.42" height="23.32"/><rect class="cls-7" x="46.8" y="119.4" width="22.42" height="23.32"/><rect class="cls-7" x="70.14" y="119.41" width="22.42" height="23.32"/><rect class="cls-7" x="116.8" y="168.2" width="22.42" height="23.32"/><rect class="cls-7" x="116.8" y="143.82" width="22.42" height="23.32"/><rect class="cls-7" x="93.46" y="119.41" width="22.42" height="23.32"/><rect class="cls-7" x="116.8" y="119.43" width="22.42" height="23.32"/><rect class="cls-7" x="140.01" y="168.18" width="22.42" height="23.32"/><rect class="cls-7" x="140.01" y="143.8" width="22.42" height="23.32"/><rect class="cls-7" x="140.01" y="119.41" width="22.42" height="23.32"/><rect class="cls-7" x="93.48" y="241.71" width="22.42" height="23.32"/><rect class="cls-7" x="93.48" y="217.33" width="22.42" height="23.32"/><rect class="cls-7" x="-0.06" y="241.67" width="22.42" height="23.32"/><rect class="cls-7" x="23.29" y="241.68" width="22.42" height="23.32"/><rect class="cls-7" x="-0.06" y="217.29" width="22.42" height="23.32"/><rect class="cls-7" x="23.29" y="217.3" width="22.42" height="23.32"/><rect class="cls-7" x="-0.06" y="192.89" width="22.42" height="23.32"/><rect class="cls-7" x="23.29" y="192.91" width="22.42" height="23.32"/><rect class="cls-7" x="46.82" y="241.69" width="22.42" height="23.32"/><rect class="cls-7" x="70.16" y="241.71" width="22.42" height="23.32"/><rect class="cls-7" x="46.82" y="217.31" width="22.42" height="23.32"/><rect class="cls-7" x="70.16" y="217.33" width="22.42" height="23.32"/><rect class="cls-7" x="46.82" y="192.92" width="22.42" height="23.32"/><rect class="cls-7" x="70.16" y="192.93" width="22.42" height="23.32"/><rect class="cls-7" x="116.82" y="241.72" width="22.42" height="23.32"/><rect class="cls-7" x="116.82" y="217.34" width="22.42" height="23.32"/><rect class="cls-7" x="93.48" y="192.93" width="22.42" height="23.32"/><rect class="cls-7" x="116.82" y="192.94" width="22.42" height="23.32"/><rect class="cls-7" x="140.03" y="241.7" width="22.42" height="23.32"/><rect class="cls-7" x="140.03" y="217.32" width="22.42" height="23.32"/><rect class="cls-7" x="140.03" y="192.92" width="22.42" height="23.32"/></g><polyline class="cls-5" points="331.32 280.15 331.32 118.35 162.48 118.35 162.48 280.15"/><g class="cls-6"><rect class="cls-8" x="163.22" y="168.04" width="22.59" height="23.32"/><rect class="cls-8" x="163.22" y="143.65" width="22.59" height="23.32"/><rect class="cls-8" x="163.22" y="119.26" width="22.59" height="23.32"/><rect class="cls-8" x="186.71" y="168.04" width="22.59" height="23.32"/><rect class="cls-8" x="210.22" y="168.05" width="22.59" height="23.32"/><rect class="cls-8" x="186.71" y="143.65" width="22.59" height="23.32"/><rect class="cls-8" x="210.22" y="143.67" width="22.59" height="23.32"/><rect class="cls-8" x="186.71" y="119.26" width="22.59" height="23.32"/><rect class="cls-8" x="210.22" y="119.27" width="22.59" height="23.32"/><rect class="cls-8" x="233.97" y="168.04" width="22.59" height="23.32"/><rect class="cls-8" x="257.48" y="168.06" width="22.59" height="23.32"/><rect class="cls-8" x="233.97" y="143.66" width="22.59" height="23.32"/><rect class="cls-8" x="257.48" y="143.68" width="22.59" height="23.32"/><rect class="cls-8" x="233.97" y="119.27" width="22.59" height="23.32"/><rect class="cls-8" x="257.48" y="119.28" width="22.59" height="23.32"/><rect class="cls-8" x="280.97" y="168.06" width="22.59" height="23.32"/><rect class="cls-8" x="280.97" y="143.68" width="22.59" height="23.32"/><rect class="cls-8" x="280.97" y="119.28" width="22.59" height="23.32"/><rect class="cls-8" x="163.24" y="241.55" width="22.59" height="23.32"/><rect class="cls-8" x="163.24" y="217.17" width="22.59" height="23.32"/><rect class="cls-8" x="163.24" y="192.78" width="22.59" height="23.32"/><rect class="cls-8" x="186.73" y="241.55" width="22.59" height="23.32"/><rect class="cls-8" x="210.24" y="241.57" width="22.59" height="23.32"/><rect class="cls-8" x="186.73" y="217.17" width="22.59" height="23.32"/><rect class="cls-8" x="210.24" y="217.19" width="22.59" height="23.32"/><rect class="cls-8" x="186.73" y="192.78" width="22.59" height="23.32"/><rect class="cls-8" x="210.24" y="192.79" width="22.59" height="23.32"/><rect class="cls-8" x="233.99" y="241.56" width="22.59" height="23.32"/><rect class="cls-8" x="257.5" y="241.57" width="22.59" height="23.32"/><rect class="cls-8" x="233.99" y="217.18" width="22.59" height="23.32"/><rect class="cls-8" x="257.5" y="217.19" width="22.59" height="23.32"/><rect class="cls-8" x="233.99" y="192.78" width="22.59" height="23.32"/><rect class="cls-8" x="257.5" y="192.8" width="22.59" height="23.32"/><rect class="cls-8" x="280.99" y="241.57" width="22.59" height="23.32"/><rect class="cls-8" x="280.99" y="217.19" width="22.59" height="23.32"/><rect class="cls-8" x="280.99" y="192.8" width="22.59" height="23.32"/></g><path class="cls-9" d="M146.11,120.59c0-.25.09-.5.13-.75.6-3.62.53-7.82-1.87-10.8a8.66,8.66,0,0,1-4.42-6.11,74,74,0,0,0-1.58-9.56c-.76-3.52-1.31-6-3-5.93a.78.78,0,0,0-.65.33c-.78,1-.27,4.27-.07,5.72.24,1.74,1,7.65,1,8.06a4.32,4.32,0,0,0-1.23.28s-1.33-4.19-1.9-5.6a60.72,60.72,0,0,1-1.67-6.2c-.16-.8-1.28-3-2.59-2.69a1.24,1.24,0,0,0-.74.47c-.63.79-.63,2.45-.1,4.66.69,2.89,2.35,9.57,3.5,11l-.48.21s-1.24-2.17-1.88-3.33l-.08-.13a1.92,1.92,0,0,0-2.41.82,4.86,4.86,0,0,0-.23,2.29c.57,1.09,1.67,2.8,1.67,2.8s0,.22-.52.69a9.67,9.67,0,0,0-2.57-2.58,8.29,8.29,0,0,0-.93-.29,1.56,1.56,0,0,0-1.41,1.22,4.93,4.93,0,0,0,.39,2.84c.22.31.45.62.68,1h0a15.62,15.62,0,0,1,1.38,2.41c.83,1.8,2,5.79,3.07,8.29a22.68,22.68,0,0,0,4.82,6.44,55.86,55.86,0,0,1,1.19,10.18,8.21,8.21,0,0,0,3.39.57,11.66,11.66,0,0,0,4.35-1,18.37,18.37,0,0,0,6.08-4.36,43.19,43.19,0,0,1-2.69-8.41C145.29,122.57,145.72,121.09,146.11,120.59Z"/><path class="cls-10" d="M132.46,126.82c1.16.63,2.53.28,3.73,0a9.06,9.06,0,0,0,3.55-1.59c.38-.31-.22-.48-.48-.27a7.54,7.54,0,0,1-3,1.37c-1,.27-2.26.66-3.25.12-.25-.13-.91.21-.58.39Z"/><path class="cls-10" d="M135.3,118.32c.46-2.63,2.33-4.55,4.22-6.28.12-.11-.11-.11-.17-.1a.88.88,0,0,0-.49.17c-1.94,1.77-3.83,3.72-4.3,6.4,0,.07.7,0,.74-.19Z"/><path class="cls-11" d="M23.23,278.35c2.45.21,4.57,1.48,11.19,2.51a80.16,80.16,0,0,0,10.46,1.21,18.74,18.74,0,0,0,5.74-.43c.9-.18,2.78-.8,3.66-1l.6-3.82.95-38.34L62,219,20.7,218l-1,6.46a53.36,53.36,0,0,0,.12,16.35l3.65,19.32S23.29,275.65,23.23,278.35Z"/><path class="cls-11" d="M62,283.9c3.78-.28,8.68-.86,11.42-3.14l1.17-57.07L53.68,218l-4.42,64.15C53.46,282.21,57.83,284.21,62,283.9Z"/><path class="cls-12" d="M55,282.09l1.27-38.65s2.77-6.28,4.74-6.4"/><path class="cls-9" d="M67.46,130.2a40.66,40.66,0,0,0-.16-8.56c0-1.14,0-2.46.06-4.06,0-.46,0-.9,0-1.34a3.89,3.89,0,0,1,0-.68c-.33-7.77-2.93-11.81-2.93-11.81A17.1,17.1,0,0,0,49.2,96c-7.17.21-13.6,4.63-16.93,9a11.15,11.15,0,0,0-2.22,7.64,45.42,45.42,0,0,0,1.41,7.49c-2.51-.09-4.95.83-4,5.44,1.32,6.36,5.44,8.29,7.36,6.52.44.08,1.35,2,1.46,3.33.23,2.54.17,7.06-1.06,9.29l.07.73c5.49,8.66,8.72,13.67,27.15,8.34l-6-8.41-.07-2.86a7.62,7.62,0,0,0,3.09-.46C65.23,140.53,67.16,133.1,67.46,130.2Z"/><path class="cls-13" d="M7.14,177.73a.41.41,0,0,0,.05.09l.17-.19Z"/><path class="cls-10" d="M56.34,142.56a22.69,22.69,0,0,1-13-3.38s.76,2,5.15,3.55a17.61,17.61,0,0,0,7.87.93Z"/><ellipse class="cls-14" cx="64.3" cy="119.67" rx="1.53" ry="1.52" transform="translate(-66.87 155.03) rotate(-76.84)"/><path class="cls-15" d="M66.09,118.38a5,5,0,0,0-3.21-.61c-2.36.23-3.41,3.2-3.41,3.2A5.26,5.26,0,0,1,63,118.42a8.53,8.53,0,0,1,3.83.93A1.9,1.9,0,0,0,66.09,118.38Z"/><path class="cls-14" d="M29.42,125.89a3,3,0,0,1,0-2.5l-.2.11s0,0,0,0,0,0,0,0l.09,0a1.89,1.89,0,0,1,.57.32,10.15,10.15,0,0,1,2.25,2.87l.32-.18a1.28,1.28,0,0,0-.92-.26.81.81,0,0,0-.57.84c0,1,.88,1.49,1.77,1.58.16,0,.39-.23.14-.25a1.5,1.5,0,0,1-1.51-1.19c0-.19,0-.62.17-.72s.48.1.62.2.42,0,.33-.18A14.16,14.16,0,0,0,31,124.35a4.23,4.23,0,0,0-1-.89,1.18,1.18,0,0,0-.55-.2c-.23,0-.32.12-.4.31A3.42,3.42,0,0,0,29,126c.05.15.44.05.38-.1Z"/><ellipse class="cls-16" cx="48.45" cy="119.97" rx="1.53" ry="1.52" transform="translate(-79.4 139.83) rotate(-76.84)"/><path class="cls-15" d="M52.73,120.94s-2.32-3.08-4.91-2.85c-3.66.33-4.29,1.85-5,3a9,9,0,0,1,5.07-2.41C50.47,118.55,52.73,120.94,52.73,120.94Z"/><path class="cls-17" d="M57,131.81c-2.2,0-5.75-.22-5.75-.22s-.26,6.17,5.82,6c5.09-.11,5.16-6,5.16-6S59.17,131.79,57,131.81Z"/><path class="cls-18" d="M57,131.81l-4.93,0a4.88,4.88,0,0,0,4.7,3.6A4.44,4.44,0,0,0,61.46,132Z"/><path class="cls-19" d="M57.05,132.29c-1,0-4.22-.15-4.22-.15s1.25.85,4.38.84,4-.86,4-.86Z"/><path class="cls-17" d="M62.19,131.6c0-.11-.23-.16-.75-.2-.86-.06-1.15-.37-1.77-.41a9.35,9.35,0,0,0-2.21.34,9.71,9.71,0,0,0-2.21-.32c-.63.05-2.18.28-3,.36a7.15,7.15,0,0,1-1.24-.12c-.15,0,.22,1.46,6.06,1.42S62.19,131.76,62.19,131.6Z"/><path class="cls-20" d="M51.32,113.16s-.19,0-.2,0a16.68,16.68,0,0,0-5.74,1.26,5.38,5.38,0,0,0-1.45,1.21,8.56,8.56,0,0,0-1.25,1.74c-.07.4.83-.46.83-.46a5.34,5.34,0,0,1,.56-.41,13.42,13.42,0,0,1,3.67-1.7,18.67,18.67,0,0,1,4.09,0C51.68,114.22,51.42,113.74,51.32,113.16Z"/><path class="cls-20" d="M59.54,113.34s.16,0,.17-.07a12.9,12.9,0,0,1,5.1.66A4.5,4.5,0,0,1,66.12,115a7.68,7.68,0,0,1,1.17,1.59c.07.39-.76-.38-.76-.38a3.39,3.39,0,0,0-.5-.34,10.21,10.21,0,0,0-3.29-1.31,14.9,14.9,0,0,0-3.59.45C59.26,114.42,59.46,113.92,59.54,113.34Z"/><path class="cls-15" d="M34,125a.61.61,0,0,1,0-.11,5.68,5.68,0,0,0-1.53-2.38,4.81,4.81,0,0,0-1.18-.8,4.88,4.88,0,0,0-1.38-.46,3.7,3.7,0,0,0-2,.07l-.34.15c-1.8-5.49-2.67-11.38,1.25-18.23,1.13-2,4.16-4.18,5.08-4.89,5.61-4.25,10.69-4.64,17-4.13,7.26.58,14.12,5.11,15.93,12.4a13.52,13.52,0,0,1,.68,4.74s-1.55-6.63-5.08-8.65-4.11,1.06-9.06,1.26c-5.73.21-7.67-2.87-12.23-.39a11.49,11.49,0,0,0-5.33,6c-.59,2.51-1.71,4.2-.95,7,.18.68.33,1.36.46,2.05a18.38,18.38,0,0,1,.09,3.78,2.4,2.4,0,0,1-.85,1.64C33.92,124.45,34.58,125.18,34,125Z"/><path class="cls-14" d="M34.37,124.87c-.62-2.88-4.31-4.89-7-3.66l.58.13c-1.4-4.29-2.08-8.76-.85-13.18a15.17,15.17,0,0,1,3.47-6.64A29.71,29.71,0,0,1,35,97.86a21.51,21.51,0,0,1,13.63-3.5c4.39.2,8.59,1.23,12.12,4a15.72,15.72,0,0,1,4.34,5.15,16.3,16.3,0,0,1,1.89,7.9l.81-.14a16.78,16.78,0,0,0-3.73-7.62,5.46,5.46,0,0,0-4.19-1.89c-1.59.15-3,1.24-4.5,1.63a14.89,14.89,0,0,1-7.63-.51,9.5,9.5,0,0,0-4.9-.33,11.55,11.55,0,0,0-7.48,6.82c-.72,2-1.52,4.35-1.21,6.48A41.21,41.21,0,0,1,35,121a7.37,7.37,0,0,1-.08,1.41,4.16,4.16,0,0,1-.77,1.49,1.46,1.46,0,0,0-.24.3,1.87,1.87,0,0,0-.08.32c-.07.27,0,.32.27.15-.39,0-.81.51-.27.58l.21,0a.56.56,0,0,0,.47-.17c.19-.25,0-.38.13-.65s.53-.62.72-1a6,6,0,0,0,.41-3.35c-.18-2.68-1.22-5.12-.48-7.8.94-3.41,2.17-6.22,5.34-8.21a7.3,7.3,0,0,1,6.14-.92,24.76,24.76,0,0,0,5.6,1,12.19,12.19,0,0,0,5.41-1.18c1.72-.8,3-1,4.71.14C65,105,66.34,108.54,67,111.45c.08.35.79.18.81-.14A16.58,16.58,0,0,0,62.71,99a19.76,19.76,0,0,0-12.16-5.1c-4.69-.35-9.38-.06-13.62,2.15-4,2.06-7.77,5.15-9.61,9.26-2.37,5.32-1.95,10.86-.19,16.28.08.23.41.21.58.13,2.32-1.06,5.36,1.08,5.85,3.4C33.64,125.46,34.45,125.25,34.37,124.87Z"/><path class="cls-20" d="M27.53,121.45s-6.08-4.76-2.29-16.3a8.26,8.26,0,0,1,2.24-3.45l.95-.89a12.06,12.06,0,0,1,3.88-6c3.09-2.54,10.95-3.18,14.42-5.41s4.38-4,4.38-4S52.88,88.08,53,90c0,0,11.9.48,14.46,16.14,0,0-11.53-13.12-24.09-8S27.53,121.45,27.53,121.45Z"/><path class="cls-20" d="M49,90.17s3.08.5,5.77-2.82c0,0,3.19,3.62.94,6.25"/><path class="cls-20" d="M56.39,128.61a4.41,4.41,0,0,0,1.79.36,4.85,4.85,0,0,0,1.69-.25,1.65,1.65,0,0,0,1.07-2,18,18,0,0,1-.71-1.7c0-.15-.34-.07-.3.08a18,18,0,0,0,.71,1.7,1.31,1.31,0,0,1-.32,1.4,2.36,2.36,0,0,1-1.56.55,4.46,4.46,0,0,1-2.2-.31c-.14-.07-.35.13-.17.21Z"/><path class="cls-20" d="M53.77,126.44a.65.65,0,0,0-.63.37,1.71,1.71,0,0,0-.13.81,1.12,1.12,0,0,0,.23.75,1.54,1.54,0,0,0,1,.42,1.51,1.51,0,0,0,.7-.07c.26-.08.5-.22.77-.28,0,0,.15,0,.14-.08s-.15,0-.17,0a3.62,3.62,0,0,0-.55.2,1.36,1.36,0,0,1-.55.14,1.67,1.67,0,0,1-.92-.29,1.32,1.32,0,0,1-.33-1.32,1,1,0,0,1,.12-.37.51.51,0,0,1,.09-.13l0,0s-.08,0,0,0a.39.39,0,0,0,.21-.06s.05,0,0-.06Z"/><path class="cls-21" d="M212,22.45a14.15,14.15,0,0,0-2-.62c-1.27-.19-2.45.92-3.71,1.11a5.1,5.1,0,0,1-2.56-.36A9.12,9.12,0,0,0,202,22a1.59,1.59,0,0,0-1.13.23c-.21.13-.16,0-.22.24.08-.29.08.38.08.41a1.81,1.81,0,0,1-1,1.81l.15,2.22a1.79,1.79,0,0,0,1.91,1.67l10.62-.7a1.82,1.82,0,0,0,1.68-1.92l-.21-3.18A6.62,6.62,0,0,1,212,22.45Z"/><path class="cls-22" d="M198.67,98.52s-18.83,3.11-25.82,12.88c-5.5,7.68-8.14,21.6-11,29.24s-4.05,10-5,13.34c-1.16,4.37-8.72,16.41-3.6,23.32s7.75,7.94,17.33,4.59c5.6-1.94,15.66-16.73,19.11-22.2Z"/><path class="cls-22" d="M167,197.32c5.1-1.89,12.88-13.58,15.19-20,1.44-4-5.24-2.13-3.07-5.78l-9.49,1-16.74-33.35L147,125.24c-6.05,4.17-9.54,3-16.81,4.08,4.36,21,9.8,41.26,15.88,61.75a9.32,9.32,0,0,0,3.62,4.52,17.66,17.66,0,0,0,10,2.94C160.87,198.43,166.58,197.48,167,197.32Z"/><path class="cls-22" d="M239,189.17c3.67,5,5.27,7.52,9.73,8.24,4.3.69,11.09-1.76,20-5.31,7.08-2.81,11.66-10.63,11.17-18.58-.84-13.92-4-38.37-6.41-52.7-2.77-16.54-28.67-24.32-28.67-24.32Z"/><path class="cls-22" d="M257.61,213.28a37.92,37.92,0,0,0-2.13-6.38,27.29,27.29,0,0,1-1.13-6c-1.14-10.41-1.14-18.93-.46-24,.48-3.56,5.55-5.71,7.61-12.54,1.8-6-9.82-56.86-9.82-56.86L239,101.64l-6,1.09-.35-.2a2.94,2.94,0,0,0,0,.82l.06.43a15.26,15.26,0,0,1-12,7.72,36.73,36.73,0,0,1-5.23.06c-5.71-.35-10-3.11-13.34-7.78l-.1-1.87L191.31,105l-9.38,6.81-10.71,44.74c.47,8.4-.58,5.94,2.92,13.59l3.93,4.92.3,25.89s-1.89,7-5.46,18h85.64C258.19,217.15,257.92,215.06,257.61,213.28Z"/><path class="cls-22" d="M168.87,243.14s2.14-39.4,10.5-49.7h74.48s15.37,41,16.24,49.57Z"/><path class="cls-23" d="M120.18,203.4Z"/><rect class="cls-24" x="-50.87" y="240.94" width="385.01" height="42.93"/><path class="cls-25" d="M91.18,214.65l-.07-.07Z"/><path class="cls-25" d="M91,214.44l-.09-.11Z"/><path class="cls-25" d="M91.08,214.54l-.07-.08Z"/><path class="cls-25" d="M90.89,214.32a.36.36,0,0,1-.07-.1A.36.36,0,0,0,90.89,214.32Z"/><path class="cls-25" d="M91.42,214.88l-.1-.09Z"/><path class="cls-25" d="M90.8,214.19s0-.05-.06-.07S90.77,214.17,90.8,214.19Z"/><path class="cls-25" d="M91.53,215l-.08-.08Z"/><path class="cls-25" d="M91.82,215.22l-.13-.1Z"/><path class="cls-25" d="M91.67,215.1l-.1-.08Z"/><path class="cls-25" d="M90.27,213a.22.22,0,0,0,0-.08A.22.22,0,0,1,90.27,213Z"/><path class="cls-25" d="M90.36,213.37a.31.31,0,0,0,0-.08A.31.31,0,0,1,90.36,213.37Z"/><path class="cls-25" d="M90.33,213.26s0-.06,0-.09S90.32,213.23,90.33,213.26Z"/><path class="cls-25" d="M90.41,213.51s0-.07,0-.11S90.4,213.47,90.41,213.51Z"/><path class="cls-25" d="M90.72,214.09a.35.35,0,0,0-.06-.09A.35.35,0,0,1,90.72,214.09Z"/><path class="cls-25" d="M90.3,213.15a.43.43,0,0,0,0-.11A.43.43,0,0,1,90.3,213.15Z"/><path class="cls-25" d="M90.65,214a.6.6,0,0,1-.06-.11A.6.6,0,0,0,90.65,214Z"/><path class="cls-25" d="M90.57,213.84a.2.2,0,0,1,0-.08A.2.2,0,0,0,90.57,213.84Z"/><path class="cls-25" d="M90.51,213.73l0-.08Z"/><path class="cls-25" d="M90.46,213.62l0-.11Z"/><path class="cls-25" d="M91.31,214.78l-.1-.1Z"/><path class="cls-25" d="M140.24,215.64l-.13.1Z"/><path class="cls-25" d="M139.94,215.86l-.29.2Z"/><path class="cls-25" d="M140.08,215.75a.48.48,0,0,1-.11.09A.48.48,0,0,0,140.08,215.75Z"/><path class="cls-25" d="M139.62,216.07l-.13.08Z"/><path class="cls-25" d="M140.62,215.33l-.09.08Z"/><path class="cls-25" d="M140.86,215.1a2.23,2.23,0,0,1-.22.21A2.23,2.23,0,0,0,140.86,215.1Z"/><path class="cls-25" d="M92,215.32l-.11-.08Z"/><path class="cls-25" d="M140.5,215.43l-.11.09Z"/><path class="cls-25" d="M140.38,215.53l-.14.11Z"/><path class="cls-25" d="M139.46,216.17l-.14.08Z"/><path class="cls-25" d="M92.56,215.75l-.11-.08Z"/><path class="cls-25" d="M92.41,215.64l-.29-.19Z"/><path class="cls-25" d="M92.09,215.42l-.1-.07Z"/><path class="cls-25" d="M92.74,215.85l-.13-.08Z"/><path class="cls-25" d="M112.35,216.06l-.14-.08Z"/><path class="cls-25" d="M92.93,216l-.16-.09Z"/><path class="cls-25" d="M112.53,216.16l-.13-.07Z"/><path class="cls-25" d="M138.93,216.47l-.15.08Z"/><path class="cls-25" d="M139.3,216.26l-.34.2Z"/><path class="cls-25" d="M141.54,214.2a.59.59,0,0,1,0,.08A.59.59,0,0,0,141.54,214.2Z"/><path class="cls-25" d="M141.81,213.37a.28.28,0,0,1,0,.09A.28.28,0,0,0,141.81,213.37Z"/><path class="cls-25" d="M141.66,214s0,.07,0,.1S141.64,214,141.66,214Z"/><path class="cls-25" d="M141.17,214.76l-.09.11Z"/><path class="cls-25" d="M141.41,214.42a.33.33,0,0,1-.06.1A.33.33,0,0,0,141.41,214.42Z"/><path class="cls-25" d="M141.06,214.89,141,215Z"/><path class="cls-25" d="M141.25,214.66l-.07.09Z"/><path class="cls-25" d="M141.8,213.49a.38.38,0,0,1,0,.1A.38.38,0,0,0,141.8,213.49Z"/><path class="cls-25" d="M141.83,213.26a.19.19,0,0,0,0,.08A.19.19,0,0,1,141.83,213.26Z"/><path class="cls-25" d="M141.74,213.74l0,.07Z"/><path class="cls-25" d="M141.7,213.85l0,.09Z"/><path class="cls-25" d="M141.33,214.55l-.06.08Z"/><path class="cls-25" d="M141.77,213.62a.19.19,0,0,0,0,.08A.19.19,0,0,1,141.77,213.62Z"/><path class="cls-25" d="M90.25,212.78v0Z"/><path class="cls-25" d="M90.26,212.89v0Z"/><path class="cls-25" d="M141.48,214.31s0,.07-.06.11S141.47,214.34,141.48,214.31Z"/><path class="cls-25" d="M141.6,214.09l0,.08Z"/><path class="cls-25" d="M141,215l-.08.08Z"/><path class="cls-26" d="M138.78,216.55l0,0Z"/><path class="cls-26" d="M92.45,215.67l0,0Z"/><path class="cls-26" d="M92.77,215.87l0,0Z"/><path class="cls-26" d="M112.57,216.18l0,0Z"/><path class="cls-26" d="M141.42,214.42h0Z"/><path class="cls-26" d="M93,216l0,0Z"/><path class="cls-26" d="M112.4,216.09l-.05,0Z"/><path class="cls-26" d="M141.35,214.52s0,0,0,0S141.35,214.53,141.35,214.52Z"/><path class="cls-26" d="M92.61,215.77l0,0Z"/><path class="cls-26" d="M140.88,215.08l0,0Z"/><path class="cls-26" d="M140.24,215.64Z"/><path class="cls-26" d="M140.39,215.52h0Z"/><path class="cls-26" d="M141,215l0,0Z"/><path class="cls-26" d="M141.5,214.28l0,0Z"/><path class="cls-26" d="M140.53,215.41l0,0Z"/><path class="cls-26" d="M140.11,215.74h0Z"/><path class="cls-26" d="M140.64,215.31l0,0Z"/><path class="cls-26" d="M141.27,214.63l0,0Z"/><path class="cls-26" d="M139.32,216.25h0Z"/><path class="cls-26" d="M139,216.46h0Z"/><path class="cls-26" d="M141.18,214.75h0Z"/><path class="cls-26" d="M139.49,216.15l0,0Z"/><path class="cls-26" d="M141.08,214.87l0,0Z"/><path class="cls-26" d="M140,215.84l0,0Z"/><path class="cls-26" d="M139.65,216.06h0Z"/><path class="cls-26" d="M141.67,213.94s0,0,0,0S141.66,214,141.67,213.94Z"/><path class="cls-26" d="M90.47,213.65s0,0,0,0S90.47,213.64,90.47,213.65Z"/><path class="cls-26" d="M90.59,213.87l0,0Z"/><path class="cls-26" d="M90.66,214v0Z"/><path class="cls-26" d="M90.53,213.76l0,0Z"/><path class="cls-26" d="M141.82,213.34a0,0,0,0,0,0,0A0,0,0,0,1,141.82,213.34Z"/><path class="cls-26" d="M141.8,213.46v0Z"/><path class="cls-26" d="M90.82,214.22s0,0,0,0S90.81,214.22,90.82,214.22Z"/><path class="cls-26" d="M90.74,214.12l0,0Z"/><path class="cls-26" d="M92.12,215.45l0,0Z"/><path class="cls-26" d="M90.26,212.81v0Z"/><path class="cls-26" d="M90.28,213a0,0,0,0,0,0,0A0,0,0,0,1,90.28,213Z"/><path class="cls-26" d="M90.31,213.17v0Z"/><path class="cls-26" d="M90.41,213.51Z"/><path class="cls-26" d="M141.77,213.59v0Z"/><path class="cls-26" d="M90.34,213.29s0,0,0,0S90.34,213.28,90.34,213.29Z"/><path class="cls-26" d="M90.37,213.4a0,0,0,0,0,0,0A0,0,0,0,1,90.37,213.4Z"/><path class="cls-26" d="M91.69,215.12l0,0Z"/><path class="cls-26" d="M141.61,214.06v0Z"/><path class="cls-26" d="M91.57,215l0,0Z"/><path class="cls-26" d="M141.56,214.17l0,0Z"/><path class="cls-26" d="M90.9,214.33h0Z"/><path class="cls-26" d="M92,215.35l0,0Z"/><path class="cls-26" d="M91.84,215.24s0,0,0,0S91.84,215.23,91.84,215.24Z"/><path class="cls-26" d="M90.26,212.93v0Z"/><path class="cls-26" d="M141.75,213.7a.06.06,0,0,0,0,0A.06.06,0,0,1,141.75,213.7Z"/><path class="cls-26" d="M91.11,214.58l0,0Z"/><path class="cls-26" d="M91,214.46l0,0Z"/><path class="cls-26" d="M91.45,214.91l0,0Z"/><path class="cls-26" d="M141.71,213.81s0,0,0,0S141.71,213.83,141.71,213.81Z"/><path class="cls-26" d="M91.21,214.68l0,0Z"/><path class="cls-26" d="M91.32,214.79h0Z"/><path class="cls-27" d="M175.5,128.44c.12,5.59-1.31,11-2.88,16.28-1.46,4.95-2.84,9.92-2.69,15.13a17,17,0,0,0,4,10.89c.69.81,1.47,1.53,2.14,2.36a10.06,10.06,0,0,1,1.61,2,9.58,9.58,0,0,1,.07,2.57l.17,7.18c0,.27.58.17.58-.06l-.15-6.13c0-1.08,0-2.2-.08-3.28s-1.15-1.9-1.79-2.68a33.71,33.71,0,0,1-4-5.06,16.26,16.26,0,0,1-1.84-6.14c-.53-5.12.64-10.17,2.06-15.06,1.72-5.92,3.54-11.84,3.4-18.08,0-.27-.58-.17-.57.06Z"/><path class="cls-27" d="M253.36,113.64a20.55,20.55,0,0,0-4.65,16.24l1,8.57L253,166.5l.85,7.22c0,.11.59,0,.57-.16l-2.21-18.71-2.87-24.29a36.29,36.29,0,0,1-.35-3.75,19.94,19.94,0,0,1,4.85-13.21c.12-.14-.42-.07-.52,0Z"/><path d="M137.23,184.82l.08,0v-.18Z"/><path d="M137.71,185.93l.07,0v-.19Z"/><path class="cls-28" d="M228.68,122.83c3.2-1.72,16.94-17.82,16.94-17.82,5.48-6.77,9.26-5.06,2.61-13.42l-5.09-10.51S260,25,220.77,19.45c0,0-24.55-5.93-31.06,18,0,0-3.41,15.38-3.1,25.58.29,9.45,3.12,26.9,3.12,26.9"/><path class="cls-28" d="M182.3,103.71s2.6,1.2,3.76,5.19c.61,4.49,1.89,7.11,3.93,11.22,5.84,11.27,18.64,14,31.12,9.58,8.86-3.19,21.16-21.11,21.16-21.11l1.39-35.11-12,2.56s-6.25,18.12-25.22,15.84-14.75-17.83-14.75-17.83L189.5,87.36c-.81,5.41-2.16,9.67-5.5,13.71Z"/><path class="cls-9" d="M189.56,48.91c.08-3.64,2.45-11.37,2.45-11.37.1-.37,1.49-5.86,1.66-6.16,5.74-2.06,13.85-4.91,19.64-3.19,5.61,1.67,18.43,5.91,18.27,13.13,0,2.2-2.28,16.21-.62,16.7a5.91,5.91,0,0,1,0,.76,45.84,45.84,0,0,0,.13,5.92,18.34,18.34,0,0,0,2.18-2.84c.36-.67.19-1.57.55-2.24,1-1.52,3.16-.92,4.28.12l.19.33c1.52,2.31-.63,9.12-2,11.11-.57,4.16-4.37,6.16-6.27,3l-.67,1.6L224.21,81C219.76,85,211.66,91.62,205,91.17c-4.51-.31-5.86-1.45-7.41-3.08-2.35-2.49-3.58-5.18-5.26-8a20.49,20.49,0,0,1-2.91-7.55,15.29,15.29,0,0,1,0-7.21,31.92,31.92,0,0,0,.45-4.92C189.83,58.79,189.49,52.56,189.56,48.91Z"/><path class="cls-20" d="M194.78,58.38a1.65,1.65,0,0,0-1.76.2,1.58,1.58,0,0,0-.13,2.13,1.45,1.45,0,0,0,1.64.37,1.61,1.61,0,0,0,.88-1.81,1.44,1.44,0,0,0-.63-.89"/><path class="cls-20" d="M199.34,60a12.63,12.63,0,0,0-3.48-1.92c-3-.7-5.12-.26-5.93.77a13,13,0,0,1,5.52-.18A40.86,40.86,0,0,1,199.34,60Z"/><path class="cls-20" d="M214.42,58.94a2,2,0,0,1,1.93.22,1.51,1.51,0,0,1,.42.72,1.55,1.55,0,0,1-.44,1.39,1.44,1.44,0,0,1-1.67.21,1.6,1.6,0,0,1-.69-1.89c0-.11-.06-.35.43-.57"/><path class="cls-20" d="M210,60.49a10.06,10.06,0,0,1,5.73-2.16A11.85,11.85,0,0,1,222,60.45a35.67,35.67,0,0,0-6.25-1.39A31.47,31.47,0,0,0,210,60.49Z"/><path class="cls-20" d="M221.93,55.48a7.79,7.79,0,0,0-1.05-.29,31.15,31.15,0,0,0-6.61-.44,30.82,30.82,0,0,0-5.74.93c0-.4-.15-.22-.16-.62l-.06-1.58a38.9,38.9,0,0,1,9.57-.22,11.14,11.14,0,0,1,2.82.94,14.82,14.82,0,0,1,2.74,1.56C223.73,56.18,221.93,55.48,221.93,55.48Z"/><path class="cls-20" d="M189.59,53.56c0-.06.06-.12.1-.18h0a8.71,8.71,0,0,1,1.63-.42,30.26,30.26,0,0,1,8.07.53c0,.74,0,1.48,0,2.21a21.63,21.63,0,0,0-9.74-1.08,4,4,0,0,1-.11-.47c0-.1,0-.21,0-.32S189.57,53.64,189.59,53.56Z"/><path class="cls-29" d="M204,75.61c3.23.11,8.76-.11,8.76-.11s-1.42,8.73-8.91,8.49-7.72-8.85-7.72-8.85S200.73,75.5,204,75.61Z"/><path class="cls-18" d="M203.93,75.61c1.54,0,7.74,0,7.74,0S209.56,81.22,204,81a7.29,7.29,0,0,1-7-5.79Z"/><path class="cls-19" d="M203.86,75.84c1.53,0,6.22-.06,6.22-.06s-1.74,1.67-6.35,1.52-6-1.88-6-1.88Z"/><path class="cls-29" d="M195.89,75A6.81,6.81,0,0,1,197,74.7a30.06,30.06,0,0,1,3-.43c1.57-.07,2.55.6,3.23.62s1.71-.58,3.28-.4c.92.1,3.44.53,4.71.69a12.35,12.35,0,0,0,1.83-.14c.22.06-.53,1.75-9.13,1.46S195.66,75,195.89,75Z"/><path class="cls-30" d="M232.43,61.7s-4.07-20.53-24.71-22.51C195.78,38.05,189.63,48,189.63,48s.67-11.13,5.73-15.11,20.78-3.58,27.81.22S232.43,61.7,232.43,61.7Z"/><path class="cls-28" d="M241.71,46.06S237,22.69,217.25,20.67C192.73,18.22,188.42,44,188.42,44l-1,19.27c.15-5,.09-9.43,1.72-14.13.37-2.79-.21-10.28,8-14.61C201.68,32.16,207,32,211.88,33c4.48.93,9.5,2.93,12,7a30.93,30.93,0,0,1,4.14,11.21c1,5.27.58,12.77-.24,18.07C227,74.08,226.55,80.55,218.3,88c21.84-5.62,24.4-30.37,24-41.9Z"/><path class="cls-27" d="M229.88,26.3c4,3.77,6.52,9.56,7.4,14.91,1.37,8.42-1.12,17.31-3.77,25.25-.72,2.15-1.5,4.36-2.37,6.43-.15.34.58.27.68,0a96,96,0,0,0,5.27-16.77A43.37,43.37,0,0,0,238.26,43a28.83,28.83,0,0,0-3.84-11.86A22.42,22.42,0,0,0,230.55,26c-.2-.19-.89.1-.67.3Z"/><path class="cls-27" d="M242.26,81.14a77.37,77.37,0,0,1-3.75,9c-2.67,5.55-5.9,11.12-10.4,15.41-2.54,2.41-5.61,4.44-9.17,4.8-.18,0-.79.33-.32.28,6.08-.61,10.76-5.16,14.24-9.83a72.71,72.71,0,0,0,8.7-16.06c.5-1.24,1-2.49,1.42-3.76,0-.13-.66-.05-.72.13Z"/><path class="cls-20" d="M221.13,60.33a1.24,1.24,0,0,0,1.54-.81,6,6,0,0,1-3.77,0Z"/><path class="cls-20" d="M190.35,58.91a1.25,1.25,0,0,1-1.69-.43s.89.68,2.63-.47Z"/><path class="cls-27" d="M223.24,82.28c-3,6.35-6.9,13.26-13.61,16.27a13.57,13.57,0,0,1-10.66.22,34.35,34.35,0,0,1-9.09-5.33c-.27-.21-.9.16-.56.43a34.64,34.64,0,0,0,9.82,5.62,14.13,14.13,0,0,0,10.1-.19c7.29-2.88,11.5-10.19,14.7-16.92.18-.38-.56-.4-.7-.1Z"/><path class="cls-27" d="M187.27,97.14a9.85,9.85,0,0,1,4.91,3,41.84,41.84,0,0,1,3.83,5.74c2.11,3.37,4.5,8.21,9.17,8,.25,0,.78-.4.29-.38-2.43.11-4.4-1.49-5.8-3.32s-2.64-4-3.91-6.07a23.09,23.09,0,0,0-3.65-5,10.15,10.15,0,0,0-4.38-2.29c-.21-.06-.85.26-.46.37Z"/><path class="cls-20" d="M203.59,71a5.92,5.92,0,0,1-2.51.29,7.17,7.17,0,0,1-1.3-.2,1.75,1.75,0,0,1-.68-.43c-.35-.3-.85-.73-.9-1.22a3.43,3.43,0,0,1,.36-1.56c.17-.43.4-.85.56-1.28,0-.13-.31-.09-.36,0-.16.43-.39.83-.56,1.26a3.4,3.4,0,0,0-.36,1.68c.07.52.63,1,1,1.29a1.87,1.87,0,0,0,.67.41,6.72,6.72,0,0,0,1.33.22,6.65,6.65,0,0,0,2.9-.34c.23-.09,0-.23-.15-.16Z"/><path class="cls-20" d="M207.16,68.9c.57,0,.6.91.57,1.3a1.08,1.08,0,0,1-.27.73,1.55,1.55,0,0,1-1.08.38,5.39,5.39,0,0,1-1.59-.44.45.45,0,0,0-.25,0s-.13.07,0,.09a6.07,6.07,0,0,0,1.6.45,3.24,3.24,0,0,0,1.4-.33,1.12,1.12,0,0,0,.58-.79,2.43,2.43,0,0,0,0-1c-.09-.33-.28-.61-.65-.61a.48.48,0,0,0-.26.07s-.06.07,0,.07Z"/><path class="cls-31" d="M164.41,186.11c-.09-.11-.19-.12-.28,0Z"/><path class="cls-32" d="M111.23,240.11a5.87,5.87,0,0,1,.37-3.84c1.05-1.86,3.51-2.35,5.65-2.27s4.37.49,6.35-.32c1-.42,1.93-1.16,3-1.65a6.72,6.72,0,0,1,9.55,5.24,4.54,4.54,0,0,1-.53,2.92c-.9,1.42-2.68,1.93-4.31,2.33a39.45,39.45,0,0,1-10.2,1.6,13.28,13.28,0,0,1-9.4-3.66"/><path class="cls-32" d="M102.08,239.78c-2.13-3.18-6.42-3.49-10.24-3.44a8,8,0,0,0-2.83.47,6.33,6.33,0,0,0-3.77,6.3,7.66,7.66,0,0,0,4.4,6.09,9.77,9.77,0,0,0,7.65.11,29.72,29.72,0,0,1,2.94-1.2c1.07-.3,2.21-.32,3.27-.65a4.88,4.88,0,0,0,3.1-2.73,3.79,3.79,0,0,0-.72-4c-1-1-2.67-1.86-3.8-1"/><path class="cls-32" d="M136.24,243.69a31.82,31.82,0,0,0,9.09,0,30.21,30.21,0,0,1,4.8-.87,5.76,5.76,0,0,1,4.47,1.56,4.22,4.22,0,0,1-.66,6.06,7.9,7.9,0,0,1-2.84,1,54.6,54.6,0,0,1-7.37,1.27,14.86,14.86,0,0,1-7.28-.88,7.3,7.3,0,0,1-4.46-5.5,3.74,3.74,0,0,1,.47-2.48,2.29,2.29,0,0,1,2.17-1.11,3.15,3.15,0,0,1,1.61.89"/><path class="cls-33" d="M131.5,234.22a1.77,1.77,0,0,0-.56.14.56.56,0,0,0-.29.21.2.2,0,0,0,0,.2.36.36,0,0,0,.2.11,2.13,2.13,0,0,0,.25,0,1.61,1.61,0,0,0,.44-.06,1.27,1.27,0,0,0,.32-.13.42.42,0,0,0,.15-.11.27.27,0,0,0,.05-.15.26.26,0,0,0-.07-.16.19.19,0,0,0-.09-.05.76.76,0,0,0-.3,0,1.57,1.57,0,0,0-.29.08l-.1.06a.12.12,0,0,0-.05.05v0a.08.08,0,0,0,.07,0,.49.49,0,0,0,.24,0c.06,0-.22,0-.14,0h0l0,0,.05,0,0,0a.21.21,0,0,1,0,.17v0a.3.3,0,0,1,0,.08l0,0,0,0,.05,0s-.05,0,0,0h0l.06,0,.08,0h.15a.79.79,0,0,1-.2,0l0,0a.15.15,0,0,1-.09-.06l0,0a.18.18,0,0,1,0-.12v0a.36.36,0,0,1,0-.09l0,0,0,0-.05,0h0l0,0-.07,0h-.13a1.09,1.09,0,0,0,.3-.07l.12-.05a.2.2,0,0,0,.09-.06s.06-.06,0-.09h-.19Z"/><path class="cls-33" d="M131.82,239.24l.22-.08.11,0,0,0h0l-.07,0h0l-.16,0h-.1l-.05,0,0,0,0,0a.29.29,0,0,1,0,.09v0a.28.28,0,0,1,0,.12l0,0s0,0-.05.05l.05,0-.06,0,.07,0h0l.07,0h0l.08,0h0l.07,0h0s.12,0,.06,0h0l-.12,0,.05,0h0a.34.34,0,0,0-.2,0,.94.94,0,0,0-.29.06l-.09,0a.36.36,0,0,0-.12.08s-.07.09,0,.12a.89.89,0,0,0,.48.08,1.65,1.65,0,0,0,.43-.09,1.43,1.43,0,0,0,.27-.15.46.46,0,0,0,.16-.18.26.26,0,0,0,0-.15.2.2,0,0,0-.06-.12.18.18,0,0,0-.09,0,.94.94,0,0,0-.41,0l-.31.11-.23.08a.31.31,0,0,0-.13.06.16.16,0,0,0-.08.06s-.06.08,0,.11a.28.28,0,0,0,.2,0,1.07,1.07,0,0,0,.3-.06Z"/><path class="cls-33" d="M126.9,237.47a1,1,0,0,1,.24-.08h.06c.06,0,.08,0,0,0h0l-.12,0-.17,0a1.16,1.16,0,0,0-.52.08.71.71,0,0,0-.26.16.21.21,0,0,0-.06.16.34.34,0,0,0,.08.21.55.55,0,0,0,.17.17.53.53,0,0,0,.3.09,1.27,1.27,0,0,0,.61-.13.58.58,0,0,0,.27-.24.29.29,0,0,0-.21-.38h-.24a1.61,1.61,0,0,0-.29.09l-.07,0a.24.24,0,0,0-.08.09v0s0,0,.07.05h0l0,0a.2.2,0,0,1,.07.06l0,0a.26.26,0,0,1,0,.15v0a.17.17,0,0,1,0,.1l0,0,0,.05,0-.05,0,0c.07-.05.07,0,0,0l.06,0,.08,0h.2l-.09,0,0,0a.52.52,0,0,1-.19-.17l0,0a.4.4,0,0,1-.09-.21v0a.14.14,0,0,1,0-.06l0,0,0,0-.06.05h0a.31.31,0,0,1-.1.05h-.07l-.08,0h0s0,0-.08,0h-.06l.2,0a1.26,1.26,0,0,0,.69-.1s.13-.08.15-.13,0-.08-.07-.09a.49.49,0,0,0-.24,0,1,1,0,0,0-.29.09Z"/><path class="cls-33" d="M117.92,236.58a.76.76,0,0,0,.7-.07l.1-.09.07-.09a.36.36,0,0,0,0-.11.34.34,0,0,0,0-.1.17.17,0,0,0-.09-.11l-.09,0h0a.88.88,0,0,0-.28,0,.76.76,0,0,0-.21,0l-.19.07a.86.86,0,0,0-.24.17.61.61,0,0,0-.13.15.19.19,0,0,0,0,.19.3.3,0,0,0,.21.08.61.61,0,0,0,.3,0,.47.47,0,0,0,.2-.17l0,0,0,.06.06-.06-.06,0,.06,0-.08,0,.07,0-.1,0,.07,0-.1,0h0l-.09,0a.32.32,0,0,1,.09,0l-.16-.13v0l0-.06,0,.05,0-.07,0,0,.07,0,0,0,.08,0h0l.1,0h0l.11,0h.1l.07,0h0a.46.46,0,0,0-.26,0l-.15,0a.31.31,0,0,0-.13.06c-.06.05-.13.11-.14.18a.17.17,0,0,0,.08.17Z"/><path class="cls-33" d="M115.37,239.14h0a.94.94,0,0,1,.24.06h0a.58.58,0,0,1,.24.14l0,0a.13.13,0,0,1,0,.08v0l0,0h0l0,0s.08,0,0,0l0,0,.07,0,.13,0h.11l-.13,0,0,0a.49.49,0,0,1-.21-.16l0,0a.09.09,0,0,1,0-.06.17.17,0,0,0-.13,0,.86.86,0,0,0-.28,0,1,1,0,0,0-.26.11l0,0a.09.09,0,0,0,0,.08.66.66,0,0,0,.58.32,1.27,1.27,0,0,0,.48-.08.75.75,0,0,0,.2-.1.29.29,0,0,0,.11-.11c0-.13-.1-.22-.2-.27a1,1,0,0,0-.45-.13.86.86,0,0,0-.28,0,.85.85,0,0,0-.26.11s-.11.07-.09.12.09,0,.14.06Z"/><path class="cls-33" d="M117.07,241.71a2,2,0,0,0,.27.17,2.21,2.21,0,0,0,.35.16.62.62,0,0,0,.38,0,.52.52,0,0,0,.35-.26.37.37,0,0,0-.18-.45.92.92,0,0,0-.54-.13.61.61,0,0,0-.29.11.28.28,0,0,0-.13.2c0,.19.19.26.35.25h0l-.09,0,.1,0-.07,0,.1.07-.06-.06,0,.06,0-.07s0,0,0,.05v0l0-.08,0,0,0-.07h0l.06-.06h0l.08-.05h0l.1,0h0l.1,0h0l.09,0a1.09,1.09,0,0,1-.25-.1l.07,0a2,2,0,0,1-.31-.2.4.4,0,0,0-.26-.05.51.51,0,0,0-.29.1.3.3,0,0,0-.13.2.2.2,0,0,0,.09.19Z"/><path class="cls-33" d="M150.74,248.28a2,2,0,0,0,1.26-.61.11.11,0,0,0-.05-.17,1.44,1.44,0,0,0-.68-.09,1.89,1.89,0,0,0-.41.1,1.11,1.11,0,0,0-.29.14s-.13.08-.15.15a.1.1,0,0,0,.07.12.53.53,0,0,0,.25,0,.72.72,0,0,0,.29-.1l.08,0-.06,0,0,0h.06l-.08,0h.09c.06,0-.1,0,0,0h.1l.1,0-.07,0,.1,0-.05-.18,0,0,0,0-.17.14c-.06.05.06,0,0,0l0,0s-.16.08,0,0l-.1,0h0l.06,0-.05,0h0l-.11,0a.71.71,0,0,0-.28.09s-.14.09-.15.15.23.15.32.14Z"/><path class="cls-33" d="M148.78,249.76a1.92,1.92,0,0,0-.92-.12.93.93,0,0,0-.36.14.31.31,0,0,0-.08.11.09.09,0,0,0,0,.09.66.66,0,0,0,.37.21.86.86,0,0,0,.23,0,1.28,1.28,0,0,0,.43-.1.49.49,0,0,0,.21-.14.11.11,0,0,0,0-.14.35.35,0,0,0-.2-.05.77.77,0,0,0-.3.06h0l.07,0h.13l-.09,0,.07,0-.12,0,.05,0a.43.43,0,0,1-.12-.11l-.41.33h.06l.25,0-.06,0,.17.06a.42.42,0,0,0,.25,0,.71.71,0,0,0,.28-.09l.07-.05a.19.19,0,0,0,.08-.1.1.1,0,0,0-.07-.12Z"/><path class="cls-33" d="M148.79,245.78l.57-.55s.09-.14.06-.2a.19.19,0,0,0-.15-.14,1,1,0,0,0-.75.07.9.9,0,0,0-.3.21.57.57,0,0,0-.17.3c0,.06,0,.14.09.17a.43.43,0,0,0,.25.05.52.52,0,0,0,.29-.11l.07-.05a.33.33,0,0,0,.07-.13h0l0,.07a.27.27,0,0,1,.06-.12l-.05.07.08-.08-.07,0,.08,0-.09,0,.08,0-.1,0,.09,0-.1,0h.07l-.09,0,.06,0-.09-.34-.57.56a.25.25,0,0,0-.07.2.23.23,0,0,0,.16.14.57.57,0,0,0,.54-.15Z"/><path class="cls-33" d="M135.46,246.3a3.18,3.18,0,0,0,.37.27,1.35,1.35,0,0,0,.26.15.7.7,0,0,0,.45,0,.64.64,0,0,0,.39-.27.33.33,0,0,0,0-.19.43.43,0,0,0-.07-.25.33.33,0,0,0-.19-.16,1.11,1.11,0,0,0-.74,0,.5.5,0,0,0-.25.15.21.21,0,0,0-.06.21c.06.18.29.19.44.15l.1,0-.1,0h.14l-.08,0,.08,0-.08,0,.06,0-.06-.05.06.08,0-.07a.19.19,0,0,1,0,.1v-.07s0,.05,0,.08l0-.08s0,0,0,0l.05-.06,0,0,.07-.06,0,0,.08-.05h0l.1,0h0l.1,0h0l.09,0a.19.19,0,0,1-.08,0l.07,0a3,3,0,0,1-.55-.38.35.35,0,0,0-.26-.06.59.59,0,0,0-.29.1.3.3,0,0,0-.13.2v.07a.27.27,0,0,0,.09.12Z"/><path class="cls-33" d="M102.38,245.11l.3-.6a.1.1,0,0,0,0-.1.48.48,0,0,0-.16-.08h-.14a.91.91,0,0,0-.48.13.4.4,0,0,0-.24.39c0,.06.1.09.14.1a.57.57,0,0,0,.29,0,.72.72,0,0,0,.25-.12c0-.05.09-.1.08-.16v0a.64.64,0,0,0,0-.07l0,.06,0-.05,0,.06,0,0-.07,0,0,0-.08,0h0l-.1,0h0l-.1,0H102l-.07,0,0,0,0,0h0l0-.1-.3.61s0,.11.08.13a.53.53,0,0,0,.25,0,.75.75,0,0,0,.29-.09l.07-.05a.26.26,0,0,0,.07-.11Z"/><path class="cls-33" d="M95.78,243a1.41,1.41,0,0,0,1.11-.21.3.3,0,0,0,.14-.17.14.14,0,0,0-.08-.15,1.54,1.54,0,0,0-1.29-.17.53.53,0,0,0-.26.13.21.21,0,0,0-.07.18c.06.16.31.15.44.11l.08,0H96c.06,0-.08,0,0,0h0l.16,0-.07,0a.92.92,0,0,1,.24.13l.06-.33-.06,0s.09,0,0,0l0,0h0l.05,0h-.13s.09,0,0,0h0a.71.71,0,0,0-.29,0,.52.52,0,0,0-.25.14s-.09.11-.07.17a.17.17,0,0,0,.15.12Z"/><path class="cls-33" d="M93.59,240.64a.7.7,0,0,0,.22-.39.56.56,0,0,0-.08-.42.54.54,0,0,0-.52-.2.83.83,0,0,0-.56.27.45.45,0,0,0-.12.25.33.33,0,0,0,.06.25.35.35,0,0,0,.22.1.54.54,0,0,0,.3-.06.39.39,0,0,0,.19-.17.18.18,0,0,0,0-.2l0,0,0,.06s0,0,0-.06v.07a.13.13,0,0,1,0-.06l0,.07,0-.06,0,.06s0,0,0-.05l-.07.06.05,0-.08,0,.05,0-.09,0h0l-.11,0h0l-.08,0h0l-.07,0,.05,0-.05,0,.06.08,0-.06a.65.65,0,0,1,0,.13v-.07a.32.32,0,0,1,0,.17l0-.07a.59.59,0,0,1-.06.14l0-.07a.27.27,0,0,1-.07.08.21.21,0,0,0-.06.2.24.24,0,0,0,.16.15.53.53,0,0,0,.28,0l.1,0a.33.33,0,0,0,.15-.11Z"/><path class="cls-33" d="M88.76,240a1.27,1.27,0,0,0,.7-.33.78.78,0,0,0,.25-.47c0-.18-.21-.18-.33-.17a1.45,1.45,0,0,0-.36.08,1.66,1.66,0,0,0-.33.15,1.15,1.15,0,0,0-.41.44c0,.06,0,.11,0,.16a.3.3,0,0,0,.21.07.58.58,0,0,0,.29-.06l.09,0a.6.6,0,0,0,.12-.11.62.62,0,0,1,.11-.17l0,.06a.86.86,0,0,1,.14-.13l-.07.05.12-.08-.08.05.11-.05-.1,0,.11,0-.1,0h.1l-.33-.17a.48.48,0,0,1,0,.17l0-.06a.86.86,0,0,1-.1.16l0-.05-.11.09.07-.05-.08.05.09,0-.09,0,.1,0-.07,0,.1,0h0a1,1,0,0,0-.29.1.3.3,0,0,0-.14.17c0,.17.21.19.33.17Z"/><path class="cls-33" d="M93.42,247.67l.37.05a1.94,1.94,0,0,0,.54-.05,1,1,0,0,0,.69-.44.39.39,0,0,0,0-.45.49.49,0,0,0-.31-.11,1.57,1.57,0,0,0-.63.15,1.31,1.31,0,0,0-.56.51s0,.08.06.08a.65.65,0,0,0,.24,0,1.4,1.4,0,0,0,.29-.09.38.38,0,0,0,.16-.12.6.6,0,0,1,.09-.13l0,0a.43.43,0,0,1,.11-.12l.06-.06s0,0,0,0l0,0,0,0,0,0,0,0c.06,0-.11,0,0,0h-.19s-.07,0,0,0h0l0,0a.27.27,0,0,1,.12.09l0,0a.34.34,0,0,1,.06.24v0a.44.44,0,0,1-.1.22l0,0a.18.18,0,0,1,0,.07s0,0,0,0h0l0,0h0c.06,0,.08,0,0,0s.11,0,0,0h0l-.22,0a.65.65,0,0,0-.24,0,1.4,1.4,0,0,0-.29.09l-.07,0a.2.2,0,0,0-.08.08s0,.07.06.08Z"/><path class="cls-33" d="M91.14,247.65a.83.83,0,0,0,.23.26.93.93,0,0,0,.4.12,1.07,1.07,0,0,0,.43-.09.5.5,0,0,0,.14-.08s.07-.06.06-.1a.48.48,0,0,0-.23-.29,1,1,0,0,0-.69,0,.74.74,0,0,0-.26.1s-.11.08-.09.13.09.05.14.06a.9.9,0,0,0,.28,0l-.08,0h-.11l.11,0,0,0a.49.49,0,0,1,.18.14l0,0a.59.59,0,0,1,.06.14l.62-.27h0l-.15-.05,0,0a.53.53,0,0,1-.23-.19l0,0,0-.07s-.08-.06-.13-.06a.86.86,0,0,0-.28,0,1,1,0,0,0-.26.11l0,0a.09.09,0,0,0,0,.08Z"/><path class="cls-27" d="M255,196.45a37.94,37.94,0,0,1-7.58,2.61c-3.91,1.1-7.85,2.07-11.81,3-7.88,1.86-15.8,3.55-23.73,5.17-1.73.36-3.47.71-5.2,1.05l.45.17-.86-2.74c-.11-.36-.87-.15-.75.21l.85,2.73c.06.19.29.21.45.17,13.36-2.63,26.77-5.36,39.9-9a42.5,42.5,0,0,0,8.62-2.92c.46-.25,0-.68-.34-.47Z"/><path class="cls-27" d="M201.72,195.32l-.5-2.37-.23.23q9.27-3.26,18.52-6.58c9.06-3.27,18.2-6.44,27.08-10.2,2.64-1.11,5.17-2.51,8.12-2.48a8.39,8.39,0,0,1,5.6,2c.18.16.88-.12.71-.28-3.37-3.24-8.91-2.11-12.66-.36-3.4,1.59-7,2.9-10.48,4.24-9.89,3.75-19.86,7.32-29.83,10.85l-7.35,2.59c-.08,0-.26.12-.23.23l.49,2.37c0,.22.81,0,.76-.2Z"/><path class="cls-9" d="M105.4,141.86,93.51,162.48S75.79,152.53,70.3,150.7s-9-2.92-9-2.92l5.43,20.43s21.92,13.2,32.06,11.3c8.65-1.62,13-34.32,13-34.32Z"/><path class="cls-34" d="M68.21,173l10.25,5.68c.12.37,10.8-21.06,10.8-21.06s-12.84-6.16-16-8.13c-3.82-2.35-16.46-4.76-16.46-4.76Z"/><path class="cls-34" d="M66,147.93l-9.26-3.21c-.05,4.86-2.09,6.49-6.22,6.92-7.32,1-15.1-8.07-15.1-8.07L23.27,150s-1.44,22-1.82,32.24c-.32,8.43-3.61,38-3.61,38s7.22,6.24,25.5,8.79,33.88-4.63,33.88-4.63l-4.07-64.49Z"/><path class="cls-35" d="M74.86,177.26c-.39-4.81-.43-9.65-.55-14.47,0-.15-.52,0-.51.14.12,4.82.16,9.66.55,14.46,0,.16.52.05.51-.13Z"/><path class="cls-10" d="M93.22,162.8A6.58,6.58,0,0,0,93.7,169c.13.21.82-.06.74-.19a6.48,6.48,0,0,1-.49-6.07c.08-.17-.64-.1-.73.11Z"/><path class="cls-27" d="M157.14,148.93c3.72,6.1,7.34,12.46,8,19.7,0,.19.59.07.57-.15-.61-7.27-4.26-13.65-8-19.77-.1-.17-.65,0-.53.22Z"/><path class="cls-9" d="M117.43,131.05a1.47,1.47,0,0,0-.87-.66,1,1,0,0,0-.85.46.3.3,0,0,1-.22.14c-.32.64-.58,1.08-.73,1.06s-.08-.54.09-1.34a.08.08,0,0,1,0-.05c0-.78.09-1.83-.64-2.32-.46-.31-.46-1.11-.91-.81A11.65,11.65,0,0,1,111.7,131c-.1,0,0-.8.43-2.53l.22-.77c.07-.22.14-.44.21-.69.42-1.53.46-2.64,1-4.19a1.68,1.68,0,0,0-.15-1.48.89.89,0,0,0-1.65,0c-1.13,1.95-2.68,8.88-2.75,9.33,0-.08-.29.21-.27-.26,0-.88.37-2.86.38-3.94,0-1.75.73-4.92-.37-4.88s-1.8,2.26-2.28,4.34c-.43,1.77-1.47,6.14-1.94,8.12h0c-.15.61-.24,1-.24,1s-.43.67-.46.53c-.8,1.27-1.46,1.53-1.6,3.08a10.26,10.26,0,0,0,.08,3c.08.4.21.78.32,1.18a2.72,2.72,0,0,0,.68.93l-1.66,6.51c.56.09,8.14,2,8.64,1.84,0,0,1.08-5.85,2.27-7.34,1.79-.81,3.76-7,5.06-11.73v-.08A2.49,2.49,0,0,0,117.43,131.05Z"/><path class="cls-10" d="M112,144.64a2.81,2.81,0,0,1-2.17.49,6.43,6.43,0,0,1-1.64-.64l-.46-.28-.12-.09c-.06,0,0,0,0,0a.52.52,0,0,0-.54,0c-.09,0-.36.23-.21.36a5.21,5.21,0,0,0,.74.48,6.67,6.67,0,0,0,2,.71,4.11,4.11,0,0,0,2.92-.73c.13-.09.23-.24.07-.35a.6.6,0,0,0-.58.07Z"/><path class="cls-10" d="M108.06,137h.06l.07,0c.06,0-.1,0,0,0h.06l.24.07.15.06.07,0c-.07,0,0,0,0,0a3.44,3.44,0,0,1,1.41,1.44,5.63,5.63,0,0,1,.59,1.73c.08.37.89.16.82-.21-.31-1.55-1.16-3.2-2.79-3.66a2.33,2.33,0,0,0-.38-.08.55.55,0,0,0-.53.25c-.09.18.07.31.24.33Z"/><path class="cls-9" d="M205.12,204c-.86-2.38-1-2.11-1.8-4.37-.41-1.15-1.16-3.47-2.06-4.31l-.56.12a105.34,105.34,0,0,1-16.86,1.67c-.33,0-1.84.66-3.75,1.12-.45,1.51-.7,2.85-1.13,4.37l1.32-.12a52.24,52.24,0,0,0-4.69,4.72,2.54,2.54,0,0,0,1.34,2.92c.34.09,1.34.41,1.34.41a3.79,3.79,0,0,0-.63,1c-.21.49.78,3.22,2.58,3.14a3,3,0,0,1,.89.07,7.62,7.62,0,0,0,2,3.29c1.29,1,5.59-.95,8.58-.22,0,0,2.18-1.9.75-3.56,0,0,4.9-1.73,6.7-2.67a4.2,4.2,0,0,0,1.45-1.59c1-1.67,2.66-2.38,3.84-3.44a5,5,0,0,1,1.5-.66C205.94,205.21,205.35,204.63,205.12,204Z"/><path class="cls-9" d="M164,208.49l9.15-7.42c1.67-.68,6.13-2.48,8.23-3.09-.23,1.69-.44,3.33-.67,5l-4.19,1.15c.05-.06-.65.16-.65.16-2.39,1.94-6.9,5.51-9.59,5.69S164,208.49,164,208.49Z"/><path class="cls-10" d="M192.55,214a9.63,9.63,0,0,0-3.51,0,5.37,5.37,0,0,0-1.55.58,8.17,8.17,0,0,1-1.53,1c-.37.12-.21.7.16.58a6,6,0,0,0,1.41-.85,4.41,4.41,0,0,1,1.47-.65,8.41,8.41,0,0,1,3.39,0c.38.06.54-.51.16-.58Z"/><path class="cls-10" d="M181.42,214.76a2.31,2.31,0,0,1,.76-1.78c.38-.44.76-.88,1.15-1.31a12.15,12.15,0,0,1,2.23-1.88c.32-.21,0-.73-.3-.52a13.13,13.13,0,0,0-2.47,2.11c-.45.5-.91,1-1.32,1.53a2.53,2.53,0,0,0-.62,2c.07.38.65.22.57-.16Z"/><path class="cls-10" d="M178.47,210.47a10.45,10.45,0,0,1,1.51-3,7.18,7.18,0,0,1,2.75-1.81c.35-.15.05-.67-.3-.52a7.48,7.48,0,0,0-2.9,2,11.52,11.52,0,0,0-1.64,3.22c-.14.35.44.51.58.16Z"/><path class="cls-9" d="M53.31,201.43l-24.87-9.36.53-19,.53-2.54c1.64-7.78-1.19-3.59-2.27-4.39-.09-.07-9.16.7-9.22.8-3.57,6.08-3.9,9.93-5.3,12.82s-.53,13.86.56,17,5.54,6.88,9.69,8.33c4.79,1.66,13.38,2.37,13.38,2.37l14.69.72Z"/><path class="cls-34" d="M8.73,183l22.48-.91L30.14,147.8s-11.72,1.26-16.61,11S8.73,183,8.73,183Z"/><path class="cls-35" d="M29.46,182.25l2.43,0c.11,0,.45,0,.46-.19.12-2.86.24-5.72.21-8.58s-.34-5.52-.58-8.29c-.33-3.84-.46-7.54-3.91-9.92-.13-.09-.6.13-.52.19,3.56,2.46,3.55,6.33,3.91,10.25.24,2.64.51,5.26.54,7.92,0,2.86-.09,5.72-.21,8.58l.46-.19-2.43,0c-.12,0-.63.23-.36.23Z"/><path class="cls-10" d="M23,193.11c1.8-.8,3.8-1.68,5.78-1,.28.11.8-.3.4-.44-2.21-.79-4.47.13-6.48,1-.12.06-.26.21-.17.35s.34.1.47,0Z"/><path class="cls-9" d="M65,207.72l.88.33c-.13-1.13-.16-2.09-.3-3.21-1.24-.67-2.2-1.4-2.42-1.47a22.47,22.47,0,0,1-9-2.36c-4.84-2.41-13.79-3.8-13.79-3.8C33.28,195.05,32.5,201,32.5,201c5.09,2.33,15.65,3.7,16.64,5.06.68.94,1,2.75,1.53,4.09a3.46,3.46,0,0,0,.81,1.36,16.7,16.7,0,0,0,4.07,2c-1.14.87.14,2.58.14,2.58,2.1,0,4.81,2.18,5.78,1.75A4.58,4.58,0,0,0,63.16,216a1.89,1.89,0,0,1,.61.11c1.21.39,2.17-1.3,2.08-1.68a3,3,0,0,0-.32-.78l1,0a1.57,1.57,0,0,0,1.21-1.75A43,43,0,0,0,65,207.72Z"/><path class="cls-9" d="M74.6,213.67l-5-6.16c-1-.69-3.67-2.51-5-3.21-.07,1.13-.15,2.23-.23,3.35L67,209c0-.05.4.2.4.2,1.3,1.61,3.77,4.59,5.5,5.1S74.6,213.67,74.6,213.67Z"/><path class="cls-10" d="M55.51,213.78a6,6,0,0,1,2.28.63,3.89,3.89,0,0,1,.92.69,4.94,4.94,0,0,0,.89.88c.23.15.44-.21.21-.36a6.23,6.23,0,0,1-.92-.93,4.29,4.29,0,0,0-1-.7,7,7,0,0,0-2.38-.63c-.27,0-.26.39,0,.42Z"/><path class="cls-10" d="M63.16,215.89a2.27,2.27,0,0,0,0-1.48,8.19,8.19,0,0,0-.69-1.31A10.43,10.43,0,0,0,61,211.22c-.18-.19-.48.1-.29.3a9.92,9.92,0,0,1,1.32,1.7c.46.79,1,1.61.69,2.56-.1.25.3.36.4.11Z"/><path class="cls-10" d="M65.93,213.55a2.28,2.28,0,0,0-.21-.51c-.14-.31-.29-.61-.44-.92A19.67,19.67,0,0,0,64.06,210a3.6,3.6,0,0,0-.63-.77c-.21-.16-.51.13-.3.3a2.38,2.38,0,0,1,.51.59c.22.32.42.65.61,1,.38.67.73,1.34,1,2a2.58,2.58,0,0,1,.23.55c.06.26.46.15.4-.11Z"/><path class="cls-10" d="M117.17,133.41a8.45,8.45,0,0,1-1,1.57c-.21.25-.42.5-.64.74a1.61,1.61,0,0,1-.28.3s0,.06-.08,0a.7.7,0,0,1-.16-.14,1.54,1.54,0,0,1-.13-1,8.52,8.52,0,0,1,.12-1,20.53,20.53,0,0,1,.5-2c.06-.21-.56-.13-.61.08a17.21,17.21,0,0,0-.57,2.46c-.08.57-.28,1.68.45,1.92s1.27-.55,1.68-1a9.14,9.14,0,0,0,1.3-1.92c.13-.26-.48-.19-.56,0Z"/><path class="cls-10" d="M104.73,135.32l1.93-1.1a2,2,0,0,1,1-.34,3.66,3.66,0,0,1,1.07.27c.63.21,1.26.44,1.87.69s1.25.43,1.51,1c0,.07.12.31.07.38s-.41.06-.49.06a4.1,4.1,0,0,1-1-.09c-.6-.13-1.09-.49-1.7-.25-1.08.43-1.38,1.72-2.25,2.39-.14.11-.08.21.07.26a.78.78,0,0,0,.57-.16,4.08,4.08,0,0,0,1-1.13c.13-.19.25-.38.4-.56a1.72,1.72,0,0,1,.32-.34c.15-.13.11-.14.26-.06a4.46,4.46,0,0,0,1.72.36,3.1,3.1,0,0,0,1.63-.25.65.65,0,0,0,.11-1,2.63,2.63,0,0,0-1.2-.79q-.91-.39-1.86-.72a6.26,6.26,0,0,0-1.7-.44,3.4,3.4,0,0,0-1.72.5c-.69.37-1.37.77-2.05,1.16-.13.07-.23.19-.08.29s.44,0,.57-.09Z"/><path class="cls-10" d="M123.77,110.15a28.91,28.91,0,0,0,2.07,2.21,4,4,0,0,0,1.68.59c.77.25,2,.11,2.14-.87a2.88,2.88,0,0,0-.26-1.38,11.2,11.2,0,0,0-.52-1.24c-.46-.87-1.06-1.65-1.6-2.47-.11-.17-.78.12-.74.2.43.66.91,1.29,1.31,2a10,10,0,0,1,.94,2.11,1.94,1.94,0,0,1,.09,1.19,1.13,1.13,0,0,1-.11.22l-.08.1h-.08a3,3,0,0,1-.71-.18c-.26-.07-.52-.1-.78-.16a1.34,1.34,0,0,1-.61-.35c-.72-.68-1.38-1.45-2-2.19-.12-.13-.8.14-.7.24Z"/><path class="cls-10" d="M145,109.83c-.76-.88-1.51-1.78-2.29-2.64a3.56,3.56,0,0,0-2.55-1,12.43,12.43,0,0,0-3.21-.29,3.61,3.61,0,0,0-2,1.33,24.39,24.39,0,0,0-2.11,2.53c-.47.67-1.18,1.55-1,2.43.38,2,3.3-.28,4-.83.23-.18.45-.38.69-.56a.72.72,0,0,1,.58-.18,1.26,1.26,0,0,1,1.06.26c.67.55,1.08,1.38,1.89,1.76.21.09.94-.22.64-.36-1-.47-1.48-2-2.7-2.08a5.06,5.06,0,0,0-1.4.1,7.86,7.86,0,0,0-1.92,1.35,8.66,8.66,0,0,1-1.23.76c-.28.12-.57.21-.74-.11a1.13,1.13,0,0,1-.11-.65,5.49,5.49,0,0,1,1.42-2.52,27.09,27.09,0,0,1,1.79-2.07,6.26,6.26,0,0,1,.53-.5,1.75,1.75,0,0,1,1.23-.24c.51,0,1,.13,1.53.19l1.62.2a2.13,2.13,0,0,1,1.34.8c.75.85,1.48,1.71,2.23,2.57.16.18.91-.09.73-.3Z"/><path class="cls-9" d="M125.46,102.81a19.11,19.11,0,0,0,1.25,2.26c.84-1,1.79-2,2.71-2.95l-1-1.75c-.64-1.15-3-5.59-3.37-6.7a1.68,1.68,0,0,0-2.32-1.29,1.17,1.17,0,0,0-.68.68,5.68,5.68,0,0,0,.35,3.61C123.1,98.65,125.09,101.87,125.46,102.81Z"/><path class="cls-9" d="M113.31,127.58l.94-3a2.47,2.47,0,0,1,.34-.78.8.8,0,0,1,1.46.17,2.49,2.49,0,0,1,.11,1,22,22,0,0,1-1.37,5.72"/><path class="cls-10" d="M53.87,116A2.08,2.08,0,0,0,56,114.45a3.69,3.69,0,0,0-1-3.1c-.08-.11-.57.06-.48.18a4.06,4.06,0,0,1,1.07,2.6c0,.68-.54,1.7-1.34,1.66a.52.52,0,0,0-.36.09c-.07.06-.08.13,0,.13Z"/><path class="cls-36" d="M268.46,222.45c0,2.23,1.22,1.8,2.74,1.8s2.74.43,2.74-1.8-2.74-6.29-2.74-6.29S268.46,220.21,268.46,222.45Z"/><path class="cls-36" d="M262.48,222.45c0,2.23,1.23,1.8,2.74,1.8s2.74.43,2.74-1.8-2.74-6.29-2.74-6.29S262.48,220.21,262.48,222.45Z"/><path class="cls-36" d="M256.32,222.45c0,2.23,1.22,1.8,2.74,1.8s2.73.43,2.73-1.8-2.73-6.29-2.73-6.29S256.32,220.21,256.32,222.45Z"/><path class="cls-36" d="M247.41,222.45c0,2.23,1.22,1.8,2.74,1.8s2.73.43,2.73-1.8-2.73-6.29-2.73-6.29S247.41,220.21,247.41,222.45Z"/><path class="cls-36" d="M241.06,222.45c0,2.23,1.23,1.8,2.74,1.8s2.74.43,2.74-1.8-2.74-6.29-2.74-6.29S241.06,220.21,241.06,222.45Z"/><path class="cls-36" d="M234.8,222.45c0,2.23,1.23,1.8,2.74,1.8s2.74.43,2.74-1.8-2.74-6.29-2.74-6.29S234.8,220.21,234.8,222.45Z"/><path class="cls-37" d="M269.4,223.18c0,1.46.81,1.18,1.8,1.18s1.79.28,1.79-1.18-1.79-4.12-1.79-4.12S269.4,221.71,269.4,223.18Z"/><path class="cls-37" d="M263.42,223.39c0,1.47.81,1.19,1.8,1.19s1.79.28,1.79-1.19-1.79-4.12-1.79-4.12S263.42,221.93,263.42,223.39Z"/><path class="cls-37" d="M257.26,223.18c0,1.46.8,1.18,1.8,1.18s1.79.28,1.79-1.18-1.79-4.12-1.79-4.12S257.26,221.71,257.26,223.18Z"/><path class="cls-37" d="M248.25,223.18c0,1.46.81,1.18,1.8,1.18s1.79.28,1.79-1.18-1.79-4.12-1.79-4.12S248.25,221.71,248.25,223.18Z"/><path class="cls-37" d="M242.05,223.18c0,1.46.8,1.18,1.79,1.18s1.8.28,1.8-1.18-1.8-4.12-1.8-4.12S242.05,221.71,242.05,223.18Z"/><path class="cls-37" d="M235.75,223.18c0,1.46.8,1.18,1.79,1.18s1.8.28,1.8-1.18-1.8-4.12-1.8-4.12S235.75,221.71,235.75,223.18Z"/><polyline class="cls-38" points="276.02 224.17 276.02 219.38 233.04 219.38 233.04 224.17"/><rect class="cls-39" x="214.84" y="224.17" width="78.27" height="13.84" transform="translate(507.95 462.18) rotate(-180)"/><circle class="cls-40" cx="254.88" cy="231.09" r="4.67"/><path class="cls-41" d="M287.69,176.79a2.07,2.07,0,0,1,.61-1.44,4.36,4.36,0,0,1-1.08-.34h0c.23-1.89.41-3.51-2.44-3.5-19.16.11-38.32.12-57.49.15-4.53-.28-4.53-.28-4.81,3.79h0l.06,7.9c0,8.58,0,17.16.07,25.73,0,4.59,2.3,7,6.71,7.53H281c3.91-.63,5.38-2.08,6.1-6,.92-7.89.15-19.6.41-27.5"/><path class="cls-41" d="M229.63,216.45l-.31.16Z"/><path class="cls-42" d="M222.63,175a5,5,0,0,0-1-.09h-6.08c-2.5,0-4.55,1.6-4.55,3.55s2.05,3.54,4.55,3.54h6.08a6,6,0,0,0,1-.08Z"/><rect class="cls-40" x="214.84" y="238.01" width="7.65" height="2.89"/><rect class="cls-40" x="285.52" y="238.01" width="7.65" height="2.89"/><path class="cls-42" d="M287.32,175a5,5,0,0,1,1-.09h6.08c2.5,0,4.55,1.6,4.55,3.55s-2.05,3.54-4.55,3.54h-6.08a6,6,0,0,1-1-.08Z"/><line class="cls-43" x1="254.53" y1="219.27" x2="254.53" y2="224.17"/></g></g></g></svg>