<?xml version="1.0" encoding="UTF-8"?>
<svg id="Layer_4" data-name="Layer 4" xmlns="http://www.w3.org/2000/svg" xmlns:xlink="http://www.w3.org/1999/xlink" viewBox="0 0 292.89 301.99">
  <defs>
    <style>
      .cls-1 {
        fill: none;
      }

      .cls-2 {
        fill: #070707;
      }

      .cls-3 {
        fill: #825739;
      }

      .cls-4 {
        fill: #3f271d;
      }

      .cls-5 {
        fill: #010101;
      }

      .cls-6 {
        fill: #ddad6f;
      }

      .cls-7 {
        fill: #c69e81;
      }

      .cls-8 {
        fill: #638e9f;
      }

      .cls-9 {
        fill: #27153c;
      }

      .cls-10 {
        fill: url(#linear-gradient);
      }

      .cls-11 {
        fill: #f1eef7;
      }

      .cls-12 {
        fill: #496f73;
      }

      .cls-13 {
        fill: #060606;
      }

      .cls-14 {
        fill: #0a2f44;
      }

      .cls-15 {
        fill: #fff;
      }

      .cls-16 {
        fill: #14162a;
      }

      .cls-17 {
        fill: #161412;
      }

      .cls-18 {
        fill: #94674b;
      }

      .cls-19 {
        clip-path: url(#clippath);
      }
    </style>
    <clipPath id="clippath">
      <path class="cls-1" d="M282.99,130.73c-9.81-49.55-45.56-89.97-93.53-105.76v-1.56c.38-23.66-18.49-43.14-42.14-43.52-23.66-.38-43.14,18.49-43.52,42.14,0,.46,0,.92,0,1.38v1.04C62.45,37.51,29.48,68.99,14.52,109.69c-23.64.81-42.15,20.62-41.34,44.26.72,21.18,16.82,38.64,37.87,41.08,20.53,74.43,94.42,109.82,171.95,93.59,40.02-11.04,73.06-35.29,90.18-73.11h1.25c23.66-.02,42.82-19.22,42.8-42.88-.02-20.33-14.32-37.84-34.23-41.92h0Z"/>
    </clipPath>
    <linearGradient id="linear-gradient" x1="145.68" y1="152.9" x2="136.41" y2="-120.36" gradientUnits="userSpaceOnUse">
      <stop offset="0" stop-color="#bbe5f5"/>
      <stop offset=".55" stop-color="#77c5da"/>
    </linearGradient>
  </defs>
  <g class="cls-19">
    <circle class="cls-10" cx="145.83" cy="157.53" r="136.71"/>
    <path class="cls-7" d="M124.49,63.88c.92,3.94,1.31,7.99,1.16,12.03-.36,9.68-4.33,14.9-4.33,14.9l13.55,49.29,36.55-46.07s-10.07-6.97-10.45-8.85-.63-14.58-.63-14.58"/>
    <path class="cls-14" d="M91.8,231.9c-.48-9.68-4.06,41.35-1.79,68.24,5.82,68.37,17.17,183.63,17.17,183.63l7.3,1.33c4.67.85,9.45.88,14.12.1l10.37-1.16,6.35-180.17s.53,12.61.53,14.91c0,.97,2.12,57.29,1.8,62.06-1.06,17.73-.89,102.35-.89,102.35l12.12,3.17c3.99.63,8.06.63,12.05,0l12.7-2.98,7.08-97.96,6.82-112.68-2.51-39.93-21.41,8.71-81.81-9.61Z"/>
    <path class="cls-8" d="M194.96,222.76l-.05-18.97.85-38.93c4.68,7.88,10.76,14.81,15.06,17.76,1.9-17.65.37-35.33,1.48-53.05l-10.22-23.46c-2.29-10.04-10.58-14.65-20.01-16.93-1.79-.42-21.16-4.75-21.09-4.05,0,0,12.4,18.65-11.12,18.93-23.52.28-26.11-18.53-26.11-18.53l-6.72,1.77-7.41,2.02c-8.94,3.46-13.12,3.63-20.85,9.38-1.99,2.04-3.81,4.24-5.45,6.58-.29.91-.33,1.89-.12,2.82,2.84,20.35,5.82,38.43,8.65,58.79,1.06,7.99-.32,19.47.28,27.51.54,7.19.9,12.96-.77,20.19-.76,3.33-7.92,23.11-1.27,32,0,0,27.63,13.11,55.73,13.21,28.1.11,47.23-7.55,49.61-10.1.02.01,5.85-9.07-.48-26.92Z"/>
    <polygon class="cls-12" points="198.09 165.52 199.65 122.48 199.26 167.45 198.09 165.52"/>
    <path class="cls-8" d="M94.14,96.05c-.9,0-14.03,4.39-17.83,16.24-3.8,11.85-17.31,52.36-17.31,52.36l-13.75-6.68-10.24,13.93s11.53,35.4,32.9,35.69c0,0,15.53-.12,19.78-11.52,4.25-11.4,12.12-35.24,12.12-35.24l-5.68-64.79Z"/>
    <path class="cls-8" d="M196.02,96c3.47,5.15,6.63,10.52,9.45,16.06,1.94,4,23.93,57.13,23.93,57.13l20.48-4.23,6.99,6.21c3.09,7.89-13.75,25.47-19.95,30.61-.36.3-.74.58-1.13.85-7.34,4.18-22.61,2.97-27.84-4.14-5.29-7.68-18.41-30.77-18.41-30.77l1.27-38.48,5.22-33.23Z"/>
    <path class="cls-7" d="M45.3,151.03c-3.49-3.88-7.62-7.15-12.2-9.66-2.76-1.79-8.2-7.86-9.43-6.78-1.6,1.36-1.94,3.71-.77,5.46,1.21,2.5,7.32,5.58,6.99,8.7-.11,1.28-1.24,2.23-2.52,2.12-.01,0-.03,0-.04,0h0c-5.14-.41-10.25-1.08-15.33-2-4.46-1.06-8.65-.83-8.65.76s.72,2.58,4.41,3.53,9.83,1.57,10.08,2.48-1.16,1.26-3.31.76-12.46-2.12-13.34-.96c-.8,1.03-.62,2.51.4,3.32.11.08.22.16.34.22l2.17,1.14c2.22.05,4.44.21,6.64.49,3.19.12,6.37.45,9.52.98.15.65-5.04.43-9.61-.11-2.3-.09-4.58-.36-6.83-.81-.44.6-1.06,1.67-.3,2.53,1.06,1.27,3.71,1.29,3.71,1.29l13.75,1.67s.66.94.18,1.45-11.04-1.89-11.3-.75c-.25,1.14-1.27,1.57,1.82,2.84,4.55,1.49,9.31,2.22,14.1,2.17,3.77.03,7.54.21,11.3.54,2.45.22,6.36.09,7.81-1.9l2.66-6.67c1.51-4.38.65-9.22-2.27-12.81Z"/>
    <path class="cls-9" d="M92.46,184.04c.97-16.83.71-33.71-.77-50.51-.38-4.69-.83-9.37-1.35-14.05,0-.19-1.06,0-1.01.28,1.94,16.75,2.83,33.6,2.67,50.46-.06,4.7-.25,9.39-.55,14.09,0,.14.99,0,1.06-.28h-.04Z"/>
    <path class="cls-9" d="M196.32,176.2c.67-12.7.28-25.58,1.7-38.25.44-3.91,1.06-7.82,1.73-11.64.07-.41-.95-.25-1.06.12-1.15,6.22-1.94,12.49-2.38,18.8-.36,5.78-.39,11.55-.54,17.33-.13,4.59-.3,9.18-.54,13.75,0,.43.99.24,1.06-.12h.02Z"/>
    <path class="cls-9" d="M59.12,164.18c9.27,2.51,14.35,11.39,15.12,20.49,0,.21,1.06,0,1.06-.28-.77-9.2-5.95-18.1-15.3-20.64-.25-.06-1.17.34-.86.42h-.02Z"/>
    <path class="cls-9" d="M216.52,184.62c-.33-1.56.51-3.31,1.15-4.69.71-1.53,1.59-2.98,2.61-4.33,1.11-1.53,2.44-2.89,3.95-4.04,1.55-1.01,3.26-1.72,5.07-2.12.56-.15.47-.51-.1-.36-1.87.42-3.65,1.13-5.29,2.12-1.62,1.12-3.05,2.49-4.23,4.07-1.14,1.43-2.11,2.99-2.9,4.63-.7,1.45-1.61,3.33-1.25,4.98.05.25,1.06,0,.94-.25l.04-.02Z"/>
    <rect class="cls-6" x="149.55" y="17.42" width="5.08" height="13.54" rx="2.4" ry="2.4" transform="translate(-1.78 17.77) rotate(-6.65)"/>
    <rect class="cls-6" x="132.38" y="39.07" width="13.54" height="5.08" rx="2.4" ry="2.4" transform="translate(40.48 148.17) rotate(-63.85)"/>
    <path class="cls-3" d="M124.68,64.91v.1s-.01-.07,0-.1Z"/>
    <path class="cls-7" d="M148.96,83.88l9.73.52,4.35-.24c1.86,0,3.53-1.13,4.23-2.85,1.62-3.7,2.12-5.59,2.32-6.03,1.35-2.89,2.46-5.89,3.33-8.96.7-2.67,1.56-4.23,1.83-7.41.21-2.35.16-3.98-1.24-7.72-.35-.94-.42-1.97-.2-2.95.42-2.2.51-4.76,1.01-7.7.12-.52.18-1.06.17-1.6,0,0,0-12.21-2.32-16.48-2.32-4.27-4.68-8.64-7.91-9.34s-13.75,2.71-13.75,2.71l-17.39-1.4-6.62,5.89-5.13,13.75,1.4,15.64,1.98,15.24"/>
    <path class="cls-5" d="M124.64,27.04c-1.13-6.93,4.97-9.8,7.52-11.11,2.12-1.06,8.29-3.35,12.87-2.86,1.97.21,1.21,4.37,2.3,5.07.35.06,4.37.8,5.96.97,2.01.34,4.07.3,6.06-.12,1.06-.43,2.22-.58,3.35-.44,2.04.22,2.71-4.81,7.04-.28l.19-.21c-5.53-6.71-12.42-6.35-20.71-7.2-.88-.1-1.79-.16-2.69-.19-13.17-.41-12.75-.33-20.92,8.7-4.75,5.29-7.47,10.19-7.28,13.23v.69c.19,3.17-2.69,11.91-1.49,13.6.76,1.06,3.17,5.87,5.29,9.96l6.27-.13c-.18-1.17-1.06-11.25-1.2-12.45"/>
    <path class="cls-7" d="M124.97,65.12c-4.88,5.12-6.19-3.25-6.19-3.25-3.64-4.16-3.76-8.69-3.7-11.79s3.46-3.17,3.46-3.17c2.9.23,4.54.91,7.2,10.58"/>
    <path class="cls-5" d="M160.77,15.85c-4.7.12-17.17-2.62-23.56-2.77-2.64-.05-11.14,6.84-12.22,8.38-2.46,3.51,3.89,11.09-.17,22.14-1.33,3.65-3.68-2.55-5.47-.13s-2.46,3.42-2.46,3.42c-1.82-10.35-1.77-9.99.11-20.34s12.84-15.3,18.22-16.36,22.8-.1,27.58,1.9"/>
    <path class="cls-16" d="M123.01,56.64c-.68-1.42-1.48-2.77-2.41-4.03-.47-.66-1.04-1.25-1.69-1.73-.28-.21-.6-.36-.94-.43-.36,0-.5.25-.63.54-.55,1.32-.61,2.8-.18,4.17.06.22.55.1.49-.14-.32-1.05-.36-2.17-.11-3.25.09-.38.25-.74.47-1.06l-.22.11c-.12,0,0,0,0,0h.12c.21.07.41.17.59.31.92.69,1.69,1.56,2.29,2.54.67,1.02,1.28,2.08,1.81,3.17.1.19.56,0,.44-.22v.03Z"/>
    <path class="cls-16" d="M121.93,57.25c-2.12,0-.75,2.69-.93,3.8v.19c0,.06-.05.07,0,.07h.18s-.13-.13-.14-.16c-.08-.11-.15-.22-.2-.35-.26-.59-.45-1.21-.58-1.84-.19-.78-.27-1.59-.22-2.4.07-.92.29-2.32,1.23-2.76.31-.15,0-.3-.19-.19-.83.5-1.37,1.37-1.44,2.34-.14.7-.16,1.41-.06,2.12.12.82.31,1.63.58,2.41.12.34.29.93.65,1.06.29.11.62-.02.75-.3.1-.35.1-.71,0-1.06-.07-.51-.68-2.66.29-2.64.17,0,.52-.26.19-.26l-.1-.02Z"/>
    <path class="cls-5" d="M155.51,36.85v4.63c-1.97-.49-3.73-1.22-5.01-1.44-2.53-.42-5.11-1.06-7.68-.69-1.16.12-2.3.45-3.33.99-.33.18-1.21.95-1.68.74-.2-.08.14-.98.17-1.06.69-1.83,2.42-2.57,4.54-2.99,4.31-.75,8.71-.81,13.03-.17"/>
    <path class="cls-5" d="M174.72,37.27l-1.3-.22c-3.59-.55-7.24-.39-10.77.45,0,.73.1,1.47.15,2.21,0,.56.08,1.59.13,2.12,1.6-.59,2.96-1.25,4-1.52,2.04-.69,4.19-1.01,6.35-.94l1.25.15c.63-1.04.51-2.09.2-2.24Z"/>
    <path class="cls-18" d="M159.2,66.61c-3.68,0-9.65-.5-9.65-.5,0,0,.66,8.95,9.18,9s8.91-8.85,8.91-8.85c0,0-4.77.37-8.44.35Z"/>
    <path class="cls-2" d="M159.29,66.61c-1.75,0-8.8-.35-8.8-.35,0,0,2.3,6.16,8.62,6.2,3.74.26,7.07-2.35,7.71-6.04l-7.53.19Z"/>
    <path class="cls-11" d="M159.29,66.88c-1.75,0-7.08-.34-7.08-.34,0,0,1.9,1.93,7.16,1.96s6.93-1.81,6.93-1.81l-7.01.19Z"/>
    <path class="cls-18" d="M167.75,65.7c-.18,0,.3.29-.57.21-1.45-.14-2.35-.52-3.4-.61-1.79-.15-2.93.55-3.71.55s-1.91-.72-3.7-.59c-1.06.07-3.65.43-5.1.55-.71-.02-1.42-.1-2.12-.23-.26.06.23,1.97,10.02,2.03s8.82-1.84,8.58-1.9Z"/>
    <path class="cls-5" d="M158.87,63.77l-.19.94c-.05.25-.25.44-.51.48-1.8.26-8.35,1.45-9.99,1.45h-.4c-.61-.11-.43-.92.14-1.14,1.38-.56,2.79-1.03,4.23-1.41,2-.49,4.03-.82,6.08-.99.34-.01.62.25.64.59,0,.03,0,.06,0,.09Z"/>
    <path class="cls-5" d="M161.24,63.66v1.06c.05.23.23.41.45.47,1.5.25,6.35,1.32,7.69,1.31h.87c.5-.12,0-1.17-.51-1.4-1.05-.5-2.14-.93-3.25-1.27-1.57-.43-3.18-.7-4.8-.81-.3.05-.51.33-.46.63,0,0,0,.01,0,.02Z"/>
    <path class="cls-5" d="M166.05,84.14l.96-1.86s-16.65,2.94-19.92,2.12c-8.64-2.22-15.61-14.4-15.61-14.4,1.6,3.83,3.9,7.31,6.79,10.28,4.94,5.17,6.1,5.82,11.19,5.65,3.86-.13,10.99-.24,14.2-.3,1.01-.02,1.93-.59,2.39-1.49Z"/>
    <path class="cls-5" d="M115.2,49.17c-2.04-4.3-3.12-8.99-3.17-13.75-.33-8.56-.17-20.1,9.52-24.98,1.74-.86,3.59-1.47,5.5-1.81,0,0,6.26-7.05,24.68-4.23,12.94,1.99,18.19,7.05,19.71,16.84,0,0-3.75-4.98-4.81-4.46s-1.93,3.17-6.23,3.68-11.22.13-14.12-1.58c-2.9-1.7-8.14-3.36-11.08-2.86-7.15,1.25-7.74,6.71-8.23,9.91s-1.81,14.5-5.29,16.18c-1.95.81-3.3,2.63-3.48,4.74l-.56.24c-.99.43-1.84,1.13-2.44,2.03v.04Z"/>
    <path class="cls-5" d="M131.48,69.99c8.36,9.17,13.36,11.7,16.4,11.85s5.45.99,7.57,0c2.6-1.2,3.33-2.6,4.04-2.12.32.21,1.47,1.82,1.78,2.04.66.44,2.54.12,3.27-.2,1.8-.68,3.27-2.03,4.1-3.77-.66,2-1.17,4.81-2.99,5.87-1.12.66-2.87.49-4.17.57-2.85.19-5.55.37-8.41.47-2.51.08-5.06.34-7.41-.41-4.03-1.24-8.46-6.35-11.14-9.81l-3.05-4.5Z"/>
    <path class="cls-17" d="M158.96,60.97c.87.34,1.8.49,2.73.45.81.07,1.63-.09,2.36-.45.55-.34,1.01-.81,1.34-1.36.15-.59.09-1.21-.17-1.76-.18-.58-.48-1.06-.67-1.68,0-.14-.43,0-.39.11.45.91.76,1.88.92,2.88-.06.53-.35,1.01-.79,1.31-.23.21-.49.38-.77.51-.39.12-.8.18-1.22.19-1.02.1-2.05-.04-3.02-.4-.12,0-.48.13-.32.19v.02Z"/>
    <path class="cls-17" d="M155.41,58.29c-.35-.04-.7.14-.87.45-.15.33-.22.69-.19,1.06-.01.33.11.66.33.91.39.33.88.51,1.39.52.32.03.64,0,.94-.08.35-.11.67-.26,1.06-.34,0,0,.23,0,.23-.11s-.12,0-.15,0c-.25.06-.5.13-.74.22-.24.12-.5.18-.77.2-.45.01-.9-.1-1.29-.32-.5-.39-.71-1.05-.52-1.65.02-.16.08-.32.16-.47.03-.07.08-.13.13-.18h.07s-.06,0,0,0c.1,0,.2-.02.29-.07.05,0,.05-.07,0-.07l-.06-.07Z"/>
    <path class="cls-7" d="M282.42,175.75c-3.41-.26-9.65-.77-10.1-1.63.73-.44,6.84.2,10.22.75,2.05.04,4.09.2,6.11.47h1.58c.12-.04.24-.09.35-.15,1.17-.59,1.64-2.01,1.06-3.17-.68-1.21-11.1-1.53-13.3-1.45s-3.46-.52-3.1-1.38,6.47-.42,10.27-.6,4.71-1.06,4.98-2.6-3.81-2.56-8.39-2.33-15.45-.83-15.45-.83c0,0-2.86-.3-3.34-1.5-1.15-2.93,8-6.07,9.64-8.32,1.41-1.51,1.49-3.83.18-5.43-1.06-1.31-7.47,3.69-10.51,4.93-4.96,1.63-9.61,4.09-13.75,7.28-3.51,3-5.21,7.6-4.51,12.17l3.05,5.92c1.24,2.41,3.61,4.02,6.3,4.29,3.62.36,7.22.86,10.8,1.5,4.7.93,9.53,1.09,14.28.47,3.26-.74,2.33-1.27,2.27-2.46-.05-1.2-10.84-.76-11.22-1.33s.43-1.38.43-1.38l13.75.85s2.67.48,3.88-.58c.96-.84.13-2.12-.19-2.66-1.75-.4-3.52-.67-5.31-.83Z"/>
    <path class="cls-7" d="M246.66,176.48c1.64,2.38,3.89,4.27,6.52,5.46l.62-.43,6.68-12.03-12.7-3.23-1.53.86c-1.42,3-1.27,6.51.41,9.37Z"/>
    <path class="cls-4" d="M258.49,171.65c1.86-1.83,3.09-4.66,3.39-7.82.08-.86-.84-.48-.91.29-.26,2.8-1.36,5.31-3.02,6.91-.18.15-.53.31-.42.56.02.05.05.1.08.14.27.21.6.18.84-.08h.04Z"/>
    <path class="cls-15" d="M139.91,47.77s5.19.9,7.83.4c2.65-.5,5.6-1.01,5.6-1.01,0,0-4.76-2.44-6.17-2.22s-6.41,1.3-7.26,2.83Z"/>
    <path class="cls-5" d="M147.46,44.83c-.7-.28-1.49-.11-2.02.41-.26.23-.44.53-.53.86-.14.61.04,1.25.48,1.7.53.52,1.34.64,2,.31.8-.44,1.18-1.38.91-2.25-.12-.45-.43-.83-.84-1.06"/>
    <path class="cls-5" d="M153.5,47.22s-4.39-2.66-6.52-2.67c-3.11,0-6.77,1.88-7.74,3.4,0,0,4.82-2.79,7.01-2.72s7.25,1.99,7.25,1.99Z"/>
    <path class="cls-13" d="M138,44.47l.78,2.31c.73,2.19,1.69,4.29,2.87,6.26.88,1.35,10.58,1.93,12.48.85,1.9-1.08,2.97-6.51,3.48-7.77l3.88.23c.35,1.63,1.56,6.79,2.3,7.5s5.18.59,5.68.58,1.06,0,1.64-.08c1.68-.11,3.72-.37,4.35-.98.93-.9,1.96-4.35,2.84-7.61l.15-.51c0-.13.06-.21.07-.24h0l.15-.59c-5.59-2.64-12.92-2.24-17.37.93v.06l-3.79-.24c-4.23-2.81-11.64-4.36-16.93-2.38h0l-14.81,4.02v1.47l12.23-3.81ZM164.25,53.32c-.47-.43-1.42-4.05-2.12-6.87,3.87-2.69,10.48-3.04,15.48-.95v.06c-.47,1.76-1.72,6.41-2.64,7.29-1.06,1.06-9.94,1.15-10.75.48h.03ZM142.81,52.66c-1.64-2.53-2.86-5.32-3.62-8.24,4.71-2.12,13.33-.81,17.51,1.84-.67,2.27-1.51,6.24-2.89,7-1.96,1.12-10.43.25-10.98-.6h-.02Z"/>
    <path class="cls-15" d="M163.46,47.73s5.19.75,7.8.09c2.09-.53,2.27-.64,2.27-.64,0,0-1.97-2.09-3.33-2.07-1.43.01-5.88,1.09-6.74,2.62Z"/>
    <path class="cls-5" d="M169.88,45.1c-.19.01-.37.01-.56,0h-.79c-.14.03-.28.07-.41.12-.44.21-.89.44-1.33.63h0c-.14.61.04,1.25.48,1.7.53.53,1.34.65,2,.31.8-.44,1.18-1.38.91-2.25-.07-.18-.17-.35-.29-.51Z"/>
    <path class="cls-5" d="M163.46,47.6s3-3,5.13-3.03c3.11,0,3.97,1.06,4.94,2.6,0,0-2.02-2-4.23-1.93s-5.84,2.35-5.84,2.35Z"/>
    <path class="cls-4" d="M32.85,161.02c-1.86-1.83-3.09-4.66-3.39-7.82-.08-.86.84-.48.91.29.26,2.8,1.36,5.31,3.02,6.91.18.15.53.31.42.56-.02.05-.05.1-.08.14-.27.21-.6.18-.84-.08h-.04Z"/>
  </g>
</svg>