<svg xmlns="http://www.w3.org/2000/svg" xmlns:xlink="http://www.w3.org/1999/xlink" viewBox="0 0 292.89 301.99"><defs><style>.cls-1{fill:none;}.cls-2{clip-path:url(#clip-path);}.cls-3{fill:#c3e6f7;}.cls-4{fill:#a382ad;}.cls-5{fill:#c79e81;}.cls-6{fill:#412319;}.cls-7{fill:#27153c;}.cls-8{fill:#28618a;}.cls-9{fill:#774e80;}.cls-10{fill:#010101;}.cls-11{fill:#13110f;}.cls-12{fill:#975449;}.cls-13{fill:#32160e;}.cls-14{fill:#f1edf6;}.cls-15{fill:#fff;}</style><clipPath id="clip-path"><path class="cls-1" d="M180.14,29.78c-12.46-18.6-37-15.87-37-15.87-12.29,1.48-20.47,7.17-25.8,15a126.36,126.36,0,1,0,62.82.86Z"/></clipPath></defs><g id="Layer_8" data-name="Layer 8"><g class="cls-2"><circle class="cls-3" cx="147.19" cy="151.75" r="126.36" transform="translate(-64.19 148.53) rotate(-45)"/><path class="cls-4" d="M196.4,205.7s-1.43,12.31.14,17.15,13.29,30.44,14.37,42.91-113.74,5.39-113.74,5.39,1.63-18.71,5-26.93a147.29,147.29,0,0,0,7.32-24.88C111.08,211.91,196.4,205.7,196.4,205.7Z"/><path class="cls-4" d="M188.62,122.74,169.2,118.3l-37.65,1-34.24,8.81c-.55,2.67-.21,5.75-.28,8.45-.16,6-.26,12.07-.42,18.11s-1.86,11.14-2,17.33c-.12,5.74.58,15.54,3.19,20.9a19.9,19.9,0,0,0,1.06,1.92c1.88,3,6.79,4.84,7,8.33.42,6.53-.17,27.2-9.05,49.93-1.32,3.38-3.2,14.08-4.2,17.57-11.34,39.48,35.94,25.16,51.2,25.16,17.55,0,82.17,4.54,70-31.44-.06-.19-10.54-34.87-10.59-35-1.76-5-1.73-14.64-1.73-28.32a10.66,10.66,0,0,1,1.47-5.57c3-4.93,3.28-12.91,3.64-18,.32-4.64,1.83-14.5-1-22.93C200.3,138.51,188.62,122.74,188.62,122.74Z"/><path class="cls-4" d="M75.63,234.77c-13.45,1.31-20.88-3-24.51-6.79-2.65-2.8-3.49-9.67-1.85-15.39,3.95-13.71,17.42-43,22.08-52.42s8-28.15,26.45-33.75c12.78-3.88,22.09-6.53,22.09-6.53s1.36,35.74-12.54,54.28l-3.23-.81L86.54,204.3l39.75,3.78-.19,22.08Z"/><path class="cls-4" d="M187.19,122.74l13.21,4.19s7.93-1,13.48,5.12S226,149,231.55,155.31c4.14,4.71,21.51,19.79,23.91,25.92,5.11,13.07.42,24.47-8.49,25.34,0,0-46.8-46.65-47.33-46.46s-5.09,4.55-5.09,4.55-5.16-12.73-7.51-19.53S187.19,122.74,187.19,122.74Z"/><path class="cls-4" d="M181.15,155.31s24.28,11.13,34.66,11.84,23.15,2.78,28.36,7.31,5.2,31.71,5.2,31.71-5.11,2.81-16.67-1S172.44,178,172.44,178Z"/><path class="cls-5" d="M136.3,211.47s8.44-7.65,9.92-9.68,4.83-7.35,6.13-7.48,2.47,1.91,2.16,4.22-4.75,6.94-3.95,8,18.8,1.24,22,1.45,11.87,1.29,10.81,5.32c0,0,4,1.14,3.72,2.9a5.69,5.69,0,0,1-.78,2.35s-.26,3.26-3.11,3.45a21.76,21.76,0,0,1-4.7-.15s1.69,1.67-.78,3.18-14.9,2.18-14.9,2.18-6.62,3.22-11.35,2.88-13.39-3.19-13.39-3.19Z"/><path class="cls-6" d="M184,213.49c-.5-.19-1.25-.42-2.17-.69a61.29,61.29,0,0,0-7.36-1.62,63.22,63.22,0,0,0-7.5-.7c-.77,0-1.42,0-1.93,0,0,.07,0,.14,0,.21l1.92.13c.72.05,3.29.18,7.45.83,2.89.45,5.48,1,7.34,1.47a29.89,29.89,0,0,0,3,.71A2.89,2.89,0,0,0,184,213.49Z"/><path class="cls-6" d="M174.2,216.24c-3.71-.49-7.07-.91-9.54-1.19v.18c2.08.38,5.12.89,9.48,1.47,7.56,1,12.17,2,12.19,1.83S181.76,217.24,174.2,216.24Z"/><path class="cls-6" d="M163.27,220.09a14,14,0,0,0,2.47.3c1.53.14,3.64.34,6,.62,1.09.13,3.15.39,6,.79a13.75,13.75,0,0,0,2.47.28,12.32,12.32,0,0,0-2.42-.6c-1.51-.3-3.61-.65-5.94-.92s-4.46-.43-6-.49A12.3,12.3,0,0,0,163.27,220.09Z"/><path class="cls-7" d="M86.26,203.76A15,15,0,0,0,74.07,207c-.36.3.19.59.47.35A14.12,14.12,0,0,1,86,204.29c.36.07.69-.45.23-.53Z"/><path class="cls-7" d="M103.33,232.44c10.83-.59,21.58-2.45,32.26-4.26.34-.05.57-.48.09-.4-10.68,1.81-21.43,3.68-32.26,4.26-.35,0-.57.43-.09.4Z"/><path class="cls-7" d="M106.17,206.28c9.26,2,18.56,3.68,27.87,5.33.23,0,.82-.32.43-.39-9.32-1.65-18.62-3.37-27.88-5.33-.23,0-.82.31-.42.39Z"/><polygon class="cls-5" points="137.02 211.41 134.25 211.41 135.64 227.98 139 226.81 137.02 211.41"/><path class="cls-7" d="M96.19,187.78a50,50,0,0,1,.41-6.14,120.2,120.2,0,0,1,1.56-12.1c.66-3.45,1.15-6.9-.18-10.27a8.44,8.44,0,0,0-2.17-3.35c-.2-.16-.85.11-.64.28a8.41,8.41,0,0,1,2.2,3.48c1.38,3.71.53,7.38-.12,11.13s-1.1,7.8-1.42,11.72a45,45,0,0,0-.34,5.44c0,.24.71.1.7-.19Z"/><path class="cls-7" d="M204,163.79c-.92-5-1.62-10.17-.11-15.11.05-.15-.63-.07-.68.12-1.52,5-.83,10.18.1,15.18,0,.16.73,0,.69-.19Z"/><path class="cls-7" d="M174.35,172.2l-2.25,5.86c0,.05,0,.09.06.11l27.83,13,3.95,1.85c.19.09.83-.19.56-.31l-31.12-14.58c-.13-.06-.55-.17-.62-.29.07.13.32-.66.41-.91L175,172.1c.07-.19-.61-.11-.69.1Z"/><path class="cls-8" d="M72.31,104.52s14.37.6,21.6-6.5l-2.79-1,7.58-1.65-1.22,6.86-1.59-2.38S89.36,107.46,72.31,104.52Z"/><path class="cls-8" d="M97.17,87.47s-14.38-.6-21.6,6.5l2.78,1L70.78,96.6,72,89.73l1.59,2.39S80.12,84.53,97.17,87.47Z"/><path class="cls-8" d="M196.34,89.49s14.38-.6,21.6,6.5l-2.79,1,7.58,1.65-1.22-6.86-1.59,2.38S213.39,86.55,196.34,89.49Z"/><path class="cls-8" d="M218.56,106.25s-14.38.6-21.6-6.5l2.79-1-7.58-1.65,1.22,6.86L195,101.6S201.51,109.19,218.56,106.25Z"/><path class="cls-9" d="M179.35,156.74c.61.28,5,1.57,5.53,2,12.81-4.12,28.21-13.92,29.6-26,.58-5-8.91-14.74-18.14-17.95-5.24-1.83-13.84-12.47-13.84-12.47s2.81-15,4.47-27.73a101,101,0,0,0-1.33-31.93c-7.87-32.59-42.52-28.74-42.52-28.74-52.15,6.28-30.36,88.35-30.36,88.35l-6.26,10.5c-18.2,10-24.27,17.63-24.87,27.07,0,0,18.88,29.88,65.7,30.93,0,0,28.18,3.28,32.3-14.55"/><path class="cls-5" d="M178,57.85a32.86,32.86,0,0,0-2.48-4.22c-1.24-1.79-2.42-3.64-3.69-5.41a27.58,27.58,0,0,0-7.11-7.1,25.17,25.17,0,0,0-8.22-3.51,32.51,32.51,0,0,0-25.65,5.74,27.08,27.08,0,0,0-6.33,7.35,54.37,54.37,0,0,0-5.75,13.56c.14.93.3,1.86.46,2.8v0s0,0,0,.07c.28,1.58.59,3.19.9,4.86.41,2.26.82,4.63,1.15,7.2C122.72,90.73,125.84,96,133,101.12c7.45,5.33,9.68,7.41,16.11,7.67,6.44-.26,8.67-2.34,16.12-7.67,7.11-5.09,10.23-10.39,11.68-21.91.55-4.37,1.35-8.18,2-11.79,0,0,0,0,0,0,.35-2,.66-3.9.87-5.83C179.13,60.32,178.56,59.06,178,57.85Z"/><path class="cls-10" d="M150.74,83.11a2.36,2.36,0,0,1-2.82-.16c-.18-.15-.78,0-.53.22a3.31,3.31,0,0,0,3.84.13c.1-.07.09-.18,0-.23a.51.51,0,0,0-.45,0"/><path class="cls-10" d="M147,82.86a3.65,3.65,0,0,0-1.68-.59.3.3,0,0,0-.26.11.14.14,0,0,0,0,.2,1.4,1.4,0,0,0,.93.3.29.29,0,0,0,.28-.16c.06-.11,0-.18-.12-.18a1.13,1.13,0,0,1-.74-.24l-.26.31a3.21,3.21,0,0,1,1.51.54.28.28,0,0,0,.31-.05c.06,0,.13-.18,0-.24"/><path class="cls-10" d="M144.64,83a2.23,2.23,0,0,1-1.88-1.16,2.6,2.6,0,0,1,.85-3.09c.09-.08,0-.18-.06-.2a.43.43,0,0,0-.37.1A3,3,0,0,0,142,81.23a2.3,2.3,0,0,0,1.63,1.91,3.06,3.06,0,0,0,.79.15c.1,0,.3,0,.35-.16s0-.16-.15-.17"/><path class="cls-10" d="M151.54,82.86a3.77,3.77,0,0,1,1.71-.59.31.31,0,0,1,.26.11.13.13,0,0,1,0,.2,1.4,1.4,0,0,1-.93.3.32.32,0,0,1-.29-.16.12.12,0,0,1,.12-.18,1.19,1.19,0,0,0,.76-.24c.08.1.17.2.25.31a3.25,3.25,0,0,0-1.52.54.28.28,0,0,1-.31-.05c-.06,0-.13-.18,0-.24"/><path class="cls-10" d="M153.92,83a2.23,2.23,0,0,0,1.89-1.16,2.62,2.62,0,0,0-.85-3.09c-.1-.08,0-.18,0-.2a.44.44,0,0,1,.38.1,3,3,0,0,1,1.15,2.62,2.28,2.28,0,0,1-1.63,1.91,3,3,0,0,1-.78.15c-.11,0-.3,0-.35-.16s0-.16.14-.17"/><path class="cls-11" d="M128.76,61.35a20.55,20.55,0,0,0-2.61.16,7.89,7.89,0,0,1,.93-.66,12.46,12.46,0,0,1,3.79-1.37c1.62-.32,6.08.16,12,.74,0,.64,0,.58,0,1.22s0,1,0,1.46c-2.05-.42-3.81-.69-5.14-.87C137.7,62,131.79,61.33,128.76,61.35Z"/><path class="cls-11" d="M171.07,61.35a20.28,20.28,0,0,1,2.6.16,9.4,9.4,0,0,0-.92-.66,12.6,12.6,0,0,0-3.8-1.37c-1.61-.32-6.08.16-12,.74,0,.64,0,.58,0,1.22l0,1.46c2-.42,3.81-.69,5.13-.87C162.12,62,168,61.33,171.07,61.35Z"/><path class="cls-12" d="M149.31,88.91c-4.25,0-11.13-.53-11.13-.53S139.46,100,149.31,100s11.14-11.59,11.14-11.59S153.57,88.91,149.31,88.91Z"/><path class="cls-13" d="M149.36,88.91c-2,0-10.17-.37-10.17-.37s2.69,7.39,10,7.39c7.93,0,10.25-7.32,10.25-7.32Z"/><path class="cls-14" d="M149.44,89.23c-2,0-8.17-.36-8.17-.36s2.22,2.36,8.28,2.36,8-2.29,8-2.29Z"/><path class="cls-12" d="M160.9,87.71a14.15,14.15,0,0,1-2.39.27c-1.68-.15-3.7-.62-4.91-.72-2.07-.17-3.39.7-4.29.7s-2.21-.87-4.28-.7c-1.21.1-3.23.57-4.91.72a14.15,14.15,0,0,1-2.39-.27c-.3.08.28,2.42,11.59,2.42S161.2,87.79,160.9,87.71Z"/><path class="cls-15" d="M119.11,66.78S123.21,41,147.48,39.5c17-1,29.26,14.34,31.62,26.46,0,0,.59-1,.64-4.4s-7.37-31.24-32.58-30.22S118.37,60.9,118.37,60.9Z"/><path class="cls-7" d="M112.48,102.94c1,4,3.4,7.29,6,10.4A66.92,66.92,0,0,0,127.5,123c6.46,5.25,15.31,7.85,23.56,8a35,35,0,0,0,13.54-2.45c.46-.18,0-.35-.26-.23-8,3.21-17,2.91-25.19.22a34.22,34.22,0,0,1-11-5.78,63.06,63.06,0,0,1-8.26-8.71c-2.84-3.38-5.63-6.92-6.72-11.29,0-.2-.74,0-.69.19Z"/><path class="cls-7" d="M146,121.72c14.66,2.67,29.41-8.23,36.73-20.15.18-.31-.52-.28-.66,0a46.18,46.18,0,0,1-14.9,14.89c-6.15,3.82-13.49,6.21-20.76,4.89-.26,0-.82.35-.41.42Z"/><path class="cls-7" d="M180.83,60.21c.84-13.36-4.37-26.8-15.25-34.91-.23-.17-.85.16-.54.39,10.77,8,15.92,21.36,15.09,34.58,0,.34.68.23.7-.06Z"/><path class="cls-7" d="M118.2,61.5C116,48.62,119.73,34.44,130,25.87c.36-.3-.19-.57-.46-.34-10.43,8.71-14.3,23-12,36.16.06.33.76.16.7-.19Z"/><path class="cls-11" d="M172.13,65.88s-4.49,3.55-6.64,3.76c-3.14.3-5.34.07-7.83-1.57a21.35,21.35,0,0,0,7.32.55C167.09,68.38,172.13,65.88,172.13,65.88Z"/><path class="cls-11" d="M127.67,65.81s4.6,3.65,6.75,3.86c3.14.3,5.9-1,8.06-2.08,0,0-5.46,1.24-7.66,1S127.67,65.81,127.67,65.81Z"/><path class="cls-5" d="M180.18,157.35s-6.64-9.26-7.65-11.56-3.18-8.2-4.43-8.6-2,1.81-2.22,4.15,3,7,2,8-19.2-2.5-22.34-3-11.87-1.23-11.69,2.93c0,0-4.17.26-4.24,2.05a5.76,5.76,0,0,0,.26,2.46s-.43,3.25,2.31,4a21.66,21.66,0,0,0,4.63.85s-2,1.28.09,3.28,14.1,5.27,14.1,5.27,5.8,4.55,10.5,5.21,13.76-.3,13.76-.3Z"/><path class="cls-6" d="M153.43,150.65c0,.06-1.18-.14-3.08-.41-.72-.11-3.25-.52-7.46-.77-2.92-.16-5.57-.15-7.49-.1a28.44,28.44,0,0,1-3.11,0,2.8,2.8,0,0,1,.82-.16c.54-.07,1.31-.15,2.27-.21a61,61,0,0,1,15,.87c.95.17,1.71.34,2.23.47A2.67,2.67,0,0,1,153.43,150.65Z"/><path class="cls-6" d="M153.1,155c-2.5-.26-6.49-.62-11-1-7.6-.61-12.32-.45-12.33-.32s4.7.16,12.29.78c5.49.44,8.94.55,11,.61Z"/><path class="cls-6" d="M152,160.09a14.93,14.93,0,0,1-2.48-.23c-1.53-.18-3.63-.43-6-.65-1.09-.1-3.16-.29-6-.48a14.41,14.41,0,0,1-2.48-.25,12.38,12.38,0,0,1,2.5-.07c1.54,0,3.66.12,6,.34s4.45.53,6,.79A12.51,12.51,0,0,1,152,160.09Z"/><path class="cls-7" d="M243.89,178.33c-7.65-7.77-18.51-10.25-28.83-12.21-4.27-.81-8.68-1.31-12.86-2.5-3.89-1.11-7.77-2.29-11.64-3.46l-9.89-3c-.26-.08-.82.29-.41.41,6.74,2,13.48,4.1,20.25,6.08,9.79,2.86,20.23,3.11,29.82,6.79a36.88,36.88,0,0,1,12.92,8.16c.19.19.85-.08.64-.29Z"/></g></g></svg>