<svg xmlns="http://www.w3.org/2000/svg" xmlns:xlink="http://www.w3.org/1999/xlink" viewBox="0 0 292.89 301.99"><defs><style>.cls-1{fill:none;}.cls-2{clip-path:url(#clip-path);}.cls-3{fill:#c3e6f7;}.cls-4{fill:#c79e81;}.cls-5{fill:#4f2e25;}.cls-6{fill:#628e9f;}.cls-7{fill:#27153c;}.cls-8{fill:#ddad6f;}.cls-9{fill:#4c3059;}.cls-10{fill:#0a2f44;}.cls-11{fill:#825639;}.cls-12{fill:#151210;}.cls-13{fill:#131429;}.cls-14{fill:#040404;}.cls-15{fill:#94664a;}.cls-16{fill:#060505;}.cls-17{fill:#f1eef7;}.cls-18{fill:#13110f;}</style><clipPath id="clip-path"><path class="cls-1" d="M292.89,178a37.54,37.54,0,0,0-19.49-32.92A126.54,126.54,0,0,0,170.84,29,44.65,44.65,0,0,0,84.53,43.36,126.5,126.5,0,1,0,257.34,215.47,37.55,37.55,0,0,0,292.89,178Z"/></clipPath></defs><g id="Layer_17" data-name="Layer 17"><g class="cls-2"><circle class="cls-3" cx="147.28" cy="153.27" r="126.49" transform="translate(-65.24 149.03) rotate(-45)"/><path class="cls-4" d="M277.69,170.75a19.37,19.37,0,0,0,2.08-.88,2.31,2.31,0,0,0,.82-2.05,13.62,13.62,0,0,0-.41-1.94c-.3-.55-.06-.2.36-.65l.55-.59a1.38,1.38,0,0,0,.39-.81,6.38,6.38,0,0,0-.05-1.9c-.25-1.05-2.21-2.12-2.21-2.12l.67-.53a1.81,1.81,0,0,0,.44-2.14l-.17-.44a4.83,4.83,0,0,0-.85-1.1,1.51,1.51,0,0,1-.22-1.94,2.34,2.34,0,0,0,.52-1.56A4.59,4.59,0,0,0,275.8,149a2,2,0,0,0-.35,0,71.43,71.43,0,0,0-9.18,1.41c-.21,0-3.75,0-4-.05-1.13,1.29.78,2.28-.87,2.9s-3.12.94-4.68,1.43a1.51,1.51,0,0,0-1,1.09h0a1.54,1.54,0,0,1-.17.42l-5,8.62c-.29.51-2.87,1.12-2.67,1.68,2.19,6.06,6.22,12.48,6,12.56s4.08-2.95,5.88-2.69C259.81,176.37,270.18,174.19,277.69,170.75Z"/><path class="cls-4" d="M265.2,152a14.17,14.17,0,0,1-2.28-1.77,2.81,2.81,0,0,1-.08-.31,29.77,29.77,0,0,0-2.84-8.45c-1.64-2.79-3.61-2.91-4.79-2.67a.91.91,0,0,0-.72,1.1s0,.1,0,.15a47.85,47.85,0,0,1,2.07,5.89c.2,1-.29,6.43-.62,9.74C258.73,154.44,263.39,154.39,265.2,152Z"/><path class="cls-5" d="M274.15,149.59c-1.43.52-2.83,1.08-4.22,1.68-1.05.46-2.1.95-3.11,1.5a7.44,7.44,0,0,0-2.14,1.48,3.36,3.36,0,0,0-.61,2.71c.28,1.08,1.54,1.17,2.47,1.06a36.55,36.55,0,0,0,6.24-1.65q2.58-.81,5.15-1.68c.52-.18,0-.44-.31-.32a93.84,93.84,0,0,1-10,3c-.77.18-2,.51-2.58-.2s-.24-2.14.21-2.79a5.38,5.38,0,0,1,1.86-1.33c.94-.53,1.93-1,2.91-1.41q2.18-1,4.4-1.77c.52-.18.05-.44-.3-.31Z"/><path class="cls-5" d="M278.7,159.56c-1.6.51-3.23,1-4.86,1.35a32.3,32.3,0,0,1-3.78.72,4.25,4.25,0,0,1-2.94-.35,1.6,1.6,0,0,1-.72-1.79,3.06,3.06,0,0,1,2-1.7c.51-.19.05-.5-.32-.36-1.2.46-2.9,1.58-2.46,3.12.34,1.17,1.68,1.62,2.77,1.65a17.33,17.33,0,0,0,3.93-.49c1.41-.28,2.81-.64,4.19-1,.78-.22,1.55-.44,2.32-.69.47-.15.36-.58-.11-.43Z"/><path class="cls-5" d="M279.4,164.92c-1.69.47-3.42.85-5.15,1.15a26.12,26.12,0,0,1-3.94.45c-1.06,0-2.42,0-3.14-.93-1.25-1.6,1.64-3.09,2.77-3.46.47-.15.35-.65-.13-.49-1.39.46-3.42,1.4-3.69,3.05-.22,1.36,1.26,2.1,2.39,2.28a14.39,14.39,0,0,0,4.09-.13c1.5-.2,3-.49,4.46-.82.83-.19,1.66-.38,2.47-.61.48-.13.35-.62-.13-.49Z"/><path class="cls-5" d="M278.94,169.78q-1.79.06-3.57,0c-1,0-2-.05-2.94-.13a8,8,0,0,1-2.18-.37,1.5,1.5,0,0,1-1.06-1.14,1.33,1.33,0,0,1,1-1.26c.06,0,.4-.11.36-.22s-.36,0-.43,0c-.82.22-2.11,1-1.64,2,.36.81,1.39,1,2.17,1.14a37.91,37.91,0,0,0,6.12.28c.55,0,1.1,0,1.65,0A1,1,0,0,0,279,170c.09-.08.13-.17-.05-.17Z"/><path class="cls-5" d="M267.61,163c-2.94-.82-6.18-1.39-8.95.26-.14.08-.19.23-.06.34s.43,0,.56-.07c2.44-1.45,5.41-.79,8-.08.27.08.92-.33.47-.45Z"/><path class="cls-5" d="M258.48,176.07a4.46,4.46,0,0,1-3.21-4.51c0-.42-.77-.33-.8.05a5,5,0,0,0,3.74,5c.41.1.78-.47.27-.59Z"/><path class="cls-6" d="M178.7,188.3c10.12,2.3,11.62.65,11.62.65l59.76-25.7h0a33.34,33.34,0,0,0,8.73,18.25l1.08,1.14s-38.28,27.46-54.47,35.55c-3.38,1.69-18.55,13.58-30,7.62-3.6-1.34-13.35-16.17-14.31-19.07"/><path class="cls-6" d="M145.81,102.24s15.41,6.09,21.66,10.7c8,5.88,14.53,29.27,17,37.4,4.87,16.27,13.61,39.45,13.61,39.45l-27,13.8-20-34.3L136.83,98Z"/><path class="cls-7" d="M198.33,185.55a12.37,12.37,0,0,0-6.65,4.15,17.63,17.63,0,0,0-4.43,9.07c0,.25.69.12.73-.1a17.23,17.23,0,0,1,3.89-8.42c1.6-1.91,3.82-3.9,6.35-4.34.33-.06.62-.45.11-.36Z"/><rect class="cls-8" x="130.74" y="25.13" width="5.25" height="14" rx="2.62" transform="translate(-2.9 16.34) rotate(-6.93)"/><path class="cls-9" d="M126.06,114.16a174.85,174.85,0,0,1,1.08-21.33c.66-5.88,1.35-12.41,5.36-17.08.67-.78-1-.85-1.38-.36-4,4.63-4.88,10.79-5.58,16.65a176.83,176.83,0,0,0-1.19,22.31c0,.77,1.72.44,1.71-.19Z"/><rect class="cls-8" x="117.45" y="43.22" width="5.25" height="14" rx="2.62" transform="translate(33.95 -47.36) rotate(25.87)"/><path class="cls-10" d="M66.2,266l-1,24.71c-.29,16.47,3.26,27.75,7.82,43.58l9.66,66.92s0,29.08-3,53.11c-2.54,20.83,4,58.24,4,58.24l7.22,1.37a66.09,66.09,0,0,0,19.8.72L124.88,513l13.36-123.26L148,314.25l13.42-45.36Z"/><path class="cls-10" d="M170.61,266l-9.25,133.62c0,5.83-2.34,11.12-5,39.19l-5.09,47.82-1.83,20.79-4.11.71a63.33,63.33,0,0,1-17.16,1.08l-12.58-.51,14-240Z"/><path class="cls-4" d="M102.05,73.3a47.09,47.09,0,0,1,1.26,12.42c-.32,10-8.25,15.74-8.25,15.74l39.22,16.69,12.44-15.34S137.83,99,137.43,97s1.64-17,1.64-17"/><path class="cls-11" d="M105.25,74.35s0,.07,0,.11A.22.22,0,0,1,105.25,74.35Z"/><path class="cls-4" d="M127.43,93.83l10.07.48,4.49-.26a4.78,4.78,0,0,0,4.31-3c1.65-3.84,2.14-5.79,2.36-6.25a62,62,0,0,0,3.41-9.27c.7-2.76,1.58-4.41,1.85-7.71.2-2.42.13-4.11-1.32-8a5.52,5.52,0,0,1-.23-3c.43-2.28.5-4.92,1-8a6.55,6.55,0,0,0,.16-1.65s0-12.61-2.47-17-4.88-8.9-8.23-9.61-14.17,2.87-14.17,2.87L115.08,22.1l-11.23,6.17L98.61,42.46l1.52,16.15,2.12,15.74"/><path class="cls-12" d="M102,35.22c-1.21-7.16,5.08-10.15,7.71-11.51,2.22-1.16,8.56-3.51,13.29-3,2,.21,1.27,4.51,2.4,5.22.36.06,4.52.81,6.16,1a16.62,16.62,0,0,0,6.26-.15,7.08,7.08,0,0,1,3.46-.48c2.11.22,2.78-5,7.27-.31l.2-.23c-5.75-6.9-12.86-6.45-21.44-7.34-.91-.09-1.85-.15-2.78-.18-13.61-.36-13.17-.28-21.57,9.09C98.1,32.73,95.32,37.86,95.53,41l0,.71C95.79,45,92.86,54,94.1,55.77c.79,1.12,3.36,6.06,5.49,10.27l6.48-.16c-.2-1.22-1.18-11.62-1.3-12.87"/><path class="cls-4" d="M102.55,74.57c-5,5.32-6.41-3.32-6.41-3.32-3.79-4.28-3.93-9-3.89-12.16s3.56-3.26,3.56-3.26c3,.24,4.7.92,7.5,10.93"/><path class="cls-12" d="M142.3,23.48c-4.86.14-17.76-2.63-24.36-2.74-2.74,0-11.48,7.12-12.59,8.71-2.53,3.65,4.08,11.45-.06,22.89-1.37,3.77-3.83-2.62-5.66-.1s-2.53,3.53-2.53,3.53c-1.93-10.67-1.87-10.3,0-21s13.2-15.85,18.75-17,23.55-.21,28.5,1.83"/><path class="cls-13" d="M100.51,65.86A26.33,26.33,0,0,0,98,61.7a8.11,8.11,0,0,0-1.75-1.76,2.15,2.15,0,0,0-.89-.42c-.41-.06-.59.17-.75.5a6.07,6.07,0,0,0-.18,4.28c0,.1.54,0,.51-.14a6.59,6.59,0,0,1-.13-3.44,3.32,3.32,0,0,1,.51-1.15l-.42.14h0l.17,0a2.12,2.12,0,0,1,.62.31,9.31,9.31,0,0,1,2.39,2.61A28.94,28.94,0,0,1,100,66c.06.12.54-.06.51-.14Z"/><path class="cls-13" d="M99.37,66.45c-2.18,0-.73,2.8-.94,4a.84.84,0,0,0-.05.17c0,.06-.15.11,0,.06s0,0,0,0-.12-.12-.14-.16a1.41,1.41,0,0,1-.19-.34,9,9,0,0,1-.62-2,7.76,7.76,0,0,1-.23-2.44c.08-1,.29-2.37,1.26-2.83.31-.15,0-.3-.2-.2a3.08,3.08,0,0,0-1.48,2.42,6.75,6.75,0,0,0,0,2.15,13.77,13.77,0,0,0,.59,2.44c.12.36.29,1,.65,1.17a.61.61,0,0,0,.8-.25,1.74,1.74,0,0,0,.05-1.06c-.07-.53-.73-2.8.27-2.79.18,0,.54-.27.2-.28Z"/><path class="cls-12" d="M124.83,53.64A2,2,0,0,0,122.2,55a1.94,1.94,0,0,0,.5,1.75,1.79,1.79,0,0,0,2.07.31,2,2,0,0,0,.93-2.34,1.82,1.82,0,0,0-.87-1"/><path class="cls-12" d="M146.31,53.83a2,2,0,0,1,2.07.55,1.81,1.81,0,0,1,.49.92,1.93,1.93,0,0,1-.59,1.72,1.81,1.81,0,0,1-2.09.2,2,2,0,0,1-.79-2.39,1.77,1.77,0,0,1,.91-1"/><path class="cls-12" d="M142.22,56.27s3.22-2.75,5.43-2.78c3.21,0,4,.75,5,2.3a7,7,0,0,0-4.23-1.6C146.24,54.27,142.22,56.27,142.22,56.27Z"/><path class="cls-12" d="M131.94,55.89s-4.55-2.72-6.75-2.72c-3.21,0-7,2-8,3.54,0,0,5-2.91,7.23-2.84S131.94,55.89,131.94,55.89Z"/><path class="cls-12" d="M134,45.21c0,.76,0,1.53,0,2.29,0,.59,0,1.92,0,2.5-2-.5-3.87-1.25-5.19-1.46-2.62-.43-5.29-1-7.94-.68a9.79,9.79,0,0,0-3.44,1c-.34.18-1.24,1-1.74.78-.2-.09.14-1,.17-1.12.7-1.9,2.49-2.68,4.68-3.12A42.19,42.19,0,0,1,134,45.21"/><path class="cls-12" d="M153.82,45.54l-1.35-.22a28.81,28.81,0,0,0-11.13.52c.06.76.12,1.52.17,2.29.05.58.09,1.63.14,2.21,1.65-.62,3.06-1.31,4.13-1.6a19,19,0,0,1,6.58-1c.17,0,1.12.12,1.29.15C154.27,46.79,154.13,45.69,153.82,45.54Z"/><path class="cls-14" d="M115.91,53.17l.82,2.38a32.84,32.84,0,0,0,3,6.45c.92,1.4,10.95,1.94,12.91.81s3-6.73,3.56-8l4,.22c.36,1.68,1.64,7,2.41,7.73s5.36.59,5.88.58,1,0,1.68-.1c1.74-.12,3.85-.4,4.5-1,1-.94,2-4.51,2.89-7.88l.14-.53c0-.13.08-.22.08-.25h0l.16-.61c-5.79-2.7-13.36-2.26-17.95,1.05l0,.06-3.92-.23c-4.42-2.88-12.07-4.45-17.52-2.37h0l-15.25,4.23,0,1.47Zm27.16,9c-.47-.44-1.48-4.18-2.17-7.08,4-2.8,10.81-3.19,16-1.06v.07c-.48,1.81-1.75,6.62-2.69,7.54-1.12,1.09-10.28,1.24-11.12.55Zm-22.16-.58a29.14,29.14,0,0,1-3.8-8.49c4.85-2.16,13.77-.92,18.1,1.81-.68,2.35-1.53,6.46-2.94,7.26-2,1.16-10.78.31-11.36-.58Z"/><path class="cls-6" d="M101.06,94.35h0C93.63,97.63,70,108.89,64.85,115.2c-7.68,9.43,23.93,37,25,44.81.56,3.79,4,32,.68,54a368,368,0,0,0-3.82,44.1l23.73,3a124.87,124.87,0,0,0,34.86-.52l27.28-6c-.74-15.12,1-32.39-.82-52.22l.43-59.24-5.34-28.72s-4.93-3.7-5.62-5.15L137.71,97.54s5.56,11.69-6.2,13.42c-12.13,1.78-15.53-.71-24.71-7.71C106.8,103.25,102,98.57,101.06,94.35Z"/><path class="cls-6" d="M74.27,154.57s-1.53,50.53-3.33,65.32,2,35.8,3.22,45.26,43.8,14.31,64.18,12.14,36.24,2.25,34.27-22.74c-.85-10.72-41.72-110.14-41.72-110.14Z"/><path class="cls-15" d="M137.92,75.94c-3.8,0-10-.46-10-.46s.72,9.24,9.53,9.25,9.16-9.22,9.16-9.22S141.73,76,137.92,75.94Z"/><path class="cls-16" d="M138,75.94c-1.81,0-9.09-.32-9.09-.32s2.4,6.35,8.94,6.37a7.56,7.56,0,0,0,7.94-6.28Z"/><path class="cls-17" d="M138,76.21c-1.81,0-7.31-.31-7.31-.31s2,2,7.4,2,7.15-1.9,7.15-1.9Z"/><path class="cls-15" d="M146.74,75c-.19,0,.31.3-.59.22-1.5-.13-2.43-.53-3.52-.61-1.85-.15-3,.58-3.83.58s-2-.73-3.83-.6c-1.09.09-3.77.47-5.27.6a12.72,12.72,0,0,1-2.14-.23c-.27.07.25,2,10.37,2S147,75,146.74,75Z"/><path class="cls-12" d="M137.56,73l-.19,1a.62.62,0,0,1-.52.5C135,74.75,128.23,76,126.54,76l-.21,0h-.21c-.64-.11-.45-1,.14-1.19a36.58,36.58,0,0,1,4.41-1.47,40.52,40.52,0,0,1,6.25-1A.63.63,0,0,1,137.56,73Z"/><path class="cls-12" d="M140,72.88v1.05a.61.61,0,0,0,.47.48c1.55.25,6.57,1.34,7.95,1.32,0,0,.56,0,.59,0l.31,0c.51-.12,0-1.22-.53-1.44a25.18,25.18,0,0,0-3.36-1.3,25.8,25.8,0,0,0-5-.81A.55.55,0,0,0,140,72.88Z"/><path class="cls-13" d="M173.17,142.88a193.39,193.39,0,0,0-1.5,21.78c-.11,7.14-.25,14.3-.25,21.44,0,7.41.37,14.83.54,22.23.12,5.11.24,10.22.32,15.32,0,.22.73.08.73-.19-.16-9.47-.4-18.93-.63-28.4-.23-9.1-.08-18.18,0-27.29a206.54,206.54,0,0,1,1.53-25c0-.27-.69-.14-.72.09Z"/><path class="cls-12" d="M145.09,94l1-1.93s-17.19,3.12-20.58,2.27c-8.94-2.25-16.2-14.8-16.2-14.8a34.07,34.07,0,0,0,7.07,10.6c5.12,5.32,6.33,6,11.59,5.78,4-.15,11.36-.31,14.66-.38A2.83,2.83,0,0,0,145.09,94Z"/><path class="cls-12" d="M92.38,58.14S89.37,52.8,89,44,88.7,23.2,98.74,18.1a20.7,20.7,0,0,1,5.68-1.91s6.43-7.3,25.48-4.46c13.37,2,18.82,7.19,20.45,17.31,0,0-3.89-5.13-5-4.59s-2,3.25-6.42,3.83-11.59.19-14.6-1.55-8.42-3.44-11.46-2.89c-7.38,1.32-8,7-8.45,10.27s-1.8,15-5.38,16.74a5.82,5.82,0,0,0-3.56,4.92l-.59.26a5.85,5.85,0,0,0-2.51,2.11Z"/><path class="cls-12" d="M109.3,79.56c8.68,9.44,13.86,12,17,12.17s5.63,1,7.83,0c2.68-1.25,3.43-2.7,4.17-2.2.32.23,1.52,1.88,1.84,2.1.68.47,2.63.12,3.37-.22a7.78,7.78,0,0,0,4.23-3.91c-.67,2.06-1.19,5-3.07,6.08-1.15.68-3,.51-4.3.61-2.94.22-5.74.41-8.69.53-2.59.1-5.22.37-7.7-.39-4.17-1.26-8.81-6.54-11.55-10.07Z"/><path class="cls-6" d="M86.27,159.33l-3.06-56.08s-21.63,6.06-28.06,21c-5.77,16-12.95,69.67-12.95,80.21,0,31.88,9.25,56.28,17,88.92l18.34-4.15L75.65,203Z"/><path class="cls-4" d="M62.34,291.19l-.84,18.72L66.58,318l6.58,7.27,16.16,8.36s2.35-.79-.63-4a84.7,84.7,0,0,0-9.3-7.7l-3.25-9.12L78,308.41l3.08,0s.39,11.82,2.87,13.88,3.78,2.11,3.78,2.11l2.23-2.64L87.16,304.3s-2.69-7.49-3.61-9.22A50,50,0,0,0,79,289.5"/><path class="cls-7" d="M74.72,121.71a15.68,15.68,0,0,1,7.46,9.56,39.26,39.26,0,0,1,.7,10,211.48,211.48,0,0,1-2,24.37c-1.81,14.06-4.49,28-6.51,42-.44,3-1.16,6.08-1.3,9.1-.1,2.28.06,4.61.09,6.89l.38,30.4.19,14.45c0,2.58-.12,5.22.09,7.79,0,.12,0,.24,0,.36,0,.34.73.2.73-.07l-.24-18.91-.4-31.6-.11-8.82a43.07,43.07,0,0,1,.84-6.58l2-14c.52-3.64,1.28-7.25,1.89-10.87.85-5,1.65-10.09,2.36-15.16,1.22-8.62,2.26-17.29,2.62-26,.26-6.42.87-14-3.43-19.34a18.19,18.19,0,0,0-4.79-4c-.23-.14-.89.18-.57.38Z"/><path class="cls-18" d="M137.65,70.09a7,7,0,0,0,2.87.44,4.6,4.6,0,0,0,2.4-.5,5.78,5.78,0,0,0,.84-.73,2.48,2.48,0,0,0,.54-.7,2.78,2.78,0,0,0-.19-1.79c-.2-.59-.5-1.14-.7-1.73,0-.13-.45,0-.41.11a10.64,10.64,0,0,1,1,3,1.82,1.82,0,0,1-.79,1.36,2.74,2.74,0,0,1-.77.58,4.14,4.14,0,0,1-1.31.22,6.89,6.89,0,0,1-3.12-.4c-.11,0-.49.12-.33.19Z"/><path class="cls-18" d="M134,67.35a1,1,0,0,0-.89.48,2.21,2.21,0,0,0-.19,1.08,1.26,1.26,0,0,0,.35.94,2.76,2.76,0,0,0,2.4.43c.35-.1.69-.27,1.05-.35,0,0,.24-.05.24-.11s-.12,0-.16,0A5.15,5.15,0,0,0,136,70a2.5,2.5,0,0,1-.79.21,2.62,2.62,0,0,1-1.35-.33,1.56,1.56,0,0,1-.54-1.69,1.66,1.66,0,0,1,.16-.49.62.62,0,0,1,.14-.18.18.18,0,0,1,.07,0s-.07,0,0,0a.49.49,0,0,0,.29-.08c.06,0,.06-.08,0-.08Z"/></g></g></svg>