<svg xmlns="http://www.w3.org/2000/svg" xmlns:xlink="http://www.w3.org/1999/xlink" viewBox="0 0 292.89 301.99"><defs><style>.cls-1{fill:none;}.cls-2{clip-path:url(#clip-path);}.cls-3{fill:#c3e6f7;}.cls-4{fill:#ddad6f;}.cls-5{fill:#4c3059;}.cls-6{fill:#c79e81;}.cls-7{fill:#825639;}.cls-8{fill:#151210;}.cls-9{fill:#131429;}.cls-10{fill:#040404;}.cls-11{fill:#628e9f;}.cls-12{fill:#f1eef7;}.cls-13{fill:#13110f;}.cls-14{fill:#24180f;}.cls-15{fill:#fff;}.cls-16{fill:#94664a;}.cls-17{fill:#4f2e25;}.cls-18{fill:#27153c;}</style><clipPath id="clip-path"><path class="cls-1" d="M192.19,34.15c0-.08,0-.15,0-.23a51.89,51.89,0,1,0-103.26,7.2,126.48,126.48,0,1,0,103.25-7Z"/></clipPath></defs><g id="Layer_19" data-name="Layer 19"><g class="cls-2"><circle class="cls-3" cx="147.28" cy="153.27" r="126.49" transform="translate(-65.24 149.03) rotate(-45)"/><rect class="cls-4" x="154.58" y="26.03" width="5.92" height="15.8" rx="2.96" transform="translate(-2.94 19.27) rotate(-6.93)"/><path class="cls-5" d="M149.31,126.5a196.71,196.71,0,0,1,1.22-24.15c.75-6.61,1.52-13.95,6.05-19.2.75-.88-1.09-1-1.57-.41-4.5,5.23-5.51,12.21-6.29,18.83a197.34,197.34,0,0,0-1.34,25.14c0,.87,1.93.5,1.93-.21Z"/><rect class="cls-4" x="139.59" y="46.44" width="5.92" height="15.8" rx="2.96" transform="translate(38 -56.76) rotate(25.87)"/><path class="cls-6" d="M122.21,80.38a53.17,53.17,0,0,1,1.42,14c-.36,11.29-9.31,17.77-9.31,17.77L158.58,131l14-17.3s-10-4.35-10.48-6.55S164,88,164,88"/><path class="cls-7" d="M125.82,81.58a.43.43,0,0,0,0,.11A.17.17,0,0,1,125.82,81.58Z"/><path class="cls-6" d="M150.85,103.55l11.36.55,5.07-.3a5.36,5.36,0,0,0,4.86-3.34c1.87-4.33,2.42-6.53,2.67-7A70.41,70.41,0,0,0,178.65,83c.8-3.12,1.79-5,2.09-8.71.23-2.73.16-4.63-1.49-9a6.16,6.16,0,0,1-.25-3.44c.48-2.57.56-5.55,1.13-9a7.34,7.34,0,0,0,.19-1.87s0-14.23-2.79-19.2-5.51-10-9.28-10.85-16,3.24-16,3.24l-15.33-1.53-12.69,7-5.91,16L120,63.81l2.4,17.77"/><path class="cls-8" d="M122.17,37.41c-1.36-8.08,5.74-11.45,8.71-13,2.5-1.3,9.65-4,15-3.41,2.3.24,1.44,5.09,2.72,5.89.4.08,5.1.92,6.95,1.11a18.76,18.76,0,0,0,7.06-.17,8,8,0,0,1,3.9-.54c2.39.24,3.14-5.63,8.21-.35l.23-.26c-6.5-7.78-14.52-7.28-24.21-8.28-1-.11-2.08-.18-3.13-.2-15.36-.42-14.86-.32-24.34,10.25-5.51,6.15-8.65,11.93-8.41,15.47l.05.8c.24,3.7-3.06,13.91-1.66,15.88.89,1.26,3.78,6.83,6.19,11.58l7.31-.18c-.22-1.37-1.33-13.11-1.46-14.52"/><path class="cls-6" d="M122.77,81.82c-5.66,6-7.23-3.75-7.23-3.75-4.28-4.83-4.43-10.11-4.39-13.72s4-3.68,4-3.68c3.39.27,5.31,1,8.47,12.33"/><path class="cls-8" d="M167.63,24.16c-5.49.16-20-3-27.49-3.09-3.09-.05-13,8-14.2,9.83-2.87,4.12,4.59,12.92-.08,25.83-1.54,4.26-4.31-2.95-6.38-.11s-2.86,4-2.86,4c-2.18-12-2.11-11.63,0-23.73S131.53,19,137.79,17.7s26.58-.24,32.17,2.06"/><path class="cls-9" d="M120.47,72a28.71,28.71,0,0,0-2.84-4.69,9.16,9.16,0,0,0-2-2,2.51,2.51,0,0,0-1-.46c-.45-.07-.66.19-.84.56a6.84,6.84,0,0,0-.2,4.82c0,.12.6,0,.57-.15a7.45,7.45,0,0,1-.14-3.89,3.83,3.83,0,0,1,.57-1.29l-.47.16h0l.19,0a2.87,2.87,0,0,1,.7.35,10.7,10.7,0,0,1,2.7,3,35,35,0,0,1,2.16,3.75c.07.14.61-.06.57-.15Z"/><path class="cls-9" d="M119.18,72.66c-2.46,0-.82,3.15-1.06,4.46a1.33,1.33,0,0,0-.05.19c0,.08-.17.13,0,.07s.06,0,0-.06-.12-.13-.15-.17a1.87,1.87,0,0,1-.22-.39,10.59,10.59,0,0,1-.69-2.22,8.58,8.58,0,0,1-.26-2.76c.09-1.06.32-2.67,1.41-3.19.36-.16,0-.34-.22-.22a3.41,3.41,0,0,0-1.66,2.73,7.29,7.29,0,0,0-.07,2.42,17.35,17.35,0,0,0,.67,2.76c.14.4.33,1.08.74,1.32a.67.67,0,0,0,.89-.28,2,2,0,0,0,.06-1.2c-.08-.6-.82-3.16.31-3.15.21,0,.6-.31.22-.31Z"/><path class="cls-8" d="M147.92,58.2a2.21,2.21,0,0,0-2.36.49,2,2,0,0,0-.61,1,2.18,2.18,0,0,0,.56,2,2,2,0,0,0,2.34.36,2.24,2.24,0,0,0,1-2.64,2,2,0,0,0-1-1.19"/><path class="cls-8" d="M172.16,58.42a2.19,2.19,0,0,1,2.33.61,2.14,2.14,0,0,1,.56,1,2.18,2.18,0,0,1-.67,1.94,2,2,0,0,1-2.36.23,2.25,2.25,0,0,1-.89-2.69,2,2,0,0,1,1-1.13"/><path class="cls-8" d="M167.55,61.17s3.63-3.1,6.11-3.14c3.63,0,4.49.84,5.63,2.59a7.89,7.89,0,0,0-4.77-1.81C172.08,58.91,167.55,61.17,167.55,61.17Z"/><path class="cls-8" d="M155.94,60.74s-5.13-3.07-7.62-3.07c-3.62,0-7.88,2.23-9,4,0,0,5.61-3.28,8.17-3.21S155.94,60.74,155.94,60.74Z"/><path class="cls-8" d="M157.1,45.85c.24.83.47,1.66.71,2.49.18.64.64,2.07.82,2.7-2.37.11-4.59-.11-6.09.08-3,.36-6,.56-8.81,1.8a10.74,10.74,0,0,0-3.39,2.23c-.3.3-1,1.46-1.63,1.39-.25,0-.18-1.15-.17-1.27.15-2.27,1.84-3.68,4.06-4.86a48.17,48.17,0,0,1,14.5-4.56"/><path class="cls-8" d="M180.92,52l-1.29-.84A32.69,32.69,0,0,0,167.9,46.6c-.28.81-.57,1.62-.86,2.44-.22.62-.65,1.73-.87,2.35,2,.11,3.75,0,5,.24a21.27,21.27,0,0,1,7.25,2l1.27.74C180.81,53.47,181.18,52.28,180.92,52Z"/><path class="cls-10" d="M137.85,57.67l.93,2.68a36.89,36.89,0,0,0,3.37,7.28c1,1.58,12.35,2.19,14.57.92s3.43-7.6,4-9.07l4.52.25c.41,1.9,1.86,7.91,2.72,8.73s6.05.66,6.63.65,1.17,0,1.91-.11c2-.13,4.34-.46,5.07-1.17,1.08-1,2.25-5.08,3.26-8.89l.17-.6c0-.14.08-.24.08-.28h0l.18-.69c-6.53-3-15.08-2.55-20.26,1.19l0,.07-4.42-.27c-5-3.24-13.63-5-19.78-2.67h0l-17.21,4.77,0,1.66Zm30.66,10.17c-.54-.51-1.68-4.72-2.46-8,4.5-3.15,12.2-3.59,18-1.2v.09c-.54,2-2,7.47-3.05,8.51-1.26,1.22-11.59,1.4-12.53.62Zm-25-.66a32.64,32.64,0,0,1-4.29-9.58c5.48-2.44,15.55-1,20.43,2-.77,2.65-1.73,7.28-3.32,8.18-2.28,1.31-12.17.35-12.82-.65Z"/><path class="cls-11" d="M121.09,104.14h0c-8.38,3.7-38.41,15.22-44.17,22.35-8.67,10.64,30.31,42.91,31.55,51.75.63,4.28,4.49,36.09.77,60.88a417.23,417.23,0,0,0-4.31,49.78l26.77,3.37a140.57,140.57,0,0,0,39.35-.59l30.79-6.75c-.84-17.07,1.11-36.55-.93-58.93l.48-66.85-6-32.42s-9.32-4.88-10.1-6.51l-22.81-12.47s6.27,13.18-7,15.13c-13.7,2-17.53-.8-27.89-8.7C127.57,114.18,122.18,108.9,121.09,104.14Z"/><path class="cls-11" d="M90.85,172.1s-15.46,49.66-17.49,66.34-1,44.79.35,55.47,73.14,30.58,96.14,28.13,34.21-8.91,32-37.11c-1-12.1-47.09-124.3-47.09-124.3Z"/><path class="cls-12" d="M162.82,83.67c-2,0-8.24-.36-8.24-.36s2.23,2.24,8.35,2.25S171,83.41,171,83.41Z"/><path class="cls-9" d="M202.47,158.91a219,219,0,0,0-1.7,24.55c-.11,8.07-.27,16.15-.27,24.22,0,8.3.41,16.63.6,24.93q.21,8.73.37,17.46c0,.23.82.08.82-.22-.18-10.76-.46-21.51-.72-32.27-.08-3.28-.21-6.56-.25-9.84,0-3,.14-6,.17-9,0-4,0-8,.07-12a228.55,228.55,0,0,1,1.73-27.91c0-.3-.79-.15-.82.11Z"/><path class="cls-8" d="M170.78,103.77l1.11-2.18s-19.39,3.53-23.21,2.57c-10.09-2.55-18.29-16.71-18.29-16.71a38.47,38.47,0,0,0,8,12c5.79,6,7.15,6.75,13.09,6.53,4.51-.17,12.81-.35,16.55-.43A3.22,3.22,0,0,0,170.78,103.77Z"/><path class="cls-8" d="M111.3,63.27s-3.4-6-3.84-16-.32-23.43,11-29.18a23.36,23.36,0,0,1,6.41-2.15s7.26-8.25,28.76-5c15.09,2.26,21.24,8.12,23.08,19.54,0,0-4.4-5.79-5.64-5.18s-2.23,3.66-7.25,4.32-13.09.22-16.48-1.75-9.5-3.88-12.93-3.27c-8.33,1.49-9,7.87-9.54,11.6s-2,16.93-6.06,18.9a6.58,6.58,0,0,0-4,5.55l-.66.29a6.54,6.54,0,0,0-2.83,2.37Z"/><path class="cls-8" d="M130.39,87.45C140.19,98.1,146,101,149.58,101.19s6.35,1.12,8.83,0c3-1.41,3.87-3,4.7-2.48.37.25,1.72,2.12,2.08,2.37.77.53,3,.13,3.81-.25a8.79,8.79,0,0,0,4.77-4.41c-.76,2.33-1.35,5.62-3.46,6.86-1.31.77-3.35.58-4.86.69-3.32.24-6.48.46-9.8.6-2.93.11-5.9.41-8.69-.44-4.7-1.43-10-7.39-13-11.37Z"/><path class="cls-13" d="M162.38,76.76a7.79,7.79,0,0,0,3.24.5,5.24,5.24,0,0,0,2.71-.57,6.14,6.14,0,0,0,.95-.82,2.93,2.93,0,0,0,.61-.79,3.08,3.08,0,0,0-.22-2c-.22-.67-.56-1.29-.79-2,0-.14-.5,0-.46.12a11.62,11.62,0,0,1,1.09,3.33,2,2,0,0,1-.88,1.54,3.7,3.7,0,0,1-.87.66,4.7,4.7,0,0,1-1.49.24,7.81,7.81,0,0,1-3.52-.45c-.12,0-.54.14-.37.21Z"/><path class="cls-13" d="M158.22,73.67a1.08,1.08,0,0,0-1,.54,2.45,2.45,0,0,0-.21,1.22,1.47,1.47,0,0,0,.39,1.06,2.59,2.59,0,0,0,1.62.6,2.74,2.74,0,0,0,1.1-.11c.39-.12.77-.31,1.18-.4.05,0,.27,0,.27-.12s-.14,0-.18,0a6.14,6.14,0,0,0-.86.27,2.56,2.56,0,0,1-.89.24,3,3,0,0,1-1.52-.37,1.75,1.75,0,0,1-.61-1.91,1.78,1.78,0,0,1,.18-.55.62.62,0,0,1,.15-.2l.08-.06s-.07,0,0,0a.52.52,0,0,0,.32-.09c.07,0,.08-.08,0-.09Z"/><path class="cls-11" d="M167,110.1c2.25.91,37.68,15.29,42.21,33.11s1.47,77.18,3.55,92.85c1.84,18.33,4.49,52.34,4.74,56.86l-4,37.3H193.9s-1.83-105.16-9.94-130.1S167,110.1,167,110.1Z"/><path class="cls-9" d="M201.26,152.84c-2.3,17.81-1.9,35.77-2.26,53.68-.11,5.48,0,10.93.07,16.42q.26,14,.5,28.05.24,13.47.47,26.95c.06,3.44,0,6.93.36,10.35a77.14,77.14,0,0,0,1.87,8.89,16.54,16.54,0,0,1,.4,7.56,15.64,15.64,0,0,1-1.85,4.4c-.21.35.7.25.85,0a14.3,14.3,0,0,0,2.22-7.55,34.8,34.8,0,0,0-1.43-7.56A59.72,59.72,0,0,1,201,280.59q-.21-12.58-.44-25.18-.25-14.58-.52-29.17c-.09-4.9-.27-9.81-.26-14.71,0-8.3.26-16.61.37-24.91.13-9,.39-18.07,1.24-27.06q.33-3.42.77-6.84c0-.34-.88-.18-.91.12Z"/><path class="cls-14" d="M164.07,82.78c-3.4-.15-11,1.61-12.57,2.86,0,0,3.93,4.45,11.82,4.79s9.17-3.91,9.17-3.91S168.41,83,164.07,82.78Z"/><path class="cls-15" d="M154.77,84.31s4.07-.15,7.3,0,7.26.63,7.26.63.62-2.38-5.23-2.63A16.86,16.86,0,0,0,154.77,84.31Z"/><path class="cls-16" d="M163.41,89.77c-3.67-.68-7.58-4.22-11.91-4.13,0,0,1.2,7,10.48,7.38s10.51-6.5,10.51-6.5C168.19,86.07,167.13,89.4,163.41,89.77Z"/><path class="cls-16" d="M168.19,81.12c-1.95-.23-3.21.45-4.06.42s-2-.83-4-.76-9.74,4.17-8.9,4.78,7-2.39,12.83-2.15,7.83,3.6,8.72,3.06S170,81.33,168.19,81.12Z"/><path class="cls-8" d="M165.45,79.21l-.25,1.15a.68.68,0,0,0,.4.65c1.65.65,6.91,3.06,8.44,3.37l.65.16.35,0c.59,0,.27-1.34-.24-1.71a27.77,27.77,0,0,0-3.39-2.25,30.32,30.32,0,0,0-5.27-2.1A.63.63,0,0,0,165.45,79.21Z"/><path class="cls-8" d="M162.07,79.23,162,80.35a.68.68,0,0,1-.51.63c-2,.58-9.44,2.92-11.33,3.16h-.24l-.24,0c-.72,0-.64-1,0-1.36a43.45,43.45,0,0,1,4.74-2.26,45.45,45.45,0,0,1,6.85-2A.71.71,0,0,1,162.07,79.23Z"/><path class="cls-11" d="M79.86,203.13c.31.28,5.13,1,5.66,1.22.9.32-4.91,6.7-4.38,6,9.74-12.83,19.62-30,30.1-42.35,2.28,21.91-2.12,86.8-28.82,86.8-18.45,0-24-30.85-22.6-54.76C65.86,200.91,73.65,203.45,79.86,203.13Z"/><path class="cls-11" d="M98.07,208.7l6.75-35.42-2.09-58s-25.79,3.32-35.48,23.4c-4.18,9.78-7.63,38.62-7.63,66.37C85.42,213,86.72,210.24,98.07,208.7Z"/><path class="cls-6" d="M152.48,100.75c.34,3.25-4.14,11.06-4.14,11.06s2.59,20.57,1.94,24.82c-.16,1.05-5.8,4.36-6.94,7.23-3.48,8.76-3,9.89-3,9.89l-17.14-6.1,3.86-9-2.45-21.09-.15-21.47,11.41-11.73a1.92,1.92,0,0,1,.31.18,2,2,0,0,1,.43,2.73l4.49-4.5c3.65,2.27-.75,9.62-.75,9.62L145.67,86c3.22,2.71.13,7.94.13,7.94l-5.23,9.46s.09,6.28.71,8.32,1.08,4.22,1.08,4.22l1-7,7.2-12.64S152.14,97.5,152.48,100.75Z"/><path class="cls-17" d="M125.23,111.11l-.45-13.84a4.8,4.8,0,0,1,0-.85c0-.26-.11.13,0-.14a12.27,12.27,0,0,1,1.43-1.63L132,88l4.09-4.66-.53.1a1.83,1.83,0,0,1,.68,2.69c-.2.32.45.26.58.13l4.49-4.5-.53.09c3,2,.6,7-.8,9.4-.18.31.45.28.59.12l5.36-6.3-.58,0c3.4,3.1,0,7.89-1.66,11l-3.15,5.68c-.65,1.17-.27,2.71-.2,4a30,30,0,0,0,.45,4.43c.34,1.6.87,3.17,1.22,4.77.06.29.63.12.66-.11l.61-4.49a9.31,9.31,0,0,1,.52-2.82c1.64-3.07,3.46-6.07,5.18-9.1l1.84-3.21-.57.15c1.91,1.47,2.14,4.56,1.58,6.69a35.6,35.6,0,0,1-3.19,7.46,4.54,4.54,0,0,0-.64,1.26,9.55,9.55,0,0,0,.2,2.13c.34,3.52.66,7,.9,10.57,0,.28.68.13.66-.18-.25-3.61-.58-7.21-.93-10.82,0-.5-.1-1-.14-1.5a1.19,1.19,0,0,1,0-.33c0-.11,0,.18,0,0a14.78,14.78,0,0,1,1.13-2.11,26.56,26.56,0,0,0,2.93-7.62c.3-1.94-.33-4.66-2-5.93a.45.45,0,0,0-.57.16l-4.51,7.92-2.38,4.17a5.7,5.7,0,0,0-.56,2.25L142,115l.66-.11a55.7,55.7,0,0,1-1.62-8.27c-.1-1.57-.54-3.51.18-4.82,1.69-3,3.49-6.06,5.07-9.17,1.23-2.42,1.9-5.68-.35-7.73a.42.42,0,0,0-.57.05L140,91.23l.59.13c1.5-2.53,3.85-7.68.68-9.84a.46.46,0,0,0-.53.1l-4.48,4.5.58.12a2.16,2.16,0,0,0-.79-3.13.46.46,0,0,0-.53.1L126.18,93.9c-.65.75-2,1.75-2.08,2.78-.15,2.45.16,5,.24,7.45l.22,7c0,.33.67.22.67-.06Z"/><path class="cls-17" d="M134.08,112.47c.1,0,0-1.12,0-1.29-.06-1.11-.13-2.22-.19-3.33-.07-1.31-.12-2.61-.17-3.91a17.74,17.74,0,0,1-.1-3c.09-.73.83-1.38,1.28-2,.78-1,1.56-2,2.35-3s1.45-1.71,2.08-2.63c.28-.41.54-.83.79-1.26a2.75,2.75,0,0,0,.31-.52c.05-.19.32-.23-.07-.11.38-.12.32-.41-.07-.29s-.67.76-.91,1.14a25.81,25.81,0,0,1-2.24,3.06c-.88,1.09-1.74,2.19-2.6,3.29-.52.66-1.46,1.47-1.58,2.29a16.6,16.6,0,0,0,.1,3.15c.06,1.47.12,2.94.2,4.41.06,1.17.13,2.33.2,3.5,0,.23-.07.71.23.78s.76-.24.4-.33Z"/><path class="cls-17" d="M129.12,107.53c-.15-.11-.14-.65-.15-.8-.08-.64-.12-1.28-.17-1.91-.09-1.23-.16-2.47-.22-3.7,0-.75-.07-1.49-.11-2.24a8,8,0,0,1-.08-2.23,6.8,6.8,0,0,1,1.19-1.47c1.35-1.6,2.67-3.24,4-4.82.7-.82,1.36-1.67,2-2.53l.88-1.16c.09-.12.19-.22.27-.34s.35-.25,0-.16c.39-.12.3-.47-.1-.36s-.7.67-1,1c-.73,1-1.44,1.92-2.2,2.84-1.57,1.92-3.19,3.83-4.8,5.71-.32.38-.93.86-1.07,1.33a6.31,6.31,0,0,0,.07,1.78l.12,2.66c.07,1.42.15,2.84.26,4.26,0,.42-.07,2.1.34,2.42.19.15.8-.12.61-.27Z"/><path class="cls-11" d="M99.86,174.61l18.54-38.06,1.94.78,9.18,3.68,9.83,3.94,4.19,1s-14.94,55.33-21.49,69.51c-21.47,46.54-42.34,32-42.34,32"/><path class="cls-18" d="M126,139.42l-2.41-1a.74.74,0,0,0-.82.22c-7.33,11.29-14.83,22.48-21.68,34.08-3.43,5.8-6.69,11.71-9.69,17.75-2.58,5.19-5.51,10.2-8,15.46-2.77,6-4.78,12.39-4.17,19,0,.31,1,.11.94-.25-1.11-12.15,6.31-22.68,11.46-33a366.25,366.25,0,0,1,19.79-34.31c4-6.27,8.12-12.48,12.18-18.73l-.81.22,2.41,1c.28.11,1.14-.3.75-.46Z"/><path class="cls-18" d="M72.05,251.31a24.68,24.68,0,0,0,13,5.19c11.47,1.17,20.88-6.53,27.23-15.32a81.58,81.58,0,0,0,10-18.73c1.82-4.78,3.41-9.64,5-14.5,4-12.46,7.71-25,11.34-37.57q2.22-7.66,4.39-15.33c.74-2.61,1.69-5.25,2.22-7.92,0-.12.07-.24.1-.37s-.1-.21-.2-.25l-3-1.23c-.36-.14-1.1.38-.56.6,1,.39,2,.77,3,1.19-.31-.14,0-.31-.2.11a15.48,15.48,0,0,0-.78,2.78q-1.68,6-3.4,12c-3.53,12.35-7.13,24.69-10.93,37-1.77,5.72-3.57,11.43-5.51,17.09a110.1,110.1,0,0,1-5.31,13.26c-5.71,11.56-15,25.66-29.31,26.61-6,.39-11.17-1.77-16-4.95-.09-.06-.16-.13-.24-.19-.29-.25-1.13.18-.74.51Z"/><path class="cls-18" d="M93.66,130.71a5.14,5.14,0,0,1,2,1.2,15.52,15.52,0,0,1,3.94,6.17c3.08,7.88,3.22,17,2.68,25.3-.14,2.2-.33,4.4-.67,6.58,0,.22.9.06.93-.17a82.84,82.84,0,0,0,.75-17.45,49.16,49.16,0,0,0-2.45-13.72,17.34,17.34,0,0,0-3.9-6.67,5.75,5.75,0,0,0-2.47-1.6c-.22-.06-1,.3-.78.36Z"/></g></g></svg>