<?xml version="1.0" encoding="UTF-8"?>
<svg xmlns="http://www.w3.org/2000/svg" xmlns:xlink="http://www.w3.org/1999/xlink" viewBox="0 0 292.89 301.99">
  <defs>
    <style>
      .cls-1, .cls-2, .cls-3, .cls-4 {
        fill: none;
      }

      .cls-5 {
        fill: #192a19;
      }

      .cls-6 {
        fill: #8f8f8f;
      }

      .cls-7, .cls-8 {
        fill: #cfd0d0;
      }

      .cls-9 {
        fill: #010101;
      }

      .cls-10 {
        fill: #c69e81;
      }

      .cls-11 {
        fill: #aa844f;
      }

      .cls-12 {
        fill: #282b2b;
      }

      .cls-2 {
        stroke: #1d1f1e;
        stroke-width: 1.07px;
      }

      .cls-2, .cls-13, .cls-3, .cls-4 {
        stroke-miterlimit: 10;
      }

      .cls-14 {
        fill: #98554a;
      }

      .cls-15 {
        fill: #527569;
      }

      .cls-16 {
        fill: #27153c;
      }

      .cls-17 {
        fill: url(#linear-gradient);
      }

      .cls-13 {
        stroke: #a5a4a4;
        stroke-width: .56px;
      }

      .cls-13, .cls-18 {
        fill: #fff;
      }

      .cls-19 {
        fill: #f1eef7;
      }

      .cls-20 {
        fill: #784f81;
      }

      .cls-21 {
        fill: #906244;
      }

      .cls-22 {
        fill: #62696d;
      }

      .cls-23, .cls-24, .cls-8 {
        isolation: isolate;
      }

      .cls-24 {
        fill: #f58233;
        opacity: .67;
      }

      .cls-25 {
        fill: #0a2f44;
      }

      .cls-26 {
        fill: #f47a20;
      }

      .cls-27 {
        fill: #53666d;
      }

      .cls-28 {
        fill: #383938;
      }

      .cls-29 {
        fill: #848484;
      }

      .cls-30 {
        fill: #ae3825;
      }

      .cls-31 {
        fill: #4f2f26;
      }

      .cls-32 {
        fill: #a3a2a3;
      }

      .cls-33 {
        fill: #a382ad;
      }

      .cls-3 {
        stroke-width: 2.14px;
      }

      .cls-3, .cls-4 {
        stroke: #282b2b;
      }

      .cls-4 {
        stroke-width: 2.24px;
      }

      .cls-34 {
        fill: #311811;
      }

      .cls-35 {
        clip-path: url(#clippath);
      }

      .cls-8 {
        mix-blend-mode: multiply;
        opacity: .27;
      }

      .cls-36 {
        fill: #7a5a32;
      }
    </style>
    <clipPath id="clippath">
      <path class="cls-1" d="M251.02,71.71c2.93-5.71,4.59-12.19,4.59-19.05,0-23.11-18.74-41.85-41.85-41.85-13.34,0-25.22,6.25-32.88,15.98-44.71-11.62-94.22.07-129.25,35.1C-.96,114.49-.96,199.77,51.64,252.37c52.6,52.6,137.88,52.6,190.48,0,49.44-49.44,52.41-127.76,8.9-180.67Z"/>
    </clipPath>
    <linearGradient id="linear-gradient" x1="147.02" y1="154.94" x2="142.91" y2="-114.42" gradientUnits="userSpaceOnUse">
      <stop offset=".06" stop-color="#d3c293"/>
      <stop offset=".36" stop-color="#f2ebd1"/>
    </linearGradient>
  </defs>
  <g class="cls-23">
    <g id="Layer_4" data-name="Layer 4">
      <g class="cls-35">
        <circle class="cls-17" cx="147.05" cy="156.99" r="134.69"/>
        <polyline class="cls-32" points="163.21 291.93 163.21 119.64 -60.18 119.64 -60.18 291.93"/>
        <rect class="cls-13" x="89.74" y="172.89" width="23.87" height="24.83"/>
        <rect class="cls-13" x="89.74" y="146.93" width="23.87" height="24.83"/>
        <rect class="cls-13" x="-9.86" y="172.84" width="23.87" height="24.83"/>
        <rect class="cls-13" x="15" y="172.87" width="23.87" height="24.83"/>
        <rect class="cls-13" x="-9.86" y="146.88" width="23.87" height="24.83"/>
        <rect class="cls-13" x="15" y="146.89" width="23.87" height="24.83"/>
        <rect class="cls-13" x="-9.86" y="120.9" width="23.87" height="24.83"/>
        <rect class="cls-13" x="15" y="120.92" width="23.87" height="24.83"/>
        <rect class="cls-13" x="40.06" y="172.87" width="23.87" height="24.83"/>
        <rect class="cls-13" x="64.91" y="172.89" width="23.87" height="24.83"/>
        <rect class="cls-13" x="40.06" y="146.9" width="23.87" height="24.83"/>
        <rect class="cls-13" x="64.91" y="146.93" width="23.87" height="24.83"/>
        <rect class="cls-13" x="40.06" y="120.93" width="23.87" height="24.83"/>
        <rect class="cls-13" x="64.91" y="120.94" width="23.87" height="24.83"/>
        <rect class="cls-13" x="114.6" y="172.9" width="23.87" height="24.83"/>
        <rect class="cls-13" x="114.6" y="146.94" width="23.87" height="24.83"/>
        <rect class="cls-13" x="89.74" y="120.94" width="23.87" height="24.83"/>
        <rect class="cls-13" x="114.6" y="120.96" width="23.87" height="24.83"/>
        <rect class="cls-13" x="139.31" y="172.88" width="23.87" height="24.83"/>
        <rect class="cls-13" x="139.31" y="146.91" width="23.87" height="24.83"/>
        <rect class="cls-13" x="139.31" y="120.94" width="23.87" height="24.83"/>
        <rect class="cls-13" x="89.76" y="251.17" width="23.87" height="24.83"/>
        <rect class="cls-13" x="89.76" y="225.21" width="23.87" height="24.83"/>
        <rect class="cls-13" x="-9.84" y="251.13" width="23.87" height="24.83"/>
        <rect class="cls-13" x="15.02" y="251.14" width="23.87" height="24.83"/>
        <rect class="cls-13" x="-9.84" y="225.17" width="23.87" height="24.83"/>
        <rect class="cls-13" x="15.02" y="225.18" width="23.87" height="24.83"/>
        <rect class="cls-13" x="-9.84" y="199.19" width="23.87" height="24.83"/>
        <rect class="cls-13" x="15.02" y="199.21" width="23.87" height="24.83"/>
        <rect class="cls-13" x="40.08" y="251.15" width="23.87" height="24.83"/>
        <rect class="cls-13" x="64.93" y="251.17" width="23.87" height="24.83"/>
        <rect class="cls-13" x="40.08" y="225.19" width="23.87" height="24.83"/>
        <rect class="cls-13" x="64.93" y="225.21" width="23.87" height="24.83"/>
        <rect class="cls-13" x="40.08" y="199.22" width="23.87" height="24.83"/>
        <rect class="cls-13" x="64.93" y="199.23" width="23.87" height="24.83"/>
        <rect class="cls-13" x="114.62" y="251.18" width="23.87" height="24.83"/>
        <rect class="cls-13" x="114.62" y="225.22" width="23.87" height="24.83"/>
        <rect class="cls-13" x="89.76" y="199.23" width="23.87" height="24.83"/>
        <rect class="cls-13" x="114.62" y="199.24" width="23.87" height="24.83"/>
        <rect class="cls-13" x="139.33" y="251.16" width="23.87" height="24.83"/>
        <rect class="cls-13" x="139.33" y="225.2" width="23.87" height="24.83"/>
        <rect class="cls-13" x="139.33" y="199.22" width="23.87" height="24.83"/>
        <polyline class="cls-32" points="343.03 292.11 343.03 119.81 163.24 119.81 163.24 292.11"/>
        <rect class="cls-13" x="164.03" y="172.73" width="24.05" height="24.83"/>
        <rect class="cls-13" x="164.03" y="146.75" width="24.05" height="24.83"/>
        <rect class="cls-13" x="164.03" y="120.78" width="24.05" height="24.83"/>
        <rect class="cls-13" x="189.04" y="172.73" width="24.05" height="24.83"/>
        <rect class="cls-13" x="214.08" y="172.74" width="24.05" height="24.83"/>
        <rect class="cls-13" x="189.04" y="146.75" width="24.05" height="24.83"/>
        <rect class="cls-13" x="214.08" y="146.78" width="24.05" height="24.83"/>
        <rect class="cls-13" x="189.04" y="120.78" width="24.05" height="24.83"/>
        <rect class="cls-13" x="214.08" y="120.79" width="24.05" height="24.83"/>
        <rect class="cls-13" x="239.37" y="172.73" width="24.05" height="24.83"/>
        <rect class="cls-13" x="264.4" y="172.75" width="24.05" height="24.83"/>
        <rect class="cls-13" x="239.37" y="146.77" width="24.05" height="24.83"/>
        <rect class="cls-13" x="264.4" y="146.79" width="24.05" height="24.83"/>
        <rect class="cls-13" x="239.37" y="120.79" width="24.05" height="24.83"/>
        <rect class="cls-13" x="264.4" y="120.8" width="24.05" height="24.83"/>
        <rect class="cls-13" x="289.41" y="172.75" width="24.05" height="24.83"/>
        <rect class="cls-13" x="289.41" y="146.79" width="24.05" height="24.83"/>
        <rect class="cls-13" x="289.41" y="120.8" width="24.05" height="24.83"/>
        <rect class="cls-13" x="164.05" y="251" width="24.05" height="24.83"/>
        <rect class="cls-13" x="164.05" y="225.04" width="24.05" height="24.83"/>
        <rect class="cls-13" x="164.05" y="199.07" width="24.05" height="24.83"/>
        <rect class="cls-13" x="189.06" y="251" width="24.05" height="24.83"/>
        <rect class="cls-13" x="214.1" y="251.02" width="24.05" height="24.83"/>
        <rect class="cls-13" x="189.06" y="225.04" width="24.05" height="24.83"/>
        <rect class="cls-13" x="214.1" y="225.06" width="24.05" height="24.83"/>
        <rect class="cls-13" x="189.06" y="199.07" width="24.05" height="24.83"/>
        <rect class="cls-13" x="214.1" y="199.08" width="24.05" height="24.83"/>
        <rect class="cls-13" x="239.39" y="251.01" width="24.05" height="24.83"/>
        <rect class="cls-13" x="264.42" y="251.02" width="24.05" height="24.83"/>
        <rect class="cls-13" x="239.39" y="225.05" width="24.05" height="24.83"/>
        <rect class="cls-13" x="264.42" y="225.06" width="24.05" height="24.83"/>
        <rect class="cls-13" x="239.39" y="199.07" width="24.05" height="24.83"/>
        <rect class="cls-13" x="264.42" y="199.09" width="24.05" height="24.83"/>
        <rect class="cls-13" x="289.43" y="251.02" width="24.05" height="24.83"/>
        <rect class="cls-13" x="289.43" y="225.06" width="24.05" height="24.83"/>
        <rect class="cls-13" x="289.43" y="199.09" width="24.05" height="24.83"/>
        <path class="cls-10" d="M145.81,122.2c0-.27.1-.53.14-.8.64-3.85.56-8.33-1.99-11.5-2.48-1.34-4.21-3.73-4.71-6.51-.34-3.43-.9-6.83-1.68-10.18-.81-3.75-1.39-6.39-3.19-6.31-.27,0-.53.13-.69.35-.83,1.06-.29,4.55-.07,6.09.26,1.85,1.06,8.15,1.06,8.58-.45.03-.89.14-1.31.3,0,0-1.42-4.46-2.02-5.96-.71-2.17-1.3-4.37-1.78-6.6-.17-.85-1.36-3.19-2.76-2.86-.31.07-.6.24-.79.5-.67.84-.67,2.61-.11,4.96.73,3.08,2.5,10.19,3.73,11.71l-.51.22s-1.32-2.31-2-3.55l-.09-.14c-.95-.4-2.05-.02-2.57.87-.28.78-.36,1.62-.24,2.44.61,1.16,1.78,2.98,1.78,2.98,0,0,0,.23-.55.73-.73-1.08-1.66-2.01-2.74-2.75-.32-.12-.65-.23-.99-.31-.73.05-1.34.58-1.5,1.3-.16,1.03-.02,2.08.42,3.02.23.33.48.66.72,1.06h0c.57.81,1.06,1.67,1.47,2.57.88,1.92,2.13,6.17,3.27,8.83,1.29,2.57,3.03,4.9,5.13,6.86.75,3.57,1.18,7.2,1.27,10.84,1.15.45,2.38.66,3.61.61,1.6-.05,3.17-.41,4.63-1.06,2.45-1.09,4.66-2.67,6.47-4.64-1.26-2.88-2.22-5.88-2.86-8.96.59-.6,1.04-2.17,1.46-2.7Z"/>
        <path class="cls-31" d="M131.27,128.83c1.24.67,2.69.3,3.97,0,1.37-.28,2.66-.86,3.78-1.69.4-.33-.23-.51-.51-.29-.94.72-2.04,1.21-3.19,1.46-1.06.29-2.41.7-3.46.13-.27-.14-.97.22-.62.42l.03-.02Z"/>
        <path class="cls-31" d="M134.3,119.78c.49-2.8,2.48-4.85,4.49-6.69.13-.12-.12-.12-.18-.11-.19,0-.37.07-.52.18-2.07,1.88-4.08,3.96-4.58,6.82,0,.07.75,0,.79-.2Z"/>
        <path class="cls-25" d="M14.96,290.19c2.61.22,4.87,1.58,11.92,2.67,3.68.67,7.4,1.1,11.14,1.29,2.05.16,4.11,0,6.11-.46.96-.19,2.96-.85,3.9-1.06l.64-4.07,1.01-40.83,6.57-20.74-43.98-1.06-1.06,6.88c-.85,5.78-.81,11.65.13,17.41l3.89,20.57s-.19,16.53-.26,19.4Z"/>
        <path class="cls-25" d="M56.24,296.1c4.03-.3,9.24-.92,12.16-3.34l1.25-60.77-22.27-6.06-4.71,68.31c4.47.06,9.13,2.19,13.57,1.86Z"/>
        <path class="cls-2" d="M48.79,294.17l1.35-41.16s2.95-6.69,5.05-6.82"/>
        <path class="cls-10" d="M62.06,132.43c.26-3.04.21-6.09-.17-9.12,0-1.21,0-2.62.06-4.32v-1.43c-.02-.24-.02-.48,0-.72-.35-8.27-3.12-12.58-3.12-12.58-3.55-5.45-9.73-8.59-16.22-8.25-7.63.22-14.48,4.93-18.03,9.58-1.76,2.33-2.6,5.23-2.36,8.14.28,2.7.78,5.36,1.5,7.98-2.67-.1-5.27.88-4.26,5.79,1.41,6.77,5.79,8.83,7.84,6.94.47.09,1.44,2.13,1.55,3.55.24,2.7.18,7.52-1.13,9.89l.07.78c5.85,9.22,9.29,14.56,28.91,8.88l-6.39-8.96-.07-3.05c1.12.07,2.24-.1,3.29-.49,6.14-1.62,8.2-9.53,8.52-12.62Z"/>
        <path class="cls-31" d="M50.22,145.59c-4.87.22-9.7-1.03-13.84-3.6,0,0,.81,2.13,5.48,3.78,2.68.96,5.55,1.3,8.38.99l-.02-1.17Z"/>
        <path class="cls-9" d="M21.55,127.84c-.39-.85-.39-1.82,0-2.66l-.21.12h.1c.22.08.43.19.61.34.98.87,1.79,1.9,2.4,3.06l.34-.19c-.28-.22-.63-.31-.98-.28-.39.12-.64.49-.61.89,0,1.06.94,1.59,1.88,1.68.17,0,.42-.24.15-.27-.77.02-1.45-.51-1.61-1.27,0-.2,0-.66.18-.77s.51.11.66.21.45,0,.35-.19c-.45-.82-.98-1.6-1.58-2.32-.3-.37-.66-.69-1.06-.95-.17-.12-.38-.19-.59-.21-.24,0-.34.13-.43.33-.33.83-.35,1.75-.05,2.59.05.16.47.05.4-.11h.04Z"/>
        <path class="cls-21" d="M50.92,134.15c-2.34,0-6.12-.23-6.12-.23,0,0-.28,6.57,6.2,6.39,5.42-.12,5.49-6.39,5.49-6.39,0,0-3.26.21-5.57.23Z"/>
        <path class="cls-34" d="M50.92,134.15h-5.25c.61,2.26,2.66,3.83,5,3.83,2.33.19,4.46-1.35,4.99-3.63l-4.75-.2Z"/>
        <path class="cls-19" d="M50.97,134.66c-1.06,0-4.49-.16-4.49-.16,0,0,1.33.91,4.66.89s4.26-.92,4.26-.92l-4.43.18Z"/>
        <path class="cls-21" d="M56.45,133.92c0-.12-.24-.17-.8-.21-.92-.06-1.22-.39-1.88-.44-.8.03-1.59.15-2.35.36-.77-.2-1.56-.32-2.35-.34-.67.05-2.32.3-3.19.38-.44,0-.88-.05-1.32-.13-.16,0,.23,1.55,6.45,1.51,6.22-.04,5.45-.97,5.45-1.14Z"/>
        <path class="cls-9" d="M44.87,114.29h-.21c-2.1.08-4.17.54-6.11,1.34-.59.34-1.11.77-1.54,1.29-.52.56-.97,1.18-1.33,1.85-.07.43.88-.49.88-.49.19-.16.39-.3.6-.44,1.2-.8,2.52-1.41,3.91-1.81,1.45-.16,2.91-.16,4.36,0-.16-.62-.44-1.13-.54-1.75Z"/>
        <path class="cls-9" d="M53.62,114.48s.17,0,.18-.07c1.84-.13,3.69.11,5.43.7.53.29,1.01.67,1.39,1.14.49.51.91,1.08,1.25,1.69.07.42-.81-.4-.81-.4-.17-.14-.34-.26-.53-.36-1.08-.67-2.26-1.14-3.5-1.39-1.29,0-2.57.16-3.82.48.12-.63.33-1.16.42-1.78Z"/>
        <path class="cls-9" d="M26.43,126.9s0-.08,0-.12c-.32-.97-.88-1.84-1.63-2.53-.37-.34-.8-.63-1.26-.85-.46-.24-.96-.4-1.47-.49-.7-.17-1.44-.15-2.13.07l-.36.16c-1.92-5.85-2.84-12.12,1.33-19.41,1.2-2.13,4.43-4.45,5.41-5.21,5.97-4.53,11.38-4.94,18.1-4.4,7.73.62,15.04,5.44,16.96,13.2.54,1.63.24,3.81.18,5.52,0,0-1.11-7.53-4.87-9.69-3.76-2.15-4.38,1.13-9.65,1.34-6.1.22-8.17-3.06-13.02-.42-2.6,1.38-4.61,3.65-5.68,6.39-.63,2.67-1.82,4.47-1.01,7.45.19.72.35,1.45.49,2.18.17,1.33.2,2.68.1,4.03-.06.68-.38,1.31-.91,1.75-.68.43.02,1.2-.6,1.01Z"/>
        <path class="cls-9" d="M19.54,123.12s-6.47-5.07-2.44-17.36c.47-1.41,1.29-2.67,2.39-3.67l1.01-.95c.7-2.5,2.14-4.73,4.13-6.39,3.29-2.7,11.66-3.39,15.36-5.76s4.66-4.26,4.66-4.26c0,0,1.88,2.85,2.01,4.9,0,0,12,1.67,14.73,18.35,0,0-11.61-15.13-24.98-9.68-13.37,5.45-16.87,24.82-16.87,24.82Z"/>
        <path class="cls-9" d="M42.4,89.81s3.28.53,6.14-3c0,0,3.4,3.85,1,6.66"/>
        <path class="cls-9" d="M50.27,130.74c.6.26,1.25.39,1.91.38.61.02,1.22-.07,1.8-.27.88-.29,1.39-1.23,1.14-2.13-.28-.59-.54-1.19-.76-1.81,0-.16-.36-.07-.32.09.22.62.47,1.22.76,1.81.19.52.06,1.11-.34,1.49-.46.39-1.05.6-1.66.59-.8.09-1.6-.02-2.34-.33-.15-.07-.37.14-.18.22v-.04Z"/>
        <path class="cls-9" d="M47.48,128.43c-.28-.02-.55.14-.67.39-.12.27-.16.57-.14.86-.02.29.07.57.24.8.29.27.67.43,1.06.45.25.03.51,0,.75-.07.28-.09.53-.23.82-.3,0,0,.16,0,.15-.09s-.16,0-.18,0c-.2.06-.4.13-.59.21-.18.09-.38.14-.59.15-.35,0-.69-.11-.98-.31-.37-.37-.5-.91-.35-1.41.02-.14.06-.27.13-.39.02-.05.06-.1.1-.14h0s-.09,0,0,0c.08,0,.16-.02.22-.06,0,0,.05,0,0-.06l.02-.03Z"/>
        <path class="cls-24" d="M207.44,18.76c-.72-.19-1.45-.33-2.19-.41-1.37-.05-2.48,1.27-3.79,1.63-.91.21-1.86.19-2.75-.07-.62-.2-1.26-.33-1.9-.4-.42-.02-.84.11-1.17.38-.21.16-.17.02-.2.28.05-.32.13.39.13.42.17.79-.16,1.6-.84,2.04l.43,2.33c.19,1.04,1.18,1.72,2.22,1.54,0,0,0,0,0,0l11.15-2.03c1.04-.2,1.72-1.19,1.54-2.24l-.61-3.34c-.68.06-1.36.02-2.03-.12Z"/>
        <path class="cls-33" d="M201.78,98.7s-20.05,3.31-27.49,13.72c-5.86,8.18-8.67,23-11.71,31.14-3.05,8.14-4.31,10.65-5.32,14.21-1.24,4.65-9.29,17.47-3.83,24.83s8.25,8.45,18.45,4.89c5.96-2.07,16.68-17.81,20.35-23.64l9.56-65.14Z"/>
        <path class="cls-33" d="M168.05,203.91c5.43-2.01,13.72-14.46,16.18-21.3,1.53-4.26-5.58-2.27-3.27-6.15l-10.11,1.06-17.83-35.51-6.27-14.85c-6.44,4.44-10.16,3.19-17.9,4.34,4.64,22.36,10.44,43.94,16.91,65.75.74,1.97,2.09,3.66,3.85,4.81,3.15,2.09,6.86,3.18,10.65,3.13,1.26-.11,7.34-1.12,7.78-1.29Z"/>
        <path class="cls-33" d="M244.72,195.23c3.91,5.32,5.61,8.01,10.36,8.77,4.58.73,11.81-1.87,21.3-5.65,7.54-2.99,12.42-11.32,11.89-19.78-.89-14.82-4.26-40.86-6.83-56.12-2.95-17.61-27.8-28.73-27.8-28.73l-8.93,101.51Z"/>
        <path class="cls-33" d="M264.54,220.9c-.55-2.33-1.31-4.6-2.27-6.79-.64-2.08-1.04-4.22-1.2-6.39-1.21-11.09-1.21-20.16-.49-25.56.51-3.79,5.91-6.08,8.1-13.35,1.92-6.39-10.46-60.55-10.46-60.55l-13.5-6.24-6.39,1.16-.37-.21c-.04.29-.04.58,0,.87l.06.46c-2.64,4.69-7.42,7.76-12.78,8.22-1.85.15-3.71.17-5.57.06-6.08-.37-10.65-3.31-14.21-8.28l-.11-1.99-11.43,3.29-9.99,7.25-11.4,47.64c.5,8.94-.62,6.33,3.11,14.47l4.18,5.24.32,27.57s-2.01,7.45-5.81,19.17h91.19c-.38-1.92-.67-4.14-1-6.04Z"/>
        <path class="cls-33" d="M170.04,252.7s2.28-41.96,11.18-52.92h79.31s16.37,43.66,17.29,52.78l-107.78.14Z"/>
        <rect class="cls-29" x="-63.95" y="250.35" width="409.98" height="45.71"/>
        <path class="cls-7" d="M87.32,222.36l-.07-.07.07.07Z"/>
        <path class="cls-7" d="M87.12,222.14l-.1-.12.1.12Z"/>
        <path class="cls-7" d="M87.21,222.24l-.07-.09.07.09Z"/>
        <path class="cls-7" d="M87.01,222.01s-.06-.07-.07-.11c.02.04.04.08.07.11Z"/>
        <path class="cls-7" d="M87.57,222.6l-.11-.1.11.1Z"/>
        <path class="cls-7" d="M86.91,221.87s0-.05-.06-.07.03.05.06.07Z"/>
        <path class="cls-7" d="M87.69,222.73l-.09-.09.09.09Z"/>
        <path class="cls-7" d="M88,222.97l-.14-.11.14.11Z"/>
        <path class="cls-7" d="M87.84,222.84l-.11-.09.11.09Z"/>
        <path class="cls-7" d="M86.35,220.6s0-.06,0-.09c0,.03,0,.06,0,.09Z"/>
        <path class="cls-7" d="M86.44,221s0-.06,0-.09c0,.03,0,.06,0,.09Z"/>
        <path class="cls-7" d="M86.41,220.88v-.1s-.01.06,0,.1Z"/>
        <path class="cls-7" d="M86.5,221.15v-.12s-.01.07,0,.12Z"/>
        <path class="cls-7" d="M86.83,221.76s-.04-.07-.06-.1c.03.03.05.06.06.1Z"/>
        <path class="cls-7" d="M86.38,220.76s0-.08,0-.12c0,.04,0,.08,0,.12Z"/>
        <path class="cls-7" d="M86.75,221.67s-.05-.08-.06-.12c.02.04.04.08.06.12Z"/>
        <path class="cls-7" d="M86.67,221.5s0-.06,0-.09c0,.03,0,.06,0,.09Z"/>
        <path class="cls-7" d="M87.45,222.5l-.11-.11.11.11Z"/>
        <path class="cls-7" d="M139.56,223.41l-.14.11.14-.11Z"/>
        <path class="cls-7" d="M139.24,223.65l-.31.21.31-.21Z"/>
        <path class="cls-7" d="M139.39,223.53s-.07.07-.12.1c.04-.03.08-.06.12-.1Z"/>
        <path class="cls-7" d="M138.9,223.87l-.14.09.14-.09Z"/>
        <path class="cls-7" d="M139.96,223.08l-.1.09.1-.09Z"/>
        <path class="cls-7" d="M140.22,222.84c-.07.08-.15.15-.23.22.08-.07.16-.14.23-.22Z"/>
        <path class="cls-7" d="M88.19,223.07l-.12-.09.12.09Z"/>
        <path class="cls-7" d="M139.83,223.19l-.12.1.12-.1Z"/>
        <path class="cls-7" d="M139.71,223.3l-.15.12.15-.12Z"/>
        <path class="cls-7" d="M138.73,223.98l-.15.09.15-.09Z"/>
        <path class="cls-7" d="M88.79,223.53l-.12-.09.12.09Z"/>
        <path class="cls-7" d="M88.63,223.41l-.31-.2.31.2Z"/>
        <path class="cls-7" d="M88.28,223.18l-.11-.07.11.07Z"/>
        <path class="cls-7" d="M88.98,223.64l-.14-.09.14.09Z"/>
        <path class="cls-7" d="M109.86,223.86l-.15-.09.15.09Z"/>
        <path class="cls-7" d="M89.18,223.8l-.17-.1.17.1Z"/>
        <path class="cls-7" d="M110.05,223.97l-.14-.07.14.07Z"/>
        <path class="cls-7" d="M138.16,224.3l-.16.09.16-.09Z"/>
        <path class="cls-7" d="M138.56,224.07l-.36.21.36-.21Z"/>
        <path class="cls-7" d="M140.94,221.88s0,.06,0,.09c0-.03,0-.06,0-.09Z"/>
        <path class="cls-7" d="M141.23,221s0,.06,0,.1c0-.03,0-.06,0-.1Z"/>
        <path class="cls-7" d="M141.07,221.67v.11s-.02-.11,0-.11Z"/>
        <path class="cls-7" d="M140.55,222.48l-.1.12.1-.12Z"/>
        <path class="cls-7" d="M140.8,222.11s-.04.08-.06.11c.03-.03.05-.07.06-.11Z"/>
        <path class="cls-7" d="M140.43,222.61l-.06.12.06-.12Z"/>
        <path class="cls-7" d="M140.63,222.37l-.07.1.07-.1Z"/>
        <path class="cls-7" d="M141.22,221.12s0,.07,0,.11c0-.04,0-.07,0-.11Z"/>
        <path class="cls-7" d="M141.25,220.88s0,.06,0,.09c0-.03,0-.06,0-.09Z"/>
        <path class="cls-7" d="M140.72,222.25l-.06.09.06-.09Z"/>
        <path class="cls-7" d="M141.19,221.26s0,.06,0,.09c0-.03,0-.06,0-.09Z"/>
        <path class="cls-7" d="M140.88,222s0,.07-.06.12.05-.09.06-.12Z"/>
        <path class="cls-7" d="M140.37,222.73l-.09.09.09-.09Z"/>
        <path class="cls-8" d="M141.08,221.6h0s-.01.06,0,0Z"/>
        <path class="cls-16" d="M177.1,130.56c.13,5.95-1.39,11.71-3.07,17.34-1.55,5.27-3.02,10.56-2.86,16.11.02,4.25,1.52,8.35,4.26,11.6.73.86,1.57,1.63,2.28,2.51.66.63,1.24,1.35,1.71,2.13.15.9.17,1.83.07,2.74l.18,7.65c0,.29.62.18.62-.06l-.16-6.53c0-1.15,0-2.34-.09-3.49s-1.22-2.02-1.91-2.85c-1.59-1.66-3.02-3.46-4.26-5.39-1.08-2.03-1.75-4.25-1.96-6.54-.56-5.45.68-10.83,2.19-16.04,1.83-6.3,3.77-12.61,3.62-19.25,0-.29-.62-.18-.61.06l-.03.02Z"/>
        <path class="cls-16" d="M256.97,114.75c-3.91,4.9-5.54,11.25-4.46,17.43l1.33,9.09,4.36,29.76,1.12,7.66c0,.12.63-.02.6-.19l-2.92-19.85-3.79-25.77c-.23-1.32-.39-2.65-.49-3.98-.19-5.16,1.5-10.21,4.76-14.21.12-.15-.45-.06-.55.02l.04.04Z"/>
        <path class="cls-9" d="M136.35,190.59h.09v-.19l-.09.19Z"/>
        <path class="cls-9" d="M136.86,191.78h.07v-.2l-.07.2Z"/>
        <path class="cls-20" d="M237.3,122.92c3.18-2.21,12.64-13.5,12.64-13.5,4.97-7.83,13.73-11.62,5.67-19.66l-8.1-12.77s11.01-61.38-31.16-62.47c0,0-26.69-3.29-30.67,22.82,0,0-1.74,16.69-.17,27.44,1.46,9.96,6.57,28.08,6.57,28.08"/>
        <path class="cls-20" d="M185.91,103.25s2.9,6.04,4.61,10.12c1.19,4.68,2.86,7.29,5.52,11.39,7.55,11.21,21.42,12.54,34.09,6.35,8.98-4.45,19.82-24.91,19.82-24.91l-2.8-37.31-12.38,4.17s-4.41,19.93-24.75,19.83c-20.35-.1-17.77-17.07-17.77-17.07l-.7,14.35c-.2,5.82-.92,5.54-3.96,10.22l-1.67,2.86Z"/>
        <path class="cls-10" d="M186.92,49.49c-.36-3.86,1.21-12.33,1.21-12.33.06-.4.86-6.38,1.01-6.72,5.82-2.88,14.05-6.88,20.39-5.76,6.14,1.08,20.22,4.01,20.92,11.67.27,2.33-.44,17.43,1.38,17.74.05.27.08.53.09.8.15,2.1.44,4.19.86,6.25.76-1.02,1.42-2.12,1.96-3.27.3-.75,0-1.68.31-2.44.87-1.73,3.23-1.36,4.54-.39l.24.33c1.89,2.26.44,9.72-.76,12-.1,4.47-3.87,7.05-6.27,3.94l-.51,1.77-4.8,6.15c-4.22,4.77-11.98,12.76-19.08,13.1-4.81.22-6.38-.82-8.21-2.36-2.79-2.35-4.42-5.04-6.54-7.82-1.83-2.25-3.19-4.85-4-7.63-.9-2.44-1.2-5.05-.88-7.63.1-1.75.05-3.51-.12-5.26-.24-1.71-1.36-8.26-1.73-12.13Z"/>
        <path class="cls-9" d="M221.96,52.5c-.38-.09-.76-.15-1.15-.18-2.35-.14-4.72-.02-7.05.34-2.03.37-4.03.93-5.96,1.68-.05-.42-.19-.21-.24-.64l-.26-1.66c3.3-.88,6.69-1.35,10.1-1.4,1.06.08,2.1.3,3.1.65,1.07.33,2.11.77,3.09,1.32.36.41-1.63-.11-1.63-.11Z"/>
        <path class="cls-9" d="M187.51,54.4c0-.06.05-.13.08-.2h0c.54-.27,1.1-.48,1.67-.64,2.84-.52,5.73-.67,8.6-.42.09.78.18,1.57.27,2.34-3.44-.78-7.01-.77-10.44.04-.07-.16-.13-.32-.17-.48l-.04-.34c-.01-.12,0-.2.02-.29Z"/>
        <path class="cls-14" d="M205.44,75.97c3.43-.28,9.25-1.18,9.25-1.18,0,0-.44,9.41-8.39,10.07s-9.24-8.42-9.24-8.42c0,0,4.91-.18,8.38-.46Z"/>
        <path class="cls-34" d="M205.37,75.98l8.19-.94s-1.55,6.19-7.46,6.64c-3.6.35-6.97-1.84-8.11-5.27l7.38-.42Z"/>
        <path class="cls-19" d="M205.32,76.23c1.62-.19,6.57-.82,6.57-.82,0,0-1.64,1.98-6.53,2.38s-6.58-1.26-6.58-1.26l6.54-.3Z"/>
        <path class="cls-14" d="M196.79,76.32c.37-.18.75-.33,1.14-.45,1.03-.33,2.07-.6,3.12-.82,1.65-.27,2.77.32,3.49.26s1.74-.82,3.42-.82c.99,0,3.7.14,5.07.16.65-.08,1.29-.2,1.92-.37.24.04-.35,1.92-9.48,2.66s-8.92-.58-8.68-.61Z"/>
        <path class="cls-18" d="M233.82,57.8s-6.8-21.22-28.88-20.81c-12.77.25-18.06,11.52-18.06,11.52,0,0-.65-11.86,4.22-16.68,4.87-4.83,21.55-6.32,29.45-3.15,7.9,3.16,13.27,29.12,13.27,29.12Z"/>
        <path class="cls-20" d="M241.74,40.13s-7.83-24.15-28.96-23.88c-26.24.39-27.66,28.19-27.66,28.19l1.29,20.51c-.45-5.31-1.05-9.99.1-15.16.05-3-1.47-10.85,6.69-16.43,4.51-3.06,10.12-3.88,15.41-3.41,4.85.44,10.41,1.94,13.55,5.95,2.63,3.38,4.59,7.23,5.74,11.36,1.7,5.45,2.17,13.44,1.94,19.14-.24,5.17.07,12.07-7.75,20.96,22.42-8.6,22.12-35.1,20.29-47.25l-.63.03Z"/>
        <path class="cls-16" d="M226.82,20.66c4.69,3.5,8.06,9.32,9.64,14.87,2.47,8.74.92,18.45-.92,27.17-.5,2.36-1.06,4.79-1.72,7.09-.12.38.65.22.72-.08,1.74-6.01,2.92-12.16,3.53-18.38.6-4.66.47-9.39-.36-14.02-.93-4.38-2.81-8.5-5.51-12.08-1.33-1.87-2.92-3.55-4.72-4.97-.23-.18-.93.21-.67.4Z"/>
        <path class="cls-16" d="M246.59,77.17c-.75,3.38-1.71,6.72-2.87,9.98-2.15,6.2-4.89,12.48-9.13,17.57-2.39,2.86-5.39,5.38-9.12,6.19-.19.02-.8.45-.3.34,6.36-1.39,10.75-6.77,13.87-12.13,3.17-5.69,5.6-11.75,7.25-18.05.38-1.37.75-2.76,1.04-4.15-.02-.14-.7.03-.75.23v.03Z"/>
        <path class="cls-16" d="M226.61,80.69c-2.4,7.08-5.69,14.87-12.42,18.87-3.38,2.02-7.45,2.58-11.25,1.53-3.63-.97-7.1-2.5-10.26-4.53-.31-.19-.93.28-.54.52,3.41,2.18,7.15,3.78,11.07,4.75,3.61.85,7.41.34,10.66-1.43,7.36-3.93,10.93-12.18,13.49-19.69.14-.42-.64-.36-.75-.02h0Z"/>
        <path class="cls-16" d="M190.36,100.79c2.07.29,4,1.18,5.56,2.58,1.74,1.73,3.32,3.61,4.75,5.61,2.64,3.31,5.76,8.14,10.67,7.35.26-.03.78-.52.26-.44-2.56.41-4.84-1.04-6.54-2.81-1.7-1.77-3.28-3.91-4.87-5.95-1.27-1.81-2.77-3.44-4.47-4.85-1.46-1.02-3.14-1.67-4.91-1.89-.23-.04-.87.38-.44.45v-.05Z"/>
        <path class="cls-9" d="M204.45,71.15c-.82.39-1.71.6-2.62.61-.47.03-.94,0-1.4-.05-.28-.06-.55-.19-.77-.37-.41-.27-.99-.67-1.1-1.18-.07-.57,0-1.15.19-1.69.13-.48.32-.95.44-1.42-.02-.14-.34-.06-.38.04-.12.47-.31.93-.44,1.4-.21.58-.27,1.21-.18,1.82.14.54.79.98,1.21,1.24.23.17.48.29.76.35.47.07.95.1,1.43.07,1.05-.01,2.08-.25,3.03-.71.23-.12-.03-.24-.18-.15v.04Z"/>
        <path class="cls-9" d="M207.97,68.49c.6-.07.75.89.76,1.31.04.28-.03.57-.2.81-.28.31-.68.5-1.1.53-.59,0-1.17-.09-1.74-.27-.09-.02-.18,0-.26.03,0,0-.13.09.01.1.57.17,1.15.27,1.75.28.51-.06,1.01-.24,1.44-.52.3-.21.49-.54.52-.91.03-.36,0-.72-.12-1.06-.14-.34-.37-.61-.76-.57-.1,0-.19.05-.27.11,0,0-.05.08,0,.07l-.04.09Z"/>
        <path class="cls-27" d="M165.29,191.97c-.1-.12-.2-.13-.3,0h.3Z"/>
        <path class="cls-11" d="M108.67,249.47c-.33-1.37-.19-2.81.39-4.09,1.12-1.98,3.74-2.5,6.02-2.42s4.65.52,6.76-.34c1.06-.45,2.06-1.24,3.19-1.76,3.57-1.69,7.84-.17,9.53,3.4.33.69.54,1.43.64,2.18.17,1.07-.03,2.17-.56,3.11-.96,1.51-2.85,2.06-4.59,2.48-3.53,1.04-7.18,1.61-10.86,1.7-3.72.07-7.32-1.33-10.01-3.9"/>
        <path class="cls-11" d="M98.92,249.12c-2.27-3.39-6.84-3.72-10.9-3.66-1.03-.02-2.05.15-3.01.5-2.63,1.15-4.24,3.85-4.01,6.71.32,2.83,2.1,5.29,4.69,6.48,2.59,1.14,5.53,1.19,8.15.12,1.02-.48,2.07-.91,3.13-1.28,1.14-.32,2.35-.34,3.48-.69,1.48-.43,2.69-1.5,3.3-2.91.59-1.45.29-3.11-.77-4.26-1.06-1.06-2.84-1.98-4.05-1.06"/>
        <path class="cls-11" d="M135.3,253.28c3.21.46,6.47.46,9.68,0,1.68-.45,3.39-.76,5.11-.93,1.75-.15,3.48.45,4.76,1.66,1.6,1.9,1.35,4.73-.55,6.33-.05.04-.1.08-.15.12-.93.55-1.96.91-3.02,1.06-2.58.63-5.2,1.08-7.85,1.35-2.62.34-5.29.02-7.75-.94-2.49-1-4.28-3.22-4.75-5.86-.14-.91.03-1.85.5-2.64.48-.81,1.38-1.26,2.31-1.18.65.14,1.25.47,1.71.95"/>
        <path class="cls-36" d="M130.25,243.2c-.21.02-.41.07-.6.15-.12.04-.23.12-.31.22-.04.07-.04.15,0,.21.06.06.13.1.21.12.09,0,.18,0,.27,0,.16,0,.32-.02.47-.06.12-.03.23-.08.34-.14.06-.03.12-.07.16-.12.03-.05.05-.1.05-.16,0-.06-.03-.12-.07-.17-.03-.03-.06-.04-.1-.05-.11-.02-.21-.02-.32,0-.11.02-.21.05-.31.09l-.11.06s-.04.03-.05.05h0s.05.01.07,0c.08.02.17.02.26,0,.06,0-.23,0-.15,0h.05c.03.06.03.12,0,.18h0s0,.06,0,.09h.05s-.05,0,0,0h.31c-.07,0-.14,0-.21,0h0s-.07-.03-.1-.06h0s-.01-.09,0-.13h0s0-.06,0-.1h-.27c.11,0,.22-.03.32-.07l.13-.05s.07-.03.1-.06c0,0,.06-.06,0-.1h-.2v.11Z"/>
        <path class="cls-36" d="M130.59,248.54l.23-.09h.12-.4s0,.06,0,.1h0s0,.09,0,.13h0l-.05.05h.05-.06.31s.13,0,.06,0h-.13.05c-.07-.02-.14-.02-.21,0-.11,0-.21.03-.31.06h-.1s-.09.05-.13.09c0,0-.07.1,0,.13.16.08.34.1.51.09.16-.01.31-.04.46-.1.1-.04.2-.1.29-.16.07-.05.13-.11.17-.19.02-.05.02-.11,0-.16,0-.05-.03-.09-.06-.13-.03,0-.06,0-.1,0-.14-.03-.29-.03-.44,0l-.33.12-.24.09c-.05.01-.1.03-.14.06-.03.01-.06.03-.09.06,0,0-.06.09,0,.12.07.03.14.03.21,0,.11,0,.22-.03.32-.06v-.2Z"/>
        <path class="cls-36" d="M125.35,246.66c.08-.04.17-.07.26-.09h.06c.06,0,.09,0,0,0h-.31c-.19-.01-.38.01-.55.09-.1.04-.2.09-.28.17-.04.05-.07.11-.06.17,0,.08.03.16.09.22.05.07.11.13.18.18.09.06.21.1.32.1.22,0,.45-.04.65-.14.12-.05.22-.14.29-.26.06-.16-.03-.34-.19-.39-.01,0-.02,0-.04-.01h-.26c-.11.02-.21.05-.31.1h-.07s-.07.06-.09.1h0l.07.05h0s.06.04.07.06h0c.02.05.02.11,0,.16h0s.01.07,0,.11h0v.05-.05h0c.07-.05.07,0,0,0h.36-.1c-.08-.04-.15-.1-.2-.18h0c-.05-.06-.09-.14-.1-.22h0s0-.04,0-.06h0l-.06.05h0s-.07.04-.11.05h-.31.21c.25.03.5,0,.73-.11,0,0,.14-.09.16-.14s0-.09-.07-.1c-.08-.02-.17-.02-.26,0-.11.02-.21.05-.31.1h.2Z"/>
        <path class="cls-36" d="M115.79,245.71c.25.1.52.07.75-.07l.11-.1.07-.1s0-.08,0-.12c0-.04,0-.07,0-.11-.01-.05-.05-.09-.1-.12h-.1c-.1-.02-.2-.02-.3,0-.07-.01-.15-.01-.22,0l-.2.07c-.09.05-.18.11-.26.18-.05.05-.1.1-.14.16-.04.06-.04.14,0,.2.06.06.14.09.22.09.1.03.21.03.32,0,.09-.04.16-.1.21-.18h0v.06l.06-.06h-.06.06-.09.07-.11.07-.2s.06,0,.1,0l-.17-.14h0v-.06.05-.07h.56c-.09-.03-.19-.03-.28,0h-.16c-.05.01-.1.03-.14.06-.06.05-.14.12-.15.19-.01.07.02.14.09.18l-.04-.13Z"/>
        <path class="cls-36" d="M113.07,248.44h0c.09,0,.17.03.26.06h0c.1.03.18.08.26.15h0s0,.06,0,.09h0s.09,0,0,0h.33-.14c-.09-.04-.17-.09-.22-.17h0s0-.04,0-.06c-.04-.02-.09-.02-.14,0-.1-.02-.2-.02-.3,0-.1.03-.19.07-.28.12h0s-.01.06,0,.09c.13.22.37.35.62.34.17,0,.35-.02.51-.09.08-.02.15-.06.21-.11.05-.03.09-.07.12-.12,0-.14-.11-.23-.21-.29-.15-.08-.31-.13-.48-.14-.1-.02-.2-.02-.3,0-.1.02-.19.06-.28.12,0,0-.12.07-.1.13s.1,0,.15.06v-.18Z"/>
        <path class="cls-36" d="M114.88,251.17c.09.07.19.13.29.18.12.07.24.12.37.17.13.04.27.04.4,0,.16-.03.3-.13.37-.28.06-.19-.02-.39-.19-.48-.17-.1-.37-.15-.58-.14-.11.01-.22.05-.31.12-.08.05-.13.12-.14.21,0,.2.2.28.37.27h-.1.11-.07l.11.07-.06-.06v.06-.07.05h0v-.09h0v-.07h0l.06-.06h0l.09-.05h.31c-.09-.02-.18-.06-.27-.11h.07c-.12-.06-.23-.13-.33-.21-.08-.05-.18-.07-.28-.05-.11,0-.22.04-.31.11-.07.05-.12.13-.14.21,0,.08.03.16.1.2l.12.02Z"/>
        <path class="cls-36" d="M150.74,258.17c.51-.05.99-.28,1.34-.65.04-.05.03-.12-.02-.16,0,0-.02-.01-.03-.02-.23-.09-.48-.12-.72-.1-.15.02-.3.05-.44.11-.11.03-.21.08-.31.15,0,0-.14.09-.16.16-.01.06.02.11.07.13.09.02.18.02.27,0,.11-.01.21-.05.31-.11h.09-.06.06-.09.1c.06,0-.11,0,0,0h.21-.07.11l-.05-.19h0l-.18.15c-.06.05.06,0,0,0h0s-.17.09,0,0h-.11.06-.17c-.1.01-.21.04-.3.1,0,0-.15.1-.16.16s.24.16.34.15l-.09.13Z"/>
        <path class="cls-36" d="M148.65,259.75c-.31-.12-.65-.17-.98-.13-.14.02-.27.07-.38.15-.04.03-.07.07-.09.12-.02.03-.02.07,0,.1.1.12.24.19.39.22.08.01.16.01.24,0,.16,0,.31-.04.46-.11.09-.03.16-.08.22-.15.04-.04.04-.11,0-.15-.06-.04-.14-.06-.21-.05-.11,0-.22.02-.32.06h.21-.1.07-.13.05s-.09-.07-.13-.12l-.44.35h.33-.06l.18.06c.09.03.18.03.27,0,.1-.01.21-.04.3-.1l.07-.05s.07-.06.09-.11c.01-.06-.02-.11-.07-.13v.02Z"/>
        <path class="cls-36" d="M148.66,255.51l.61-.59s.1-.15.06-.21c-.02-.08-.08-.13-.16-.15-.27-.08-.55-.05-.8.07-.12.05-.23.13-.32.22-.09.09-.16.2-.18.32,0,.06,0,.15.1.18.08.04.17.06.27.05.11,0,.22-.05.31-.12l.07-.05s.06-.09.07-.14h0v.07s.03-.09.06-.13l-.05.07.09-.09h-.07.09-.1.09-.11.1-.11.07-.1.06l-.1-.36-.61.6c-.06.06-.08.13-.07.21.03.07.09.13.17.15.21.05.42,0,.58-.16l-.02.03Z"/>
        <path class="cls-36" d="M134.47,256.06c.12.11.26.2.39.29.09.06.18.12.28.16.16.05.32.05.48,0,.17-.04.32-.14.42-.29.02-.07.02-.14,0-.2,0-.09-.02-.19-.07-.27-.04-.08-.12-.14-.2-.17-.25-.09-.53-.09-.79,0-.1.03-.2.08-.27.16-.06.06-.09.14-.06.22.06.19.31.2.47.16h.11-.11.15-.09.09-.09.06l-.06-.05.06.09v-.07s0,.07,0,.11v-.07.09-.09h0l.05-.06h0l.07-.06h0l.09-.05h.31s-.06,0-.09,0h.07c-.21-.11-.41-.25-.59-.4-.08-.06-.18-.08-.28-.06-.11,0-.22.04-.31.11-.07.05-.12.13-.14.21v.07c.02.05.05.1.1.13l-.06.07Z"/>
        <path class="cls-36" d="M99.24,254.79l.32-.64s.02-.07,0-.11c-.05-.04-.11-.07-.17-.09h-.15c-.18,0-.36.05-.51.14-.16.07-.27.24-.26.42,0,.06.11.1.15.11.1.03.21.03.31,0,.1-.02.19-.07.27-.13,0-.05.1-.11.09-.17h0s0-.05,0-.07v.06-.05.06h-.52v-.11l-.32.65s0,.12.09.14c.09.02.18.02.27,0,.11-.01.21-.04.31-.1l.07-.05s.06-.07.07-.12v.05Z"/>
        <path class="cls-36" d="M92.21,252.55c.41.09.84.01,1.18-.22.07-.04.12-.1.15-.18.01-.07-.02-.13-.09-.16-.41-.26-.91-.33-1.37-.18-.1.02-.2.07-.28.14-.05.05-.08.12-.07.19.06.17.33.16.47.12h.24c.06,0-.09,0,0,0h.17-.07c.09.03.18.08.26.14l.06-.35h-.06s.1,0,0,0h.05-.14s.1,0,0,0h0c-.1-.02-.21-.02-.31,0-.1.02-.19.08-.27.15,0,0-.1.12-.07.18.02.07.09.12.16.13v.05Z"/>
        <path class="cls-36" d="M89.88,250.03c.12-.11.2-.25.23-.42.03-.15,0-.32-.09-.45-.13-.17-.34-.25-.55-.21-.23.01-.44.12-.6.29-.07.07-.11.17-.13.27-.02.09,0,.19.06.27.06.06.15.1.23.11.11,0,.22-.01.32-.06.09-.04.16-.1.2-.18.04-.06.04-.15,0-.21h0v.06-.06.07s0-.04,0-.06v.07-.06.06-.05l-.07.06h.05-.09.05-.37.05-.05l.06.09v-.06s0,.09,0,.14v-.07c.02.06.02.12,0,.18v-.07c-.01.05-.04.1-.06.15v-.07s-.04.06-.07.09c-.06.05-.08.14-.06.21.03.08.09.14.17.16.1.03.2.03.3,0h.11c.06-.02.12-.06.16-.12l.14-.1Z"/>
        <path class="cls-36" d="M84.74,249.35c.28-.04.54-.16.75-.35.14-.13.24-.31.27-.5,0-.19-.22-.19-.35-.18-.13.01-.26.04-.38.09-.12.04-.24.09-.35.16-.18.11-.34.28-.44.47v.17c.06.05.14.08.22.07.11,0,.21-.02.31-.06h.1s.09-.07.13-.12c.03-.07.07-.13.12-.18v.06c.04-.05.09-.1.15-.14l-.07.05.13-.09-.09.05.12-.05h-.11.12-.11.11l-.35-.18c.01.06.01.12,0,.18v-.06c-.03.06-.06.12-.11.17v-.05l-.12.1.07-.05-.09.05h.1-.1.11-.07.11c-.11.02-.21.06-.31.11-.07.04-.12.1-.15.18,0,.18.22.2.35.18l-.05-.07Z"/>
        <path class="cls-36" d="M89.7,257.52l.39.05c.19,0,.39,0,.58-.05.3-.04.57-.21.73-.47.1-.14.1-.34,0-.48-.09-.08-.21-.12-.33-.12-.23,0-.46.06-.67.16-.25.12-.46.31-.6.54,0,0,0,.09.06.09.08.02.17.02.26,0,.11-.02.21-.05.31-.1.07-.03.13-.07.17-.13.03-.05.06-.1.1-.14h0s.07-.09.12-.13l.06-.06h0c.06,0-.12,0,0,0h-.2s-.07,0,0,0h0c.05.02.1.05.13.1h0c.05.07.08.17.06.26h0c-.01.09-.05.17-.11.23h0s0,.05,0,.07h0c.06,0,.09,0,0,0s.12,0,0,0h-.23c-.08-.02-.17-.02-.26,0-.11.02-.21.05-.31.1h-.07s-.07.05-.09.09c0,0,0,.07.06.09l-.17-.1Z"/>
        <path class="cls-36" d="M87.27,257.5c.06.11.14.2.24.28.13.07.28.12.43.13.16,0,.31-.03.46-.1.05-.02.1-.05.15-.09,0,0,.07-.06.06-.11-.04-.13-.13-.24-.24-.31-.24-.09-.5-.09-.73,0-.1.02-.19.05-.28.11,0,0-.12.09-.1.14s.1.05.15.06c.1.02.2.02.3,0h-.2.12c.07.03.14.09.19.15h0s.05.1.06.15l.66-.29h0l-.16-.05h0c-.1-.04-.18-.11-.24-.2h0v-.07s-.09-.06-.14-.06c-.1-.02-.2-.02-.3,0-.1.03-.19.07-.28.12h0s-.01.06,0,.09l-.15.06Z"/>
        <path class="cls-16" d="M261.76,202.98c-2.58,1.21-5.29,2.14-8.07,2.78-4.16,1.17-8.36,2.2-12.58,3.19-8.39,1.98-16.82,3.78-25.27,5.51-1.84.38-3.7.76-5.54,1.12l.48.18-.92-2.92c-.12-.38-.93-.16-.8.22l.91,2.91c.06.2.31.22.48.18,14.23-2.8,28.51-5.71,42.49-9.58,3.16-.7,6.24-1.75,9.18-3.11.49-.27,0-.72-.36-.5v.02Z"/>
        <path class="cls-16" d="M205.02,201.78l-.53-2.52-.24.24c6.58-2.31,13.15-4.65,19.72-7.01,9.65-3.48,19.38-6.86,28.84-10.86,2.81-1.18,5.51-2.67,8.65-2.64,2.18-.04,4.3.72,5.96,2.13.19.17.94-.13.76-.3-3.59-3.45-9.49-2.25-13.48-.38-3.62,1.69-7.45,3.09-11.16,4.51-10.53,3.99-21.15,7.79-31.76,11.55l-7.83,2.76c-.09,0-.28.13-.24.24l.52,2.52c0,.23.86,0,.81-.21v-.04Z"/>
        <path class="cls-10" d="M102.46,144.85l-12.66,21.96s-18.87-10.6-24.72-12.54-9.58-3.11-9.58-3.11l5.78,21.75s23.34,14.06,34.14,12.03c9.21-1.73,13.84-36.55,13.84-36.55l-6.8-3.55Z"/>
        <path class="cls-15" d="M62.86,178.01l10.91,6.05c.13.39,11.5-22.43,11.5-22.43,0,0-13.67-6.56-17.04-8.66-4.07-2.5-17.53-5.07-17.53-5.07l12.15,30.1Z"/>
        <path class="cls-15" d="M60.5,151.31l-9.86-3.42c-.05,5.18-2.23,6.91-6.62,7.37-7.79,1.06-16.08-8.59-16.08-8.59l-12.94,6.85s-1.53,23.43-1.94,34.33c-.34,8.98-3.84,40.46-3.84,40.46,0,0,7.69,6.64,27.15,9.36,19.47,2.72,36.08-4.93,36.08-4.93l-4.33-68.67-7.61-12.76Z"/>
        <path class="cls-5" d="M69.94,182.54c-.42-5.12-.46-10.28-.59-15.41,0-.16-.55,0-.54.15.13,5.13.17,10.29.59,15.4,0,.17.55.05.54-.14Z"/>
        <path class="cls-31" d="M89.49,167.15c-.95,2.15-.75,4.63.51,6.6.14.22.87-.06.79-.2-1.24-1.93-1.43-4.36-.52-6.46.09-.18-.68-.11-.78.12v-.05Z"/>
        <path class="cls-16" d="M157.55,152.38c3.96,6.5,7.82,13.27,8.52,20.98,0,.2.63.07.61-.16-.65-7.74-4.54-14.54-8.52-21.05-.11-.18-.69,0-.56.23h-.04Z"/>
        <path class="cls-10" d="M115.27,133.34c-.21-.34-.54-.6-.93-.7-.37,0-.71.18-.91.49-.05.08-.14.14-.23.15-.34.68-.62,1.15-.78,1.13s-.09-.58.1-1.43c0-.02,0-.04,0-.05,0-.83.1-1.95-.68-2.47-.49-.33-.49-1.18-.97-.86-.36,1.32-.94,2.57-1.7,3.7-.11,0,0-.85.46-2.69l.23-.82c.07-.23.15-.47.22-.73.45-1.63.49-2.81,1.06-4.46.19-.52.14-1.1-.16-1.58-.2-.49-.75-.72-1.23-.52-.24.1-.43.29-.52.52-1.2,2.08-2.85,9.46-2.93,9.94,0-.09-.31.22-.29-.28,0-.94.39-3.05.4-4.2,0-1.86.78-5.24-.39-5.2s-1.92,2.41-2.43,4.62c-.46,1.88-1.57,6.54-2.07,8.65h0c-.16.65-.26,1.06-.26,1.06,0,0-.46.71-.49.56-.85,1.35-1.55,1.63-1.7,3.28-.13,1.06-.1,2.14.09,3.19.09.43.22.83.34,1.26.17.38.41.72.72.99l-1.77,6.93c.6.1,8.67,2.13,9.2,1.96,0,0,1.15-6.23,2.42-7.82,1.91-.86,4-7.45,5.39-12.49v-.09c.21-.68.14-1.42-.2-2.04Z"/>
        <path class="cls-31" d="M109.49,147.81c-.67.48-1.5.67-2.31.52-.61-.15-1.2-.38-1.75-.68l-.49-.3-.13-.1c-.06,0,0,0,0,0-.18-.11-.4-.11-.58,0-.1,0-.38.24-.22.38.25.19.51.36.79.51.67.36,1.38.62,2.13.76,1.1.14,2.21-.13,3.11-.78.14-.1.24-.26.07-.37-.2-.08-.44-.06-.62.07v-.02Z"/>
        <path class="cls-31" d="M105.29,139.67h.14c.06,0-.11,0,0,0h.06l.26.07.16.06h.07c-.07,0,0,0,0,0,.64.35,1.17.88,1.5,1.53.31.58.52,1.2.63,1.84.09.39.95.17.87-.22-.33-1.65-1.24-3.41-2.97-3.9-.13-.04-.27-.07-.4-.09-.22-.03-.44.08-.56.27-.1.19.07.33.26.35v.07Z"/>
        <path class="cls-10" d="M208.64,211.02c-.92-2.53-1.06-2.25-1.92-4.65-.44-1.22-1.24-3.7-2.19-4.59l-.6.13c-5.93,1.07-11.93,1.67-17.95,1.78-.35,0-1.96.7-3.99,1.19-.48,1.61-.75,3.03-1.2,4.65l1.41-.13c-1.77,1.57-3.44,3.25-4.99,5.03-.32,1.24.27,2.54,1.43,3.11.36.1,1.43.44,1.43.44-.28.32-.5.68-.67,1.06-.22.52.83,3.43,2.75,3.34.32-.02.64,0,.95.07.4,1.33,1.13,2.54,2.13,3.5,1.37,1.06,5.95-1.01,9.14-.23,0,0,2.32-2.02.8-3.79,0,0,5.22-1.84,7.13-2.84.65-.42,1.19-1,1.54-1.69,1.06-1.78,2.83-2.53,4.09-3.66.49-.32,1.03-.56,1.6-.7.01-.72-.62-1.34-.86-2.01Z"/>
        <path class="cls-10" d="M164.86,215.8l9.74-7.9c1.78-.72,6.53-2.64,8.76-3.29-.24,1.8-.47,3.55-.71,5.32l-4.46,1.22c.05-.06-.69.17-.69.17-2.54,2.07-7.35,5.87-10.21,6.06s-2.43-1.59-2.43-1.59Z"/>
        <path class="cls-31" d="M195.26,221.67c-1.24-.23-2.5-.23-3.74,0-.58.12-1.14.33-1.65.62-.5.41-1.05.77-1.63,1.06-.39.13-.22.75.17.62.54-.23,1.04-.54,1.5-.91.47-.32,1.01-.56,1.57-.69,1.19-.25,2.42-.25,3.61,0,.4.06.58-.54.17-.62v-.09Z"/>
        <path class="cls-31" d="M183.41,222.48c-.02-.72.28-1.41.81-1.9.4-.47.81-.94,1.22-1.39.71-.76,1.51-1.43,2.37-2,.34-.22,0-.78-.32-.55-.97.64-1.85,1.39-2.63,2.25-.48.53-.97,1.06-1.41,1.63-.52.58-.76,1.36-.66,2.13.07.4.69.23.61-.17h0Z"/>
        <path class="cls-31" d="M180.27,217.91c.36-1.14.9-2.22,1.61-3.19.81-.86,1.82-1.52,2.93-1.93.37-.16.05-.71-.32-.55-1.18.45-2.24,1.18-3.09,2.13-.76,1.04-1.35,2.2-1.75,3.43-.15.37.47.54.62.17v-.05Z"/>
        <path class="cls-10" d="M46.99,208.28l-26.48-9.97.56-20.23.56-2.7c1.75-8.28-1.27-3.82-2.42-4.67-.1-.07-9.75.75-9.82.85-3.8,6.47-4.15,10.57-5.64,13.65-1.49,3.08-.56,14.76.6,18.1,1.16,3.34,5.9,7.33,10.32,8.87,5.1,1.77,14.25,2.52,14.25,2.52l15.64.77,2.43-7.19Z"/>
        <path class="cls-15" d="M-.48,188.66l23.94-.97-1.14-36.51s-12.48,1.34-17.69,11.71C-.58,173.26-.48,188.66-.48,188.66Z"/>
        <path class="cls-5" d="M21.59,187.86h2.59c.12,0,.48,0,.49-.2.13-3.05.26-6.09.22-9.14-.03-3.05-.36-5.88-.62-8.83-.35-4.09-.49-8.03-4.16-10.56-.14-.1-.64.14-.55.2,3.79,2.62,3.78,6.74,4.16,10.91.26,2.81.54,5.6.58,8.43,0,3.05-.1,6.09-.22,9.14l.49-.2h-2.59c-.13,0-.67.24-.38.24Z"/>
        <path class="cls-31" d="M14.71,199.42c1.92-.85,4.05-1.79,6.15-1.06.3.12.85-.32.43-.47-2.35-.84-4.76.14-6.9,1.06-.13.06-.28.22-.18.37s.36.11.5,0v.1Z"/>
        <path class="cls-10" d="M59.44,214.98l.94.35c-.14-1.2-.17-2.23-.32-3.42-1.32-.71-2.34-1.49-2.58-1.57-3.33-.16-6.6-1.02-9.58-2.51-5.15-2.57-14.68-4.05-14.68-4.05-7.55-2.3-8.38,4.04-8.38,4.04,5.42,2.48,16.66,3.94,17.72,5.39.72,1,1.06,2.93,1.63,4.36.17.54.47,1.04.86,1.45,1.34.9,2.8,1.62,4.33,2.13-1.21.93.15,2.75.15,2.75,2.24,0,5.12,2.32,6.15,1.86.77-.47,1.39-1.15,1.8-1.96.22,0,.44.04.65.12,1.29.42,2.31-1.38,2.21-1.79-.07-.29-.19-.57-.34-.83h1.06c.85-.19,1.41-1,1.29-1.86-.89-1.54-1.86-3.03-2.92-4.45Z"/>
        <path class="cls-10" d="M69.66,221.32l-5.32-6.56c-1.06-.73-3.91-2.67-5.32-3.42-.07,1.2-.16,2.37-.24,3.57l2.8,1.44c0-.05.43.21.43.21,1.38,1.71,4.01,4.89,5.86,5.43s1.81-.67,1.81-.67Z"/>
        <path class="cls-31" d="M49.33,221.43c.85.06,1.67.29,2.43.67.36.2.69.44.98.73.27.35.59.67.95.94.24.16.47-.22.22-.38-.36-.29-.69-.63-.98-.99-.32-.3-.68-.55-1.06-.75-.8-.37-1.66-.6-2.53-.67-.29,0-.28.42,0,.45h0Z"/>
        <path class="cls-31" d="M57.48,223.68c.18-.51.18-1.07,0-1.58-.2-.49-.45-.95-.73-1.39-.44-.72-.97-1.4-1.57-2-.19-.2-.51.11-.31.32.53.55,1,1.16,1.41,1.81.49.84,1.06,1.71.73,2.73-.11.27.32.38.43.12h.04Z"/>
        <path class="cls-31" d="M60.43,221.19c-.05-.19-.13-.37-.22-.54-.15-.33-.31-.65-.47-.98-.39-.78-.82-1.53-1.3-2.26-.18-.3-.41-.58-.67-.82-.22-.17-.54.14-.32.32.21.18.4.39.54.63.23.34.45.69.65,1.06.4.71.78,1.43,1.06,2.13.1.19.19.38.24.59.06.28.49.16.43-.12h.05Z"/>
        <path class="cls-31" d="M114.99,135.85c-.29.59-.65,1.16-1.06,1.67-.22.27-.45.53-.68.79-.09.12-.19.23-.3.32,0,0,0,.06-.09,0-.06-.04-.12-.09-.17-.15-.16-.33-.21-.7-.14-1.06.02-.36.06-.71.13-1.06.14-.72.32-1.43.53-2.13.06-.22-.6-.14-.65.09-.27.86-.47,1.73-.61,2.62-.09.61-.3,1.79.48,2.04s1.35-.59,1.79-1.06c.55-.62,1.01-1.31,1.38-2.04.14-.28-.51-.2-.6,0h-.02Z"/>
        <path class="cls-31" d="M101.74,137.88l2.06-1.17c.32-.21.68-.34,1.06-.36.39.04.78.13,1.14.29.67.22,1.34.47,1.99.73s1.33.46,1.61,1.06c0,.07.13.33.07.4s-.44.06-.52.06c-.36.01-.72-.02-1.06-.1-.64-.14-1.16-.52-1.81-.27-1.15.46-1.47,1.83-2.4,2.54-.15.12-.09.22.07.28.22.03.43-.04.61-.17.43-.33.79-.74,1.06-1.2.14-.2.27-.4.43-.6.1-.14.21-.26.34-.36.16-.14.12-.15.28-.06.58.25,1.2.38,1.83.38.59.07,1.19-.02,1.74-.27.32-.21.41-.64.2-.96-.03-.04-.05-.07-.09-.11-.34-.39-.78-.68-1.28-.84-.65-.28-1.31-.53-1.98-.77-.58-.24-1.19-.4-1.81-.47-.65.01-1.28.19-1.83.53-.73.39-1.46.82-2.18,1.24-.14.07-.24.2-.09.31s.47,0,.61-.1l-.05-.04Z"/>
        <path class="cls-31" d="M122.02,111.08c.69.82,1.43,1.61,2.2,2.35.54.34,1.15.56,1.79.63.82.27,2.13.12,2.28-.93.03-.51-.06-1.01-.28-1.47-.16-.45-.34-.89-.55-1.32-.49-.93-1.13-1.76-1.7-2.63-.12-.18-.83.13-.79.21.46.7.97,1.37,1.39,2.13.42.71.76,1.46,1,2.25.16.4.2.85.1,1.27-.03.08-.07.16-.12.23l-.09.11h-.09c-.26-.03-.51-.1-.76-.19-.28-.07-.55-.11-.83-.17-.25-.06-.47-.19-.65-.37-.77-.72-1.47-1.54-2.13-2.33-.13-.14-.85.15-.75.26l-.04-.02Z"/>
        <path class="cls-31" d="M144.63,110.74c-.81-.94-1.61-1.9-2.44-2.81-.73-.7-1.7-1.09-2.72-1.06-1.12-.25-2.27-.35-3.42-.31-.85.22-1.6.71-2.13,1.42-.81.85-1.56,1.75-2.25,2.69-.5.71-1.26,1.65-1.06,2.59.4,2.13,3.51-.3,4.26-.88.24-.19.48-.4.73-.6.17-.15.39-.22.62-.19.4-.08.81.02,1.13.28.71.59,1.15,1.47,2.01,1.87.22.1,1-.23.68-.38-1.06-.5-1.58-2.13-2.88-2.21-.5-.03-1,0-1.49.11-.75.37-1.44.86-2.04,1.44-.41.31-.85.58-1.31.81-.3.13-.61.22-.79-.12-.11-.21-.15-.45-.12-.69.26-1.01.78-1.94,1.51-2.68.6-.77,1.23-1.5,1.91-2.2.18-.19.37-.37.56-.53.39-.24.86-.33,1.31-.26.54,0,1.06.14,1.63.2l1.73.21c.57.09,1.08.4,1.43.85.8.91,1.58,1.82,2.37,2.74.17.19.97-.1.78-.32l-.02.05Z"/>
        <path class="cls-10" d="M123.82,103.27c.39.83.83,1.64,1.33,2.41.89-1.06,1.91-2.13,2.89-3.14l-1.06-1.86c-.68-1.22-3.19-5.95-3.59-7.13-.15-.98-1.06-1.65-2.04-1.5-.15.02-.29.06-.43.12-.33.13-.6.39-.72.72-.3,1.29-.17,2.64.37,3.84.75,2.11,2.86,5.54,3.26,6.54Z"/>
        <path class="cls-10" d="M110.88,129.64l1-3.19c.07-.3.19-.58.36-.83.23-.41.76-.55,1.16-.31.19.11.33.29.39.49.11.34.15.71.12,1.06-.21,2.09-.7,4.14-1.46,6.09"/>
        <path class="cls-31" d="M47.59,117.31c1.05.06,2-.63,2.27-1.65.18-1.21-.22-2.43-1.06-3.3-.09-.12-.61.06-.51.19.7.76,1.1,1.74,1.14,2.77,0,.72-.58,1.81-1.43,1.77-.14-.02-.27.02-.38.1-.07.06-.09.14,0,.14h-.02Z"/>
        <path class="cls-26" d="M276.09,230.66c0,2.37,1.3,1.92,2.92,1.92s2.92.46,2.92-1.92-2.92-6.7-2.92-6.7c0,0-2.92,4.31-2.92,6.7Z"/>
        <path class="cls-26" d="M269.72,230.66c0,2.37,1.31,1.92,2.92,1.92s2.92.46,2.92-1.92-2.92-6.7-2.92-6.7c0,0-2.92,4.31-2.92,6.7Z"/>
        <path class="cls-26" d="M263.16,230.66c0,2.37,1.3,1.92,2.92,1.92s2.91.46,2.91-1.92-2.91-6.7-2.91-6.7c0,0-2.92,4.31-2.92,6.7Z"/>
        <path class="cls-26" d="M253.68,230.66c0,2.37,1.3,1.92,2.92,1.92s2.91.46,2.91-1.92-2.91-6.7-2.91-6.7c0,0-2.92,4.31-2.92,6.7Z"/>
        <path class="cls-26" d="M246.92,230.66c0,2.37,1.31,1.92,2.92,1.92s2.92.46,2.92-1.92-2.92-6.7-2.92-6.7c0,0-2.92,4.31-2.92,6.7Z"/>
        <path class="cls-26" d="M240.25,230.66c0,2.37,1.31,1.92,2.92,1.92s2.92.46,2.92-1.92-2.92-6.7-2.92-6.7c0,0-2.92,4.31-2.92,6.7Z"/>
        <path class="cls-30" d="M277.09,231.44c0,1.55.86,1.26,1.92,1.26s1.91.3,1.91-1.26-1.91-4.39-1.91-4.39c0,0-1.92,2.82-1.92,4.39Z"/>
        <path class="cls-30" d="M270.73,231.67c0,1.57.86,1.27,1.92,1.27s1.91.3,1.91-1.27-1.91-4.39-1.91-4.39c0,0-1.92,2.83-1.92,4.39Z"/>
        <path class="cls-30" d="M264.17,231.44c0,1.55.85,1.26,1.92,1.26s1.91.3,1.91-1.26-1.91-4.39-1.91-4.39c0,0-1.92,2.82-1.92,4.39Z"/>
        <path class="cls-30" d="M254.57,231.44c0,1.55.86,1.26,1.92,1.26s1.91.3,1.91-1.26-1.91-4.39-1.91-4.39c0,0-1.92,2.82-1.92,4.39Z"/>
        <path class="cls-30" d="M247.97,231.44c0,1.55.85,1.26,1.91,1.26s1.92.3,1.92-1.26-1.92-4.39-1.92-4.39c0,0-1.91,2.82-1.91,4.39Z"/>
        <path class="cls-30" d="M241.26,231.44c0,1.55.85,1.26,1.91,1.26s1.92.3,1.92-1.26-1.92-4.39-1.92-4.39c0,0-1.91,2.82-1.91,4.39Z"/>
        <polyline class="cls-3" points="284.14 232.5 284.14 227.4 238.37 227.4 238.37 232.5"/>
        <rect class="cls-22" x="218.99" y="232.5" width="83.35" height="14.74"/>
        <circle class="cls-12" cx="261.63" cy="239.87" r="4.97" transform="translate(-17.05 459.7) rotate(-80.78)"/>
        <path class="cls-6" d="M296.57,182.04c0-.58.24-1.13.65-1.53-.4-.07-.78-.19-1.15-.36h0c.24-2.01.44-3.74-2.6-3.73-20.4.12-40.81.13-61.22.16q-4.82-.3-5.12,4.04h0l.06,8.41c0,9.14,0,18.27.07,27.4,0,4.89,2.45,7.45,7.15,8.02h55.03c4.16-.67,5.73-2.21,6.5-6.39.98-8.4.16-20.87.44-29.28"/>
        <path class="cls-6" d="M234.74,224.28l-.33.17.33-.17Z"/>
        <path class="cls-28" d="M227.29,180.14c-.35-.07-.71-.1-1.06-.1h-6.47c-2.66,0-4.85,1.7-4.85,3.78s2.18,3.77,4.85,3.77h6.47c.36,0,.71-.03,1.06-.09v-7.37Z"/>
        <rect class="cls-12" x="218.99" y="247.23" width="8.15" height="3.08"/>
        <line class="cls-4" x1="261.26" y1="227.28" x2="261.26" y2="232.5"/>
        <path class="cls-1" d="M251.11,71.14c3.19-16.59,6.39-52.84-25.76-57.38,0,0-24.31-5.88-32.26,16.53C130.19,7.61,60.19,34.45,28.56,93.34c-1.6.44-3.11,1.16-4.46,2.13-1.99,1.66-3.43,3.89-4.13,6.39l-1.01.94c-1.09,1.01-1.91,2.27-2.39,3.67-2.57,7.82-.88,12.71.69,15.24-19.46,71.8,22.97,145.79,94.78,165.25,71.8,19.46,145.79-22.97,165.25-94.78,11.44-42.2,1.68-87.33-26.17-121.04Z"/>
        <path class="cls-18" d="M53.55,122.6s4.24.94,5.71.51,2.13-2.24,2.13-2.24c0,0-.1-.6-1.73-.97s-4.26-.65-6.11,2.7Z"/>
        <path class="cls-18" d="M35.96,122.6s3.16,1.32,5.86.91,4.23-1.2,4.23-1.2c0,0-2.07-1.95-4-2.06s-5.29.47-6.09,2.35Z"/>
        <ellipse class="cls-9" cx="58.69" cy="121.21" rx="1.63" ry="1.62" transform="translate(-72.7 150.76) rotate(-76.84)"/>
        <path class="cls-9" d="M60.6,119.85c-1.03-.59-2.24-.82-3.42-.65-2.51.24-3.63,3.41-3.63,3.41.8-1.41,2.17-2.4,3.76-2.72,1.42,0,2.81.35,4.08.99-.14-.42-.42-.78-.79-1.03Z"/>
        <ellipse class="cls-9" cx="41.81" cy="121.54" rx="1.63" ry="1.62" transform="translate(-86.05 134.58) rotate(-76.84)"/>
        <path class="cls-9" d="M46.37,122.57s-2.47-3.28-5.23-3.03c-3.9.35-4.57,1.97-5.32,3.19,1.48-1.41,3.37-2.31,5.4-2.57,2.75-.14,5.15,2.41,5.15,2.41Z"/>
        <path class="cls-18" d="M209.95,59.25s2.54,1.21,6.33.67c4.39-.62,5.99-2.36,5.99-2.36,0,0-2.42-.49-4.52-.92s-5.09.48-7.8,2.61Z"/>
        <path class="cls-18" d="M198.4,59.94s-2.03,1.12-4.64,1.75c-3.38.82-4.87-1.86-4.87-1.86,0,0,1.14-.42,2.76-1.04s4.85,0,6.76,1.15Z"/>
        <path class="cls-9" d="M192.81,58.83c-.64-.21-1.36-.05-1.84.42-.56.64-.51,1.58.11,2.16.49.41,1.2.48,1.78.17.68-.41.98-1.21.72-1.93-.13-.36-.41-.65-.77-.82"/>
        <path class="cls-9" d="M198.61,60.03c-1.21-.74-2.53-1.28-3.92-1.61-3.26-.38-5.45.35-6.18,1.54,1.86-.7,3.84-.99,5.82-.86,1.44.24,2.87.55,4.28.93Z"/>
        <path class="cls-9" d="M209.95,59.25c1.58-1.57,3.6-2.61,5.8-2.98,2.39-.17,4.24.33,6.35,1.47-2.23-.44-3.96-.66-6.24-.7-2.03.55-4.01,1.29-5.91,2.21Z"/>
        <path class="cls-9" d="M221.7,57.73c.71.13,1.39-.34,1.53-1.04-1.25.58-2.64.74-3.99.46l2.46.59Z"/>
        <path class="cls-9" d="M188.84,59.83c-.62.36-1.42.16-1.8-.46,0,0,.95.72,2.8-.5l-1,.96Z"/>
        <path class="cls-9" d="M215.79,57.11c-.64-.21-1.36-.05-1.84.42-.56.64-.51,1.58.11,2.16.49.41,1.2.48,1.78.17.68-.41.98-1.21.72-1.93-.13-.36-.41-.65-.77-.82"/>
      </g>
    </g>
    <g id="Layer_7" data-name="Layer 7">
      <path class="cls-9" d="M19.53,123s-6.47-5.07-2.44-17.36c.47-1.41,1.29-2.67,2.39-3.67l1.01-.95c.7-2.5,2.14-4.73,4.13-6.39,3.29-2.7,11.66-3.39,15.36-5.76,3.7-2.37,4.66-4.26,4.66-4.26,0,0,1.88,2.85,2.01,4.9,0,0,12,1.67,14.73,18.35,0,0-11.61-15.13-24.98-9.68s-16.87,24.82-16.87,24.82Z"/>
    </g>
  </g>
</svg>