<svg xmlns="http://www.w3.org/2000/svg" xmlns:xlink="http://www.w3.org/1999/xlink" viewBox="0 0 292.89 301.99"><defs><style>.cls-1{fill:none;}.cls-2{clip-path:url(#clip-path);}.cls-3{fill:#c3e6f7;}.cls-4{fill:#86c460;}.cls-5{fill:#5e9641;}.cls-6{fill:#446831;}.cls-7{fill:#4f2e25;}.cls-8{fill:#fff;}.cls-9{fill:#010101;}.cls-10{fill:#ddad6f;}.cls-11{fill:#dbb28e;}.cls-12{fill:#825639;}.cls-13,.cls-26{fill:#151210;}.cls-14{fill:#131429;}.cls-15{fill:#94664a;}.cls-16{fill:#060505;}.cls-17{fill:#f1eef7;}.cls-18{fill:#13110f;}.cls-19{fill:#040404;}.cls-20{fill:#628e9f;}.cls-21{fill:#0e0c0c;}.cls-22{fill:#59341c;}.cls-23{fill:#eb9944;}.cls-24{fill:#231f20;}.cls-25{fill:#0a2f44;}.cls-26{stroke:#231f20;stroke-miterlimit:10;stroke-width:0.13px;}.cls-27{fill:#1d170f;}.cls-28{fill:#31160e;}.cls-29{fill:#465b65;}.cls-30{fill:#273339;}.cls-31{fill:#d58780;}.cls-32{fill:#aa3828;}.cls-33{fill:#4d1513;}.cls-34{fill:#b7ac8a;}</style><clipPath id="clip-path"><path class="cls-1" d="M146.68,27.94c-3.69,0-7.34.17-11,.48A51.31,51.31,0,0,0,46.19,77.71,126.35,126.35,0,1,0,146.68,27.94Z"/></clipPath></defs><g id="Layer_20" data-name="Layer 20"><g class="cls-2"><circle class="cls-3" cx="146.68" cy="154.3" r="126.36" transform="translate(-66.15 148.91) rotate(-45)"/><path class="cls-4" d="M355,165.86a6.36,6.36,0,0,0,.62-2.74,7,7,0,0,0-3.14-5.68,20.68,20.68,0,0,0,.6-2c1.75-6.82.33-13.14-3.23-16.9-2.9-1-6.07-1.07-7.65,1.93-.75,1.41-3.37,1.23-3.63-.48-.29-2-1.11-3.13-3.24-2.88a2.07,2.07,0,0,1-.67,0,6.18,6.18,0,0,1-3.66-.3,2.06,2.06,0,0,1-1.38-2.45,6.86,6.86,0,0,0-.19-3.81c-.61-1.34-1.57-1-2.8-.53a2,2,0,0,1-2.44-1.39c-.27-1.57.18-4.82-1.6-5.46-2.39-.87-4.19,2.32-5.09,4a2,2,0,0,1-3.43,0c-1-2-1.85-2.91-3.86-1.62a31.9,31.9,0,0,0-4.15,3.65,2,2,0,0,1-.67.42,3.46,3.46,0,0,1-2.75.21,4.09,4.09,0,0,1-2.35-2.82c-.47-1.26-.77-2.57-1.16-3.85a14,14,0,0,0-.46-1.38,1.85,1.85,0,0,1-1.42-1.86v0a2.06,2.06,0,0,0-.3-.17c-.32-.13-.07,0-.41-.06a14.25,14.25,0,0,1-2.16-.14,4.29,4.29,0,0,1-.51.2,2.89,2.89,0,0,1-1.13.11,2.79,2.79,0,0,1-2.21-1.4c-.58-.91-.59-1.2-1.58-1.69a5.48,5.48,0,0,0-2.47-.62,7.26,7.26,0,0,0-5,2.44,1.76,1.76,0,0,1-2.45,0,6.81,6.81,0,0,0-6.38-1.43,5.12,5.12,0,0,0-1.16.49.91.91,0,0,0-.36.41c-.17.37-.41,1.3-.65,1.86-.92,2.19-2.65,2.9-4.69,3.82a3.1,3.1,0,0,0-2.06,2.36,30.27,30.27,0,0,0-.25,4,1.78,1.78,0,0,1-1.74,1.74h-3.31a1.55,1.55,0,0,1-1.35-.67l-.09.11a5.45,5.45,0,0,1-1.55,1.69c-1.19.6-2.24-.64-3.23-1.11-2.08-1-5.83-1.55-6,1.64a1.15,1.15,0,0,1-1.13,1.12,12.87,12.87,0,0,0-3.34,0c-1.36.29-1.57,1.17-1.44,2.46a.93.93,0,0,1-1,1.07,5.4,5.4,0,0,1-5.1,3.28c-1.89,0-4.08-.77-5.83.2a2.19,2.19,0,0,0-1.24,2.52,6.34,6.34,0,0,1-.79,4,14.36,14.36,0,0,1-2,2.31,2.76,2.76,0,0,0-.71,2.53,1.53,1.53,0,0,1-.69,1.37,24.52,24.52,0,0,0,.88,3.88,26.38,26.38,0,0,0,3.82,7.63l-55.74,0a18.62,18.62,0,0,0,9.78-10.41,7.76,7.76,0,0,0,13.54-5.25,7.84,7.84,0,0,0-.71-3.25,2,2,0,0,1-3.57-.53c-.33-1.22-1-1.92-2.24-1.26a2,2,0,0,1-2.92-1.19c-.37-1.44-1.53-.73-2.51-.17a2,2,0,0,1-3-1.71c-.08-.9.22-3.53-.38-4.28s-3.06-.28-3.88-.25a2,2,0,0,1-1.91-2.51c.75-2.88-1.1-4-3.6-2.65a2,2,0,0,1-3-1.71c0-1.75-3.36-1.69-3.7,0-.36,1.82-2.73,1.76-3.62.48s-1.71-.63-2.28.54c-.71,1.48-3.35,1.18-3.62-.47-.21-1.27-.12-3-.68-4.19a1,1,0,0,1-.13-.37s-.06,0-.2,0c-.67-.29-1.85.13-2.52.27a2,2,0,0,1-2.25-2.91c.7-1.53,1.64-3.11.21-4.56a2.79,2.79,0,0,0-3.46-.6,2,2,0,0,1-2.92-1.18c-.22-1.26-.22-3-1.3-3.88s-3.83-.95-4.57.55a2,2,0,0,1-3.43,0,1.83,1.83,0,0,0-.16-.26c-1.83-.44-4.4-.53-5.88.57a3.16,3.16,0,0,0,0,.32,2,2,0,0,1-2.51,1.91c-2.89-1.13-7.51-.19-6.51,3.8a2,2,0,0,1-1.92,2.52c-2.7.13-4.07,2.25-4,4.8a1.82,1.82,0,0,1-1.15,1.73,2,2,0,0,1-2.45,1.81c-.9-.24-4.75-2.15-5.36-1.19a1.76,1.76,0,0,1-.41.45,2,2,0,0,1-2.86,1.18,7,7,0,0,0-5.13-.77c0,.2-.06.4-.08.57a2,2,0,0,1-2.45,1.39,16.12,16.12,0,0,0-3.76-.72h-.07a20.51,20.51,0,0,0-1.32,2l-.2-.15c.13,1.78-2.27,2.35-3.39,1.33-3.25-2.95-5.62,1.94-5.57,4.84a1.75,1.75,0,0,1-.89,1.64,7.7,7.7,0,0,0,5.11,1.84,9.22,9.22,0,0,0,1.51-.13,36.09,36.09,0,0,0-.64,6.84A33,33,0,0,0,86.44,166H20.54v10.47H356V165.86Z"/><path class="cls-4" d="M88,140.74a4,4,0,0,1-5.13,0c-1.84-1.35-2.69-3.17-3.61-5.17-.84-1.83-1.49-3-3.61-2.86a1.4,1.4,0,0,1-1.52-.88h-.4A1.78,1.78,0,0,1,72,130.13c0-.36,0-.74,0-1.11a8.1,8.1,0,0,1-2.64-2c-.91-1.09-1.6-2.34-2.47-3.46A3,3,0,0,0,64,122c-1.52.22-2.86,1.07-4.42,1.22A6.21,6.21,0,0,1,55.34,122c-.9-.65-1.76-1.35-2.94-.89A5.17,5.17,0,0,0,51,122.26a7.77,7.77,0,0,1-1.86,1.37,5.43,5.43,0,0,1-2.44.54,6.56,6.56,0,0,1-1.85-.59,18.73,18.73,0,0,0-2.48-.48,7.23,7.23,0,0,0-1.78-.26c-1.5.07-2.49,1.24-3.21,2.43a13.71,13.71,0,0,1-3,4,2.19,2.19,0,0,1-1.24.49,2.52,2.52,0,0,1-.33.14,3.49,3.49,0,0,1-2.75-.22,1.93,1.93,0,0,1-.68-.42,31.81,31.81,0,0,0-4.14-3.65c-2-1.29-2.83-.37-3.87,1.62a2,2,0,0,1-3.43,0c-.9-1.72-2.69-4.91-5.08-4-1.78.64-1.34,3.89-1.6,5.46A2,2,0,0,1,8.85,130c-1.24-.48-2.19-.81-2.81.53a7,7,0,0,0-.18,3.81,2.06,2.06,0,0,1-1.39,2.45,6.18,6.18,0,0,1-3.66.3,2,2,0,0,1-.66,0C-2,136.88-2.8,138-3.1,140c-.25,1.71-2.88,1.89-3.63.48-1.57-3-4.74-2.89-7.64-1.93-3.56,3.76-5,10.08-3.24,16.9q.27,1,.6,2a7,7,0,0,0-3.14,5.68,6.36,6.36,0,0,0,.62,2.74h-1v10.58H89.24V139A5.86,5.86,0,0,1,88,140.74Z"/><path class="cls-4" d="M231,197.21c-.1.29-.2.58-.29.89A3.09,3.09,0,0,0,231,197.21Z"/><path class="cls-5" d="M245.58,157.22c-.11-.27-.22-.55-.34-.82a.82.82,0,0,0,.21.69Z"/><path class="cls-5" d="M347.44,162.37a4.38,4.38,0,0,0-4.12,4.59,5,5,0,0,0,.92,2.9h-3.58a1.37,1.37,0,0,0,0-.19c0-1.31-2.21-2.38-4.92-2.38h-.42c.24-.27.47-.57.7-.87a2,2,0,0,1-1-3.3c1.71-1.64,4-5.58,2-7.89-1.31-1.53-4.4-.63-6-.24a2,2,0,0,1-2.52-1.91c-.08-1.77-1.16-1.49-2.58-1.89a5.74,5.74,0,0,1-3.14-2c-.79-1-1-2.51-1.9-3.4-1.55-1.59-3.89-.22-5.1,1.07-.93,1-3.1.62-3.32-.88s-.2-2.83-.5-4.18c-.35-1.56-1.08-1.88-2.67-2a2.06,2.06,0,0,1-2-2c-.39-3.73-6.06-8.71-8-3.28a2,2,0,0,1-2.92,1.18c-1.2-.62-3.29-2.13-4.76-1.79s-2.73,2.47-3.3,3.62a3.88,3.88,0,0,1-3.62,2.51c-1.45,0-2.05.21-2.28,1.88a21.24,21.24,0,0,0,0,3.09,2,2,0,0,1-3.3,1.46,14.69,14.69,0,0,0-4.1,2.4,13.48,13.48,0,0,0-3.62-3.15,9,9,0,0,0-1.17,0,3.59,3.59,0,0,0-.35.12,3,3,0,0,0-1.9,3.07.9.9,0,0,1-.89.89,5.57,5.57,0,0,0-4,1.32,7.72,7.72,0,0,0-1,1.16l-.11.27a1.89,1.89,0,0,1-.48.64c-.25.42-.48.85-.72,1.28a20.55,20.55,0,0,0,.32,3.67,6.23,6.23,0,0,0-1.89-.3,6.78,6.78,0,0,0-6.52,7,7.47,7.47,0,0,0,.9,3.57,7.5,7.5,0,0,0-4.74-1.35,10.56,10.56,0,0,0-2.08.2l-.15.43c-.42,1.38-2.59.79-2.16-.6.23-.76.63-1.45.87-2.21s.17-.84-.26-1.32a2.62,2.62,0,0,1-.61-2.8c.16-.62.47-1.18,0-1.67-.3-.29-.72-.43-1-.75-.84-.92-.41-1.8-.4-2.86,0-.68-.55-1-1.19-1.14a15.26,15.26,0,0,0-4.57.32,1.14,1.14,0,0,1-1.42-1.08,9.31,9.31,0,0,0-.35-3.12c-.41-.27-.83-.54-1.23-.82-1.11-.77-2.09-1.3-3.3-.46a1.14,1.14,0,0,1-1.54-.4c-1.37-2-3.91,1-5.3,1.74a1.15,1.15,0,0,1-1.63-1.37,1.71,1.71,0,0,1-.79-.69,2.8,2.8,0,0,0-2.47-1.35,1.77,1.77,0,0,1-1.74-1.74,9.79,9.79,0,0,0-.29-2.22,1.48,1.48,0,0,0-.53-.87l-.07-.06h0a4.81,4.81,0,0,0-.41-.27c-.3-.18-.6-.34-.9-.49s-.74-.38-1.12-.54c-.12,0-.64-.19-.46-.16a4,4,0,0,1-1.69-.45,5.48,5.48,0,0,1-1.71-1.84,6.09,6.09,0,0,1-.4-.81,2,2,0,0,1-.38-1.07c-.21-.7-.38-1.42-.6-2.11a2.31,2.31,0,0,0-1.76-.6,2.08,2.08,0,0,1-.44,0,2,2,0,0,1-2.25-.29c-1.13-1-2.85-3.07-4.6-3.62-.64,0-1.27,0-1.89.1a2.38,2.38,0,0,0-.3.18c-1.66,1.12-2.53,3-4.33,4a21.05,21.05,0,0,1-5.13,1.65c-2.14.58-1.81,2.19-1.58,4.18a2,2,0,0,1-1.46,1.92c-2.19.37-5.39.73-5.71,3.45-.17,1.48-2.19,2.94-3.39,1.41-1.32-1.69-3.19-1.24-5-.51a2,2,0,0,1-2.24-.92c-1.26-1.9-2.93-1.78-4.3-.11a2,2,0,0,1-2.81,0c-.9-.74-1.93-.5-2.93-.25a1.9,1.9,0,0,1-1.19-.07,1.74,1.74,0,0,1-1.87-.38,1.69,1.69,0,0,1-1.09-1.61,3.94,3.94,0,0,0,0-.91s-.05-.36,0-.19c-.06-.23,0-.1-.17-.2-.51-.31-1.09-.46-1.59-.78a3.47,3.47,0,0,1-1.66-2.35c-.07-.4,0-1.1-.2-1.46s-1-.49-1.45-.46a1.73,1.73,0,0,1-1.67-1.28,5,5,0,0,0-1.57-3.21c-.92-.77-1.74-.53-2.65.14a1.75,1.75,0,0,1-2.38-.63c-1.9-4-8.22-2.67-10.27.53a1.65,1.65,0,0,1-1.74.78c-1.62.8-3.53-.11-5.25,1.14-2.32,1.69-1.38,5-3.23,6.89-1,1-2.52,1-2.94,2.52-.32,1.15.31,2.45.3,3.61a5.12,5.12,0,0,1-1.26,3.45c-.79.84-2.65,1.22-3.07,2.29a2,2,0,0,1-2.44,1.38,9.29,9.29,0,0,0-1.8-.26c-.11.13-.23.26-.34.4l-.58-.46c-1.65-.09-3.32-.18-4.57-1.19-.78-.62-1.43-1.39-2.18-2.06a22.09,22.09,0,0,0-2.76-.55,11.36,11.36,0,0,0-1.13,1.42,2,2,0,0,1-2.71.71c-1.65-1.21-4.54-2.33-6-.2-1.33,2-4.39.38-3.67-1.55a3.51,3.51,0,0,1-2.41-2.12c-.67-1.73,0-3.55-.79-5.27-.9-2-2.69-4.71-4.82-5.58-1-.4-1.8-.23-2.59-1.13a2.43,2.43,0,0,1-.55-1.75c-2.16-1.13-4.49-1.89-6.6-3.11-1.43-.82-.84-.53-2.31,0a5.11,5.11,0,0,1-3.07,0c-1.85-.48-2.81-1.19-4,.89-1,1.63-2.66,2.79-4.55,1.8-.21-.11-.83-.76-1.14-.95,0,.09-.46.22-.41.21-.93.31-.84.75-1.11,1.54a3.51,3.51,0,0,1-3,2.67,2.93,2.93,0,0,1-3.23-2.1,3,3,0,0,1-.13-.78,2.36,2.36,0,0,1-.43-.71,3.72,3.72,0,0,0-3.1-2.53,2.06,2.06,0,0,1-2-2c-.08-1.15.07-2.59-1-3.35-1.49-1.08-3-.22-3.64,1.23a2,2,0,0,1-3.43,0c-.88-1.76-2.22-4.12-4.32-2.37a2.26,2.26,0,0,1-1,.5,2.1,2.1,0,0,1-3.4,1.06c-1.74-1.42-3.66-.17-4.5,1.6.09-.14-.1.49-.14.56a2.66,2.66,0,0,1-.73,1.1c-1.56,1.3-4.32.57-5.19,2.57a1.55,1.55,0,0,1-1.89,1,10.18,10.18,0,0,0-1.44,1.2c-.19.57-.38,1.15-.55,1.75a18.81,18.81,0,0,1,.28,3.65,2,2,0,0,1-2.92,1.19A30.52,30.52,0,0,1,1,137.72q-.91-.78-1.89-1.47c-.4-.29-.82-.55-1.22-.83l-.19-.12a5.33,5.33,0,0,1-.54.75,3.79,3.79,0,0,1-1.09.73,2.9,2.9,0,0,1-2.52-.16c-1.18-.66-.79-1-2-.93s-1.38,0-1.76,1.41a2,2,0,0,1-2.92,1.19c-1.88-1.27-3.54-.85-3.66,1.61a2,2,0,0,1-2,2,6.13,6.13,0,0,0-2.63.26,24.66,24.66,0,0,0-3.86,13.42,24.51,24.51,0,0,0,4.45,14.3h-4.07v15.66H351.7V167A4.49,4.49,0,0,0,347.44,162.37Zm-93.09,7.49c0-.05,0-.1,0-.15a1.35,1.35,0,0,0,0-.29l.37.44Z"/><rect class="cls-6" x="-32.3" y="184.96" width="380.11" height="107.99"/><path class="cls-6" d="M228.38,183.61a18.27,18.27,0,0,1,4.16,2.18,1.11,1.11,0,0,0,.94.3c.72-.08.52-.35.41-.52-.84-1.3-1.34-2.64-2.87-3.85-.31-.24-.92-.49-.32-.93,4.09,1.4,6.31,3.3,8.84,5.12a6.5,6.5,0,0,1,.43-3c1,.78.68,1.7,1.89,2.64a28,28,0,0,0-.47-5.52l.65,0,2.57,4.52c.87-1.49.83-2.9,2.55-4.12-.16,1.44-.55,2.86.74,4.49a12.74,12.74,0,0,1,4.49-4.18c-.86,2.26-1.76,4.49-1.39,6.79l3.21-3.82c.41,1.29,0,2.57.78,3.92a1.82,1.82,0,0,0,.4-.37,45.43,45.43,0,0,0-.5,6.05.5.5,0,0,0,1,.09l.12.35c0,.52-.05,1-.07,1.56-.12,2.23-.29,4.46-.45,6.69H238.36a133,133,0,0,0-7-11.84l-.22-.33a13,13,0,0,0-1.12-2.12l-.54-.78a4.43,4.43,0,0,0,.42.29C230.16,185.82,229,184.75,228.38,183.61Z"/><path class="cls-6" d="M166.62,183.75a18.15,18.15,0,0,0-4.17,2.18,1.11,1.11,0,0,1-.94.3c-.71-.08-.51-.36-.4-.53.83-1.29,1.33-2.63,2.87-3.84.3-.25.91-.49.32-.93-4.1,1.39-6.31,3.29-8.85,5.12a6.35,6.35,0,0,0-.43-3c-1,.78-.67,1.7-1.88,2.64a28.21,28.21,0,0,1,.46-5.53H153l-2.58,4.52c-.86-1.5-.83-2.9-2.54-4.12.16,1.43.54,2.86-.74,4.49a12.69,12.69,0,0,0-4.5-4.18c.86,2.25,1.76,4.48,1.39,6.79l-3.21-3.83c-.41,1.3,0,2.58-.78,3.93a2,2,0,0,1-.39-.37,47,47,0,0,1,.5,6,.5.5,0,0,1-1,.09l-.11.35c0,.52,0,1,.07,1.56.11,2.23.28,4.46.45,6.68h17.11a133,133,0,0,1,7-11.84l.21-.33a13.06,13.06,0,0,1,1.13-2.12q.25-.41.54-.78l-.42.29C164.83,186,166,184.88,166.62,183.75Z"/><path class="cls-6" d="M202.13,184.55a18.15,18.15,0,0,0-4.17,2.17,1.11,1.11,0,0,1-.94.3c-.72-.07-.52-.35-.41-.52.84-1.3,1.34-2.63,2.87-3.85.31-.24.92-.49.32-.92-4.09,1.39-6.31,3.29-8.84,5.12a6.54,6.54,0,0,0-.43-3c-1,.79-.68,1.7-1.88,2.64a27.43,27.43,0,0,1,.46-5.52l-.65,0c-.82,1.46-1.65,2.91-2.57,4.53-.86-1.5-.83-2.91-2.55-4.13.16,1.44.55,2.86-.73,4.5a12.78,12.78,0,0,0-4.5-4.18c.86,2.25,1.76,4.48,1.39,6.78l-3.21-3.82c-.41,1.3,0,2.58-.78,3.93a2.1,2.1,0,0,1-.4-.38,45.43,45.43,0,0,1,.5,6.05.5.5,0,0,1-1,.1,3.58,3.58,0,0,0-.11.35c0,.52,0,1,.07,1.56.11,2.23.28,4.45.45,6.68h17.1a133,133,0,0,1,7-11.84l.22-.33a14.42,14.42,0,0,1,1.12-2.13l.54-.77-.42.29C200.34,186.76,201.48,185.68,202.13,184.55Z"/><path class="cls-6" d="M107.28,183.35a18.15,18.15,0,0,0-4.17,2.18,1.11,1.11,0,0,1-.94.3c-.72-.08-.52-.36-.41-.52.84-1.3,1.34-2.64,2.87-3.85.31-.24.92-.49.33-.93-4.1,1.39-6.32,3.29-8.85,5.12a6.48,6.48,0,0,0-.43-3c-1,.78-.68,1.7-1.88,2.64a27.3,27.3,0,0,1,.46-5.52l-.65,0L91,184.26c-.86-1.5-.83-2.9-2.54-4.12.15,1.43.54,2.86-.74,4.49a12.78,12.78,0,0,0-4.5-4.18c.86,2.25,1.76,4.48,1.39,6.79l-3.21-3.82c-.41,1.29,0,2.57-.78,3.92a2.45,2.45,0,0,1-.4-.37,43.82,43.82,0,0,1,.5,6.05.5.5,0,0,1-1,.09c0,.12-.08.24-.11.35,0,.52,0,1,.07,1.56.11,2.23.28,4.46.45,6.68h17.1a133,133,0,0,1,7-11.84l.22-.33a13.06,13.06,0,0,1,1.13-2.12c.17-.27.35-.52.53-.78-.13.1-.27.19-.42.29C105.49,185.56,106.63,184.48,107.28,183.35Z"/><path class="cls-6" d="M127.07,184.15a17.77,17.77,0,0,0-4.17,2.18,1.18,1.18,0,0,1-.94.3c-.72-.08-.52-.36-.41-.53.84-1.29,1.34-2.63,2.87-3.84.31-.25.92-.49.32-.93-4.09,1.39-6.31,3.29-8.84,5.12a6.54,6.54,0,0,0-.43-3c-1,.79-.68,1.71-1.88,2.65a27.46,27.46,0,0,1,.46-5.53h-.65l-2.57,4.52c-.86-1.5-.83-2.9-2.55-4.13.16,1.44.55,2.86-.73,4.5a12.78,12.78,0,0,0-4.5-4.18c.86,2.25,1.76,4.48,1.39,6.78l-3.21-3.82c-.41,1.3,0,2.58-.78,3.93a2.1,2.1,0,0,1-.4-.38,45.56,45.56,0,0,1,.5,6.05.5.5,0,0,1-1,.1c0,.12-.08.23-.11.35,0,.52,0,1,.07,1.56.11,2.23.28,4.45.45,6.68h17.1a133,133,0,0,1,7-11.84l.22-.33a13.83,13.83,0,0,1,1.12-2.12q.27-.41.54-.78l-.42.29C125.28,186.36,126.42,185.28,127.07,184.15Z"/><path class="cls-6" d="M63.68,184.55a18.06,18.06,0,0,0-4.16,2.17,1.14,1.14,0,0,1-.94.3c-.72-.07-.52-.35-.41-.52.83-1.3,1.34-2.63,2.87-3.85.31-.24.92-.49.32-.92-4.1,1.39-6.31,3.29-8.84,5.12a6.54,6.54,0,0,0-.43-3c-1,.79-.68,1.7-1.89,2.64a28.16,28.16,0,0,1,.47-5.52l-.65,0-2.57,4.53c-.87-1.5-.83-2.91-2.55-4.13.16,1.44.54,2.86-.74,4.5a12.69,12.69,0,0,0-4.5-4.18c.87,2.25,1.76,4.48,1.4,6.78l-3.21-3.82c-.42,1.3,0,2.58-.79,3.93a2,2,0,0,1-.39-.38,47.16,47.16,0,0,1,.5,6.05.5.5,0,0,1-1,.1l-.12.35c0,.52,0,1,.07,1.56.12,2.23.28,4.45.45,6.68H53.7a133,133,0,0,1,7-11.84l.22-.33a12.74,12.74,0,0,1,1.12-2.13c.17-.26.35-.52.54-.77l-.42.29C61.89,186.76,63,185.68,63.68,184.55Z"/><path class="cls-7" d="M171.85,241.19a1.74,1.74,0,0,0-.17,1.58c.3,1,8.47-.43,10.44-.57,2.75-.2,5.35.15,7.26-.39s-.24-3.44-.24-3.44Z"/><circle class="cls-8" cx="149.44" cy="231.38" r="12.08"/><path class="cls-9" d="M161.14,231.86a.78.78,0,0,1,.58,0c.11-.3.21-.6.29-.91s0-.44-.07-.66a12.66,12.66,0,0,0-1.57-4.5,11.69,11.69,0,0,0-1.39-1.93c0,.78-.09,1.56-.1,2.34a.64.64,0,0,1-.17.47c0,.21-.06.41-.1.62s-.13.26-.32.26a17.18,17.18,0,0,1-4-.2.5.5,0,0,1-.33-.13c-.85-.78-1.69-1.63-2.54-2.41a4.62,4.62,0,0,1-.53-.59,2.08,2.08,0,0,1-.26-1.5c.07-.66.2-1.37.26-2a.42.42,0,0,1,.33-.39c.2,0,.46-.06.65-.06h.09l.08-.09.54-.45a11.92,11.92,0,0,0-4.18-.45,7.34,7.34,0,0,0,1.14.53.75.75,0,0,1,.37.26l.2.13a.38.38,0,0,1,.2.33,7.06,7.06,0,0,1-.26,3.07,1,1,0,0,1-.4.32c-1.11.66-2.15,1.24-3.26,1.9-.13,0-.26.06-.33,0-.84-.33-1.76-.66-2.67-1a1.27,1.27,0,0,1-1-1,.84.84,0,0,1-.06-.33,13.17,13.17,0,0,1,.34-2.43,1.82,1.82,0,0,0-.56.45,11.21,11.21,0,0,0-4.31,5.35c-.1.28-.19.56-.28.85h.24a.7.7,0,0,1,.55.23,1,1,0,0,1,.34,0,1.06,1.06,0,0,1,.65.53.22.22,0,0,1,.07.19,18.47,18.47,0,0,0,.58,5,1.85,1.85,0,0,1-.06,1c-.13.52-.26,1.11-.39,1.7a.77.77,0,0,0-.07.39.44.44,0,0,1-.26.46h0l0,.1a5.56,5.56,0,0,0,2.08,2.76,8.26,8.26,0,0,0,2.17,1.21l.28-.09c.07-.09.17-.15.28-.26a4.86,4.86,0,0,1,.78-.85,5.49,5.49,0,0,1,.85-.46h.26l3,.59c.26,0,.52.07.78.07a2,2,0,0,1,1,.32,2.81,2.81,0,0,1,1.11,1.05,1.69,1.69,0,0,1,.26.52.58.58,0,0,1,.07.28l1.08.07a9.87,9.87,0,0,1,3.39-1.8c.13-.34.49-.54.67-.86a.18.18,0,0,1,0-.11,10.33,10.33,0,0,1,.72-3.13c0-.06.06-.06.06-.13.79-1.5,1.57-2.94,2.35-4.37a2.67,2.67,0,0,1,.46-.39A.26.26,0,0,1,161.14,231.86Zm-17.54,2.7a8.22,8.22,0,0,1-2.28-.72,3.36,3.36,0,0,1-1-.71.24.24,0,0,1-.07-.14,32.11,32.11,0,0,1-.39-3.52,4.59,4.59,0,0,1,1-3c.32-.39.65-.72,1-1.11a.31.31,0,0,1,.19-.13,1.13,1.13,0,0,1,.92-.13c.65.26,1.3.52,1.89.78a3,3,0,0,1,1.31,1,1.39,1.39,0,0,1,.13.46c.19,1.11.32,2.29.52,3.4a.38.38,0,0,1-.07.26c-.58.85-1.17,1.76-1.76,2.61a.84.84,0,0,0-.2.26A1,1,0,0,1,143.6,234.56Zm9.07,3.07a7.42,7.42,0,0,1-1.63,1.89,2.06,2.06,0,0,1-1.57.46c-.91-.13-1.82-.26-2.74-.46a2.57,2.57,0,0,1-1.56-1.43,9.11,9.11,0,0,1-.66-2.29,2.45,2.45,0,0,1,.53-1.5c.39-.52.71-1,1.11-1.5a3.39,3.39,0,0,1,1.17-1.18c.13-.06.2-.13.33-.13A9.53,9.53,0,0,1,151,232a1.05,1.05,0,0,1,.85.78c.33,1.18.72,2.35,1.11,3.53A1.67,1.67,0,0,1,152.67,237.63Zm7.05-5.55a10.18,10.18,0,0,1-.52,1.44c-.39.78-.85,1.63-1.31,2.41a1.32,1.32,0,0,1-1.11.72,10.37,10.37,0,0,1-3.19-.13.14.14,0,0,1-.13-.13c-.4-1.18-.79-2.42-1.18-3.59a3,3,0,0,1-.26-.72.75.75,0,0,1,.06-.65c.4-.72.72-1.5,1.11-2.22a6.28,6.28,0,0,1,.79-1,.45.45,0,0,1,.32-.13,14.56,14.56,0,0,1,4.18.26.34.34,0,0,1,.26.13c.33,1,.72,1.89,1,2.87A1.26,1.26,0,0,1,159.72,232.08Z"/><path class="cls-9" d="M144.51,240.47a12.94,12.94,0,0,0-1,1.42,12.27,12.27,0,0,1-3.59-3l-.91-1.45.91,0,3.56,2.88Z"/><polygon class="cls-9" points="150.47 223.51 154.25 227.61 150.72 227.61 150.47 223.51"/><path class="cls-9" d="M152,242.13l.27,1a11.49,11.49,0,0,0,3-1.16,7.19,7.19,0,0,0,2.12-1.46l-.23-.6Z"/><path class="cls-9" d="M150.47,220.77l-2.54-1.38a5.26,5.26,0,0,1,2.85,0,24.3,24.3,0,0,1,2.91.69Z"/><rect class="cls-10" x="97.81" y="24.92" width="2.28" height="6.07" rx="1.14" transform="translate(3.76 -10.93) rotate(6.44)"/><rect class="cls-10" x="90.4" y="31.22" width="2.28" height="6.07" rx="1.14" transform="translate(42.32 -50.19) rotate(39.25)"/><path class="cls-11" d="M82.88,42.48a20.7,20.7,0,0,1-.71,5.36,9.45,9.45,0,0,1-5.06,5.82L92,64.63l6.78-5.22s-3.35-3-3.32-3.89S97.82,49,97.82,49"/><path class="cls-12" d="M82.86,42.94a.09.09,0,0,1,0,.05A.07.07,0,0,1,82.86,42.94Z"/><path class="cls-11" d="M91.53,53.68l4.2,1.22,1.91.34a2.08,2.08,0,0,0,2.12-.82c1.08-1.45,1.48-2.22,1.62-2.4a26,26,0,0,0,2.37-3.57,16.5,16.5,0,0,0,1.55-3.06,6.74,6.74,0,0,0,.25-3.5,2.41,2.41,0,0,1,.21-1.31c.41-.91.7-2,1.22-3.26a3,3,0,0,0,.24-.68s1.26-5.32.66-7.42-1.16-4.25-2.5-4.88-6.27-.21-6.27-.21l-5.6-1.94-5.36,1.47-3.63,5.47-1,7-.69,6.85"/><path class="cls-13" d="M86.69,26.41c.2-3.14,3.16-3.77,4.4-4.08a12.53,12.53,0,0,1,5.91.06c.84.29.09,2,.49,2.44.15.07,1.83.8,2.5,1a7.42,7.42,0,0,0,2.66.56,3.16,3.16,0,0,1,1.51.14c.86.31,1.67-1.82,3.09.6l.11-.07c-1.73-3.49-4.78-4-8.31-5.25-.37-.13-.76-.25-1.15-.35-5.7-1.52-5.53-1.44-10,1.66-2.61,1.81-4.3,3.69-4.52,5l-.05.3c-.24,1.41-2.38,4.93-2,5.79.22.55.8,2.89,1.28,4.88l2.75.58c0-.53.67-5,.74-5.56"/><path class="cls-11" d="M83,43.07c-2.64,1.73-2.37-2-2.37-2a7.24,7.24,0,0,1-.42-5.52c.34-1.34,1.83-1,1.83-1,1.24.4,1.89.86,2.07,5.36"/><path class="cls-13" d="M103.59,25.2c-2.07-.43-7.23-2.89-10-3.6C92.44,21.31,88,23.45,87.41,24,86,25.3,88,29.25,85.08,33.66c-1,1.46-1.35-1.49-2.37-.61s-1.42,1.24-1.42,1.24c.25-4.7.24-4.53,2.11-8.87s7.16-5.36,9.61-5.29,10,2.28,11.84,3.63"/><path class="cls-14" d="M83.15,39.11a10.43,10.43,0,0,0-.66-2,3.26,3.26,0,0,0-.58-.92.87.87,0,0,0-.35-.25.64.64,0,0,0-.68.3,2.75,2.75,0,0,0-.49,1.8c0,.13.59,0,.58-.15a2.77,2.77,0,0,1,.28-1.42,2.2,2.2,0,0,1,.21-.32l.07-.08h0l-.46.11h0l0,0a1.16,1.16,0,0,1,.24.2,3.68,3.68,0,0,1,.73,1.31,12.45,12.45,0,0,1,.48,1.61c0,.15.62,0,.58-.16Z"/><path class="cls-14" d="M82.62,39.27a1,1,0,0,0-.75.13.56.56,0,0,0-.25.38c-.09.37,0,.75-.13,1.11a.84.84,0,0,1-.06.14c-.07.15.47,0,.41-.09s0,0,0,0a.31.31,0,0,1,0-.1,2.65,2.65,0,0,1-.11-.79,3.81,3.81,0,0,1,.12-1.21,3,3,0,0,1,.27-.64,1.37,1.37,0,0,1,.2-.29l.12-.1c.06-.05.1,0,0,0,.07,0,.33-.06.34-.15s-.19,0-.23,0a1.51,1.51,0,0,0-1.11.94,3,3,0,0,0-.26.89,7.36,7.36,0,0,0,0,1.15c0,.16,0,.47.18.57s.26,0,.36,0a.58.58,0,0,0,.35-.19.85.85,0,0,0,.11-.44c0-.23,0-.47.06-.7a1.11,1.11,0,0,1,.09-.31l.07-.09c-.08.16-.41,0-.19.1a.7.7,0,0,0,.4-.08s.2-.1.08-.13Z"/><path class="cls-15" d="M97.75,47.19C96.14,46.81,93.59,46,93.59,46s-.62,4,3.09,4.86,4.79-3,4.79-3S99.35,47.58,97.75,47.19Z"/><path class="cls-16" d="M97.76,47.2C97,47,94,46.15,94,46.15a4.49,4.49,0,0,0,3.27,3.36c3,.72,3.84-1.63,3.84-1.63Z"/><path class="cls-17" d="M97.77,47.32c-.76-.19-3-.87-3-.87s.63,1,2.92,1.58,3.21-.09,3.21-.09Z"/><path class="cls-15" d="M101.43,47.82a1.88,1.88,0,0,0-.56-.29c-.62-.21-.55-.3-1-.45a7.9,7.9,0,0,0-1.67-.14,7.22,7.22,0,0,0-1.56-.63c-.47-.07-1.64-.18-2.28-.28a4.89,4.89,0,0,1-.88-.31c-.12,0-.1.88,4.17,1.9S101.54,47.87,101.43,47.82Z"/><path class="cls-7" d="M95.73,54.9a27.39,27.39,0,0,1-5.07-1.18c-3.54-1.85-5.35-7.87-5.35-7.87A14.75,14.75,0,0,0,87.23,51c1.63,2.76,2.07,3.15,4.31,3.6,1.06.21,2.56.66,4,1Z"/><path class="cls-13" d="M80.32,35.11a14.87,14.87,0,0,1,0-6.32C81,25,82.27,20,87,18.86a9.19,9.19,0,0,1,2.59-.23s3.44-2.44,11.19.67c5.44,2.19,7.22,4.92,6.89,9.36,0,0-1.12-2.56-1.64-2.44s-1.16,1.17-3.1,1S98,26.11,97,25.07a9.3,9.3,0,0,0-4.54-2.37c-3.25-.18-4.06,2.14-4.6,3.49s-2.26,6.14-4,6.52a2.53,2.53,0,0,0-2,1.72l-.28,0a2.51,2.51,0,0,0-1.27.63Z"/><path class="cls-18" d="M102.33,39.52a3.19,3.19,0,0,1,1.69-.81,2.51,2.51,0,0,1,2.29.94,3.65,3.65,0,0,0-2.15-.62A5.28,5.28,0,0,0,102.33,39.52Z"/><path class="cls-18" d="M95.25,36.71a1,1,0,0,0-.92-.11.69.69,0,0,0-.22,1,.67.67,0,0,0,.75.27.74.74,0,0,0,.52-.79c0-.06.07-.16-.13-.31"/><path class="cls-18" d="M105.32,39.09a.94.94,0,0,0-.92-.11.69.69,0,0,0-.22,1,.69.69,0,0,0,.75.28.76.76,0,0,0,.52-.8c0-.06.07-.16-.13-.31"/><path class="cls-18" d="M97.24,38.28S96,36.43,94.65,36.14a15.28,15.28,0,0,0-3.36,0s2.47.34,3.17.51A16.52,16.52,0,0,1,97.24,38.28Z"/><path class="cls-13" d="M98.49,36.47s-3.31-2.17-5-2.4A8,8,0,0,0,91.08,34s-.36-.32,0-.48A7.78,7.78,0,0,1,94,33a38.42,38.42,0,0,1,5,2Z"/><path class="cls-13" d="M107.18,37.4a.74.74,0,0,1,0-.14l0,.05a2,2,0,0,0,.08-.26c-.06-.22,0-.42-.08-.65a41.27,41.27,0,0,0-4.53-.31l-.37,1.56a17,17,0,0,1,4.67-.12A.57.57,0,0,1,107.18,37.4Z"/><path class="cls-18" d="M101,43.36c0,.25,0,.49.08.74a4.13,4.13,0,0,1,0,.86c-.06.38-.57.42-.88.42a4.94,4.94,0,0,1-1.14-.14,3.2,3.2,0,0,1-1.28-.48s-.21,0-.18.06a3,3,0,0,0,1.23.48,5.46,5.46,0,0,0,1.27.16,1.48,1.48,0,0,0,1-.28c.24-.22.17-.52.15-.81s-.07-.71-.11-1.06c0,0-.2,0-.19,0Z"/><path class="cls-18" d="M96.81,43.29a.94.94,0,0,0-.52.13.71.71,0,0,0-.3.44.61.61,0,0,0,0,.3.48.48,0,0,0,.13.23,1.31,1.31,0,0,0,.53.29,2.56,2.56,0,0,0,.73.15.19.19,0,0,0,.13,0s0,0,0,0a2.31,2.31,0,0,1-.69-.16,1,1,0,0,1-.53-.33.64.64,0,0,1,0-.6.48.48,0,0,1,.45-.27.25.25,0,0,0,.14,0s0,0,0-.05Z"/><path class="cls-19" d="M90.91,35.35,91,36.42a13.74,13.74,0,0,0,.6,3c.25.67,4.35,1.88,5.28,1.61s1.92-2.5,2.27-3l1.64.48a14,14,0,0,0,.24,3.45c.24.37,2.16.77,2.38.82l.71.13a4,4,0,0,0,2,0,10.37,10.37,0,0,0,2-3l.12-.21s0-.08,0-.1h0l.13-.23a8,8,0,0,0-7.55-1.34v0l-1.6-.48a9.23,9.23,0,0,0-7-2.72h0l-6.74.25-.16.61Zm10.38,6.42a14.58,14.58,0,0,1-.2-3.16,7.74,7.74,0,0,1,6.74,1.14v0A12.71,12.71,0,0,1,106,42.65c-.57.33-4.39-.51-4.67-.87Zm-9.14-2.43a12.34,12.34,0,0,1-.73-3.9c2.22-.42,5.8,1,7.33,2.54-.52.91-1.28,2.53-1.94,2.72-1,.28-4.5-.94-4.66-1.36Z"/><path class="cls-7" d="M232.12,235.64a1.75,1.75,0,0,0,1.39.77c1,.1,2.87-8,3.49-9.86.88-2.62,2.2-4.88,2.43-6.85s-3.26-1.11-3.26-1.11Z"/><path class="cls-11" d="M89.51,99.93s10.35-1.06,12.3-2.72c1.3-1.11,2.26-3.36,3.5-4.54l9.35-3.08c1.17-.37,6.42-1.87,6.43-1.43h0a11.07,11.07,0,0,0,2.23,6.26l.33.36c.11.57-5.1,3-6.11,3.53-4.33,2-10.69,7.52-13.11,8.56-2.83,1.22-8.38,4-12.49.3C88.28,104.9,89.51,99.93,89.51,99.93Z"/><path class="cls-20" d="M96.73,90.87q1.77.12,3.54.12c.11-.11.53.84.73.87a21.54,21.54,0,0,0,6.09.3c1.18-7.8,2-18.21,1.64-22.11-.67-6.45-11.49-13.37-12.23-13.8,0,0-1.56,23.27,0,32.4A19.6,19.6,0,0,1,96.73,90.87Z"/><polygon class="cls-21" points="76.31 232.85 86.87 231.18 87.78 224.95 76.15 223.09 76.31 232.85"/><path class="cls-22" d="M105.77,239a2.2,2.2,0,0,0-1.3-2.5c-1.7-.68-5.55-1.83-8.39-3.2-4-1.89-6.26-4.71-8-4.85s-1.46,2.54-5.36,2.59a14,14,0,0,1-6.94-1.91c-.88.47-2.51,6-1.48,7.38s10.45,2.1,10.45,2.1l7.54,1.47,7.55.33Z"/><path class="cls-14" d="M81.63,238.27a4.61,4.61,0,0,0-.37-2.32c-.48-.94-1.45-1.14-2.38-1.46a8.34,8.34,0,0,1-2.67-1.19,2.8,2.8,0,0,1-.82-2.87c0-.28-.56-.2-.6,0a3.2,3.2,0,0,0,.59,2.82,5.55,5.55,0,0,0,2.23,1.26l1.64.56a2.31,2.31,0,0,1,1.28.78,3.83,3.83,0,0,1,.5,2.42c0,.3.58.2.6,0Z"/><path d="M75.25,229.68C78.63,232,82.53,232,86.36,231a5.46,5.46,0,0,1,4.36.49c1.26.67,2.44,1.5,3.67,2.21.48.28,1.06.82,1.66.62s.59-.58.51-1.07c0-.17-.42-.07-.39.1l-.35.75-.46-.24-.66-.37c-.47-.27-.94-.56-1.4-.85a23.53,23.53,0,0,0-3-1.74,6,6,0,0,0-4.3,0,12.31,12.31,0,0,1-10.39-1.37c-.13-.08-.49.1-.31.22Z"/><path d="M87.24,239,86,238.75c-.5-.09-.25,0,.12-.27a6.71,6.71,0,0,1,1.19-.69c2-.86,4.23-.59,6.31-.64a20,20,0,0,0,4.76-.46c1.12-.31,1.71-.91,1.07-2.07-.07-.14-.46,0-.39.1.31.58.47,1.2-.19,1.55a5.07,5.07,0,0,1-1.67.42,38.59,38.59,0,0,1-4.56.24c-2.63,0-5.18,0-7.27,1.83-.06.06,0,.14,0,.15l1.57.31c.14,0,.47-.18.24-.23Z"/><path class="cls-23" d="M86.13,238.88l0,0H86.1Z"/><path class="cls-24" d="M86,238.92l0,0,.22-.09h-.06v0l0,0s0,0,0,0h-.07a.38.38,0,0,0-.1,0l-.07,0,0,0s0,0,0,0l0,0h.14l.09,0,0,0h0s0,0,0,0l0,0h-.07a.38.38,0,0,0-.1,0h0l0,0v0S86,238.92,86,238.92Z"/><path class="cls-23" d="M83.5,238h.31a3.17,3.17,0,0,0,0,.53l-.32,0C83.52,238.41,83.5,238.24,83.5,238Z"/><path class="cls-24" d="M83.45,238.1h.31l-.07,0a3.08,3.08,0,0,0,0,.53l.21-.1-.32,0,0,0a4.07,4.07,0,0,1,0-.5s0,0,0,0h-.09s-.11,0-.12.1a4.19,4.19,0,0,0,0,.5s0,0,0,0l.32,0a.22.22,0,0,0,.14,0s.07,0,.07-.08a3.08,3.08,0,0,1,0-.53s-.06,0-.07,0h-.32a.22.22,0,0,0-.17.06C83.35,238.08,83.41,238.1,83.45,238.1Z"/><path class="cls-23" d="M82.11,237.7a5.17,5.17,0,0,1,0,.68h0l-.26,0c0-.22,0-.43,0-.64Z"/><path class="cls-24" d="M82,237.73a5.3,5.3,0,0,1,0,.69l.21-.09-.31,0,0,0c0-.22,0-.43,0-.65l-.18.1h.31a.27.27,0,0,0,.17-.06s0-.06-.06-.06h-.32a.24.24,0,0,0-.12,0s-.06,0-.06.06c0,.22,0,.43,0,.65,0,0,0,0,0,0l.31,0a.22.22,0,0,0,.14,0s.07,0,.07-.07c0-.23,0-.46,0-.68C82.24,237.61,82,237.65,82,237.73Z"/><path class="cls-9" d="M73.4,236.58l.3,0,.06-.26c1.16.14,5.15.62,7.59,1,.74.12,1.68.34,2.76.58a68.79,68.79,0,0,0,9.61,1.64c.65,0,1.3.09,1.93.11a49.11,49.11,0,0,0,10.47-.84l0,.26.22,0s.07.35.14.68h0l0,.08a2.62,2.62,0,0,1,.06.3c-2.58,1.32-13.69,1.21-16.18.53l-.51-.13-.23-.06-.36-.09c-2.67-.64-6.65-1.39-6.65-1.39s0,.36,0,.78h0v0c0,.18,0,.37,0,.55a73.54,73.54,0,0,1-9.54-.9Z"/><path class="cls-24" d="M73.3,236.63l.29,0s.22,0,.23-.07c.08-.29.46-.11.84-.06l1.8.23c1.39.17,2.78.36,4.17.58,3.12.5,6.16,1.37,9.28,1.87a45.52,45.52,0,0,0,10.23.48c1.3-.09,2.59-.22,3.88-.4l1.3-.21c.33-.06.66-.26.7.11,0,0,.09,0,.11,0,.21,0,.24.54.25.62s.2,0,.23,0c-.3.16-.18.31-.45.52a2.2,2.2,0,0,1-.63.19,13.82,13.82,0,0,1-1.43.26,31.18,31.18,0,0,1-3.2.29,61.8,61.8,0,0,1-6.94,0c-3.79-.2-7.47-1.37-11.2-2.07,0,0-.23,0-.23.08,0,.26,0,.53,0,.79,0,0,0,0,0,0,.15,0-.24.39-.33.45-.25.15-1.08,0-1.4-.06-1,0-2.06-.14-3.09-.24-1.28-.13-2.56-.28-3.83-.48-.79-.12-.71-.06-.63-.85l.24-2.14s-.25,0-.26.07L73,239.51l0,0a66.52,66.52,0,0,0,9.56.9s.21,0,.21-.09,0-.37,0-.56l-.05,0s.24-.95-.14-.68a1.8,1.8,0,0,1,.39.08l1.42.28c1.5.3,3,.6,4.47.95a29.08,29.08,0,0,0,5.58.79,61.83,61.83,0,0,0,7.33-.09,14,14,0,0,0,4.88-.9s.06,0,0-.05,0-.26-.08-.39-.2,0-.22,0c.27-.14.12-.5.08-.71,0,0-.09,0-.11,0s-.17-.09-.14-.2-.1,0-.11,0a46.54,46.54,0,0,1-17.33,0c-2.78-.5-5.5-1.26-8.29-1.69-2.21-.35-4.43-.62-6.65-.89-.05,0-.22,0-.23.07s0,.17-.13.15S73.23,236.62,73.3,236.63Z"/><path class="cls-9" d="M89.18,230.11a.24.24,0,0,1-.21.1l-.11,0a.21.21,0,0,1-.07-.3l.78-1.14.4.24Z"/><path class="cls-24" d="M89.06,230.1s0,0-.08,0a.16.16,0,0,1-.09-.12.17.17,0,0,1,0-.14l.15-.22.5-.73.12-.18-.22.06.39.24V229l-.69,1-.1.14c0,.05,0,.08.07.08a.21.21,0,0,0,.17-.07l.69-1,.1-.14a.06.06,0,0,0,0-.07l-.39-.24a.21.21,0,0,0-.22.06l-.42.61-.27.4a.58.58,0,0,0-.14.24.27.27,0,0,0,.21.3.45.45,0,0,0,.46-.16c0-.05,0-.07-.07-.08A.26.26,0,0,0,89.06,230.1Z"/><path class="cls-9" d="M90.32,230.79a.23.23,0,0,1-.21.1.2.2,0,0,1-.11,0,.21.21,0,0,1-.07-.3l.75-1.1a4.33,4.33,0,0,1,.37.27Z"/><path class="cls-24" d="M90.22,230.75c-.06.08-.15,0-.19,0a.17.17,0,0,1,0-.12h0l.15-.2.48-.7.12-.19-.21,0,.37.27v-.11l-.63.93-.09.13c-.1.14.14.18.21.08l.64-.93.09-.14a.07.07,0,0,0,0-.11l-.37-.27a.17.17,0,0,0-.21,0l-.4.59-.26.38a.62.62,0,0,0-.14.25.27.27,0,0,0,.2.32.4.4,0,0,0,.46-.13C90.53,230.7,90.29,230.66,90.22,230.75Z"/><path class="cls-9" d="M92.12,230.52l-.66,1a.26.26,0,0,1-.22.1l-.1,0a.21.21,0,0,1-.07-.3l.68-1Z"/><path class="cls-24" d="M92,230.54l-.63.92,0,0,0,0,0,0s.08,0,0,0-.06,0-.08,0l-.06-.05a.23.23,0,0,1,0-.27l.34-.5.32-.46-.25.07.37.27s.12,0,.16,0,.11,0,.08-.07l-.37-.27s-.1,0-.13,0a.2.2,0,0,0-.12.06l-.66,1a.23.23,0,0,0,0,.31.45.45,0,0,0,.61-.09c.11-.14.2-.29.3-.44l.37-.53s-.1,0-.11,0A.3.3,0,0,0,92,230.54Z"/><path class="cls-9" d="M92.6,232.16a.23.23,0,0,1-.22.1.19.19,0,0,1-.1,0,.22.22,0,0,1-.07-.31l.61-.89.38.26Z"/><path class="cls-24" d="M92.49,232.12c0,.06-.09.06-.15,0a.18.18,0,0,1,0-.09.13.13,0,0,1,0-.06v0l.09-.14.41-.59.11-.17-.21,0,.38.26v-.11l-.52.76-.08.11c-.09.14.15.18.22.08l.52-.76.08-.11s0-.09,0-.12l-.38-.26a.16.16,0,0,0-.2,0l-.36.51-.21.31a.41.41,0,0,0-.1.3c0,.31.5.3.66.09S92.56,232,92.49,232.12Z"/><path class="cls-9" d="M93.74,232.84a.22.22,0,0,1-.22.1.19.19,0,0,1-.1,0,.21.21,0,0,1-.07-.3l.57-.84.39.25Z"/><path class="cls-24" d="M93.63,232.8s-.08.06-.14,0a.14.14,0,0,1,0-.17l.08-.12.38-.56.11-.16-.21,0,.39.24V232l-.5.72-.07.1c-.09.14.15.19.22.09l.49-.73.08-.1s0-.09,0-.12l-.39-.25a.18.18,0,0,0-.21,0l-.33.49-.2.29a.37.37,0,0,0-.09.3c.08.3.5.29.66.08a.09.09,0,0,0,0-.14A.18.18,0,0,0,93.63,232.8Z"/><polygon class="cls-23" points="72.29 233.37 72.29 233.37 72.29 233.37 72.29 233.37"/><path class="cls-24" d="M72.25,233.33h.16l-.23.09h.09a.19.19,0,0,0,.1,0h0l0,0v0s0,0,0,0h-.08l-.08,0,0,0s0,0,0,.05h0s0,0,.06,0l.11,0h0l.07,0s0,0,0,0h-.06Z"/><polygon class="cls-21" points="63.85 233.41 74.4 232.8 74.56 229.19 64.07 228.71 63.85 233.41"/><path class="cls-22" d="M93.8,240.79a2.19,2.19,0,0,0-1.3-2.5c-1.7-.68-5.55-1.83-8.39-3.19-4-1.9-6.26-4.72-8-4.86s-1.46,2.54-5.36,2.59a14.07,14.07,0,0,1-6.94-1.91c-.88.47-2.51,6-1.48,7.38s10.45,2.1,10.45,2.1l7.54,1.47,7.55.34Z"/><path d="M69.55,240a4.29,4.29,0,0,0-.38-2.32c-.49-.91-1.49-1.09-2.4-1.4a8,8,0,0,1-2.65-1.21,2.92,2.92,0,0,1-.8-2.91c0-.14-.37-.08-.4.05A3.15,3.15,0,0,0,63.5,235a5.39,5.39,0,0,0,2.27,1.25c.55.2,1.11.38,1.67.57a2.28,2.28,0,0,1,1.21.78,4,4,0,0,1,.51,2.48c0,.15.39.07.39-.06Z"/><path d="M63.28,231.43c3.38,2.27,7.27,2.31,11.11,1.29a5.48,5.48,0,0,1,4.35.5c1.27.67,2.44,1.5,3.68,2.21.49.28,1,.8,1.65.61s.6-.55.52-1c0-.13-.42,0-.39.11.06.42,0,.74-.49.68a3.53,3.53,0,0,1-.81-.44c-.48-.28-1-.56-1.42-.86a32.06,32.06,0,0,0-2.89-1.69,5.92,5.92,0,0,0-4.49-.21,12.42,12.42,0,0,1-10.51-1.34c-.11-.08-.47.08-.31.19Z"/><path d="M75.27,240.77l-1.21-.24c-.4-.07-.36,0,0-.21a13.39,13.39,0,0,1,1.31-.79c2-.86,4.24-.59,6.32-.64a20.07,20.07,0,0,0,4.76-.46c1.1-.31,1.71-.88,1.08-2.05-.07-.12-.45,0-.4.11.3.55.48,1.18-.15,1.55a4.54,4.54,0,0,1-1.7.43,38.7,38.7,0,0,1-4.56.24c-2.63,0-5.19,0-7.28,1.83-.06.05,0,.1,0,.12L75,241c.11,0,.46-.15.24-.19Z"/><path class="cls-23" d="M74.16,240.64l0,0h-.06Z"/><path class="cls-24" d="M74.05,240.7l0,0,.2-.13h-.07l0,.11,0,0a0,0,0,0,0,0-.06s0,0-.05,0h-.13a.1.1,0,0,0,0,0l0,0s0,0,0,.06,0,0,0,.05h.14s.06,0,.08,0a.08.08,0,0,0,0,0,.06.06,0,0,0,0-.06l0,0a.08.08,0,0,0-.07,0l-.1,0a.19.19,0,0,0-.07.06A0,0,0,0,0,74.05,240.7Z"/><path class="cls-23" d="M71.53,239.8h.31a3.17,3.17,0,0,0,0,.53l-.32,0C71.55,240.18,71.53,240,71.53,239.8Z"/><path class="cls-24" d="M71.48,239.85h.31l-.07,0a4.58,4.58,0,0,0,0,.53l.21-.09-.32,0,0,0a4.07,4.07,0,0,1,0-.5s-.25,0-.25.07a2.75,2.75,0,0,0,0,.5s0,0,0,0l.32,0a.32.32,0,0,0,.14,0s.07,0,.07-.07a3.08,3.08,0,0,1,0-.53s-.06,0-.07,0h-.31l-.1,0s-.06,0-.07,0S71.45,239.85,71.48,239.85Z"/><path class="cls-23" d="M70.14,239.46a5.32,5.32,0,0,1,0,.69h0l-.27,0c0-.21,0-.43,0-.64Z"/><path class="cls-24" d="M70,239.47a5.3,5.3,0,0,1,0,.69l.18-.1-.31,0,.08.07c0-.21,0-.43,0-.64l-.14.1h.31a.15.15,0,0,0,.14-.1c0-.06-.07-.08-.11-.08h-.31s-.15,0-.15.1c0,.22,0,.43,0,.65a.08.08,0,0,0,.08.07l.31,0c.06,0,.18,0,.18-.1s0-.45,0-.68c0-.06-.06-.08-.11-.08S70,239.41,70,239.47Z"/><path class="cls-9" d="M62.1,239.3s-.11-.92.07-.9l.07-.25c1.14.13,5.08.61,7.48,1,.73.12,1.66.34,2.73.58a66.86,66.86,0,0,0,9.47,1.63c.65.05,1.29.09,1.9.11a47.7,47.7,0,0,0,10.34-.85l0,.26.21,0s.08.35.14.68h0v.08a2.62,2.62,0,0,1,.06.3c-2.55,1.32-13.51,1.22-16,.54l-.49-.13-.23-.06-.35-.08c-2.64-.65-6.57-1.39-6.57-1.39s0,.36,0,.78h0v0l0,.55a60.08,60.08,0,0,1-8.92-.87Z"/><path class="cls-24" d="M62.23,239.27c-.11-1,.09-1,1-.9,1.36.16,2.71.34,4.06.53,3.18.45,6.27,1.28,9.43,1.87a45.27,45.27,0,0,0,11,.76c1.48-.08,3-.22,4.43-.44.41-.05.81-.12,1.22-.19s.69-.26.73,0c0,.06.11.06.15.05s.19.52.21.58.13.06.18,0c-.27.11-.07.21-.28.35a2.82,2.82,0,0,1-.6.2,10.84,10.84,0,0,1-1.4.28c-.95.15-1.92.24-2.89.3a62.45,62.45,0,0,1-7.11,0c-3.82-.19-7.51-1.36-11.26-2.08-.06,0-.18,0-.18.11,0,.26,0,.52,0,.78a.1.1,0,0,0,.08.09c-.11,0-.09.21-.42.36a2.72,2.72,0,0,1-.94,0c-.82,0-1.64-.09-2.46-.17-1.23-.1-2.45-.25-3.67-.43l-1.28-.18c-.22-.3,0-1.55,0-2,0-.13-.26-.09-.26,0l0,2a.1.1,0,0,0,.08.09,56.84,56.84,0,0,0,8.92.86c.06,0,.17,0,.18-.1l0-.57a.09.09,0,0,0-.09-.08s.27-.79-.06-.6c.05,0,.3.06.36.07.52.13,1.06.21,1.59.32,1.53.31,3,.62,4.56,1a26.09,26.09,0,0,0,5.13.72,64.14,64.14,0,0,0,7.07-.08,14.08,14.08,0,0,0,5-.91.11.11,0,0,0,.07-.11l-.08-.39c0-.08-.13-.06-.18,0,.22-.09.07-.49,0-.64s-.1-.06-.15-.05-.12-.06-.1-.16-.11-.06-.15-.05a45,45,0,0,1-16.69.13c-2.78-.49-5.51-1.27-8.3-1.72-2.28-.37-4.57-.65-6.86-.92a.15.15,0,0,0-.17.1,2.87,2.87,0,0,0-.14,1.18C62,239.45,62.24,239.39,62.23,239.27Z"/><path class="cls-9" d="M77.21,231.87a.22.22,0,0,1-.21.1.2.2,0,0,1-.11,0,.22.22,0,0,1-.07-.31l.79-1.14.39.24Z"/><path class="cls-24" d="M77.11,231.84s0,0-.08,0a.16.16,0,0,1-.11-.1.17.17,0,0,1,0-.15l.15-.22.5-.72.13-.19-.22.06a4.11,4.11,0,0,1,.39.24l0-.08-.68,1-.1.14s0,.09.08.1a.23.23,0,0,0,.17-.08l.68-1,.1-.14a.06.06,0,0,0,0-.08l-.39-.24a.18.18,0,0,0-.23.06l-.41.6-.27.4a.72.72,0,0,0-.14.24.28.28,0,0,0,.2.32.42.42,0,0,0,.46-.14C77.42,231.77,77.17,231.75,77.11,231.84Z"/><path class="cls-9" d="M78.35,232.55a.23.23,0,0,1-.21.1.2.2,0,0,1-.11,0,.21.21,0,0,1-.07-.3l.75-1.1.37.27Z"/><path class="cls-24" d="M78.23,232.54c0,.08-.15,0-.17-.08a.14.14,0,0,1,0-.14l.14-.21.48-.7.12-.18-.22.06.37.27,0-.08-.64.93-.09.13c0,.06,0,.09.08.1a.17.17,0,0,0,.16-.08l.64-.93.09-.13a.05.05,0,0,0,0-.08l-.37-.27c-.06-.05-.18,0-.22.06l-.4.59-.26.38a.56.56,0,0,0-.13.24.28.28,0,0,0,.22.31.44.44,0,0,0,.45-.17c0-.05,0-.09-.07-.09A.18.18,0,0,0,78.23,232.54Z"/><path class="cls-9" d="M80.15,232.28l-.66,1a.25.25,0,0,1-.21.1.21.21,0,0,1-.11,0,.21.21,0,0,1-.07-.3l.68-1Z"/><path class="cls-24" d="M80,232.28l-.63.91,0,0s0,0,0,0h0s0,0-.06,0a.18.18,0,0,1,0-.25l.35-.5.31-.46-.24.05.37.27a.15.15,0,0,0,.17,0s.12-.07.07-.1L79.9,232a.2.2,0,0,0-.24,0L79,233a.26.26,0,0,0,0,.32.43.43,0,0,0,.62-.05l.3-.44.36-.53c0-.05,0-.07-.07-.08A.19.19,0,0,0,80,232.28Z"/><path class="cls-9" d="M80.63,233.92a.23.23,0,0,1-.22.1.19.19,0,0,1-.1,0,.21.21,0,0,1-.07-.3l.61-.9.38.26Z"/><path class="cls-24" d="M80.51,233.91c0,.06-.11,0-.14,0a.15.15,0,0,1,0-.19l.1-.14.4-.59.12-.16-.23.06.38.26,0-.08-.52.76-.08.11c0,.06,0,.09.07.1a.2.2,0,0,0,.17-.08l.53-.76.07-.11s0-.06,0-.08l-.38-.26c-.06-.05-.18,0-.22.06l-.35.51-.21.31a.34.34,0,0,0-.09.29.3.3,0,0,0,.27.21.41.41,0,0,0,.4-.17c0-.05,0-.09-.07-.09A.18.18,0,0,0,80.51,233.91Z"/><path class="cls-9" d="M81.77,234.61a.26.26,0,0,1-.22.1l-.1,0a.21.21,0,0,1-.07-.3l.57-.84.39.25Z"/><path class="cls-24" d="M81.65,234.6l0,0a.16.16,0,0,1-.1,0,.18.18,0,0,1,0-.2l.09-.12.38-.56.11-.16-.22.06.39.25,0-.08-.5.73-.07.1c0,.05,0,.08.07.09a.18.18,0,0,0,.17-.08l.5-.72.07-.1s0-.06,0-.08l-.39-.24c-.06-.05-.18,0-.22.06l-.34.49-.19.28a.34.34,0,0,0-.08.29.33.33,0,0,0,.29.2.44.44,0,0,0,.38-.18c0-.05,0-.08-.07-.09A.23.23,0,0,0,81.65,234.6Z"/><path class="cls-25" d="M53.65,121.63,53.22,132c-.12,6.88,1.9,11.86,3.8,18.48l4,31.27a221.37,221.37,0,0,1-1.24,22.19c-1.06,8.71,1.68,26.54,1.68,26.54l3,.57a27.3,27.3,0,0,0,8.27.3l5.92-.68,5.58-57,4.09-31.53,5.61-19Z"/><path class="cls-25" d="M98.65,121.33l-3.87,56.4c0,2.44-1,8-2.09,19.69l-2.13,20-.77,10.89-1.71.3a27,27,0,0,1-7.17.45l-5.26-.22,5.83-105.77Z"/><path class="cls-20" d="M80,51.64h0c-3.26.91-15,4-17.47,6.25-3.74,3.43,7.66,16.74,7.64,20,0,1.6-.29,13.46-3,22.35a154.22,154.22,0,0,0-4.24,18L72.56,121A52.28,52.28,0,0,0,87,122.84l12.7-.14c.61-6.3,1.34-11.5,2.35-20l3.17-26.74-.46-12.2A22.8,22.8,0,0,1,102,60.47l-6.52-4.95s1.11,4.83-3.85,4.83c-5.13,0-6.49-2-9.87-5.45A5.84,5.84,0,0,1,80,51.64Z"/><path class="cls-20" d="M59.8,74s-.64,20.58-2.27,26.58S52.3,116,52.06,120c-.6,9.88,22.48,9.58,31,9.33,17.42-.5,16,3,16.66-7.45C100.06,117.41,88.07,74,88.07,74Z"/><path class="cls-14" d="M107.07,75c-2.25,6.06-3.17,12.46-4.81,18.69,0,.15.53.07.57-.09,1.65-6.23,2.56-12.63,4.82-18.69,0-.13-.52-.07-.58.09Z"/><path d="M89.08,137.62c-4.33,3.44-4.1,9.28-4.28,14.27-.09,2.43-.22,4.86-.32,7.29l-1,22.55c-.47,10.52-1.82,21-2.82,31.5L79.06,230c0,.22.57.1.58-.08L83.18,193c1-10.17,1.28-20.35,1.73-30.56l.43-9.86c.23-5.13-.29-11.35,4.2-14.91.25-.2-.33-.19-.46-.08Z"/><path class="cls-11" d="M173.31,158.75c.17.18,6.73,8.05,12.52,8.46C190,167.51,202,157,202,157L198,151.58l-12.89,8.75-10.72-6Z"/><path class="cls-26" d="M207.39,137.38a9.54,9.54,0,0,1-3,3.19,7.6,7.6,0,0,1-4.34.68,15.1,15.1,0,0,1-8.09-2.67,12,12,0,0,1-4.68-7.25,16.47,16.47,0,0,1-.08-6.37l.18-.39c1.85-3.7,3.25-5.4,7.16-5.74,2.41-.23,4.48-.7,8,1,.77.37,1.55,1.32,2.52,1.9a8.92,8.92,0,0,1,3.56,3.64c1,2.54.4,6.06.34,9A14.51,14.51,0,0,1,207.39,137.38Z"/><path class="cls-11" d="M186.08,136.33a19.32,19.32,0,0,1,.46-4c.05-.54.11-1.16.19-1.91,0-.22.05-.43.08-.63a1.77,1.77,0,0,0,.05-.32,12,12,0,0,1,2-5.39,8.05,8.05,0,0,1,7.56-2.82,11,11,0,0,1,7.47,5.17,5.29,5.29,0,0,1,.62,3.71,20.88,20.88,0,0,1-1.07,3.45c1.19.09,2.29.65,1.59,2.77-1,2.91-2.88,3.61-3.83,2.62a3.21,3.21,0,0,0-1.39,1.81,6.47,6.47,0,0,0-.13,3.64l.59.84c-3,3.77-1.39,5-9.77,1.52l.48-3.93-.47-.11a7.6,7.6,0,0,1-1.44-.4C186.47,141.27,186.06,137.71,186.08,136.33Z"/><path class="cls-7" d="M191,142.82a9.91,9.91,0,0,0,5.84-1s-.47.92-2.61,1.39a7.17,7.17,0,0,1-3.3.12Z"/><path class="cls-13" d="M202.27,135.33s0,0,0-.05a2.66,2.66,0,0,1,.83-1,2.83,2.83,0,0,1,.6-.31,2.42,2.42,0,0,1,.66-.13,1.78,1.78,0,0,1,.91.13l.15.09a9.69,9.69,0,0,0,.4-8.5,10,10,0,0,0-2.09-2.54c-2.37-2.27-4.7-2.72-7.63-2.83-3.4-.12-6.82,1.61-8,4.89-.3.8-.25.11-.28,1a5.35,5.35,0,0,1,2.52-2.53c1.75-.75,1.85.71,4.13,1.07,2.64.4,3.71-.92,5.68.47,1.81,1.28,1.53,2,1.53,2a10.49,10.49,0,0,0,.43,1.45,4.16,4.16,0,0,1,.12,1.45,21.62,21.62,0,0,1-.31,3c-.12.61-.36,1.42.18,1.91C202.32,135.09,202,135.39,202.27,135.33Z"/><path class="cls-24" d="M202.45,135.35a2.12,2.12,0,0,1,2.84-1.2.24.24,0,0,0,.33-.09,10.63,10.63,0,0,0,1-6.69A9.11,9.11,0,0,0,203,122.1a11.3,11.3,0,0,0-12-.73,7.73,7.73,0,0,0-2.37,2.29,5,5,0,0,0-1,2.37c0,.19.31.13.37,0a5.17,5.17,0,0,1,1.38-1.8,2.82,2.82,0,0,1,2-.81,3,3,0,0,1,1,.51,5.8,5.8,0,0,0,2.87.83c1,0,1.95-.27,2.93-.25a4,4,0,0,1,3.11,1.91,10,10,0,0,1,.45,1.69,9.46,9.46,0,0,1,0,4.52,5.76,5.76,0,0,0-.22,1.48c0,.46.42.77.4,1.21,0,.07.06.11.13.12l.12,0c.18,0,.38-.24.13-.27.18,0-.27-.65-.24-.59a3,3,0,0,1,.06-2,12.32,12.32,0,0,0,.21-3.73c-.1-.69-.39-1.36-.51-2a2.49,2.49,0,0,0-.87-1.36,4.22,4.22,0,0,0-2.39-1.23,14.08,14.08,0,0,0-2.59.22,5.71,5.71,0,0,1-3.47-.85,2.3,2.3,0,0,0-1.59-.47,4.9,4.9,0,0,0-3.33,2.83H188a5.34,5.34,0,0,1,1.23-2.66,7.44,7.44,0,0,1,3-2.33,11.47,11.47,0,0,1,7.9-.07,8.87,8.87,0,0,1,5.1,13.08l.32-.09a2.58,2.58,0,0,0-3.49,1.38C202,135.52,202.4,135.51,202.45,135.35Z"/><circle class="cls-24" cx="188.06" cy="131.53" r="0.72" transform="translate(-13.78 22.33) rotate(-6.55)"/><path class="cls-13" d="M187.12,130.84a2,2,0,0,1,1.42-.17c1.1.24,1.57,1.6,1.57,1.6a3,3,0,0,0-1.68-1.3,3.75,3.75,0,0,0-1.78.24C186.67,131.11,186.89,131,187.12,130.84Z"/><path class="cls-24" d="M204.67,136.42a1.77,1.77,0,0,0,.2-1.13,1.54,1.54,0,0,0-.05-.17.23.23,0,0,0-.2-.11,1.64,1.64,0,0,0-1,.47,6.91,6.91,0,0,0-.93,1c-.18.24.19.3.36.21l.08,0h0s0,0,0,0h0v0s0,0,0,0,0,.05,0,.07,0,.09,0,.06,0,.05,0,.08a.49.49,0,0,1-.13.28c-.05,0,0,0,0,0l0,0s0,0,0,0,0,0,0,0a.47.47,0,0,1-.24,0,.41.41,0,0,0-.37.17c-.06.12.06.2.16.2.52,0,1.18-.2,1.25-.8a.44.44,0,0,0-.28-.51.89.89,0,0,0-.64.11l.35.21a7,7,0,0,1,.71-.82,2,2,0,0,1,.45-.37l.05,0c-.08.05,0,0,0,0l.07,0c.09,0-.06,0,0,0h-.06l-.11-.09a1.33,1.33,0,0,1-.11,1.1c-.06.13.05.2.16.21s.32,0,.37-.17Z"/><circle class="cls-27" cx="195.49" cy="132.53" r="0.72" transform="translate(-13.85 23.18) rotate(-6.55)"/><path class="cls-13" d="M193.42,132.75s1.26-1.32,2.47-1.07a3.09,3.09,0,0,1,2.31,1.3,6.54,6.54,0,0,0-2.38-1A3.42,3.42,0,0,0,193.42,132.75Z"/><path class="cls-15" d="M190.87,137.63c1,.13,2.72.21,2.72.21s-.16,3.06-3,2.66c-2.39-.33-2.16-3.23-2.16-3.23S189.83,137.5,190.87,137.63Z"/><path class="cls-28" d="M190.86,137.63l2.32.26a2.47,2.47,0,0,1-2.48,1.56,2.08,2.08,0,0,1-1.95-2Z"/><path class="cls-17" d="M190.81,137.81c.5.06,2,.16,2,.16a3,3,0,0,1-2.07.27c-1.48-.18-1.88-.74-1.88-.74Z"/><path class="cls-15" d="M188.43,137.25c0-.05.11-.06.36-.05.41,0,.56-.11.86-.1a4.31,4.31,0,0,1,1,.28,4.64,4.64,0,0,1,1.06,0l1.41.34a4.09,4.09,0,0,0,.59,0c.07,0-.18.67-2.93.33S188.42,137.32,188.43,137.25Z"/><path class="cls-18" d="M193.91,129.9s.08,0,.08-.05a8,8,0,0,1,2.78-.08,2.53,2.53,0,0,1,.81.39,4,4,0,0,1,.77.66c.08.17-.44-.12-.44-.12a1.57,1.57,0,0,0-.3-.12,6.14,6.14,0,0,0-1.88-.36,9.19,9.19,0,0,0-1.87.48C193.86,130.43,193.93,130.17,193.91,129.9Z"/><path class="cls-18" d="M190.76,129.72s-.06,0-.06-.07a6.08,6.08,0,0,0-2.34-.65,2,2,0,0,0-.77.22,3.6,3.6,0,0,0-.8.47c-.1.16.4,0,.4,0a2.8,2.8,0,0,1,.28-.06,5,5,0,0,1,1.68,0,7.68,7.68,0,0,1,1.48.86C190.69,130.24,190.69,130,190.76,129.72Z"/><path class="cls-26" d="M203.17,128s-5.46.67-9.61-.89l-.46-2.52a16.4,16.4,0,0,0-.3,2.59l-.93-.11a13.77,13.77,0,0,1,.3-2.59,12.31,12.31,0,0,0-1.08,2.5,17.74,17.74,0,0,1-3.59-.57c-.31-.31,3.05-4.37,5-4.49S202.28,122.07,203.17,128Z"/><path class="cls-24" d="M208.56,125.9c0-1.29.86-2.79,2.15-2.71a2.86,2.86,0,0,1,.91.25l1.31.5a3.88,3.88,0,0,1,1.13.57,2.8,2.8,0,0,1,.95,2,8.09,8.09,0,0,1-.29,2.29c-.15.69-.4,1.49-1.07,1.73a5.67,5.67,0,0,1-1.24.08,8.29,8.29,0,0,0-1.08.31,3.07,3.07,0,0,1-3.32-1.3"/><path class="cls-18" d="M191.26,136.11a2.22,2.22,0,0,1-1,0,1.34,1.34,0,0,1-.71-.31.54.54,0,0,1-.12-.63c.06-.1.13-.19.19-.28a2.82,2.82,0,0,0,.23-.42s-.17,0-.19,0a5,5,0,0,1-.38.63.51.51,0,0,0-.06.49c.17.45.7.56,1.12.61a2.16,2.16,0,0,0,.91-.05s.09,0,.08-.07-.08,0-.11,0Z"/><path class="cls-18" d="M192.58,135.5c.09,0,.14.11.15.18a.81.81,0,0,1,0,.31.41.41,0,0,1-.11.25.49.49,0,0,1-.37.08c-.2,0-.35-.15-.53-.21a.16.16,0,0,0-.12,0s-.09,0-.06.05a2.31,2.31,0,0,0,.55.21,1.08,1.08,0,0,0,.56-.08.48.48,0,0,0,.26-.28.88.88,0,0,0,0-.36c0-.13-.08-.23-.22-.24a.24.24,0,0,0-.14,0s0,0,0,0Z"/><path class="cls-11" d="M168.46,151.31a1.18,1.18,0,0,0,.23,1.24,1.28,1.28,0,0,0-.48,1.95,1.31,1.31,0,0,0,0,1.92,1.77,1.77,0,0,0,.77,2c1.2.74,5,.58,5,.58l.72-4.68a22.55,22.55,0,0,0-2.28-2.48c-.28-.14-1.88-.73-2.72-1A1,1,0,0,0,168.46,151.31Z"/><path class="cls-7" d="M173.65,157a1,1,0,0,1-.38.05,2.79,2.79,0,0,1-1.07-.17A2.1,2.1,0,0,1,171,155.8a4.53,4.53,0,0,1-.26-2l.21.06a3.66,3.66,0,0,1-1,1,3.47,3.47,0,0,1-.59.34.88.88,0,0,1-.35.1.33.33,0,0,1-.38-.25.67.67,0,0,1,.08-.37l.14-.28.27-.53.49-1,.22-.45a.91.91,0,0,1,.32-.38.86.86,0,0,1,.44-.1H171l.6.07a1.38,1.38,0,0,1,.49.14,2.59,2.59,0,0,1-.48,0l-.6,0a1.48,1.48,0,0,0-.72.09,2.12,2.12,0,0,0-.46.78l-.46,1-.26.53a1.2,1.2,0,0,0-.19.51c0,.1.19.09.38,0a4.68,4.68,0,0,0,.54-.3,3.33,3.33,0,0,0,.92-.95l.23-.34,0,.41a4.46,4.46,0,0,0,.22,1.95,2,2,0,0,0,1.08,1,2.8,2.8,0,0,0,1,.23Z"/><path class="cls-7" d="M168.6,156.31a2.24,2.24,0,0,1,.81.11,8.34,8.34,0,0,1,.85.26,2.38,2.38,0,0,1,.49.22.9.9,0,0,1,.41.47.71.71,0,0,1-.12.63.94.94,0,0,1-.47.34,1.69,1.69,0,0,1-.92,0,5,5,0,0,1-.78-.23,1.85,1.85,0,0,1,.81.07,1.75,1.75,0,0,0,.82,0,.61.61,0,0,0,.44-.69,1.2,1.2,0,0,0-.76-.56c-.3-.12-.58-.22-.82-.3A3.44,3.44,0,0,1,168.6,156.31Z"/><path class="cls-7" d="M169.62,154.85a3.06,3.06,0,0,1,.73.21,1.41,1.41,0,0,1,.68.5.77.77,0,0,1,.11.53.6.6,0,0,1-.37.48,1.11,1.11,0,0,1-.54.08,3.91,3.91,0,0,1-.49,0,7.5,7.5,0,0,1-.81-.11,2.21,2.21,0,0,1-.71-.24,3,3,0,0,1,.74.07l.79.07a2.84,2.84,0,0,0,.92,0,.48.48,0,0,0,.19-.64l0,0a1.21,1.21,0,0,0-.56-.46A2,2,0,0,1,169.62,154.85Z"/><path class="cls-7" d="M169.76,152.82c0,.05-.25.05-.5,0s-.48-.17-.47-.24.25-.06.51,0S169.79,152.76,169.76,152.82Z"/><path class="cls-11" d="M189.46,193.7c-.17.26-6.26,10.88-6.86,12.68s-.08,29.91-.08,29.91l5.56-.44s3.87-13.29,4-17.49a55.13,55.13,0,0,0-.52-8.4l9.6-13Z"/><path class="cls-11" d="M203.82,198.41s3.19,12.6,4.71,14.14,22.92,10.66,22.92,10.32.93-5.55.93-5.55-11.81-9.14-12.91-9.83-4.46-2.31-4.46-2.31l-1.28-8.83Z"/><path class="cls-29" d="M195.77,184.86c0,.26,8.14,23.06,8.14,23.06l14.22-5.9s-2.55-9.27-3.51-12.06c-1.15-3.35-1.6-7.77-2.88-9.06a14.12,14.12,0,0,1-2-2.56Z"/><path class="cls-29" d="M190.81,184.79c.09.21-7.84,17.09-7.84,17.09l14.38,4.6,4.15-7.93-2.3-11.45Z"/><path class="cls-30" d="M218.13,202a.92.92,0,0,1-.28.14l-.82.35-3,1.27-10.13,4.14-.11,0,0-.11c-.06-.2-.14-.43-.21-.63l-3.65-10.79-1.08-3.28c-.12-.37-.21-.67-.28-.89a1.92,1.92,0,0,1-.09-.32s.05.1.13.3l.32.86,1.15,3.26c1,2.77,2.26,6.57,3.71,10.77l.22.63-.15-.07L214,203.62l3.07-1.2.84-.32Z"/><path class="cls-30" d="M212.56,188a3.16,3.16,0,0,1-1.06.47,5.68,5.68,0,0,1-5.29-1.14,3.18,3.18,0,0,1-.76-.87s.31.32.86.75a6.09,6.09,0,0,0,5.15,1.11C212.15,188.11,212.54,187.91,212.56,188Z"/><path class="cls-30" d="M191.71,188.13a2.94,2.94,0,0,1-2.8,1.26,10.89,10.89,0,0,0,1.48-.43A12.75,12.75,0,0,0,191.71,188.13Z"/><path class="cls-31" d="M199.33,143.91a13.48,13.48,0,0,0-4.58,1.47c-1.2.73-3.72,2.58-5.13,2.77-1.66,2.29-2.36,5.41-2.72,8.87l-.65,8.57c0,6.4,1.45,12,1.66,15.41a24,24,0,0,0,1.1,6s7.27,1.15,10.94-.43,6.57-1.21,8.67-2.83a27.61,27.61,0,0,0,3.8-3.61s-3.9-4.92-4.92-8.11-.15-12.89-.44-16.62-3-11.54-7.5-11.5"/><path class="cls-11" d="M235.74,226.2c0-.2.07-.41.1-.62a10.1,10.1,0,0,1,.55-1.93c.07-.18.14-.35.2-.53l.12-.31a7,7,0,0,0,.68-4c-.23-1-1.45-.79-2.18-1a26.07,26.07,0,0,1-3.55-1l-4.15,3.86,3,1.21a43.86,43.86,0,0,1,.65,6.11c.05,1.44.1,1.71.21,3.43a4.29,4.29,0,0,1-.12,1.63c-.18.67-.72,1.16-.33,1.86a1,1,0,0,0,1.32.32,3,3,0,0,0,1.1-1.19c.19-.31.36-.63.54-.93.44-1.25.76-2.54,1.09-3.82.16-.64.32-1.29.5-1.93C235.58,227,235.67,226.59,235.74,226.2Z"/><path class="cls-11" d="M188,234.76c.29.81.67,2.37,1,3.14s1.07,1.92.14,2.45-2,.19-2.9.27c-1.19.1-2.85.29-4,.4a45.73,45.73,0,0,0-5.75.61,5.84,5.84,0,0,1-3.2.25c-.2,0-.32,0-.42-.15a.75.75,0,0,1,.15-1.16c.58-.49,1.43,0,2-.6a2,2,0,0,1,.29-.29,1.92,1.92,0,0,1,.79-.2c1.36-.17,1.18-.75,2.89-1.47.51-.21,3.22-3.58,3.67-3.88"/><path class="cls-7" d="M176.42,239.58a5.11,5.11,0,0,0-1.29.89,1.5,1.5,0,0,0-1-.18,1.13,1.13,0,0,1,1,0l-.13,0a2.42,2.42,0,0,1,1.4-.73Z"/><path class="cls-32" d="M205.63,166a35.53,35.53,0,0,1-19.41,4c.13,3.52,1.33,7.92.77,11.39a66.55,66.55,0,0,1-2.88,10c-2,6-4.59,11.37-5.66,17.66a1.35,1.35,0,0,0,0,.82c.19.39.7.47,1.13.52,3.83.52,7.08,3.61,10.94,3.77,3.1.13,6.07-1.67,9.16-1.41,2.1.18,4.35,1.27,6.19.19,1-.57,1.57-1.64,2.43-2.37,1.73-1.48,4.22-1.42,6.3-2.29a15.44,15.44,0,0,0,4.93-3.91,1.35,1.35,0,0,0,.47-.83,1.46,1.46,0,0,0-.43-.92c-2-2.53-2.47-5.91-3-9.1A110.11,110.11,0,0,0,214,182.59a15.31,15.31,0,0,0-1.87-4.51c-1.08-1.56-2.69-2.72-3.55-4.42-1.38-2.69-.41-5.82-2.39-8.07"/><path class="cls-31" d="M206.38,165.29s-6.55,3.08-11.31,3.67a58.29,58.29,0,0,1-8.82.42l.14,2.78a59.63,59.63,0,0,0,11.24-1.1,40.4,40.4,0,0,0,9.7-3.28Z"/><path class="cls-33" d="M206.24,165.25a47.82,47.82,0,0,1-8.6,3.13,39.64,39.64,0,0,1-11.24.89c-.08,0-.4,0-.39.17l.15,2.78s.07,0,.08,0c7.13.07,14.86-1.11,21.23-4.45,0,0,.12-.05.1-.1l-.95-2.49c-.05-.11-.52,0-.48.13a15.47,15.47,0,0,0,.84,2.21c0,.05.1.42.21.18,0,0-.08,0-.09,0a2.6,2.6,0,0,1-.75.36,40.19,40.19,0,0,1-8.68,2.81,55.38,55.38,0,0,1-9.94,1.08c-.23,0-.91.15-1.1,0a1.4,1.4,0,0,1,0-.4,23.13,23.13,0,0,0-.13-2.35l-.39.17a41.61,41.61,0,0,0,11.3-.87,48.09,48.09,0,0,0,9.13-3.29C206.8,165.19,206.36,165.2,206.24,165.25Z"/><path class="cls-11" d="M203.65,177.77l4.09-12.44-5.7-7,6.2-5.51s7.53,9.52,6.53,13-6.94,14.6-6.94,14.6Z"/><path class="cls-11" d="M199.06,179.22a1.13,1.13,0,0,0,1.23,1.43s-.15,1.52,1.29,1.43c0,0,.27,1.37,1.52,1.06a1.67,1.67,0,0,0,2,.49c1.24-.56,3.18-3.69,3.18-3.69l-3.32-3.1a23.33,23.33,0,0,0-3.18.47C201.44,177.51,199.06,179.22,199.06,179.22Z"/><path class="cls-31" d="M196.93,146.13a6.8,6.8,0,0,0-.65,7.55,32.25,32.25,0,0,0,4.8,5.9l8.53-7.54a37.81,37.81,0,0,0-4.34-5C202.49,144.46,199.35,144.36,196.93,146.13Z"/><path class="cls-33" d="M203,145.31c-2.12-1.15-5.07-1.12-6.57,1a7,7,0,0,0-1,5.35,12,12,0,0,0,2.83,4.92c.85,1,1.74,2,2.68,2.91a.38.38,0,0,0,.45,0l1-.73c.31-.23-.16-.37-.37-.22l-1,.73h.45c-.88-.86-1.71-1.76-2.5-2.69-1.41-1.67-2.85-3.51-3.09-5.75-.17-1.66.28-3.88,1.62-5a4.42,4.42,0,0,1,5.08-.2c.2.1.71-.17.45-.31Z"/><path class="cls-11" d="M189.43,148.42l1.8-2.8,2.14.65A9.9,9.9,0,0,1,189.43,148.42Z"/><path class="cls-11" d="M63.68,60.86c-3.22,1.49-6.18,11.06-4.1,15.54,1.26,12.07,5.82,28.73,11.47,31.36,10.74,5,40.47-10.62,40.47-10.62L110.2,90.9,78.19,95S73,67.56,71.41,66.2"/><path class="cls-11" d="M110.69,97l8.75-.17,4.76-2.21a45.27,45.27,0,0,0,4.7-1.4c.62-.39.42-.75.25-1s-3.89.09-3.89.09,5-1.11,5.58-1.8a1,1,0,0,0-.22-1.59c-.38-.3-8.17,2-8.17,2l3.09-1.58s4.54-.56,5.45-1.32.08-1.87.08-1.87l-5.5,1-3.8.83,3.73-1.44s3.33-.47,4-1.33a1.54,1.54,0,0,0,.11-1.72l-5.77.72-6,2c.58-.6,1.55-1,1.73-2.12s-.45-.74-.45-.74l-5.23,2.09-4.07,5.51Z"/><path class="cls-11" d="M133.69,92.3l-4,.55,2,.72a10.81,10.81,0,0,1,2.72.3c.51.29.25,1.11.25,1.11l-7.11-.09-3.5.44a3.82,3.82,0,0,1-3.52-1.47l-3.31-4.34,2-3.06,1.83-3.39,1.29-1.68,2.61-1.81s1,.48.14,1.65-1.36,1.84-1.36,1.84l-.76,2.1.82.6,6.63-.58,2-.91s1.61-1.8,3.23-1.51a.33.33,0,0,1,.17.55l-3,3.09-2.26.82,2.64-.21s3-1.78,4.3-1.73.73.82.73.82L134.82,89l-3.73,1.09,2.69-.13,3.34-.92s1.06-.24,1.23.51a.64.64,0,0,1-.3.71Z"/><path class="cls-34" d="M140.35,82.56a47,47,0,0,0,7.18-4A43.25,43.25,0,0,0,140.35,82.56Z"/><path class="cls-34" d="M141,85.17a49.16,49.16,0,0,0,10.46.32S146.82,85.09,141,85.17Z"/><path class="cls-34" d="M140.15,88.16A40.64,40.64,0,0,0,148,91.74S144.62,90,140.15,88.16Z"/><path class="cls-34" d="M135.49,79.82a60.59,60.59,0,0,0-.26-8.1A42.63,42.63,0,0,0,135.49,79.82Z"/><path class="cls-34" d="M132.89,80.5a68.66,68.66,0,0,0-4.35-8A47.51,47.51,0,0,0,132.89,80.5Z"/><path class="cls-34" d="M138.26,80.56a49.06,49.06,0,0,0,5.3-9A73.06,73.06,0,0,0,138.26,80.56Z"/><path class="cls-20" d="M80.77,84.83l-5-25.09-6.41-4.82S60,57.23,58.2,63.71c-.93,4.22-1.27,16.17-.09,24.75C62.82,89.13,76.06,85.3,80.77,84.83Z"/><path class="cls-7" d="M102.29,101.88l5.26-2.57a21.28,21.28,0,0,1,4.11-2,16.56,16.56,0,0,1,3-.06l3.64-.07c1.54,0,2.81-.87,4.2-1.52A23,23,0,0,1,126,94.44c.67-.19,3.75-.66,3.39-1.89-.23-.77-1.58-.41-2.15-.36-1.12.1-2.24.23-3.35.38v.35c1.52-.41,3-.86,4.54-1.4a5.79,5.79,0,0,0,1.78-.83c.4-.35,1.14-1.37.42-1.78-.32-.19-.95,0-1.27.06-.84.14-1.68.34-2.51.54-1.41.33-2.82.69-4.23,1.07l.17.31c.82-.38,1.64-.79,2.48-1.13.28-.11,0,0,.4-.11l1.43-.3c1.48-.34,4.53-.88,4.06-3.08,0-.1-.18-.12-.25-.11-3.15.55-6.27,1.13-9.38,1.81l.16.31,2.55-1.16a5.93,5.93,0,0,1,1.92-.66,9.06,9.06,0,0,0,3.27-.94c.63-.4,1.15-1.52.25-2-.42-.22-1.17,0-1.6.1l-3.66.45A24.46,24.46,0,0,0,120,85.36c-.34.12-.26.46.09.34a31.54,31.54,0,0,1,3.79-1.2c.89-.14,1.79-.22,2.69-.33a10.13,10.13,0,0,1,2.55-.32c.33.06.43.37.24.92-.27.74-1.08.86-1.79,1s-1.53.22-2.27.43A28.71,28.71,0,0,0,121.42,88c-.32.14-.11.37.17.31,1.24-.28,2.75-.63,3.84-.84,1.63-.32,3.41-.39,5-.87a.79.79,0,0,1,.3,0c.17,0-.12-.21-.15,0a1.88,1.88,0,0,1-1.14,1.74,17,17,0,0,1-3.38.91,16.93,16.93,0,0,0-3.53,1.39c-.31.15-.12.39.16.31l2.65-.68,2.31-.56a8.49,8.49,0,0,1,2-.4c.42,0,.71,0,.53.64a1.62,1.62,0,0,1-.94.89,16.4,16.4,0,0,1-2.25.83c-1.07.34-2.16.66-3.24,1-.27.07-.34.4,0,.35.74-.1,1.49-.19,2.24-.27.56-.07,1.12-.13,1.69-.16a2.56,2.56,0,0,1,.73,0c.92.21-.88,1.1-1.29,1.24a35.26,35.26,0,0,0-3.67,1.1c-1,.42-1.92.89-2.88,1.33-.38.17-.76.33-1.13.52a2.3,2.3,0,0,1-.32.15c-.17.06.31,0,.08,0a20.15,20.15,0,0,1-2.2,0,38.46,38.46,0,0,0-5.37.11,5,5,0,0,0-1.37.59c-.93.46-1.86.93-2.8,1.38-1.81.9-3.63,1.78-5.45,2.67-.36.18,0,.42.25.28Z"/><path class="cls-7" d="M79.81,94.42a5.71,5.71,0,0,0-2.64,1.36A4.52,4.52,0,0,0,76,98.36c0,.24.55.14.59-.07a4.2,4.2,0,0,1,1.07-2.37,4.72,4.72,0,0,1,2.28-1.18c.1,0,.29-.11.25-.24s-.24-.1-.33-.08Z"/><path class="cls-14" d="M67.38,60.66c5.31,1.22,7.2,6.52,8.22,11.23.5,2.34.92,4.71,1.25,7.08.22,1.56.34,3.13.63,4.68a9.46,9.46,0,0,1,.31,1c-.05.1-.3.16-.39.24a5.92,5.92,0,0,1-.84.52c-.33.21.18.28.36.17l1.27-.79s.13-.09.11-.16c-.65-2.81-.83-5.72-1.31-8.55a63.92,63.92,0,0,0-1.43-6.87c-1.14-4-3.44-7.87-7.82-8.88-.18,0-.68.23-.36.31Z"/><path class="cls-14" d="M59,88.86c.41,0,.82.06,1.23,0a11.63,11.63,0,0,0,1.17-.13c.12,0,.31-.08.33-.22s-.17-.18-.27-.17a10.93,10.93,0,0,1-1.15.13h-.41l-.69,0a.39.39,0,0,0-.38.17c-.07.12,0,.21.17.22Z"/><path class="cls-7" d="M118.07,85.8a4.62,4.62,0,0,0-2.42,1.12c-.08.08-.15.21,0,.3a.38.38,0,0,0,.42,0,4,4,0,0,1,.94-.64,3.58,3.58,0,0,1,1-.32c.13,0,.3-.09.32-.24s-.15-.2-.27-.18Z"/><path class="cls-7" d="M174.79,240.29s2.44-.83,2.41,2.42l1.36-.42s-.43-2.58-1.8-2.69A2.2,2.2,0,0,0,174.79,240.29Z"/><path class="cls-7" d="M231.35,232.91s.17-2.58,3.16-1.3l.14-1.42s-2.55-.59-3.18.63A2.24,2.24,0,0,0,231.35,232.91Z"/></g></g></svg>