<svg xmlns="http://www.w3.org/2000/svg" xmlns:xlink="http://www.w3.org/1999/xlink" viewBox="0 0 292.89 301.99"><defs><style>.cls-1{fill:none;}.cls-2{clip-path:url(#clip-path);}.cls-3{fill:#c3e6f7;}.cls-4{fill:#c79e81;}.cls-5{fill:#0a2f44;}.cls-6{fill:#628e9f;}.cls-7{fill:#486e72;}.cls-8{fill:#27153c;}.cls-9{fill:#3f261c;}.cls-10{fill:#ddad6f;}.cls-11{fill:#825639;}.cls-12{fill:#151210;}.cls-13{fill:#131429;}.cls-14{fill:#040404;}.cls-15{fill:#94664a;}.cls-16{fill:#060505;}.cls-17{fill:#f1eef7;}.cls-18{fill:#13110f;}.cls-19{clip-path:url(#clip-path-2);}.cls-20{fill:#87654d;}.cls-21{fill:#a38166;}</style><clipPath id="clip-path"><path class="cls-1" d="M271.39,128.26a126.68,126.68,0,0,0-84.65-95.72c0-.47,0-.94,0-1.41a38.77,38.77,0,1,0-77.53,0c0,.31,0,.62,0,.94a126.8,126.8,0,0,0-80.8,77.15,38.76,38.76,0,0,0-3.14,77.24A126.53,126.53,0,0,0,262.51,205c.38,0,.75,0,1.13,0a38.77,38.77,0,0,0,7.75-76.75Z"/></clipPath><clipPath id="clip-path-2"><path class="cls-1" d="M639.51,68.23A59.67,59.67,0,1,0,527.33,27.77,126.52,126.52,0,1,0,639.51,68.23Z"/></clipPath></defs><g id="Layer_16" data-name="Layer 16"><g class="cls-2"><circle class="cls-3" cx="147.28" cy="153.27" r="126.49" transform="translate(-65.24 149.03) rotate(-45)"/><path class="cls-4" d="M127.11,64.75a43.2,43.2,0,0,1,1.1,11.37c-.34,9.15-4.09,14.08-4.09,14.08l12.81,46.59,34.55-43.55s-9.52-6.59-9.88-8.37S161,71.09,161,71.09"/><path class="cls-5" d="M96.21,223.57c-.45-9.15-3.84,39.09-1.69,64.5,5.5,64.63,16.23,173.58,16.23,173.58l6.9,1.26A38.56,38.56,0,0,0,131,463l9.8-1.1,6-170.31s.5,11.92.5,14.09c0,.92,2,54.15,1.7,58.66-1,16.76-.84,96.75-.84,96.75l11.46,3a36.56,36.56,0,0,0,11.39,0l12-2.82,6.69-92.6,6.45-106.51-2.37-37.74-20.24,8.23Z"/><path class="cls-6" d="M193.72,214.93,193.67,197l.8-36.8c4.42,7.45,10.17,14,14.24,16.79,1.8-16.68.35-33.4,1.4-50.15l-9.66-22.18c-2.16-9.49-10-13.85-18.91-16-1.69-.4-20-4.49-19.94-3.83,0,0,11.72,17.63-10.51,17.89s-24.68-17.52-24.68-17.52l-6.35,1.67-7,1.91c-8.45,3.27-12.4,3.43-19.71,8.87a50.16,50.16,0,0,0-5.15,6.22,5.13,5.13,0,0,0-.11,2.67c2.68,19.24,5.5,36.33,8.18,55.57,1,7.55-.3,18.4.26,26,.51,6.8.85,12.25-.73,19.08-.72,3.15-7.49,21.84-1.2,30.25,0,0,26.12,12.39,52.68,12.49s44.64-7.14,46.89-9.55C194.19,240.39,199.7,231.81,193.72,214.93Z"/><polygon class="cls-7" points="196.68 160.82 198.15 120.14 197.78 162.65 196.68 160.82"/><path class="cls-6" d="M98.42,95.16c-.85,0-13.26,4.15-16.85,15.35S65.21,160,65.21,160l-13-6.31-9.68,13.17s10.9,33.46,31.1,33.74c0,0,14.68-.11,18.7-10.89s11.46-33.31,11.46-33.31Z"/><path class="cls-6" d="M194.72,95.11a143.52,143.52,0,0,1,8.93,15.18c1.83,3.78,22.62,54,22.62,54l19.36-4,6.61,5.87c2.92,7.46-13,24.08-18.86,28.93a12.89,12.89,0,0,1-1.07.8c-6.94,3.95-21.37,2.81-26.32-3.91-5-7.26-17.4-29.09-17.4-29.09l1.2-36.37Z"/><path class="cls-4" d="M50.77,167.55c3.75-2.92,4.24-8.83,2.13-13.88l-1-.92-9,9.45.9,4.83h0A5.32,5.32,0,0,0,50.77,167.55Z"/><path class="cls-4" d="M49.42,147.13A43.74,43.74,0,0,0,37.89,138c-2.61-1.69-7.75-7.43-8.91-6.41a3.92,3.92,0,0,0-.73,5.16c1.14,2.36,6.92,5.27,6.61,8.22a2.2,2.2,0,0,1-2.42,2h0q-7.29-.58-14.49-1.89c-4.22-1-8.18-.78-8.18.72s.68,2.44,4.17,3.34,9.29,1.48,9.53,2.34-1.1,1.19-3.13.72-11.78-2-12.61-.91a2.24,2.24,0,0,0,.38,3.14,2.2,2.2,0,0,0,.32.21l2.05,1.08a62.71,62.71,0,0,1,6.28.46,68.11,68.11,0,0,1,9,.93c.14.61-4.76.41-9.08-.1a40,40,0,0,1-6.46-.77c-.42.57-1,1.58-.28,2.39,1,1.2,3.51,1.22,3.51,1.22l13,1.58s.62.89.17,1.37-10.44-1.79-10.68-.71-1.2,1.48,1.72,2.68a41.3,41.3,0,0,0,13.33,2.05,135.35,135.35,0,0,1,14.37.89l6.21-8.47A12.65,12.65,0,0,0,49.42,147.13Z"/><path class="cls-8" d="M96.83,178.33a327.94,327.94,0,0,0-.73-47.74q-.54-6.65-1.28-13.28c0-.18-1,0-.95.26a383.9,383.9,0,0,1,2.52,47.7q-.09,6.66-.52,13.32c0,.13.94,0,1-.26Z"/><path class="cls-8" d="M195,170.92c.63-12,.26-24.18,1.61-36.16.42-3.7,1-7.39,1.64-11,.07-.39-.9-.24-1,.11A159.46,159.46,0,0,0,195,141.64c-.34,5.46-.37,10.92-.51,16.38-.12,4.34-.28,8.68-.51,13,0,.41.94.23,1-.11Z"/><path class="cls-8" d="M65.32,159.56c8.76,2.37,13.56,10.77,14.29,19.37,0,.2,1,0,1-.26-.73-8.7-5.62-17.11-14.46-19.51-.24-.06-1.11.32-.81.4Z"/><path class="cls-8" d="M214.55,178.26c-.31-1.47.48-3.13,1.09-4.43a21.82,21.82,0,0,1,2.47-4.09,18.26,18.26,0,0,1,3.73-3.82,14.4,14.4,0,0,1,4.79-2c.53-.14.44-.48-.09-.34a16.86,16.86,0,0,0-5,2,17.11,17.11,0,0,0-4,3.85,23.13,23.13,0,0,0-2.74,4.38c-.66,1.37-1.52,3.15-1.18,4.71.05.24,1,0,.89-.24Z"/><path class="cls-9" d="M34.22,149.3a10.18,10.18,0,0,0,3.15,9.08.94.94,0,0,0,1,.08c.2-.09.67-.48.38-.73a9.58,9.58,0,0,1-3-8.58c.12-.71-1.45-.49-1.55.15Z"/><rect class="cls-10" x="150.79" y="20.82" width="4.8" height="12.8" rx="2.4" transform="translate(-2.12 17.93) rotate(-6.65)"/><rect class="cls-10" x="138.56" y="37.3" width="4.8" height="12.8" rx="2.4" transform="translate(33.69 -57.66) rotate(26.15)"/><path class="cls-11" d="M127.29,65.72s0,.06,0,.09S127.28,65.74,127.29,65.72Z"/><path class="cls-4" d="M150.24,83.65l9.2.49,4.11-.23a4.34,4.34,0,0,0,4-2.69c1.53-3.5,2-5.28,2.19-5.7a56.68,56.68,0,0,0,3.15-8.47c.66-2.52,1.47-4,1.73-7,.2-2.22.15-3.76-1.17-7.3a5,5,0,0,1-.19-2.79c.4-2.08.48-4.5.95-7.28a5.92,5.92,0,0,0,.16-1.51s0-11.54-2.19-15.58-4.42-8.17-7.48-8.83-13,2.56-13,2.56L139.26,18,129,23.57l-4.85,13,1.32,14.78,1.87,14.41"/><path class="cls-12" d="M127.25,29.92c-1.07-6.55,4.7-9.26,7.11-10.5,2-1,7.84-3.17,12.17-2.7,1.86.2,1.14,4.13,2.17,4.79.33.06,4.13.76,5.63.92a15.28,15.28,0,0,0,5.73-.11,6.5,6.5,0,0,1,3.17-.42c1.93.21,2.56-4.55,6.65-.26l.18-.2c-5.23-6.34-11.74-6-19.58-6.81-.83-.09-1.69-.15-2.54-.18-12.45-.39-12.05-.31-19.77,8.22-4.49,5-7.06,9.63-6.88,12.51l0,.65c.18,3-2.54,11.26-1.41,12.86.72,1,3,5.55,5,9.41l5.93-.12c-.17-1.11-1-10.63-1.13-11.77"/><path class="cls-4" d="M127.56,65.92c-4.61,4.84-5.85-3.07-5.85-3.07-3.44-3.93-3.55-8.21-3.5-11.14s3.27-3,3.27-3c2.74.22,4.29.86,6.81,10"/><path class="cls-12" d="M161.4,19.35c-4.44.11-16.23-2.48-22.27-2.62-2.5-.05-10.53,6.47-11.55,7.92-2.33,3.32,3.68,10.48-.16,20.93-1.26,3.45-3.48-2.41-5.17-.12s-2.33,3.23-2.33,3.23c-1.72-9.78-1.67-9.44.1-19.23S132.16,15,137.24,14s21.55-.09,26.07,1.8"/><path class="cls-13" d="M125.71,57.9a23.7,23.7,0,0,0-2.28-3.81,7.55,7.55,0,0,0-1.6-1.64,2.26,2.26,0,0,0-.89-.41c-.34,0-.47.24-.6.51a5.74,5.74,0,0,0-.17,3.94c.06.21.52.09.46-.13a5.92,5.92,0,0,1-.1-3.07,3.15,3.15,0,0,1,.44-1l-.21.1c-.11,0,0,0,0,0h.11a2,2,0,0,1,.56.29,8.55,8.55,0,0,1,2.16,2.4,26.35,26.35,0,0,1,1.71,3c.09.18.53,0,.42-.21Z"/><path class="cls-13" d="M124.69,58.48c-2,0-.71,2.54-.88,3.59,0,.06,0,.12,0,.18s-.05.07,0,.07l.17,0h0s-.12-.12-.13-.15a1.35,1.35,0,0,1-.19-.33,8.8,8.8,0,0,1-.55-1.74,7.58,7.58,0,0,1-.21-2.27c.07-.87.27-2.19,1.16-2.61.29-.14,0-.28-.18-.18a2.79,2.79,0,0,0-1.36,2.21,6.14,6.14,0,0,0-.06,2,12.84,12.84,0,0,0,.55,2.28c.11.32.27.88.61,1a.56.56,0,0,0,.71-.28,1.85,1.85,0,0,0,0-1c-.07-.48-.64-2.51.27-2.5.16,0,.49-.25.18-.25Z"/><path class="cls-12" d="M148.11,46.74a1.78,1.78,0,0,0-1.91.39,1.68,1.68,0,0,0-.5.81,1.76,1.76,0,0,0,.45,1.61,1.64,1.64,0,0,0,1.89.29,1.81,1.81,0,0,0,.86-2.13,1.64,1.64,0,0,0-.79-1"/><path class="cls-12" d="M169.18,47a4.55,4.55,0,0,1-.53,0c-.25,0-.5,0-.75,0a2.85,2.85,0,0,0-.39.11c-.42.2-.84.42-1.26.6h0a1.76,1.76,0,0,0,.45,1.61,1.62,1.62,0,0,0,1.89.29,1.81,1.81,0,0,0,.86-2.13A2.13,2.13,0,0,0,169.18,47Z"/><path class="cls-12" d="M163.94,49.36s2.84-2.84,4.85-2.86c2.94,0,3.75,1,4.67,2.46,0,0-1.91-1.89-4-1.82S163.94,49.36,163.94,49.36Z"/><path class="cls-12" d="M154.53,49s-4.15-2.51-6.16-2.52c-2.94,0-6.4,1.78-7.32,3.21,0,0,4.56-2.64,6.63-2.57S154.53,49,154.53,49Z"/><path class="cls-12" d="M156.43,39.2l0,2.1c0,.53,0,1.75,0,2.28-1.86-.46-3.53-1.15-4.74-1.36-2.39-.4-4.83-1-7.26-.65a8.68,8.68,0,0,0-3.15.94c-.31.17-1.14.9-1.59.7-.19-.08.13-.93.16-1,.65-1.73,2.29-2.43,4.29-2.83a38.85,38.85,0,0,1,12.32-.16"/><path class="cls-12" d="M174.59,39.59l-1.23-.21a26.45,26.45,0,0,0-10.18.43c0,.69.09,1.39.14,2.09,0,.53.08,1.5.12,2,1.51-.56,2.8-1.18,3.78-1.44a17.24,17.24,0,0,1,6-.89l1.18.14C175,40.73,174.88,39.73,174.59,39.59Z"/><path class="cls-14" d="M139.88,46.4l.74,2.18a30,30,0,0,0,2.71,5.92c.83,1.28,10,1.82,11.8.8s2.81-6.15,3.29-7.34l3.67.22c.33,1.54,1.47,6.42,2.17,7.09s4.9.56,5.37.55,1,0,1.55-.08c1.59-.1,3.52-.35,4.11-.93.88-.85,1.85-4.11,2.68-7.19l.14-.48c0-.12.06-.2.07-.23h0l.14-.56c-5.28-2.5-12.21-2.12-16.42.88l0,.06-3.58-.23c-4-2.66-11-4.12-16-2.25h0l-14,3.8L128.32,50Zm24.81,8.37c-.44-.41-1.34-3.83-2-6.49,3.66-2.54,9.91-2.87,14.63-.9v.06c-.44,1.66-1.63,6.06-2.5,6.89-1,1-9.4,1.09-10.16.45Zm-20.27-.63A26.45,26.45,0,0,1,141,46.35c4.45-2,12.6-.77,16.55,1.74-.63,2.15-1.43,5.9-2.73,6.62-1.85,1.06-9.86.24-10.38-.57Z"/><path class="cls-15" d="M159.92,67.33c-3.48,0-9.12-.47-9.12-.47s.62,8.46,8.68,8.51S167.9,67,167.9,67,163.39,67.35,159.92,67.33Z"/><path class="cls-16" d="M160,67.33c-1.65,0-8.32-.33-8.32-.33s2.17,5.82,8.15,5.86a6.91,6.91,0,0,0,7.29-5.71Z"/><path class="cls-17" d="M160,67.58c-1.65,0-6.69-.32-6.69-.32s1.8,1.82,6.77,1.85,6.55-1.71,6.55-1.71Z"/><path class="cls-15" d="M168,66.47c-.17,0,.28.27-.54.2-1.37-.13-2.22-.49-3.21-.58-1.69-.14-2.77.52-3.51.52s-1.81-.68-3.5-.56c-1,.07-3.45.41-4.82.52a12.09,12.09,0,0,1-2-.22c-.25.06.22,1.86,9.47,1.92S168.23,66.53,168,66.47Z"/><path class="cls-12" d="M159.6,64.64l-.18.89a.57.57,0,0,1-.48.45c-1.7.25-7.89,1.37-9.44,1.37l-.19,0-.19,0c-.58-.1-.41-.87.13-1.08a33.35,33.35,0,0,1,4-1.33A36.74,36.74,0,0,1,159,64,.58.58,0,0,1,159.6,64.64Z"/><path class="cls-12" d="M161.84,64.54v1a.57.57,0,0,0,.43.44c1.42.24,6,1.25,7.27,1.24,0,0,.51,0,.54,0l.28,0c.47-.11,0-1.11-.48-1.32a22.26,22.26,0,0,0-3.07-1.2,23.9,23.9,0,0,0-4.54-.77A.52.52,0,0,0,161.84,64.54Z"/><path class="cls-12" d="M166.39,83.9l.91-1.76s-15.74,2.78-18.83,2c-8.17-2.1-14.76-13.61-14.76-13.61a31.06,31.06,0,0,0,6.42,9.72c4.67,4.89,5.77,5.5,10.58,5.34,3.65-.12,10.39-.23,13.42-.28A2.6,2.6,0,0,0,166.39,83.9Z"/><path class="cls-12" d="M118.33,50.84a31.26,31.26,0,0,1-3-13c-.31-8.09-.16-19,9-23.61a19.06,19.06,0,0,1,5.2-1.71s5.92-6.66,23.33-4c12.23,1.88,17.19,6.66,18.63,15.92,0,0-3.54-4.71-4.55-4.22s-1.82,3-5.89,3.48-10.61.12-13.35-1.49-7.69-3.18-10.47-2.7c-6.76,1.18-7.32,6.34-7.78,9.37s-1.71,13.71-5,15.29a5.35,5.35,0,0,0-3.29,4.48l-.53.23a5.34,5.34,0,0,0-2.31,1.92Z"/><path class="cls-12" d="M133.71,70.52c7.9,8.67,12.63,11.06,15.5,11.2s5.15.94,7.16,0c2.46-1.13,3.15-2.46,3.82-2,.3.2,1.39,1.72,1.68,1.93.62.42,2.4.11,3.09-.19a7.11,7.11,0,0,0,3.88-3.56c-.62,1.89-1.11,4.55-2.83,5.55-1.06.62-2.71.46-3.94.54-2.69.18-5.25.35-7.95.44-2.37.08-4.78.32-7-.39-3.81-1.17-8-6-10.53-9.27Z"/><path class="cls-18" d="M159.69,62a6.49,6.49,0,0,0,2.58.43A4.25,4.25,0,0,0,164.5,62a3.73,3.73,0,0,0,1.27-1.29,2.45,2.45,0,0,0-.16-1.66c-.17-.55-.45-1-.63-1.59,0-.13-.41,0-.37.1a9.3,9.3,0,0,1,.87,2.72,1.71,1.71,0,0,1-.75,1.24A2.51,2.51,0,0,1,164,62a4.12,4.12,0,0,1-1.15.18A6.26,6.26,0,0,1,160,61.8c-.11,0-.45.12-.3.18Z"/><path class="cls-18" d="M156.33,59.46a.84.84,0,0,0-.82.43,2,2,0,0,0-.18,1,1.23,1.23,0,0,0,.31.86,2.1,2.1,0,0,0,1.31.49,2.41,2.41,0,0,0,.89-.08c.33-.1.63-.25,1-.32,0,0,.22,0,.22-.1s-.11,0-.14,0a5.64,5.64,0,0,0-.7.21,2,2,0,0,1-.73.19,2.37,2.37,0,0,1-1.22-.3,1.42,1.42,0,0,1-.49-1.56,1.27,1.27,0,0,1,.15-.44.66.66,0,0,1,.12-.17l.07,0s-.06,0,0,0a.52.52,0,0,0,.27-.07c.05,0,.05-.07,0-.07Z"/><path class="cls-4" d="M279.23,170.49c-3.22-.25-9.12-.73-9.55-1.54.69-.42,6.47.19,9.66.71a53,53,0,0,1,5.78.44l1.49,0a1.56,1.56,0,0,0,.33-.14,2.24,2.24,0,0,0,1-3c-.64-1.14-10.49-1.45-12.57-1.37s-3.27-.49-2.93-1.3,6.12-.4,9.71-.57,4.45-1,4.71-2.46-3.6-2.42-7.93-2.2-14.6-.78-14.6-.78-2.7-.28-3.16-1.42c-1.09-2.77,7.56-5.74,9.11-7.86a3.89,3.89,0,0,0,.17-5.13c-1-1.24-7.06,3.49-9.93,4.66a43.8,43.8,0,0,0-13,6.88,12.59,12.59,0,0,0-4.26,11.5l4.79,9.31a134.11,134.11,0,0,1,14.26,1.76,41.62,41.62,0,0,0,13.5.44c3.08-.7,2.2-1.2,2.15-2.33s-10.25-.72-10.61-1.26.41-1.3.41-1.3l13,.8s2.52.45,3.67-.55c.91-.79.12-2-.18-2.51A36.82,36.82,0,0,0,279.23,170.49Z"/><path class="cls-4" d="M242.59,171.18a15,15,0,0,0,6.16,5.16l.59-.41,6.31-11.37-12-3.05-1.45.81A9.48,9.48,0,0,0,242.59,171.18Z"/><path class="cls-9" d="M255.32,166.62a10.74,10.74,0,0,0,4.49-7.39c.1-.81-1.48-.62-1.57.11a9.38,9.38,0,0,1-4,6.53.51.51,0,0,0-.08.83,1,1,0,0,0,1.11-.08Z"/></g><g class="cls-19"><rect class="cls-20" x="130.82" y="232.71" width="597.59" height="49.07" transform="translate(859.24 514.5) rotate(180)"/><rect class="cls-21" x="121.22" y="224.85" width="626.26" height="13.22"/></g></g></svg>