<?xml version="1.0" encoding="UTF-8"?>
<svg xmlns="http://www.w3.org/2000/svg" xmlns:xlink="http://www.w3.org/1999/xlink" viewBox="0 0 292.89 301.99">
  <defs>
    <style>
      .cls-1 {
        fill: none;
      }

      .cls-2 {
        fill: #151312;
      }

      .cls-3 {
        fill: #010101;
      }

      .cls-4 {
        fill: #c69e81;
      }

      .cls-5 {
        fill: #98554a;
      }

      .cls-6 {
        fill: #f1edf6;
      }

      .cls-7 {
        fill: #41241a;
      }

      .cls-8 {
        fill: #27153c;
      }

      .cls-9 {
        fill: url(#linear-gradient);
      }

      .cls-10 {
        fill: #784f81;
      }

      .cls-11 {
        fill: #2a628b;
      }

      .cls-12 {
        fill: #020202;
      }

      .cls-13 {
        fill: #fff;
      }

      .cls-14 {
        fill: #161413;
      }

      .cls-15 {
        fill: #a382ad;
      }

      .cls-16 {
        fill: #321912;
      }

      .cls-17 {
        fill: #161412;
      }

      .cls-18 {
        fill: #814a41;
      }

      .cls-19 {
        clip-path: url(#clippath);
      }
    </style>
    <clipPath id="clippath">
      <path class="cls-1" d="M181.04,24.66c-13.43-20.05-39.88-17.1-39.88-17.1-13.25,1.6-22.06,7.73-27.81,16.17C40.25,41.42-4.67,115.04,13.03,188.14c17.7,73.1,91.31,118.02,164.41,100.32,73.1-17.7,118.02-91.31,100.32-164.41-11.69-48.29-48.75-86.38-96.71-99.39h-.02Z"/>
    </clipPath>
    <linearGradient id="linear-gradient" x1="11.34" y1="158.13" x2="283.72" y2="158.13" gradientTransform="translate(-12.6 303.65) rotate(-90)" gradientUnits="userSpaceOnUse">
      <stop offset="0" stop-color="#eff9fe"/>
      <stop offset=".2" stop-color="#e7f6fc"/>
      <stop offset=".5" stop-color="#d0edf6"/>
      <stop offset=".8" stop-color="#aee0f1"/>
      <stop offset="1" stop-color="#9cdbee"/>
    </linearGradient>
  </defs>
  <g id="Layer_6" data-name="Layer 6">
    <g id="Layer_2-2" data-name="Layer 2">
      <path class="cls-3" d="M159.42,146.42h.21c3.54.21,6,.96,6.86,1.39.64.32,1.29.86,1.82,1.39,0,0,1.5,1.5,1.61,1.93,0,.43-.96-.54-.96-.54-.21-.21-.43-.32-.64-.43-1.5-.75-2.79-1.61-4.4-1.93-1.39-.21-3.43,0-4.82,0,.11-.64.43-1.18.54-1.82h-.21Z"/>
      <path class="cls-3" d="M150.31,143.85s-.11,0-.11-.21c-2.57-1.39-4.61-1.93-5.47-1.93-.64,0-1.18.11-1.82.43,0,0-1.72.64-1.93.96-.32.32.96,0,.96,0h.64c1.39,0,2.68-.11,3.97.32,1.07.43,2.36,1.5,3.32,2.25.21-.64.21-1.29.43-1.82h0Z"/>
      <path class="cls-13" d="M156.63,153.18s3.43-2.14,5.79-1.29,4.29,4.18,4.29,4.18c0,0-1.72.64-5.9-.64s-4.18-2.25-4.18-2.25h0Z"/>
      <circle class="cls-3" cx="161.14" cy="153.39" r="1.61"/>
      <path class="cls-3" d="M156.42,153.18s3.32-2.47,6-1.5c3.75,1.39,3.97,2.89,4.29,4.4,0,0-1.72-2.68-4.61-3.75-2.68-.96-5.68.86-5.68.86h0Z"/>
      <path class="cls-2" d="M166.71,156.07s.86.64,1.72-.32c0,0-1.61,0-3.22-1.5l1.5,1.82Z"/>
      <path class="cls-13" d="M149.34,151.03s-5.36-.86-6.43-2.04-.32-1.93-.32-1.93c0,0,1.61-.96,3.54,0s3.22,2.68,3.22,3.97Z"/>
      <circle class="cls-3" cx="145.06" cy="148.08" r="1.61"/>
      <path class="cls-3" d="M143.34,146.53c.86-.21,2.04-.21,3.54.32,2.36.96,2.57,4.29,2.57,4.29,0,0-.64-2.68-3-3.75-1.18-.43-3.22-.32-4.29-.11,0-.21.54-.64,1.07-.75h.11Z"/>
      <path class="cls-3" d="M141.52,147.82s-.86.11-.96-1.07c0,0,.75.75,2.79.21l-1.93.86h.11Z"/>
    </g>
    <path class="cls-18" d="M98.37,50.82c-.07.12-.13.2-.23.32-.21.26-.44.5-.7.71-.83.68-1.87,1.05-2.94,1.02-.92-.02-1.81-.29-2.64-.67-.12-.05-.33.11-.17.19,1.37.62,2.93.92,4.38.44.87-.29,1.65-.83,2.23-1.53.12-.14.24-.29.33-.46.08-.14-.21-.13-.28-.03h0Z"/>
    <path class="cls-18" d="M108.53,52.84c0,.47.17.89.39,1.29s.44.81.75,1.16c.52.59,1.27.9,2.04,1.02.45.07.91.09,1.36.07.06,0,.15-.05.16-.12s-.08-.1-.13-.1c-.74.04-1.5-.03-2.19-.32-.33-.14-.64-.34-.89-.6-.29-.3-.5-.68-.71-1.04-.24-.43-.49-.89-.48-1.39,0-.15-.29-.11-.29.02h0Z"/>
    <path class="cls-18" d="M90.47,68.38c-.06.54-.42.99-.68,1.46s-.49.97-.66,1.49c-.34,1.01-.46,2.11-.17,3.15.03.11.32.03.29-.08-.28-1.04-.15-2.14.19-3.15.18-.51.41-1.01.68-1.48s.58-.89.64-1.41c.01-.13-.28-.08-.29.03h0Z"/>
    <path class="cls-18" d="M108.14,71.41c.2.98-.27,1.94-.67,2.8s-.83,1.74-1.41,2.51c-.11.15.16.19.24.08.6-.8,1.04-1.71,1.47-2.61s.87-1.86.67-2.87c-.03-.13-.32-.06-.29.08h0Z"/>
    <path class="cls-18" d="M199.26,57.63c4.29-1.4,8.85-1.86,13.33-1.34.28.03.59-.36.2-.41-4.58-.53-9.25-.06-13.64,1.37-.35.11-.25.5.1.38h0Z"/>
    <path class="cls-18" d="M198.81,73.9c1.43.3,3.06-.29,3.99-1.42.25-.31.45-.65.58-1.02.04-.1-.19-.07-.23-.06-.09.01-.3.06-.34.16-.21.59-.58,1.1-1.07,1.49-.24.19-.48.33-.75.45,0,0-.06.03-.03.01s-.03.01-.03.01c-.03.01-.07.03-.1.04s-.07.02-.11.04c-.05.02.04-.01,0,0-.02,0-.04.01-.07.02-.04.01-.07.02-.11.03-.01,0-.12.03-.06.01-.08.02-.16.03-.25.04.04,0,0,0-.01,0-.03,0-.06,0-.08,0-.04,0-.08,0-.12,0-.09,0-.14,0-.23,0-.17,0-.34-.03-.5-.06-.13-.03-.29.01-.41.07-.05.02-.2.13-.07.16h0Z"/>
    <path class="cls-18" d="M212.2,70.72c.91,1.61,2.85,2.07,4.57,2.08.59,0,1.18-.04,1.78-.08.12,0,.31-.04.39-.15s-.06-.13-.15-.13c-1.21.09-2.46.18-3.64-.16-.96-.28-1.86-.84-2.36-1.72-.09-.16-.64.04-.58.16h0Z"/>
    <path class="cls-18" d="M202.36,82.86c-.29,3.25-.54,6.82,1.43,9.63.15.22.7,0,.53-.26-1.92-2.75-1.65-6.25-1.37-9.42.03-.3-.56-.23-.59.04h0Z"/>
    <path class="cls-18" d="M217.28,81.1c.61-.12,1.22.34,1.67.7.48.39.92.81,1.32,1.27.8.9,1.47,1.92,1.96,3.02.28.63.51,1.28.67,1.95.07.27.65.12.58-.16-.64-2.52-2.11-4.83-4.14-6.45-.63-.5-1.36-.89-2.18-.73-.12.02-.27.15-.24.28.04.15.23.15.34.13h0Z"/>
  </g>
  <g id="Layer_7" data-name="Layer 7">
    <path class="cls-14" d="M204.31,76.94c-.13.61-.29,1.2-.34,1.82-.03.35-.05.73.05,1.07.11.38.42.7.73.94.85.65,2.1.72,3.13.68,1.21-.05,2.39-.36,3.48-.88.18-.09.02-.22-.12-.15-1.51.72-3.26,1.04-4.92.73-.38-.07-.76-.16-1.09-.37-.35-.21-.71-.52-.88-.91-.13-.3-.12-.65-.1-.96.04-.68.21-1.33.36-1.99.03-.13-.27-.09-.29.03h0Z"/>
    <path class="cls-14" d="M213.77,78.04s.01,0,.02,0c0,0-.02,0,0,0,.01,0,.02,0,.03,0,.01,0,.02,0,.04.01,0,0,.02,0,0,0-.01,0,0,0,.01,0,.02.01.04.02.05.03,0,0,.03.02.02.01,0,0,.02.02.02.02.07.07.1.14.13.23.07.21.06.44.04.66-.01.11-.03.23-.06.34-.01.05-.03.1-.04.14-.01.03-.02.06-.04.11-.04.09-.08.16-.15.23-.1.11-.21.17-.35.23,0,0-.02,0-.01,0s-.02,0-.03,0c-.02,0-.04.01-.06.02-.04.01-.1.02-.12.03-.07.01-.18.02-.26.03-.18.01-.37,0-.56-.02-.07,0-.16.02-.19.09s.03.1.08.11c.37.04.75.05,1.11-.06.31-.09.62-.27.78-.57.1-.19.15-.42.18-.63.04-.24.05-.51-.02-.75-.03-.12-.08-.24-.17-.32-.1-.1-.22-.16-.36-.17-.07,0-.16.02-.19.09-.03.06.03.1.08.11h0Z"/>
    <path class="cls-13" d="M223.79,66.43s-3,2.83-6.12,3.42c-3.13.59-5.86-.03-5.86-.03,0,0,3.75-2.99,5.72-3.39,1.97-.39,5.08-.76,6.27,0Z"/>
    <path class="cls-13" d="M194.23,70.85s1.89,1.85,4.52,1.45,4.58-1.75,4.58-1.75c0,0-2.49-1.79-4.15-1.55s-4.23.84-4.95,1.86Z"/>
    <path class="cls-3" d="M211.81,69.82s2.36-3.67,5.87-4.44c2.67-.59,4.85.23,6.56,1.06,0,0-4.31-.25-6.19.19-1.79.43-6.25,3.19-6.25,3.19Z"/>
    <path class="cls-3" d="M223.99,66.58s1.18.18,1.54-1.35c0,0-1.88,1.25-4.28.95l2.74.4Z"/>
    <path class="cls-3" d="M203.35,70.46s-1.7-1.79-3.34-1.98c-3.92-.46-5.16.93-5.85,2.22,0,0,3.12-1.46,6.02-1.28,1.63.1,3.18,1.04,3.18,1.04Z"/>
    <path class="cls-3" d="M194.43,70.79s-.97.6-1.85-.57c0,0,.95.81,2.96-.37l-1.11.94Z"/>
    <path class="cls-3" d="M197.25,69.32c1.02-.08,1.14-.2,1.81-.09.37.47.44.71.39,1.14-.02.15-.08.58-.39.98-.4.52-1.12.72-1.69.65-.76-.1-1.34-.77-1.46-1.5-.07-.4.08-.56.25-.9.27-.12.82-.24,1.1-.27Z"/>
    <path class="cls-3" d="M216.1,66.94c1.02-.08,1.03-.7,1.69-.59.37.47.56,1.21.51,1.64-.02.15-.08.58-.39.98-.4.52-1.12.72-1.69.65-.76-.1-1.34-.77-1.46-1.5-.07-.4.08-.56.25-.9.27-.12.82-.24,1.1-.27Z"/>
    <path class="cls-14" d="M106.86,58.75c.12.56.26,1.1.33,1.67.04.35.07.71,0,1.06-.08.38-.36.71-.67.94-.78.59-1.95.66-2.89.62-1.16-.05-2.3-.34-3.34-.84-.06-.03-.15-.02-.21.02-.04.03-.09.1-.02.14,1.59.76,3.43,1.09,5.17.77.44-.08.82-.18,1.22-.42.37-.22.71-.54.91-.92.16-.3.17-.65.15-.98-.03-.72-.21-1.42-.36-2.12-.03-.12-.32-.05-.29.08h0Z"/>
    <path class="cls-14" d="M97.66,59.63c-.26.03-.46.19-.56.43s-.09.5-.07.75c.02.22.07.45.16.66.12.27.35.46.63.56.39.15.82.14,1.23.1.06,0,.15-.04.16-.11s-.08-.09-.13-.08c-.32.03-.64.05-.95-.04-.14-.04-.28-.1-.4-.19-.06-.05-.11-.1-.16-.16-.02-.02-.03-.04-.05-.07,0,0,0-.02-.01-.02,0,0-.01-.03,0,0-.09-.18-.14-.38-.17-.57-.04-.22-.05-.45,0-.67,0-.03.01-.06.02-.08,0-.03,0-.03.02-.07.01-.03.02-.05.04-.07,0-.01.01-.02.02-.03,0,0,0-.01.01-.02,0,0,0,.01,0,0,.02-.02.03-.04.05-.06.01-.01-.02.01,0,0,0,0,0,0,.01-.01.01,0,.02-.01.03-.02-.02.02,0,0,0,0,.02,0,.04-.01,0,0,.01,0,.03,0,.04-.01,0,0,.01,0,.01,0-.04.01,0,0,0,0,.06,0,.15-.04.16-.11s-.08-.09-.13-.08h0Z"/>
    <path class="cls-14" d="M147.36,156.06c-.32.46-.66.91-.92,1.41-.13.27-.27.57-.28.87,0,.4.18.8.41,1.11.22.3.51.51.81.71.45.29.93.51,1.44.68.93.32,1.91.44,2.89.39.15,0,.24-.19.04-.18-1.39.07-2.83-.24-4.02-.97-.11-.07-.22-.14-.33-.22-.04-.03,0,0-.03-.02-.11-.08-.22-.16-.32-.26-.28-.29-.5-.67-.57-1.07-.05-.3.04-.59.17-.87.26-.56.63-1.05.99-1.56.04-.06-.04-.09-.08-.1-.07,0-.15.03-.19.08h0Z"/>
    <path class="cls-14" d="M154.45,160.03c.05.03.11.09.14.16.03.07.04.15.04.22-.01.18-.08.37-.17.52s-.19.31-.31.44c.02-.02-.01.01-.02.02-.01.01-.02.02-.04.03-.01,0-.02.02-.03.03,0,0,.03-.02,0,0-.02.01-.04.02-.05.03-.02.01-.04.02-.07.03,0,0-.02,0,0,0,.02,0-.01,0-.02,0-.02,0-.03,0-.05.01-.03,0-.01,0,0,0,0,0-.01,0-.02,0-.02,0-.03,0-.05,0-.02,0,0,0-.02,0-.02,0-.04,0-.06,0-.31,0-.63-.15-.9-.3-.06-.03-.15,0-.2.03-.04.02-.09.07-.03.11.29.16.6.29.93.32.29.02.61-.05.83-.24.14-.12.26-.28.35-.44.11-.18.2-.38.23-.59.01-.1.01-.21-.02-.3-.04-.1-.11-.18-.21-.23-.06-.03-.15,0-.2.03-.04.03-.08.07-.03.11h0Z"/>
    <g id="Layer_8" data-name="Layer 8">
      <g class="cls-19">
        <g>
          <circle class="cls-9" cx="145.53" cy="156.13" r="136.19"/>
          <path class="cls-15" d="M198.56,214.27s-1.54,13.27.15,18.48,14.32,32.81,15.49,46.25c1.16,13.44-122.59,5.81-122.59,5.81,0,0,1.76-20.17,5.39-29.03,3.41-8.69,6.05-17.66,7.89-26.82,1.71-8.01,93.67-14.7,93.67-14.7Z"/>
          <path class="cls-15" d="M190.18,124.86l-20.93-4.79-40.58,1.08-36.9,9.5c-.59,2.88-.23,6.2-.3,9.11-.17,6.47-.28,13.01-.45,19.52s-2,12.01-2.16,18.68c-.13,6.19.63,16.75,3.44,22.53.34.71.72,1.4,1.14,2.07,2.03,3.23,7.32,5.22,7.54,8.98.45,7.04-.18,29.32-9.75,53.81-1.42,3.64-3.45,15.18-4.53,18.94-12.22,42.55,38.74,27.12,55.18,27.12,18.92,0,88.56,4.89,75.45-33.89-.06-.2-11.36-37.58-11.41-37.72-1.9-5.39-1.86-15.78-1.86-30.52-.03-2.11.52-4.19,1.58-6,3.23-5.31,3.54-13.91,3.92-19.4.34-5,1.97-15.63-1.08-24.71-5.71-17.29-18.3-34.28-18.3-34.28Z"/>
          <path class="cls-15" d="M68.4,245.6c-14.5,1.41-22.5-3.23-26.42-7.32-2.86-3.02-3.76-10.42-1.99-16.59,4.26-14.78,18.78-46.35,23.8-56.5s8.62-30.34,28.51-36.38c13.77-4.18,23.81-7.04,23.81-7.04,0,0,1.47,38.52-13.52,58.5l-3.48-.87-18.95,33.35,42.84,4.07-.2,23.8-54.4,4.97Z"/>
          <path class="cls-15" d="M188.64,124.86l14.24,4.52s8.55-1.08,14.53,5.52c5.98,6.6,13.06,18.27,19.04,25.07,4.46,5.08,23.18,21.33,25.77,27.94,5.51,14.09.45,26.37-9.15,27.31,0,0-50.44-50.28-51.01-50.07s-5.49,4.9-5.49,4.9c0,0-5.56-13.72-8.09-21.05s.16-24.13.16-24.13Z"/>
          <path class="cls-15" d="M182.13,159.96s26.17,12,37.36,12.76c11.19.77,24.95,3,30.57,7.88,5.62,4.88,5.6,34.18,5.6,34.18,0,0-5.51,3.03-17.97-1.08-12.46-4.11-64.95-29.28-64.95-29.28l9.39-24.46Z"/>
          <path class="cls-4" d="M133.79,220.49s9.1-8.25,10.69-10.43,5.21-7.92,6.61-8.06,2.66,2.06,2.33,4.55-5.12,7.48-4.26,8.62c.86,1.14,20.26,1.34,23.71,1.56s12.79,1.39,11.65,5.73c0,0,4.31,1.23,4.01,3.13-.09.9-.38,1.76-.84,2.53,0,0-.28,3.51-3.35,3.72-1.69.13-3.39.08-5.07-.16,0,0,1.82,1.8-.84,3.43s-16.06,2.35-16.06,2.35c0,0-7.14,3.47-12.23,3.1s-14.43-3.44-14.43-3.44l-1.92-16.63Z"/>
          <path class="cls-7" d="M185.2,222.67c-.54-.2-1.35-.45-2.34-.74-2.61-.74-5.26-1.33-7.93-1.75-2.68-.41-5.38-.66-8.08-.75h-2.08v.23l2.07.14c.78.05,3.55.19,8.03.89,3.11.49,5.91,1.08,7.91,1.58,1.06.31,2.14.57,3.23.77-.25-.16-.52-.28-.81-.37Z"/>
          <path class="cls-7" d="M174.64,225.63c-4-.53-7.62-.98-10.28-1.28v.19c2.24.41,5.52.96,10.22,1.58,8.15,1.08,13.12,2.16,13.14,1.97s-4.93-1.39-13.07-2.47Z"/>
          <path class="cls-7" d="M162.86,229.78c.88.19,1.77.29,2.66.32,1.65.15,3.92.37,6.47.67,1.17.14,3.4.42,6.47.85.88.18,1.77.28,2.66.3-.85-.3-1.72-.52-2.61-.65-1.63-.32-3.89-.7-6.4-.99s-4.81-.46-6.47-.53c-.93-.09-1.86-.08-2.78.02Z"/>
          <path class="cls-8" d="M79.85,212.18c-4.68-.82-9.48.45-13.14,3.49-.39.32.2.64.51.38,3.43-2.86,7.95-4.07,12.35-3.3.39.08.74-.49.25-.57h.03Z"/>
          <path class="cls-8" d="M98.25,243.09c11.67-.64,23.26-2.64,34.77-4.59.37-.05.61-.52.1-.43-11.51,1.95-23.1,3.97-34.77,4.59-.38,0-.61.46-.1.43Z"/>
          <path class="cls-8" d="M101.31,214.89c9.98,2.16,20,3.97,30.04,5.74.25,0,.88-.34.46-.42-10.05-1.78-20.07-3.63-30.05-5.74-.25,0-.88.33-.45.42Z"/>
          <polygon class="cls-4" points="134.56 220.42 131.58 220.42 133.08 238.28 136.7 237.02 134.56 220.42"/>
          <path class="cls-8" d="M90.56,194.96c.01-2.21.16-4.42.44-6.62.34-4.37.9-8.73,1.68-13.04.71-3.72,1.24-7.44-.19-11.07-.48-1.37-1.28-2.61-2.34-3.61-.22-.17-.92.12-.69.3,1.09,1.03,1.9,2.32,2.37,3.75,1.49,4,.57,7.95-.13,12s-1.19,8.41-1.53,12.63c-.24,1.95-.36,3.9-.37,5.86,0,.26.77.11.75-.2h0Z"/>
          <path class="cls-8" d="M206.75,169.1c-.99-5.39-1.75-10.96-.12-16.29.05-.16-.68-.08-.73.13-1.64,5.39-.89,10.97.11,16.36,0,.17.79,0,.74-.2h0Z"/>
          <path class="cls-8" d="M174.8,178.16l-2.43,6.32c0,.05,0,.1.06.12l30,14.01,4.26,1.99c.2.1.89-.2.6-.33l-33.54-15.71c-.14-.06-.59-.18-.67-.31.08.14.34-.71.44-.98l1.97-5.21c.08-.2-.66-.12-.74.11h.04Z"/>
          <path class="cls-11" d="M64.82,105.22s15.49.65,23.28-7.01l-3.01-1.08,8.17-1.78-1.31,7.39-1.71-2.57s-7.04,8.2-25.41,5.03Z"/>
          <path class="cls-11" d="M91.61,86.84s-15.5-.65-23.28,7.01l3,1.08-8.16,1.76,1.31-7.4,1.71,2.58s7.04-8.18,25.41-5.01Z"/>
          <path class="cls-11" d="M198.5,89.02s15.5-.65,23.28,7.01l-3.01,1.08,8.17,1.78-1.31-7.39-1.71,2.57s-7.04-8.2-25.41-5.03Z"/>
          <path class="cls-11" d="M222.45,107.08s-15.5.65-23.28-7.01l3.01-1.08-8.17-1.78,1.31,7.39,1.74-2.54s7.02,8.18,25.39,5.01Z"/>
          <path class="cls-10" d="M180.19,161.5c.66.3,5.39,1.69,5.96,2.16,13.81-4.44,30.4-15,31.9-28.02.63-5.39-9.6-15.89-19.55-19.35-5.65-1.97-14.92-13.44-14.92-13.44,0,0,3.03-16.17,4.82-29.89,1.35-11.47.87-23.09-1.43-34.41-8.48-35.13-45.83-30.98-45.83-30.98-56.21,6.77-32.72,95.22-32.72,95.22l-6.75,11.32c-19.62,10.78-26.16,19-26.8,29.18,0,0,20.35,32.2,70.81,33.34,0,0,30.37,3.54,34.81-15.68"/>
          <path class="cls-4" d="M178.73,54.92c-.78-1.58-1.67-3.1-2.67-4.55-1.34-1.93-2.61-3.92-3.98-5.83-2.06-3-4.66-5.59-7.66-7.65-2.7-1.78-5.7-3.06-8.86-3.78-9.68-1.92-19.71.32-27.65,6.19-2.73,2.21-5.04,4.89-6.82,7.92-2.72,4.57-4.8,9.48-6.2,14.61.15,1,.32,2,.5,3.02h0v.08c.3,1.7.64,3.44.97,5.24.44,2.44.88,4.99,1.24,7.76,1.55,12.44,4.91,18.12,12.63,23.64,8.03,5.74,10.43,7.99,17.36,8.27,6.94-.28,9.34-2.52,17.37-8.27,7.66-5.49,11.03-11.2,12.59-23.61.59-4.71,1.46-8.82,2.16-12.71h0c.38-2.16.71-4.2.94-6.28-.7-1.37-1.31-2.73-1.92-4.03Z"/>
          <path class="cls-12" d="M149.35,82.14c-.94.62-2.18.55-3.04-.17-.19-.16-.84,0-.57.24,1.21.92,2.87.98,4.14.14.11-.08.1-.19,0-.25-.15-.08-.33-.08-.49,0"/>
          <path class="cls-12" d="M145.32,81.87c-.54-.36-1.16-.58-1.81-.64-.11,0-.21.03-.28.12-.06.06-.06.15,0,.21,0,0,0,0,0,0,.28.22.64.34,1,.32.13,0,.25-.06.3-.17.06-.12,0-.19-.13-.19-.29.01-.57-.08-.8-.26l-.28.33c.58.05,1.14.25,1.63.58.11.05.24.03.33-.05.06,0,.14-.19,0-.26"/>
          <path class="cls-12" d="M142.78,82.02c-.85-.03-1.62-.5-2.03-1.25-.5-1.19-.12-2.56.92-3.33.1-.09,0-.19-.06-.22-.14-.03-.29.01-.4.11-.86.66-1.34,1.7-1.27,2.78.13.97.82,1.78,1.76,2.06.28.09.56.15.85.16.11,0,.32,0,.38-.17s0-.17-.16-.18"/>
          <path class="cls-12" d="M150.21,81.87c.55-.36,1.19-.58,1.84-.64.11,0,.21.04.28.12.06.05.07.14.02.2,0,0-.01.01-.02.02-.28.22-.64.34-1,.32-.13,0-.25-.06-.31-.17-.04-.06-.02-.14.05-.18.03-.01.05-.02.08-.02.29.01.58-.08.82-.26.09.11.18.22.27.33-.59.05-1.15.25-1.64.58-.11.05-.24.03-.33-.05-.06,0-.14-.19,0-.26"/>
          <path class="cls-12" d="M152.78,82.02c.85-.03,1.63-.5,2.04-1.25.49-1.19.11-2.56-.92-3.33-.11-.09,0-.19,0-.22.15-.03.3,0,.41.11.86.67,1.33,1.73,1.24,2.82-.12.98-.81,1.79-1.76,2.06-.27.09-.55.15-.84.16-.12,0-.32,0-.38-.17s0-.17.15-.18"/>
          <path class="cls-17" d="M125.66,58.69c-.94,0-1.88.06-2.81.17.32-.26.65-.5,1-.71,1.27-.71,2.65-1.21,4.08-1.48,1.75-.34,6.55.17,12.93.8v2.89c-2.21-.45-4.11-.74-5.54-.94-.03-.03-6.4-.75-9.67-.73Z"/>
          <path class="cls-17" d="M171.26,58.69c.94,0,1.87.05,2.8.17-.32-.26-.65-.49-.99-.71-1.28-.71-2.66-1.21-4.1-1.48-1.74-.34-6.55.17-12.93.8v2.89c2.16-.45,4.11-.74,5.53-.94.04-.03,6.38-.75,9.69-.73Z"/>
          <path class="cls-5" d="M147.81,88.39c-4.58,0-12-.57-12-.57,0,0,1.38,12.52,12,12.52s12.01-12.49,12.01-12.49c0,0-7.42.54-12.01.54Z"/>
          <path class="cls-16" d="M147.86,88.39c-2.16,0-10.96-.4-10.96-.4,0,0,2.9,7.96,10.78,7.96,8.55,0,11.05-7.89,11.05-7.89l-10.86.32Z"/>
          <path class="cls-6" d="M147.95,88.74c-2.16,0-8.81-.39-8.81-.39,0,0,2.39,2.54,8.92,2.54s8.62-2.47,8.62-2.47l-8.74.31Z"/>
          <path class="cls-5" d="M160.3,87.1c-.85.17-1.71.27-2.58.29-1.81-.16-3.99-.67-5.29-.78-2.23-.18-3.65.75-4.62.75s-2.38-.94-4.61-.75c-1.3.11-3.48.61-5.29.78-.87-.02-1.73-.12-2.58-.29-.32.09.3,2.61,12.49,2.61s12.8-2.52,12.48-2.61Z"/>
          <path class="cls-13" d="M115.26,64.54s4.42-27.79,30.58-29.4c18.32-1.08,31.54,15.46,34.08,28.52,0,0,.64-1.08.69-4.74.05-3.66-7.94-33.67-35.11-32.57-27.17,1.1-31.03,31.86-31.03,31.86l.8,6.34Z"/>
          <path class="cls-8" d="M108.11,103.51c1.08,4.31,3.66,7.86,6.47,11.21,2.89,3.78,6.15,7.27,9.72,10.41,6.96,5.66,16.5,8.46,25.39,8.62,4.99.09,9.95-.8,14.59-2.64.5-.19,0-.38-.28-.25-8.62,3.46-18.32,3.14-27.15.24-4.3-1.34-8.32-3.45-11.86-6.23-3.26-2.84-6.24-5.98-8.9-9.39-3.06-3.64-6.07-7.46-7.24-12.17,0-.22-.8,0-.74.2h0Z"/>
          <path class="cls-8" d="M144.24,123.76c15.8,2.88,31.7-8.87,39.59-21.72.19-.33-.56-.3-.71,0-4.05,6.52-9.54,12.01-16.06,16.05-6.63,4.12-14.54,6.69-22.38,5.27-.28,0-.88.38-.44.45v-.05Z"/>
          <path class="cls-8" d="M181.78,57.46c.91-14.4-4.71-28.89-16.44-37.63-.25-.18-.92.17-.58.42,11.61,8.62,17.16,23.02,16.26,37.27,0,.37.73.25.75-.06Z"/>
          <path class="cls-8" d="M114.28,58.85c-2.37-13.88,1.65-29.17,12.72-38.4.39-.32-.2-.61-.5-.37-11.24,9.39-15.41,24.79-12.93,38.97.06.36.82.17.75-.2h-.04Z"/>
          <path class="cls-17" d="M172.4,63.57s-4.84,3.83-7.16,4.05c-3.38.32-5.76.08-8.44-1.69,2.58.65,5.25.85,7.89.59,2.27-.26,7.71-2.95,7.71-2.95Z"/>
          <path class="cls-17" d="M124.49,63.5s4.96,3.93,7.28,4.16c3.38.32,6.36-1.08,8.69-2.24,0,0-5.88,1.34-8.26,1.08s-7.71-3-7.71-3Z"/>
          <path class="cls-4" d="M181.08,162.16s-7.16-9.98-8.25-12.46c-1.09-2.48-3.43-8.84-4.77-9.27s-2.16,1.95-2.39,4.47,3.23,7.54,2.16,8.62c-1.08,1.08-20.69-2.69-24.08-3.23s-12.79-1.33-12.6,3.16c0,0-4.49.28-4.57,2.21-.1.89,0,1.8.28,2.65,0,0-.46,3.5,2.49,4.31,1.63.49,3.3.79,4.99.92,0,0-2.16,1.38.1,3.54,2.25,2.16,15.2,5.68,15.2,5.68,0,0,6.25,4.9,11.32,5.62,5.07.71,14.83-.32,14.83-.32l5.3-15.89Z"/>
          <path class="cls-7" d="M152.25,154.94c0,.06-1.27-.15-3.32-.44-.78-.12-3.5-.56-8.04-.83-3.15-.17-6-.16-8.07-.11-1.12.06-2.24.06-3.35,0,.28-.1.58-.16.88-.17.58-.08,1.41-.16,2.45-.23,5.41-.35,10.84-.04,16.17.94,1.02.18,1.84.37,2.4.51.31.06.61.17.88.33Z"/>
          <path class="cls-7" d="M151.89,159.63c-2.69-.28-6.99-.67-11.86-1.08-8.19-.66-13.28-.49-13.29-.34s5.07.17,13.25.84c5.92.47,9.64.59,11.86.66l.04-.08Z"/>
          <path class="cls-7" d="M150.71,165.11c-.9,0-1.79-.09-2.67-.25-1.65-.19-3.91-.46-6.47-.7-1.17-.11-3.41-.31-6.47-.52-.9-.01-1.79-.1-2.67-.27.89-.12,1.8-.14,2.69-.08,1.66,0,3.94.13,6.47.37s4.8.57,6.47.85c.9.11,1.79.31,2.65.59Z"/>
          <path class="cls-8" d="M249.75,184.77c-8.25-8.37-19.95-11.05-31.07-13.16-4.6-.87-9.36-1.41-13.86-2.69-4.19-1.2-8.37-2.47-12.55-3.73l-10.66-3.23c-.28-.09-.88.31-.44.44,7.26,2.16,14.53,4.42,21.83,6.55,10.55,3.08,21.8,3.35,32.14,7.32,5.2,1.93,9.95,4.92,13.93,8.79.2.2.92-.09.69-.31v.02Z"/>
        </g>
      </g>
    </g>
  </g>
</svg>