<svg xmlns="http://www.w3.org/2000/svg" xmlns:xlink="http://www.w3.org/1999/xlink" viewBox="0 0 292.89 301.99"><defs><style>.cls-1{fill:none;}.cls-2{clip-path:url(#clip-path);}.cls-3{fill:#c3e6f7;}.cls-4{fill:#628e9f;}.cls-5{fill:#ddad6f;}.cls-6{fill:#4c3059;}.cls-7{fill:#dbb28e;}.cls-8{fill:#825639;}.cls-9{fill:#151210;}.cls-10{fill:#131429;}.cls-11{fill:#4f2e25;}.cls-12{fill:#13110f;}.cls-13{fill:#040404;}.cls-14{fill:#513835;}.cls-15{fill:#745245;}.cls-16{fill:#374f51;}.cls-17{fill:#bfc0c1;}.cls-18{fill:#afaeaf;}.cls-19{fill:#e8e8e8;}.cls-20{fill:#27153c;}.cls-21{fill:#24180f;}.cls-22{fill:#fff;}.cls-23{fill:#94664a;}</style><clipPath id="clip-path"><path class="cls-1" d="M298.43,132.93a44.31,44.31,0,0,0-43.38-44.29A126.56,126.56,0,0,0,165.79,29.1a44.31,44.31,0,1,0-86.23,18A126.56,126.56,0,0,0,34.75,212.84c-.93,10.62-.79,19.88-.19,23.67,1.34,8.37,9.88,14.94,9.88,14.94,4.68,2.49,16.75,5.44,29,5.44,20.47,14.26,46.56,23.79,73.4,23.79a126.52,126.52,0,0,0,125-107.15A44.3,44.3,0,0,0,298.43,132.93Z"/></clipPath></defs><g id="Layer_18" data-name="Layer 18"><g class="cls-2"><circle class="cls-3" cx="146.28" cy="153.27" r="126.49" transform="translate(-65.54 148.33) rotate(-45)"/><path class="cls-4" d="M148.88,189.59q4.41-.36,8.81-1c.24-.32,1.62,1.89,2.14,1.89,4.92,0,10.51,0,15.17-1.47.08-19.75-1.53-45.83-3.95-55.33-4-15.75-33.93-23.93-35.91-24.73,0,0,5.19,53.17,12.35,75.21A53.7,53.7,0,0,1,148.88,189.59Z"/><rect class="cls-5" x="130.84" y="26.64" width="5.58" height="14.88" rx="2.79" transform="translate(0.23 -0.88) rotate(0.38)"/><path class="cls-6" d="M114.84,119.46a187.34,187.34,0,0,1,4-22.32c1.5-6.15,3.12-12.88,8-17.28.8-.72-1-.83-1.47-.39-4.84,4.35-6.6,10.84-8.12,16.93A187.07,187.07,0,0,0,113,119.65c-.09.8,1.74.49,1.82-.19Z"/><rect class="cls-5" x="114.4" y="43.91" width="5.58" height="14.88" rx="2.79" transform="matrix(0.84, 0.55, -0.55, 0.84, 47.22, -55.76)"/><path class="cls-7" d="M98.22,73.65a50,50,0,0,1-.35,13.26C96.18,97.41,87,102.39,87,102.39l36.85,25,17.43-16.61s-8.85-5.27-9-7.38,4-17.66,4-17.66"/><path class="cls-8" d="M98.29,74.79v.11C98.28,74.85,98.27,74.81,98.29,74.79Z"/><path class="cls-7" d="M122.2,98.73l10.55,1.87,4.77.33a5.06,5.06,0,0,0,4.94-2.54c2.26-3.82,3-5.81,3.34-6.27a66.27,66.27,0,0,0,4.84-9.31c1.12-2.82,2.26-4.44,3-7.88.53-2.52.7-4.31-.32-8.58a5.83,5.83,0,0,1,.18-3.25c.75-2.34,1.19-5.12,2.13-8.26a6.42,6.42,0,0,0,.4-1.72s1.7-13.3-.3-18.27-3.94-10-7.37-11.25S133,24.71,133,24.71l-14.15-3.27-12.68,5L98.76,40.67,98.19,57.9l.1,16.89"/><path class="cls-9" d="M103.34,33.5c-.31-7.71,6.73-10,9.68-11.09,2.5-.92,9.5-2.54,14.42-1.39,2.12.5.73,4.93,1.83,5.83.37.12,4.65,1.47,6.36,1.87a17.73,17.73,0,0,0,6.62.69,7.5,7.5,0,0,1,3.71,0c2.2.51,3.6-4.88,7.71.65l.24-.21c-5.13-8-12.69-8.54-21.62-10.64-.94-.22-1.92-.41-2.9-.56-14.29-2.23-13.84-2.08-24,6.66-5.88,5.08-9.52,10.11-9.72,13.45l0,.75C95.45,43,91.14,52.09,92.21,54.1c.68,1.28,2.72,6.84,4.4,11.56l6.85.71c0-1.31.33-12.41.37-13.74"/><path class="cls-7" d="M98.58,75.06c-6,4.92-6.32-4.37-6.32-4.37-3.41-5-2.92-10-2.45-13.34s4.19-3,4.19-3c3.13.65,4.83,1.61,6.43,12.53"/><path class="cls-9" d="M144.22,26.17c-5.14-.51-18.36-5.17-25.31-6.18-2.87-.42-13.06,6-14.44,7.48-3.17,3.5,2.75,12.61-3.16,24.11-2,3.8-3.68-3.27-6-.86s-3.15,3.38-3.15,3.38c-.59-11.52-.58-11.12,2.85-22.16S111.12,17,117.12,16.55s24.87,3,29.81,5.78"/><path class="cls-10" d="M97.59,65.57a26.63,26.63,0,0,0-2.11-4.76,8.39,8.39,0,0,0-1.63-2.12,2.37,2.37,0,0,0-.91-.55c-.42-.1-.63.27-.82.58a6.58,6.58,0,0,0-.72,4.44c0,.19.57.07.54-.14a7,7,0,0,1,.32-3.57,3.7,3.7,0,0,1,.66-1.13l-.32.11c-.11,0,0,0,0,0s0,0,.14.05a2.29,2.29,0,0,1,.61.42A9.69,9.69,0,0,1,95.5,62a31.38,31.38,0,0,1,1.56,3.74c.07.19.6,0,.53-.14Z"/><path class="cls-10" d="M96.36,66.08c-2.23-.31-1.29,2.72-1.53,3.94a2.43,2.43,0,0,1-.18.39l.23-.06,0,0s-.07-.06-.08-.08-.13-.22-.18-.34a7.93,7.93,0,0,1-.41-2,8.82,8.82,0,0,1,0-2.9c.2-1,.6-2.54,1.67-2.89.3-.1.26-.3-.06-.2a3.24,3.24,0,0,0-1.93,2.34,6.71,6.71,0,0,0-.36,2.13,15.06,15.06,0,0,0,.3,2.85c.08.37.19,1.11.59,1.3a.72.72,0,0,0,.84-.32,2.09,2.09,0,0,0,.15-1.11c0-.55-.36-2.94.62-2.8.14,0,.62-.21.34-.25Z"/><path class="cls-11" d="M132.75,100.6c-5.5-.37-10.86-.87-12.65-1.57C111,95.44,105,81.24,105,81.24a36.37,36.37,0,0,0,6,12.12c4.69,6.31,7.59,7.35,13.16,7.86,2.65.24,4.71.74,8.21,1.11Z"/><path class="cls-9" d="M90.08,56.36s-2.45-6-1.67-15.41S90.92,19,102.2,15a22,22,0,0,1,6.24-1.24s7.77-6.83,27.47-1.26c13.83,3.91,18.87,10.13,19.22,21,0,0-3.42-5.94-4.65-5.52s-2.52,3.16-7.29,3.17S130.94,29.81,128,27.57s-8.4-4.76-11.68-4.6c-8,.39-9.35,6.27-10.31,9.69s-3.91,15.57-7.92,16.92a6.21,6.21,0,0,0-4.43,4.71l-.65.19a6.07,6.07,0,0,0-2.93,1.88Z"/><path class="cls-12" d="M144.88,61.4s2-2.24,3.89-2.42c3.88-.36,4.33.65,5.83,1.71a9,9,0,0,0-5.4-1A13.43,13.43,0,0,0,144.88,61.4Z"/><path class="cls-12" d="M125.85,56a2.37,2.37,0,0,0-2.27,0,1.76,1.76,0,0,0-.58.77,1.83,1.83,0,0,0,.31,1.67,1.66,1.66,0,0,0,1.89.47,1.83,1.83,0,0,0,1.06-2.08c0-.14.13-.39-.41-.72"/><path class="cls-12" d="M150.34,59.57a2.35,2.35,0,0,0-2.26,0,1.68,1.68,0,0,0-.27,2.45,1.67,1.67,0,0,0,1.89.47,1.85,1.85,0,0,0,1.06-2.08c0-.14.12-.39-.41-.72"/><path class="cls-12" d="M132.15,59.7s-3.6-4.18-6.87-4.55c-2.49-.28-7,.58-8.22.78,0,0,6.11.18,7.87.41S132.15,59.7,132.15,59.7Z"/><path class="cls-9" d="M135.73,50.11s-9.68-.89-13.7.6-5.22,2.53-5.22,2.53-1.16-.29-.6-1,3.53-3.6,5.73-4.44,13.16-1.36,13.16-1.36Z"/><path class="cls-9" d="M155.53,55.56a2.17,2.17,0,0,1,.24-.29l-.1.1a4.18,4.18,0,0,0,.43-.5c.09-.56.35-1,.47-1.55a105.27,105.27,0,0,0-9.87-5.15l-2.36,3.12A41.69,41.69,0,0,1,155,55.63,1.43,1.43,0,0,1,155.53,55.56Z"/><path class="cls-12" d="M142.74,71.05c.14.62.28,1.23.4,1.84.08.41.16.82.23,1.24a2.82,2.82,0,0,1,.08.82c-.13.9-1.37,1.15-2.1,1.22a13.69,13.69,0,0,1-2.79,0,8,8,0,0,1-3.3-.84c-.16-.1-.49.11-.3.23a7.71,7.71,0,0,0,3,.87,14.71,14.71,0,0,0,3.18.07,3.31,3.31,0,0,0,2.36-.94c.49-.6.25-1.33.12-2-.16-.86-.35-1.72-.54-2.57,0-.19-.43-.09-.39.1Z"/><path class="cls-12" d="M132.39,72.07a2.11,2.11,0,0,0-1.21.4,1.6,1.6,0,0,0-.63,1.1,1.28,1.28,0,0,0,.38,1.26,3,3,0,0,0,1.34.57,5.77,5.77,0,0,0,1.85.18c.08,0,.25,0,.29-.1s0-.07-.1-.06a5.45,5.45,0,0,1-1.75-.2,2.32,2.32,0,0,1-1.39-.7,1.53,1.53,0,0,1-.08-1.47,1.22,1.22,0,0,1,1-.82.55.55,0,0,0,.31-.08c.05,0,.07-.09,0-.08Z"/><path class="cls-13" d="M116,54.19l.54,2.58a34.21,34.21,0,0,0,2.24,7.08c.77,1.58,11.09,3.47,13.28,2.56s4.05-6.58,4.76-7.86l4.13.76c.15,1.8.77,7.5,1.46,8.34s5.49,1.33,6,1.39,1.07.09,1.76.12c1.82.11,4,.09,4.8-.48,1.12-.84,2.67-4.4,4-7.78l.23-.53c0-.13.1-.21.1-.25h0l.25-.61c-5.64-3.57-13.55-4.12-18.75-1.3l0,.07-4-.77c-4.21-3.57-11.93-6.21-17.86-4.79h0l-16.38,2.36-.24,1.52Zm27,13c-.43-.53-1-4.53-1.31-7.64,4.51-2.37,11.64-1.86,16.72,1v.07c-.74,1.82-2.7,6.64-3.8,7.47-1.31,1-10.82-.09-11.6-.91ZM120,63.6a30.24,30.24,0,0,1-2.82-9.31c5.32-1.6,14.41.88,18.54,4.29-1,2.34-2.45,6.48-4,7.12-2.26.94-11.23-1.11-11.7-2.1Z"/><path class="cls-10" d="M137.8,53a4.52,4.52,0,0,0,3.34-2.8,3,3,0,0,0-1.4-3.52c-.14-.07-.63.14-.43.24a2.83,2.83,0,0,1,1.34,3.2,3.85,3.85,0,0,1-2.91,2.64c-.32.08-.26.32.06.24Z"/><path class="cls-4" d="M168.51,138.69l-4-17.08s-7.26-7.38-14.55-9.73c-4.34-1.39-13.75-5.7-16.33-6.52.67,3.43-.19,8.6-2.55,10.47-3.3,2.61-5.61,2.8-9.81,2.91a33.39,33.39,0,0,1-11.9-2.14c-7.09-2.5-15.3-11.63-17-19.36l-6.57,3.29s-22.48,10.33-25.94,11.74S64,202.35,64,202.35l-11.3,30.24c-.79,3.67-16.81,35.7-4.56,64.59,0,0,76.05-10.69,84.08-10.8,9.34-.14,29.76,3,32.12-1.45S168.51,138.69,168.51,138.69Z"/><path class="cls-4" d="M179.37,225.12c9.27,5.1,13.9-23.88,21.08-31.65-2.46-2.48-6-10.82-7.43-13.9-3-6.24-5.82-12.54-8.64-18.85-3.54-7.91-6.81-15.95-10.7-23.71a119.44,119.44,0,0,0-6.44-11.4c-2-3.15-4-6.2-7.08-8.39A46.4,46.4,0,0,0,150,111.88l-17.73,34.85s10.42,24.86,19.24,30.49c.29.18,3.74,8.36,4.91,10.65.25.49-3.52,1.35-3.46,1.9C153.42,194,158.72,213.77,179.37,225.12Z"/><path class="cls-7" d="M234,130.49l-16.53,12s-30.48,21.4-36.87,25.51c.44,1.5,6.1,5.61,6.57,7.11,2.67,8.54-5.19,32.48-5.19,32.48,25.88,6.44,39.66-33.95,43.23-40.27,3.89-6.88,17.33-24.57,17.33-24.57Z"/><path class="cls-14" d="M234.68,273.14l-.08,0V273Z"/><path class="cls-14" d="M118.18,167h.09c0,.11.06.22,0,.31Z"/><path class="cls-14" d="M123.61,197.25l-.07,0,0-.2Z"/><path class="cls-15" d="M142.88,162.64h-.11l.11-.06A.08.08,0,0,1,142.88,162.64Z"/><path class="cls-15" d="M127,165.4l.1-.07,0,0Z"/><path class="cls-15" d="M142.54,162.67l-.15,0A.1.1,0,0,1,142.54,162.67Z"/><path class="cls-15" d="M118.53,166.9a.08.08,0,0,1,.13,0Z"/><path class="cls-7" d="M70.69,128s7.88,1,7.13,23.92c-.77,23.28-10.58,72.3-10.58,72.3s54.23,8.37,64.55,12.11l4.37,15.34c-18.62,3.64-74.8,8.67-87.61,1.86,0,0-12-3.65-13.45-18.25-1.28-13,8-84.9,8-84.9"/><path class="cls-16" d="M165,213.28c1.17-16.07,1.79-32.2,2.36-48.3.12-3.61.24-7.22.31-10.82,0-.36-.7-.26-.7.05-.28,16.11-1.12,32.23-2,48.32-.2,3.6-.4,7.21-.66,10.8,0,.36.67.27.69-.05Z"/><path class="cls-11" d="M67.51,223.75a11.7,11.7,0,0,0-6.5.57,13.58,13.58,0,0,0-4.81,4.39c-.54.7.84.79,1.19.34a12.6,12.6,0,0,1,4.13-4,9.66,9.66,0,0,1,5.46-.4c.64.08,1.5-.81.53-.94Z"/><path class="cls-16" d="M197.53,188c-2.75.22-4.94,2.34-6.49,4.45a17.5,17.5,0,0,0-3.32,7.39c0,.24.65.12.68-.1a17,17,0,0,1,2.93-6.79c1.4-2.06,3.45-4.39,6.1-4.6.32,0,.58-.38.1-.35Z"/><polygon class="cls-17" points="223.18 251.57 158.13 239.61 167.31 140.39 232.36 152.35 223.18 251.57"/><rect class="cls-18" x="160.73" y="155.96" width="63.22" height="12.21" transform="translate(15.75 -17.03) rotate(5.29)"/><rect class="cls-18" x="159.77" y="171.93" width="63.22" height="1" transform="translate(16.7 -16.9) rotate(5.29)"/><rect class="cls-18" x="159.48" y="175.11" width="63.22" height="1" transform="translate(16.99 -16.86) rotate(5.29)"/><rect class="cls-18" x="159.18" y="178.28" width="63.22" height="1" transform="translate(17.28 -16.82) rotate(5.29)"/><rect class="cls-18" x="158.89" y="181.46" width="63.22" height="1" transform="translate(17.57 -16.77) rotate(5.29)"/><rect class="cls-18" x="158.63" y="184.23" width="63.22" height="1" transform="translate(17.83 -16.74) rotate(5.29)"/><rect class="cls-18" x="158.34" y="187.41" width="63.22" height="1" transform="translate(18.12 -16.7) rotate(5.29)"/><rect class="cls-18" x="172.6" y="191.02" width="18.08" height="1.04" transform="translate(18.42 -15.92) rotate(5.29)"/><rect class="cls-18" x="172.3" y="194.35" width="18.08" height="1.04" transform="translate(18.72 -15.88) rotate(5.29)"/><rect class="cls-18" x="171.99" y="197.68" width="18.08" height="1.04" transform="translate(19.03 -15.83) rotate(5.29)"/><rect class="cls-18" x="191.91" y="209.61" width="27.67" height="1.04" transform="matrix(1, 0.09, -0.09, 1, 20.23, -18.06)"/><rect class="cls-18" x="191.6" y="212.94" width="27.67" height="1.04" transform="translate(20.54 -18.02) rotate(5.29)"/><rect class="cls-18" x="191.29" y="216.27" width="27.67" height="1.04" transform="matrix(1, 0.09, -0.09, 1, 20.84, -17.97)"/><rect class="cls-18" x="171.68" y="201.01" width="18.08" height="1.04" transform="translate(19.33 -15.79) rotate(5.29)"/><rect class="cls-18" x="171.41" y="203.92" width="18.08" height="1.04" transform="translate(19.6 -15.75) rotate(5.29)"/><rect class="cls-18" x="171.1" y="207.24" width="18.08" height="1.04" transform="translate(19.9 -15.71) rotate(5.29)"/><rect class="cls-18" x="170.8" y="210.57" width="18.08" height="1.04" transform="translate(20.21 -15.67) rotate(5.29)"/><rect class="cls-18" x="170.49" y="213.9" width="18.08" height="1.04" transform="translate(20.52 -15.63) rotate(5.29)"/><rect class="cls-18" x="170.18" y="217.23" width="18.08" height="1.04" transform="translate(20.82 -15.58) rotate(5.29)"/><rect class="cls-18" x="169.87" y="220.56" width="18.08" height="1.04" transform="translate(21.13 -15.54) rotate(5.29)"/><rect class="cls-18" x="169.6" y="223.46" width="18.08" height="1.04" transform="translate(21.39 -15.5) rotate(5.29)"/><rect class="cls-18" x="169.3" y="226.79" width="18.08" height="1.04" transform="translate(21.7 -15.46) rotate(5.29)"/><rect class="cls-18" x="168.99" y="230.12" width="18.08" height="1.04" transform="translate(22 -15.42) rotate(5.29)"/><rect class="cls-18" x="168.68" y="233.45" width="18.08" height="1.04" transform="translate(22.31 -15.38) rotate(5.29)"/><rect class="cls-18" x="168.41" y="236.36" width="18.08" height="1.04" transform="translate(22.58 -15.34) rotate(5.29)"/><rect class="cls-18" x="168.1" y="239.69" width="18.08" height="1.04" transform="translate(22.88 -15.3) rotate(5.29)"/><rect class="cls-18" x="155.79" y="189.26" width="11.27" height="49.91" transform="translate(20.42 -13.96) rotate(5.29)"/><rect class="cls-18" x="192.84" y="193.36" width="27.67" height="13.47" transform="matrix(1, 0.09, -0.09, 1, 19.31, -18.19)"/><rect class="cls-18" x="189.51" y="235.54" width="27.67" height="1.04" transform="translate(22.61 -17.73) rotate(5.29)"/><rect class="cls-18" x="189.2" y="238.86" width="27.67" height="1.04" transform="matrix(1, 0.09, -0.09, 1, 22.92, -17.69)"/><rect class="cls-18" x="188.9" y="242.19" width="27.67" height="1.04" transform="translate(23.22 -17.64) rotate(5.29)"/><rect class="cls-18" x="190.44" y="219.29" width="27.67" height="13.47" transform="translate(21.69 -17.86) rotate(5.29)"/><rect class="cls-19" x="149.86" y="152.6" width="77.7" height="99.65" transform="translate(19.45 -16.52) rotate(5.29)"/><rect class="cls-18" x="160.36" y="160" width="63.22" height="12.21" transform="translate(16.12 -16.98) rotate(5.29)"/><rect class="cls-18" x="159.4" y="175.98" width="63.22" height="1" transform="translate(17.07 -16.84) rotate(5.29)"/><rect class="cls-18" x="159.1" y="179.15" width="63.22" height="1" transform="translate(17.36 -16.8) rotate(5.29)"/><rect class="cls-18" x="158.81" y="182.33" width="63.22" height="1" transform="translate(17.65 -16.76) rotate(5.29)"/><rect class="cls-18" x="158.52" y="185.51" width="63.22" height="1" transform="translate(17.94 -16.72) rotate(5.29)"/><rect class="cls-18" x="158.26" y="188.28" width="63.22" height="1" transform="translate(18.2 -16.69) rotate(5.29)"/><rect class="cls-18" x="157.96" y="191.46" width="63.22" height="1" transform="translate(18.49 -16.65) rotate(5.29)"/><rect class="cls-18" x="172.23" y="195.07" width="18.08" height="1.04" transform="translate(18.79 -15.87) rotate(5.29)"/><rect class="cls-18" x="171.92" y="198.4" width="18.08" height="1.04" transform="translate(19.09 -15.82) rotate(5.29)"/><rect class="cls-18" x="171.61" y="201.73" width="18.08" height="1.04" transform="translate(19.4 -15.78) rotate(5.29)"/><rect class="cls-18" x="191.54" y="213.66" width="27.67" height="1.04" transform="translate(20.6 -18.01) rotate(5.29)"/><rect class="cls-18" x="191.23" y="216.99" width="27.67" height="1.04" transform="matrix(1, 0.09, -0.09, 1, 20.91, -17.97)"/><rect class="cls-18" x="190.92" y="220.32" width="27.67" height="1.04" transform="translate(21.21 -17.92) rotate(5.29)"/><rect class="cls-18" x="171.31" y="205.05" width="18.08" height="1.04" transform="translate(19.7 -15.74) rotate(5.29)"/><rect class="cls-18" x="171.04" y="207.96" width="18.08" height="1.04" transform="translate(19.97 -15.7) rotate(5.29)"/><rect class="cls-18" x="170.73" y="211.29" width="18.08" height="1.04" transform="translate(20.28 -15.66) rotate(5.29)"/><rect class="cls-18" x="170.42" y="214.62" width="18.08" height="1.04" transform="translate(20.58 -15.62) rotate(5.29)"/><rect class="cls-18" x="170.11" y="217.95" width="18.08" height="1.04" transform="translate(20.89 -15.57) rotate(5.29)"/><rect class="cls-18" x="169.81" y="221.28" width="18.08" height="1.04" transform="translate(21.19 -15.53) rotate(5.29)"/><rect class="cls-18" x="169.5" y="224.6" width="18.08" height="1.04" transform="translate(21.5 -15.49) rotate(5.29)"/><rect class="cls-18" x="169.23" y="227.51" width="18.08" height="1.04" transform="translate(21.76 -15.45) rotate(5.29)"/><rect class="cls-18" x="168.92" y="230.84" width="18.08" height="1.04" transform="translate(22.07 -15.41) rotate(5.29)"/><rect class="cls-18" x="168.61" y="234.17" width="18.08" height="1.04" transform="translate(22.37 -15.37) rotate(5.29)"/><rect class="cls-18" x="168.31" y="237.5" width="18.08" height="1.04" transform="translate(22.68 -15.32) rotate(5.29)"/><rect class="cls-18" x="168.04" y="240.4" width="18.08" height="1.04" transform="translate(22.95 -15.29) rotate(5.29)"/><rect class="cls-18" x="167.73" y="243.73" width="18.08" height="1.04" transform="translate(23.25 -15.24) rotate(5.29)"/><rect class="cls-18" x="155.42" y="193.3" width="11.27" height="49.91" transform="translate(20.79 -13.91) rotate(5.29)"/><rect class="cls-18" x="192.46" y="197.41" width="27.67" height="13.47" transform="translate(19.68 -18.14) rotate(5.29)"/><rect class="cls-18" x="189.14" y="239.58" width="27.67" height="1.04" transform="translate(22.98 -17.68) rotate(5.29)"/><rect class="cls-18" x="188.83" y="242.91" width="27.67" height="1.04" transform="translate(23.29 -17.63) rotate(5.29)"/><rect class="cls-18" x="188.52" y="246.24" width="27.67" height="1.04" transform="translate(23.59 -17.59) rotate(5.29)"/><rect class="cls-18" x="190.07" y="223.34" width="27.67" height="13.47" transform="translate(22.06 -17.8) rotate(5.29)"/><path class="cls-7" d="M128.16,235.71l1.14,9.47,1.23,7.14s12.1.66,15.51-.18,11.65-1.81,11.65-1.81a4.24,4.24,0,0,0,3,5.42l2.87-5.91c1.33,2.38,3.34.2,3.34.2l2-5.13c1.5,3,4.18.25,4.18.25l.61-6.89a10.66,10.66,0,0,0,3.44,2.3c1.64.52,1.8-2.2,1.8-2.2l-7.22-9.66-16.36-2.63-24.47,9.44Z"/><path class="cls-11" d="M161.84,229.25a23.42,23.42,0,0,1,3.12.68c1.14.32,2.41.67,3.71,1.17a18,18,0,0,1,3.52,1.74,2.41,2.41,0,0,1,1.13,1.48,12.06,12.06,0,0,1,.27,1.48,7,7,0,0,1,.07,2.91,25.85,25.85,0,0,1-.58-2.79c-.09-.43-.19-.93-.33-1.4a1.82,1.82,0,0,0-.92-1.08,20.16,20.16,0,0,0-3.42-1.62c-1.26-.48-2.49-.84-3.63-1.19s-2.15-.67-3-.84a8.71,8.71,0,0,0-2.79,0A3.71,3.71,0,0,1,161.84,229.25Z"/><path class="cls-11" d="M159.94,235.45c1.64.38,4,.66,6.5,1.4a4.73,4.73,0,0,1,1.86.86,6.48,6.48,0,0,1,.91,1.65,6.21,6.21,0,0,1,.62,3,12,12,0,0,1-.51,2,4.68,4.68,0,0,1-.27.7,2.94,2.94,0,0,1,0-.75,12.34,12.34,0,0,0,.28-2,6,6,0,0,0-.73-2.79,6.45,6.45,0,0,0-.79-1.4,4.42,4.42,0,0,0-1.56-.67c-2.45-.71-4.79-1.08-6.43-1.6a7,7,0,0,1-2.55-1.09A22.53,22.53,0,0,1,159.94,235.45Z"/><path class="cls-11" d="M164,248a3.35,3.35,0,0,0,.1-2,2.44,2.44,0,0,0-1.62-1.58,8,8,0,0,0-2.53-.35l-2.2-.08c-.56,0-1.08-.1-1.4-.1a3.14,3.14,0,0,0-.5.08c-.06,0,.07-.26.46-.36a9.28,9.28,0,0,1,1.49-.14l2.21-.07a7.53,7.53,0,0,1,2.79.33,3.1,3.1,0,0,1,2,2.1,3.82,3.82,0,0,1-.27,2.33,4.25,4.25,0,0,1-1.19,1.7A17.18,17.18,0,0,1,164,248Z"/><path class="cls-4" d="M64.73,181.68c3.64.41,7.29.65,11,.8l4-11.82s9.21-27.86,3.4-41.54a43,43,0,0,0-16.51-19.67s-20.71,6-25.93,30.59c-1.45,6.8-3.54,22.47-5,34.4C45.26,177,54.72,180.57,64.73,181.68Z"/><path class="cls-7" d="M229.79,140.28a6.4,6.4,0,0,1-1.53-4.12c.05-1.42,2.27-2.28,3.19-3.34l2.5-2.33s4.4-4.84,6.34-6,10.58-3.29,11-3.25,8.84-7.28,10.58-6.11,2.41,3.09.72,5.35-8.17,5.32-7.4,6.68a9.4,9.4,0,0,0,2.49,2.54s1.86-2.64,3.86-2.83,3.1,2.18,3.1,2.18l-.54,1.27,2.23-.7s4.33-5,6.8-3.83a11,11,0,0,1,4-2.16,2.37,2.37,0,0,1,2.81,1.81,2.67,2.67,0,0,1,0,.69l-10.55,11L250.87,145s-6.78-.46-8.56-.47c-.55,0-2.83,1.15-5.74,2.73a31.51,31.51,0,0,1-3.35-2.63,19.93,19.93,0,0,1-3.29-3.8A.62.62,0,0,0,229.79,140.28Z"/><path class="cls-11" d="M251.83,123.85c-.87-.67-1.62-1.14-1.56-1.33s1,0,2,.78,1.4,1.63,1.24,1.73S252.69,124.53,251.83,123.85Z"/><path class="cls-11" d="M270,134.11c1.19-1.57,2.82-3.79,4.66-6.38l.18-.24-.19-.22a13.67,13.67,0,0,0-1.15-1.37,2.66,2.66,0,0,0-1.93-.64,4.88,4.88,0,0,0-2.83,1.32,15.41,15.41,0,0,0-1.93,2c-1.06,1.42-1.9,2.74-2.6,3.85a21.51,21.51,0,0,0-2.1,3.73,27.34,27.34,0,0,0,2.56-3.41c.75-1.05,1.65-2.37,2.71-3.72a13.84,13.84,0,0,1,1.86-1.89,4.14,4.14,0,0,1,2.37-1.12,1.86,1.86,0,0,1,1.38.43c.33.31.71.86,1.05,1.26v-.45c-1.81,2.6-3.36,4.88-4.44,6.53a14.79,14.79,0,0,0-1.61,2.71A14.18,14.18,0,0,0,270,134.11Z"/><path class="cls-11" d="M248.5,138.72a23.87,23.87,0,0,1,5.4-2.86l.06,0,0-.07a14.07,14.07,0,0,0,1.49-1.94c.47-.75.84-1.47,1.35-2.21a24.43,24.43,0,0,1,1.63-2.16,6,6,0,0,1,2.09-1.72,2.48,2.48,0,0,1,2.19,0,4.08,4.08,0,0,1,1.61,1.53v-.38c-2.11,3.48-3.93,6.5-5.18,8.67a7.1,7.1,0,0,1-1.79,2.25,4.73,4.73,0,0,0-.78.71c0,.07.35-.07.92-.47a6.33,6.33,0,0,0,2-2.19c1.38-2.09,3.28-5.07,5.45-8.54l.09-.2L265,129a4.67,4.67,0,0,0-1.92-1.87,3.24,3.24,0,0,0-2.85,0c-3.79,2.19-4.7,6.19-6.73,8.3l.13-.09a21.56,21.56,0,0,0-5.41,3.2,8.72,8.72,0,0,0-1.2,1.23,3.71,3.71,0,0,0-.32.53C246.74,140.27,247.24,139.57,248.5,138.72Z"/><path class="cls-11" d="M234,130.49s-.11,3.59,3.78,6.56C237.73,137.05,231.91,134.8,234,130.49Z"/><path class="cls-20" d="M73.59,120.41c4.33.75,7.3,4.86,8.89,8.67a29.84,29.84,0,0,1,1.86,10.08c.43,9.14-.77,18.4-2.25,27.39q-1.23,7.5-3,14.89l.52-.34a21.66,21.66,0,0,1-6.07.07c-.34-.06-1.1.46-.56.56a23.73,23.73,0,0,0,6.52,0c.2,0,.48-.13.53-.34a213.11,213.11,0,0,0,4.73-28.5,101.84,101.84,0,0,0,.48-13.3A30.88,30.88,0,0,0,83.47,129c-1.64-4-4.76-8.34-9.32-9.13-.34-.06-1.1.46-.56.56Z"/><path class="cls-21" d="M137,81.37c-3-.29-9.66.87-11.09,1.88,0,0,3,4.2,9.81,4.88S144.13,85,144.13,85,140.76,81.74,137,81.37Z"/><path class="cls-22" d="M128.82,82.26s3.54.06,6.35.34,6.3.9,6.3.9.65-2-4.44-2.54A14.65,14.65,0,0,0,128.82,82.26Z"/><path class="cls-23" d="M135.74,87.72c-3.17-.77-6.07-4.33-9.84-4.47,0,0,.37,6.44,8.43,7.23s9.8-5.44,9.8-5.44C140.41,84.44,139,87.58,135.74,87.72Z"/><path class="cls-23" d="M140.65,80.13c-1.68-.3-2.82.24-3.55.17s-1.75-.82-3.45-.86-8.69,3.16-8,3.73,5.26-1.48,10.36-1,7.56,3.25,8.36,2.82S142.23,80.4,140.65,80.13Z"/></g></g></svg>