<?xml version="1.0" encoding="UTF-8"?>
<svg id="Layer_4" data-name="Layer 4" xmlns="http://www.w3.org/2000/svg" xmlns:xlink="http://www.w3.org/1999/xlink" viewBox="0 0 292.89 301.99">
  <defs>
    <style>
      .cls-1 {
        fill: none;
      }

      .cls-2 {
        fill: #825739;
      }

      .cls-3 {
        fill: #010101;
      }

      .cls-4 {
        fill: #ddad6f;
      }

      .cls-5 {
        fill: #c69e81;
      }

      .cls-6 {
        fill: #638e9f;
      }

      .cls-7 {
        fill: #27153c;
      }

      .cls-8 {
        fill: url(#linear-gradient);
      }

      .cls-9 {
        fill: #f1eef7;
      }

      .cls-10 {
        fill: #060606;
      }

      .cls-11 {
        clip-path: url(#clippath-1);
      }

      .cls-12 {
        fill: #fff;
      }

      .cls-13 {
        fill: #251911;
      }

      .cls-14 {
        fill: #848484;
      }

      .cls-15 {
        fill: #4c3059;
      }

      .cls-16 {
        fill: #4f2f26;
      }

      .cls-17 {
        fill: #14162a;
      }

      .cls-18 {
        fill: #161412;
      }

      .cls-19 {
        fill: #94674b;
      }

      .cls-20 {
        clip-path: url(#clippath);
      }
    </style>
    <clipPath id="clippath">
      <path class="cls-1" d="M-92.54,71.71c2.93-5.71,4.59-12.19,4.59-19.05,0-23.11-18.74-41.85-41.85-41.85-13.34,0-25.22,6.25-32.88,15.98-44.71-11.62-94.22.07-129.25,35.1-52.6,52.6-52.6,137.88,0,190.48,52.6,52.6,137.88,52.6,190.48,0,49.44-49.44,52.41-127.76,8.9-180.67Z"/>
    </clipPath>
    <clipPath id="clippath-1">
      <path class="cls-1" d="M242.86,61.09c-13.13-13.13-28.28-23-44.44-29.62-7.63-21.63-28.23-37.13-52.47-37.13s-45.42,15.94-52.78,38.04c-15.35,6.61-29.73,16.18-42.27,28.71C-2.11,114.1-2.11,200.04,50.9,253.05c53.01,53.01,138.96,53.01,191.97,0,53.01-53.01,53.01-138.96,0-191.97Z"/>
    </clipPath>
    <linearGradient id="linear-gradient" x1="149.21" y1="202" x2="134.38" y2="-69.08" gradientUnits="userSpaceOnUse">
      <stop offset=".18" stop-color="#bbe5f5"/>
      <stop offset=".55" stop-color="#77c5da"/>
    </linearGradient>
  </defs>
  <g class="cls-20">
    <rect class="cls-14" x="-407.51" y="250.35" width="409.98" height="45.71"/>
  </g>
  <g class="cls-11">
    <circle class="cls-8" cx="146.79" cy="157.63" r="135.74"/>
    <path class="cls-4" d="M156.77,21.16h0c1.74-.21,3.32,1.03,3.54,2.77l1.28,10.53c.21,1.74-1.03,3.32-2.77,3.54h0c-1.74.21-3.32-1.03-3.54-2.77l-1.28-10.53c-.21-1.74,1.03-3.32,2.77-3.54Z"/>
    <path class="cls-15" d="M148.96,128.9c-.1-8.66.34-17.31,1.31-25.92.8-7.09,1.63-14.97,6.49-20.6.8-.94-1.17-1.07-1.68-.44-4.83,5.61-5.91,13.1-6.75,20.21-1.05,8.95-1.53,17.96-1.44,26.98,0,.93,2.07.54,2.07-.23Z"/>
    <path class="cls-4" d="M145.41,43.83h0c1.58.77,2.24,2.67,1.47,4.24l-4.63,9.54c-.77,1.58-2.67,2.24-4.24,1.47h0c-1.58-.77-2.24-2.67-1.47-4.24l4.63-9.54c.77-1.58,2.67-2.24,4.24-1.47Z"/>
    <path class="cls-5" d="M119.88,79.41c1.17,4.92,1.68,9.97,1.52,15.02-.39,12.12-9.99,19.07-9.99,19.07l47.5,20.23,15.02-18.57s-10.73-4.67-11.25-7.03,2.04-20.55,2.04-20.55"/>
    <path class="cls-2" d="M123.75,80.7s0,.08,0,.12c-.01-.04-.01-.08,0-.12Z"/>
    <path class="cls-5" d="M150.62,104.27l12.19.59,5.44-.32c2.3-.05,4.35-1.45,5.22-3.58,2.01-4.65,2.6-7.01,2.87-7.51,1.67-3.63,3.05-7.38,4.12-11.22.86-3.35,1.92-5.37,2.24-9.35.25-2.93.17-4.97-1.6-9.66-.44-1.18-.53-2.46-.27-3.69.52-2.76.6-5.96,1.21-9.66.15-.66.22-1.33.2-2.01,0,0,0-15.27-2.99-20.6s-5.91-10.73-9.96-11.64-17.17,3.48-17.17,3.48l-16.45-1.64-13.62,7.51-6.34,17.17,1.8,19.5,2.58,19.07"/>
    <path class="cls-3" d="M119.84,33.3c-1.46-8.67,6.16-12.29,9.35-13.95,2.68-1.4,10.36-4.29,16.1-3.66,2.47.26,1.55,5.46,2.92,6.32.43.09,5.47.99,7.46,1.19,2.51.42,5.09.36,7.58-.18,1.33-.54,2.76-.74,4.19-.58,2.56.26,3.37-6.04,8.81-.38l.25-.28c-6.98-8.35-15.58-7.81-25.98-8.89-1.07-.12-2.23-.19-3.36-.21-16.48-.45-15.95-.34-26.12,11-5.91,6.6-9.28,12.8-9.03,16.6l.05.86c.26,3.97-3.28,14.93-1.78,17.04.96,1.35,4.06,7.33,6.64,12.43l7.84-.19c-.24-1.47-1.43-14.07-1.57-15.58"/>
    <path class="cls-5" d="M120.48,80.95c-6.07,6.44-7.76-4.02-7.76-4.02-4.59-5.18-4.75-10.85-4.71-14.72.04-3.87,4.29-3.95,4.29-3.95,3.64.29,5.7,1.07,9.09,13.23"/>
    <path class="cls-3" d="M168.62,19.08c-5.89.17-21.46-3.22-29.5-3.32-3.32-.05-13.95,8.59-15.24,10.55-3.08,4.42,4.93,13.86-.09,27.72-1.65,4.57-4.63-3.17-6.85-.12s-3.07,4.29-3.07,4.29c-2.34-12.88-2.26-12.48,0-25.47s16-19.2,22.72-20.59,28.52-.26,34.52,2.21"/>
    <path class="cls-3" d="M118.01,70.42c-.85-1.77-1.87-3.46-3.05-5.03-.6-.82-1.32-1.55-2.15-2.15-.32-.24-.68-.41-1.07-.49-.48-.08-.71.2-.9.6-.7,1.64-.77,3.48-.21,5.17,0,.13.64,0,.61-.16-.42-1.35-.47-2.79-.15-4.17.12-.5.32-.96.61-1.38l-.5.17h.2c.27.09.52.22.75.38,1.16.88,2.14,1.97,2.9,3.22.85,1.29,1.63,2.64,2.32,4.02.08.15.65-.06.61-.16h.03Z"/>
    <path class="cls-3" d="M116.63,71.12c-2.64,0-.88,3.38-1.14,4.79-.02.07-.04.13-.05.2,0,.09-.18.14,0,.08s.06,0,0-.06-.13-.14-.16-.18c-.1-.13-.17-.27-.24-.42-.33-.76-.58-1.56-.74-2.38-.25-.97-.35-1.97-.28-2.96.1-1.14.34-2.87,1.51-3.42.39-.17,0-.36-.24-.24-1.04.62-1.71,1.72-1.78,2.93-.17.86-.19,1.73-.08,2.6.16,1.01.4,2,.72,2.96.15.43.35,1.16.79,1.42.35.17.77.04.96-.3.15-.41.18-.86.06-1.29-.09-.64-.88-3.39.33-3.38.23,0,.64-.33.24-.33h.09Z"/>
    <path class="cls-3" d="M157.32,42.35c.26.89.5,1.78.76,2.67.19.69.69,2.22.88,2.9-2.54.12-4.93-.12-6.54.09-3.22.39-6.44.6-9.45,1.93-1.35.56-2.59,1.37-3.64,2.39-.32.32-1.07,1.57-1.75,1.49-.27,0-.19-1.23-.18-1.36.16-2.44,1.97-3.95,4.36-5.22,4.9-2.44,10.15-4.1,15.56-4.89"/>
    <path class="cls-3" d="M182.88,48.95l-1.38-.9c-3.84-2.43-8.11-4.09-12.59-4.89-.3.87-.61,1.74-.92,2.62-.24.67-.7,1.86-.93,2.52,2.15.12,4.02,0,5.37.26,2.7.25,5.33.97,7.78,2.15l1.36.79c1.2-.97,1.6-2.24,1.32-2.54Z"/>
    <path class="cls-6" d="M118.68,104.91h0c-8.99,3.97-41.22,16.33-47.4,23.98-9.3,11.42,32.53,46.05,33.86,55.53.68,4.59,4.82,38.73.83,65.33-2.61,17.7-4.15,35.54-4.63,53.42l28.73,3.62c14.04,1.77,28.25,1.56,42.23-.63l33.04-7.24c-.9-18.32,1.19-39.22-1-63.24l.52-71.74-6.44-34.79s-10-5.24-10.84-6.99l-24.48-13.38s6.73,14.14-7.51,16.24c-14.7,2.15-18.81-.86-29.93-9.34-.02,0-5.81-5.67-6.98-10.77Z"/>
    <path class="cls-6" d="M86.23,177.84s-16.59,53.29-18.77,71.19c-2.18,17.9-1.07,48.07.38,59.53,1.45,11.46,78.49,32.82,103.17,30.19s36.71-9.56,34.34-39.82c-1.07-12.98-50.53-133.39-50.53-133.39l-68.58,12.31Z"/>
    <path class="cls-9" d="M163.46,82.94c-2.15,0-8.84-.39-8.84-.39,0,0,2.39,2.4,8.96,2.41,6.57.01,8.66-2.31,8.66-2.31l-8.78.28Z"/>
    <path class="cls-17" d="M206.01,163.68c-1.1,8.74-1.71,17.54-1.82,26.35-.12,8.66-.29,17.33-.29,25.99s.44,17.85.64,26.75c.15,6.25.28,12.49.4,18.74,0,.25.88.09.88-.24-.19-11.55-.49-23.08-.77-34.63-.09-3.52-.23-7.04-.27-10.56,0-3.22.15-6.44.18-9.66,0-4.29,0-8.59.08-12.88,0-10.01.63-20.01,1.86-29.95,0-.32-.85-.16-.88.12v-.03Z"/>
    <path class="cls-3" d="M172,104.51l1.19-2.34s-20.81,3.79-24.91,2.76c-10.83-2.74-19.63-17.93-19.63-17.93,2.02,4.8,4.94,9.16,8.59,12.88,6.21,6.44,7.67,7.24,14.05,7.01,4.84-.18,13.75-.38,17.76-.46,1.26-.05,2.39-.78,2.95-1.91Z"/>
    <path class="cls-3" d="M108.17,61.05s-3.65-6.44-4.12-17.17c-.47-10.73-.34-25.14,11.8-31.31,2.17-1.1,4.49-1.88,6.88-2.31,0,0,7.79-8.85,30.86-5.37,16.19,2.43,22.79,8.71,24.77,20.97,0,0-4.72-6.21-6.05-5.56s-2.39,3.93-7.78,4.64-14.05.24-17.69-1.88c-3.64-2.11-10.19-4.16-13.88-3.51-8.94,1.6-9.66,8.45-10.24,12.45-.58,4-2.15,18.17-6.5,20.28-2.43,1.03-4.09,3.32-4.29,5.96l-.71.31c-1.24.54-2.29,1.42-3.04,2.54l-.02-.04Z"/>
    <path class="cls-3" d="M128.66,87c10.52,11.43,16.75,14.54,20.59,14.74,3.84.2,6.81,1.2,9.48,0,3.22-1.51,4.15-3.22,5.04-2.66.4.27,1.85,2.28,2.23,2.54.83.57,3.22.14,4.09-.27,2.25-.87,4.08-2.56,5.12-4.73-.82,2.5-1.45,6.03-3.71,7.36-1.41.83-3.59.62-5.22.74-3.56.26-6.95.49-10.52.64-3.14.12-6.33.44-9.33-.47-5.04-1.53-10.73-7.93-13.95-12.2l-3.83-5.7Z"/>
    <path class="cls-18" d="M162.99,75.52c1.11.42,2.29.61,3.48.54,1.01.06,2.01-.15,2.91-.61.37-.26.71-.55,1.02-.88.27-.24.49-.53.65-.85.16-.72.08-1.48-.24-2.15-.24-.72-.6-1.38-.85-2.15,0-.15-.54,0-.49.13.57,1.13.96,2.33,1.17,3.57-.04.67-.39,1.28-.94,1.65-.27.28-.59.52-.93.71-.52.17-1.06.26-1.6.26-1.28.13-2.57-.03-3.78-.48-.13,0-.58.15-.4.23v.03Z"/>
    <path class="cls-18" d="M158.52,72.21c-.44-.03-.85.2-1.07.58-.19.41-.26.86-.23,1.31-.02.42.13.83.42,1.14.49.41,1.1.63,1.74.64.4.04.8,0,1.18-.12.42-.13.83-.33,1.27-.43.05,0,.29,0,.29-.13s-.15,0-.19,0c-.31.07-.62.17-.92.29-.3.14-.62.23-.96.26-.57.01-1.13-.12-1.63-.4-.63-.48-.89-1.3-.65-2.05.03-.21.1-.41.19-.59.04-.08.09-.15.16-.21l.09-.06s-.08,0,0,0c.12,0,.24-.03.34-.1.08,0,.09-.09,0-.1l-.02-.03Z"/>
    <path class="cls-6" d="M167.95,111.3c2.41.98,40.44,16.41,45.3,35.53,4.86,19.12,1.58,82.82,3.81,99.64,1.97,19.67,4.82,56.17,5.09,61.02l-4.29,40.03h-21.03s-1.96-112.85-10.67-139.61c-8.7-26.76-18.2-96.6-18.2-96.6Z"/>
    <path class="cls-17" d="M204.71,157.17c-2.47,19.11-2.04,38.39-2.43,57.61-.12,5.88,0,11.73.08,17.62.19,10.02.36,20.05.54,30.1.17,9.64.34,19.28.5,28.92.06,3.69,0,7.44.39,11.11.48,3.22,1.15,6.4,2.01,9.54.77,2.63.92,5.41.43,8.11-.42,1.67-1.09,3.26-1.99,4.72-.23.38.75.27.91,0,1.54-2.42,2.36-5.23,2.38-8.1-.21-2.75-.72-5.47-1.53-8.11-1.07-4.73-1.59-9.57-1.57-14.42-.15-9-.31-18.01-.47-27.02-.18-10.43-.36-20.87-.56-31.3-.1-5.26-.29-10.53-.28-15.79,0-8.91.28-17.82.4-26.73.14-9.66.42-19.39,1.33-29.04.24-2.45.51-4.89.83-7.34,0-.36-.94-.19-.98.13h.01Z"/>
    <path class="cls-13" d="M164.8,81.98c-3.65-.16-11.8,1.73-13.49,3.07,0,0,4.22,4.78,12.68,5.14,8.47.36,9.84-4.2,9.84-4.2,0,0-4.38-3.78-9.04-4.01Z"/>
    <path class="cls-12" d="M154.82,83.63s4.37-.16,7.83,0,7.79.68,7.79.68c0,0,.67-2.55-5.61-2.82-3.47-.26-6.95.48-10.01,2.15Z"/>
    <path class="cls-19" d="M164.09,89.49c-3.94-.73-8.13-4.53-12.78-4.43,0,0,1.29,7.51,11.25,7.92,9.96.41,11.28-6.98,11.28-6.98-4.61-.48-5.75,3.09-9.74,3.49Z"/>
    <path class="cls-19" d="M169.22,80.2c-2.09-.25-3.44.48-4.36.45s-2.15-.89-4.29-.82-10.45,4.47-9.55,5.13,7.51-2.56,13.77-2.31,8.4,3.86,9.36,3.28-2.98-5.52-4.93-5.74Z"/>
    <path class="cls-3" d="M166.28,78.15l-.27,1.23c-.01.3.16.57.43.7,1.77.7,7.42,3.28,9.06,3.62l.7.17h.38c.63,0,.29-1.44-.26-1.84-1.15-.89-2.37-1.7-3.64-2.41-1.81-.93-3.7-1.68-5.66-2.25-.37-.04-.71.23-.75.6,0,.06,0,.12,0,.18Z"/>
    <path class="cls-3" d="M162.66,78.18l-.08,1.2c-.01.32-.24.6-.55.68-2.15.62-10.13,3.13-12.16,3.39h-.52c-.77,0-.69-1.07,0-1.46,1.65-.91,3.34-1.72,5.09-2.43,2.39-.91,4.85-1.62,7.35-2.15.42-.05.8.24.85.66,0,.03,0,.07,0,.1Z"/>
    <path class="cls-6" d="M74.43,211.14c.33.3,5.51,1.07,6.07,1.31.97.34-5.27,7.19-4.7,6.44,10.45-13.77,21.05-32.19,32.3-45.45,2.45,23.51-2.28,93.15-30.93,93.15-19.8,0-25.76-33.11-24.25-58.76,6.48.93,14.84,3.66,21.51,3.32Z"/>
    <path class="cls-6" d="M93.98,217.11l7.24-38.01-2.24-62.24s-27.68,3.56-38.07,25.11c-4.49,10.5-8.19,41.44-8.19,71.22,27.69,8.53,29.08,5.57,41.26,3.92Z"/>
    <path class="cls-5" d="M152.36,101.27c.36,3.49-4.44,11.87-4.44,11.87,0,0,2.78,22.07,2.08,26.64-.17,1.13-6.22,4.68-7.45,7.76-3.73,9.4-3.22,10.61-3.22,10.61l-18.39-6.55,4.14-9.66-2.63-22.63-.16-23.04,12.24-12.59c.12.05.23.12.33.19.91.7,1.12,1.99.46,2.93l4.82-4.83c3.92,2.44-.8,10.32-.8,10.32l5.71-6.86c3.46,2.91.14,8.52.14,8.52l-5.61,10.15s.1,6.74.76,8.93c.67,2.19,1.16,4.53,1.16,4.53l1.07-7.51,7.73-13.56s1.7,1.29,2.06,4.78Z"/>
    <path class="cls-16" d="M123.52,112.5l-.48-14.85c-.03-.3-.03-.61,0-.91,0-.28-.12.14,0-.15.46-.63.97-1.21,1.53-1.75l6.21-7.14,4.39-5-.57.11c.97.48,1.36,1.66.88,2.63-.04.09-.09.17-.15.25-.21.34.48.28.62.14l4.82-4.83-.57.1c3.22,2.15.64,7.51-.86,10.09-.19.33.48.3.63.13l5.75-6.76h-.62c3.65,3.33,0,8.47-1.78,11.8l-3.38,6.1c-.7,1.26-.29,2.91-.21,4.29.04,1.59.2,3.18.48,4.75.36,1.72.93,3.4,1.31,5.12.06.31.68.13.71-.12l.65-4.82c.03-1.03.22-2.05.56-3.03,1.76-3.29,3.71-6.51,5.56-9.77l1.97-3.44-.61.16c2.05,1.58,2.3,4.89,1.7,7.18-.83,2.79-1.98,5.48-3.42,8.01-.3.41-.53.87-.69,1.35-.01.77.06,1.53.21,2.29.36,3.78.71,7.51.97,11.34,0,.3.73.14.71-.19-.27-3.87-.62-7.74-1-11.61,0-.54-.11-1.07-.15-1.61-.02-.12-.02-.24,0-.35,0-.12,0,.19,0,0,.34-.79.75-1.54,1.21-2.26,1.46-2.55,2.52-5.31,3.14-8.18.32-2.08-.35-5-2.15-6.36-.22-.1-.48-.03-.61.17l-4.84,8.5-2.55,4.47c-.36.76-.57,1.58-.6,2.41l-.78,5.91.71-.12c-.8-2.91-1.38-5.88-1.74-8.87-.11-1.68-.58-3.77.19-5.17,1.81-3.22,3.75-6.5,5.44-9.84,1.32-2.6,2.04-6.1-.38-8.3-.19-.15-.45-.12-.61.05l-5.76,6.74.63.14c1.61-2.72,4.13-8.24.73-10.56-.19-.09-.42-.05-.57.11l-4.81,4.83.62.13c.72-1.06.44-2.5-.61-3.22-.07-.05-.15-.1-.23-.14-.19-.09-.42-.05-.57.11l-10.02,11.47c-.7.8-2.15,1.88-2.23,2.98-.16,2.63.17,5.37.26,7.99l.24,7.51c0,.35.72.24.72-.06v.04Z"/>
    <path class="cls-16" d="M133.01,113.96c.11,0,0-1.2,0-1.38-.06-1.19-.14-2.38-.2-3.57-.08-1.41-.13-2.8-.18-4.2-.13-1.07-.16-2.15-.11-3.22.1-.78.89-1.48,1.37-2.15.84-1.07,1.67-2.15,2.52-3.22s1.56-1.84,2.23-2.82c.3-.44.58-.89.85-1.35.13-.17.24-.36.33-.56.05-.2.34-.25-.08-.12.41-.13.34-.44-.08-.31s-.72.82-.98,1.22c-.72,1.15-1.52,2.25-2.4,3.28-.94,1.17-1.87,2.35-2.79,3.53-.56.71-1.57,1.58-1.7,2.46-.07,1.13-.04,2.26.11,3.38.06,1.58.13,3.16.21,4.73.06,1.26.14,2.5.21,3.76,0,.25-.08.76.25.84s.82-.26.43-.35v.05Z"/>
    <path class="cls-16" d="M127.69,108.66c-.16-.12-.15-.7-.16-.86-.09-.69-.13-1.37-.18-2.05-.1-1.32-.17-2.65-.24-3.97,0-.8-.08-1.6-.12-2.4-.14-.79-.17-1.6-.09-2.39.35-.58.78-1.11,1.28-1.58,1.45-1.72,2.87-3.48,4.29-5.17.75-.88,1.46-1.79,2.15-2.72l.94-1.24c.1-.13.2-.24.29-.36s.38-.27,0-.17c.42-.13.32-.5-.11-.39s-.75.72-1.07,1.07c-.78,1.07-1.55,2.06-2.36,3.05-1.68,2.06-3.42,4.11-5.15,6.13-.34.41-1,.92-1.15,1.43-.07.64-.04,1.28.08,1.91l.13,2.85c.08,1.52.16,3.05.28,4.57,0,.45-.08,2.25.36,2.6.2.16.86-.13.65-.29h.17Z"/>
    <path class="cls-6" d="M95.9,180.53l19.9-40.84,2.08.84,9.85,3.95,10.55,4.23,4.5,1.07s-16.03,59.38-23.06,74.59c-23.04,49.94-45.44,34.34-45.44,34.34"/>
    <path class="cls-7" d="M123.95,142.77l-2.59-1.07c-.31-.11-.67-.02-.88.24-7.87,12.12-15.91,24.12-23.27,36.57-3.68,6.22-7.18,12.57-10.4,19.05-2.77,5.57-5.91,10.95-8.59,16.59-2.97,6.44-5.13,13.3-4.47,20.39,0,.33,1.07.12,1.01-.27-1.19-13.04,6.77-24.34,12.3-35.41,6.41-12.65,13.5-24.94,21.24-36.82,4.29-6.73,8.71-13.39,13.07-20.1l-.87.24,2.59,1.07c.3.12,1.22-.32.8-.49l.05.02Z"/>
    <path class="cls-7" d="M66.05,262.84c4.02,3.16,8.86,5.1,13.95,5.57,12.31,1.26,22.41-7.01,29.22-16.44,4.44-6.2,8.05-12.96,10.73-20.1,1.95-5.13,3.66-10.34,5.37-15.56,4.29-13.37,8.27-26.83,12.17-40.32,1.59-5.48,3.16-10.96,4.71-16.45.79-2.8,1.81-5.63,2.38-8.5,0-.13.08-.26.11-.4s-.11-.23-.21-.27l-3.22-1.32c-.39-.15-1.18.41-.6.64,1.07.42,2.15.83,3.22,1.28-.33-.15,0-.33-.21.12-.37.97-.65,1.96-.84,2.98-1.2,4.29-2.42,8.59-3.65,12.88-3.79,13.25-7.65,26.5-11.73,39.71-1.9,6.14-3.83,12.27-5.91,18.34-1.59,4.86-3.49,9.61-5.7,14.23-6.13,12.41-16.1,27.54-31.45,28.56-6.44.42-11.99-1.9-17.17-5.31-.1-.06-.17-.14-.26-.2-.31-.27-1.21.19-.79.55l-.11.02Z"/>
    <path class="cls-7" d="M89.24,133.42c.8.26,1.54.7,2.15,1.29,1.92,1.84,3.37,4.11,4.23,6.62,3.31,8.46,3.46,18.24,2.88,27.15-.15,2.36-.35,4.72-.72,7.06,0,.24.97.06,1-.18.93-6.2,1.2-12.47.8-18.73-.17-5.01-1.06-9.97-2.63-14.72-.84-2.67-2.27-5.12-4.19-7.16-.72-.79-1.63-1.38-2.65-1.72-.24-.06-1.07.32-.84.39h-.03Z"/>
    <path class="cls-1" d="M194.98,29.8v-.25c.08-30.75-24.79-55.75-55.55-55.82-30.75-.07-55.75,24.79-55.82,55.55,0,2.68.18,5.35.56,8C18,72.5-7.09,154.7,28.13,220.87c35.22,66.17,117.42,91.26,183.59,56.03,66.17-35.22,91.26-117.42,56.03-183.59-15.65-29.39-41.55-52.01-72.79-63.55v.03Z"/>
    <path class="cls-12" d="M138.74,59.01s6.48,1.43,9.86.79,7.36-1.51,7.36-1.51c0,0-6.19-2.6-7.91-2.82-1.81-.23-8.19,1.66-9.3,3.54Z"/>
    <path class="cls-12" d="M168.92,58.79s5.78,2.21,9.03,1.38c2.6-.67,3.19-1.97,3.19-1.97,0,0-2.16-2.15-3.86-2.16-1.78-.01-6.81,1.07-8.36,2.75Z"/>
    <path class="cls-3" d="M147.47,55.61c-.87-.34-1.87-.13-2.53.53-.32.28-.55.66-.65,1.07-.18.77.05,1.58.6,2.15.66.66,1.68.82,2.51.39.98-.57,1.43-1.75,1.07-2.83-.17-.55-.56-1.01-1.07-1.28"/>
    <path class="cls-3" d="M173.48,55.84c.89-.3,1.87-.04,2.5.65.29.3.5.67.6,1.07.12.77-.15,1.55-.72,2.08-.7.63-1.73.73-2.53.25-.96-.62-1.36-1.82-.96-2.89.19-.53.57-.96,1.07-1.21"/>
    <path class="cls-3" d="M168.54,58.79s3.9-3.33,6.56-3.37c3.9,0,4.82.9,6.04,2.78-1.44-1.2-3.24-1.88-5.12-1.94-2.62.11-7.48,2.53-7.48,2.53Z"/>
    <path class="cls-3" d="M156.08,58.33s-5.51-3.29-8.18-3.29c-3.88,0-8.46,2.39-9.66,4.29,0,0,6.02-3.52,8.77-3.44s9.07,2.45,9.07,2.45Z"/>
    <path class="cls-10" d="M136.66,55.04l1,2.88c.92,2.73,2.13,5.35,3.62,7.81,1.07,1.7,13.25,2.35,15.64.99,2.38-1.36,3.68-8.16,4.29-9.73l4.85.27c.44,2.04,2,8.49,2.92,9.37s6.49.71,7.11.7,1.26,0,2.05-.12c2.15-.14,4.66-.49,5.44-1.26,1.16-1.07,2.41-5.45,3.5-9.54l.18-.64c0-.15.09-.26.09-.3h0l.19-.74c-7.01-3.22-16.18-2.74-21.74,1.28v.08l-4.74-.29c-5.37-3.48-14.63-5.37-21.23-2.87h0l-18.47,5.12v1.78l15.3-4.78ZM169.57,65.95c-.58-.55-1.8-5.07-2.64-8.59,4.83-3.38,13.09-3.85,19.32-1.29v.1c-.58,2.15-2.15,8.02-3.27,9.13-1.35,1.31-12.44,1.5-13.45.67l.04-.02ZM142.74,65.24c-2.08-3.16-3.63-6.63-4.6-10.28,5.88-2.62,16.69-1.07,21.92,2.15-.83,2.84-1.86,7.81-3.56,8.78-2.45,1.41-13.06.38-13.76-.7v.05Z"/>
  </g>
</svg>