<svg xmlns="http://www.w3.org/2000/svg" xmlns:xlink="http://www.w3.org/1999/xlink" viewBox="0 0 292.89 301.99"><defs><style>.cls-1,.cls-21,.cls-23,.cls-24{fill:none;}.cls-2{clip-path:url(#clip-path);}.cls-3{fill:#c3e6f7;}.cls-4{fill:#628e9f;}.cls-5{fill:#513835;}.cls-6{fill:#0a2f44;}.cls-7{fill:#c79e81;}.cls-8{fill:#5a697c;}.cls-9{fill:#ddad6f;}.cls-10{fill:#825639;}.cls-11,.cls-28,.cls-32{fill:#151210;}.cls-12{fill:#131429;}.cls-13{fill:#040404;}.cls-14{fill:#94664a;}.cls-15{fill:#060505;}.cls-16{fill:#f1eef7;}.cls-17{fill:#13110f;}.cls-18{fill:#27153c;}.cls-19{fill:#7d7d7d;}.cls-20{fill:#262828;}.cls-21,.cls-23,.cls-24{stroke:#7d7d7d;}.cls-21,.cls-23,.cls-24,.cls-28,.cls-32{stroke-miterlimit:10;}.cls-21{stroke-width:0.74px;}.cls-22{fill:#273339;}.cls-23{stroke-width:0.7px;}.cls-24{stroke-width:0.73px;}.cls-25{fill:#465b65;}.cls-26{fill:#565656;}.cls-27{fill:#fff;}.cls-28,.cls-32{stroke:#231f20;}.cls-28{stroke-width:0.24px;}.cls-29{fill:#4f2e25;}.cls-30{fill:#231f20;}.cls-31{fill:#1d170f;}.cls-32{stroke-width:0.3px;}.cls-33{fill:#c580b7;}.cls-34{fill:#e3bcd9;}.cls-35{fill:#61174e;}.cls-36{fill:#411436;}.cls-37{fill:#975449;}.cls-38{fill:#0f0a09;}.cls-39{fill:#f5e1ee;}.cls-40{fill:#b0b0b0;}.cls-41{fill:#5e5f5f;}.cls-42{fill:#70706f;}.cls-43{fill:#412b12;}</style><clipPath id="clip-path"><path class="cls-1" d="M193.47,35.78a42.21,42.21,0,0,0-82.72-3.92,126.8,126.8,0,0,0-81.44,73.56c-.8-.07-1.6-.11-2.42-.11a28.33,28.33,0,0,0-6.68,55.87A126.49,126.49,0,1,0,193.47,35.78Z"/></clipPath></defs><g id="Layer_10" data-name="Layer 10"><g class="cls-2"><circle class="cls-3" cx="146.28" cy="153.27" r="126.49" transform="translate(-65.54 148.33) rotate(-45)"/><polyline class="cls-4" points="158.54 198.44 177.73 197.71 170.17 183.57 157.9 185.67 158.5 196.77"/><path class="cls-4" d="M159.6,168.56c-9.73,4.1-11.52,2.7-11.52,2.7l-64.4-15.18h0a33.86,33.86,0,0,1-5.53,19.81l-.09.06s43.18,20.76,60.83,26c3.69,1.09,12.66,5.17,23-2.82,3.37-2,1.39-2.57,1.84-5.64"/><path class="cls-5" d="M101.85,126.79h-.07l0-.16Z"/><path class="cls-5" d="M117.21,109.48a.16.16,0,0,0,0,.07l.14-.13Z"/><path class="cls-6" d="M220.85,207.09,239.4,255.7l1.67-.23L247,274.88s-112.63,27.48-118.63,20.93c-10.71-11.68-11.27-19.09-6.91-28.39,8-17.06,70.65-60.29,71.89-59.76Z"/><path class="cls-4" d="M162.68,83.89S143,101.09,138.81,107.8c-5.32,8.58-1.36,33.12-1.84,41.74-.54,9.55-.07,40.2-.07,40.2l35.47-.92L178,154.76,162.08,82.13Z"/><path class="cls-7" d="M180.26,59.78A44.49,44.49,0,0,0,184,71c4.13,8.51,13.19,10.41,13.19,10.41l-27.42,29.53-16.65-8.44s6.18-6.76,5.77-8.59-8-14-8-14"/><path class="cls-4" d="M187.69,75.86h2c7.17,0,22.54.37,29,3.54,14.87,7.31,13.22,28.77,15.16,35.47.91,3.26-2.09,36.6,8.48,53.12a326.35,326.35,0,0,1,19,34.18l-18,11c-8.82,5.35-25.8-1.53-35.75,1.17l-25.7,3.18c-4.85-12.46-7.42-11.09-13.1-27.72l-21.27-48.6-2.47-25.95s5.61-7.67,5.65-9.08l8-14s.54,12.57,10.64,9.73c10.42-2.93,12.31-6.78,17.19-15.73C186.44,86.13,188.42,79.61,187.69,75.86Z"/><path class="cls-4" d="M274.29,181.29c-.35-.52-.71-1-1.07-1.54a131.23,131.23,0,0,0-12.07-15.33c-4.4-4.65-8.1-8.81-10.63-15C244.16,134,242,94.07,231.86,92c-2-.42-31.21-8.42-31.21-8.42L200,83.1c1.83,1.33-6.35,12.1-7.25,13.18-6,7.18-14.12,15.67-24.26,11.55l.39,2.12.68,11.65,9.23,30.49c-.11-.31,3.15,10.76,5.18,15.7,7.64,18.61,27.53,65.91,29.85,68.93a6.53,6.53,0,0,0,6.91,2.49l51.49-42.69c2.82-2.16,4.39-5.24,3.52-8.6C275.17,185.78,275.53,183.14,274.29,181.29Z"/><path class="cls-6" d="M238.41,226l37.7,21.48-6.82,7.93L238.21,271c0-.09-24.52,7.06-24.48,7.14l40.89-8.53c3.14,6.58,6.19,18,6.23,25.3l0,6.6s-96.84,25-118.22,9.72c-12.89-9.21-10.55-19.5-5.84-28.62C145.39,266,202.8,216,205,216l29.37-2.19Z"/><path class="cls-6" d="M274.88,187.17s-9,8.61-29.63,7.61a175.33,175.33,0,0,1-12.62,17.11c-8.45,10.29-17.56,20-25.74,30.52,11.39,3.63,35.05,14.64,46.94,15.76,15.59,1.57,29-8,33.87-24.94C291.44,220.26,288.07,198.3,274.88,187.17Z"/><path class="cls-8" d="M246.67,271.39c-8.6,2-17.3,3.58-26,5.2-8.22,1.54-16.45,3.1-24.71,4.4-2.8.43-7.1,1.49-7.8,4.69-.08.36.94.19,1-.13.69-3.16,4.93-3.76,7.36-4.15,3.51-.57,7-1.19,10.52-1.81,9.26-1.66,18.5-3.38,27.73-5.22,4-.79,8-1.59,12-2.51.62-.14.49-.61-.12-.47Z"/><rect class="cls-9" x="137.47" y="28.55" width="4.96" height="13.23" rx="2.48" transform="translate(284.05 27.53) rotate(162.86)"/><rect class="cls-9" x="155.91" y="39.04" width="4.96" height="13.23" rx="2.48" transform="translate(295.27 -46.19) rotate(130.06)"/><path class="cls-10" d="M180.5,60.78l0,.09S180.52,60.79,180.5,60.78Z"/><path class="cls-7" d="M166.27,87.3l-8.5,4.3-4,1.5a4.49,4.49,0,0,1-4.86-.9c-2.91-2.67-4.08-4.16-4.45-4.47A59.82,59.82,0,0,1,138,81c-1.67-2.11-3.06-3.2-4.57-5.94-1.1-2-1.7-3.49-1.93-7.39a5.23,5.23,0,0,0-1-2.72c-1.25-1.8-2.33-4.05-3.94-6.49a5.92,5.92,0,0,1-.78-1.36s-4.86-10.89-4.43-15.65.78-9.56,3.39-11.47,13.35-3,13.35-3l11.2-6.41,12.08,1,10,10.23,4.91,14.53,4.24,14.41"/><path class="cls-11" d="M165.61,26.9c-1.71-6.64-8.3-6.79-11.1-7-2.36-.14-8.73.27-12.63,2.51-1.68,1,.64,4.39-.07,5.44-.28.19-3.58,2.45-4.93,3.22a15.8,15.8,0,0,1-5.47,2.29,6.7,6.7,0,0,0-3.17.91c-1.73,1-4.31-3.23-6.4,2.54l-.26-.12c2.31-8.17,8.62-10.53,15.69-14.6.75-.43,1.53-.85,2.33-1.23,11.6-5.56,11.26-5.32,22.12-.47,6.31,2.82,10.69,6.17,11.72,9l.23.63c1.08,2.91,7.09,9.59,6.7,11.57-.25,1.27-.56,6.53-.78,11l-5.65,2.36c-.3-1.12-3.47-10.49-3.84-11.61"/><path class="cls-7" d="M180.32,61.08c6.38,2.65,4.26-5.34,4.26-5.34,1.62-5.16-.07-9.25-1.33-12s-4.33-1.44-4.33-1.44c-2.5,1.36-3.7,2.61-2.26,12.32"/><path class="cls-11" d="M128.9,31.14c4.25-1.75,14.32-9.11,20-11.75,2.34-1.1,12.65,1.72,14.22,2.66,3.59,2.17.89,11.45,8.88,19.73,2.63,2.74,2.29-3.73,4.84-2.26s3.55,2.07,3.55,2.07c-2.45-10-2.35-9.61-8.11-18.14s-17.51-8.6-22.74-7.45-20.42,8.91-23.91,12.57"/><path class="cls-12" d="M179.21,52.7a20.83,20.83,0,0,1,.8-5.37,4.4,4.4,0,0,1,1-1.84,1.06,1.06,0,0,0,.13-.11c.05-.05,0,0,0,0l-.29,0a3.16,3.16,0,0,1,.87.8,6.23,6.23,0,0,1,1.2,3c0,.16.5,0,.47-.13a5.94,5.94,0,0,0-1.53-3.38c-.25-.26-.6-.66-1-.46-.82.43-1.19,1.68-1.42,2.48a22.21,22.21,0,0,0-.7,5.07c0,.2.46.1.47-.06Z"/><path class="cls-12" d="M179.43,53.87c1.42-.66.8,3.54,2.4,2.53a1.85,1.85,0,0,0,.64-1.16,6.18,6.18,0,0,0,.07-2.23,5.35,5.35,0,0,0-.77-2,3.08,3.08,0,0,0-2.36-1.84c-.17,0-.51.25-.19.26.9,0,1.57.89,2,1.58a5.29,5.29,0,0,1,.74,1.62,6.25,6.25,0,0,1,.11,2.28,3.74,3.74,0,0,1-.21.83c-.05.15-.16.47-.33.54.08,0,0,0-.07-.08a.57.57,0,0,1-.12-.15,1.92,1.92,0,0,1-.18-.45c-.12-.36-.19-.73-.3-1.08a1.51,1.51,0,0,0-.52-.86,1.12,1.12,0,0,0-1.09,0c-.3.13,0,.28.18.18Z"/><path class="cls-11" d="M151.21,52.6a1.89,1.89,0,0,1,2.78.12,1.82,1.82,0,0,1,.24,1.71,1.69,1.69,0,0,1-1.67,1.07,1.88,1.88,0,0,1-1.69-1.66,1.66,1.66,0,0,1,.34-1.24"/><path class="cls-11" d="M132.61,61A1.85,1.85,0,0,0,131,62.3a1.73,1.73,0,0,0-.07,1,1.83,1.83,0,0,0,1.17,1.26,1.7,1.7,0,0,0,1.88-.64,1.86,1.86,0,0,0-.23-2.36,1.69,1.69,0,0,0-1.18-.51"/><path class="cls-11" d="M139,60.58s-3.84-1.13-5.75-.31c-2.79,1.21-3.14,2.17-3.42,3.9a6.62,6.62,0,0,1,3-3C134.78,60.4,139,60.58,139,60.58Z"/><path class="cls-11" d="M147.75,56.28s2.88-4.1,4.78-5c2.77-1.24,6.79-1,8.26,0,0,0-5.42-.59-7.35.34S147.75,56.28,147.75,56.28Z"/><path class="cls-11" d="M141.89,47.84l.9,2c.23.5.71,1.66,1,2.16,1.56-1.22,2.86-2.57,3.91-3.27,2.1-1.37,4.17-2.93,6.6-3.64a8.93,8.93,0,0,1,3.37-.42c.36,0,1.45.37,1.8,0,.14-.16-.51-.83-.58-.9-1.33-1.37-3.18-1.35-5.24-.89a39.93,39.93,0,0,0-11.71,5"/><path class="cls-11" d="M124.88,55.79l1.07-.72a27.4,27.4,0,0,1,9.81-3.84l.73,2c.19.52.56,1.45.74,2-1.66.1-3.15,0-4.18.21A18.09,18.09,0,0,0,127,57.12c-.14.09-.92.54-1,.63C125,57,124.66,56,124.88,55.79Z"/><path class="cls-13" d="M173,46.3l-.6-1.26-14.8,2.23h0c-5.5.31-11.5,4.62-14.21,8.81l-3.29,1.71v-.07c-5.24-1.09-11.95,1.45-15.9,6l.37.47h0s.09.09.16.19l.33.4c2.07,2.57,4.35,5.25,5.54,5.68.8.3,2.73-.27,4.27-.83.59-.21,1.12-.42,1.5-.57s4.47-1.85,4.85-2.77-.57-6-.9-7.6L143.65,57c.95.92,4,5.35,6.17,5.57s10.58-4.12,10.83-5.68a30.67,30.67,0,0,0,.1-6.72l-.21-2.37ZM140.57,66c-.45.92-8.42,4.32-9.8,3.82-1.17-.43-4.12-4.1-5.24-5.48l0-.06c3.65-3.83,9.69-6.12,14.21-5.25.53,2.78,1.09,6.39.86,7ZM159.47,57c-.15,1-7.38,5.1-9.58,4.88-1.52-.15-3.84-3.36-5.34-5.13,2.69-4,9.91-8.54,14.93-8.54a27,27,0,0,1,0,8.79Z"/><path class="cls-14" d="M150.32,75.9c3.28-1.47,8.42-4.24,8.42-4.24s2.94,8.25-4.66,11.67-11.46-4.44-11.46-4.44S147,77.37,150.32,75.9Z"/><path class="cls-15" d="M150.28,75.91c1.56-.69,7.73-3.78,7.73-3.78s.38,6.41-5.26,8.94a7.14,7.14,0,0,1-9.28-2.35Z"/><path class="cls-16" d="M150.32,76.18c1.56-.7,6.19-3.09,6.19-3.09s-.94,2.47-5.62,4.57S144,78.77,144,78.77Z"/><path class="cls-14" d="M142.33,78.45c.15-.12-.15.38.59,0,1.24-.69,1.9-1.39,2.8-1.88,1.54-.84,2.84-.67,3.53-1s1.43-1.39,3.08-2c1-.34,3.44-1,4.78-1.51a13.74,13.74,0,0,0,1.76-1c.26,0,.57,1.84-8.16,5.75S142.12,78.61,142.33,78.45Z"/><path class="cls-11" d="M149.5,73.22,150,74a.58.58,0,0,0,.64.23c1.71-.47,8-2,9.49-2.65a.81.81,0,0,0,.18-.1l.17-.09c.51-.34,0-1-.58-1a33.89,33.89,0,0,0-4.37.43,37.67,37.67,0,0,0-5.8,1.51A.59.59,0,0,0,149.5,73.22Z"/><path class="cls-11" d="M147.33,74.07l.4.9a.57.57,0,0,1-.22.6c-1.24.81-5.15,3.69-6.36,4.2l-.5.24-.28.09c-.49.09-.45-1.07-.1-1.45a22.61,22.61,0,0,1,2.4-2.42,24.92,24.92,0,0,1,4-2.62A.53.53,0,0,1,147.33,74.07Z"/><path class="cls-11" d="M151.1,94.27,149.51,93s16-3.93,18.63-6c6.85-5.39,8.28-19,8.28-19a32.16,32.16,0,0,1-2,11.87c-2.37,6.57-3.16,7.6-7.78,9.46-3.5,1.41-9.92,4.11-12.81,5.33A2.68,2.68,0,0,1,151.1,94.27Z"/><path class="cls-11" d="M182.77,43s.54-5.77-2.54-13.55-7.76-18-18.39-18.56a19.63,19.63,0,0,0-5.64.54s-8.37-3.82-23.72,6c-10.77,6.88-13.47,13.46-11,22.83,0,0,1.39-5.94,2.55-5.89s3,2,7,.82,10.08-4.3,12-7S149,22,151.85,21.26c6.88-1.71,9.57,2.94,11.26,5.61s7.33,12.26,11.1,12.38a5.52,5.52,0,0,1,5,2.87h.61a5.52,5.52,0,0,1,3,.85Z"/><path class="cls-11" d="M176.42,68c-3.85,11.49-7.32,15.73-10,17.06s-4.48,3-6.77,3c-2.79,0-4-1-4.44-.29-.19.32-.59,2.21-.78,2.52-.41.66-2.23,1.11-3,1.11a7.41,7.41,0,0,1-5.16-1.74c1.38,1.52,3,3.84,5,4.07,1.27.13,2.76-.71,4-1.14,2.62-1,5.11-1.86,7.7-2.89,2.28-.91,4.65-1.7,6.5-3.31,3.11-2.7,5.08-9,6.09-13.15Z"/><path class="cls-17" d="M148,70.69A6.65,6.65,0,0,1,145,72.36a2.26,2.26,0,0,1-1.31.11,4.5,4.5,0,0,1-1.17-.45c-.58-.33-.64-1.16-.7-1.76s0-1.14-.06-1.7c0-.14-.4-.06-.38.1,0,.48,0,1,0,1.44a3.6,3.6,0,0,0,.41,1.77,2.68,2.68,0,0,0,1.59.81,3.64,3.64,0,0,0,2.22-.3,7,7,0,0,0,2.62-1.62c.15-.16-.22-.17-.32-.07Z"/><path class="cls-17" d="M150.68,67s0,0,0,0h.09a.38.38,0,0,1,.17.08,1.14,1.14,0,0,1,.32.3,2.65,2.65,0,0,1,.39.79c.25.8-.41,1.38-1,1.72a2,2,0,0,1-.76.15,5.16,5.16,0,0,0-.78.08s-.23,0-.23.1.12,0,.15,0a9.35,9.35,0,0,0,1.67-.25,2.89,2.89,0,0,0,1.2-.87,1.13,1.13,0,0,0,.19-1.06,2.49,2.49,0,0,0-.52-.94.85.85,0,0,0-1-.18s-.11.06-.05.1a.42.42,0,0,0,.27-.06Z"/><path class="cls-18" d="M144.22,136c5.36,11.6,11.21,23,16.19,34.75.13.3.91.06.8-.21-5-11.78-10.83-23.15-16.19-34.76-.14-.29-.92,0-.8.22Z"/><path class="cls-8" d="M133,293.36c.13-5.63.27-11.4,2-16.81s5.45-9.74,9.48-13.71c8.39-8.28,17.79-15.48,27.21-22.53a129.14,129.14,0,0,0,10.86-8.62c.51-.47-.29-.85-.68-.49a115.82,115.82,0,0,1-9.66,7.72c-4.65,3.49-9.3,7-13.83,10.6-4.75,3.83-9.39,7.82-13.78,12-4,3.81-7.9,7.94-10,13.12-2.35,5.93-2.53,12.45-2.67,18.74,0,.55,1,.41,1-.07Z"/><path class="cls-4" d="M270.07,176c2.93,1.26,5.29,5.72,5.9,8.27a7,7,0,0,1-.24,3.69,9.19,9.19,0,0,1-2,2.72c-4.91,4.32-9.85,8.66-15.39,12.14-10.78,6.77-23.35,10-35.71,13s-20.87,4.46-33.6,4.46c-8.79,0-10.88-4.38-11.58-6.48-.77-2.29,1.56-4.35,3.6-5.65,5.45-3.48,12.77-1.43,18.22-4.91"/><path class="cls-4" d="M213.34,168.46S200,94.61,202.14,90.34"/><path class="cls-4" d="M214.89,78.06c8.16.38,21,11.07,23.4,18,11.05,35.59,6.17,79.15-2.1,90.88"/><path class="cls-18" d="M193.78,166.56a9.63,9.63,0,0,1,4.57,1.58,11.9,11.9,0,0,1,4.54,4.61,8.73,8.73,0,0,1,1,4c0,.42.85.28.85-.08,0-4.82-3.77-8.6-8.09-10.19a7.53,7.53,0,0,0-2.52-.54c-.18,0-.47.05-.55.25a.25.25,0,0,0,.25.33Z"/><path class="cls-8" d="M207,279.59l34.25-10.75,4.82-1.51c.61-.19.51-.64-.12-.44l-34.25,10.75-4.82,1.51c-.61.19-.51.64.12.44Z"/><path class="cls-7" d="M125.07,177.85s-9.26-3.25-13.78-4.06l-.14-.12-.6-.95s-3.92-4.84-3.94-4.83l-4.16-5.13-10,8s7.75,9.05,11.47,11.63c0,0,.33.17.34.14,5.52,2.63,13,2.4,20.65,1.79,0,0,6.46,2.87,8.45,2.92,4.21.1,4.9-2.12,4.12-1.91a4.62,4.62,0,0,1-3.41-.32s5.26-.83,5.45-2.15-1.5.12-4.67-.67c0,0,6.23-1.12,5.66-3.75-.15-.7-2.3,1.16-3.58,1.25a4.41,4.41,0,0,1-2.39-.58s4.94-1.44,4.71-2.89c-.11-.72-1.94,0-3.28.08a4.53,4.53,0,0,1-2.28-.34s2.78.92,2.67-.44-2.77-1-4.75-.62S125.07,177.85,125.07,177.85Z"/><path class="cls-7" d="M121.14,183.12q0,.57-.06,1.14a1.3,1.3,0,0,0,.84-.67C122,183.48,121.61,183.31,121.14,183.12Z"/><path class="cls-19" d="M68.27,237.21a1.8,1.8,0,0,0-3.59,0v54.07a1.8,1.8,0,0,0,3.59,0V237.21Z"/><path class="cls-19" d="M91.68,155.27h0a2.07,2.07,0,0,0,2,2.06,2.1,2.1,0,0,0,2-2.06c.16-2.4.15-18.58,0-21-.1-1.29-.26-2.58-.46-3.86a7.34,7.34,0,0,0-.89-2.76c-1.27-2.1-3.58-2.47-5.85-2.33a70.61,70.61,0,0,0-7.25.86,2.06,2.06,0,0,0-1.43,2.52,2.1,2.1,0,0,0,2.52,1.43c1.91-.32,3.81-.54,5.75-.68.44,0,.88-.06,1.32-.07h.64c.35,0,0,0,.19,0l.3.08c-.13-.08-.14-.08,0,0s.39.25.17.09c.15.17.18.2.1.1s-.06,0,.06.13,0,0,.09.16a21,21,0,0,1,.72,5.41c.12,2,.1,17.84,0,19.87Z"/><path class="cls-19" d="M27.19,157.29h0a2,2,0,0,0,4.1,0c.16-2.4.15-18.58,0-21-.1-1.29-.26-2.58-.46-3.86a7.34,7.34,0,0,0-.89-2.76c-1.27-2.11-3.58-2.47-5.85-2.33a70.59,70.59,0,0,0-7.25.85,2.07,2.07,0,0,0-1.43,2.53,2.11,2.11,0,0,0,2.52,1.43c1.91-.32,3.81-.54,5.75-.68.44,0,.88-.07,1.32-.07.21,0,.43,0,.64,0s0,0,.19,0a1.67,1.67,0,0,1,.3.08c-.13-.08-.14-.08,0,0s.39.26.17.1c.15.17.18.2.1.1s-.06-.06.06.13,0,0,.09.16a20.93,20.93,0,0,1,.72,5.41c.12,2,.1,17.84,0,19.87Z"/><path class="cls-20" d="M98,208.27l-2.15-61.46s-70.2-1.37-70.19,2.31c0,2.77,1.16,56.28,0,59.15Z"/><path class="cls-20" d="M24.89,127.33s-1.65,2.92.07,4.09l-10.19,1.31s-1.78-1.87-.94-3.95S24.89,127.33,24.89,127.33Z"/><line class="cls-21" x1="103.53" y1="269.25" x2="143.75" y2="231.45"/><line class="cls-21" x1="104.21" y1="222.5" x2="140.33" y2="285.17"/><line class="cls-21" x1="101.25" y1="250.2" x2="143.75" y2="253.07"/><line class="cls-21" x1="101.25" y1="238.63" x2="144.87" y2="267.02"/><path class="cls-1" d="M125.89,207.55l-.47,0c-11.13.56-18.91,20.33-17,43.17,1,11.39,4.1,22,8.83,29.8,4.5,7.44,10.07,11.56,15.25,11.28,11.13-.56,18.91-20.33,17-43.17-1-11.39-4.1-22-8.83-29.8-4.37-7.21-9.72-11.3-14.78-11.3Z"/><path class="cls-19" d="M119.58,293.79c-6.15,0-12.17-4.38-17-12.42s-8.09-18.87-9.07-30.51h0c-2.07-24.72,6.42-44.59,19.34-45.25,6.36-.31,12.65,4.09,17.69,12.41,4.86,8,8.08,18.87,9.06,30.5,2.08,24.72-6.41,44.6-19.33,45.26Zm-6.12-86.24-.48,0c-11.12.56-18.9,20.33-17,43.17,1,11.39,4.09,22,8.83,29.8,4.49,7.44,10.06,11.56,15.24,11.28,11.13-.56,18.91-20.33,17-43.17-1-11.39-4.1-22-8.83-29.8-4.36-7.21-9.72-11.3-14.77-11.3Z"/><path d="M97,214.9c-3.95,9.62-5.51,22.15-4.41,35.29s4.76,25.4,10.29,34.53c5.81,9.62,13.26,14.86,21.06,14.86.29,0,.59,0,.88,0,8.12-.41,15-6.42,19.28-16.92,3.95-9.61,5.52-22.14,4.41-35.28s-4.76-25.41-10.28-34.54c-6-10-13.86-15.25-22-14.83s-15,6.42-19.28,16.92Zm3.13,34.9c-1-12.42.4-24.18,4.07-33.11,3.21-7.81,7.91-12.62,12.57-12.85h.37c4.58,0,9.88,4.25,14.25,11.48,5.13,8.48,8.54,20,9.58,32.42s-.4,24.19-4.07,33.12c-3.2,7.81-7.9,12.61-12.57,12.85s-10.13-4.05-14.62-11.47c-5.13-8.48-8.53-20-9.58-32.43Z"/><path class="cls-1" d="M97,214.9c-3.95,9.62-5.51,22.15-4.41,35.29s4.76,25.4,10.29,34.53c5.81,9.62,13.26,14.86,21.06,14.86.29,0,.59,0,.88,0,8.12-.41,15-6.42,19.28-16.92,3.95-9.61,5.52-22.14,4.41-35.28s-4.76-25.41-10.28-34.54c-6-10-13.86-15.25-22-14.83s-15,6.42-19.28,16.92Zm3.13,34.9c-1-12.42.4-24.18,4.07-33.11,3.21-7.81,7.91-12.62,12.57-12.85h.37c4.58,0,9.88,4.25,14.25,11.48,5.13,8.48,8.54,20,9.58,32.42s-.4,24.19-4.07,33.12c-3.2,7.81-7.9,12.61-12.57,12.85s-10.13-4.05-14.62-11.47c-5.13-8.48-8.53-20-9.58-32.43Z"/><path class="cls-22" d="M100.12,249.8s0-.17-.06-.51-.07-.86-.13-1.53c-.09-1.34-.21-3.32-.22-5.87a82.93,82.93,0,0,1,.48-9.28c.2-1.81.47-3.74.88-5.77a56.82,56.82,0,0,1,1.6-6.39,44.93,44.93,0,0,1,2.76-6.84,25,25,0,0,1,4.88-6.78,12,12,0,0,1,4.07-2.63,8.07,8.07,0,0,1,2.67-.52,9.3,9.3,0,0,1,2.74.44,15,15,0,0,1,4.58,2.55,25.85,25.85,0,0,1,3.58,3.51c4.27,5.09,7.08,11.13,9.22,17.47a87.87,87.87,0,0,1,4,20.07,86.1,86.1,0,0,1-.61,20.3c-1.06,6.51-2.85,12.78-6.22,18.26a23.15,23.15,0,0,1-3,3.85,13.18,13.18,0,0,1-4.11,3,8,8,0,0,1-5.38.47,12.81,12.81,0,0,1-4.47-2.2,27.68,27.68,0,0,1-6-6.23,48,48,0,0,1-3.88-6.5,62,62,0,0,1-2.67-6.18c-.74-2-1.33-3.85-1.83-5.62a86.2,86.2,0,0,1-2-9.16c-.42-2.53-.63-4.5-.77-5.84q-.08-1-.12-1.53c0-.34,0-.52,0-.52s0,.18.07.52.1.86.17,1.52c.16,1.34.4,3.31.85,5.83a85.28,85.28,0,0,0,2.1,9.14c.51,1.76,1.11,3.64,1.86,5.6a61.83,61.83,0,0,0,2.68,6.15,48.14,48.14,0,0,0,3.89,6.46,27.37,27.37,0,0,0,5.92,6.15A12.63,12.63,0,0,0,122,293.3a7.51,7.51,0,0,0,5.07-.45,12.72,12.72,0,0,0,4-2.91,22.73,22.73,0,0,0,2.92-3.8c3.33-5.43,5.1-11.68,6.15-18.16a86.13,86.13,0,0,0,.6-20.24,88.21,88.21,0,0,0-4-20c-2.13-6.32-4.93-12.34-9.14-17.38a24.8,24.8,0,0,0-3.54-3.48,14.7,14.7,0,0,0-4.43-2.49,9.16,9.16,0,0,0-2.59-.41,7.57,7.57,0,0,0-2.52.48,11.76,11.76,0,0,0-4,2.55,24.91,24.91,0,0,0-4.85,6.7,45.25,45.25,0,0,0-2.77,6.8,58.58,58.58,0,0,0-1.63,6.37c-.41,2-.7,3.94-.9,5.74a85.28,85.28,0,0,0-.56,9.27c0,2.55.07,4.53.14,5.87,0,.66.07,1.17.09,1.52s0,.52,0,.52Z"/><path class="cls-1" d="M123.93,299.58c-7.8,0-15.25-5.24-21.06-14.86-5.53-9.13-9.18-21.39-10.29-34.53l3.77-.19-3.77.19c-1.1-13.14.46-25.67,4.41-35.29,4.32-10.5,11.16-16.51,19.28-16.92s15.91,4.86,22,14.83c5.52,9.13,9.18,21.4,10.28,34.54S148,273,144.09,282.63c-4.31,10.5-11.16,16.51-19.28,16.92-.29,0-.59,0-.88,0Zm-6.8-95.75h-.37c-4.66.23-9.36,5-12.57,12.85-3.67,8.93-5.11,20.69-4.07,33.11s4.45,23.95,9.58,32.43c4.49,7.42,10,11.71,14.62,11.47s9.37-5,12.57-12.85c3.67-8.93,5.12-20.69,4.07-33.12s-4.45-23.94-9.58-32.42c-4.37-7.23-9.67-11.48-14.25-11.48Z"/><path class="cls-22" d="M113,249.64c-.5-6,1.56-11,4.61-11.21s5.94,4.62,6.44,10.65-1.55,11.06-4.6,11.21-5.94-4.61-6.45-10.65Z"/><path class="cls-19" d="M124.93,233.8a1.56,1.56,0,0,0-3.12,0v47.11a1.56,1.56,0,0,0,3.12,0V233.8Z"/><line class="cls-23" x1="118.48" y1="208.85" x2="119.36" y2="292.78"/><line class="cls-23" x1="128.52" y1="203.3" x2="111.23" y2="285.59"/><path class="cls-19" d="M126,284.87c.07,0,1.09,3.77,1.16,3.73,1-.51,2-1,3.07-1.4-2-7.49-5-18.81-7-26.31q-.75-2.82-1.47-5.66c-.51-2-.88-4.08-1.58-6a10.71,10.71,0,0,0-4.55-5.95c-2.93-1.63-12.73-1.31-16-.83a1.67,1.67,0,0,0-1.25,2.05,1.87,1.87,0,0,0,2.2,1.16,76.74,76.74,0,0,1,11.53-.09,8.68,8.68,0,0,1,1,.27l.09,0,.06,0,.33.15a5.33,5.33,0,0,1,.51.31l.43.34a6.09,6.09,0,0,1,.44.44l.1.1.07.1a10.71,10.71,0,0,1,1.23,2,26.69,26.69,0,0,1,1.34,4.61c2.09,8.72,4.53,17.38,6.85,26C125.09,281.58,125.53,283.23,126,284.87Z"/><path class="cls-20" d="M130.72,237.9l-1.11-31.54-107.3,5.88-.14,26.93,39.67,3.4c51.42,9,68.6-3.82,68.88-4.67Z"/><line class="cls-24" x1="110.58" y1="200.95" x2="127.25" y2="305.09"/><ellipse class="cls-25" cx="130.74" cy="294.89" rx="11.84" ry="10.98"/><ellipse class="cls-26" cx="130.74" cy="294.89" rx="11.84" ry="10.98"/><path class="cls-27" d="M130.74,291.5a3.39,3.39,0,1,1-3.65,3.39A3.53,3.53,0,0,1,130.74,291.5Z"/><path class="cls-22" d="M129.22,266.89v9.22H128s-.88,9.38,0,11.66a28.25,28.25,0,0,0,4,5.73,1.8,1.8,0,0,1,.12,2.19h0a2.17,2.17,0,0,1-3.09.46c-2.41-1.88-6.43-5.14-7.4-6.66-1.4-2.21-2.11-14.11-2.11-14.11h3.43v-8.49Z"/><path d="M129.22,266.89v9.22H128s-.88,9.38,0,11.66a28.25,28.25,0,0,0,4,5.73,1.8,1.8,0,0,1,.12,2.19h0a2.17,2.17,0,0,1-3.09.46c-2.41-1.88-6.43-5.14-7.4-6.66-1.4-2.21-2.11-14.11-2.11-14.11h3.43v-8.49Z"/><path class="cls-20" d="M87,126.87s-1.71,3,.06,4.23l-10.56,1.36s-1.84-1.93-1-4.1S87,126.87,87,126.87Z"/><path class="cls-19" d="M90.48,290.68c.06,0,1.09,3.76,1.16,3.73a30.58,30.58,0,0,1,3.07-1.4c-2-7.49-5-18.81-6.95-26.31-.5-1.89-1-3.77-1.47-5.66S85.41,257,84.71,255a10.69,10.69,0,0,0-4.55-5.94c-2.93-1.63-12.73-1.31-16-.83A1.66,1.66,0,0,0,63,250.27a1.87,1.87,0,0,0,2.2,1.16,75.44,75.44,0,0,1,11.53-.09,8.68,8.68,0,0,1,1,.27l.09,0,.06,0,.32.15a5.48,5.48,0,0,1,.52.31s.36.27.43.34a6.09,6.09,0,0,1,.44.44l.1.1.07.1a10.71,10.71,0,0,1,1.23,2,25.8,25.8,0,0,1,1.33,4.61c2.1,8.72,4.54,17.37,6.86,26C89.58,287.39,90,289,90.48,290.68Z"/><polygon class="cls-20" points="85.95 272.91 89.55 289.15 128.53 281.55 125.36 266.14 85.95 272.91"/><path class="cls-7" d="M116.14,205.59a57,57,0,0,1-15,1.43c1.76,9.67,4.84,42.26,4.84,42.26l9.06-1.41s4.17-29.36,3.71-43.09Q117.46,205.25,116.14,205.59Z"/><path class="cls-20" d="M129.61,210.82a3.85,3.85,0,0,1-4,3.62l-29.11.69a3.87,3.87,0,0,1-4.16-3.62V191.58A3.85,3.85,0,0,1,96.43,188h29.12a3.86,3.86,0,0,1,4.06,3.62v19.24Z"/><ellipse class="cls-26" cx="58.55" cy="298.97" rx="11.66" ry="11.89"/><path class="cls-27" d="M62.7,299a4,4,0,1,1-4-3.67A3.82,3.82,0,0,1,62.7,299Z"/><path d="M70.35,268.66v9.19l.61.22s-.77,12.67-2.29,15.06c-1,1.64-5.4,5.17-8,7.21a2.35,2.35,0,0,1-3.35-.5h0a1.94,1.94,0,0,1,.13-2.37c1.32-1.58,3.61-4.47,4.27-6.2,1-2.47,0-12.63,0-12.63H63.5v-10"/><path class="cls-7" d="M52.53,186.75,49,198.41c-1.28,4.25.81-1.79-.32,2.23-1.5,5.35,39.17,3.16,39.7,3.82s7.81,46.73,7.81,46.73l10.06-.25s3.46-46.92.1-51.22c-3.62-4.63-21.19-13.62-35.12-15a7.5,7.5,0,0,1-2.79-1.38c-6.48,1.53-14.06,2.92-15.94,3.4Z"/><path class="cls-28" d="M68.41,139.2c7.6,1.18,15.52-3.41,20.65-8.66,3-3.08,5.46-6.95,6-11.29a25.54,25.54,0,0,0-1.59-11.14c-1.08-3.21-2.46-5.94-5.18-8.06a18,18,0,0,0-9-3.58c-1-.11-1.94-.17-2.92-.21-8.65-.37-19.72,4-22.95,11.51a19.42,19.42,0,0,0-.76,2.15,15.62,15.62,0,0,0-.4,2.15c0,9.73.86,25.87,14.68,25.14A1.52,1.52,0,0,1,68.41,139.2Z"/><path class="cls-7" d="M95.87,128.49a18.29,18.29,0,0,0-1.61-7c-.09-1.06-.21-2.28-.35-3.76,0-.43-.1-.84-.15-1.24a4.58,4.58,0,0,1-.1-.63c-1.1-7.15-3.93-10.62-3.93-10.62a16,16,0,0,0-14.89-5.64c-6.63.93-12.14,5.67-14.77,10.09A10.29,10.29,0,0,0,58.79,117a41.79,41.79,0,0,0,2.08,6.78c-2.34.17-5.2,1.18-3.84,5.34,1.87,5.74,6.32,5.72,8.13,4.23a13.18,13.18,0,0,1,2.48,5.69c.36,1.67.76,4.51,0,6l-2.54,1.67c6,7.45,21.41,13.33,25.18.32L87,144.52l-.47-2.62c1.29-.25.39,0,2.75-1.05C96.33,137.17,95.89,131.2,95.87,128.49Z"/><path class="cls-29" d="M86.75,143.14l-.18-1.24s-6.93,1.67-12.33-1.61c0,0,3.86,3.24,7.75,3.32S86.75,143.14,86.75,143.14Z"/><path class="cls-11" d="M63.81,125.56a.81.81,0,0,1,.1.56.54.54,0,0,1-.64.31,2,2,0,0,1-.67-.37c-1.36-1-3.29-2.56-4.86-2a18.18,18.18,0,0,1,.19-17.87c1-1.82,3.78-3.87,4.62-4.53,5.12-3.93,9.78-4.34,15.55-3.93,8.64.63,9.6,2.33,13.17,9.34,0,0-6.57,4.05-18.6-.13.29.06-1.49,3.42-1.57,3.53a14.48,14.48,0,0,1-2.72,3c-1.09.82-2.72,1.29-3.7,2.26a4.93,4.93,0,0,0-1.14,3.28Z"/><path class="cls-30" d="M63.44,125.66c.33.93-.81,0-.83,0l-.6-.44a10.4,10.4,0,0,0-1.81-1.1,3.55,3.55,0,0,0-2.52-.25l.43.12a19.09,19.09,0,0,1-2.21-10c.21-3.16,1.24-6.79,3.42-9.17a24.2,24.2,0,0,1,6.63-5,19.43,19.43,0,0,1,9.22-1.93c4,0,9.29.08,12.18,3.36a24.31,24.31,0,0,1,3.08,5c.08.16.49.84.55.71a1.19,1.19,0,0,0-.2.1,4.52,4.52,0,0,1-1.3.54c-5.35,1.88-11.37.89-16.59-.89-.15,0-.79.14-.56.38s-.92,2.1-1,2.33a11.5,11.5,0,0,1-1.62,2.42,13.55,13.55,0,0,1-4,2.89,4.39,4.39,0,0,0-2.15,2.36,10.47,10.47,0,0,0-.26,4.32l.17,4.22c0,.28.76.12.74-.2L64,121.13c-.08-2-.4-4.32,1.45-5.66,1.11-.8,2.44-1.18,3.49-2.07a12.56,12.56,0,0,0,2.53-2.91c.31-.5,2-3.19,1.54-3.68l-.56.38a29.39,29.39,0,0,0,14.11,1.63,13.76,13.76,0,0,0,5-1.59c.06,0,.17-.15.13-.23-1.29-2.52-2.52-5.47-4.85-7.22-2.48-1.88-6-2.09-9-2.28-4.34-.28-8.66,0-12.55,2.13-3.41,1.82-6.91,4.59-8.52,8.18a18.77,18.77,0,0,0,.61,16.38.37.37,0,0,0,.43.12c1.22-.34,2.36.42,3.32,1.08.55.37,1.26,1.13,1.93,1.26s1.42-.39,1.13-1.19C64.08,125.17,63.34,125.37,63.44,125.66Z"/><circle class="cls-30" cx="92.28" cy="119.91" r="1.47"/><path class="cls-11" d="M93.85,118.49a4.74,4.74,0,0,0-3.13-.25c-2.24.47-2.93,3.41-2.93,3.41a5.09,5.09,0,0,1,3.14-2.81,5.36,5.36,0,0,1,3,.29A3.5,3.5,0,0,1,93.85,118.49Z"/><path class="cls-31" d="M79.24,117.26s-5.84.5-6.86,1.82c0,0,.66-1.73,5.57-2.57C78,116.51,80.38,116.48,79.24,117.26Z"/><path class="cls-31" d="M87.38,116.27s5.64-1.58,7.07-.71c0,0-1.24-1.39-6.12-.44C88.33,115.12,86,116,87.38,116.27Z"/><path class="cls-30" d="M59.37,129a2.82,2.82,0,0,1-.25-2.3l-.15.11c-.1,0,0,0,0,0H59a2,2,0,0,1,.56.24A9.36,9.36,0,0,1,62,129.47l.34-.19a1.21,1.21,0,0,0-.91-.16.73.73,0,0,0-.47.81,1.59,1.59,0,0,0,1.81,1.32c.08,0,.23,0,.26-.11s0-.15-.12-.15a1.38,1.38,0,0,1-1.52-1c0-.16-.07-.56.1-.66s.41.06.54.13.46,0,.34-.2a12.91,12.91,0,0,0-1.67-1.88,4.49,4.49,0,0,0-1-.73,1.5,1.5,0,0,0-.55-.15c-.23,0-.33.12-.4.33A3.15,3.15,0,0,0,59,129.1c.07.16.47,0,.4-.11Z"/><circle class="cls-31" cx="77.95" cy="121.76" r="1.47"/><path class="cls-11" d="M82.15,122.24s-2.54-2.69-5-2.2c-3.46.69-3.81,3.09-4.35,4.29,0,0,1.81-3.24,4.5-3.71C79.73,120.2,82.15,122.24,82.15,122.24Z"/><path class="cls-32" d="M53.33,109.78s-4.63-7.66-10.95-4.42-5.15,14,.2,17.44c0,0-2.09-6.13-.62-7,0,0,1.4,2.73,3,3.2,0,0-2.16-6.61,2.31-7.11a17.16,17.16,0,0,1,5.76.58"/><path class="cls-33" d="M101.2,151.68c-3.45-4.13-11.34-5.63-11.34-5.63s-.86,9.39-10.07,7.44C69.13,151.23,68,143.62,68,143.62c-.37,0-5.6,3.15-10.66,5.27a19,19,0,0,1,7.56,9.58c.94,3.28,3.52.48,2.81,3.82a39.21,39.21,0,0,1-2.4,7.22c-.7,1.62-2.2,5.28-4.55,4a20.05,20.05,0,0,1-3.42-2.74,4,4,0,0,0-.68-.5l-.63,2.16-3,9.9-8.28,15.57S57.91,209,70.54,212.12s18-3.06,19.29-8.23,7.41-26.2,7.41-26.2l2.29,1.69,10.64-10.69S104.66,155.81,101.2,151.68Z"/><path class="cls-34" d="M62.86,115.4c-.24.86-2,1-2.76.73s-.84-1.06-.6-1.92.68-1.46,1.48-1.18S63.11,114.55,62.86,115.4Z"/><path class="cls-34" d="M62.75,115.36c-.25.86,1.07,2.09,1.87,2.37s1.24-.32,1.48-1.18.21-1.63-.59-1.92S63,114.51,62.75,115.36Z"/><path class="cls-35" d="M68.26,142.86s1.61,9.6,14.2,9.77c0,0,5.16-1.12,4.58-8.11a7.14,7.14,0,0,1,3.46,1.25,8.06,8.06,0,0,1,1.16,9.38c-1.25,2.22-5.44,1.62-9-1.28,0,0-1.66,5.08-8.23,2.9S62.9,149,64.26,143.83Z"/><path class="cls-17" d="M85.4,128.69a4.41,4.41,0,0,0,3.15-.25,1.92,1.92,0,0,0,1-1.94,1.77,1.77,0,0,0-.68-1.15c-.07-.06-.32,0-.25.11a1.7,1.7,0,0,1,.66,1.11,1.93,1.93,0,0,1-.48,1.48,2.6,2.6,0,0,1-1.31.58,3.72,3.72,0,0,1-1.93-.06c-.08,0-.32.09-.21.12Z"/><path class="cls-17" d="M82.76,127.51a.55.55,0,0,0-.52.37,1.31,1.31,0,0,0,0,.68.72.72,0,0,0,.37.52,1.94,1.94,0,0,0,1,.13,4.66,4.66,0,0,0,1.19-.46s.11,0,.08-.07-.15,0-.17,0c-.29.1-.55.3-.84.38a1.91,1.91,0,0,1-.87,0,.65.65,0,0,1-.43-.41,1.45,1.45,0,0,1-.08-.54.81.81,0,0,1,.06-.31.75.75,0,0,1,.07-.12l0,0s0,0,0,0,0,0,0,0a.28.28,0,0,0,.18-.06s0,0-.06,0Z"/><path class="cls-33" d="M56,216.05s18.81,1.41,21.46,1.63,4,6.74,4.18,7.83,0,8.09,0,8.09,13.26,5.15,17.72,2.63,5.23-4.48,7.58-4.38,3,2.85,7.57,2.74,7.31-4.3,7.31-4.3-4-22.32-5.68-26.32-3.51-8.36-9.71-9.68-16.18-5.51-16.18-5.51l-37.58,5.84Z"/><polygon class="cls-20" points="67.08 293.81 132.64 282.09 133.35 286.04 67.8 297.76 67.08 293.81"/><path class="cls-36" d="M52.39,183.77a62.48,62.48,0,0,0,15.88,6.15c5.86,1.51,12.1,2.6,18.17,2A17.31,17.31,0,0,0,94,189.65c.4-.25-.18-.49-.46-.31-4.41,2.77-10.43,2.48-15.39,1.91a74.1,74.1,0,0,1-17.53-4.33,49.57,49.57,0,0,1-7.69-3.55c-.26-.15-.87.21-.54.4Z"/><path class="cls-19" d="M56.69,198.43c-.11-1.29-.26-2.58-.46-3.86a7.52,7.52,0,0,0-.89-2.76c-1.05-1.73-3.27-2.19-5.12-2.38-2.09-.22-11.09-.17-14.76-.1a44.8,44.8,0,0,0-6.24.1c-1.85.19-4.07.65-5.12,2.38a7.71,7.71,0,0,0-.89,2.76c-.19,1.28-.35,2.57-.45,3.86-.19,2.4-.2,18.58,0,21a2,2,0,0,0,4.1,0c-.14-2-.15-17.83,0-19.87a21,21,0,0,1,.73-5.41s0,0,0,0l.07-.13a1.23,1.23,0,0,1,1.09-.42c1.89-.08,3.78-.13,5.67-.17.33,0,.65,0,1,0s.9,0,1.34,0c3.41,0,12.23.09,14.1.17.43,0,.85,0,1.09.42l.07.13s0,0,0,0a20.57,20.57,0,0,1,.73,5.41c.12,2,.1,17.84,0,19.87a2.07,2.07,0,0,0,2,2.05,2.09,2.09,0,0,0,2-2.05C56.89,217,56.88,200.83,56.69,198.43Z"/><path class="cls-20" d="M22.05,234.88s-1.15-28.24.12-33.92,31.32-4.32,33.86,1.62,2.42,35.32,2.42,35.32Z"/><line class="cls-21" x1="15.39" y1="202.95" x2="33.07" y2="303.35"/><line class="cls-21" x1="34.41" y1="205.74" x2="16.08" y2="292.96"/><line class="cls-21" x1="6.93" y1="223.6" x2="45.26" y2="290.11"/><line class="cls-21" x1="3.96" y1="251.29" x2="46.46" y2="254.16"/><line class="cls-21" x1="3.96" y1="239.73" x2="47.58" y2="268.11"/><line class="cls-21" x1="6.24" y1="270.35" x2="46.46" y2="232.54"/><path d="M5.37,216.77c-3.59,10.22-5,23.54-4,37.51s4.32,27,9.34,36.71c5.28,10.21,12,15.78,19.12,15.78.27,0,.53,0,.8,0,7.37-.44,13.59-6.83,17.5-18,3.59-10.21,5-23.53,4-37.5s-4.31-27-9.33-36.71c-5.48-10.6-12.58-16.21-19.92-15.76s-13.59,6.82-17.5,18Zm2.84,37.1c-1-13.21.36-25.71,3.69-35.2,2.91-8.3,7.18-13.41,11.41-13.66h.34c4.16,0,9,4.52,12.93,12.2,4.66,9,7.75,21.26,8.7,34.47s-.36,25.71-3.69,35.2c-2.91,8.3-7.18,13.4-11.41,13.66s-9.2-4.31-13.28-12.2c-4.66-9-7.74-21.25-8.69-34.46Z"/><path class="cls-1" d="M5.37,216.77c-3.59,10.22-5,23.54-4,37.51s4.32,27,9.34,36.71c5.28,10.21,12,15.78,19.12,15.78.27,0,.53,0,.8,0,7.37-.44,13.59-6.83,17.5-18,3.59-10.21,5-23.53,4-37.5s-4.31-27-9.33-36.71c-5.48-10.6-12.58-16.21-19.92-15.76s-13.59,6.82-17.5,18Zm2.84,37.1c-1-13.21.36-25.71,3.69-35.2,2.91-8.3,7.18-13.41,11.41-13.66h.34c4.16,0,9,4.52,12.93,12.2,4.66,9,7.75,21.26,8.7,34.47s-.36,25.71-3.69,35.2c-2.91,8.3-7.18,13.4-11.41,13.66s-9.2-4.31-13.28-12.2c-4.66-9-7.74-21.25-8.69-34.46Z"/><path class="cls-1" d="M23.65,205h-.34c-4.23.25-8.5,5.36-11.41,13.66-3.33,9.49-4.64,22-3.69,35.2s4,25.45,8.69,34.46c4.08,7.89,9,12.45,13.28,12.2s8.5-5.36,11.41-13.66c3.33-9.49,4.64-22,3.69-35.2s-4-25.45-8.7-34.47c-4-7.68-8.77-12.2-12.93-12.2Z"/><path class="cls-19" d="M21.71,300.62c-5.58,0-11-4.66-15.46-13.2S-1.09,267.36-2,255h0c-1.89-26.28,5.82-47.4,17.55-48.1,5.78-.34,11.49,4.34,16.06,13.18,4.42,8.55,7.34,20.06,8.23,32.43,1.88,26.27-5.83,47.4-17.56,48.1ZM16.15,209h-.43c-10.1.6-17.16,21.62-15.42,45.89.87,12.11,3.72,23.36,8,31.68,4.08,7.9,9.13,12.29,13.84,12,10.1-.6,17.16-21.61,15.42-45.89-.87-12.11-3.72-23.36-8-31.67-4-7.67-8.82-12-13.41-12Z"/><path class="cls-26" d="M24,241.78c2.77-.16,5.39,4.91,5.85,11.32S28.48,264.85,25.71,265s-5.39-4.91-5.85-11.32S21.27,242,24,241.78Z"/><path class="cls-37" d="M86.45,131.33c-2.06.34-5.43.65-5.43.65s.66,5.81,6.35,4.79c4.76-.85,4-6.37,4-6.37S88.51,131,86.45,131.33Z"/><path class="cls-38" d="M86.47,131.33l-4.63.71a4.64,4.64,0,0,0,4.94,2.67,4.22,4.22,0,0,0,3.91-3.85Z"/><path class="cls-16" d="M86.59,131.77c-1,.16-4,.49-4,.49s1.3.61,4.23.14S90.48,131,90.48,131Z"/><path class="cls-37" d="M91.31,130.38c0-.11-.24-.12-.73-.08-.82.06-1.13-.18-1.72-.13a9.38,9.38,0,0,0-2,.64,9.5,9.5,0,0,0-2.12,0c-.58.14-2,.59-2.8.78a10,10,0,0,1-1.18.08c-.13.05.42,1.33,5.89.44S91.33,130.52,91.31,130.38Z"/><path class="cls-33" d="M60.9,178.28c-.56.54-.83-3.39-1.4-2.88a6,6,0,0,1-1.57,1.19c-.2.09-.38,0-.63-.16a4,4,0,0,1-.95-1.07,19.83,19.83,0,0,1-1.85-3.5,33.16,33.16,0,0,1-2.31-6.79c-1.19-6.15.26-13.8,6.33-16.86a.3.3,0,0,0,.11-.07,2.48,2.48,0,0,1,.66.18,29.8,29.8,0,0,1,10.55,10.31c4.32,6.61,3.5,5.06,3.5,5.06l.52.7c-1,1.71-1.12,2.56-2.61,3.78l-4.55,4.42C65.08,173.4,62.21,177,60.9,178.28Z"/><path class="cls-36" d="M63.22,151.81a17,17,0,0,1,4.22,3,20.13,20.13,0,0,1,3.62,5.55c1,2,1.91,4,2.74,6a13,13,0,0,1,.7,1.89.77.77,0,0,1-.16.79,3.89,3.89,0,0,1-.46.53c-.15.15-.43.19-.21.31-.2-.11-.84.18-.55.34.89.48,2.26-1.3,2.11-2.08a14.1,14.1,0,0,0-.9-2.39c-.53-1.29-1.08-2.58-1.68-3.84s-1.22-2.44-1.9-3.62a18.69,18.69,0,0,0-2.06-3.19,16.15,16.15,0,0,0-4.92-3.64c-.2-.1-.84.21-.55.34Z"/><path class="cls-36" d="M62.19,177.39a2.76,2.76,0,0,1-.83.69,1.08,1.08,0,0,1-1.07-.2,14.91,14.91,0,0,1-1.83-1.42,15.28,15.28,0,0,1-2.91-3.6c-.16-.27-.83,0-.64.3a15.42,15.42,0,0,0,3.55,4.16c.36.3.72.57,1.1.83a2.09,2.09,0,0,0,3.22-.56c.3-.32-.37-.43-.59-.2Z"/><path class="cls-7" d="M82,182.78c3.29,1.17,7.72,2.66,8.29,2.43s4.56-1.25,8.06-2.12a3.38,3.38,0,0,0,2.74-3.78c-.08-.45-8.79-.84-8.28-4.66l7.44-1.18a29.61,29.61,0,0,1,7.23.76c2.88.86,10,5.93,10,5.93l6.08-1.1.29,15.93-5.15-.3L110,198.63s-17.12,3.73-19.41,2.75S85.27,196,85.27,196c-3.22-.78-4.18-5.11-4.18-5.11-4.79-3-1.33-4.44-1.33-4.44a1.09,1.09,0,0,1-.48-.33C78,184.47,80,182.07,82,182.78Z"/><path class="cls-29" d="M104.42,173.75c3.38,0,6.6,2.24,9.35,3.94l2.06,1.31a9,9,0,0,0,1.19.78,5.35,5.35,0,0,0,2.38-.11l4.14-.42c.3,0,.44-.42.06-.38l-3.59.36-2.13.22c-.15,0-.33.05-.48.05,0,0,.2.1,0-.05a38,38,0,0,0-3.57-2.29,46,46,0,0,0-5-2.77,10.79,10.79,0,0,0-4.35-1c-.31,0-.44.38-.06.38Z"/><path class="cls-29" d="M110.17,188.74a9.55,9.55,0,0,1-2.4,1.42,14.55,14.55,0,0,1-6.48,1.71,12.92,12.92,0,0,1-6.3-2.16,8.63,8.63,0,0,1-2.21-1.62,12.52,12.52,0,0,1,2.45,1.17,14.43,14.43,0,0,0,6.09,1.87,16.24,16.24,0,0,0,6.28-1.45A13,13,0,0,1,110.17,188.74Z"/><path class="cls-7" d="M96.73,186.07s-10.63-4.27-15.46-5.52l-.14-.14-.58-1.08s-4-5.82-4-5.81l-3.15-3.46-10.8,7.46s4.57,8.27,8.39,11.37A7.88,7.88,0,0,0,73.22,191c5.77,3.3,14.49,2.16,22.84,2.12,0,0,6.77,3.65,8.92,3.86,4.55.45,5.49-1.9,4.62-1.73a5.08,5.08,0,0,1-3.67-.63s5.77-.47,6.08-1.89-1.63,0-5-1.11c0,0,6.84-.7,6.44-3.6-.11-.76-2.59,1.07-4,1.06a4.67,4.67,0,0,1-2.53-.82s5.46-1.15,5.34-2.75c-.07-.78-2.1-.18-3.56-.17a5,5,0,0,1-2.45-.56s3-.19,3-1.68-2.91-1.35-5.1-1.06S96.73,186.07,96.73,186.07Z"/><path class="cls-29" d="M81.64,193a68.32,68.32,0,0,0,11.62,0,17.54,17.54,0,0,1,2.69-.28c-.09,0-.1,0,.14.12s.7.37,1,.55a37.57,37.57,0,0,0,6.78,3c1.71.49,4.41.49,5.81-.82.27-.26.63-.66.3-1s-1.5.06-1.87,0a4.29,4.29,0,0,1-2-.64l-.38.26c1.81,0,4.19.07,5.81-.85.5-.29,1-1,.47-1.47a2.45,2.45,0,0,0-1.28-.3,18.3,18.3,0,0,1-3.59-.66l-.27.27c2-.21,4.82-.67,6.24-2.26.44-.49,1-1.85-.06-1.81A6.93,6.93,0,0,0,111,188a3.89,3.89,0,0,1-3.84-.37l-.23.24c1.64-.36,4.1-.83,5.25-2.16.58-.67.33-1.21-.54-1.27-1.76-.12-3.51.64-5.19-.31l-.34.28c1.06-.08,3.43-.42,3.44-1.87,0-2.06-4.52-1.34-5.62-1.12a21.91,21.91,0,0,0-6.32,2.84c-.22.13-.78.29-.26.24a9.07,9.07,0,0,1-1-.06l-2.45-.15c-.21,0-.62.28-.23.3a17.84,17.84,0,0,0,3.49.21c.95-.14,2-1,2.82-1.47a13.53,13.53,0,0,1,6.67-1.85c.91,0,3.39.56,2,1.92a3.87,3.87,0,0,1-2.26.71c-.08,0-.58.14-.35.28a5.54,5.54,0,0,0,2.89.57c.72,0,4-.64,2.72.79-1.06,1.14-3.26,1.54-4.74,1.86,0,0-.36.14-.23.23a4.44,4.44,0,0,0,3.31.8,10.71,10.71,0,0,0,2.08-.79c.73-.32,1.45-.51,1,.58-.79,1.89-4.21,2.34-6,2.52-.08,0-.5.21-.28.28a22.19,22.19,0,0,0,3.94.72c1.4.17,1.2,1.14,0,1.53a15.36,15.36,0,0,1-4.64.47c-.07,0-.55.15-.39.26a5.12,5.12,0,0,0,3,.76c.49,0,1.09-.37.85.29s-1.4.89-1.92,1c-3.07.6-6.06-1.15-8.71-2.46a16.28,16.28,0,0,0-2.49-1.28,3.7,3.7,0,0,0-1.28.06A66.58,66.58,0,0,1,82,192.7c-.16,0-.67.26-.36.29Z"/><path class="cls-36" d="M98.84,173.42A1.91,1.91,0,0,0,99,173c0-.31-.62-.11-.7.09a.43.43,0,0,0,0,.19c.05.28.63,0,.7-.13a8.86,8.86,0,0,0,.45-1.68c.19-.82.34-1.64.49-2.46a47,47,0,0,1,1-4.69c.08-.24-.62-.14-.69.09a44.38,44.38,0,0,0-1,4.69c-.15.82-.3,1.64-.48,2.46a8.38,8.38,0,0,1-.46,1.68l.7-.14c0,.07,0-.06,0-.1l-.7.09a1.46,1.46,0,0,1-.11.41c-.06.25.64.15.7-.09Z"/><path class="cls-36" d="M103.3,200.66a7,7,0,0,1,4,2.18,4.88,4.88,0,0,1,.9,4.52c-.07.23.66.13.73-.1a5.23,5.23,0,0,0-.19-3.51,5.47,5.47,0,0,0-2.32-2.46,8.3,8.3,0,0,0-2.64-1,.63.63,0,0,0-.51.14c-.11.1-.1.2.06.24Z"/><path class="cls-39" d="M107.13,247.4l1.07-7.89a10,10,0,0,0,8.44-.18l-.83,7S110.73,251.59,107.13,247.4Z"/><path class="cls-40" d="M131.31,257.1c-.56-4.19-1.95-2.56-6-5-.86-.52-3.56-2.12-4.2-2.53a15.78,15.78,0,0,0-4.9-4.17c-1.82,2.74-5.45,1.45-8,.61a3.94,3.94,0,0,0-.59-1.15c-.7-.61-.84-1.08-1.64-.25-.19.19-.1.67-.2,1.13l-.2.89c-.66,2.75-2.43,2.78-2,9.88a7.76,7.76,0,0,0,.2,1.86l26.9,2.51A14.75,14.75,0,0,0,131.31,257.1Z"/><path class="cls-41" d="M130.75,260.9l-27.13-2.51a6.37,6.37,0,0,1,0-2.06l27.51,2.56C131.14,261,130.75,260.9,130.75,260.9Z"/><path d="M116.8,247.87s1.92-1.63,2.61-1.47,1.32.74.6,1.46a9.67,9.67,0,0,1-2.61,1.41S116.19,248.72,116.8,247.87Z"/><path class="cls-39" d="M96.5,252.05l-1.83-7.89s8.06,2.06,12.65-.46l-1.24,8.2S100.42,255.93,96.5,252.05Z"/><path class="cls-40" d="M119.76,263.17c-.18-4.2-1.3-3.38-5.83-5.37a38.33,38.33,0,0,1-3.74-1.44c-1.86-2.84-3.75-5.93-3.75-5.93-2.2,2.61-7.37,1.14-10,.13a3.92,3.92,0,0,0-.52-1.19c-.67-.66-.77-1.13-1.7-.36-.23.18-.18.66-.33,1.11-.09.27-.19.56-.31.88-1,2.69-2.85,2.6-3.07,9.71a7.47,7.47,0,0,0,0,1.86l28.2,4.35A14.85,14.85,0,0,0,119.76,263.17Z"/><path class="cls-41" d="M118.77,266.92l-28.44-4.36a6.56,6.56,0,0,1,.3-2.05L119.48,265C119.25,267,118.77,266.92,118.77,266.92Z"/><path class="cls-42" d="M111.69,256.88a8.4,8.4,0,0,1-3.1-2.51,8.64,8.64,0,0,1-1-1.71,16.88,16.88,0,0,0-.7-1.88c-.07-.13-.41,0-.32.16A5.16,5.16,0,0,1,107,252a7.06,7.06,0,0,0,.37.94,8.57,8.57,0,0,0,1.06,1.71,8.76,8.76,0,0,0,3.11,2.45c.14.06.4-.15.2-.24Z"/><path d="M105.46,253.23s2.06-1.47,2.73-1.26,1.26.84.47,1.5a9.89,9.89,0,0,1-2.72,1.21S104.78,254,105.46,253.23Z"/><path class="cls-43" d="M108.26,232.73c-.26,3.68-1,7.31-1.25,11,0,.29.59.19.61-.05.26-3.69,1-7.32,1.24-11,0-.28-.58-.18-.6.06Z"/><path class="cls-29" d="M81.12,180.55a3.9,3.9,0,0,0-1.91,2.89c0,.26.55.16.58-.06a3.48,3.48,0,0,1,1.69-2.62c.1-.06.15-.19,0-.26a.39.39,0,0,0-.4.05Z"/><path class="cls-29" d="M86,193.4a15.31,15.31,0,0,1,2.68.45,15.07,15.07,0,0,0,2.23.25,43.43,43.43,0,0,0,4.84-.21c.2,0,.82-.34.33-.3a39.49,39.49,0,0,1-4.86.19,13.61,13.61,0,0,1-2.46-.34,10.84,10.84,0,0,0-2.27-.35.82.82,0,0,0-.53.15c-.08.08-.15.16,0,.16Z"/><path class="cls-29" d="M85.39,196.34a36,36,0,0,0,6.54,1.51,19.19,19.19,0,0,0,6.48-.7c.47-.11.34-.58-.12-.46a17.78,17.78,0,0,1-6.32.63,35.94,35.94,0,0,1-6.13-1.45c-.29-.08-.89.34-.45.47Z"/><polyline class="cls-4" points="121 197.96 120.24 176.37 144.62 172.39 145.56 198.24 129.95 198.24"/><path class="cls-18" d="M215.85,83.26c-3.82,1-6.7,4.65-8.55,8a33.94,33.94,0,0,0-3.66,12.26q-1.11,8.65-2.54,17.27c-2.06,12.47-4.39,24.9-6.78,37.31-.55,2.84-1.1,5.67-1.67,8.51l.45-.31-24.59,3.32-39.21,5.3-9,1.22c-.14,0-.44.11-.44.3l0,3.16c0,.39.81.25.81-.08v-3.15l-.44.3,24.59-3.32L184,168l9-1.22c.18,0,.41-.11.45-.3q2.19-11,4.23-22.05c2.3-12.36,4.6-24.75,6.27-37.21a61.52,61.52,0,0,1,2.19-11.6,24.24,24.24,0,0,1,3.63-7c1.58-2.07,3.61-4.2,6.2-4.9.49-.13.36-.63-.13-.49Z"/><path class="cls-18" d="M239,112.62a251.88,251.88,0,0,1-8,46.72c-2.71,10.33-6,21.64-13.54,29.57a23.07,23.07,0,0,1-12.82,6.85A99.7,99.7,0,0,1,193.46,197c-10.53.75-21.11.88-31.66,1s-21.13,0-31.69,0c-.29,0-.85.45-.31.45,9.55-.07,19.11,0,28.66,0,10.78,0,21.58-.16,32.35-.81,8.11-.5,17.32-.7,24.09-5.77,8.64-6.46,12.68-17.76,15.55-27.74a252.75,252.75,0,0,0,8.87-45.58c.2-2,.36-4,.5-6,0-.31-.79-.16-.8.11Z"/></g></g></svg>