<svg xmlns="http://www.w3.org/2000/svg" xmlns:xlink="http://www.w3.org/1999/xlink" viewBox="0 0 292.89 301.99"><defs><style>.cls-1{fill:none;}.cls-2{clip-path:url(#clip-path);}.cls-3{fill:#c3e6f7;}.cls-4{fill:#b98354;}.cls-5{fill:#628e9f;}.cls-6{fill:#131429;}.cls-7{fill:#4f2e25;}.cls-8{fill:#27153c;}.cls-9{fill:#825639;}.cls-10{fill:#c6c6c5;}.cls-11{fill:#231f20;}.cls-12{fill:#151210;}.cls-13{fill:#653c2a;}.cls-14{fill:#040404;}.cls-15{fill:#7b4b29;}.cls-16{fill:#31160e;}.cls-17{fill:#f1eef7;}.cls-18{fill:#13110f;}</style><clipPath id="clip-path"><path class="cls-1" d="M291.85,126.16a50.76,50.76,0,0,0-44.74-50.39A126.31,126.31,0,0,0,158,27.25a50.76,50.76,0,1,0-96,32.4,126.49,126.49,0,1,0,211,106A50.65,50.65,0,0,0,291.85,126.16Z"/></clipPath></defs><g id="Layer_20" data-name="Layer 20"><g class="cls-2"><circle class="cls-3" cx="147.28" cy="153.27" r="126.49" transform="translate(-65.24 149.03) rotate(-45)"/><path class="cls-4" d="M141.21,147.57c2.64.82,4.84,1.41,7,2.15,1.12.39,2.23.81,3.32,1.31.32.15,2.81,1.57,2,1C157,154.4,163,143.58,166,140.15c15,20.07,32.88,61.89,36.67,71a23,23,0,0,0-3.66,3.36,42.78,42.78,0,0,0-7.17,11.42,37,37,0,0,0-3.43,14.79,32.62,32.62,0,0,0,2,11.31c-2.3-.24-14.9-6-16.7-7.14-7.9-5.1-19.1-39.4-19.1-39.4l-16.4-58.88C139.2,146.93,140.21,147.26,141.21,147.57Z"/><path class="cls-5" d="M171.4,194.59c2.85-.94-1.84,3.46.95,2.36.16-.34-1.81,20.19-1.28,20.24,2.52.25,26.48-5.35,31.18-18.61-16.05-30.23-21.12-49.83-25.65-57.72-7.51-13.06-35.37-19.26-37.5-19.48,0,0,17.66,50.84,29.71,68.73A49.71,49.71,0,0,1,171.4,194.59Z"/><path class="cls-6" d="M199.32,192.54C193.8,200,184,203,175.72,206.31c-.49.19-.05.56.33.41,8.35-3.39,18.31-6.41,23.9-14,.29-.39-.44-.46-.63-.2Z"/><path class="cls-4" d="M208.73,243.08S201,252.45,192,252c-12-.62-15.91-5.87-18.89-9.09s15.79-10.59,15.79-10.59Z"/><path class="cls-4" d="M190.64,241.64a36.8,36.8,0,0,1-4.37-13,39.06,39.06,0,0,1-.07-12.81,21.42,21.42,0,0,1,.9-3.41c1.92-5,39.43-49.15,49.08-55.28l11.76,8.68c-4.12,4.47-24,51.67-24,51.67S215.22,240,202.3,248.69C198.6,246.12,192.94,245.53,190.64,241.64Z"/><path class="cls-4" d="M228.39,163.81l5.45-7s3-7.52,4.72-9.7,10.76-8.81,11.28-9,7-12.4,9.53-12,4.15,2.27,3.19,5.6-7.1,9.9-5.62,11a11.19,11.19,0,0,0,4,1.61s1-3.84,3.22-5,4.53.92,4.53.92l-.06,1.67,2.26-1.87s2.8-7.68,6.17-7.56a14.5,14.5,0,0,1,3.65-4.34,2.89,2.89,0,0,1,4,.65,2.64,2.64,0,0,1,.35.74h0L277.77,147l-18,17.71s-10.06,3-12.12,3.88l-4,4.92Z"/><path class="cls-7" d="M257.14,143.26c.14-.18-.71-1-2.1-1.46s-2.61-.3-2.62-.06,1.06.46,2.32.87S257,143.46,257.14,143.26Z"/><path class="cls-7" d="M275.8,147a18.36,18.36,0,0,1,.67-3.8c.53-2.35,1.31-5.64,2.26-9.42l.21.5a19.55,19.55,0,0,0-1.77-.89,2.38,2.38,0,0,0-1.79.18,5.54,5.54,0,0,0-2.24,2.41,18.59,18.59,0,0,0-1.32,3c-.63,2-1.09,3.92-1.49,5.46a34.82,34.82,0,0,1-1.45,5c-.13,0,.14-2,.78-5.17.32-1.58.71-3.46,1.31-5.55a18.57,18.57,0,0,1,1.34-3.19,6.39,6.39,0,0,1,2.69-2.85,3.38,3.38,0,0,1,2.51-.23,17.41,17.41,0,0,1,1.93,1l.31.15-.09.35c-1,3.78-1.9,7-2.58,9.37A18.8,18.8,0,0,1,275.8,147Z"/><path class="cls-7" d="M252.8,161.42a5,5,0,0,1,.14-.75,10.87,10.87,0,0,1,.85-1.95,27.86,27.86,0,0,1,4.85-6.19l-.12.15c1.41-3.33.72-8.22,4.13-12.5a4.25,4.25,0,0,1,3.31-1.33,5.69,5.69,0,0,1,3,1.14l.21.16,0,.26c-1,4.91-1.87,9.15-2.54,12.15a8.28,8.28,0,0,1-1.37,3.42c-.48.72-.82,1-.86,1a6.11,6.11,0,0,1,.59-1.17,8.7,8.7,0,0,0,1.07-3.37c.5-3,1.27-7.26,2.19-12.16l.15.43a5,5,0,0,0-2.52-.93,3.3,3.3,0,0,0-2.55,1,7.69,7.69,0,0,0-1.65,2.93,29.85,29.85,0,0,0-.94,3.19c-.26,1.07-.38,2.06-.59,3.12a17.31,17.31,0,0,1-.86,2.88V153l-.06.07a31.36,31.36,0,0,0-5,5.81C253.19,160.43,252.91,161.45,252.8,161.42Z"/><path class="cls-7" d="M233.84,156.79s1.45,4.05,7.26,5.46C241.1,162.25,233.38,162.58,233.84,156.79Z"/><path class="cls-7" d="M186.89,212.61c-4,4.12-5.46,10.44-4.41,16,.05.27.77.09.72-.19-1-5.4.37-11.63,4.27-15.65.3-.31-.4-.33-.58-.14Z"/><path class="cls-4" d="M91.22,82.09s2,14.6,1.57,22.81a25.6,25.6,0,0,1-8.21,17.91L134,152l13.66-27.7s-10-7.73-10.41-10,0-15.73,0-15.73"/><path class="cls-5" d="M177.48,255.08l0-6.87c-.1,0,0-.73-.06-.73l1.7-78.43-6-25.41s-7.59-9.56-8.41-11.19L142.06,117a113.81,113.81,0,0,0-5.54,12.71c-1.41,3.7,1.11,15.9-3.24,16.39,0,0-2.68-10.52-13.84-18.58,0,0-25.95-10.1-27-14.84-9.23,3.47-38.57,15.43-45,22.35-7.6,8.1,14.3,29.27,24.7,42.27l-14,2s-1.74,49.5-3.76,76.09c-.1,1-.18,2-.24,3.05-.27,3.18-.53,5.92-.8,8.09h.59c0,19,3,46.06,4.17,54.47,1.49,10.58,54.05,16,79.19,13.57,24.71-2.38,42.79-1.36,41.36-41.09l.11,0C177.76,276.55,178.19,278.1,177.48,255.08Z"/><path class="cls-7" d="M137.57,112a52.18,52.18,0,0,1-13.92-1.38c-10.53-2.9-24.11-15.35-24.11-15.35A40.43,40.43,0,0,0,107.65,108c5.94,6.44,9,7.82,15.28,7.72,3-.05,10,.24,14.57-.81Z"/><path class="cls-4" d="M60.94,225.6c-16.93-2.12-19.32-2.19-32.73-5.35-1.94,11.6-2.9,43.73-2.64,47.67,1.78,27.18,6.46,36.79,14.74,70.85l17.16-1.21,0-67.42Z"/><path class="cls-5" d="M65.75,224.16,72.47,185l-2.08-62.74s-27.78,7.89-35.31,24.4c-4.17,10.82-9.61,49.35-13,71C47.76,226.42,54.46,225.87,65.75,224.16Z"/><path class="cls-8" d="M65.83,136.52C72,137.86,75.59,145.24,77,150.8a58.92,58.92,0,0,1,1.32,14.33,262.26,262.26,0,0,1-3.39,39.26c-1,6.7-2.17,13.39-3.64,20l.5-.4a37.61,37.61,0,0,1-7.58.84,80.77,80.77,0,0,1-21-2.18,107,107,0,0,1-16.72-5.34c-.39-.16-1.44.4-.91.61,13.54,5.53,28.93,9.19,43.64,7.22a25,25,0,0,0,2.7-.47c.19-.05.45-.19.5-.4a318.1,318.1,0,0,0,6-38.84c.61-6.53,1-13.09,1.07-19.66a64.86,64.86,0,0,0-1.18-14.72c-1.36-6-5.2-13.8-11.77-15.24-.43-.1-1.38.55-.7.7Z"/><path class="cls-4" d="M80.74,33.49s3.55-11.42,17.73-15.64c10.71-3.18,31.84-2.89,40,.59A26.54,26.54,0,0,1,153.3,34.9Z"/><path class="cls-9" d="M89.71,85.38c0,.05,0,.09,0,.13A.15.15,0,0,1,89.71,85.38Z"/><path class="cls-4" d="M121.43,110.81l14.75-1,7.33-1.92c.75,0,3.76-7.77,4.24-8.76a63.54,63.54,0,0,0,4.3-10.39c.94-3.54,3-6.65,3.43-10.89.29-3.1.23-5.27-1.57-10.26a7.15,7.15,0,0,1-.24-3.93c.57-2.92.71-6.31,1.39-10.22a8,8,0,0,0,.23-2.12s.42-14.69-4.41-21.66c-3.7-5.32-5.95-8.48-10.2-9.45s-16.65.18-16.65.18l-17.26-2L92.4,26.16,85.54,44.32l1.7,20.79L90,83.64"/><path class="cls-10" d="M81.69,43.31l0-.91C81.5,39.76,83,36,85.81,31.85a18.11,18.11,0,0,0,4,.55A12.88,12.88,0,0,0,90,35.06l2.09,28.35C92.21,65,94.45,73,94.68,74.54l-8.23.11c-2.66-5.44-5.85-11.83-6.83-13.28C78.07,59.11,81.92,47.52,81.69,43.31Z"/><path class="cls-4" d="M141.84,105.94a.85.85,0,0,1-.28-.1c-1.6-1-1.74-1.6-2.51-1.76a4.06,4.06,0,0,0-.83-.16c-2.22-.25-3.58-.44-9.4,3.54-.12.08-7.93-.69-8.08-.69l-4.07-1.8c-.68-.4-16.1-12.77-16.1-12.77-.24-.42-3-3.39-3.17-3.79l-.14-.07-.1,0s0,.07,0,.09a3.13,3.13,0,0,0,0,.53,9.52,9.52,0,0,0,.48,2.24c.39,1.12.62,2.26,1,3.39.12.4.26.79.41,1.17,1.75,1,13.07,14.6,19.37,17.53a26.71,26.71,0,0,0,5.09.61c6.39.35,12.54.16,18.75-1.86a5.68,5.68,0,0,0,3.52-3.3c1.75-4.44,5.6-14.3,6.42-20.87-1.62,3.84-5,12.07-7.41,17.67a19,19,0,0,1-2.68.44"/><path class="cls-4" d="M91.9,85.69c-6.45,6.76-8.11-4.37-8.11-4.37C79,75.76,78.93,69.74,79,65.63s4.57-4.14,4.57-4.14c3.81.35,5.54,2.38,9,15.29"/><path class="cls-10" d="M90.21,34.49c1.12,5.44,3.4,13-.14,22.59-1.79,4.83-4.82-3.42-7.19-.21s-3.26,4.5-3.26,4.5c-2.28-13.61-2.24-13.29.23-26.61Z"/><path class="cls-11" d="M89.43,74.46a32.59,32.59,0,0,0-3.15-5.39,10.09,10.09,0,0,0-2.18-2.29A2.94,2.94,0,0,0,83,66.23c-.52-.09-.76.23-1,.64a8,8,0,0,0-.28,5.49c0,.14.69,0,.65-.17a8.58,8.58,0,0,1-.11-4.44,4.24,4.24,0,0,1,.66-1.47l-.53.19h0l.21,0a3.06,3.06,0,0,1,.8.42,11.84,11.84,0,0,1,3,3.39,37.55,37.55,0,0,1,2.38,4.3c.08.16.7-.07.65-.17Z"/><path class="cls-11" d="M88,75.14c-2.71-.06-1,3.6-1.23,5,0,.08-.06.17-.07.24s-.06.07-.06.1.15,0,.14-.07-.14-.15-.17-.2a3.21,3.21,0,0,1-.24-.45,11.75,11.75,0,0,1-.74-2.54,9.71,9.71,0,0,1-.24-3.08c.11-1.23.39-3,1.64-3.57.4-.18,0-.53-.28-.38a4,4,0,0,0-1.9,3.14A8.65,8.65,0,0,0,84.67,76a18.78,18.78,0,0,0,.75,3.32,3,3,0,0,0,.86,1.58.71.71,0,0,0,1-.36,2.48,2.48,0,0,0,.06-1.38c-.08-.68-.89-3.54.4-3.51.31,0,.66-.47.22-.48Z"/><path class="cls-12" d="M121.46,61.2a2.46,2.46,0,0,0-2.66.52,2.34,2.34,0,0,0-.71,1.14,2.54,2.54,0,0,0,.61,2.26,2.27,2.27,0,0,0,2.64.43,2.58,2.58,0,0,0,1.2-3,2.29,2.29,0,0,0-1.08-1.36"/><path class="cls-12" d="M148.73,61.05a2.45,2.45,0,0,1,2.67.46,2.38,2.38,0,0,1,.74,1.12,2.51,2.51,0,0,1-.56,2.27,2.26,2.26,0,0,1-2.62.5,2.58,2.58,0,0,1-1.28-3,2.29,2.29,0,0,1,1-1.39"/><path class="cls-12" d="M140.91,64.77s3.75-3.89,6.54-4.19c4.06-.42,5.11.49,6.57,2.36a8.78,8.78,0,0,0-5.53-1.56C145.76,61.74,140.91,64.77,140.91,64.77Z"/><path class="cls-12" d="M127.69,63.94s-5.74-3.57-8.54-3.61c-4.08,0-8.91,2.44-10.2,4.43,0,0,6.36-3.66,9.24-3.54S127.69,63.94,127.69,63.94Z"/><path class="cls-10" d="M128.35,48.17l.36,2.93c.1.74.36,2.44.45,3.18-2.4-.33-4.6-1-6.13-1.06-3-.15-6.17-.51-9.12.36a10.26,10.26,0,0,0-3.72,1.86c-.35.29-1.24,1.45-1.84,1.26-.24-.08,0-1.33,0-1.45.46-2.52,2.36-3.79,4.76-4.69a43.22,43.22,0,0,1,15.23-2.39"/><path class="cls-10" d="M155.84,50.47,154.16,50A36.55,36.55,0,0,0,140,49.48c0,1,0,2,0,3,0,.75,0,2.1,0,2.85,2.15-.61,4-1.34,5.4-1.59,2.76-.5,5.66-1.07,8.44-.56l1.63.33C156.29,52.11,156.23,50.69,155.84,50.47Z"/><path class="cls-10" d="M76.05,49.74c-.67-.17.76-.81.23-1.27a1.6,1.6,0,0,1-.48-1.89A3.22,3.22,0,0,0,76,44.47c0-.72,1.35-.91.89-1.47-.82-1,.15-2.48,1.08-3.41-.59-.35.1-.51-.29-1.08a1.69,1.69,0,0,1-.06-1.93,7.55,7.55,0,0,1,1-.78c.91-.8.73-2.1.2-3.29a7.44,7.44,0,0,1,1.05-.4,3.77,3.77,0,0,1,1.6-.22.56.56,0,0,0,.22,0L80.45,62.2a3.87,3.87,0,0,1-1.85-.31,1.37,1.37,0,0,1-.74-1.59c.37-.94,2-1.18,1.88-2.18-.87-.95-2.81-.47-3.33-1.65-.42-.95.56-1.9,1.42-2.47-.64-.57-.43,0-1.28-.21s-1.4-2.18-1-2.93S76.4,50.66,76.05,49.74Z"/><path class="cls-13" d="M117.59,41.55s16.1-2.65,27.2-.61"/><path class="cls-10" d="M89.28,33h.28c.29,0,.59.09.88.16s.61.18.91.29h.07l.2.09.44.22a4.36,4.36,0,0,1,.41.24l.12.08.1.08c.13.1.25.21.37.32l.06.06a2,2,0,0,0-.36,1,9.55,9.55,0,0,1,0,2.62c-.28.8-1.06,1.69-.52,2.34.26.32.75.37,1.06.64.91.79-.27,2.37.19,3.49.27.65,1,1,1.32,1.59.62,1.29-1,2.59-1,4,0,1.27,1.14,2.43.84,3.66-.16.64-.71,1.13-.92,1.76-.47,1.4.82,3,.22,4.36a14.23,14.23,0,0,1-.89,1.3c-1,1.81.71,4.43-.16,6.16L86.33,45.94Z"/><path class="cls-10" d="M92.85,75l1.37.07a.66.66,0,0,0,.42-.07c.29-.21.09-.66,0-1a3.66,3.66,0,0,1,.44-2.41,2.26,2.26,0,0,0-.1-2.36c-.3-.32-.8-.51-.88-.94s.59-.91.94-1.36a1.4,1.4,0,0,0-.75-2.12,4,4,0,0,0,.44-3.32C94.23,59.28,93.46,57,93.46,57l-3.32-1.63Z"/><path class="cls-14" d="M106.33,61.11l1.16,3a42.69,42.69,0,0,0,4.11,8.14c1.23,1.75,14,2,16.44.43s3.53-8.8,4.13-10.5l5.11.09c.54,2.15,2.42,8.94,3.42,9.82s6.84.51,7.5.47,1.31-.1,2.14-.2c2.2-.24,4.87-.71,5.66-1.55,1.17-1.25,2.32-5.88,3.29-10.26l.16-.69c0-.16.08-.28.08-.33h0l.18-.79C152.23,55.57,142.63,56.5,137,61l0,.08-5-.12c-5.77-3.48-15.55-5.13-22.38-2.2h0L90.48,64.89v1.89Zm34.94,10.28c-.63-.55-2.09-5.3-3.1-9,4.93-3.78,13.58-4.61,20.25-2.13v.1c-.52,2.35-1.91,8.59-3.06,9.82-1.37,1.44-13,2.08-14.09,1.23Zm-28.18.31c-2.15-2.68-4-7-5.24-10.72,6.06-3,17.46-1.84,23.09,1.46-.76,3-1.64,8.36-3.39,9.46-2.52,1.58-13.69.91-14.46-.2Z"/><path class="cls-10" d="M122.39,87.49l.27-.31c0-.07-.3.1-.3.1a11.26,11.26,0,0,0,1.34-.22,2.43,2.43,0,0,0,1.11-.73c.09-.13.14-.28.23-.42s.37-.27-.34-.12-.53.09-.2.24a2.72,2.72,0,0,0,.44.18,2.64,2.64,0,0,0,1.28.07,3.71,3.71,0,0,0,2-1c-.3.32-1.47-.13-1.13.25a1.41,1.41,0,0,0,.42.26,2.28,2.28,0,0,0,1.24.1,3.5,3.5,0,0,0,2.18-1.27,1.6,1.6,0,0,0,.25-.27c-1.09.09-1.43.2-1,.32l.24.08a3.55,3.55,0,0,0,1,.19,2.83,2.83,0,0,0,2.38-1c.3-.5-.25-.67-.67-.67a2.22,2.22,0,0,0-1.71.68l1.18-.35-.17-.06a2.11,2.11,0,0,0-.38-.12,2.76,2.76,0,0,0-1.07-.09,3.36,3.36,0,0,0-2,.88,5,5,0,0,0-.49.54c-.35.48,1.42.16,1-.19a1.59,1.59,0,0,0-.27-.18,2.5,2.5,0,0,0-2.09,0,3.69,3.69,0,0,0-.74.38c-.14.1-.46.26-.54.41,0,0,1-.26,1-.24a1.4,1.4,0,0,0-.37-.17,2.65,2.65,0,0,0-.77-.24,3.48,3.48,0,0,0-2.32.6,2.7,2.7,0,0,0-.66.6,7.82,7.82,0,0,1-.43.68l.41-.33.66-.19h-.33l-.41,0a4.77,4.77,0,0,0-1.22.37A3.51,3.51,0,0,0,120,87.51c-.33.48.29.66.67.66a2.25,2.25,0,0,0,1.71-.68Z"/><path class="cls-10" d="M138.94,84.55a.91.91,0,0,1-.66.09l.06,0,.17.09.54.29a2.78,2.78,0,0,0,1.92.26c.23,0,.1,0-.41-.1l.09.1a1.24,1.24,0,0,0,.37.35,1.79,1.79,0,0,0,1.06.27,3,3,0,0,0,1.23-.29,2.93,2.93,0,0,0,.39-.21l.28-.16a.53.53,0,0,1-.28.1l-.63-.07c-.09,0-.12-.17,0,0s.08.12.11.18a2.68,2.68,0,0,0,.41.53,2.3,2.3,0,0,0,1.85.43,1.86,1.86,0,0,0,.34-.05c.11-.06,0,0-.06,0s-.11-.16-.12,0a.63.63,0,0,0,.1.3,1.1,1.1,0,0,0,.74.64,3.27,3.27,0,0,0,.45.1h.1c.3,0,.16-.07-.43-.34.27,1.14,2.85.46,2.58-.69a1,1,0,0,0-.71-.67,1.29,1.29,0,0,0-.48-.1h-.15c.35.34.49.41.41.2,0-.77-.89-1.13-1.53-1.19a3,3,0,0,0-1,.06c-.49.1.23,0,.08.07,0,0-.05-.07-.1-.15a1.76,1.76,0,0,0-1.52-1,2.58,2.58,0,0,0-1.36.32l-.37.22c-.58.31.53-.13.62.09-.29-.69-1.38-.76-2-.66-.28,0-.08,0,0,0-.26-.07.05,0-.19-.07s-.42-.24-.64-.34a2.69,2.69,0,0,0-2.38,0c-.45.19-1,.77-.63,1.27s1.25.38,1.75.16Z"/><path class="cls-10" d="M93.19,36A3.22,3.22,0,0,0,93,34.7a1.27,1.27,0,0,0-1-.77,1.81,1.81,0,0,1-.57-.06c-.31-.13-.37-.54-.33-.87a1.84,1.84,0,0,0,0-1c-.26-.54-1-.51-1.58-.27s-1.1.62-1.68.49c-.8-.17-1.15-1.17-1.89-1.51-.93-.42-1.94.34-3,.44a6.78,6.78,0,0,0-1.28.08,1.81,1.81,0,0,0-1.16,1.27,5.31,5.31,0,0,0-.14,1.78,1.07,1.07,0,0,0,.15.61,1,1,0,0,0,.85.27l10.47.2"/><path class="cls-15" d="M135.16,88.8c-5,.15-13.1-.22-13.1-.22s1.79,11.79,13.36,11.44,10.64-11.57,10.64-11.57S140.15,88.65,135.16,88.8Z"/><path class="cls-16" d="M135.2,88.8c-2.37.07-10.54,0-10.54,0s1.89,6.85,10.47,6.59c9.31-.28,10-6.84,10-6.84Z"/><path class="cls-17" d="M135.32,89.17c-2.37.07-9.6-.13-9.6-.13s2.68,2.66,9.79,2.44,9.3-2.94,9.3-2.94Z"/><path class="cls-15" d="M148.71,87a17.77,17.77,0,0,1-2.8.4c-2-.12-3.21-.63-4.64-.7-2.43-.12-3.94.93-5,1s-2.63-.93-5.05-.66c-1.42.16-4.93.81-6.89,1a17.41,17.41,0,0,1-2.82-.23c-.34.1.42,2.79,13.69,2.38S149.07,87.08,148.71,87Z"/><path class="cls-10" d="M134.46,84.17l-.21,2.19a.77.77,0,0,1-.6.69c-2.23.53-10.75,2.52-12.81,2.68,0,0,.26.85.21.85h-.48c-.79-.09-.47-2.75.23-3.1a44.22,44.22,0,0,1,5.28-2.29,47.2,47.2,0,0,1,7.54-1.91A.79.79,0,0,1,134.46,84.17Z"/><path class="cls-10" d="M137.25,84.47l.13,2a.81.81,0,0,0,.59.64c1.93.35,8.25,1.52,10,1.52h.11l.55-.12c.64-.14.22-1.76-.41-2.06a25.74,25.74,0,0,0-10.36-2.89C137.43,83.53,137.15,84,137.25,84.47Z"/><path class="cls-10" d="M148.05,87.1a3.94,3.94,0,0,1,.36,3.34,1,1,0,0,1-.14.27.49.49,0,0,1-.5.12,1.1,1.1,0,0,1-.45-.33c-.61-.7-.67-1.8-1.22-2.56-.15-.21-.35-.45-.26-.69s.3-.23.49-.25l1-.1"/><path class="cls-10" d="M124.07,87.6a5.91,5.91,0,0,0-1.51,2.33c-.25.69-.43,1.52-1.09,1.85a2.36,2.36,0,0,1-.57.18.7.7,0,0,1-.43,0,.56.56,0,0,1-.27-.35,2.57,2.57,0,0,1-.07-1.62.42.42,0,0,0,0-.22.63.63,0,0,0-.13-.24,1.17,1.17,0,0,1-.18-1,1.88,1.88,0,0,1,1.49-1.07,8.34,8.34,0,0,0,1.87-.43"/><path class="cls-5" d="M136.11,147.48c-.5-.61-17.72-15.57-17.72-15.57l-9,9.55-4.91-2.74c-13-7.11-25.1-22.68-25.1-22.68l11.34-10.75c4.22,6.48,30,21.77,30,21.77l14.65,17.41,1.61-19.3c3.82-2.5,1.61-11,1.61-11l12.22,4.37c1.16,14.09-2.32,16.19-2.32,16.19l-9-4.26c-1,5.23-2.37,10.48-3.18,15.74-1.46,9.64,1.44,20.72,2.08,30.55,1.42,22,2.86,52.07.66,74,0,0,1,29.36.66,39.45s-.24,45.74-.24,45.74"/><path class="cls-8" d="M136.68,147.22a19.32,19.32,0,0,0-2-1.78c-1.41-1.26-2.84-2.51-4.26-3.76q-4.69-4.12-9.41-8.21l-2.19-1.9c-.26-.23-.79,0-1,.18l-9,9.54,1-.18a92.93,92.93,0,0,1-13.13-8.32,108,108,0,0,1-14.21-13.91c-.88-1-1.75-2-2.58-3.1l0,.43,11.33-10.75-1.08.09a20.21,20.21,0,0,0,3.78,4c2,1.71,4.07,3.29,6.19,4.82,4.51,3.26,9.17,6.3,13.88,9.26q2.35,1.47,4.72,2.91l1.25.75a2.07,2.07,0,0,1,.25.15s-.13-.12,0,0a37.39,37.39,0,0,1,2.5,3l4.52,5.37,7.56,9c.28.33,1.16.15,1.2-.32l1-12.22.53-6.36a3,3,0,0,1,0-.61s0-.07,0-.1c-.19.39.55-.34.61-.4a6.61,6.61,0,0,0,1.51-3.58,18.76,18.76,0,0,0-.52-7.19l-1,.57,11,4a3.8,3.8,0,0,1,.82.29c.44.29.29-.1.16.6a20.07,20.07,0,0,0,.17,3.53c0,1,0,1.92,0,2.88a20.49,20.49,0,0,1-1.22,6.94,5.86,5.86,0,0,1-.79,1.4c-.19.24-.18.23-.3.3l.89-.08-9-4.26c-.36-.17-1-.06-1.1.4-1.06,5.25-2.4,10.45-3.18,15.75a55.17,55.17,0,0,0,.12,14.18c.55,4.92,1.39,9.82,1.83,14.76.38,4.34.57,8.71.81,13.06,1,18.24,1.69,36.59.58,54.84-.16,2.68-.64,5.43-.6,8.11,0,1.53.1,3.05.14,4.58q.27,8.82.44,17.65c.2,10.55-.05,21.08-.11,31.63q-.09,15.17-.06,30.34v.57c0,.63,1.26.42,1.25-.1q0-13.17,0-26.33c.05-10.45.36-20.89.22-31.34-.08-6.31-.24-12.62-.41-18.93a86.44,86.44,0,0,1-.12-10.05c1.67-18.11,1.09-36.44.23-54.57-.43-8.82-.77-17.67-1.94-26.42A135.72,135.72,0,0,1,136.59,153a65.12,65.12,0,0,1,1.95-15c.55-2.54,1.12-5.08,1.63-7.62l-1.11.4,4.71,2.23,3,1.44a5.94,5.94,0,0,0,1.43.65c1.92.3,2.76-4,3-5.12a43.29,43.29,0,0,0,.26-11.65c0-.12-.17-.21-.26-.24L139,113.71c-.33-.11-1.1.11-1,.57a19.22,19.22,0,0,1,.59,6.18,6.37,6.37,0,0,1-1.46,4c-.57.57-.73.55-.79,1.27l-1.17,14-.39,4.79,1.19-.32-14.28-17a3.66,3.66,0,0,0-1.07-.89c-1.31-.79-2.61-1.58-3.91-2.39-4.51-2.79-9-5.67-13.33-8.71-2.54-1.77-5-3.59-7.42-5.55A23.17,23.17,0,0,1,91.29,105c-.24-.36-.85-.12-1.09.1L78.87,115.88a.31.31,0,0,0-.05.43A105.25,105.25,0,0,0,86.5,125c5.13,5.27,10.75,10.3,17.18,13.91l5.23,2.92a.86.86,0,0,0,1-.18l9-9.55-1,.18c5.08,4.41,10.17,8.83,15.21,13.29a26.65,26.65,0,0,1,2.43,2.2c.35.41,1.53-.08,1.13-.53Z"/><path class="cls-8" d="M28.33,212a181.39,181.39,0,0,0,34,5.72,58.49,58.49,0,0,0,12.05-.29c.58-.09.95-.82.14-.71-7.35,1.09-15,.22-22.32-.82-6.47-.92-12.91-2.17-19.28-3.64-1.3-.3-2.59-.6-3.88-.93-.4-.11-1.38.5-.7.67Z"/><path class="cls-5" d="M87.72,171.06s16.9,2.2,29.07.62c0,1.47.76,4.5-1.16,5.33-1.62.7-4.12.71-5.92.77-2,.08-4.11,0-6.16-.09-4.86-.22-9.73-.51-14.57-.89-1.46-.11-1.38-.28-1.35-1.43,0-.77,0-1.53.05-2.3C87.68,173,87.77,171.07,87.72,171.06Z"/><path class="cls-8" d="M87.53,171.39c9.58,1.24,19.61,1.83,29.21.62l-.46-.28a26.51,26.51,0,0,1,.09,3.33c-.27,2-2.26,2.15-4,2.28a89.25,89.25,0,0,1-11.33-.11c-4-.2-7.95-.36-11.9-.76-.73-.07-1-.12-1-.88s0-1.72,0-2.57a7.4,7.4,0,0,0,0-2.1c-.1-.41-1.13-.14-1,.28a6.37,6.37,0,0,1,0,1.57c0,.73,0,1.46-.06,2.19,0,1-.2,1.84.94,2.09a46.25,46.25,0,0,0,6.55.5q3.77.24,7.53.42c4,.19,8.45.61,12.4-.29a3.23,3.23,0,0,0,2.69-1.93c.46-1.32.08-2.77.08-4.12,0-.24-.26-.3-.46-.28-9.51,1.2-19.45.61-28.94-.62C87.46,170.67,86.84,171.3,87.53,171.39Z"/><path class="cls-18" d="M141.14,74.11a21.76,21.76,0,0,1,.71,2.25,4.22,4.22,0,0,1,.16,1.5,2.39,2.39,0,0,1-.83,1.42,4.84,4.84,0,0,1-3.41.93,9.42,9.42,0,0,1-3.62-.53c-.18-.07-.58.18-.3.29a9.17,9.17,0,0,0,3,.55,10.9,10.9,0,0,0,3.27-.28,3.67,3.67,0,0,0,2.06-1.61,3.11,3.11,0,0,0,.15-2.36,21,21,0,0,0-.73-2.29c-.07-.2-.56-.06-.49.13Z"/><path class="cls-18" d="M129.29,76.68a1.1,1.1,0,0,0-1.07.59,2.59,2.59,0,0,0-.21,1.32,1.61,1.61,0,0,0,.45,1.16,3.4,3.4,0,0,0,2.94.47c.44-.14.85-.35,1.3-.45.05,0,.24-.07.22-.16s-.23,0-.27,0a10.15,10.15,0,0,1-1.83.56,3.09,3.09,0,0,1-1.63-.38,1.86,1.86,0,0,1-.65-2,2,2,0,0,1,.18-.58.83.83,0,0,1,.16-.21s.05,0,.09-.06,0,0,0,0a.55.55,0,0,0,.35-.1c.06,0,.08-.12,0-.12Z"/><path class="cls-6" d="M178.67,216.17a222.6,222.6,0,0,1,1.74-40.06c.06-.38-.73-.27-.77.06a222.61,222.61,0,0,0-1.75,40.06c0,.39.79.27.78-.06Z"/></g></g></svg>