<?xml version="1.0" encoding="UTF-8"?>
<svg id="Layer_6" xmlns="http://www.w3.org/2000/svg" xmlns:xlink="http://www.w3.org/1999/xlink" version="1.1" viewBox="0 0 292.9 302">
  <!-- Generator: Adobe Illustrator 29.6.1, SVG Export Plug-In . SVG Version: 2.1.1 Build 9)  -->
  <defs>
    <style>
      .st0, .st1, .st2, .st3 {
        fill: none;
      }

      .st4 {
        fill: #070707;
      }

      .st5 {
        fill: #4f2f26;
      }

      .st6 {
        fill: #010101;
      }

      .st7 {
        fill: #b0b1b1;
      }

      .st8 {
        fill: #c480b7;
      }

      .st9 {
        fill: #638e9f;
      }

      .st10 {
        fill: #c69e81;
      }

      .st11 {
        fill: #27153c;
      }

      .st12 {
        fill: #231f20;
      }

      .st13 {
        fill: #98554a;
      }

      .st14 {
        fill: #171413;
      }

      .st15 {
        fill: #ddad6f;
      }

      .st16 {
        fill: #f5e0ed;
      }

      .st17 {
        fill: #f1eef7;
      }

      .st18 {
        fill: url(#linear-gradient);
      }

      .st19 {
        fill: #421436;
      }

      .st20 {
        fill: #28343a;
      }

      .st21 {
        fill: #575757;
      }

      .st1 {
        stroke-width: .7px;
      }

      .st1, .st2, .st3 {
        stroke: #7e7e7e;
        stroke-miterlimit: 10;
      }

      .st2 {
        stroke-width: .7px;
      }

      .st22 {
        fill: #825739;
      }

      .st3 {
        stroke-width: .7px;
      }

      .st23 {
        fill: #412c16;
      }

      .st24 {
        fill: #0a2f44;
      }

      .st25 {
        fill: #060606;
      }

      .st26 {
        fill: #1e1811;
      }

      .st27 {
        fill: #e3bcd9;
      }

      .st28 {
        fill: #fff;
      }

      .st29 {
        fill: #14162a;
      }

      .st30 {
        fill: #62184e;
      }

      .st31 {
        fill: #5f6060;
      }

      .st32 {
        fill: #7e7e7e;
      }

      .st33 {
        fill: #475c66;
      }

      .st34 {
        fill: #5b6a7d;
      }

      .st35 {
        fill: #120f0e;
      }

      .st36 {
        fill: #161412;
      }

      .st37 {
        fill: #272828;
      }

      .st38 {
        fill: #94674b;
      }

      .st39 {
        clip-path: url(#clippath);
      }

      .st40 {
        fill: #523936;
      }
    </style>
    <clipPath id="clippath">
      <path class="st0" d="M242.7,61.5c-13.9-13.9-30.1-24.2-47.4-30.8-4.2-20-21.9-35-43.2-35s-36.8,13.2-42.3,31.3c-21.4,6.1-41.7,17.6-58.5,34.5C-1.5,114.3-1.5,200,51.3,252.9c52.9,52.9,138.6,52.9,191.4,0s52.9-138.6,0-191.4h0Z"/>
    </clipPath>
    <linearGradient id="linear-gradient" x1="146.7" y1="70.2" x2="146.2" y2="340.9" gradientTransform="translate(0 301.9) scale(1 -1)" gradientUnits="userSpaceOnUse">
      <stop offset=".3" stop-color="#bbe5f5"/>
      <stop offset="1" stop-color="#77c5da"/>
    </linearGradient>
  </defs>
  <path class="st36" d="M215.5,82.5c-.8.4-1.8.6-2.7.6-.7,0-1.4,0-2.1-.4-.6-.3-.9-1-.7-1.6,0-.3.2-.6.3-.8.2-.4.3-.8.4-1.3,0-.2-.3,0-.3,0-.2.7-.4,1.3-.7,1.9-.2.4-.1.9.1,1.3.7,1.1,2.2,1.1,3.4,1.1.8,0,1.6-.3,2.4-.7.2,0,.1-.3,0-.2h0c0,0,0,0,0,0Z"/>
  <path class="st36" d="M218.8,80.1c.6,0,.7.8.7,1.2,0,.3,0,.5-.2.8-.3.3-.7.5-1.1.5-.5,0-1-.1-1.5-.3,0,0-.2,0-.2,0,0,0-.1.1,0,.1.5.2,1,.2,1.5.3.5,0,1-.2,1.4-.5.3-.2.5-.5.6-.9,0-.3,0-.7-.1-1,0-.3-.3-.6-.7-.6,0,0-.2,0-.2,0,0,0-.1.1,0,0h0c0,0,0,0,0,0Z"/>
  <g class="st39">
    <g>
      <circle class="st18" cx="146.5" cy="157.2" r="135.4"/>
      <polyline class="st9" points="159.6 205.5 180.2 204.7 172.1 189.6 159 191.8 159.6 203.7"/>
      <path class="st9" d="M157.3,171.1c-9.2,6.5-11.4,5.4-11.4,5.4l-70.8-1.3h0c1.8,7.3,1.4,15-1.3,22h0c0,0,49.8,12.1,69.5,13.5,4.1.3,14.4,2.6,23.4-8.1,3.1-2.9.9-3,.6-6.3"/>
      <path class="st40" d="M99,128.8h0v-.2.2Z"/>
      <path class="st40" d="M115.4,110.3h0c0,0,.2,0,.2,0h-.2Z"/>
      <path class="st24" d="M226.3,214.8l19.9,52,1.8-.2,6.4,20.8s-120.5,29.4-126.9,22.4c-11.5-12.5-12.1-20.4-7.4-30.4,8.6-18.3,75.6-64.5,76.9-63.9l29.4-.6h0Z"/>
      <path class="st9" d="M164.1,82.9s-21.1,18.4-25.5,25.6c-5.7,9.2-1.5,35.4-2,44.7-.6,10.2,0,43,0,43l38-1,6-36.4-17-77.7s.6,1.9.6,1.9Z"/>
      <path class="st10" d="M182.9,57.1c.8,4.2,2.1,8.2,4,12,4.4,9.1,14.1,11.1,14.1,11.1l-29.3,31.6-17.8-9s6.6-7.2,6.2-9.2-8.6-15-8.6-15"/>
      <path class="st9" d="M190.8,74.3h2.1c7.7,0,24.1.4,31,3.8,15.9,7.8,14.1,30.8,16.2,38,1,3.5-2.2,39.2,9.1,56.8,7.5,11.8,14.3,24,20.3,36.6l-19.3,11.8c-9.4,5.7-27.6-1.6-38.2,1.2l-27.5,3.4c-5.2-13.3-7.9-11.9-14-29.7l-22.8-52-2.6-27.8s6-8.2,6.1-9.7l8.6-15s.6,13.4,11.4,10.4c11.1-3.1,13.2-7.3,18.4-16.8,0,0,2-7,1.2-11h0Z"/>
      <path class="st9" d="M283.5,187.1c-.4-.6-.8-1.1-1.1-1.6-3.9-5.8-8.2-11.3-12.9-16.4-4.7-5-8.7-9.4-11.4-16.1-6.8-16.5-9.1-59.2-20-61.4-2.1-.4-33.4-9-33.4-9l-.7-.5c2,1.4-6.8,12.9-7.8,14.1-6.4,7.7-15.1,16.8-26,12.4l.4,2.3.7,12.5,9.9,32.6c-.1-.3,3.4,11.5,5.5,16.8,8.2,19.9,29.5,70.5,31.9,73.8,1.7,2.3,4.6,3.4,7.4,2.7l55.1-45.7c3-2.3,4.7-5.6,3.8-9.2-.6-2.3-.2-5.1-1.5-7.1h0Z"/>
      <path class="st24" d="M245.1,235l40.3,23-7.3,8.5-33.3,16.7c0-.1-26.2,7.5-26.2,7.6l43.8-9.1c3.4,7,6.6,19.3,6.7,27.1v7.1s-103.6,26.8-126.5,10.4c-13.8-9.9-11.3-20.9-6.2-30.6,9.2-17.8,70.6-71.3,73-71.3l31.4-2.3,4.3,13h0Z"/>
      <path class="st24" d="M284.1,193.4s-9.6,9.2-31.7,8.1c-4.1,6.4-8.6,12.5-13.5,18.3-9,11-18.8,21.4-27.5,32.7,12.2,3.9,37.5,15.7,50.2,16.9,16.7,1.7,31-8.6,36.2-26.7,4-13.9.4-37.4-13.7-49.3h0Z"/>
      <path class="st34" d="M254,283.6c-9.2,2.1-18.5,3.8-27.8,5.6-8.8,1.6-17.6,3.3-26.4,4.7-3,.5-7.6,1.6-8.4,5,0,.4,1,.2,1.1-.1.7-3.4,5.3-4,7.9-4.4,3.8-.6,7.5-1.3,11.3-1.9,9.9-1.8,19.8-3.6,29.7-5.6,4.3-.9,8.6-1.7,12.8-2.7.7-.1.5-.6-.1-.5h0Z"/>
      <rect class="st15" x="137.1" y="23.7" width="5.3" height="14.2" rx="2.5" ry="2.5" transform="translate(-2.9 42.6) rotate(-17.1)"/>
      <rect class="st15" x="156.8" y="34.9" width="5.3" height="14.2" rx="2.5" ry="2.5" transform="translate(24.7 137) rotate(-49.9)"/>
      <path class="st22" d="M183.1,58.2h0c0,0,0,0,0,0Z"/>
      <path class="st10" d="M167.9,86.6l-9.1,4.6-4.3,1.6c-1.8.8-3.8.4-5.2-1-3.1-2.9-4.4-4.4-4.8-4.8-2.5-2.2-4.8-4.6-6.9-7.2-1.8-2.3-3.3-3.4-4.9-6.4-1.2-2.1-1.8-3.7-2.1-7.9,0-1.1-.4-2.1-1.1-2.9-1.3-1.9-2.5-4.3-4.2-6.9-.3-.5-.6-.9-.8-1.5,0,0-5.2-11.7-4.7-16.8s.8-10.2,3.6-12.3,14.3-3.2,14.3-3.2l12-6.9,12.9,1.1,10.7,11,5.2,15.5,4.5,15.4"/>
      <path class="st14" d="M167.2,21.9c-1.8-7.1-8.9-7.3-11.9-7.5-2.5-.1-9.3.3-13.5,2.7-1.8,1.1.7,4.7,0,5.8-.3.2-3.8,2.6-5.3,3.5-1.8,1.2-3.8,2-5.9,2.5-1.2,0-2.4.4-3.4,1-1.8,1.1-4.6-3.5-6.8,2.7h-.3c2.5-8.9,9.2-11.4,16.8-15.8.8-.5,1.6-.9,2.5-1.3,12.4-5.9,12.1-5.7,23.7-.5,6.8,3,11.4,6.6,12.5,9.6l.2.7c1.2,3.1,7.6,10.3,7.2,12.4-.3,1.4-.6,7-.8,11.8l-6.1,2.5c-.3-1.2-3.7-11.2-4.1-12.4"/>
      <path class="st10" d="M183,58.5c6.8,2.8,4.6-5.7,4.6-5.7,1.7-5.5,0-9.9-1.4-12.8s-4.6-1.5-4.6-1.5c-2.7,1.5-4,2.8-2.4,13.2"/>
      <path class="st14" d="M127.9,26.5c4.5-1.9,15.3-9.8,21.4-12.6,2.5-1.2,13.5,1.8,15.2,2.9,3.8,2.3.9,12.2,9.5,21.1,2.8,2.9,2.4-4,5.2-2.4s3.8,2.2,3.8,2.2c-2.6-10.7-2.5-10.3-8.7-19.4s-18.7-9.2-24.3-8-21.9,9.5-25.6,13.4"/>
      <path class="st29" d="M181.8,49.5c0-1.9.3-3.9.9-5.8.2-.7.6-1.4,1.1-2,0,0,.1,0,.1-.1,0,0,0,0,0,0h-.3c.4.2.7.5.9.9.7.9,1.1,2,1.3,3.2,0,.2.5,0,.5-.1-.1-1.3-.7-2.6-1.6-3.6-.3-.3-.6-.7-1.1-.5-.9.5-1.3,1.8-1.5,2.7-.5,1.8-.7,3.6-.8,5.4,0,.2.5.1.5,0h0Z"/>
      <path class="st29" d="M182,50.8c1.5-.7.9,3.8,2.6,2.7.4-.3.6-.8.7-1.2.2-.8.2-1.6,0-2.4-.1-.8-.4-1.5-.8-2.1-.4-1-1.4-1.8-2.5-2-.2,0-.6.3-.2.3,1,0,1.7,1,2.1,1.7.4.5.6,1.1.8,1.7.2.8.2,1.6.1,2.4,0,.3-.1.6-.2.9,0,.2-.2.5-.4.6,0,0,0,0,0,0,0,0,0,0-.1-.2,0-.2-.1-.3-.2-.5-.1-.4-.2-.8-.3-1.2,0-.4-.3-.7-.6-.9-.4-.2-.8-.2-1.2,0-.3.1,0,.3.2.2h0s0,0,0,0Z"/>
      <path class="st14" d="M141.8,44.3l1,2.1c.2.5.8,1.8,1.1,2.3,1.7-1.3,3.1-2.8,4.2-3.5,2.2-1.5,4.5-3.1,7.1-3.9,1.2-.4,2.4-.5,3.6-.5.4,0,1.6.4,1.9,0,.1-.2-.6-.9-.6-1-1.4-1.5-3.4-1.4-5.6-1-4.4,1.1-8.7,2.9-12.5,5.3"/>
      <path class="st14" d="M123.6,52.9l1.1-.8c3.2-2,6.8-3.4,10.5-4.1l.8,2.1c.2.6.6,1.5.8,2.1-1.8.1-3.4,0-4.5.2-2.2.2-4.4.8-6.5,1.8-.2,0-1,.6-1.1.7-1.1-.8-1.4-1.9-1.2-2.1h0Z"/>
      <path class="st25" d="M140.4,63.8c-.5,1-9,4.6-10.5,4.1-1.2-.5-4.4-4.4-5.6-5.9h0c3.9-4.2,10.4-6.6,15.2-5.7.6,3,1.2,6.8.9,7.5h0ZM160.6,54.2c-.2,1.1-7.9,5.5-10.2,5.2-1.6-.2-4.1-3.6-5.7-5.5,2.9-4.3,10.6-9.1,16-9.1.5,3.1.5,6.3,0,9.4h0ZM175.1,42.7l-.6-1.3-15.8,2.4h0c-5.9.3-12.3,4.9-15.2,9.4l-3.5,1.8h0c-5.6-1.2-12.8,1.5-17,6.4l.4.5h0s0,0,.2.2l.3.4c2.2,2.8,4.7,5.6,5.9,6.1.9.3,2.9-.3,4.6-.9.6-.2,1.2-.4,1.6-.6s4.8-2,5.2-3-.6-6.4-1-8.1l3.6-1.8c1,1,4.3,5.7,6.6,6s11.3-4.4,11.6-6.1c.3-2.4.3-4.8.1-7.2l-.2-2.5,13.3-1.6h0Z"/>
      <path class="st38" d="M150.9,74.4c3.5-1.6,9-4.5,9-4.5,0,0,3.1,8.8-5,12.5-8.1,3.7-12.3-4.8-12.3-4.8,0,0,4.7-1.6,8.2-3.2Z"/>
      <path class="st4" d="M150.8,74.4c1.7-.7,8.3-4,8.3-4,0,0,.4,6.9-5.6,9.6-3.5,1.8-7.8.8-9.9-2.5l7.3-3h0Z"/>
      <path class="st17" d="M150.9,74.7c1.7-.8,6.6-3.3,6.6-3.3,0,0-1,2.6-6,4.9s-7.4,1.2-7.4,1.2c0,0,6.8-2.8,6.8-2.8Z"/>
      <path class="st38" d="M142.3,77.1c.2-.1-.2.4.6,0,1.3-.7,2-1.5,3-2,1.6-.9,3-.7,3.8-1.1s1.5-1.5,3.3-2.1c1.1-.4,3.7-1.1,5.1-1.6.6-.3,1.3-.7,1.9-1.1.3,0,.6,2-8.7,6.2s-9.2,1.9-9,1.8h0Z"/>
      <path class="st14" d="M150,71.5l.5.8c.1.2.4.3.7.2,1.8-.5,8.6-2.1,10.1-2.8,0,0,.1,0,.2-.1h.2c.6-.5,0-1.2-.6-1.2-1.6,0-3.1.2-4.7.5-2.1.4-4.2.9-6.2,1.6-.3.1-.5.5-.3.8,0,0,0,0,0,.1h0Z"/>
      <path class="st14" d="M147.6,72.4l.4,1c0,.2,0,.5-.2.6-1.3.9-5.5,3.9-6.8,4.5l-.5.3h-.3c-.5.2-.5-1-.1-1.5.8-.9,1.6-1.8,2.6-2.6,1.3-1.1,2.8-2,4.3-2.8.3,0,.6,0,.7.4,0,0,0,0,0,0h0Z"/>
      <path class="st14" d="M151.7,94l-1.7-1.4s17.1-4.2,19.9-6.4c7.3-5.8,8.9-20.3,8.9-20.3,0,4.3-.6,8.6-2.1,12.7-2.5,7-3.4,8.1-8.3,10.1-3.8,1.5-10.6,4.4-13.7,5.7-1,.4-2.1.2-2.9-.4h0Z"/>
      <path class="st14" d="M185.6,39.2s.6-6.2-2.7-14.5-8.3-19.3-19.7-19.9c-2,0-4.1,0-6,.6,0,0-9-4.1-25.4,6.4-11.5,7.4-14.4,14.4-11.8,24.4,0,0,1.5-6.4,2.7-6.3s3.2,2.1,7.5.9,10.8-4.6,12.8-7.5,6.4-6.6,9.4-7.4c7.4-1.8,10.2,3.1,12.1,6s7.8,13.1,11.9,13.2c2.2,0,4.3,1.1,5.4,3.1h.6c1.1,0,2.2.3,3.2.9,0,0,0,0,0,0Z"/>
      <path class="st14" d="M178.8,65.9c-4.1,12.3-7.8,16.8-10.7,18.3s-4.8,3.2-7.2,3.2-4.3-1.1-4.8-.3c-.2.3-.6,2.4-.8,2.7-.4.7-2.4,1.2-3.2,1.2-2,0-4-.6-5.5-1.9,1.5,1.6,3.2,4.1,5.4,4.4,1.4.1,2.9-.8,4.3-1.2,2.8-1.1,5.5-2,8.2-3.1,2.4-1,5-1.8,7-3.5,3.3-2.9,5.4-9.6,6.5-14.1l.9-5.6h0Z"/>
      <path class="st36" d="M148.4,68.8c-.9.9-2,1.5-3.2,1.8-.4.2-.9.2-1.4.1-.4,0-.9-.3-1.2-.5-.6-.3-.7-1.2-.8-1.9s0-1.2,0-1.8c0-.2-.4,0-.4.1v1.5c0,.7.1,1.3.4,1.9.4.5,1.1.8,1.7.9.8.2,1.6,0,2.4-.3,1.1-.4,2-.9,2.8-1.7.2-.2-.2-.2-.3,0h.1,0Z"/>
      <path class="st36" d="M151.2,64.8h.1c0,0,.1,0,.2,0,.1,0,.2.2.3.3.2.3.3.5.4.8.3.9-.4,1.5-1.1,1.8-.3.1-.5.2-.8.2s-.6,0-.8,0c0,0-.2,0-.2.1s.1,0,.2,0c.6,0,1.2-.1,1.8-.3.5-.2.9-.5,1.3-.9.3-.3.3-.8.2-1.1-.1-.4-.3-.7-.6-1-.3-.3-.7-.4-1.1-.2,0,0-.1,0,0,.1.1,0,.2,0,.3,0h-.1s0,0,0,0Z"/>
      <path class="st11" d="M144.3,138.7c5.7,12.4,12,24.6,17.3,37.2.1.3,1,0,.9-.2-5.4-12.6-11.6-24.8-17.3-37.2-.1-.3-1,0-.9.2Z"/>
      <path class="st34" d="M132.3,307.1c.1-6,.3-12.2,2.1-18s5.8-10.4,10.1-14.7c9-8.9,19-16.6,29.1-24.1,4-2.9,7.9-5.9,11.6-9.2.6-.5-.3-.9-.7-.5-3.3,2.9-6.8,5.7-10.3,8.3-5,3.7-9.9,7.5-14.8,11.3-5.1,4.1-10.1,8.4-14.8,12.8-4.3,4.1-8.4,8.5-10.7,14-2.5,6.4-2.7,13.3-2.9,20,0,.6,1.1.4,1.1,0h0s0,0,0,0Z"/>
      <path class="st9" d="M279,181.5c3.1,1.4,5.7,6.1,6.3,8.9.3,1.3.2,2.7-.3,3.9-.5,1.1-1.2,2.1-2.1,2.9-5.2,4.6-10.5,9.3-16.5,13-11.5,7.2-25,10.7-38.2,13.9s-22.3,4.8-35.9,4.8-11.6-4.7-12.4-6.9c-.8-2.4,1.7-4.6,3.9-6.1,5.8-3.7,13.7-1.5,19.5-5.2"/>
      <path class="st9" d="M218.3,173.4s-14.3-79-12-83.6"/>
      <path class="st9" d="M219.9,76.7c8.7.4,22.5,11.8,25,19.3,11.8,38.1,6.6,84.7-2.2,97.3"/>
      <path class="st11" d="M197.4,171.4c1.8.1,3.4.7,4.9,1.7,2,1.2,3.7,2.9,4.9,4.9.7,1.3,1.1,2.8,1.1,4.3,0,.4.9.3.9,0,0-5.2-4-9.2-8.7-10.9-.9-.4-1.8-.5-2.7-.6-.2,0-.5,0-.6.3,0,.1,0,.3.2.3,0,0,0,0,.1,0h0s0,0,0,0Z"/>
      <path class="st34" d="M211.5,292.3l36.7-11.5,5.2-1.6c.6-.2.6-.7-.1-.5l-36.6,11.5-5.2,1.6c-.6.2-.6.7.1.5h0Z"/>
      <path class="st10" d="M123.8,183.5s-9.9-3.5-14.8-4.3h-.2c0-.1-.6-1.2-.6-1.2,0,0-4.2-5.2-4.2-5.2l-4.4-5.5-10.7,8.6s8.3,9.7,12.3,12.4c0,0,.3.2.4.1,5.9,2.8,13.9,2.6,22.1,1.9,0,0,6.9,3.1,9,3.1,4.5.1,5.2-2.3,4.4-2-1.2.4-2.5.2-3.6-.3,0,0,5.6-.9,5.8-2.3s-1.6.1-5-.7c0,0,6.7-1.2,6.1-4-.2-.8-2.5,1.2-3.8,1.3-.9,0-1.8-.2-2.6-.6,0,0,5.3-1.5,5-3.1-.1-.8-2.1,0-3.5,0-.8,0-1.7,0-2.4-.4,0,0,3,1,2.9-.5s-3-1.1-5.1-.7-7,3.2-7,3.2h0Z"/>
      <path class="st10" d="M119.6,189.1c0,.4,0,.8,0,1.2.4-.1.7-.4.9-.7,0-.1-.3-.3-.8-.5h0Z"/>
      <path class="st32" d="M63.1,247c0-1.1-1-1.9-2.1-1.8-1,0-1.7.8-1.8,1.8v57.9c0,1.1,1,1.9,2.1,1.8,1,0,1.7-.8,1.8-1.8v-57.9Z"/>
      <path class="st32" d="M88.1,159.3h0c0,1.2.9,2.2,2.1,2.2,1.2,0,2.1-1,2.1-2.2.2-2.6.2-19.9,0-22.5-.1-1.4-.3-2.8-.5-4.1-.1-1-.4-2-.9-2.9-1.4-2.2-3.8-2.6-6.3-2.5-2.6.2-5.2.5-7.8.9-1.2.3-1.8,1.5-1.5,2.7.3,1.1,1.5,1.8,2.7,1.5,2-.3,4.1-.6,6.2-.7.5,0,.9,0,1.4,0h.7c.4,0,0,0,.2,0h.3c-.1,0-.2,0,0,0s.4.3.2.1c.2.2.2.2.1.1s0,0,0,.1,0,0,0,.2c.5,1.9.8,3.8.8,5.8.1,2.1.1,19.1,0,21.3h0c0,0,0,0,0,0Z"/>
      <path class="st32" d="M19.1,161.5h0c0,1.2,1,2.2,2.2,2.2s2.2-1,2.2-2.2c.2-2.6.2-19.9,0-22.5-.1-1.4-.3-2.8-.5-4.1-.1-1-.4-2-1-2.9-1.4-2.3-3.8-2.6-6.3-2.5-2.6.2-5.2.5-7.8.9-1.2.3-1.8,1.5-1.5,2.7.3,1.1,1.5,1.8,2.7,1.5,2-.3,4.1-.6,6.1-.7.5,0,.9,0,1.4,0h.7c.2,0,0,0,.2,0,.1,0,.2,0,.3,0-.1,0-.1,0,0,0s.4.3.2.1c.2.2.2.2.1.1s0,0,0,.1,0,0,.1.2c.5,1.9.8,3.8.8,5.8.1,2.1.1,19.1,0,21.3h0s0,0,0,0Z"/>
      <path class="st37" d="M94.9,216l-2.3-65.8s-75.1-1.5-75.1,2.5c0,3,1.2,60.2,0,63.3h77.4Z"/>
      <path class="st37" d="M16.6,129.4s-1.8,3.1,0,4.4l-10.9,1.4s-1.9-2-1-4.2c.9-2.2,11.8-1.6,11.8-1.6h0Z"/>
      <line class="st3" x1="100.8" y1="281.3" x2="143.8" y2="240.8"/>
      <line class="st3" x1="101.5" y1="231.3" x2="140.2" y2="298.3"/>
      <line class="st3" x1="98.3" y1="260.9" x2="143.8" y2="264"/>
      <line class="st3" x1="98.3" y1="248.5" x2="145" y2="278.9"/>
      <path class="st0" d="M124.7,215.3h-.5c-11.9.6-20.2,21.8-18.2,46.2,1.1,12.2,4.4,23.5,9.4,31.9,4.8,8,10.8,12.4,16.3,12.1,11.9-.6,20.2-21.8,18.2-46.2-1.1-12.2-4.4-23.5-9.4-31.9-4.7-7.7-10.4-12.1-15.8-12.1h0s0,0,0,0Z"/>
      <path class="st32" d="M118,307.5c-6.6,0-13-4.7-18.2-13.3s-8.7-20.2-9.7-32.6h0c-2.2-26.4,6.9-47.7,20.7-48.4,6.8-.3,13.5,4.4,18.9,13.3,5.2,8.6,8.6,20.2,9.7,32.6,2.2,26.5-6.9,47.7-20.7,48.4h-.7ZM111.4,215.3h-.5c-11.9.6-20.2,21.8-18.2,46.2,1.1,12.2,4.4,23.5,9.4,31.9,4.8,8,10.8,12.4,16.3,12.1,11.9-.6,20.2-21.8,18.2-46.2-1.1-12.2-4.4-23.5-9.4-31.9-4.7-7.7-10.4-12.1-15.8-12.1h0s0,0,0,0Z"/>
      <path class="st6" d="M93.8,223.1c-4.2,10.3-5.9,23.7-4.7,37.8s5.1,27.2,11,37c6.2,10.3,14.2,15.9,22.5,15.9h.9c8.7-.4,16.1-6.9,20.6-18.1,4.2-10.3,5.9-23.7,4.7-37.8s-5.1-27.2-11-37c-6.4-10.7-14.8-16.3-23.5-15.9s-16,6.9-20.6,18.1h0s0,0,0,0ZM97.2,260.5c-1.1-13.3.4-25.9,4.4-35.4,3.4-8.4,8.5-13.5,13.4-13.8h.4c4.9,0,10.6,4.6,15.2,12.3,5.5,9.1,9.1,21.4,10.2,34.7s-.4,25.9-4.4,35.4c-3.4,8.4-8.4,13.5-13.4,13.8s-10.8-4.3-15.6-12.3c-5.5-9.1-9.1-21.4-10.2-34.7h0Z"/>
      <path class="st0" d="M93.8,223.1c-4.2,10.3-5.9,23.7-4.7,37.8s5.1,27.2,11,37c6.2,10.3,14.2,15.9,22.5,15.9h.9c8.7-.4,16.1-6.9,20.6-18.1,4.2-10.3,5.9-23.7,4.7-37.8s-5.1-27.2-11-37c-6.4-10.7-14.8-16.3-23.5-15.9s-16,6.9-20.6,18.1h0s0,0,0,0ZM97.2,260.5c-1.1-13.3.4-25.9,4.4-35.4,3.4-8.4,8.5-13.5,13.4-13.8h.4c4.9,0,10.6,4.6,15.2,12.3,5.5,9.1,9.1,21.4,10.2,34.7s-.4,25.9-4.4,35.4c-3.4,8.4-8.4,13.5-13.4,13.8s-10.8-4.3-15.6-12.3c-5.5-9.1-9.1-21.4-10.2-34.7h0Z"/>
      <path class="st20" d="M97.1,260.5s0-.2,0-.5,0-.9-.1-1.6c0-1.4-.2-3.6-.2-6.3,0-3.3.2-6.6.5-9.9.2-1.9.5-4,.9-6.2.4-2.3,1-4.6,1.7-6.8.8-2.5,1.8-5,2.9-7.3,1.3-2.7,3.1-5.1,5.2-7.3,1.2-1.2,2.7-2.2,4.4-2.8.9-.4,1.9-.5,2.9-.6,1,0,2,.2,2.9.5,1.8.6,3.4,1.5,4.9,2.7,1.4,1.1,2.7,2.4,3.8,3.8,4.6,5.4,7.6,11.9,9.9,18.7,2.3,7,3.7,14.2,4.3,21.5.6,7.2.4,14.5-.6,21.7-1.1,7-3.1,13.7-6.7,19.5-.9,1.5-2,2.9-3.2,4.1-1.2,1.4-2.7,2.4-4.4,3.2-1.8.8-3.8,1-5.8.5-1.7-.5-3.4-1.3-4.8-2.4-2.5-1.9-4.6-4.1-6.4-6.7-1.6-2.2-2.9-4.5-4.2-7-1.1-2.1-2-4.4-2.9-6.6-.8-2.1-1.4-4.1-2-6-.9-3.2-1.6-6.5-2.1-9.8-.4-2.7-.7-4.8-.8-6.2,0-.7,0-1.3-.1-1.6v-.6s0,.2,0,.6.1.9.2,1.6c.2,1.4.4,3.5.9,6.2.6,3.3,1.3,6.6,2.2,9.8.6,1.9,1.2,3.9,2,6,.8,2.2,1.8,4.4,2.9,6.6,1.2,2.4,2.6,4.7,4.2,6.9,1.8,2.5,3.9,4.7,6.3,6.6,1.4,1,3,1.8,4.7,2.3,1.8.5,3.7.3,5.4-.5,1.6-.8,3.1-1.8,4.3-3.1,1.2-1.2,2.2-2.6,3.1-4.1,3.6-5.8,5.5-12.5,6.6-19.4,1.1-7.2,1.3-14.4.6-21.7-.6-7.3-2-14.5-4.3-21.4-2.3-6.8-5.3-13.2-9.8-18.6-1.1-1.4-2.4-2.6-3.8-3.7-1.4-1.2-3-2.1-4.7-2.7-.9-.3-1.8-.4-2.8-.4-.9,0-1.8.2-2.7.5-1.6.6-3.1,1.5-4.3,2.7-2.1,2.1-3.9,4.5-5.2,7.2-1.2,2.3-2.2,4.8-3,7.3-.7,2.2-1.3,4.5-1.7,6.8-.4,2.1-.8,4.2-1,6.1-.4,3.3-.6,6.6-.6,9.9,0,2.7,0,4.8.2,6.3,0,.7,0,1.2,0,1.6s0,.6,0,.6h0Z"/>
      <path class="st0" d="M122.6,313.7c-8.3,0-16.3-5.6-22.5-15.9-5.9-9.8-9.8-22.9-11-37l4-.2-4,.2c-1.2-14.1.5-27.5,4.7-37.8,4.6-11.2,11.9-17.7,20.6-18.1s17,5.2,23.5,15.9c5.9,9.8,9.8,22.9,11,37s-.6,27.5-4.8,37.8c-4.6,11.2-11.9,17.7-20.6,18.1h-.9s0,0,0,0ZM115.3,211.3h-.4c-5,.2-10,5.4-13.4,13.8-3.9,9.6-5.5,22.1-4.4,35.4s4.8,25.6,10.2,34.7c4.8,7.9,10.7,12.5,15.6,12.3s10-5.4,13.5-13.8c3.9-9.6,5.5-22.1,4.4-35.4s-4.8-25.6-10.2-34.7c-4.7-7.7-10.3-12.3-15.2-12.3h0Z"/>
      <path class="st20" d="M110.9,260.3c-.5-6.4,1.7-11.8,4.9-12s6.4,4.9,6.9,11.4c.5,6.5-1.7,11.8-4.9,12s-6.4-4.9-6.9-11.4h0Z"/>
      <path class="st32" d="M123.7,243.3c0-.9-.8-1.7-1.7-1.7s-1.7.8-1.7,1.7v50.4c0,.9.8,1.7,1.7,1.7s1.7-.8,1.7-1.7v-50.4Z"/>
      <line class="st1" x1="116.8" y1="216.6" x2="117.7" y2="306.5"/>
      <line class="st1" x1="127.5" y1="210.7" x2="109" y2="298.8"/>
      <path class="st32" d="M124.8,298c0,0,1.2,4,1.2,4,1.1-.5,2.1-1.1,3.3-1.5-2.1-8-5.3-20.1-7.5-28.1-.5-2-1.1-4-1.6-6.1-.6-2.1-.9-4.4-1.7-6.4-.8-2.6-2.5-4.9-4.9-6.4-3.1-1.7-13.6-1.4-17.1-.9-1,.2-1.6,1.2-1.3,2.1,0,0,0,0,0,0,.4.9,1.4,1.5,2.3,1.2,4.1-.3,8.2-.4,12.3-.1.4,0,.7.2,1.1.3h.2l.3.2c.2.1.4.2.6.3l.5.4c.2.1.3.3.5.5h.1c0,.1,0,.2,0,.2.5.7,1,1.4,1.3,2.1.6,1.6,1.1,3.2,1.4,4.9,2.2,9.3,4.8,18.6,7.3,27.8.6,1.8,1,3.6,1.5,5.3h0Z"/>
      <path class="st37" d="M129.9,247.7l-1.2-33.8-114.8,6.3v28.8c-.1,0,42.3,3.6,42.3,3.6,55,9.6,73.4-4.1,73.7-5h0Z"/>
      <line class="st2" x1="108.3" y1="208.2" x2="126.2" y2="319.6"/>
      <ellipse class="st33" cx="129.9" cy="308.7" rx="12.7" ry="11.8"/>
      <ellipse class="st21" cx="129.9" cy="308.7" rx="12.7" ry="11.8"/>
      <path class="st20" d="M128.3,278.8v9.9h-1.3s-.9,10,0,12.5c1.2,2.2,2.6,4.3,4.3,6.1.6.7.6,1.6.1,2.3h0c-.7,1-2.2,1.3-3.2.5,0,0,0,0,0,0-2.6-2-6.9-5.5-7.9-7.1-1.5-2.4-2.3-15.1-2.3-15.1h3.7v-9.1h6.7Z"/>
      <path class="st6" d="M128.3,278.8v9.9h-1.3s-.9,10,0,12.5c1.2,2.2,2.6,4.3,4.3,6.1.6.7.6,1.6.1,2.3h0c-.7,1-2.2,1.3-3.2.5,0,0,0,0,0,0-2.6-2-6.9-5.5-7.9-7.1-1.5-2.4-2.3-15.1-2.3-15.1h3.7v-9.1h6.7Z"/>
      <path class="st37" d="M83.1,128.9s-1.8,3.2,0,4.5l-11.3,1.5s-2-2.1-1.1-4.4c.9-2.3,12.3-1.6,12.3-1.6h0Z"/>
      <path class="st32" d="M86.8,304.2c0,0,1.2,4,1.2,4,1.1-.6,2.2-1.1,3.3-1.5-2.1-8-5.3-20.1-7.4-28.1-.5-2-1.1-4-1.6-6.1s-.9-4.3-1.7-6.5c-.8-2.6-2.5-4.9-4.9-6.4-3.1-1.7-13.6-1.4-17.1-.9-1,.3-1.5,1.2-1.2,2.2.4,1,1.4,1.5,2.3,1.2,4.1-.4,8.2-.4,12.3-.1.4,0,.7.2,1.1.3h.2l.3.2c.2.1.4.2.6.3,0,0,.4.3.5.4.2.1.3.3.5.5h.1c0,.1,0,.2,0,.2.5.7,1,1.4,1.3,2.1.6,1.6,1.1,3.2,1.4,4.9,2.2,9.3,4.9,18.6,7.3,27.8.4,1.9.9,3.6,1.4,5.4h0Z"/>
      <polygon class="st37" points="82 285.2 85.8 302.6 127.5 294.4 124.2 277.9 82 285.2"/>
      <path class="st10" d="M110.6,221.8c-5,2-10.2,3.4-15.6,4.1,3.5,9.9,12.3,43.8,12.3,43.8l9.3-3s-.6-31.7-3.4-46.2c-.9.5-1.7.9-2.6,1.3h0Z"/>
      <path class="st37" d="M128.7,218.8c-.1,2.2-2,4-4.3,3.9l-31.2.7c-2.3.2-4.3-1.5-4.4-3.8h0v-21.4c.2-2.3,2.1-4,4.4-3.8h31.2c2.3-.1,4.2,1.6,4.3,3.9v20.6h0Z"/>
      <ellipse class="st21" cx="52.7" cy="313.1" rx="12.5" ry="12.7"/>
      <path class="st6" d="M65.3,280.6v9.8l.7.2s-.8,13.6-2.5,16.1c-1.1,1.8-5.8,5.5-8.6,7.7-1.1.9-2.7.6-3.5-.5,0,0,0,0,0,0h0c-.5-.8-.5-1.8.1-2.5,1.4-1.7,3.9-4.8,4.6-6.6,1.1-2.6,0-13.5,0-13.5h1.9v-10.7"/>
      <path class="st10" d="M40.2,212.6l-1.8,2.2c-.6,4.7.5-2,0,2.4-.7,5.9,41.9,7.4,42.6,8.1s16.2,48.1,16.2,48.1l10.6-2s-4.3-50.2-8.6-54.1c-4.6-4.3-24.7-10.8-39.7-9.9-1.1-.1-2.2-.4-3.2-1-6.6,2.7-14.4,5.5-16.3,6.3h0Z"/>
      <path class="st6" d="M63.2,142.1c8.1,1.3,16.6-3.6,22.1-9.3,3.2-3.3,5.8-7.4,6.4-12.1.3-4.1-.3-8.1-1.7-11.9-1.2-3.4-2.6-6.4-5.5-8.6-2.8-2.1-6.1-3.5-9.6-3.8-1.1-.1-2.1-.2-3.1-.2-9.3-.4-21.1,4.3-24.6,12.3-.3.8-.6,1.5-.8,2.3-.2.8-.3,1.5-.4,2.3,0,10.4.9,27.7,15.7,26.9.9,0,1.6.7,1.7,1.6,0,.2,0,.4,0,.5h0Z"/>
      <path class="st10" d="M92.6,130.6c0-2.6-.7-5.1-1.7-7.5,0-1.1-.2-2.4-.4-4,0-.5-.1-.9-.2-1.3,0-.2,0-.4-.1-.7-1.2-7.7-4.2-11.4-4.2-11.4-3.9-4.7-9.9-7-15.9-6-7.1,1-13,6.1-15.8,10.8-1.4,2.3-1.9,5.1-1.4,7.8.5,2.5,1.3,4.9,2.2,7.3-2.5.2-5.6,1.3-4.1,5.7,2,6.1,6.8,6.1,8.7,4.5,1.4,1.8,2.3,3.9,2.7,6.1.4,1.8.8,4.8,0,6.4l-2.7,1.8c6.4,8,22.9,14.3,26.9.3l-3.5-2.7-.5-2.8c1.4-.3.4,0,2.9-1.1,7.5-3.9,7.1-10.3,7.1-13.2h0Z"/>
      <path class="st5" d="M82.8,146.3l-.2-1.3s-7.4,1.8-13.2-1.7c0,0,4.1,3.5,8.3,3.6,4.2,0,5.1-.5,5.1-.5Z"/>
      <path class="st6" d="M58.3,127.5c.1.2.1.4.1.6-.1.3-.4.4-.7.3-.3,0-.5-.2-.7-.4-1.5-1.1-3.5-2.7-5.2-2.1-3.3-6-3.2-13.2.2-19.1,1.1-1.9,4-4.1,4.9-4.8,5.5-4.2,10.5-4.6,16.6-4.2,9.2.7,10.3,2.5,14.1,10,0,0-7,4.3-19.9-.1.3,0-1.6,3.7-1.7,3.8-.8,1.2-1.8,2.3-2.9,3.2-1.2.9-2.9,1.4-4,2.4-.8,1-1.2,2.2-1.2,3.5l.3,7h0Z"/>
      <path class="st26" d="M74.8,118.6s-6.2.5-7.3,1.9c0,0,.7-1.8,6-2.8,0,0,2.6,0,1.4.8Z"/>
      <path class="st26" d="M83.5,117.6s6-1.7,7.6-.8c0,0-1.3-1.5-6.6-.5,0,0-2.5.9-1,1.2Z"/>
      <path class="st12" d="M53.5,131.2c-.4-.7-.5-1.6-.3-2.5h-.2c-.1.1,0,.1,0,.1h0c.2,0,.4.1.6.3,1,.7,1.9,1.6,2.6,2.6l.4-.2c-.3-.2-.6-.2-1-.2-.4.1-.6.5-.5.9.2.9,1,1.6,1.9,1.4,0,0,.2,0,.3-.1s0-.2-.1-.2c-.7.1-1.4-.4-1.6-1.1,0-.2,0-.6.1-.7s.4,0,.6.1.5,0,.4-.2c-.5-.7-1.1-1.4-1.8-2-.3-.3-.7-.6-1.1-.8-.2,0-.4-.1-.6-.2-.2,0-.3.1-.4.4-.2.8-.1,1.7.3,2.4,0,.2.5,0,.4-.1h0,0Z"/>
      <path class="st6" d="M47.1,110.6s-5-8.2-11.7-4.7c-6.8,3.5-5.5,15,.2,18.7,0,0-2.2-6.6-.7-7.5,0,0,1.5,2.9,3.2,3.4,0,0-2.3-7.1,2.5-7.6,2.1-.1,4.2,0,6.2.6"/>
      <path class="st8" d="M98.3,155.5c-3.7-4.4-15.3-8.3-15.3-8.3,0,0,2.3,12.4-7.6,10.3-11.4-2.4-12.6-10.6-12.6-10.6-4,.2-10,4.8-11.4,5.6,3.8,2.4,6.6,6,8.1,10.2,1,3.5,3.8.5,3,4.1-.6,2.6-1.5,5.2-2.6,7.7-.8,1.7-2.3,5.6-4.9,4.3-1.3-.8-2.5-1.8-3.7-2.9-.2-.2-.5-.4-.7-.5l-.7,2.3-3.2,10.6-8.9,16.7s14.1,11.9,27.6,15.2c13.5,3.3,19.3-3.3,20.6-8.8,1.4-5.5,7.9-28,7.9-28l2.4,1.8,11.4-11.4s-5.9-13.8-9.6-18.2Z"/>
      <path class="st27" d="M57.3,116.6c-.3.9-2.1,1.1-3,.8s-.9-1.1-.6-2.1.7-1.6,1.6-1.3,2.3,1.6,2,2.5h0Z"/>
      <path class="st27" d="M57.2,116.6c-.3.9,1.1,2.2,2,2.5s1.3-.3,1.6-1.3.2-1.7-.6-2.1-2.7-.1-3,.8h0Z"/>
      <path class="st30" d="M63,146s1.7,10.3,15.2,10.4c0,0,5.2-2.7,4.6-10.1,1.3.1,2.9,2.1,4,2.8,2.5,2.7,3,6.8,1.2,10-1.3,2.4-5.8,1.7-9.6-1.4,0,0-1.8,5.4-8.8,3.1-7-2.3-13-7-11.5-12.6l4.9-2.3h0Z"/>
      <path class="st36" d="M81.4,130.9c1.1.3,2.3.2,3.4-.3.8-.4,1.2-1.2,1.1-2.1,0-.5-.3-.9-.7-1.2,0,0-.3,0-.3.1.4.3.6.7.7,1.2,0,.6-.1,1.1-.5,1.6-.4.3-.9.6-1.4.6-.7.2-1.4.1-2.1,0,0,0-.3.1-.2.1h0Z"/>
      <path class="st36" d="M78.6,129.6c-.2,0-.5.2-.6.4,0,.2,0,.5,0,.7,0,.2.2.4.4.6.3.1.7.2,1.1.1.4-.1.9-.3,1.3-.5,0,0,.1,0,0,0s-.2,0-.2,0c-.3.1-.6.3-.9.4-.3,0-.6,0-.9,0-.2,0-.4-.2-.5-.4,0-.2,0-.4,0-.6s0-.2,0-.3c0,0,0,0,0-.1h0c0,0,.1,0,.2,0h0,0c0-.1,0-.1,0-.1Z"/>
      <path class="st8" d="M49.9,224.3s20.1,1.5,23,1.7,4.3,7.2,4.5,8.4,0,8.7,0,8.7c0,0,14.2,5.5,19,2.8s5.6-4.8,8.1-4.7,3.2,3.1,8.1,2.9,7.8-4.6,7.8-4.6c0,0-4.3-23.9-6.1-28.2s-3.8-8.9-10.4-10.4-17.3-5.9-17.3-5.9l-40.2,6.2,3.6,22.9h0Z"/>
      <polygon class="st37" points="61.8 307.5 131.9 295 132.7 299.2 62.5 311.8 61.8 307.5"/>
      <path class="st19" d="M46.1,189.8c5.3,3,11,5.2,17,6.6,6.3,1.6,12.9,2.8,19.4,2.1,2.8-.2,5.6-1,8.1-2.4.4-.3-.2-.5-.5-.3-4.7,3-11.2,2.6-16.5,2-6.4-.8-12.7-2.3-18.8-4.6-2.8-1-5.6-2.3-8.2-3.8-.3-.2-.9.2-.6.4h0Z"/>
      <path class="st32" d="M50.7,205.5c-.1-1.4-.3-2.8-.5-4.1-.1-1-.5-2-1-2.9-1.1-1.9-3.5-2.3-5.5-2.6-2.2-.2-11.9-.2-15.8-.1-2.2-.1-4.5,0-6.7.1-2,.2-4.4.7-5.5,2.6-.5.9-.8,1.9-.9,2.9-.2,1.4-.4,2.8-.5,4.1-.2,2.6-.2,19.9,0,22.5,0,1.2,1,2.2,2.2,2.2s2.2-1,2.2-2.2c-.1-2.1-.2-19.1,0-21.3,0-2,.3-3.9.8-5.8h0c.3-.5.7-.6,1.2-.6,2,0,4-.1,6.1-.2h2.5c3.7,0,13.1.1,15.1.2.5,0,.9,0,1.2.4h0c.5,2,.8,4,.8,5.9.1,2.1.1,19.1,0,21.3,0,1.2,1,2.1,2.1,2.2,1.2,0,2.1-1,2.1-2.2.2-2.6.1-19.9,0-22.5Z"/>
      <path class="st37" d="M13.6,244.5s-1.2-30.2.1-36.3,33.5-4.6,36.2,1.7,2.6,37.8,2.6,37.8l-39-3.2h0Z"/>
      <line class="st3" x1="6.5" y1="210.3" x2="25.4" y2="317.8"/>
      <line class="st3" x1="26.8" y1="213.3" x2="7.2" y2="306.6"/>
      <line class="st3" x1="-2.6" y1="232.4" x2="38.4" y2="303.6"/>
      <line class="st3" x1="-5.8" y1="262" x2="39.7" y2="265.1"/>
      <line class="st3" x1="-5.8" y1="249.7" x2="40.9" y2="280"/>
      <line class="st3" x1="-3.3" y1="282.5" x2="39.7" y2="242"/>
      <path class="st6" d="M-4.2,225.1c-3.8,10.9-5.4,25.2-4.3,40.1,1.1,15,4.6,28.9,10,39.3,5.7,10.9,12.8,16.9,20.5,16.9h.9c7.9-.5,14.5-7.3,18.7-19.3,3.8-10.9,5.3-25.2,4.3-40.1-1.1-14.9-4.6-28.9-10-39.3-5.9-11.3-13.5-17.4-21.3-16.9S0,213.2-4.2,225.1h0s0,0,0,0ZM-1.2,264.8c-1.1-14.1.4-27.5,4-37.7,3.1-8.9,7.7-14.4,12.2-14.6h.4c4.4,0,9.6,4.8,13.8,13.1,5,9.6,8.3,22.8,9.3,36.9s-.4,27.5-4,37.7c-3.1,8.9-7.7,14.3-12.2,14.6s-9.8-4.6-14.2-13c-5-9.6-8.3-22.7-9.3-36.9h0Z"/>
      <path class="st0" d="M-4.2,225.1c-3.8,10.9-5.4,25.2-4.3,40.1,1.1,15,4.6,28.9,10,39.3,5.7,10.9,12.8,16.9,20.5,16.9h.9c7.9-.5,14.5-7.3,18.7-19.3,3.8-10.9,5.3-25.2,4.3-40.1-1.1-14.9-4.6-28.9-10-39.3-5.9-11.3-13.5-17.4-21.3-16.9S0,213.2-4.2,225.1h0s0,0,0,0ZM-1.2,264.8c-1.1-14.1.4-27.5,4-37.7,3.1-8.9,7.7-14.4,12.2-14.6h.4c4.4,0,9.6,4.8,13.8,13.1,5,9.6,8.3,22.8,9.3,36.9s-.4,27.5-4,37.7c-3.1,8.9-7.7,14.3-12.2,14.6s-9.8-4.6-14.2-13c-5-9.6-8.3-22.7-9.3-36.9h0Z"/>
      <path class="st0" d="M15.3,212.5h-.4c-4.5.3-9.1,5.7-12.2,14.6-3.6,10.1-5,23.5-4,37.7,1,14.1,4.3,27.2,9.3,36.9,4.4,8.4,9.6,13.3,14.2,13s9.1-5.7,12.2-14.6c3.6-10.1,5-23.5,4-37.7-1-14.1-4.3-27.2-9.3-36.9-4.3-8.2-9.4-13.1-13.8-13.1h0Z"/>
      <path class="st32" d="M13.2,314.8c-6,0-11.8-5-16.5-14.1-4.8-9.1-7.9-21.5-8.8-34.7h0c-2-28.1,6.2-50.7,18.8-51.5,6.2-.4,12.3,4.6,17.2,14.1,4.7,9.1,7.9,21.5,8.8,34.7,2,28.1-6.2,50.7-18.8,51.5h-.6ZM7.3,216.8h-.5c-10.8.6-18.4,23.1-16.5,49.1.9,13,4,25,8.6,33.9,4.4,8.5,9.8,13.1,14.8,12.8,10.8-.6,18.4-23.1,16.5-49.1-.9-13-4-25-8.6-33.9-4.3-8.2-9.4-12.8-14.4-12.8h0Z"/>
      <path class="st21" d="M15.7,251.9c3-.2,5.8,5.2,6.3,12.1s-1.5,12.6-4.4,12.7-5.8-5.2-6.3-12.1,1.5-12.5,4.4-12.7h0Z"/>
      <path class="st13" d="M82.5,133.7c-2.2.4-5.8.7-5.8.7,0,0,.7,6.2,6.8,5.1,5.1-.9,4.3-6.8,4.3-6.8,0,0-3.1.6-5.3,1h0Z"/>
      <path class="st35" d="M82.5,133.7l-4.9.8c.9,2,3.1,3.2,5.3,2.9,2.2-.2,4-1.9,4.2-4.1,0,0-4.5.5-4.5.5Z"/>
      <path class="st17" d="M82.7,134.2c-1.1.2-4.3.5-4.3.5,0,0,1.4.6,4.5.1s3.9-1.5,3.9-1.5l-4.2.8h0Z"/>
      <path class="st13" d="M87.7,132.7c0-.1-.3-.1-.8,0-.9,0-1.2-.2-1.8-.1-.7.1-1.4.4-2.1.7-.8,0-1.5,0-2.3,0-.6.1-2.1.6-3,.8-.4,0-.8,0-1.3,0-.1,0,.4,1.4,6.3.5,5.8-.9,5-1.7,5-1.9h0Z"/>
      <path class="st8" d="M55.2,183.9c-.6.6-.9-3.6-1.5-3.1-.5.5-1,.9-1.7,1.3-.2.1-.4,0-.7-.2-.4-.3-.8-.7-1-1.1-.8-1.2-1.5-2.4-2-3.8-1.1-2.3-1.9-4.8-2.5-7.3-1.3-6.6.3-14.8,6.8-18,0,0,0,0,.1,0,.2,0,.5.1.7.2,4.6,2.7,8.5,6.5,11.3,11,4.6,7.1,3.8,5.4,3.8,5.4l.6.8c-1.1,1.8-1.2,2.7-2.8,4l-4.9,4.7c-1.7.9-4.8,4.7-6.2,6.1h0Z"/>
      <path class="st19" d="M57.7,155.6c1.7.8,3.2,1.9,4.5,3.2,1.6,1.8,2.9,3.8,3.9,5.9,1.1,2.1,2,4.3,2.9,6.4.3.6.6,1.3.8,2,.1.3,0,.6-.2.9-.2.2-.3.4-.5.6-.2.2-.5.2-.2.3-.2-.1-.9.2-.6.4.9.5,2.4-1.4,2.3-2.2-.2-.9-.6-1.7-1-2.6-.6-1.4-1.2-2.8-1.8-4.1s-1.3-2.6-2-3.9c-.6-1.2-1.4-2.4-2.2-3.4-1.5-1.6-3.3-2.9-5.3-3.9-.2-.1-.9.2-.6.4h0Z"/>
      <path class="st19" d="M56.5,183c-.2.3-.5.6-.9.7-.4.1-.8,0-1.1-.2-.7-.4-1.3-1-2-1.5-1.2-1.1-2.3-2.4-3.1-3.9-.2-.3-.9,0-.7.3,1,1.7,2.3,3.2,3.8,4.4.4.3.8.6,1.2.9.9.8,2.3.7,3.2-.2.1-.1.2-.3.3-.4.3-.3-.4-.5-.6-.2h0Z"/>
      <path class="st10" d="M77.8,188.7c3.5,1.2,8.3,2.9,8.9,2.6s4.9-1.3,8.6-2.3c1.9-.4,3.2-2.1,2.9-4,0-.5-9.4-.9-8.9-5l8-1.3c2.6,0,5.2.2,7.7.8,3.1.9,10.7,6.4,10.7,6.4l6.5-1.2.3,17.1-5.5-.3-9.3,4.2s-18.3,4-20.8,2.9-5.7-5.8-5.7-5.8c-3.4-.8-4.5-5.5-4.5-5.5-5.1-3.2-1.4-4.8-1.4-4.8-.2,0-.4-.2-.5-.4-1.4-1.8.8-4.3,2.9-3.6h0Z"/>
      <path class="st5" d="M101.7,179.1c3.6,0,7.1,2.4,10,4.2l2.2,1.4c.4.3.8.6,1.3.8.8.1,1.7.1,2.6-.1l4.4-.4c.3,0,.5-.4,0-.4l-3.8.4-2.3.2c-.2,0-.3,0-.5,0,0,0,.2.1,0,0-1.2-.9-2.5-1.7-3.8-2.4-1.7-1.1-3.5-2.1-5.3-3-1.5-.7-3.1-1-4.7-1.1-.3,0-.5.4,0,.4h0s0,0,0,0Z"/>
      <path class="st5" d="M107.9,195.1c-.8.6-1.6,1.1-2.6,1.5-2.1,1.1-4.5,1.8-6.9,1.8-2.4-.2-4.7-1-6.7-2.3-.9-.4-1.7-1-2.4-1.7.9.3,1.8.7,2.6,1.2,2,1.1,4.2,1.8,6.5,2,2.3,0,4.6-.6,6.7-1.6.9-.4,1.8-.8,2.8-1h0Z"/>
      <path class="st10" d="M93.5,192.3s-12.3-4-17.5-5.3h-.2c0-.1-.6-1.3-.6-1.3,0,0-6.7-10.5-6.7-10.5h0l-11.6,8s3.7,8,7.8,11.3c.6.9,2.6,2.5,3.5,3.1,6.2,3.5,15.5,2.3,24.4,2.3,0,0,7.2,3.9,9.5,4.1,4.9.5,5.9-2,4.9-1.9-1.3.3-2.8,0-3.9-.7,0,0,6.2-.5,6.5-2s-1.7,0-5.3-1.2c0,0,7.3-.8,6.9-3.9-.1-.8-2.8,1.1-4.3,1.1-1,0-1.9-.3-2.7-.9,0,0,5.8-1.2,5.7-2.9,0-.8-2.2-.2-3.8-.2-.9,0-1.8-.2-2.6-.6,0,0,3.2-.2,3.2-1.8s-3.1-1.4-5.5-1.1-7.9,4.3-7.9,4.3h0Z"/>
      <path class="st5" d="M79.8,200.2c4.1.4,10.2-.2,14.3-.5.9-.2,1.9-.3,2.9-.3,0,0-.1,0,.2.1s.8.4,1.1.6c2.3,1.3,4.7,2.4,7.3,3.2,1.8.5,4.7.5,6.2-.9.3-.3.7-.7.3-1.1s-1.6,0-2,0c-.8,0-1.5-.3-2.1-.7l-.4.3c1.9,0,4.5,0,6.2-.9.5-.3,1.1-1.1.5-1.6-.4-.2-.9-.3-1.4-.3-1.3-.1-2.6-.3-3.8-.7l-.3.3c2.1-.2,5.2-.7,6.7-2.4.5-.5,1.1-2,0-1.9-.8.2-1.5.5-2.2.9-1.3.6-2.9.4-4.1-.4l-.2.3c1.8-.4,4.4-.9,5.6-2.3.6-.7.3-1.3-.6-1.4-1.9-.1-3.8.7-5.6-.3l-.4.3c1.1,0,3.7-.4,3.7-2,0-2.2-4.8-1.4-6-1.2-2.4.6-4.7,1.7-6.8,3-.2.1-.8.3-.3.3-.4,0-.7,0-1.1,0l-7.7-.2c-.2,0-.7.3-.2.3,1.2.2,7.5.3,8.8.2,1-.1,2.1-1.1,3-1.6,2.2-1.3,4.6-1.9,7.1-2,1,0,3.6.6,2.1,2.1-.7.5-1.6.8-2.4.8,0,0-.6.1-.4.3,1,.5,2,.7,3.1.6.8,0,4.3-.7,2.9.9-1.1,1.2-3.5,1.6-5.1,2,0,0-.4.1-.2.2,1,.7,2.3,1.1,3.5.9.8-.2,1.5-.5,2.2-.9.8-.3,1.6-.6,1.1.6-.8,2-4.5,2.5-6.4,2.7,0,0-.5.2-.3.3,1.4.4,2.8.6,4.2.8,1.5.2,1.3,1.2,0,1.6-1.6.4-3.3.6-5,.5,0,0-.6.2-.4.3,1,.6,2.1.9,3.2.8.5,0,1.2-.4.9.3s-1.5.9-2.1,1.1c-3.3.6-6.5-1.2-9.3-2.6-.8-.5-1.7-1-2.7-1.4-.5,0-.9,0-1.4,0-4.7.5-13.1.8-17.8.4-.2,0-.7.3-.4.3l1.8.3h0Z"/>
      <path class="st19" d="M95.8,178.7c0-.1.1-.3.2-.4,0-.3-.7-.1-.8.1,0,0,0,.1,0,.2,0,.3.7,0,.8-.1.2-.6.4-1.2.5-1.8.2-.9.4-1.8.5-2.6.3-1.7.6-3.4,1.1-5,0-.3-.7-.1-.7.1-.4,1.6-.8,3.3-1.1,5-.2.9-.3,1.8-.5,2.6,0,.6-.3,1.2-.5,1.8h.8v-.3h-.8c0,.2,0,.4-.1.5,0,.3.7.2.8-.1h0Z"/>
      <path class="st16" d="M107.7,268.6l-.2-8.5c3.1.8,6.3.2,8.9-1.6l.3,7.5s-4.5,6.4-9,2.6h0Z"/>
      <path class="st7" d="M134.7,274.8c-1.3-4.3-2.5-2.4-7.2-4.3-1-.4-4.1-1.6-4.9-2-1.7-1.6-3.7-2.8-5.9-3.6-1.5,3.2-5.5,2.5-8.3,2-.2-.4-.5-.8-.8-1.1-.8-.5-1.1-1-1.8,0-.2.2,0,.7,0,1.2v1c-.3,3-2.2,3.4-.5,10.8,0,.7.3,1.3.5,1.9l28.8-1.9c.2-1.4.2-2.7,0-4.1h0Z"/>
      <path class="st31" d="M134.8,278.9l-29.1,1.9c-.2-.7-.3-1.4-.3-2.2l29.5-2c.4,2.2,0,2.2,0,2.2h0Z"/>
      <path class="st6" d="M117.8,267.5s1.8-2,2.5-2,1.5.6.9,1.4c-.7.8-1.6,1.4-2.5,1.9,0,0-1.4-.4-.9-1.4Z"/>
      <path class="st16" d="M97.7,274.2l-3.3-8s8.9.8,13.3-2.6v8.9c0,0-5.2,5.2-10,1.8h0Z"/>
      <path class="st7" d="M124.2,282c-.9-4.4-1.9-3.4-7.1-4.7-1.4-.2-2.8-.5-4.2-.9-2.4-2.7-5-5.6-5-5.6-1.9,3.1-7.6,2.5-10.5,1.8-.2-.4-.4-.8-.8-1.2-.8-.6-1-1.1-1.9,0-.2.2,0,.7-.2,1.2,0,.3-.1.6-.2,1-.6,3-2.6,3.2-1.6,10.8,0,.7.1,1.3.3,2l30.5-.2c.3-1.4.5-2.8.5-4.1h0Z"/>
      <path class="st31" d="M123.8,286.1l-30.8.2c-.1-.7-.1-1.5,0-2.2h31.2c0,2-.4,2-.4,2h0Z"/>
      <path class="st23" d="M106.9,251.8c.3,3.9.2,7.9.5,11.8,0,.3.7.1.6-.2-.3-3.9-.5-17.4-.9-21.3,0-.3-.6,0-.6.2l.3,9.5h0Z"/>
      <path class="st5" d="M75.4,186.7c-1.1.7-1.9,1.8-2,3.1,0,.3.6.2.6,0,.1-1.2.8-2.2,1.8-2.8.1,0,.2-.2,0-.3-.1,0-.3,0-.4,0h0Z"/>
      <path class="st5" d="M82,200.1c1,0,1.9.2,2.9.5.8.1,1.6.2,2.4.3,1.7,0,3.5,0,5.2-.2.2,0,.9-.4.3-.3-1.7.2-3.5.2-5.2.2-.9,0-1.8-.2-2.6-.4-.8-.2-1.6-.3-2.4-.4-.2,0-.4,0-.6.2,0,0-.2.2,0,.2h0,0Z"/>
      <path class="st5" d="M81.4,203.3c2.3.8,4.6,1.3,7,1.6,2.3.1,4.7-.1,6.9-.8.5-.1.4-.6-.1-.5-2.2.6-4.5.9-6.8.7-2.2-.3-4.4-.8-6.6-1.6-.3,0-.9.4-.5.5h0Z"/>
      <polyline class="st9" points="119.5 205 118.7 181.9 144.8 177.6 145.8 205.3 129.1 205.3"/>
      <path class="st11" d="M221,82.3c-4.1,1.1-7.2,5-9.1,8.6-2.1,4.1-3.4,8.5-3.9,13.1-.8,6.2-1.7,12.3-2.7,18.5-2.2,13.3-4.7,26.6-7.3,39.9-.6,3-1.2,6.1-1.8,9.1l.5-.3-26.3,3.6-42,5.7-9.6,1.3c-.2,0-.5.1-.5.3v3.4c0,.4.9.3.9,0v-3.4l-.5.3,26.3-3.6,41.9-5.7,9.6-1.3c.2,0,.4-.1.5-.3,1.6-7.9,3.1-15.7,4.5-23.6,2.5-13.2,4.9-26.5,6.7-39.8.4-4.2,1.2-8.4,2.3-12.4.9-2.7,2.2-5.2,3.9-7.5,1.7-2.2,3.9-4.5,6.6-5.2.5-.1.4-.7-.1-.5h0s0,0,0,0Z"/>
      <path class="st11" d="M245.8,113.7c-1.3,16.9-4.1,33.6-8.6,50-2.9,11.1-6.4,23.2-14.5,31.6-3.7,3.9-8.5,6.4-13.7,7.3-4,.7-7.9,1.1-12,1.3-11.3.8-22.6.9-33.9,1.1-11.3.1-22.6,0-33.9,0s-.9.5-.3.5c10.2,0,20.4,0,30.7,0s23.1-.2,34.6-.9c8.7-.5,18.5-.8,25.8-6.2,9.2-6.9,13.6-19,16.6-29.7,4.6-15.9,7.8-32.3,9.5-48.8.2-2.1.4-4.3.5-6.4,0-.3-.9-.2-.9.1h0s0,0,0,0Z"/>
      <path class="st28" d="M161,47.9s-4.7,4-7.3,4.7-5.6,1-5.6,1c0,0,3.4-4.1,4.7-4.7,1.8-.8,6.8-2,8.2-1Z"/>
      <path class="st28" d="M138.6,58s-3.8,3.7-6.5,4.3c-2.1.4-3-.5-3-.5,0,0,.9-2.7,2.2-3.3,1.3-.6,5.9-1.5,7.3-.5h0Z"/>
      <path class="st14" d="M151.8,49.4c.8-.8,2.1-.8,2.9,0,0,0,0,0,.1.1.4.5.5,1.2.3,1.8-.3.7-1,1.2-1.8,1.1-.9,0-1.7-.8-1.8-1.8,0-.5,0-1,.4-1.3"/>
      <path class="st14" d="M131.9,58.4c-.8,0-1.5.6-1.7,1.4-.1.3-.2.7,0,1.1.2.6.6,1.1,1.2,1.3.8.2,1.6,0,2-.7.5-.8.4-1.8-.2-2.5-.3-.3-.8-.5-1.3-.5"/>
      <path class="st14" d="M138.7,58s-4.1-1.2-6.1-.3c-3,1.3-3.4,2.3-3.7,4.2.7-1.4,1.8-2.5,3.2-3.2,2.1-.8,6.6-.6,6.6-.6h0Z"/>
      <path class="st14" d="M148.1,53.4s3.1-4.4,5.1-5.3c3-1.3,7.3-1.1,8.8,0,0,0-5.8-.6-7.9.4s-6.1,5-6.1,5Z"/>
      <path class="st28" d="M83.9,123.3s4,.4,5.5,0,1.1-2.7,1.1-2.7c0,0-.2-.5-.8-.5-1.7-.2-4.3-.2-5.8,3.2Z"/>
      <path class="st28" d="M68,126.2s3.4-.2,6.1-.9,3.8-1.4,3.8-1.4c0,0-3-2.4-4.9-2s-3.9,2.2-5,4.3h0Z"/>
      <circle class="st6" cx="88.8" cy="121.5" r="1.6"/>
      <path class="st14" d="M90.4,119.9c-1.1-.5-2.2-.6-3.3-.3-2.4.5-3.1,3.7-3.1,3.7.6-1.4,1.9-2.5,3.4-3,1.1-.2,2.2,0,3.2.3,0-.2,0-.4,0-.7h0Z"/>
      <circle class="st26" cx="73.4" cy="123.4" r="1.6"/>
      <path class="st14" d="M77.9,124s-2.7-2.9-5.3-2.3c-3.7.7-4.1,3.3-4.7,4.6,0,0,1.9-3.5,4.8-4,2.6-.4,5.2,1.7,5.2,1.7h0Z"/>
      <path class="st31" d="M119.9,277.2l-3-.8c-.9-.3-1.9-.5-2.8-.8,0,0-.2,0-.3-.1,0,0,0,0,0,0,0,0,0,0,0,0,0,0-.1,0-.2,0-.2-.1-.4-.2-.6-.3,0,0-.2-.1-.2-.2,0,0,0,0-.1,0,0,0-.1-.1,0,0-.2-.1-.3-.3-.5-.4-.3-.3-.6-.6-.8-.9-.1-.1-.2-.3-.4-.5,0,0,0,0,0,0,0,0,0,0,0,0s0,0,0,0c0,0,0,0,0,0,0,0-.1-.2-.2-.2-.6-.8-1.1-1.5-1.8-2.2-.2-.2-.5-.2-.7,0s-.2.5,0,.7c.3.3.6.6.8.9.1.2.3.3.4.5,0,0,0,0,0,0,0,0,0,0,0,.1,0,0,.1.2.2.3.5.7,1,1.4,1.6,2,.7.6,1.4,1.1,2.2,1.5.9.4,1.8.6,2.8.9l3.5,1c.2,0,.6,0,.6-.4s0-.5-.3-.6h0Z"/>
      <path class="st6" d="M107.4,273.9s1.9-1.9,2.7-1.8,1.5.7.8,1.5c-.8.7-1.7,1.3-2.7,1.7,0,0-1.3-.5-.8-1.5h0Z"/>
    </g>
  </g>
</svg>