<svg xmlns="http://www.w3.org/2000/svg" xmlns:xlink="http://www.w3.org/1999/xlink" viewBox="0 0 292.89 301.99"><defs><style>.cls-1,.cls-21,.cls-8{fill:none;}.cls-2{clip-path:url(#clip-path);}.cls-3{fill:#a38166;}.cls-4{clip-path:url(#clip-path-2);}.cls-23,.cls-5{fill:#f2ebd1;}.cls-6{fill:#dbb28e;}.cls-7{fill:#87654d;}.cls-8{stroke:#4f2e25;stroke-width:0.26px;}.cls-21,.cls-23,.cls-8{stroke-miterlimit:10;}.cls-9{fill:#050606;}.cls-10{fill:#c95744;}.cls-11{fill:#4f2e25;}.cls-12{fill:#661d0d;}.cls-13{fill:#13110f;}.cls-14{fill:#ce8d2a;}.cls-15{fill:#231f20;}.cls-16{fill:#181d1e;}.cls-17{fill:#975449;}.cls-18{fill:#070505;}.cls-19{fill:#f1eef7;}.cls-20{fill:#609d42;}.cls-21{stroke:#246432;stroke-width:0.47px;}.cls-22{fill:#9b9a9a;}.cls-23{stroke:#231f20;stroke-width:0.69px;}</style><clipPath id="clip-path"><path class="cls-1" d="M-120.2,73.7c1.46-19.1-1.48-47.54-31.14-50.57,0,0-18.88-3.75-29.23,9.55a126.49,126.49,0,0,0-37.84-5.76A126.35,126.35,0,0,0-323.78,83.43c-5.74,2-10.79,5.48-13.52,10.51-3.71,6.87-5.16,17.51-6.31,25.35q-1.17,7.75-2.28,15.52a6.12,6.12,0,0,0,.2,3.52,5.09,5.09,0,0,0,1.51,1.52,129.29,129.29,0,0,0-.72,13.56,126.5,126.5,0,0,0,126.49,126.5A126.5,126.5,0,0,0-91.92,153.41,126,126,0,0,0-120.2,73.7Z"/></clipPath><clipPath id="clip-path-2"><path class="cls-1" d="M182.45,32c-2.14-4.59-6-8.58-13-10.22a40.38,40.38,0,0,0-28.11-9.15c-12.18.78-21.85,5.57-28.85,18.77a126.5,126.5,0,1,0,69.94.6Z"/></clipPath></defs><g id="Layer_10" data-name="Layer 10"><g class="cls-2"><rect class="cls-3" x="-512.01" y="228.42" width="533.08" height="15.8"/></g></g><g id="Layer_11" data-name="Layer 11"><g class="cls-4"><circle class="cls-5" cx="146.28" cy="153.27" r="126.49" transform="translate(-65.54 148.33) rotate(-45)"/><path class="cls-6" d="M178,211.09s-4.22-32.89-7.07-48.22c-2.9-9.45-5.39-13.59-8.75-22.89a59.39,59.39,0,0,0-5.63-12.34c-.89-.89-1.81-1.73-2.77-2.54l-.17.09c-.32.18-.62.39-.93.59-.12.09-.2.13-.24.16l-.16.14c-.54.47-1.06,1-1.56,1.47-.28.3-.56.61-.83.92l-.51.63c-.45.58-.87,1.19-1.27,1.81a39.87,39.87,0,0,0-2.42,4.33,35,35,0,0,0-1.82,4.34q-.84,2.35-1.45,4.79c-.19.78-.36,1.56-.51,2.35-.07.35-.14.71-.19,1.07,0,.15-.05.31-.07.46v0c-.09.83-.16,1.66-.18,2.49a2.69,2.69,0,0,1,1.09,2.26q0,10.18.89,20.35c1,11.72,3,23.24,5,34.81.85,4.87,1.63,9.83,3.41,14.46a15.73,15.73,0,0,0,3.35,5.45c1.46,1.48,3.1,2.77,4.68,4.13l.3.15,44.5,22.6s10.21-28.28,11.13-28.64S178,211.09,178,211.09Z"/><rect class="cls-7" x="-39.44" y="240.46" width="447.98" height="63.45" transform="translate(369.11 544.38) rotate(180)"/><path class="cls-6" d="M248.89,232.72l-6.77-8.12-13.94-4s-12,4.08-12.29,4.05-9.59-2.54-9.59-2.54l-1.13,15,14.51,1.56,22.23-1s1.15-1.2.47-2.05,3.72,1.42,4.25,1.44,1.52.48,2.21-.47C249.3,236,249.93,234,248.89,232.72Z"/><path class="cls-8" d="M225.8,231.08s.17-.31,1.11-.27c3.46.15,11.26,1.2,12,2.12,1.35,1.59.25,4.28-2.46,4.28H223.83"/><path class="cls-8" d="M229.6,231s5.11-2,5.72-1.86,8.16,6.51,8.16,6.51h-1.1"/><path class="cls-9" d="M108.23,40.7s-9,21.68-1.91,34.71,38.59,25.38,49.08,20.53,18.4-29.64,13.66-35.67S108.23,40.7,108.23,40.7Z"/><path class="cls-9" d="M105.82,58.45s-9,2.93-11.72,11.39,1.55,16.76,11.94,22,26.39,6.71,28.48.68,5.8-15.53,1.12-20S105.82,58.45,105.82,58.45Z"/><path class="cls-6" d="M122.46,70.48s.16,15-6.83,24.24c-1,1.3-10.28,2.87-10.28,2.87l6.39,7.39c5.18,6,14.2,15.58,22,16.92,4.43.76,11.22-1.61,15-1.86l3.38-9-7.48-6.72c.13-1.91,4.14-14.61,4.14-14.61"/><path class="cls-10" d="M161.35,172.54c-.1,4.69.22,9.49-1.69,13.89-2.64,6.08-8.28,11.69-13.77,12.12-2.67,4.64-9.63,27.61-9,39.36a85.42,85.42,0,0,1-46.17,1,144.33,144.33,0,0,0-56.26-3.17c4.53-31.18,22.74-44.5,22.74-44.5L68.25,157l-.94-37c4.42-14,19-20.32,32.7-22.57l14.59-2.11s1.92,21.05,19.13,22.53,11.55-12.57,11.55-12.57,18,12.61,21,16.85c6.26,8.81,6.63,9.75,9.12,22.3,2.25,11.32,2.5,19.45,3,21.48s-17.22,4.88-17.22,4.88"/><path class="cls-6" d="M89.78,116.12c4.32,2.1,3.71,11.86,3.71,11.86,3.88,20.14-13.41,71-13.41,71l55.24,20.76-2.69,12.78c-24.81-1.34-50.25.23-72.77-9-8.34-3.41-9.27-12.59-9.17-22.18.06-5.79,10.52-51.55,10.27-54.19,0,0,3.95-7.77,6.11-20.53S81.25,112,89.78,116.12Z"/><path class="cls-11" d="M157.56,235.9c.88.06,1.78.06,2.65.19a4,4,0,0,1,2.46,1.1,2.55,2.55,0,0,1,.5,2.51,4.32,4.32,0,0,1-.81,1.41,4.4,4.4,0,0,1-.35.39.86.86,0,0,0-.14.13c-.12.13-.44,0,.35-.08-.14,0-.43,0-.51.18s.07.14.18.13c.67-.07,1.12-.7,1.48-1.22a3.12,3.12,0,0,0,.53-2.91c-.68-1.69-2.67-1.93-4.26-2l-1.58-.1a1,1,0,0,0-.55.14c-.11.09-.11.16.05.17Z"/><path class="cls-11" d="M80.34,198.73a10.63,10.63,0,0,0-6.28,2.37,13.46,13.46,0,0,0-3.25,5.27c-.11.28,1.09.15,1.22-.2a14,14,0,0,1,2.81-4.79,7.73,7.73,0,0,1,5-2.09c.25,0,.68-.08.83-.31s-.13-.27-.31-.25Z"/><path class="cls-10" d="M98.86,97.45s-21.59,3.36-29.52,14.16-12.59,37-12.59,37S81.68,156.88,95.5,156,98.86,97.45,98.86,97.45Z"/><path class="cls-12" d="M92.66,110.07c2.35.66,4.47,3,5.7,5a20.4,20.4,0,0,1,2.08,5.53,37.1,37.1,0,0,1,1,5.33c.72,6.44-.8,12.67-2.42,18.86-1.08,4.14-2.11,8.28-2.83,12.5l.91-.4-4.35-.7c-.41-.07-1.34.57-.68.68l4.35.7c.29,0,.85,0,.91-.4,1.25-7.28,3.72-14.29,4.92-21.57a36.74,36.74,0,0,0,.37-9.6c-.37-3.62-1.15-7.73-2.94-10.93-1.29-2.31-3.7-5-6.35-5.7-.42-.11-1.34.5-.68.68Z"/><path class="cls-9" d="M183.67,52.5s6.25-25.82-14.46-30.71a40.35,40.35,0,0,0-28.1-9.15c-17,1.09-29.13,10-35.91,38.71S183.67,52.5,183.67,52.5Z"/><path class="cls-9" d="M116.23,49.91c1.88,7.56,7.84,13.85,14.74,18s14.76,6.55,22.5,8.9l9.59,2c5.45-4,10.95-6,14.72-11.52a52,52,0,0,0,6-15.47c1.13-5.25-.92-12.08-2.59-17.25a20,20,0,0,0-8.49-10.44c-4-2.59-6-4.61-12.09-6.54a36.84,36.84,0,0,0-30.73,3.58C120.5,26.77,113.63,39.37,116.23,49.91Z"/><path class="cls-11" d="M145.49,101.65a36.22,36.22,0,0,0-4.4-2.67c-2.15-1.06-6.06-1.72-14.87-12.43,0,0,1,11.19,14,16.15a11.26,11.26,0,0,0,4.66,1.09Z"/><path class="cls-6" d="M178.51,52.68a19.71,19.71,0,0,1-1,8.24c-1.42,4.39-3.43,9.22-4.12,11.1a42,42,0,0,0-1.52,6.06,20,20,0,0,1-3,8.62,26.55,26.55,0,0,1-6.45,7.87c-3.12,2.74-7,4.78-10.74,6.82-2.45,1.33-2.91,1.45-8.2,0-7.79-2.11-14.11-8.17-17.54-14.81l-3.69-10,.12-3.92c-5.18,3-6-4-5.5-5.13-.69-2.9-3-12.89,1.23-15.3l.34-.33c1.72-.8,3.62-.56,4.18,1.68.13.95.35,1.85.48,2.79a23,23,0,0,0,1.32,4.28,60.06,60.06,0,0,0,2.6-7c.54-2.31,4-8.46,8.78-10.56,0,0,2.21-8,4.66-9.94l.7-.06c.37.11.59.3,1,.41,0-.12-.06-.27,0-.51a4,4,0,0,0,1.59.59c-.09-.15-.3-.35-.27-.47a6.61,6.61,0,0,0,1.5.44c-.09-.16-.27-.47-.23-.59.55.42,1,.29,1.5.44a.89.89,0,0,1-.11-.55,3.3,3.3,0,0,0,1.46.55c-.09-.15-.14-.43-.23-.59.55.43,1,.29,1.49.44.13,0-.17-.31-.14-.43a4.56,4.56,0,0,0,1.22.48c0-.12-.19-.31-.15-.43a3.69,3.69,0,0,0,1.62.47l-.23-.59a1.77,1.77,0,0,0,1.43.68c-.09-.16-.27-.47-.24-.59a2.48,2.48,0,0,0,1.93.82c-.12,0-.27-.46-.23-.58.48.66,1,.68,1.64.86-.09-.15-.14-.43-.32-.74a2.56,2.56,0,0,0,2.27,1.05c-.12,0-.14-.35-.12-.5s0-.26.26-.24c0,0,1.3.9,1.33.78.4.5-.72-2.41-.1-2.23-.05-.28,3.52,1.26,3.34,1,.49.66.43.38,1.22.48,0,0,2.17,2.18,2.08,2a.84.84,0,0,0,.57.47S174.32,46.29,178.51,52.68Z"/><path class="cls-13" d="M137.51,42.23l-3,3.77a57.46,57.46,0,0,0-8.31,14.41l-.59,1.48a.47.47,0,0,1-.89,0l-1.57-5.41S127.32,39.79,137.51,42.23Z"/><path class="cls-9" d="M126.6,33c2.87-9.19,18.38-8.23,26.32-7,5.1.95,11.93,7.23,15.92,10.57,1.59-1.07-14.16,10.69-42.35,9.49l-1.17,6.8S123.72,42.17,126.6,33Z"/><path class="cls-13" d="M162.76,69.57s3.33-2,5.34-1.85A9.22,9.22,0,0,1,175,71.19a18.37,18.37,0,0,0-6.89-2.31A21.37,21.37,0,0,0,162.76,69.57Z"/><path class="cls-13" d="M147.59,61.37a2.49,2.49,0,0,0-2.35-.46,1.92,1.92,0,0,0-.75.7,1.89,1.89,0,0,0,0,1.79,1.75,1.75,0,0,0,1.88.85,2,2,0,0,0,1.5-2c0-.15.2-.38-.29-.83"/><path class="cls-13" d="M171.4,69.18a2.49,2.49,0,0,0-2.35-.46,1.87,1.87,0,0,0-.76.7,1.92,1.92,0,0,0,0,1.79,1.76,1.76,0,0,0,1.88.85,1.94,1.94,0,0,0,1.5-2c0-.15.21-.39-.29-.83"/><path class="cls-13" d="M151.74,65.62S149.66,61,146.33,60a42.28,42.28,0,0,0-8.19-1.33s6.05,1.87,7.83,2.44S151.74,65.62,151.74,65.62Z"/><path class="cls-13" d="M155.83,58.14c0-.06-.27-.2-.23-.27a40.1,40.1,0,0,0-9.45-5.06,11.55,11.55,0,0,0-3.31-.4,15.88,15.88,0,0,0-3.59.34c-.51.32,1.67.46,1.67.46a9.87,9.87,0,0,1,1.21.21c2.39.71,4.8,1.12,7,2.36a42.1,42.1,0,0,1,5.74,4.52A23.38,23.38,0,0,1,155.83,58.14Z"/><path class="cls-13" d="M177.62,66.08a2.42,2.42,0,0,0,0-.25h0a12.39,12.39,0,0,0-1.72-1.28,40,40,0,0,0-9.82-3.38l-.79,1.91a26.85,26.85,0,0,1,5.64,1.25A39.83,39.83,0,0,1,177.33,67c.13-.15,0,0,.09-.17s.11-.24.16-.36S177.61,66.2,177.62,66.08Z"/><path class="cls-13" d="M161,77.72q0,.89.06,1.77c0,.4,0,.81,0,1.21a3,3,0,0,1-.07.85c-.26.83-1.52.83-2.21.77a13.56,13.56,0,0,1-2.67-.52,7.66,7.66,0,0,1-3-1.39c-.13-.12-.45.07-.28.22A7.26,7.26,0,0,0,155.63,82a14.69,14.69,0,0,0,3,.63,3,3,0,0,0,2.41-.56c.51-.49.41-1.22.41-1.87,0-.83,0-1.66-.06-2.48,0-.21-.38-.16-.38,0Z"/><path class="cls-13" d="M151.05,76.84a2,2,0,0,0-1.49.37,1.61,1.61,0,0,0-.51.7,1.63,1.63,0,0,0-.13.87,1.88,1.88,0,0,0,1.2,1.15,5.76,5.76,0,0,0,1.86.58.58.58,0,0,0,.29-.05s.14-.09,0-.1a5.27,5.27,0,0,1-1.56-.45,2.72,2.72,0,0,1-1.25-.85,1.35,1.35,0,0,1,0-1.42,1.11,1.11,0,0,1,1.16-.65.5.5,0,0,0,.29,0s.14-.09.05-.1Z"/><path class="cls-12" d="M164.44,152.15a11.93,11.93,0,0,0-2,3.63,25.16,25.16,0,0,0-1.38,4.83A27.32,27.32,0,0,0,161,165c0,1.91-.15,3.8,0,5.71,0,.62,1.19.46,1.16-.08-.12-1.79,0-3.56,0-5.36a37.12,37.12,0,0,1,0-4.35,22.42,22.42,0,0,1,1.26-4.69,11.88,11.88,0,0,1,2-3.75c.48-.54-.6-.78-1-.37Z"/><path class="cls-14" d="M120.23,71.38a3,3,0,0,0-3.49,2,2.66,2.66,0,0,0,.28,2.08,2.44,2.44,0,0,0,.86.77,3,3,0,0,0,2.5.26c.07,0,.27-.09.24-.2s-.24-.06-.31,0a2.53,2.53,0,0,1-2.67-.84,2.48,2.48,0,0,1,.31-3.2,2.17,2.17,0,0,1,1.93-.53.49.49,0,0,0,.39-.11c.08-.07.08-.15,0-.17Z"/><path class="cls-15" d="M121.31,59.83A3.29,3.29,0,0,0,119,62a5.54,5.54,0,0,0-.54,3c.08.84.5,2.8,1.71,2.68,1-.11,1.22-1.23,1.18-2,0-.52-.14-1-.12-1.58s.39-.69,1-.52c.17,0,.46,0,.44-.26a30.26,30.26,0,0,0-1.14-5.49c-.3-.9-.7-2-1.72-2.25-1.27-.35-2.16,1-2.54,2a7.71,7.71,0,0,0-.12,4.82c.07.25.63.1.55-.15a8,8,0,0,1-.2-3.5c.19-1.06,1.13-3.73,2.59-2.42a4.7,4.7,0,0,1,1.07,2.3c.28,1,.49,2,.67,3,.11.6.2,1.21.28,1.82l.44-.26c-.64-.18-1.55-.28-1.81.5a7.67,7.67,0,0,0,.06,2.34,1.44,1.44,0,0,1-.38,1.11c-.47.42-.9-.45-1.06-.81a4.89,4.89,0,0,1-.16-3.37c.31-.95.91-2.51,2.05-2.67.3,0,.43-.46,0-.4Z"/><rect class="cls-3" x="13.72" y="232.78" width="317.59" height="15.38"/><path class="cls-16" d="M122,190.22l38.6,35.88,3.64,1.72,2,1-.94-1.73-1.91-3.52L124.34,187.7a1.72,1.72,0,0,0-2.35,0h0a1.72,1.72,0,0,0-.08,2.43Z"/><path class="cls-6" d="M120.92,215.63l15,2.61s12.88-7.87,14.88-8.13c1.53-.2,8.9,1.53,12.16,2.32a2.85,2.85,0,0,1,2.22,2.86.06.06,0,0,1,0,.06,2.85,2.85,0,0,1-1.8,2.44h0a2.59,2.59,0,0,1,1.51,3.76c-.92,2.15-3.82,1.82-3.82,1.82h0s.59-.15,1.35,1.58h0s2.33,3-.49,4.13a6,6,0,0,1-2.95.51,1.73,1.73,0,0,1-1.22,2.61c-2.26.52-15-.17-15-.17s-3.15.05-6.2-.22l-4.21,0Z"/><path class="cls-11" d="M149.51,210.66c-.11-.2,1.34-.38,1.6-.38a10.92,10.92,0,0,1,1.7.19c1.78.28,3.54.66,5.3,1.06,1.53.34,3.09.64,4.6,1.07a2.71,2.71,0,0,1,.5,5.11c-.09,0-.25.19-.08.25a2.49,2.49,0,0,1,1.75,2.33,3,3,0,0,1-3.52,2.9l-.3.36c-.14,0,.22.21.34.34a5.4,5.4,0,0,1,.7,1.18,9.41,9.41,0,0,1,.5.82,2.88,2.88,0,0,1,.37,1.72c-.25,1.57-2.42,1.86-3.7,1.8-.1,0-.72.09-.62.28a1.55,1.55,0,0,1-.88,2.36c-.45.12-.37.43.08.3,1.37-.38,2.24-1.43,1.56-2.86l-.62.28c2,.1,5.63-.64,4.85-3.39a10,10,0,0,0-1.13-2.21c-.28-.47-.7-1.08-1.33-1-.11,0-.71.31-.3.35,1.56.16,3.51-.34,4.32-1.81a2.75,2.75,0,0,0-1.46-4.11l-.08.24c2.12-1,2.74-3.89.56-5.23a10,10,0,0,0-2.91-.85c-1.17-.28-2.33-.54-3.51-.8a35.8,35.8,0,0,0-6.26-1.08c-.28,0-3.17.3-2.79,1,.12.22.85-.05.76-.2Z"/><path class="cls-17" d="M152.59,85.75c-3.38-1.17-9.59-3-9.59-3s-.88,7.86,7,10.55,10.94-4.92,10.94-4.92S156,86.91,152.59,85.75Z"/><path class="cls-18" d="M152.62,85.76l-8.41-2.94a10.1,10.1,0,0,0,6.68,7.43c6.3,2.17,9.08-2.12,9.08-2.12Z"/><path class="cls-19" d="M152.61,86c-1.61-.55-6.4-2.5-6.4-2.5s1.15,2.36,6,4,6.94.48,6.94.48Z"/><path class="cls-17" d="M161.18,88.25a8.66,8.66,0,0,1-1.3-.5c-1.29-.69-1.75-1.38-2.69-1.79-1.6-.69-2.87-.4-3.58-.65s-1.54-1.25-3.23-1.69c-1-.26-3.26-.28-4.63-.62-.82-.21-2.74-.61-2.93-.63s.47,1.19,9.46,4.29S161.4,88.39,161.18,88.25Z"/><rect class="cls-20" x="197.33" y="226.04" width="56.89" height="6.9"/><line class="cls-21" x1="197.33" y1="228.23" x2="254.21" y2="228.23"/><line class="cls-21" x1="197.33" y1="231.07" x2="254.21" y2="231.07"/><rect class="cls-20" x="197.33" y="223.06" width="56.89" height="3.45"/><line class="cls-21" x1="197.33" y1="225.46" x2="254.21" y2="225.46"/><rect class="cls-22" x="243.82" y="220.71" width="8.06" height="2.03"/><rect class="cls-22" x="186.84" y="230.65" width="8.06" height="2.03"/><rect class="cls-22" x="186.84" y="228.23" width="8.06" height="2.03"/><rect class="cls-23" x="99.79" y="229.25" width="82.35" height="3.34"/><path class="cls-11" d="M178.08,210.77a10.42,10.42,0,0,0-4.78,1.66,5.24,5.24,0,0,0-2.93,3.38c-.1.51,1.16.31,1.24-.14a4.2,4.2,0,0,1,2.36-2.76,19.87,19.87,0,0,1,1.79-.89,4.6,4.6,0,0,1,1.85-.5.92.92,0,0,0,.81-.35c.14-.25-.11-.4-.34-.4Z"/></g></g></svg>