<?xml version="1.0" encoding="UTF-8"?>
<svg id="Layer_6" data-name="Layer 6" xmlns="http://www.w3.org/2000/svg" xmlns:xlink="http://www.w3.org/1999/xlink" viewBox="0 0 292.89 301.99">
  <defs>
    <style>
      .cls-1, .cls-2, .cls-3 {
        fill: none;
      }

      .cls-4 {
        fill: #87664e;
      }

      .cls-2 {
        stroke: #4f2f26;
        stroke-width: .26px;
      }

      .cls-2, .cls-5, .cls-3 {
        stroke-miterlimit: 10;
      }

      .cls-6 {
        fill: #231f20;
      }

      .cls-7 {
        fill: #98554a;
      }

      .cls-8 {
        fill: #070808;
      }

      .cls-9 {
        fill: url(#linear-gradient);
      }

      .cls-10 {
        fill: #f1eef7;
      }

      .cls-5 {
        fill: #f2ebd1;
        stroke: #231f20;
        stroke-width: .69px;
      }

      .cls-11 {
        fill: #ce8d2a;
      }

      .cls-12 {
        fill: #ca5844;
      }

      .cls-13 {
        fill: #fff;
      }

      .cls-14 {
        fill: #0a0808;
      }

      .cls-15 {
        fill: #661f0f;
      }

      .cls-16 {
        fill: #609d42;
      }

      .cls-17 {
        fill: #181d1e;
      }

      .cls-18 {
        fill: #dbb28f;
      }

      .cls-19 {
        fill: #4f2f26;
      }

      .cls-20 {
        fill: #9b9a9a;
      }

      .cls-3 {
        stroke: #276533;
        stroke-width: .47px;
      }

      .cls-21 {
        fill: #a38166;
      }

      .cls-22 {
        fill: #161412;
      }

      .cls-23 {
        clip-path: url(#clippath);
      }
    </style>
    <clipPath id="clippath">
      <path class="cls-1" d="M242.2,61.91c-13.28-13.28-28.63-23.21-45.01-29.82C187.2,13.14,167.33.22,144.42.22s-44.41,14-53.95,34.22c-14.33,6.53-27.77,15.68-39.56,27.47C-1.91,114.73-1.91,200.38,50.91,253.2c52.82,52.82,138.47,52.82,191.29,0,52.82-52.82,52.82-138.47,0-191.29Z"/>
    </clipPath>
    <linearGradient id="linear-gradient" x1="145.07" y1="108.79" x2="155.64" y2="379.11" gradientUnits="userSpaceOnUse">
      <stop offset="0" stop-color="#d1d3d4"/>
      <stop offset=".94" stop-color="#6d6e71"/>
    </linearGradient>
  </defs>
  <path class="cls-22" d="M215.54,82.54c-.84.4-1.76.61-2.69.59-.71.07-1.43-.07-2.07-.41-.58-.33-.87-1-.73-1.64.09-.28.2-.56.33-.83.17-.42.3-.85.4-1.29.03-.16-.31-.04-.33.09-.17.66-.39,1.3-.66,1.92-.17.43-.12.91.12,1.3.68,1.14,2.19,1.14,3.35,1.05.83-.06,1.65-.28,2.4-.66.22-.06.1-.27-.05-.18l-.07.05Z"/>
  <path class="cls-22" d="M218.77,80.07c.59-.07.73.84.74,1.25.04.27-.03.54-.19.76-.29.29-.69.46-1.1.48-.52-.03-1.03-.12-1.53-.27-.08,0-.16.02-.23.06,0,0-.15.12-.09.12.5.15,1.01.25,1.53.28.49-.04.97-.21,1.38-.49.31-.2.52-.53.55-.9.02-.33-.02-.66-.12-.97-.09-.32-.32-.61-.7-.56-.09,0-.17.03-.25.07,0,0-.1.11.02.08l-.02.07Z"/>
  <g class="cls-23">
    <circle class="cls-9" cx="146.94" cy="156.78" r="135.26"/>
    <path class="cls-18" d="M180.87,218.61s-4.51-35.17-7.56-51.56c-3.1-10.11-5.76-14.53-9.36-24.48-1.5-4.61-3.52-9.04-6.02-13.2-.95-.95-1.94-1.85-2.96-2.72l-.18.1c-.34.19-.66.42-.99.63-.13.1-.21.14-.26.17l-.17.15c-.58.5-1.13,1.07-1.67,1.57-.3.32-.6.65-.89.98l-.55.67c-.48.62-.93,1.27-1.36,1.94-.96,1.49-1.82,3.03-2.59,4.63-.75,1.5-1.4,3.05-1.95,4.64-.6,1.68-1.12,3.38-1.55,5.12-.2.83-.38,1.67-.55,2.51-.07.37-.15.76-.2,1.14,0,.16-.05.33-.07.49h0c-.1.89-.17,1.78-.19,2.66.76.56,1.2,1.47,1.17,2.42,0,7.26.32,14.51.95,21.76,1.07,12.53,3.21,24.85,5.35,37.22.91,5.21,1.74,10.51,3.65,15.46.78,2.17,2,4.15,3.58,5.83,1.56,1.58,3.31,2.96,5,4.42l.32.16,47.59,24.17s10.92-30.24,11.9-30.63-40.44-16.28-40.44-16.28Z"/>
    <rect class="cls-4" x="-51.64" y="250.03" width="479.05" height="67.85"/>
    <path class="cls-18" d="M256.68,241.74l-7.24-8.68-14.91-4.28s-12.83,4.36-13.14,4.33-10.26-2.72-10.26-2.72l-1.21,16.04,15.52,1.67,23.77-1.07s1.23-1.28.5-2.19,3.98,1.52,4.54,1.54,1.63.51,2.36-.5c.49-.63,1.17-2.77.05-4.14Z"/>
    <path class="cls-2" d="M231.98,239.98s.18-.33,1.19-.29c3.7.16,12.04,1.28,12.83,2.27,1.44,1.7.27,4.58-2.63,4.58h-13.5"/>
    <path class="cls-2" d="M236.05,239.9s5.46-2.14,6.12-1.99,8.73,6.96,8.73,6.96h-1.18"/>
    <path class="cls-8" d="M106.26,36.4s-9.62,23.18-2.04,37.12c7.58,13.93,41.27,27.14,52.48,21.95,11.22-5.19,19.68-31.7,14.61-38.14s-65.05-20.93-65.05-20.93Z"/>
    <path class="cls-8" d="M103.68,55.38s-9.62,3.13-12.53,12.18c-2.91,9.05,1.66,17.92,12.77,23.53s28.22,7.18,30.46.73,6.2-16.61,1.2-21.39c-5-4.78-31.89-15.05-31.89-15.05Z"/>
    <path class="cls-18" d="M121.48,68.25s.17,16.04-7.3,25.92c-1.07,1.39-10.99,3.07-10.99,3.07l6.83,7.9c5.54,6.42,15.18,16.66,23.53,18.09,4.74.81,12-1.72,16.04-1.99l3.61-9.62-8-7.19c.14-2.04,4.43-15.62,4.43-15.62"/>
    <path class="cls-12" d="M163.06,177.38c-.11,5.02.24,10.15-1.81,14.85-2.82,6.5-8.85,12.5-14.72,12.96-2.86,4.96-10.3,29.52-9.62,42.09-16.05,4.88-33.13,5.25-49.37,1.07-19.64-5.07-40.08-6.22-60.16-3.39,4.84-33.34,24.32-47.59,24.32-47.59l11.82-36.61-1.01-39.57c4.73-14.97,20.32-21.73,34.97-24.14l15.6-2.26s2.05,22.51,20.46,24.09c18.4,1.58,12.35-13.44,12.35-13.44,0,0,19.25,13.48,22.46,18.02,6.69,9.42,7.09,10.43,9.75,23.85,2.41,12.11,2.67,20.8,3.21,22.97s-18.41,5.22-18.41,5.22"/>
    <path class="cls-18" d="M86.53,117.05c4.62,2.25,3.97,12.68,3.97,12.68,4.15,21.54-14.34,75.92-14.34,75.92l59.07,22.2-2.88,13.67c-26.53-1.43-53.73.25-77.82-9.62-8.92-3.65-9.91-13.46-9.81-23.72.06-6.19,11.25-55.13,10.98-57.95,0,0,4.22-8.31,6.53-21.95,2.31-13.64,15.16-15.63,24.28-11.23Z"/>
    <path class="cls-19" d="M159.01,245.14c.94.06,1.9.06,2.83.2.99.08,1.92.49,2.63,1.18.65.73.85,1.76.53,2.68-.19.55-.48,1.06-.87,1.51-.12.15-.24.29-.37.42-.05.04-.11.09-.15.14-.13.14-.47,0,.37-.09-.15,0-.46,0-.55.19s.07.15.19.14c.72-.07,1.2-.75,1.58-1.3.7-.88.91-2.05.57-3.11-.73-1.81-2.86-2.06-4.56-2.14l-1.69-.11c-.21,0-.41.04-.59.15-.12.1-.12.17.05.18v-.04Z"/>
    <path class="cls-19" d="M76.44,205.39c-2.45.1-4.81.99-6.72,2.53-1.58,1.58-2.77,3.51-3.48,5.64-.12.3,1.17.16,1.3-.21.65-1.89,1.67-3.63,3-5.12,1.45-1.37,3.35-2.16,5.35-2.23.27,0,.73-.09.89-.33s-.14-.29-.33-.27h-.02Z"/>
    <path class="cls-12" d="M96.24,97.09s-23.09,3.59-31.57,15.14c-8.48,11.55-13.46,39.57-13.46,39.57,0,0,26.66,8.84,41.44,7.9,14.78-.94,3.59-62.61,3.59-62.61Z"/>
    <path class="cls-15" d="M89.61,110.58c2.51.71,4.78,3.21,6.1,5.35,1.02,1.85,1.77,3.84,2.22,5.91.5,1.87.85,3.78,1.07,5.7.77,6.89-.86,13.55-2.59,20.17-1.15,4.43-2.26,8.85-3.03,13.37l.97-.43-4.65-.75c-.44-.07-1.43.61-.73.73l4.65.75c.31,0,.91,0,.97-.43,1.34-7.78,3.98-15.28,5.26-23.07.58-3.39.71-6.84.4-10.27-.4-3.87-1.23-8.27-3.14-11.69-1.38-2.47-3.96-5.35-6.79-6.1-.45-.12-1.43.53-.73.73v.02Z"/>
    <path class="cls-8" d="M186.93,49.02s6.68-27.61-15.46-32.84c-8.42-6.94-19.16-10.44-30.05-9.78-18.18,1.17-31.15,10.69-38.4,41.39-7.25,30.7,83.91,1.23,83.91,1.23Z"/>
    <path class="cls-8" d="M114.82,46.25c2.01,8.08,8.38,14.81,15.76,19.25s15.78,7,24.06,9.52l10.26,2.14c5.83-4.28,11.71-6.42,15.74-12.32,3.01-5.14,5.18-10.72,6.42-16.54,1.21-5.61-.98-12.92-2.77-18.45-1.65-4.66-4.85-8.6-9.08-11.16-4.28-2.77-6.42-4.93-12.93-6.99-10.98-3.61-23-2.21-32.86,3.83-10.03,5.99-17.38,19.46-14.6,30.73Z"/>
    <path class="cls-19" d="M146.1,101.58c-1.5-1.06-3.07-2.02-4.71-2.86-2.3-1.13-6.48-1.84-15.9-13.29,0,0,1.07,11.97,14.97,17.27,1.56.74,3.26,1.14,4.98,1.17l.65-2.29Z"/>
    <path class="cls-18" d="M181.41,49.21c.27,2.98-.09,5.98-1.07,8.81-1.52,4.69-3.67,9.86-4.41,11.87-.7,2.12-1.25,4.28-1.63,6.48-.34,3.28-1.44,6.43-3.21,9.22-1.74,3.22-4.08,6.08-6.9,8.42-3.34,2.93-7.49,5.11-11.48,7.29-2.62,1.42-3.11,1.55-8.77,0-8.33-2.26-15.09-8.74-18.76-15.84l-3.95-10.69.13-4.19c-5.54,3.21-6.42-4.28-5.88-5.49-.74-3.1-3.21-13.78,1.32-16.36l.36-.35c1.84-.86,3.87-.6,4.47,1.8.14,1.02.37,1.98.51,2.98.32,1.57.79,3.1,1.41,4.58,1.08-2.44,2.01-4.94,2.78-7.49.58-2.47,4.28-9.05,9.39-11.29,0,0,2.36-8.55,4.98-10.63l.75-.06c.4.12.63.32,1.07.44,0-.13-.06-.29,0-.55.52.33,1.09.54,1.7.63-.1-.16-.32-.37-.29-.5.51.22,1.05.38,1.6.47-.1-.17-.29-.5-.25-.63.59.45,1.07.31,1.6.47-.1-.18-.14-.38-.12-.59.47.32,1,.52,1.56.59-.1-.16-.15-.46-.25-.63.59.46,1.07.31,1.59.47.14,0-.18-.33-.15-.46.41.23.85.41,1.3.51,0-.13-.2-.33-.16-.46.53.3,1.12.47,1.73.5l-.25-.63c.37.47.93.74,1.53.73-.1-.17-.29-.5-.26-.63.52.58,1.28.9,2.06.88-.13,0-.29-.49-.25-.62.51.71,1.07.73,1.75.92-.1-.16-.15-.46-.34-.79.56.77,1.48,1.2,2.43,1.12-.13,0-.15-.37-.13-.53s0-.28.28-.26c0,0,1.39.96,1.42.83.43.53-.77-2.58-.11-2.38-.05-.3,3.76,1.35,3.57,1.07.52.71.46.41,1.3.51,0,0,2.32,2.33,2.22,2.14.11.25.34.44.61.5,0,0,8.64,10.99,13.12,17.83Z"/>
    <path class="cls-8" d="M137.57,38.04l-3.21,4.03c-3.69,4.68-6.69,9.87-8.89,15.41l-.63,1.58c-.09.26-.37.4-.64.31-.15-.05-.26-.17-.31-.31l-1.68-5.79s4.46-17.85,15.36-15.24Z"/>
    <path class="cls-8" d="M125.9,28.17c3.07-9.83,19.65-8.8,28.15-7.49,5.45,1.02,12.76,7.73,17.02,11.3,1.7-1.14-15.14,11.43-45.29,10.15l-1.25,7.27s-1.71-11.43,1.37-21.24Z"/>
    <path class="cls-22" d="M157.16,55.05c0-.06-.29-.21-.25-.29-3.11-2.25-6.51-4.07-10.11-5.41-1.15-.31-2.35-.46-3.54-.43-1.29-.02-2.58.1-3.84.36-.55.34,1.79.49,1.79.49.44.05.87.12,1.29.22,2.56.76,5.13,1.2,7.49,2.52,2.18,1.43,4.24,3.05,6.14,4.83.3-.79.65-1.56,1.03-2.31Z"/>
    <path class="cls-22" d="M180.46,63.54c0-.09,0-.18,0-.27h0c-.57-.51-1.19-.97-1.84-1.37-3.33-1.66-6.86-2.87-10.5-3.61l-.84,2.04c2.05.23,4.07.68,6.03,1.34,2.36.75,4.65,1.71,6.84,2.86.14-.16,0,0,.1-.18s.12-.26.17-.38.03-.29.04-.42Z"/>
    <path class="cls-22" d="M162.69,75.99c0,.63.02,1.27.06,1.89v1.29c.02.3,0,.61-.07.91-.28.89-1.63.89-2.36.82-.97-.09-1.92-.28-2.86-.56-1.16-.26-2.26-.76-3.21-1.49-.14-.13-.48.07-.3.24.88.7,1.9,1.2,2.99,1.47,1.04.34,2.12.56,3.21.67.91.18,1.84-.04,2.58-.6.55-.52.44-1.3.44-2,0-.89,0-1.78-.06-2.65,0-.22-.41-.17-.41,0h-.01Z"/>
    <path class="cls-22" d="M152.05,75.05c-.56-.09-1.14.06-1.59.4-.25.2-.44.45-.55.75-.13.29-.18.61-.14.93.21.59.69,1.04,1.28,1.23.62.32,1.3.53,1.99.62.11,0,.21,0,.31-.05,0,0,.15-.1,0-.11-.58-.07-1.14-.24-1.67-.48-.52-.17-.99-.49-1.34-.91-.29-.47-.29-1.05,0-1.52.21-.48.72-.76,1.24-.7.1.03.21.03.31,0,0,0,.15-.1.05-.11l.1-.05Z"/>
    <path class="cls-15" d="M166.37,155.58c-.93,1.16-1.66,2.47-2.14,3.88-.66,1.67-1.16,3.4-1.48,5.16-.15,1.56-.17,3.13-.06,4.69,0,2.04-.16,4.06,0,6.11,0,.66,1.27.49,1.24-.09-.13-1.91,0-3.81,0-5.73-.09-1.55-.09-3.1,0-4.65.27-1.72.72-3.4,1.35-5.02.47-1.45,1.19-2.81,2.14-4.01.51-.58-.64-.83-1.07-.4l.02.04Z"/>
    <path class="cls-11" d="M119.09,69.21c-1.61-.35-3.22.57-3.73,2.14-.21.75-.1,1.56.3,2.22.24.34.55.63.92.82.81.48,1.78.58,2.67.28.07,0,.29-.1.26-.21s-.26-.06-.33,0c-1.05.3-2.17-.05-2.86-.9-.74-1.07-.6-2.52.33-3.42.55-.51,1.32-.73,2.06-.57.15.02.3-.02.42-.12.09-.07.09-.16,0-.18l-.04-.06Z"/>
    <path class="cls-6" d="M120.25,56.86c-1.17.3-2.1,1.18-2.47,2.32-.49.99-.69,2.11-.58,3.21.09.9.53,2.99,1.83,2.87,1.07-.12,1.3-1.32,1.26-2.14,0-.56-.15-1.07-.13-1.69s.42-.74,1.07-.56c.18,0,.49,0,.47-.28-.22-1.99-.63-3.96-1.22-5.87-.32-.96-.75-2.14-1.84-2.41-1.36-.37-2.31,1.07-2.72,2.14-.59,1.66-.64,3.47-.13,5.15.07.27.67.11.59-.16-.35-1.22-.42-2.49-.21-3.74.2-1.13,1.21-3.99,2.77-2.59.6.7,1,1.55,1.14,2.46.3,1.07.52,2.14.72,3.21.12.64.21,1.29.3,1.95l.47-.28c-.68-.19-1.66-.3-1.94.53-.11.83-.09,1.68.06,2.5.04.44-.11.87-.41,1.19-.5.45-.96-.48-1.13-.87-.48-1.14-.54-2.42-.17-3.6.33-1.02.97-2.68,2.19-2.86.32,0,.46-.49,0-.43l.06-.06Z"/>
    <rect class="cls-21" x="5.2" y="241.8" width="339.61" height="16.45"/>
    <path class="cls-17" d="M120.99,196.29l41.28,38.37,3.89,1.84,2.14,1.07-1.01-1.85-2.04-3.76-41.76-38.36c-.71-.66-1.81-.66-2.51,0h0c-.74.69-.78,1.86-.09,2.6l.1.1Z"/>
    <path class="cls-18" d="M119.83,223.46l16.04,2.79s13.77-8.42,15.91-8.69c1.64-.21,9.52,1.64,13,2.48,1.42.32,2.41,1.6,2.37,3.06.01.02.01.04,0,.06-.09,1.17-.84,2.18-1.92,2.61h0c1.47.44,2.3,1.98,1.86,3.45-.06.2-.14.39-.24.57-.98,2.3-4.08,1.95-4.08,1.95h0s.63-.16,1.44,1.69h0s2.49,3.21-.52,4.42c-.99.45-2.07.63-3.15.55.53.87.25,2.01-.62,2.54-.21.13-.44.21-.69.25-2.42.56-16.04-.18-16.04-.18,0,0-3.37.05-6.63-.24h-4.5l-12.22-17.3Z"/>
    <path class="cls-19" d="M150.4,218.15c-.12-.21,1.43-.41,1.71-.41.61.02,1.22.09,1.82.2,1.9.3,3.79.71,5.67,1.13,1.64.36,3.3.68,4.92,1.14,1.56.36,2.53,1.92,2.17,3.48-.2.88-.81,1.61-1.63,1.99-.1,0-.27.2-.09.27,1.1.34,1.85,1.34,1.87,2.49-.03,1.77-1.49,3.18-3.27,3.15-.17,0-.33-.02-.5-.05l-.32.38c-.15,0,.24.22.36.36.3.39.55.81.75,1.26.19.28.37.58.53.88.32.56.46,1.2.4,1.84-.27,1.68-2.59,1.99-3.96,1.92-.11,0-.77.1-.66.3.51.76.31,1.79-.45,2.3-.15.1-.32.18-.49.22-.48.13-.4.46.09.32,1.47-.41,2.4-1.53,1.67-3.06l-.66.3c2.14.11,6.02-.68,5.19-3.63-.3-.83-.71-1.63-1.21-2.36-.3-.5-.75-1.15-1.42-1.07-.12,0-.76.33-.32.37,1.67.17,3.75-.36,4.62-1.94.88-1.36.49-3.18-.87-4.07-.21-.14-.45-.25-.69-.33l-.09.26c2.27-1.07,2.93-4.16.6-5.59-.99-.46-2.03-.77-3.11-.91-1.25-.3-2.49-.58-3.75-.86-2.19-.58-4.43-.97-6.69-1.15-.3,0-3.39.32-2.98,1.07.13.24.91-.05.81-.21v-.02Z"/>
    <path class="cls-7" d="M153.7,84.58c-3.61-1.25-10.26-3.21-10.26-3.21,0,0-.94,8.41,7.49,11.28,8.43,2.88,11.7-5.26,11.7-5.26,0,0-5.28-1.57-8.93-2.81Z"/>
    <path class="cls-14" d="M153.73,84.59l-8.99-3.14c.81,3.72,3.53,6.74,7.14,7.95,6.74,2.32,9.71-2.27,9.71-2.27l-7.86-2.53Z"/>
    <path class="cls-10" d="M153.72,84.84c-1.72-.59-6.84-2.67-6.84-2.67,0,0,1.23,2.52,6.42,4.28s7.42.51,7.42.51l-6.99-2.12Z"/>
    <path class="cls-7" d="M162.88,87.25c-.48-.14-.94-.32-1.39-.53-1.38-.74-1.87-1.48-2.88-1.91-1.71-.74-3.07-.43-3.83-.7s-1.65-1.34-3.45-1.81c-1.07-.28-3.49-.3-4.95-.66-.88-.22-2.93-.65-3.13-.67s.5,1.27,10.12,4.59,9.75,1.85,9.52,1.7Z"/>
    <rect class="cls-16" x="201.54" y="234.6" width="60.84" height="7.38"/>
    <line class="cls-3" x1="201.54" y1="236.94" x2="262.36" y2="236.94"/>
    <line class="cls-3" x1="201.54" y1="239.97" x2="262.36" y2="239.97"/>
    <rect class="cls-16" x="201.54" y="231.41" width="60.84" height="3.69"/>
    <line class="cls-3" x1="201.54" y1="233.97" x2="262.36" y2="233.97"/>
    <rect class="cls-20" x="251.25" y="228.9" width="8.62" height="2.17"/>
    <rect class="cls-20" x="190.32" y="239.52" width="8.62" height="2.17"/>
    <rect class="cls-20" x="190.32" y="236.94" width="8.62" height="2.17"/>
    <rect class="cls-5" x="97.24" y="238.03" width="88.06" height="3.57"/>
    <path class="cls-19" d="M180.96,218.27c-1.82.16-3.58.77-5.11,1.78-1.53.68-2.68,2-3.13,3.61-.11.55,1.24.33,1.33-.15.35-1.32,1.28-2.4,2.52-2.95.62-.35,1.26-.67,1.91-.95.61-.32,1.29-.5,1.98-.53.33.03.66-.11.87-.37.15-.27-.12-.43-.36-.43h0Z"/>
    <path class="cls-1" d="M185.63,27.1c-2.29-4.91-6.42-9.18-13.9-10.93-8.42-6.94-19.16-10.44-30.06-9.78-13.02.83-23.37,5.96-30.85,20.07C38.84,46.49-3.26,121.08,16.78,193.05c20.04,71.97,94.62,114.07,166.6,94.04,71.97-20.04,114.07-94.62,94.04-166.6-12.49-44.86-47.17-80.14-91.81-93.4h.02Z"/>
    <path class="cls-13" d="M138.47,55.79s4.63,4.69,7.04,5.63,7.04,1.41,7.04,1.41c0,0-4.11-4.57-5.37-5.13s-6.05-1.58-8.72-1.91Z"/>
    <path class="cls-13" d="M164.67,67.25s5.27,3.38,8.32,2.61c1.83-.46,3.52-1.46,3.52-1.46,0,0-2.61-1.95-4.14-2.33-1.6-.4-5.77.08-7.7,1.18Z"/>
    <path class="cls-22" d="M148.35,58.51c-.7-.58-1.65-.77-2.51-.49-.33.17-.61.43-.8.75-.32.6-.32,1.32,0,1.91.4.71,1.21,1.08,2.01.91.97-.25,1.64-1.14,1.6-2.14,0-.16.21-.41-.31-.89"/>
    <path class="cls-22" d="M152.79,63.05s-2.22-4.94-5.79-6.01c-2.87-.76-5.8-1.24-8.76-1.42,0,0,6.47,2,8.37,2.61s6.17,4.82,6.17,4.82Z"/>
    <path class="cls-22" d="M164.57,67.27s3.56-2.14,5.71-1.98c2.88.1,4.43.84,6.23,3.1-2.27-1.31-3.62-1.54-6.22-1.86-1.93,0-3.85.25-5.72.74Z"/>
    <path class="cls-22" d="M173.81,66.86c-.7-.58-1.65-.77-2.51-.49-.34.17-.62.43-.81.75-.32.6-.32,1.32,0,1.91.4.71,1.21,1.07,2.01.91.98-.23,1.66-1.13,1.6-2.14,0-.16.22-.42-.31-.89"/>
  </g>
</svg>