<svg xmlns="http://www.w3.org/2000/svg" xmlns:xlink="http://www.w3.org/1999/xlink" viewBox="0 0 292.89 301.99"><defs><style>.cls-1{fill:none;}.cls-2{isolation:isolate;}.cls-3{clip-path:url(#clip-path);}.cls-4{fill:#f2ebd1;}.cls-5{fill:#715446;}.cls-6{fill:#b17430;}.cls-7{clip-path:url(#clip-path-2);}.cls-8{fill:#9b5925;}.cls-9{fill:#628e9f;}.cls-10{fill:#0a2f44;}.cls-11{fill:#c79e81;}.cls-12{fill:#1c4722;}.cls-13{fill:#e0e1e0;}.cls-14{fill:#fff;}.cls-15{fill:#273339;}.cls-16{fill:#517568;}.cls-17{fill:#082735;}.cls-18{fill:#ddad6f;}.cls-19{fill:#825639;}.cls-20{fill:#151210;}.cls-21{fill:#131429;}.cls-22{fill:#040404;}.cls-23{fill:#94664a;}.cls-24{fill:#060505;}.cls-25{fill:#f1eef7;}.cls-26{fill:#13110f;}.cls-27{fill:#4f2e25;}.cls-28{fill:#27153c;}.cls-29{fill:#231f20;}.cls-30{fill:#1d170f;}.cls-31{fill:#906143;}.cls-32{fill:#31160e;}.cls-33{opacity:0.3;}.cls-34{fill:#010101;}.cls-35{fill:#162916;}.cls-36{fill:#5a697c;}.cls-37{fill:#21572b;}.cls-38{clip-path:url(#clip-path-3);}.cls-39{fill:#d3eef5;}.cls-40,.cls-41{fill:#87b448;}.cls-41{mix-blend-mode:multiply;opacity:0.5;}.cls-42{fill:#e99123;}.cls-43{fill:#fcf1d4;}.cls-44{fill:#3c2415;}.cls-45{clip-path:url(#clip-path-4);}.cls-46{fill:#af3f27;}.cls-47{fill:#3d3f3f;}</style><clipPath id="clip-path"><path class="cls-1" d="M163.49,27.75c-1.61-5.36-5.82-8.78-14.15-11.1-15.26-4.25-21.25,1.06-21.25,1.06a17.2,17.2,0,0,0-4.83,1c-6,2.14-8.44,7.35-9.6,12.74a126.54,126.54,0,1,0,49.83-3.68Z"/></clipPath><clipPath id="clip-path-2"><polygon class="cls-1" points="369.45 284.89 -7.47 284.89 6.53 207.87 355.45 207.87 369.45 284.89"/></clipPath><clipPath id="clip-path-3"><path class="cls-1" d="M254.05,141.83l-10,54.36c-.29,1.57-1.77,3.7-3.31,3.42l-.18,0-36.86-7.84,11.17-59.79,36.43,6.17a3.14,3.14,0,0,1,2.77,3.48A2,2,0,0,1,254.05,141.83Z"/></clipPath><clipPath id="clip-path-4"><path class="cls-1" d="M230.34,183.13a.74.74,0,0,1-.78-.59.76.76,0,0,1,.58-.9,2.66,2.66,0,0,0,.54-.35,4.8,4.8,0,0,1,.83-.52,11.53,11.53,0,0,1,3.48-.85,12,12,0,0,1,3,.14l1.11.14c1.4.13,3.1-.18,3.51-1.2a2.16,2.16,0,0,0-.25-2.08.75.75,0,1,1,1.12-1,3.62,3.62,0,0,1,.52,3.65c-.75,1.85-3.19,2.3-5,2.12l-1.17-.14a10.3,10.3,0,0,0-2.67-.13,9.7,9.7,0,0,0-3,.72,3.87,3.87,0,0,0-.54.36,3.23,3.23,0,0,1-1.13.62Z"/></clipPath></defs><g class="cls-2"><g id="Layer_8" data-name="Layer 8"><g class="cls-3"><circle class="cls-4" cx="147.28" cy="153.27" r="126.49" transform="translate(-65.24 149.03) rotate(-45)"/><polyline class="cls-5" points="1.81 271.73 359.89 271.73 359.89 184.76 1.81 184.76"/><polygon class="cls-6" points="369.45 285.25 -7.47 285.25 6.53 198.61 355.45 198.61 369.45 285.25"/><g class="cls-7"><rect class="cls-8" x="-11.36" y="227.16" width="391.03" height="6.83"/><rect class="cls-8" x="-10.94" y="209.08" width="391.03" height="6.83"/><rect class="cls-8" x="-13.38" y="244.47" width="391.03" height="6.83"/><rect class="cls-8" x="-13.21" y="261.44" width="391.03" height="6.83"/></g><path class="cls-9" d="M127.28,78.8c-.67,0-41.11,13.67-41.11,13.67l7.44,50.63-7.85,58.38,19.41,16s66.56-19.11,67.24-19.63-1-23.83-1-24.51,1.75-27.47,1.75-27.47-.87-2.85.92-10.27.35-2.65.35-2.65l-7.27-39.27-4.84-1.43Z"/><path class="cls-9" d="M203.36,155.47s35.46,3.06,44.71,3.16.66,24.07.66,24.07l-50.59,1.2S184,183.27,184.52,166,203.36,155.47,203.36,155.47Z"/><path class="cls-10" d="M155.52,202.89c.88-.58,41.59-10.66,55.55-13.86s21.52-6.4,30,2.91,5.24,12.21,0,24.14-25.59,21.52-38.09,24.14-42.75,0-42.75,0V220.15Z"/><path class="cls-11" d="M175,225.68c.84,1.62,1.26,4.24,2.34,7.92.48,1.62.15,4.36,2.25,4.8,3.72.79,7.65-1.6,9.08-1.83a48.78,48.78,0,0,1,6-.89,19.69,19.69,0,0,0,6.68-1.29,2.55,2.55,0,0,0,1.12-.67c.18-.22.29-.49.47-.71.66-.77,1.95-.64,2.85-1.16a5.5,5.5,0,0,0,1-.9,24.1,24.1,0,0,1,2.94-2.11,6.38,6.38,0,0,0,2.41-2.57,2.3,2.3,0,0,0-.77-2.94c-1.5-.82-2.48.44-3.87.88a8,8,0,0,1-3.39.39c-3.59-.12-4.17-.2-7.17-.22a85.49,85.49,0,0,1-12.37-1.25l-.52-2.14"/><path class="cls-9" d="M159.06,95.9s14.23,2.08,22.12,12.5c5.88,7.76,13.45,25.39,16.47,32.2S210.94,169,210.94,169l-22.43,9.5-23.61-28Z"/><path class="cls-9" d="M170,145.58l22.55-14.06s-7.94-25.57-17-33.77c-6.14-5.59-18.64-6.35-18.64-6.35Z"/><path class="cls-12" d="M263.69,142,252.6,202.39a3.16,3.16,0,0,1-3.67,2.58l-.2,0-44-10.4,11.67-61.28,44.28,4.66a3.49,3.49,0,0,1,3.07,3.87C263.72,141.86,263.7,142,263.69,142Z"/><polygon class="cls-13" points="259.68 138.2 261.92 139.48 250.55 201.4 250.31 202.68 245.79 201.84 259.68 138.2"/><path class="cls-14" d="M216.23,133.09s16.84-2.43,43.45,5.11l-11.77,64.12-22.77-5.52-20.47-5Z"/><path class="cls-13" d="M254.18,146.87l-.12,0Z"/><path class="cls-13" d="M181,134.29h0Z"/><path class="cls-15" d="M225.42,135.38,222,153.88l-5.42,29.35L215.34,190c0,.13.47.05.49-.08l3.42-18.5,5.41-29.35,1.25-6.77c0-.13-.46-.05-.49.08Z"/><path class="cls-15" d="M260.73,139.07l-3.88,21.46-6.12,33.94-1.42,7.85c0,.1.27.06.29,0l3.87-21.46,6.13-33.94L261,139c0-.1-.27-.06-.28,0Z"/><path class="cls-15" d="M259.54,138.21,255.71,160l-6.06,34.41-1.4,7.94c0,.12.27.08.28,0l3.84-21.77,6.06-34.41,1.4-7.94c0-.12-.27-.08-.29,0Z"/><path class="cls-11" d="M185.34,181l-21.51-7.34s-4.53-10.56-7.58-20.46c-5.77,1.68-10.24,3.05-16.13,3.18,4,11.62,8.69,25.88,14.25,29,9.82,5.43,31.14,4.08,31.14,4.08Z"/><path class="cls-11" d="M120,64.18a38.93,38.93,0,0,1-.23,10.27c-1.27,8.14-2.33,7.52-2.33,7.52h0a20.82,20.82,0,0,0,4.79,9l3.46,3.81c9.26,5.37,22.89,2.79,22.45-7.4,0,0-.32-.31-.2-1.47.17-1.63,3.06-12.42,3.06-12.42"/><path class="cls-16" d="M105.1,141.11l9.66-3.24a12.38,12.38,0,0,0,5.9,6.33c6.39,3,15.87,3,14.82-5.33l10.65,1.9s7.74,13.86,7.7,19.1c-.09,13.2,6.51,36.58,6.51,36.58s-18.68,8.57-26.05,8.23-37.76,3.59-37.76,3.59L106,155.52Z"/><polygon class="cls-17" points="183.11 196.13 185.56 193.75 160.69 196.13 146.19 201.87 161.94 211.29 183.11 196.13"/><rect class="cls-18" x="145.11" y="27.69" width="4.32" height="11.52" rx="2.16" transform="translate(0.08 -0.35) rotate(0.14)"/><rect class="cls-18" x="132.44" y="41.11" width="4.32" height="11.52" rx="2.16" transform="translate(47.13 -65.66) rotate(32.94)"/><path class="cls-19" d="M120.05,65.07v.08A.11.11,0,0,1,120.05,65.07Z"/><path class="cls-11" d="M138.63,83.52l8.17,1.41,3.69.24a3.91,3.91,0,0,0,3.82-2c1.74-3,2.34-4.5,2.57-4.86a52.37,52.37,0,0,0,3.72-7.22c.85-2.19,1.73-3.45,2.29-6.11a12.77,12.77,0,0,0-.27-6.64,4.53,4.53,0,0,1,.12-2.52c.58-1.81.91-4,1.63-6.4a5.46,5.46,0,0,0,.3-1.33s1.27-10.3-.3-14.14-3.07-7.77-5.74-8.69-11.86.92-11.86.92l-11-2.49-9.8,3.9-5.72,11L119.91,52l.14,13.07"/><path class="cls-20" d="M123.82,33.09c-.26-6,5.18-7.76,7.46-8.61,1.94-.72,7.34-2,11.16-1.12,1.64.38.58,3.81,1.43,4.51.29.08,3.61,1.12,4.93,1.42a13.71,13.71,0,0,0,5.13.51,5.85,5.85,0,0,1,2.87,0c1.7.39,2.77-3.79,6,.48l.19-.16c-4-6.22-9.85-6.58-16.77-8.17-.73-.17-1.49-.31-2.25-.42-11.07-1.68-10.72-1.57-18.53,5.23-4.53,4-7.33,7.85-7.47,10.44l0,.58c-.15,2.7-3.46,9.79-2.62,11.34.53,1,2.12,5.28,3.44,8.93l5.3.53c0-1,.22-9.61.24-10.64"/><path class="cls-11" d="M120.27,65.28c-4.63,3.83-4.9-3.36-4.9-3.36-2.66-3.88-2.3-7.71-1.94-10.32s3.23-2.31,3.23-2.31c2.43.5,3.75,1.23,5,9.68"/><path class="cls-20" d="M155.44,27.29c-4-.38-14.22-3.94-19.61-4.7-2.22-.32-10.09,4.65-11.15,5.83-2.44,2.72,2.17,9.76-2.37,18.68-1.5,2.94-2.86-2.52-4.61-.65s-2.42,2.63-2.42,2.63c-.5-8.92-.49-8.61,2.13-17.17s12.38-11.6,17-12,19.25,2.22,23.09,4.38"/><path class="cls-21" d="M119.48,57.93a21.67,21.67,0,0,0-1.65-3.68,6.32,6.32,0,0,0-1.28-1.63,1.69,1.69,0,0,0-.7-.42c-.32-.08-.49.21-.63.44a5.17,5.17,0,0,0-.54,3.45c0,.16.44.06.42-.11a5.33,5.33,0,0,1,.23-2.77,2.65,2.65,0,0,1,.51-.86l-.25.08c-.07,0,.1,0,.11,0a1.86,1.86,0,0,1,.47.32,7.51,7.51,0,0,1,1.68,2.38,23.45,23.45,0,0,1,1.22,2.88c.05.16.46,0,.41-.12Z"/><path class="cls-21" d="M118.53,58.34c-1.75-.23-1,2.14-1.18,3.08a.75.75,0,0,1,0,.16.9.9,0,0,0,0,.09h0c0,.06,0,0,.16,0l-.12-.13a1.2,1.2,0,0,1-.13-.28,8.69,8.69,0,0,1-.28-3.77c.16-.77.48-1.93,1.32-2.21.28-.09,0-.15-.14-.1A2.46,2.46,0,0,0,116.6,57a5.51,5.51,0,0,0-.27,1.71,12,12,0,0,0,.25,2.15c.06.28.14.84.44,1a.57.57,0,0,0,.65-.23,1.67,1.67,0,0,0,.13-.88c0-.45-.06-.89,0-1.34a1.66,1.66,0,0,1,.11-.58c.09-.2.17-.28.39-.25s.47-.15.26-.18Z"/><path class="cls-20" d="M142.34,50.81a1.62,1.62,0,0,0-1.75.14,1.66,1.66,0,0,0-.53.68,1.59,1.59,0,0,0,.23,1.48,1.48,1.48,0,0,0,1.66.46,1.63,1.63,0,0,0,1-1.81,1.46,1.46,0,0,0-.6-.95"/><path class="cls-20" d="M160,53.11a1.6,1.6,0,0,1,1.63.65,1.48,1.48,0,0,1-.35,2.15,1.49,1.49,0,0,1-1.73,0,1.65,1.65,0,0,1-.41-2,1.47,1.47,0,0,1,.86-.72"/><path class="cls-20" d="M154.51,54.35s2.91-1.91,4.71-1.71c2.63.29,3.17,1,3.84,2.37a5.75,5.75,0,0,0-3.29-1.73C158,53.13,154.51,54.35,154.51,54.35Z"/><path class="cls-20" d="M146.16,53s-3.44-2.68-5.24-2.9c-2.62-.33-5.9.91-6.88,2.08,0,0,4.36-1.87,6.2-1.59S146.16,53,146.16,53Z"/><path class="cls-20" d="M148.89,44.49c-.08.62-.17,1.24-.25,1.87-.06.47-.17,1.56-.24,2-1.61-.62-3-1.41-4.09-1.72a21.84,21.84,0,0,0-6.41-1.35,7.87,7.87,0,0,0-2.92.5c-.29.12-1.11.68-1.49.46-.16-.09.21-.82.25-.9.76-1.47,2.3-1.93,4.13-2.07a34.83,34.83,0,0,1,11,1.17"/><path class="cls-20" d="M165.06,46.77,164,46.45a23.66,23.66,0,0,0-9.14-.7l-.09,1.88c0,.48-.09,1.35-.11,1.82,1.4-.33,2.63-.75,3.53-.88a15.5,15.5,0,0,1,5.47-.15l1,.25C165.31,47.83,165.31,46.92,165.06,46.77Z"/><path class="cls-22" d="M133.35,49.16l.43,2a26.16,26.16,0,0,0,1.79,5.56c.6,1.24,8.73,2.69,10.45,2s3.16-5.19,3.72-6.2l3.25.59c.13,1.41.63,5.89,1.18,6.56s4.32,1,4.75,1.06.84.08,1.38.1c1.43.07,3.18.05,3.77-.39.88-.67,2.09-3.48,3.16-6.14l.18-.42c0-.1.08-.17.08-.2h0l.19-.48c-4.45-2.79-10.68-3.2-14.76-1l0,0-3.17-.58c-3.33-2.8-9.41-4.85-14.07-3.71h0l-12.88,1.91-.19,1.19Zm21.26,10.11c-.34-.42-.79-3.57-1.06-6,3.54-1.88,9.15-1.5,13.16.75v.06c-.58,1.43-2.1,5.24-3,5.89s-8.51,0-9.12-.68Zm-18-2.72a23.67,23.67,0,0,1-2.25-7.32c4.18-1.27,11.34.65,14.6,3.32-.8,1.84-1.91,5.11-3.14,5.62-1.77.74-8.84-.84-9.21-1.62Z"/><path class="cls-23" d="M149,70c-3.1-.39-8.09-1.39-8.09-1.39s-.35,7.62,6.85,8.52,8.41-6.6,8.41-6.6S152.12,70.37,149,70Z"/><path class="cls-24" d="M149,70c-1.47-.18-7.39-1.18-7.39-1.18s1.32,5.43,6.66,6.1a6.21,6.21,0,0,0,7.11-4.32Z"/><path class="cls-25" d="M149.08,70.21c-1.48-.18-5.94-1-5.94-1S144.56,71,149,71.59s6-.84,6-.84Z"/><path class="cls-23" d="M156.31,70.07c-.15-.06.22.27-.51.12-1.2-.26-1.93-.68-2.81-.86a13.36,13.36,0,0,0-3.18.09c-.66-.08-1.54-.8-3.07-.87-.89,0-3.13,0-4.36,0a12.45,12.45,0,0,1-1.73-.4c-.22,0,0,1.67,8.26,2.71S156.52,70.15,156.31,70.07Z"/><path class="cls-20" d="M149,67.54l-.25.77a.53.53,0,0,1-.48.36c-1.54,0-7.19.38-8.57.21l-.17,0-.17,0c-.51-.16-.27-.83.23-1a29.09,29.09,0,0,1,3.76-.76,32.54,32.54,0,0,1,5.2-.22A.52.52,0,0,1,149,67.54Z"/><path class="cls-20" d="M151,67.69l-.1.85a.49.49,0,0,0,.34.45c1.23.36,5.22,1.76,6.35,1.88l.48.07h.26c.43,0,.1-1-.29-1.23a20,20,0,0,0-2.62-1.4,21.38,21.38,0,0,0-4-1.17A.46.46,0,0,0,151,67.69Z"/><path class="cls-20" d="M153,85.46,154,84s-14.35.81-17-.23C129.93,81,125.28,70,125.28,70A28,28,0,0,0,130,79.4c3.65,4.87,4.57,5.52,8.88,5.9,3.28.28,9.3.89,12,1.17A2.32,2.32,0,0,0,153,85.46Z"/><path class="cls-20" d="M113.63,50.83a28.24,28.24,0,0,1-1.34-11.92c.58-7.26,1.87-17,10.59-20.12a17.2,17.2,0,0,1,4.83-1s6-5.32,21.25-1.06c10.72,3,14.64,7.77,14.95,16.2,0,0-2.66-4.59-3.62-4.26s-1.94,2.46-5.63,2.48-9.49-1-11.77-2.74-6.52-3.66-9-3.53c-6.17.33-7.22,4.88-8,7.54s-3,12.06-6.08,13.12a4.79,4.79,0,0,0-3.41,3.65l-.5.15a4.92,4.92,0,0,0-2.27,1.47Z"/><path class="cls-20" d="M125.28,70c6.13,8.58,10.1,11.22,12.65,11.65s4.49,1.38,6.39.78c2.31-.75,3.07-1.86,3.62-1.37.24.21,1.05,1.68,1.29,1.9a4.12,4.12,0,0,0,2.78.16,6.41,6.41,0,0,0,3.85-2.77c-.76,1.62-1.48,4-3.12,4.66-1,.44-2.48.11-3.58.06-2.42-.12-4.73-.25-7.15-.45a19,19,0,0,1-6.24-1.1c-3.28-1.45-6.54-6.23-8.41-9.39Z"/><path class="cls-26" d="M149.39,65.2a5.75,5.75,0,0,0,2.22.65,3.67,3.67,0,0,0,2.08-.18,3.22,3.22,0,0,0,1.26-1,2.33,2.33,0,0,0,0-1.52c-.1-.5-.29-1-.39-1.48,0-.14-.37-.06-.34.09a7.83,7.83,0,0,1,.48,2.53c0,.48-.49.77-.86,1a1.82,1.82,0,0,1-.65.33,4.28,4.28,0,0,1-1.13,0,5.61,5.61,0,0,1-2.44-.64c-.11-.06-.41.1-.26.18Z"/><path class="cls-26" d="M146.67,62.55a.83.83,0,0,0-.78.31,1.65,1.65,0,0,0-.28.84,1.13,1.13,0,0,0,.16.82,1.78,1.78,0,0,0,1,.58,1.8,1.8,0,0,0,.8,0c.32,0,.63-.16.95-.19.06,0,.19,0,.22-.08s0-.05-.07,0a6,6,0,0,1-1.37.2,2.23,2.23,0,0,1-1-.39A1.26,1.26,0,0,1,146,63.2a1.11,1.11,0,0,1,.18-.38.53.53,0,0,1,.12-.14s.06,0,0,0,0,0,0,0a.48.48,0,0,0,.23,0s.12-.06,0-.08Z"/><path class="cls-10" d="M52.29,216.37S67.71,240,80.5,244.65s80.41,0,80.41,0l-3.34-35.55L102,205.9Z"/><path class="cls-9" d="M92.23,92.22S79,94,74.82,104.65,62.6,160.47,61.41,165.21,59,179.37,64.32,183.49c5.85,4.57,26.91,18.28,26.91,18.28l2.93.89c-1.76-5.14-.18-10.29,2-15.29l1.5-4.6-7.81-12S94,141.93,94.6,137.49,92.23,92.22,92.23,92.22Z"/><path class="cls-9" d="M64.72,148.94l28.54-5.84,6.06-8.37L94.67,90.06s-13.91.81-19.07,11.75C70.18,113.29,64.72,148.94,64.72,148.94Z"/><path class="cls-11" d="M189,192.64c6.32-1.49,12.28,4,10.88,10.38,0,.2-.1.4-.15.61-2.12,7.49-17.6,21.39-20.72,23.37s-25.11,9.51-25.11,9.51l-2.29-20.67s22.79-14.33,29-19.26A21.45,21.45,0,0,1,189,192.64Z"/><path class="cls-11" d="M101.56,205.3c1,0,25.3-8.84,34-9.39,6.14-.4,14.31,6,24.42,12.32,12.24,7.7,25.05,15.69,24.86,16-.34.52-9.06,13.17-9.06,13.17l-34.31-17.2-12,1.43C120.35,221.5,101.56,205.3,101.56,205.3Z"/><path class="cls-27" d="M101.78,205.54a11.83,11.83,0,0,0,2.86-.81l6.26-2c5.55-1.8,11.13-3.57,16.79-5a55.82,55.82,0,0,1,7.1-1.44c3.09-.36,6,.66,8.69,2a106.19,106.19,0,0,1,11,6.63q6,3.91,12.14,7.64c3.82,2.31,7.67,4.57,11.53,6.82,1.24.72,2.48,1.44,3.71,2.19a18.51,18.51,0,0,1,1.58,1c0,.33.87.16.91-.12.09-.58-2.9-2-3.27-2.19-3.1-1.82-6.21-3.62-9.3-5.45-4.39-2.6-8.76-5.25-13.05-8-3.77-2.42-7.47-5-11.34-7.21-2.86-1.66-6-3.35-9.3-3.78a19.78,19.78,0,0,0-6.45.59,172.61,172.61,0,0,0-17.14,4.75c-2.8.89-5.58,1.8-8.37,2.72l-2.76.89-.9.28c-.12,0-.49.1-.29.09-.32,0-1,.51-.37.48Z"/><path class="cls-11" d="M197.11,244.86c.82-.78.28-2.14,0-3,0-.09-.07-.17-.1-.25a.79.79,0,0,1,0-.73,4,4,0,0,0-.12-2.82.81.81,0,0,0-.17-.3.79.79,0,0,0-.29-.18,2.3,2.3,0,0,0-.81-.2c-1.08-.08.23-1.19.34-1.62a12.31,12.31,0,0,0-.95-1.65c-1.71-2.47-4.84-3.65-7.87-3.89s-6,.31-9.06.56-6.2.18-8.9-1.19c-1.68-.85-3.1-2.18-4.82-3-2.64-1.2-8-.3-12.47,3.2a33.29,33.29,0,0,1-9.89-3l-2.3,15.28c12.29,1.75,26.65,3,40.39,6.39,1.88.47,7.83,2,9.76,1.95s4.81.88,6.1-.45a2.84,2.84,0,0,0,.08-1.17.29.29,0,0,1,.22-.28,1.29,1.29,0,0,0,.8-.36,2.37,2.37,0,0,0,.35-.89,2.09,2.09,0,0,0,.29-1.24A1.9,1.9,0,0,0,197.11,244.86Z"/><path class="cls-17" d="M108.22,201.8c2.44,1.18,4.94,2.24,7.28,3.61a12.51,12.51,0,0,1,1.74-5.29Z"/><path class="cls-28" d="M93.28,173.94c-2.27-1.54-4.57-3.56-7.26-4.33-2.44-.69-5.74-.79-7.77,1-.31.27.42.25.59.1,1.91-1.68,5.27-1.31,7.47-.44s4.27,2.6,6.28,4c.21.14.88-.16.69-.29Z"/><path class="cls-28" d="M92.84,99.75c6.54,3.61,7,12.33,6.8,19a103.5,103.5,0,0,1-2.5,17.6q-2.73,13.22-5.7,26.36l-2,9.1c-.09.36.67.27.75-.06l4.3-19c1.15-5.07,2.15-10.17,3.21-15.25a112.24,112.24,0,0,0,2.72-18.13c.29-6.92-.1-16.16-7-20-.28-.16-.93.23-.57.43Z"/><path class="cls-11" d="M146.34,125.89a38.48,38.48,0,0,0,.1-8.12c.05-1.08.11-2.33.18-3.84,0-.44,0-.86,0-1.28a3.42,3.42,0,0,1,0-.64c-.08-7.38-2.43-11.28-2.43-11.28A16.18,16.18,0,0,0,130,92.93c-6.8,0-13,4-16.3,8.08a10.6,10.6,0,0,0-2.33,7.18,43.17,43.17,0,0,0,1.12,7.14c-2.37-.16-4.72.64-4,5,1.06,6.06,4.92,8,6.78,6.4.42.08,1.22,1.93,1.29,3.19.14,2.41,0,6.69-1.28,8.78l0,.69c3.2,5.41,11.3,7.41,16.55,6.41a4.93,4.93,0,0,0,3.52-7h0v-1.61a7.05,7.05,0,0,0,2.94-.35C143.93,135.61,146,128.63,146.34,125.89Z"/><path class="cls-27" d="M135.45,137.27a21.51,21.51,0,0,1-12.22-3.58s.66,2,4.77,3.52a16.84,16.84,0,0,0,7.43,1.11Z"/><ellipse class="cls-29" cx="143.65" cy="115.82" rx="1.45" ry="1.44" transform="translate(-5.25 224.8) rotate(-75.08)"/><path class="cls-20" d="M145.39,114.65a4.74,4.74,0,0,0-3-.67c-2.24.14-3.32,2.93-3.32,2.93a5,5,0,0,1,3.45-2.32,8.22,8.22,0,0,1,3.6,1A1.72,1.72,0,0,0,145.39,114.65Z"/><path class="cls-29" d="M110.42,120.69a2.92,2.92,0,0,1,.09-2.37l-.19.11c-.06,0,0,0,0,0l.11,0a2,2,0,0,1,.53.33,9.59,9.59,0,0,1,2,2.79l.31-.17a1.11,1.11,0,0,0-.9-.26.77.77,0,0,0-.53.78c0,.94.8,1.43,1.63,1.53.16,0,.38-.2.13-.23a1.44,1.44,0,0,1-1.39-1.17c0-.17,0-.58.17-.68s.47.12.6.22.39,0,.31-.17a13,13,0,0,0-1.42-2.16,4.62,4.62,0,0,0-1-.87,1.39,1.39,0,0,0-.52-.21c-.22,0-.31.13-.39.31a3.25,3.25,0,0,0,0,2.28c0,.15.41,0,.36-.09Z"/><ellipse class="cls-30" cx="128.62" cy="115.64" rx="1.45" ry="1.44" transform="translate(-16.24 210.14) rotate(-75.08)"/><path class="cls-20" d="M132.66,116.68s-2.11-3-4.58-2.84c-3.48.2-4.11,1.63-4.81,2.73a8.5,8.5,0,0,1,4.87-2.14C130.58,114.35,132.66,116.68,132.66,116.68Z"/><path class="cls-31" d="M136.36,127.1c-2.08,0-5.44-.37-5.44-.37s-.43,5.82,5.34,5.87c4.82.05,5.06-5.51,5.06-5.51S138.44,127.15,136.36,127.1Z"/><path class="cls-32" d="M136.38,127.1c-1,0-4.67-.15-4.67-.15a4.63,4.63,0,0,0,4.35,3.53,4.22,4.22,0,0,0,4.54-3.06Z"/><path class="cls-25" d="M136.41,127.56c-1,0-4-.26-4-.26s1.16.84,4.13.92,3.82-.69,3.82-.69Z"/><path class="cls-31" d="M141.3,127.06c0-.1-.21-.16-.7-.21-.81-.09-1.07-.39-1.67-.45a9,9,0,0,0-2.1.26,9.17,9.17,0,0,0-2.09-.36c-.59,0-2.06.2-2.88.25a7.34,7.34,0,0,1-1.17-.15c-.15,0,.16,1.39,5.69,1.52S141.3,127.21,141.3,127.06Z"/><path class="cls-26" d="M132.53,110.88s-.17-.07-.16-.12a15.94,15.94,0,0,0-5.49-1,5.26,5.26,0,0,0-1.71.55,7.74,7.74,0,0,0-1.72,1.07c-.2.32.9-.11.9-.11a4.8,4.8,0,0,1,.63-.15,12.74,12.74,0,0,1,3.84-.17,18.46,18.46,0,0,1,3.57,1.51C132.46,111.94,132.41,111.42,132.53,110.88Z"/><path class="cls-26" d="M138.81,111.44s.15-.06.15-.11a12.09,12.09,0,0,1,4.83-.61,4.4,4.4,0,0,1,1.46.65,7.06,7.06,0,0,1,1.45,1.18c.16.34-.78-.16-.78-.16a3.93,3.93,0,0,0-.54-.2,10.08,10.08,0,0,0-3.34-.41,14.27,14.27,0,0,0-3.18,1.27C138.82,112.5,138.89,112,138.81,111.44Z"/><path class="cls-20" d="M114.75,120s0-.08,0-.11a5.4,5.4,0,0,0-1.37-2.3,4.69,4.69,0,0,0-1.11-.8,4.54,4.54,0,0,0-1.29-.47,3.53,3.53,0,0,0-1.88,0l-.32.13c-1.55-5.25-2.2-10.86,1.71-17.24,1.13-1.83,4.06-3.84,5-4.48,5.44-3.86,10.26-4.08,16.19-3.43,6.87.77,13.23,5.26,14.73,12.23a12.79,12.79,0,0,1,.51,4.5s-1.27-6.32-4.56-8.34-3.93.88-8.62.92c-5.44,0-7.19-2.94-11.58-.72a11,11,0,0,0-5.23,5.5c-.63,2.36-1.73,3.92-1.1,6.65.15.64.27,1.3.38,2a17.14,17.14,0,0,1,0,3.58,2.32,2.32,0,0,1-.85,1.53C114.72,119.46,115.33,120.17,114.75,120Z"/><path class="cls-29" d="M115.13,119.86a5.09,5.09,0,0,0-6.54-3.65l.55.12c-1.22-4.2-1.71-8.52-.34-12.75a14.17,14.17,0,0,1,3.69-6.21,29.55,29.55,0,0,1,4-3,20.51,20.51,0,0,1,13.22-3,19.59,19.59,0,0,1,11.18,4A15.3,15.3,0,0,1,146.47,108l.77-.13a15.3,15.3,0,0,0-3.53-7.55A5,5,0,0,0,140,98.68c-1.47.13-2.77,1.07-4.2,1.41-2.5.57-5,0-7.37-.74a8.53,8.53,0,0,0-4.74-.36,11.05,11.05,0,0,0-7.1,6.25c-.78,2-1.6,4.27-1.24,6.43a22.93,22.93,0,0,1,.54,5A4,4,0,0,1,115,119c-.06.08-.21.19-.24.31-.11.47-.17.34.17.4-.37-.06-.77.47-.26.55l.2,0a.54.54,0,0,0,.45-.17c.15-.18,0-.31.14-.5.16-.35.49-.61.69-1a6.23,6.23,0,0,0,.5-3.36c-.09-2.28-1-4.49-.37-6.76.86-3.24,2.14-6,5.07-7.88a7.11,7.11,0,0,1,6.24-.91,22.37,22.37,0,0,0,5.18,1.11,11.34,11.34,0,0,0,5.11-.9c1.62-.68,2.82-1,4.4.08,2.46,1.71,3.67,5.26,4.25,8.09.07.33.74.16.76-.14a15.67,15.67,0,0,0-4.73-12.07A18.63,18.63,0,0,0,131.75,91c-4.6-.55-9.28-.41-13.51,1.68-3.71,1.83-7.33,4.58-9.17,8.35-2.43,5-2.21,10.28-.69,15.49.07.23.39.2.55.13,2.24-.94,5,1.22,5.44,3.41C114.44,120.42,115.2,120.23,115.13,119.86Z"/><path class="cls-26" d="M108.76,116.43s-5.63-4.69-1.69-15.51a7.78,7.78,0,0,1,2.22-3.21l.92-.81a11.45,11.45,0,0,1,3.85-5.62c3-2.32,10.47-2.69,13.83-4.7s4.26-3.65,4.26-3.65,1.6,2.62,1.63,4.43c0,0,10.63.79,12.6,15.69,0,0-9.91-12.74-22-8.28S108.76,116.43,108.76,116.43Z"/><path class="cls-26" d="M130.2,86.21s3.1.61,5.91-2.66c0,0,3.1,3.75.75,6.32"/><path class="cls-26" d="M135.86,124a4.31,4.31,0,0,0,1.68.4,4.45,4.45,0,0,0,1.63-.18,1.54,1.54,0,0,0,1.09-1.89c-.2-.56-.47-1.06-.62-1.64,0-.12-.31,0-.28.08a15.41,15.41,0,0,0,.6,1.6,1.21,1.21,0,0,1-.31,1.34,2.15,2.15,0,0,1-1.47.5,4.16,4.16,0,0,1-2.09-.36c-.1,0-.36.09-.23.15Z"/><path class="cls-26" d="M133.48,121.93c-.62-.05-.76.62-.76,1.1a1,1,0,0,0,.2.7,1.36,1.36,0,0,0,.91.44,1.63,1.63,0,0,0,.66,0c.25-.07.48-.2.74-.25,0,0,.16,0,.16-.07s-.08,0-.11,0a3.24,3.24,0,0,0-.53.16,1.21,1.21,0,0,1-.56.13,1.62,1.62,0,0,1-.85-.3,1.25,1.25,0,0,1-.29-1.27,1,1,0,0,1,.12-.34.54.54,0,0,1,.09-.12l0,0s-.09,0,0,0a.36.36,0,0,0,.2-.06s0,0,0,0Z"/><g class="cls-33"><path class="cls-34" d="M224.86,189.2h0a1.08,1.08,0,0,1-.28-.11A1.08,1.08,0,0,0,224.86,189.2Z"/></g><g class="cls-33"><path class="cls-34" d="M190.21,182.84h0Z"/></g><path class="cls-28" d="M172.91,158c.18-11.92,2.85-23.65,3.09-35.56,0-.11-.73,0-.74.2-.24,11.91-2.91,23.64-3.09,35.56,0,.1.74,0,.74-.2Z"/><path class="cls-27" d="M164.16,173.42a4.77,4.77,0,0,0-3.63,2.42c-.08.13.07.26.19.28a.39.39,0,0,0,.4-.2,4,4,0,0,1,3-2c.14,0,.33-.1.34-.26s-.16-.24-.29-.23Z"/><path class="cls-11" d="M206.42,188.51c.75-.38.63-.82.34-1.17a1.83,1.83,0,0,0-1-.55,13.48,13.48,0,0,0-3.12-.45c-2.81-.22-3.45-.26-3.43-.39s1.14-.29,4-.11a15.14,15.14,0,0,0,2.81-.17,2,2,0,0,0,1.34-.5.88.88,0,0,0-.44-1.57c-2.08-.61-7.56-.35-8.05-.29.29-.07,2.44-.52,4-.89s3.61-.81,3.3-1.85-1.37-.85-3.44-.82c-2.34,0-8.22.23-8.22.23.65-.55.91.19,2.46-.83,1.91-1.42,1.15-2.82,1.15-2.82s-7.55,1.13-9.3,2.16c-1.32.78-3.42,1.62-3.74,2.45l-1.62.32c-.76,1.87-.32,4.07-.12,6,.1,1-.85,1.35-.87,2.3a8.41,8.41,0,0,1,3.91.45c1.86,2.37,13.7,1.77,15.43,1.76s2.33-.51,2-1c-.51-.92-4.73-1.08-4.81-1.63S205,189.26,206.42,188.51Z"/><path class="cls-27" d="M192.73,182.61c-.51,1.77-1.48,3.76-3.34,4.44-.07,0-.25.11-.17.21s.32,0,.4,0c2-.74,3.16-2.76,3.72-4.73,0-.19-.56-.1-.61.09Z"/><path class="cls-16" d="M164.14,167.52s-5.21-15.23-7.22-18.71c-3-5.2-10.79-8-10.79-8l5.52,31.11Z"/><path class="cls-35" d="M154.66,170.22q-.66-8.91-.88-17.85c0-.08-.47,0-.47.12q.23,8.94.88,17.86c0,.08.47,0,.47-.13Z"/><path class="cls-36" d="M203.13,198.28c2.29-1.36,4.55-2.86,7-4a12.59,12.59,0,0,1,2.72-1c.46-.09.92-.11,1.38-.2.13,0,.53-.11.54-.29s-.27-.18-.39-.16c-.51.1-1,.13-1.55.24a13.77,13.77,0,0,0-2.78,1,76,76,0,0,0-7.45,4.24c-.54.32.3.37.57.21Z"/><path class="cls-27" d="M188.8,237.71c1.46-.1,2.83.21,4.28.22a3.09,3.09,0,0,0,2-.61c1.5-1.25,1-3.38-.23-4.56-4-4-9.87-3.2-15-2.66-3,.32-6.26.52-9.18-.61-2-.77-4-1.93-5.91-2.88-1.51-.74-2.94-1.56-4.67-1.43a11.33,11.33,0,0,0-4.81,1.78c-.7.42-1.38.87-2,1.35a7.64,7.64,0,0,0-.73.54c.07-.07-.57.52-.22.42a4.71,4.71,0,0,1-1.62-.27,36.29,36.29,0,0,1-8.16-2.74c-.19-.09-.93.21-.66.34a37.81,37.81,0,0,0,6.83,2.44,12.92,12.92,0,0,0,3.07.59,1.31,1.31,0,0,0,.64-.15,10.39,10.39,0,0,0,1.48-1.11c.57-.4,1.14-.79,1.72-1.16,1.79-1.1,3.95-2.17,6.07-1.41,3.65,1.32,6.82,4,10.7,4.67,5.28.91,10.57-1.18,15.84-.29a11.63,11.63,0,0,1,4.11,1.5,6.27,6.27,0,0,1,2.73,2.71,3,3,0,0,1,.09,1.15c-.07,1-.31,1.51-1.32,1.79-1.43.39-3.17-.09-4.7,0-.24,0-.87.41-.34.37Z"/><path class="cls-27" d="M190.62,241c1-.13,2,.46,3,.63a4.91,4.91,0,0,0,3-.29c.12-.07.32-.21.2-.37s-.41-.1-.54,0a4.06,4.06,0,0,1-2.75.08,7.43,7.43,0,0,0-2.82-.53c-.16,0-.44.11-.46.3s.22.24.36.22Z"/><path class="cls-27" d="M191.26,244.75a22.37,22.37,0,0,0,3.54.69,5.1,5.1,0,0,0,3-.75c.14-.09.09-.19-.06-.21a1,1,0,0,0-.57.16c-1.54,1-3.66.11-5.28-.22a.87.87,0,0,0-.57.09c-.07,0-.28.2-.09.24Z"/><path class="cls-27" d="M191.94,247.53a5.68,5.68,0,0,0,5.21.71c.1-.05.25-.12.11-.19s-.45.06-.56.11a3.25,3.25,0,0,1-2,0,6.5,6.5,0,0,1-2-.85c-.13-.08-.39,0-.52.06s-.35.13-.25.2Z"/><path class="cls-27" d="M203.07,233.21a1.16,1.16,0,0,0-.16-1.7A3.08,3.08,0,0,0,201,231c-.39,0-.79,0-1.19,0a.12.12,0,0,0,0,.23,8,8,0,0,1,2.34.17,1.38,1.38,0,0,1,.87.62.85.85,0,0,1-.1,1.07c-.11.09.05.25.16.16Z"/><path class="cls-27" d="M206,232c.82-.36.4-1.45,0-2a1.88,1.88,0,0,0-1-.74,5.15,5.15,0,0,0-1.79-.13,4.69,4.69,0,0,0-1.83.17c-.13.06,0,.25.12.19a5.15,5.15,0,0,1,1.8-.14,3.52,3.52,0,0,1,2,.29c.55.33,1.38,1.78.52,2.16-.14.06,0,.26.11.2Z"/><path class="cls-27" d="M207.84,230.45a1.46,1.46,0,0,0,.24-1.61,2,2,0,0,0-1.1-1.05,4.77,4.77,0,0,0-1.71-.33,8.24,8.24,0,0,0-1.85.13c-.15,0-.08.24.06.22a7.69,7.69,0,0,1,1.59-.12,5.09,5.09,0,0,1,1.55.21,2,2,0,0,1,1.14.81,1.29,1.29,0,0,1-.08,1.58c-.11.1,0,.26.16.16Z"/><path class="cls-27" d="M209.78,229.18a2.09,2.09,0,0,0,0-2.92,4.65,4.65,0,0,0-2.94-.5c-.26,0-.53.05-.8.06a2.31,2.31,0,0,0-.94.14c-.13.06,0,.25.11.19a3.3,3.3,0,0,1,1-.12L207,226a7.61,7.61,0,0,1,1.78.1A1.57,1.57,0,0,1,210,227a2,2,0,0,1-.39,2c-.1.1.06.26.16.16Z"/><path class="cls-11" d="M100.8,184.62s11.71-2.53,13.15-4,5.53-3.3,6.53-3.18.17.07-.43,2-4.7,4.25-4.26,5.33,12.13,4.85,14.5,5.59,8.77,3.24,7.33,6.5c0,0,2.87,1.69,2.35,3.14a5,5,0,0,1-1,1.87s-.72,2.75-2.9,2.39a14.78,14.78,0,0,1-3.54-1,1.74,1.74,0,0,1-1.1,2.59c-2.11.85-11.61-.82-11.61-.82s-5.53,1.56-9.06.41-12.53-8.4-12.53-8.4Z"/><path class="cls-27" d="M123.32,191a20.56,20.56,0,0,0,2.31.77,57.22,57.22,0,0,1,5.5,2c2.12.91,4,1.86,5.33,2.59a18.84,18.84,0,0,0,2.18,1.14,2.75,2.75,0,0,0-.53-.42c-.36-.24-.88-.58-1.54-1a45.08,45.08,0,0,0-5.31-2.7,43.21,43.21,0,0,0-5.57-1.95c-.72-.2-1.31-.34-1.72-.41A1.76,1.76,0,0,0,123.32,191Z"/><path class="cls-27" d="M120.13,193.88c.11-.38,2,1,10,4.19,5.55,2.21,8.89,3.86,8.92,3.76s-3.25-1.92-8.81-4.14S120.16,193.77,120.13,193.88Z"/><path class="cls-27" d="M121.35,199a10.3,10.3,0,0,0,1.83.71c1.13.39,2.7.94,4.41,1.6.8.3,2.32.9,4.37,1.74a11.26,11.26,0,0,0,1.83.69,9.07,9.07,0,0,0-1.73-.95c-1.1-.53-2.63-1.2-4.35-1.86s-3.31-1.17-4.46-1.5A9.17,9.17,0,0,0,121.35,199Z"/><path class="cls-27" d="M102.28,186.75v.12a.14.14,0,0,0,0,.11.16.16,0,0,0,.07.09.21.21,0,0,0,.12.05.39.39,0,0,0,.15,0l.1,0a.66.66,0,0,0,.19-.09L103,187a.47.47,0,0,0,.06-.15v-.12a.14.14,0,0,0,0-.11.16.16,0,0,0-.07-.09.21.21,0,0,0-.13-.05.32.32,0,0,0-.14,0l-.11,0-.18.09-.07.06a.32.32,0,0,0-.06.15Z"/><path class="cls-27" d="M87.9,201.3l8.64-.47c1.49-.08,3-.07,4.5-.24a2.17,2.17,0,0,1,.36,0c.28,0-.33-.15-.09,0,.66.36,1.28.81,1.92,1.2a49.33,49.33,0,0,0,6.41,3.43,13.48,13.48,0,0,0,7.17.77c.9-.12,1.8-.28,2.69-.49.23-.05.48-.15.72-.18-.19,0-.11,0,.14.05a49.31,49.31,0,0,0,5,.71c2,.23,4.21.62,6.15.16,1.46-.35,2.57-1.69,1.76-3.15l-.57.45a9,9,0,0,0,4.54,1,3.49,3.49,0,0,0,2.39-2.33c.34-.73,1.27-1.84,1.11-2.87-.17-1.19-1.53-2.15-2.48-2.72-.3-.19-1,.23-.59.46a4.9,4.9,0,0,1,2.21,2.13c.35,1-.51,1.83-.91,2.64s-.74,2-1.93,2.13a8.32,8.32,0,0,1-3.9-1c-.26-.11-.75.13-.58.45,1.19,2.14-2,2.38-3.29,2.35a52.32,52.32,0,0,1-6-.6,18.45,18.45,0,0,0-3-.46,9.5,9.5,0,0,0-1.28.3,23,23,0,0,1-3.4.49c-4.84.34-9-2.47-13-4.95A2.2,2.2,0,0,0,101,200l-4,.22-9,.48c-.44,0-.58.62-.06.6Z"/><path class="cls-10" d="M90.41,189.77s-31.72-17.31-41-3.94-1,26.79,2.9,30.54c7.86,7.56,35.48,19.48,52.06,24.43s37.52,6.94,37.52,6.94l11.57-22.59S100.3,198.2,90.41,189.77Z"/><path class="cls-36" d="M127.63,245.19a147.12,147.12,0,0,1-26.94-6,198.92,198.92,0,0,1-23.34-8.49c-2.09-.94-4.6-1.87-6.31-3.45-.31-.3-1.13.18-.73.55a20.08,20.08,0,0,0,5.2,3c3.29,1.54,6.66,2.88,10.06,4.15a227.62,227.62,0,0,0,26.89,8.3,118.71,118.71,0,0,0,14.84,2.7c.47.05,1-.63.33-.7Z"/><path class="cls-11" d="M133.79,176.15l-24.07,2.12-.89-19.84L108.1,156c-2.23-7.57-13.32-6.26-13.74,1.63,0,.11,0,.22,0,.33-.26,7-.24,15.4-.1,18.59s.45,10,2.88,12.18,6.82,3.43,11.13,2.73a106.17,106.17,0,0,0,11.34-2.73l13.66-5.33Z"/><path class="cls-27" d="M99.38,190.67a12.65,12.65,0,0,0,6,1.26,35.17,35.17,0,0,0,6.83-1.13C115.59,190,119,189,122.28,188c.46-.15,0-.2-.23-.12-2.88.9-5.8,1.73-8.73,2.46a41.23,41.23,0,0,1-6.87,1.31,12.51,12.51,0,0,1-6.43-1.19c-.17-.08-.69.2-.64.22Z"/><path class="cls-16" d="M93.34,175l18.53-1.59-4.21-33.29a19.29,19.29,0,0,0-11.13,9.39C92.08,158.34,93.34,175,93.34,175Z"/><path class="cls-35" d="M109.66,173.68l2.25,0c.08,0,.38,0,.38-.16a89.83,89.83,0,0,0-.28-14.58c-.46-3.9-.91-7.6-3.23-10.9-.08-.12-.5.07-.47.12,2.32,3.3,2.77,7,3.23,10.9a90,90,0,0,1,.28,14.59l.39-.16-2.24,0c-.1,0-.53.2-.31.19Z"/><path class="cls-27" d="M105.43,182.74c1-1.68,2.08-3.63,4.07-4.21.13,0,.32-.15.28-.31s-.28-.17-.4-.13c-2.25.64-3.51,2.67-4.6,4.58-.09.15.07.26.2.28a.47.47,0,0,0,.45-.21Z"/><path class="cls-37" d="M257.68,139.68,246.6,200c-.32,1.74-2,4.11-3.68,3.8l-.2-.05-44-9.91,12.4-65.16,43.55,6.84a3.49,3.49,0,0,1,3.07,3.87C257.71,139.5,257.7,139.59,257.68,139.68Z"/><path class="cls-15" d="M215,129.69l-4.27,22-6.77,34.94-1.56,8c0,.08.27,0,.29,0l4.26-22,6.77-34.94,1.56-8c0-.08-.27,0-.28,0Z"/><path class="cls-28" d="M204.83,155.4a3.42,3.42,0,0,0-2.09.72,17.57,17.57,0,0,0-1.66,1.21,6.54,6.54,0,0,0-2.25,3.2c-.09.35.67.26.75-.06a5.65,5.65,0,0,1,1.93-2.76,15.17,15.17,0,0,1,1.36-1,3,3,0,0,1,1.7-.75.51.51,0,0,0,.48-.23c.08-.16-.06-.29-.22-.3Z"/><g class="cls-38"><path class="cls-39" d="M254.12,141.83l-10,54.36c-.29,1.57-1.77,3.7-3.31,3.42l-.18,0L201,191.73l11.17-59.79,39.23,6.17a3.14,3.14,0,0,1,2.77,3.48A2,2,0,0,1,254.12,141.83Z"/><path class="cls-40" d="M256.73,206l2.89-15.83c-5.79-2.76-20-8.24-31.44-10.26-13.16-2.31-24.77-2.49-34-1L191.44,194Z"/><path class="cls-41" d="M236.38,190.13c-.27,1.46-5.7,1.7-12.12.52s-11.43-3.32-11.16-4.78,5.7-1.7,12.13-.52S236.65,188.67,236.38,190.13Z"/><path class="cls-42" d="M217,182.9c.28,1.37-.27,3.09.84,4.17a5.36,5.36,0,0,0,2,1.24,3.75,3.75,0,0,0,2.1,0c1-.42,1.29-2.82,1.46-3.78.26-1.39.16-3.52-1-4.47-.92-.73-2-.65-3.11-.94-.74-.21-2.15-2.11-2.39-1A14,14,0,0,0,217,182.9Z"/><path class="cls-42" d="M233,185.84c-.75,1.17-.85,3-2.27,3.6a5.4,5.4,0,0,1-2.33.44,3.83,3.83,0,0,1-2-.76c-.79-.75-.21-3.11,0-4.06.26-1.39,1.1-3.35,2.56-3.81,1.12-.36,2.14.12,3.25.22.76.07,2.75-1.21,2.6-.12A14.43,14.43,0,0,1,233,185.84Z"/><path class="cls-42" d="M230.34,183.13a.74.74,0,0,1-.78-.59.76.76,0,0,1,.58-.9,2.66,2.66,0,0,0,.54-.35,4.8,4.8,0,0,1,.83-.52,11.53,11.53,0,0,1,3.48-.85,12,12,0,0,1,3,.14l1.11.14c1.4.13,3.1-.18,3.51-1.2a2.16,2.16,0,0,0-.25-2.08.75.75,0,1,1,1.12-1,3.62,3.62,0,0,1,.52,3.65c-.75,1.85-3.19,2.3-5,2.12l-1.17-.14a10.3,10.3,0,0,0-2.67-.13,9.7,9.7,0,0,0-3,.72,3.87,3.87,0,0,0-.54.36,3.23,3.23,0,0,1-1.13.62Z"/><path class="cls-42" d="M222,168.75c2.6-1.48,8.61-.44,10.85,1.79,2.46,2.46,3.1,11.36.78,13.68s-15.79.14-16.68-3.06C215.93,177.63,219,170.43,222,168.75Z"/><path class="cls-42" d="M220.67,174a11.47,11.47,0,0,1-9-9.66c-.27-2,2.53-2.5,3.06-.14.8,3.47,3.38,4.28,6.65,4.87,2,.36,1.2,5.28-.75,4.93Z"/><path class="cls-42" d="M232,175.58a11.46,11.46,0,0,0,12.52-4.1c1.18-1.59-1-3.41-2.61-1.61-2.38,2.65-5,2.11-8.18,1-1.87-.64-3.6,4-1.73,4.66Z"/><path class="cls-43" d="M224,168.62c1.76-1.22,5.73-.54,7.17,1.17,1.57,1.88,1.79,8.88.19,10.76s-10.49.48-11-2C219.76,175.77,222,170,224,168.62Z"/><path class="cls-42" d="M225.18,152.55c-.25,1.36-2.6,2.85-4,2.61s-2.14-3.06-1.89-4.42.54-1.7,1.9-1.45S225.43,151.19,225.18,152.55Z"/><path class="cls-43" d="M224.91,153.44a3,3,0,0,1-2.86,1.88c-1-.18-1.54-2.21-1.36-3.18s.39-1.24,1.37-1.06S225.09,152.46,224.91,153.44Z"/><path class="cls-42" d="M235.39,154.42c-.24,1.36,1.43,3.59,2.79,3.84s3.08-2.1,3.33-3.46.1-1.79-1.26-2S235.64,153.06,235.39,154.42Z"/><path class="cls-43" d="M235.33,155.34a3,3,0,0,0,2,2.77c1,.18,2.22-1.51,2.4-2.49s.07-1.29-.91-1.47S235.51,154.36,235.33,155.34Z"/><path class="cls-42" d="M223.6,151.74c3.14-1.64,10.45-.37,13.19,2.21,3,2.83,3.91,13,1.13,15.59s-19.14,0-20.27-3.72C216.42,161.79,220,153.63,223.6,151.74Z"/><path class="cls-43" d="M232.29,166.23c-.39,2.1-2.31,2.16-4.58,1.75s-4.05-1.16-3.66-3.25,2.7-4.37,5-3.95S232.67,164.14,232.29,166.23Z"/><path class="cls-42" d="M229.17,160c.71.13,1.27,2.7,1.07,2.84a11.58,11.58,0,0,1-3.34-.56S228.46,159.87,229.17,160Z"/><path class="cls-14" d="M225.79,159.91c-.17.91-.86,1.55-1.56,1.42a1.53,1.53,0,0,1-.95-1.88c.17-.91.87-1.54,1.56-1.42A1.53,1.53,0,0,1,225.79,159.91Z"/><path d="M224.6,159.33a1.11,1.11,0,0,0-1.35.66,1.21,1.21,0,0,0,2.38.43A1.13,1.13,0,0,0,224.6,159.33Z"/><path d="M227,162.64c-.27-.44,0-.7.65-.58l2.05.37c.63.12.81.47.39.78a8.41,8.41,0,0,1-1.74,1C228.08,164.16,227,162.64,227,162.64Z"/><path class="cls-44" d="M225.36,157.24a1.47,1.47,0,0,0-1.49.06,1.28,1.28,0,0,0-.47.56s0,.08,0,.1a.65.65,0,0,0,.19,0,.41.41,0,0,0,.33-.2,1.37,1.37,0,0,1,.13-.2s0,0,.05-.05,0,0,0,0l0,0,.08-.08,0,0,0,0,0,0s.07,0,0,0l0,0s0,0,0,0-.07,0,0,0h0s0,0,0,0h.26l.07,0h0s0,0,0,0l.11,0a.39.39,0,0,1,.11.06.41.41,0,0,0,.19,0,.52.52,0,0,0,.22-.07c.08-.05.17-.15.06-.22Z"/><path class="cls-14" d="M235,161.6c-.17.91-.87,1.55-1.56,1.42a1.52,1.52,0,0,1-1-1.88c.17-.91.86-1.54,1.55-1.42A1.52,1.52,0,0,1,235,161.6Z"/><path d="M233.83,161a1.13,1.13,0,0,0-1.35.67,1.21,1.21,0,0,0,2.37.43A1.13,1.13,0,0,0,233.83,161Z"/><path class="cls-44" d="M233.91,159.29h.22s.11,0,0,0l.15,0h0l.08,0,.08,0,0,0c.05,0,0,0,0,0a.7.7,0,0,1,.14.16l0,0,0,0s0,0,0,0a.5.5,0,0,1,.05.13,1.08,1.08,0,0,1,.07.31s.07.08.11.09a.41.41,0,0,0,.22,0c.11,0,.26-.1.24-.24a1.07,1.07,0,0,0-.5-.86,1.33,1.33,0,0,0-.73-.17H234c-.12,0-.3.07-.33.21s.17.16.26.14Z"/><path class="cls-43" d="M225,166.82l1.07,1.81.18-.51a11.72,11.72,0,0,0,1.26,1.28,1.5,1.5,0,0,1,.24-.71,2.36,2.36,0,0,0,.21.52.19.19,0,0,0,.13.12c.05,0,.09,0,.13-.07l.61-.58c-.07.18-.09.46.1.5s.21-.08.29-.17a3.41,3.41,0,0,1,1-.75c.09,0,.2-.1.22-.2s-.21-.27-.4-.29a5.58,5.58,0,0,1-2-.59"/><path class="cls-43" d="M220.32,178.5a4,4,0,0,0,1.17,2.23l0-.34,1.12,1,0-.52a12,12,0,0,0,1.73,1.3c0-.21.07-.51.28-.47a.27.27,0,0,1,.16.08l.36.28a.65.65,0,0,0,.32.16.59.59,0,0,0,.32-.09l1-.45-.07.55a8.07,8.07,0,0,0,1.6-.37l-.07.48a5.68,5.68,0,0,0,1.41-.61l-.09.67a7.27,7.27,0,0,0,1.76-1.65c.21-.27.41-.65.24-1a1,1,0,0,0-.73-.35,13.36,13.36,0,0,0-2-.15"/><path class="cls-43" d="M221.8,188.66a6.92,6.92,0,0,1-3.76-.93,1,1,0,0,1-.34-.24.76.76,0,0,1,.26-1.07,2.29,2.29,0,0,1,1.22-.25,5.78,5.78,0,0,1,2,.24,1.91,1.91,0,0,1,1.27,1.49S222.74,188.57,221.8,188.66Z"/><path class="cls-43" d="M230.16,190.33a6.8,6.8,0,0,1-3.76-.94.82.82,0,0,1-.35-.23.76.76,0,0,1,.26-1.07,2.29,2.29,0,0,1,1.22-.25,5.53,5.53,0,0,1,2,.24,1.87,1.87,0,0,1,1.27,1.49S231.09,190.24,230.16,190.33Z"/><path d="M225.74,155.57s2.82.18,3.95,1.89a5.51,5.51,0,0,1,4.22-.37s-1-1.52-4-.62C229.91,156.47,228,154.44,225.74,155.57Z"/><path d="M225.22,153.77s3.45-.06,4.82,2a5.88,5.88,0,0,1,4.83-.45s-.94-1.78-4.58-.71A4.67,4.67,0,0,0,225.22,153.77Z"/><path d="M225.55,152s3.45-.07,4.82,2a5.88,5.88,0,0,1,4.83-.45s-.94-1.78-4.58-.71A4.65,4.65,0,0,0,225.55,152Z"/><path d="M218.76,158.1s.92,3.12,3,4.37c0,0-2.75-.32-3.69-2.42A4.36,4.36,0,0,1,218.76,158.1Z"/><path d="M217.42,162.89A7.56,7.56,0,0,0,222,164.2s-2.55,1.33-4.56.21A7.12,7.12,0,0,1,217.42,162.89Z"/><path d="M239.54,161.94s-1.85,2.55-4.23,3c0,0,2.68.67,4.31-1A5,5,0,0,0,239.54,161.94Z"/><path d="M239.26,166.87a7.6,7.6,0,0,1-4.73-.39s2,2.14,4.24,1.81A11.35,11.35,0,0,0,239.26,166.87Z"/><polygon class="cls-14" points="225.25 159.29 224.62 160.25 225.65 159.65 225.25 159.29"/><polygon class="cls-14" points="234.42 161.09 233.79 162.06 234.83 161.46 234.42 161.09"/><path d="M219.52,152.91a9.3,9.3,0,0,1,.73-2.8,7.17,7.17,0,0,1,2.64-.18,3.89,3.89,0,0,0-3.08-.72S218.53,150.46,219.52,152.91Z"/><path d="M240.58,156.69a9.26,9.26,0,0,0,.31-2.88,7.16,7.16,0,0,0-2.41-1.09s1.13-.54,3.14.41C241.62,153.13,242.37,154.76,240.58,156.69Z"/><path class="cls-44" d="M223.2,159.21l-.84-.2a.37.37,0,0,0-.18,0,.71.71,0,0,0-.22.07.27.27,0,0,0-.12.09s0,.06,0,.07l.84.2h.18a.71.71,0,0,0,.22-.07.27.27,0,0,0,.12-.09s0-.06-.05-.07Z"/><path class="cls-44" d="M236.46,161.62l-.84-.21a.61.61,0,0,0-.19,0,.94.94,0,0,0-.22.07c-.05,0-.2.12-.07.15l.84.2a.53.53,0,0,0,.18,0,.52.52,0,0,0,.22-.07c.05,0,.2-.11.08-.14Z"/><path d="M219.88,168.73a5,5,0,0,0-1.67,1.9s-.55-.71.22-2.35Z"/><path d="M218,168.06a5,5,0,0,0-2,1.49s-.38-.81.72-2.24Z"/><path d="M216.3,166.91a5,5,0,0,0-2.43.72s-.08-.88,1.43-1.87Z"/><circle class="cls-43" cx="213.21" cy="164.65" r="0.8"/><circle class="cls-43" cx="212.2" cy="163.83" r="0.34"/><circle class="cls-43" cx="212.99" cy="163.28" r="0.34"/><circle class="cls-43" cx="213.91" cy="163.51" r="0.34"/><path d="M235,171.34a5,5,0,0,1,.58,2.46s.81-.37.91-2.17Z"/><path d="M237.07,171.73a5,5,0,0,1,1.09,2.28s.71-.53.42-2.32Z"/><path d="M239.07,171.63a5,5,0,0,1,1.79,1.78s.5-.74-.37-2.33Z"/><circle class="cls-43" cx="242.86" cy="171.1" r="0.8"/><circle class="cls-43" cx="244.14" cy="170.86" r="0.34"/><circle class="cls-43" cx="243.7" cy="170" r="0.34"/><circle class="cls-43" cx="242.78" cy="169.76" r="0.34"/><path d="M216.68,180.52a6.66,6.66,0,0,0,2.46-1,6.29,6.29,0,0,1-2.52,0A7.54,7.54,0,0,0,216.68,180.52Z"/><path d="M217.09,185.42a6.66,6.66,0,0,0,2.46-1,6.34,6.34,0,0,1-2.53,0C217,184.79,217.05,185.11,217.09,185.42Z"/><path d="M231.85,188.3a6.65,6.65,0,0,1-1.95-1.79,6.23,6.23,0,0,0,2.36.91A9,9,0,0,1,231.85,188.3Z"/><path d="M217.71,174.67a6.74,6.74,0,0,0,2.63.28,6.2,6.2,0,0,1-2.24-1.17A8.6,8.6,0,0,0,217.71,174.67Z"/><path d="M217,177.46a6.65,6.65,0,0,0,2.64-.18,6.22,6.22,0,0,1-2.41-.77A6.89,6.89,0,0,0,217,177.46Z"/><path d="M234.13,183.61a6.65,6.65,0,0,1-1.95-1.79,6.4,6.4,0,0,0,2.36.91C234.41,183,234.28,183.33,234.13,183.61Z"/><path d="M235.25,177.77a6.72,6.72,0,0,1-2.56-.66,6.3,6.3,0,0,0,2.5-.31A8.14,8.14,0,0,1,235.25,177.77Z"/><path d="M235,180.64a6.52,6.52,0,0,1-2.4-1.1,6.24,6.24,0,0,0,2.52.14A9.32,9.32,0,0,1,235,180.64Z"/><g class="cls-45"><rect x="236.3" y="179.28" width="1.82" height="2.56" transform="translate(12.62 -15.48) rotate(3.84)"/><rect x="239.57" y="179.49" width="1.82" height="2.56" transform="translate(-19.47 29.32) rotate(-6.71)"/><rect x="242.29" y="178" width="1.82" height="2.56" transform="translate(-32.01 303.98) rotate(-60.77)"/><rect x="242.13" y="174.91" width="1.82" height="2.56" transform="translate(158.71 464.29) rotate(-109.63)"/></g><path class="cls-46" d="M226.47,165.37a1.85,1.85,0,0,0,1.39,1.77,1.88,1.88,0,0,0,2-1.06s-1.57-.27-1.64-.82A2,2,0,0,1,226.47,165.37Z"/><path d="M228.09,165.19l0,0,0,0s-.09,0,0,0l-.17.08-.06,0-.12,0h-.07s0,0,0,0l-.14,0h-.22a1.11,1.11,0,0,1-.54-.27,2.2,2.2,0,0,1-.57-.9c-.06-.16-.49,0-.43.11a1.82,1.82,0,0,0,1.2,1.28,1.93,1.93,0,0,0,1.25-.17,2.2,2.2,0,0,0,.26-.15c.07,0,.13-.12,0-.18a.35.35,0,0,0-.31,0Z"/><path d="M230.76,165.18a1.36,1.36,0,0,1-2.33,0l0,.07.21-1.17c0-.2-.4-.15-.44,0l-.14.78c0,.16-.12.37,0,.51a1.71,1.71,0,0,0,1.46.74,2.47,2.47,0,0,0,1.6-.84.12.12,0,0,0-.06-.2.3.3,0,0,0-.3.08Z"/></g><path class="cls-47" d="M219.24,138.29a1.66,1.66,0,0,0,1.95,1.66,7.63,7.63,0,0,0,2-.81c1.24-.43,1.63.19,2.35,1,.51.57,1.09,1.1,1.9.85s1-.93,1.75-.78,1.24.83,1.79,1.17a2,2,0,0,0,2.19.1c.64-.29,1-.46,1.51.05.22.2.36.5.56.72a2.27,2.27,0,0,0,1.32.77,2.34,2.34,0,0,0,1.45-.24c.77-.42,1.27-1.39,2.24-.76s1.14,1.65,2,2.15c1.32.76,2.3-.89,3.49-.42,1,.38,1.28,1.89,2.55,1.43.38-.13.26-.6-.12-.47-.7.25-1.43-1.07-2-1.38a1.61,1.61,0,0,0-1-.21c-1,.14-1.58,1.19-2.62.53a6.2,6.2,0,0,1-1.22-1.38c-.54-.65-1.19-1.26-2.09-1-1.11.31-1.57,1.79-2.94,1-.69-.41-1-1.25-1.7-1.6a1.26,1.26,0,0,0-1.12,0c-.52.23-.78.75-1.52.6a2.89,2.89,0,0,1-1.05-.65c-.76-.56-1.63-1.28-2.62-.81-.22.1-.38.34-.59.44-1,.45-1.15.11-1.66-.47a5.18,5.18,0,0,0-1.16-1.13,1.61,1.61,0,0,0-1.23-.2,4.18,4.18,0,0,0-1.07.5c-.78.39-2.77,1.22-2.71-.68,0-.35-.63-.27-.64,0Z"/><path class="cls-47" d="M226.23,144.54a2.28,2.28,0,0,0,2.6,1.56,8.66,8.66,0,0,1,2-.49c.68,0,1,.75,1.49,1.14,1,.81,1.82.05,2.72-.41,1.14-.58,1.54,1.23,2.54,1.47.27.06.75-.33.37-.42-.93-.22-1.1-1.5-2.12-1.64a2,2,0,0,0-1.26.34c-.52.31-1.05.82-1.65.39-.44-.3-.69-.81-1.15-1.09a1.89,1.89,0,0,0-1.36-.19,11.42,11.42,0,0,1-1.89.49,1.82,1.82,0,0,1-1.7-1.32c-.08-.28-.72-.11-.63.17Z"/><path class="cls-11" d="M146.45,176.82l.93-.14c-.64-.93-1.11-1.78-1.76-2.7-1.4,0-2.58-.17-2.81-.12-.42.08-7.72,2.27-13.1,2.48s-13.36,1.14-13.36,1.14A12.55,12.55,0,0,0,107.1,185c5.56-.4,21.25-2.73,22.74-2,1,.51,2.17,2,3.25,2.89a3.32,3.32,0,0,0,1.35.81c1.43.33,6.4-.14,6.4-.14-.61,1.33,1.32,2.23,1.32,2.23,1.87-1,5.24-.41,5.9-1.27a4.78,4.78,0,0,0,.6-2.5,2.21,2.21,0,0,1,.59-.2c1.24-.24,1.3-2.21,1.05-2.5a3,3,0,0,0-.65-.53s.6-.38.82-.5a1.62,1.62,0,0,0,.25-2.15A44,44,0,0,0,146.45,176.82Z"/><path class="cls-11" d="M157.64,177.44l-7.24-3.05c-1.2-.12-4.39-.44-5.85-.44.47,1,.91,2.05,1.37,3.09l2.89,0s.45,0,.45,0c1.89.8,5.45,2.24,7.21,1.85S157.64,177.44,157.64,177.44Z"/><path class="cls-27" d="M156.25,179a4.17,4.17,0,0,0,.89-.28,2.17,2.17,0,0,0,.79-.55.56.56,0,0,0,.08-.69,1.54,1.54,0,0,0-.79-.5c-.36-.13-.72-.21-1.07-.35a.62.62,0,0,0-.4,0s-.27.12-.18.16c.27.11.56.19.84.28a2.44,2.44,0,0,1,.85.39.54.54,0,0,1,.18.62,1.17,1.17,0,0,1-.53.48l0,0h0l-.11,0-.1,0,0,0-.11,0h0l0,0h0c-.06,0,.06,0,0,0l-.07,0a1,1,0,0,0-.24.07s-.12,0-.13.09.21.05.25,0Z"/><path class="cls-27" d="M140.93,186.83a6,6,0,0,1,2.35-.55,3.43,3.43,0,0,1,1.15.2,4.35,4.35,0,0,0,1.12.32c.27,0,.26-.4,0-.42a6.37,6.37,0,0,1-1.2-.36,3.68,3.68,0,0,0-1.23-.15,6.43,6.43,0,0,0-2.4.6c-.25.1,0,.46.21.36Z"/><path class="cls-27" d="M148.63,185a2.24,2.24,0,0,0-.65-1.32,6.26,6.26,0,0,0-1.23-.85,9.91,9.91,0,0,0-2.17-1c-.25-.09-.36.32-.11.4a9.87,9.87,0,0,1,2,.88c.74.46,1.66.91,1.78,1.88,0,.27.45.27.42,0Z"/><path class="cls-27" d="M150,181.55a2.89,2.89,0,0,0-.42-.35c-.27-.21-.54-.41-.82-.6a19.48,19.48,0,0,0-2.07-1.31,3.29,3.29,0,0,0-.91-.37c-.26,0-.37.36-.11.41a2.25,2.25,0,0,1,.72.28,9.75,9.75,0,0,1,1,.57c.64.4,1.27.84,1.88,1.3a3.09,3.09,0,0,1,.45.36c.18.21.47-.09.29-.29Z"/><path class="cls-11" d="M265.92,154.6h0a1.74,1.74,0,0,1-2.66.33l-2.59-2.42a2.36,2.36,0,0,1-.22-3h0a1.76,1.76,0,0,1,2.67-.33l2.58,2.43A2.34,2.34,0,0,1,265.92,154.6Z"/><path class="cls-11" d="M265.32,157.6h0A1.82,1.82,0,0,1,263,159l-3.57-1.35a2.3,2.3,0,0,1-1.24-2.74h0a1.81,1.81,0,0,1,2.36-1.36l3.58,1.36A2.28,2.28,0,0,1,265.32,157.6Z"/><path class="cls-11" d="M266.2,149.52h0a1.73,1.73,0,0,1-2.5.57L262,148.53a2.16,2.16,0,0,1,.07-2.81h0a1.73,1.73,0,0,1,2.49-.58l1.7,1.57A2.19,2.19,0,0,1,266.2,149.52Z"/><path class="cls-11" d="M263.1,161.25h0c-.25,1.14-1.11,1.86-1.91,1.6l-2-.66a2.15,2.15,0,0,1-1-2.55h0c.25-1.14,1.11-1.86,1.91-1.6l2,.66A2.15,2.15,0,0,1,263.1,161.25Z"/></g></g></g></svg>