<?xml version="1.0" encoding="UTF-8"?>
<svg xmlns="http://www.w3.org/2000/svg" xmlns:xlink="http://www.w3.org/1999/xlink" viewBox="0 0 292.89 301.99">
  <defs>
    <style>
      .cls-1 {
        fill: none;
      }

      .cls-2 {
        fill: #192a19;
      }

      .cls-3 {
        fill: #070707;
      }

      .cls-4 {
        fill: #092735;
      }

      .cls-5 {
        fill: #825739;
      }

      .cls-6 {
        fill: #1e4823;
      }

      .cls-7 {
        fill: #010101;
      }

      .cls-8 {
        fill: #ddad6f;
      }

      .cls-9 {
        fill: #af4127;
      }

      .cls-10 {
        fill: #c69e81;
      }

      .cls-11 {
        fill: url(#linear-gradient-2);
      }

      .cls-12 {
        fill: #638e9f;
      }

      .cls-13 {
        fill: #231f20;
      }

      .cls-14 {
        fill: #1e1811;
      }

      .cls-15 {
        fill: #527569;
      }

      .cls-16 {
        fill: #27153c;
      }

      .cls-17 {
        fill: url(#linear-gradient);
      }

      .cls-18 {
        fill: #f1eef7;
      }

      .cls-19 {
        fill: #171413;
      }

      .cls-20 {
        fill: #3c2517;
      }

      .cls-21 {
        fill: #906244;
      }

      .cls-22, .cls-23 {
        isolation: isolate;
      }

      .cls-24 {
        fill: #e89124;
      }

      .cls-25 {
        fill: #060606;
      }

      .cls-26 {
        fill: #0a2f44;
      }

      .cls-27 {
        fill: #28343a;
      }

      .cls-28 {
        clip-path: url(#clippath-1);
      }

      .cls-29 {
        clip-path: url(#clippath-2);
      }

      .cls-30 {
        fill: #d3eef4;
      }

      .cls-31 {
        fill: #020202;
      }

      .cls-32 {
        fill: #fff;
      }

      .cls-33 {
        fill: #725547;
      }

      .cls-34, .cls-23 {
        fill: #88b546;
      }

      .cls-35 {
        fill: #3e4040;
      }

      .cls-36 {
        fill: #e0e1e0;
      }

      .cls-37 {
        fill: #9c5a25;
      }

      .cls-38 {
        fill: #fbf1d4;
      }

      .cls-39 {
        fill: #4f2f26;
      }

      .cls-40 {
        fill: #24582c;
      }

      .cls-41 {
        fill: #14162a;
      }

      .cls-42 {
        fill: #311811;
      }

      .cls-43 {
        fill: #5b6a7d;
      }

      .cls-44 {
        fill: #b1742f;
      }

      .cls-23 {
        mix-blend-mode: multiply;
        opacity: .5;
      }

      .cls-45 {
        fill: #161412;
      }

      .cls-46 {
        fill: #94674b;
      }

      .cls-47 {
        clip-path: url(#clippath);
      }
    </style>
    <clipPath id="clippath">
      <path class="cls-1" d="M-133.3,62.62c-28.91-28.91-67.69-41.95-105.5-39.11-3-16.91-17.77-29.76-35.55-29.76-19.95,0-36.12,16.17-36.12,36.12,0,6.38,1.66,12.36,4.56,17.56-6.36,4.45-12.42,9.52-18.09,15.19-52.66,52.66-52.66,138.04,0,190.7,52.66,52.66,138.04,52.66,190.7,0,52.66-52.66,52.66-138.04,0-190.7Z"/>
    </clipPath>
    <linearGradient id="linear-gradient" x1="-226.51" y1="311.29" x2="-219.69" y2="149.36" gradientUnits="userSpaceOnUse">
      <stop offset=".01" stop-color="#75983e"/>
      <stop offset=".98" stop-color="#496c34"/>
    </linearGradient>
    <clipPath id="clippath-1">
      <path class="cls-1" d="M242.54,62.08c-19.45-19.45-43.35-31.72-68.42-36.82-5.25-15.1-19.6-25.95-36.49-25.95-18.99,0-34.78,13.71-38.02,31.77-17.54,6.56-33.99,16.89-48.1,31C-1.24,114.84-1.24,200.36,51.51,253.12c52.75,52.75,138.28,52.75,191.03,0,52.75-52.75,52.75-138.28,0-191.03Z"/>
    </clipPath>
    <linearGradient id="linear-gradient-2" x1="145.25" y1="230.64" x2="149.78" y2="-39.48" gradientUnits="userSpaceOnUse">
      <stop offset=".06" stop-color="#d3c293"/>
      <stop offset=".68" stop-color="#f2ebd1"/>
    </linearGradient>
    <clipPath id="clippath-2">
      <path class="cls-1" d="M236.28,187.63c-.4.03-.75-.24-.83-.63-.09-.44.18-.87.62-.96.21-.1.4-.23.58-.37.28-.21.57-.4.89-.56,1.18-.49,2.44-.8,3.72-.91,1.07-.08,2.15-.03,3.2.15l1.19.15c1.5.14,3.31-.19,3.75-1.28.3-.74.2-1.58-.27-2.22-.29-.33-.27-.84.06-1.13.33-.29.84-.27,1.13.06.88,1.1,1.1,2.59.56,3.9-.8,1.98-3.41,2.46-5.34,2.26l-1.25-.15c-.94-.17-1.9-.22-2.85-.14-1.1.08-2.18.34-3.2.77-.2.11-.4.24-.58.38-.35.3-.76.52-1.21.66h-.16Z"/>
    </clipPath>
  </defs>
  <g class="cls-22">
    <g id="Layer_3" data-name="Layer 3">
      <g class="cls-47">
        <path class="cls-17" d="M25.92,295.84h-498.7v-115.39l154.57-1.58c19.85-.87,172.4-.52,192.26.32l151.87,1.26v115.39Z"/>
      </g>
      <g class="cls-28">
        <circle class="cls-11" cx="146.48" cy="157.6" r="135.08"/>
        <polyline class="cls-33" points="-8.87 284.11 373.52 284.11 373.52 191.23 -8.87 191.23"/>
        <polygon class="cls-44" points="383.73 298.55 -18.78 298.55 -3.83 206.02 368.78 206.02 383.73 298.55"/>
        <rect class="cls-37" x="-22.94" y="236.51" width="417.59" height="7.29"/>
        <rect class="cls-37" x="-22.49" y="217.2" width="417.59" height="7.29"/>
        <rect class="cls-37" x="-25.1" y="255" width="417.59" height="7.29"/>
        <rect class="cls-37" x="-24.91" y="273.12" width="417.59" height="7.29"/>
        <polygon class="cls-1" points="383.73 298.16 -18.78 298.16 -3.83 215.91 368.78 215.91 383.73 298.16"/>
        <path class="cls-12" d="M125.12,78.08c-.72,0-43.9,14.6-43.9,14.6l7.95,54.07-8.38,62.34,20.73,17.09s71.08-20.41,71.81-20.96-1.07-25.45-1.07-26.17,1.87-29.34,1.87-29.34c0,0-.93-3.04.98-10.97s.37-2.83.37-2.83l-7.76-41.94-5.17-1.53-37.42-14.36Z"/>
        <path class="cls-12" d="M206.36,159.95s37.87,3.27,47.75,3.37c9.88.11.7,25.7.7,25.7l-54.03,1.28s-15.1-.67-14.54-19.12c.56-18.44,20.12-11.25,20.12-11.25Z"/>
        <path class="cls-26" d="M155.27,210.59c.94-.62,44.41-11.38,59.32-14.8,14.91-3.42,22.98-6.83,32.04,3.11,9.06,9.94,5.6,13.04,0,25.78-5.6,12.74-27.33,22.98-40.68,25.78-13.35,2.8-45.65,0-45.65,0v-21.43l-5.03-18.43Z"/>
        <path class="cls-10" d="M176.08,234.93c.9,1.73,1.35,4.53,2.5,8.46.51,1.73.16,4.66,2.4,5.13,3.97.84,8.17-1.71,9.7-1.95,2.11-.45,4.25-.77,6.41-.95,2.44-.04,4.85-.51,7.13-1.38.45-.13.87-.38,1.2-.72.19-.23.31-.52.5-.76.7-.82,2.08-.68,3.04-1.24.39-.28.75-.6,1.07-.96.99-.83,2.04-1.58,3.14-2.25,1.1-.66,1.99-1.61,2.57-2.74.55-1.1.2-2.45-.82-3.14-1.6-.88-2.65.47-4.13.94-1.16.4-2.4.54-3.62.42-3.83-.13-4.45-.21-7.66-.23-4.43-.12-8.84-.57-13.21-1.33l-.56-2.29"/>
        <path class="cls-12" d="M159.05,96.34s15.2,2.22,23.62,13.35c6.28,8.29,14.36,27.11,17.59,34.39,3.23,7.27,14.19,30.33,14.19,30.33l-23.95,10.15-25.21-29.9-6.24-58.31Z"/>
        <path class="cls-12" d="M170.74,149.39l24.08-15.01s-8.48-27.31-18.15-36.06c-6.56-5.97-19.91-6.78-19.91-6.78l13.98,57.86Z"/>
        <path class="cls-6" d="M270.79,145.57l-11.84,64.49c-.31,1.84-2.06,3.07-3.89,2.76,0,0-.02,0-.03,0h-.21l-46.99-11.11,12.46-65.44,47.29,4.98c2.05.23,3.51,2.08,3.28,4.13,0,0,0,0,0,0-.03.04-.05.19-.06.19Z"/>
        <polygon class="cls-36" points="266.51 141.51 268.9 142.88 256.76 209 256.5 210.37 251.67 209.47 266.51 141.51"/>
        <path class="cls-32" d="M220.11,136.05s17.98-2.6,46.4,5.46l-12.57,68.47-24.32-5.89-21.86-5.34,12.35-62.7Z"/>
        <path class="cls-27" d="M267.63,142.44l-4.14,22.92-6.54,36.24-1.52,8.38c0,.11.29.06.31,0l4.13-22.92,6.55-36.24,1.5-8.46c0-.11-.29-.06-.3,0v.07Z"/>
        <path class="cls-27" d="M266.36,141.52l-4.09,23.27-6.47,36.75-1.5,8.48c0,.13.29.09.3,0l4.1-23.25,6.47-36.75,1.5-8.48c0-.13-.29-.09-.31,0v-.02Z"/>
        <path class="cls-10" d="M187.12,187.22l-22.97-7.84s-4.84-11.28-8.09-21.85c-6.16,1.79-10.94,3.26-17.23,3.4,4.27,12.41,9.28,27.64,15.22,30.97,10.49,5.8,33.25,4.36,33.25,4.36l-.18-9.03Z"/>
        <path class="cls-10" d="M117.34,62.46c.4,3.65.32,7.34-.25,10.97-1.36,8.69-2.49,8.03-2.49,8.03h0c.88,3.58,2.64,6.88,5.12,9.61l3.69,4.07c9.89,5.73,24.44,2.98,23.97-7.9,0,0-.34-.33-.21-1.57.18-1.74,3.27-13.26,3.27-13.26"/>
        <path class="cls-15" d="M101.43,144.62l10.32-3.46c1.22,2.94,3.46,5.34,6.3,6.76,6.82,3.2,16.95,3.2,15.83-5.69l11.37,2.03s8.27,14.8,8.22,20.4c-.1,14.1,6.95,39.06,6.95,39.06,0,0-19.95,9.15-27.82,8.79-7.87-.36-40.32,3.83-40.32,3.83l10.11-56.33-.96-15.39Z"/>
        <polygon class="cls-4" points="184.74 203.38 187.35 200.83 160.8 203.38 145.31 209.51 162.13 219.56 184.74 203.38"/>
        <path class="cls-8" d="M146.48,23.51h0c1.27,0,2.3,1.04,2.3,2.31l-.02,7.69c0,1.27-1.04,2.3-2.31,2.3h0c-1.27,0-2.3-1.04-2.3-2.31l.02-7.69c0-1.27,1.04-2.3,2.31-2.3Z"/>
        <path class="cls-8" d="M136.28,38.81h0c1.07.69,1.37,2.12.68,3.19l-4.18,6.45c-.69,1.07-2.12,1.37-3.19.68h0c-1.07-.69-1.37-2.12-.68-3.19l4.18-6.45c.69-1.07,2.12-1.37,3.19-.68Z"/>
        <path class="cls-5" d="M117.4,63.41v.09s-.01-.06,0-.09Z"/>
        <path class="cls-10" d="M137.24,83.12l8.72,1.51,3.94.26c1.66.17,3.27-.67,4.08-2.14,1.86-3.2,2.5-4.81,2.74-5.19,1.52-2.46,2.85-5.04,3.97-7.71.91-2.34,1.85-3.68,2.45-6.52.53-2.35.43-4.79-.29-7.09-.21-.89-.17-1.82.13-2.69.62-1.93.97-4.27,1.74-6.83.17-.46.27-.94.32-1.42,0,0,1.36-11-.32-15.1-1.68-4.1-3.28-8.3-6.13-9.28s-12.67.98-12.67.98l-11.75-2.66-10.47,4.16-6.11,11.75-.36,14.32.15,13.96"/>
        <path class="cls-19" d="M121.42,29.26c-.28-6.41,5.53-8.29,7.97-9.19,2.07-.77,7.84-2.14,11.92-1.2,1.75.41.62,4.07,1.53,4.82.31.09,3.86,1.2,5.26,1.52,1.78.53,3.63.71,5.48.54,1.01-.25,2.06-.25,3.06,0,1.82.42,2.96-4.05,6.41.51l.2-.17c-4.27-6.64-10.52-7.03-17.91-8.72-.78-.18-1.59-.33-2.4-.45-11.82-1.79-11.45-1.68-19.79,5.59-4.84,4.27-7.83,8.38-7.98,11.15v.62c-.16,2.88-3.69,10.45-2.8,12.11.57,1.07,2.26,5.64,3.67,9.54l5.66.57c0-1.07.23-10.26.26-11.36"/>
        <path class="cls-10" d="M117.63,63.64c-4.94,4.09-5.23-3.59-5.23-3.59-2.84-4.14-2.46-8.23-2.07-11.02s3.45-2.47,3.45-2.47c2.6.53,4,1.31,5.34,10.34"/>
        <path class="cls-19" d="M155.19,23.07c-4.27-.41-15.19-4.21-20.94-5.02-2.37-.34-10.78,4.97-11.91,6.23-2.61,2.9,2.32,10.42-2.53,19.95-1.6,3.14-3.05-2.69-4.92-.69-1.87,2-2.58,2.81-2.58,2.81-.53-9.53-.52-9.19,2.27-18.34s13.22-12.39,18.15-12.81,20.56,2.37,24.66,4.68"/>
        <path class="cls-41" d="M116.79,55.79c-.46-1.36-1.05-2.68-1.76-3.93-.36-.65-.82-1.24-1.37-1.74-.21-.21-.47-.36-.75-.45-.34-.09-.52.22-.67.47-.61,1.12-.82,2.43-.58,3.68,0,.17.47.06.45-.12-.18-.99-.1-2.01.25-2.96.12-.34.31-.65.54-.92l-.27.09c-.07,0,.11,0,.12,0,.18.09.35.2.5.34.76.72,1.37,1.59,1.79,2.54.5,1,.94,2.02,1.3,3.08.05.17.49,0,.44-.13v.04Z"/>
        <path class="cls-41" d="M115.77,56.23c-1.87-.25-1.07,2.29-1.26,3.29,0,.06,0,.11,0,.17,0,.03,0,.06,0,.1h0c0,.06,0,0,.17,0l-.13-.14c-.06-.09-.11-.19-.14-.3-.39-1.3-.5-2.68-.3-4.03.17-.82.51-2.06,1.41-2.36.3-.1,0-.16-.15-.11-.85.32-1.49,1.05-1.67,1.94-.19.59-.29,1.21-.29,1.83.02.77.11,1.54.27,2.3.06.3.15.9.47,1.07.26.08.54-.02.69-.25.13-.29.18-.62.14-.94,0-.48-.06-.95,0-1.43,0-.21.04-.42.12-.62.1-.21.18-.3.42-.27s.5-.16.28-.19l-.03-.06Z"/>
        <path class="cls-19" d="M148.19,41.44c-.09.66-.18,1.32-.27,2-.06.5-.18,1.67-.26,2.14-1.72-.66-3.2-1.51-4.37-1.84-2.2-.82-4.5-1.31-6.85-1.44-1.06-.02-2.12.16-3.12.53-.31.13-1.19.73-1.59.49-.17-.1.22-.88.27-.96.81-1.57,2.46-2.06,4.41-2.21,3.96-.21,7.92.21,11.75,1.25"/>
        <path class="cls-19" d="M165.46,43.87l-1.13-.34c-3.17-.88-6.49-1.14-9.76-.75l-.1,2.01c0,.51-.1,1.44-.12,1.94,1.5-.35,2.81-.8,3.77-.94,1.92-.4,3.9-.45,5.84-.16l1.07.27c.69-.9.69-1.87.43-2.03Z"/>
        <path class="cls-46" d="M148.31,68.68c-3.31-.42-8.64-1.48-8.64-1.48,0,0-.37,8.14,7.32,9.1s8.98-7.05,8.98-7.05c0,0-4.33-.17-7.66-.57Z"/>
        <path class="cls-3" d="M148.31,68.68c-1.57-.19-7.89-1.26-7.89-1.26,0,0,1.41,5.8,7.11,6.51,3.34.64,6.62-1.36,7.59-4.61l-6.81-.64Z"/>
        <path class="cls-18" d="M148.4,68.9c-1.58-.19-6.34-1.07-6.34-1.07,0,0,1.52,1.91,6.26,2.54s6.41-.9,6.41-.9l-6.32-.58Z"/>
        <path class="cls-46" d="M156.12,68.75c-.16-.06.23.29-.54.13-1.28-.28-2.06-.73-3-.92-1.13-.1-2.27-.07-3.4.1-.7-.09-1.64-.85-3.28-.93h-4.66c-.63-.1-1.24-.24-1.85-.43-.23,0,0,1.78,8.82,2.89,8.82,1.11,8.13-.76,7.9-.84Z"/>
        <path class="cls-19" d="M148.31,66.05l-.27.82c-.07.22-.28.37-.51.38-1.64,0-7.68.41-9.15.22h-.36c-.54-.17-.29-.89.25-1.07,1.32-.36,2.66-.63,4.02-.81,1.84-.23,3.7-.31,5.55-.23.3.03.53.31.49.61,0,.02,0,.05-.01.07Z"/>
        <path class="cls-19" d="M150.45,66.21l-.11.91c0,.22.15.41.36.48,1.31.38,5.57,1.88,6.78,2.01l.51.07h.28c.46,0,.11-1.07-.31-1.31-.89-.57-1.83-1.07-2.8-1.5-1.38-.55-2.81-.97-4.27-1.25-.27.02-.48.25-.46.52,0,.02,0,.04,0,.06Z"/>
        <path class="cls-19" d="M152.58,85.19l1.07-1.56s-15.32.87-18.15-.25c-7.55-2.96-12.52-14.71-12.52-14.71,1.03,3.63,2.74,7.04,5.04,10.04,3.9,5.2,4.88,5.89,9.48,6.3,3.5.3,9.93.95,12.81,1.25.89.08,1.76-.34,2.26-1.08Z"/>
        <path class="cls-19" d="M110.54,48.21c-1.38-4.09-1.87-8.43-1.43-12.73.62-7.75,2-18.15,11.31-21.49,1.66-.6,3.4-.96,5.16-1.07,0,0,6.41-5.68,22.69-1.13,11.45,3.2,15.63,8.3,15.97,17.3,0,0-2.84-4.9-3.87-4.55s-2.07,2.63-6.01,2.65-10.13-1.07-12.57-2.93-6.96-3.91-9.61-3.77c-6.59.35-7.71,5.21-8.54,8.05s-3.2,12.88-6.49,14.01c-1.85.51-3.25,2.02-3.64,3.9l-.53.16c-.94.29-1.78.83-2.42,1.57v.02Z"/>
        <path class="cls-19" d="M122.98,68.68c6.55,9.16,10.79,11.98,13.51,12.44s4.79,1.47,6.82.83c2.47-.8,3.28-1.99,3.87-1.46.26.22,1.12,1.79,1.38,2.03.94.4,1.99.46,2.97.17,1.7-.42,3.17-1.48,4.11-2.96-.81,1.73-1.58,4.27-3.33,4.98-1.07.47-2.65.12-3.82.06-2.58-.13-5.05-.27-7.64-.48-2.27-.02-4.52-.41-6.66-1.17-3.5-1.55-6.98-6.65-8.98-10.03l-2.22-4.41Z"/>
        <path class="cls-45" d="M148.73,63.55c.74.39,1.54.63,2.37.69.74.15,1.52.09,2.22-.19.53-.24.99-.6,1.35-1.07.18-.53.18-1.1,0-1.62-.11-.53-.31-1.07-.42-1.58,0-.15-.4-.06-.36.1.32.87.49,1.78.51,2.7,0,.51-.52.82-.92,1.07-.21.16-.44.28-.69.35-.4.05-.81.05-1.21,0-.91-.03-1.8-.26-2.61-.68-.12-.06-.44.11-.28.19l.03.04Z"/>
        <path class="cls-45" d="M145.82,60.72c-.32-.05-.64.08-.83.33-.18.27-.28.58-.3.9-.06.3,0,.62.17.88.28.32.65.54,1.07.62.28.06.57.06.85,0,.34,0,.67-.17,1.01-.2.06,0,.2,0,.23-.09s0-.05-.07,0c-.48.13-.97.2-1.46.21-.38-.05-.75-.19-1.07-.42-.43-.39-.55-1.01-.32-1.54.04-.15.1-.28.19-.41.03-.06.08-.11.13-.15,0,0,.06,0,0,0s0,0,0,0c.08.02.16.02.25,0,0,0,.13-.06,0-.09l.15-.05Z"/>
        <path class="cls-26" d="M45.03,224.99s16.47,25.23,30.13,30.2,85.87,0,85.87,0l-3.57-37.96-59.34-3.42-53.09,11.18Z"/>
        <path class="cls-12" d="M87.69,92.41s-14.13,1.9-18.59,13.27c-4.46,11.37-13.05,59.61-14.32,64.67-1.27,5.06-2.57,15.12,3.11,19.52,6.25,4.88,28.74,19.52,28.74,19.52l3.13.95c-1.88-5.49-.19-10.99,2.14-16.33l1.6-4.91-8.34-12.81s4.43-30.8,5.07-35.54-2.53-48.34-2.53-48.34Z"/>
        <path class="cls-12" d="M58.31,152.98l30.48-6.24,6.47-8.94-4.97-47.7s-14.85.87-20.37,12.55c-5.79,12.26-11.62,50.33-11.62,50.33Z"/>
        <path class="cls-10" d="M191.03,199.65c6.75-1.59,13.11,4.27,11.62,11.08,0,.21-.11.43-.16.65-2.26,8-18.8,22.84-22.13,24.96-3.33,2.11-26.82,10.16-26.82,10.16l-2.45-22.07s24.34-15.3,30.97-20.57c2.64-2.04,5.7-3.47,8.96-4.21Z"/>
        <path class="cls-10" d="M97.65,213.17c1.07,0,27.02-9.44,36.31-10.03,6.56-.43,15.28,6.41,26.08,13.16,13.07,8.22,26.75,16.76,26.55,17.09-.36.56-9.68,14.06-9.68,14.06l-36.64-18.37-12.81,1.53c-9.74-.14-29.81-17.44-29.81-17.44Z"/>
        <path class="cls-39" d="M97.88,213.42c1.05-.16,2.08-.45,3.05-.87l6.69-2.14c5.93-1.92,11.89-3.81,17.93-5.34,2.49-.68,5.02-1.19,7.58-1.54,3.3-.38,6.41.7,9.28,2.14,4.05,2.12,7.98,4.49,11.75,7.08,4.27,2.78,8.59,5.5,12.96,8.16,4.08,2.47,8.19,4.88,12.31,7.28,1.32.77,2.65,1.54,3.96,2.34.58.33,1.14.68,1.69,1.07,0,.35.93.17.97-.13.1-.62-3.1-2.14-3.49-2.34-3.31-1.94-6.63-3.87-9.93-5.82-4.69-2.78-9.35-5.61-13.94-8.54-4.03-2.58-7.98-5.34-12.11-7.7-3.05-1.77-6.41-3.58-9.93-4.04-2.32-.17-4.64.04-6.89.63-6.18,1.38-12.29,3.07-18.3,5.07-2.99.95-5.96,1.92-8.94,2.9l-2.95.95-.96.3c-.13,0-.52.11-.31.1-.34,0-1.07.54-.4.51l-.03-.09Z"/>
        <path class="cls-10" d="M199.69,255.41c.88-.83.3-2.29,0-3.2,0-.1-.07-.18-.11-.27-.13-.24-.13-.54,0-.78.32-.99.28-2.06-.13-3.01-.04-.12-.1-.23-.18-.32-.09-.09-.19-.15-.31-.19-.27-.12-.57-.2-.87-.21-1.15-.09.25-1.27.36-1.73-.29-.61-.63-1.2-1.01-1.76-1.83-2.64-5.17-3.9-8.4-4.15s-6.41.33-9.68.6-6.62.19-9.5-1.27c-1.79-.91-3.31-2.33-5.15-3.2-2.82-1.28-8.54-.32-13.32,3.42-3.67-.51-7.23-1.59-10.56-3.2l-2.46,16.32c13.12,1.87,28.46,3.2,43.13,6.82,2.01.5,8.36,2.14,10.42,2.08s5.14.94,6.51-.48c.12-.41.14-.83.09-1.25,0-.14.1-.26.23-.3.32-.02.62-.16.85-.38.19-.29.32-.61.37-.95.24-.4.35-.86.31-1.32-.05-.47-.27-.91-.62-1.24Z"/>
        <path class="cls-4" d="M104.76,209.43c2.61,1.26,5.28,2.39,7.77,3.86.19-2,.82-3.93,1.86-5.65l-9.63,1.79Z"/>
        <path class="cls-16" d="M88.81,179.68c-2.42-1.64-4.88-3.8-7.75-4.62-2.61-.74-6.13-.84-8.3,1.07-.33.29.45.27.63.11,2.04-1.79,5.63-1.4,7.98-.47s4.56,2.78,6.71,4.27c.22.15.94-.17.74-.31v-.04Z"/>
        <path class="cls-16" d="M88.34,100.45c6.98,3.86,7.48,13.17,7.26,20.29-.35,6.33-1.24,12.62-2.67,18.8-1.94,9.41-3.97,18.8-6.09,28.15l-2.14,9.72c-.1.38.72.29.8-.06l4.59-20.29c1.23-5.41,2.3-10.86,3.43-16.29,1.49-6.36,2.47-12.84,2.9-19.36.31-7.39-.11-17.26-7.48-21.36-.3-.17-.99.25-.61.46v-.05Z"/>
        <path class="cls-10" d="M145.47,128.37c.34-2.88.38-5.79.11-8.67.05-1.15.12-2.49.19-4.1v-1.37c-.02-.23-.02-.46,0-.68-.09-7.88-2.6-12.05-2.6-12.05-3.2-5.29-8.98-8.46-15.15-8.33-7.26,0-13.88,4.27-17.41,8.63-1.74,2.16-2.63,4.89-2.49,7.67.18,2.57.58,5.12,1.2,7.62-2.53-.17-5.04.68-4.27,5.34,1.13,6.47,5.25,8.54,7.24,6.83.45.09,1.3,2.06,1.38,3.41.15,2.57,0,7.14-1.37,9.38v.74c3.42,5.78,12.07,7.91,17.67,6.85,2.86-.54,4.74-3.29,4.2-6.15-.09-.46-.23-.91-.44-1.33h0v-1.72c1.06.1,2.13-.03,3.14-.37,6.02-1.31,8.23-8.77,8.6-11.69Z"/>
        <path class="cls-39" d="M133.84,140.52c-4.64.07-9.19-1.26-13.05-3.82,0,0,.7,2.14,5.09,3.76,2.52.99,5.23,1.39,7.93,1.19l.02-1.12Z"/>
        <path class="cls-13" d="M107.11,122.81c-.33-.82-.29-1.74.1-2.53l-.2.12c-.06,0,0,0,0,0h.12c.21.09.4.21.57.35.89.86,1.61,1.87,2.14,2.98l.33-.18c-.26-.23-.62-.33-.96-.28-.36.12-.59.46-.57.83,0,1,.85,1.53,1.74,1.63.17,0,.41-.21.14-.25-.73-.01-1.35-.53-1.48-1.25,0-.18,0-.62.18-.73s.5.13.64.23.42,0,.33-.18c-.43-.82-.94-1.59-1.52-2.31-.31-.36-.67-.67-1.07-.93-.17-.11-.36-.19-.56-.22-.23,0-.33.14-.42.33-.29.78-.29,1.65,0,2.43,0,.16.44,0,.38-.1l.11.03Z"/>
        <path class="cls-21" d="M134.81,129.66c-2.22,0-5.81-.4-5.81-.4,0,0-.46,6.22,5.7,6.27,5.15.05,5.4-5.88,5.4-5.88,0,0-3.08.06-5.3.01Z"/>
        <path class="cls-42" d="M134.83,129.66c-1.07,0-4.99-.16-4.99-.16.53,2.16,2.43,3.7,4.65,3.77,2.2.25,4.25-1.14,4.85-3.27l-4.51-.34Z"/>
        <path class="cls-18" d="M134.87,130.15c-1.07,0-4.27-.28-4.27-.28,0,0,1.24.9,4.41.98s4.08-.74,4.08-.74l-4.22.03Z"/>
        <path class="cls-21" d="M140.09,129.61c0-.11-.22-.17-.75-.22-.87-.1-1.14-.42-1.78-.48-.76,0-1.51.1-2.24.28-.73-.21-1.48-.34-2.23-.38-.63,0-2.2.21-3.08.27-.42-.02-.84-.07-1.25-.16-.16,0,.17,1.48,6.08,1.62,5.91.14,5.25-.76,5.25-.92Z"/>
        <path class="cls-45" d="M130.72,112.34s-.18-.07-.17-.13c-1.88-.7-3.86-1.06-5.86-1.07-.64.09-1.26.29-1.83.59-.66.3-1.28.68-1.84,1.14-.21.34.96-.12.96-.12.22-.07.45-.12.67-.16,1.35-.27,2.73-.33,4.1-.18,1.32.4,2.6.94,3.81,1.61.07-.56.02-1.11.15-1.69Z"/>
        <path class="cls-45" d="M137.43,112.93s.16-.06.16-.12c1.66-.56,3.41-.79,5.16-.65.56.13,1.09.37,1.56.69.57.35,1.09.77,1.55,1.26.17.36-.83-.17-.83-.17-.19-.09-.38-.16-.58-.21-1.16-.34-2.36-.49-3.57-.44-1.18.31-2.32.77-3.4,1.36-.04-.59.03-1.12-.05-1.72Z"/>
        <path class="cls-19" d="M111.74,122.08v-.12c-.27-.93-.78-1.77-1.46-2.46-.35-.34-.75-.63-1.19-.85-.43-.24-.9-.41-1.38-.5-.66-.18-1.35-.18-2.01,0l-.34.14c-1.66-5.61-2.35-11.6,1.83-18.41,1.21-1.95,4.34-4.1,5.34-4.78,5.81-4.12,10.96-4.36,17.29-3.66,7.34.82,14.13,5.62,15.73,13.06.47,1.56.65,3.18.54,4.81,0,0-1.36-6.75-4.87-8.91s-4.2.94-9.21.98c-5.81,0-7.68-3.14-12.37-.77-2.5,1.23-4.48,3.32-5.59,5.87-.67,2.52-1.85,4.19-1.17,7.1.16.68.29,1.39.41,2.14.13,1.27.13,2.55,0,3.82-.08.64-.4,1.23-.91,1.63-.68.33-.03,1.09-.65.91Z"/>
        <path class="cls-13" d="M112.14,121.93c-.7-2.92-3.63-4.72-6.55-4.02-.15.03-.29.08-.43.12l.59.13c-1.3-4.49-1.83-9.1-.36-13.62.72-2.51,2.08-4.8,3.94-6.63,1.33-1.19,2.76-2.26,4.27-3.2,4.21-2.64,9.18-3.77,14.12-3.2,4.33.15,8.5,1.65,11.94,4.27,4.02,3.29,6.23,8.3,5.96,13.49l.82-.14c-.49-2.98-1.79-5.78-3.77-8.06-1.01-1.12-2.45-1.75-3.96-1.75-1.57.14-2.96,1.14-4.49,1.51-2.67.61-5.34,0-7.87-.79-1.62-.61-3.37-.74-5.06-.38-3.4.98-6.18,3.43-7.58,6.67-.83,2.14-1.71,4.56-1.32,6.87.39,1.75.58,3.54.58,5.34-.04.91-.38,1.78-.95,2.49-.06.09-.22.2-.26.33-.12.5-.18.36.18.43-.4-.06-.82.5-.28.59h.21c.18.02.36-.05.48-.18.16-.19,0-.33.15-.53.17-.37.52-.65.74-1.07.51-1.12.69-2.37.53-3.59-.1-2.43-1.07-4.79-.4-7.22.92-3.46,2.29-6.41,5.41-8.42,1.95-1.35,4.41-1.7,6.66-.97,1.79.61,3.65,1.01,5.53,1.19,1.87.11,3.74-.22,5.46-.96,1.73-.73,3.01-1.07,4.7.09,2.63,1.83,3.92,5.62,4.54,8.64.07.35.79.17.81-.15.26-4.82-1.59-9.52-5.05-12.89-3.18-2.94-7.23-4.76-11.54-5.18-4.91-.59-9.91-.44-14.43,1.79-3.96,1.95-7.83,4.89-9.79,8.92-2.6,5.34-2.36,10.98-.74,16.54.07.25.42.21.59.14,2.39-1,5.34,1.3,5.81,3.64.07.38.89.18.81-.21Z"/>
        <path class="cls-45" d="M105.34,118.26s-6.01-5.01-1.8-16.56c.49-1.33,1.3-2.51,2.37-3.43l.98-.87c.73-2.37,2.16-4.46,4.11-6,3.2-2.48,11.18-2.87,14.77-5.02,3.59-2.15,4.55-3.9,4.55-3.9,0,0,1.71,2.8,1.74,4.73,0,0,11.35.84,13.46,16.76,0,0-10.58-13.61-23.49-8.84-12.91,4.76-16.68,23.13-16.68,23.13Z"/>
        <path class="cls-45" d="M128.23,85.99s3.31.65,6.31-2.84c0,0,3.31,4,.8,6.75"/>
        <path class="cls-45" d="M134.28,126.35c.56.26,1.17.41,1.79.43.59.04,1.18-.02,1.74-.19.88-.23,1.4-1.14,1.17-2.01,0,0,0,0,0,0-.21-.6-.5-1.13-.66-1.75,0-.13-.33,0-.3.09.18.58.4,1.15.64,1.71.2.5.07,1.07-.33,1.43-.44.37-1,.56-1.57.53-.76.07-1.53-.07-2.23-.38-.11,0-.38.1-.25.16h0Z"/>
        <path class="cls-45" d="M131.74,124.14c-.66-.05-.81.66-.81,1.17-.03.27.05.53.21.75.25.28.6.44.97.47.23.05.47.05.7,0,.27-.07.51-.21.79-.27,0,0,.17,0,.17-.07s-.09,0-.12,0c-.19.04-.38.1-.57.17-.19.09-.39.14-.6.14-.33-.02-.64-.13-.91-.32-.35-.36-.47-.88-.31-1.36.02-.13.06-.25.13-.36.03-.05.06-.09.1-.13h0s-.1,0,0,0c.08,0,.15-.02.21-.06h0l.02-.13Z"/>
        <path class="cls-16" d="M173.85,162.66c.19-12.73,3.04-25.26,3.3-37.97,0-.12-.78,0-.79.21-.26,12.72-3.11,25.25-3.3,37.97,0,.11.79,0,.79-.21Z"/>
        <path class="cls-39" d="M164.5,179.12c-1.63.19-3.08,1.15-3.88,2.58-.09.14.07.28.2.3.17.03.34-.06.43-.21.67-1.18,1.86-1.97,3.2-2.14.15,0,.35-.11.36-.28s-.17-.26-.31-.25h-.01Z"/>
        <path class="cls-10" d="M209.63,195.24c.8-.41.67-.88.36-1.25-.28-.3-.66-.51-1.07-.59-1.09-.29-2.21-.45-3.33-.48-3-.23-3.68-.28-3.66-.42s1.22-.31,4.27-.12c1,.03,2.01-.03,3-.18.53,0,1.04-.19,1.43-.53.41-.32.49-.91.17-1.32-.16-.2-.39-.33-.64-.36-2.22-.65-8.07-.37-8.6-.31.31-.07,2.61-.56,4.27-.95s3.86-.87,3.52-1.98c-.33-1.11-1.46-.91-3.67-.88-2.5,0-8.78.25-8.78.25.69-.59.97.2,2.63-.89,2.04-1.52,1.23-3.01,1.23-3.01,0,0-8.06,1.21-9.93,2.31-1.41.83-3.65,1.73-3.99,2.62l-1.73.34c-.81,2-.34,4.35-.13,6.41.11,1.07-.91,1.44-.93,2.46,1.41-.17,2.84,0,4.18.48,1.99,2.53,14.63,1.89,16.48,1.88s2.49-.54,2.14-1.07c-.54-.98-5.05-1.15-5.14-1.74s6.41.13,7.92-.67Z"/>
        <path class="cls-39" d="M195.01,188.94c-.54,1.89-1.58,4.02-3.57,4.74-.07,0-.27.12-.18.22s.34,0,.43,0c2.14-.79,3.37-2.95,3.97-5.05,0-.2-.6-.11-.65.1h0Z"/>
        <path class="cls-15" d="M164.48,172.82s-5.56-16.26-7.71-19.98c-3.2-5.55-11.52-8.54-11.52-8.54l5.89,33.22,13.34-4.7Z"/>
        <path class="cls-2" d="M154.36,175.71c-.47-6.34-.78-12.7-.94-19.06,0-.09-.5,0-.5.13.16,6.36.48,12.72.94,19.07,0,.09.5,0,.5-.14h0Z"/>
        <path class="cls-43" d="M206.12,205.67c2.45-1.45,4.86-3.05,7.48-4.27.92-.47,1.9-.82,2.9-1.07.49-.1.98-.12,1.47-.21.14,0,.57-.12.58-.31s-.29-.19-.42-.17c-.54.11-1.07.14-1.66.26-1.03.25-2.02.61-2.97,1.07-2.74,1.36-5.39,2.87-7.96,4.53-.58.34.32.4.61.22l-.04-.04Z"/>
        <path class="cls-39" d="M190.81,247.78c1.56-.11,3.02.22,4.57.23.77.04,1.52-.19,2.14-.65,1.6-1.33,1.07-3.61-.25-4.87-4.27-4.27-10.54-3.42-16.02-2.84-3.2.34-6.69.56-9.8-.65-2.14-.82-4.27-2.06-6.31-3.08-1.61-.79-3.14-1.67-4.99-1.53-1.83.23-3.59.88-5.14,1.9-.75.45-1.47.93-2.14,1.44-.27.18-.53.37-.78.58.07-.07-.61.56-.23.45-.59,0-1.17-.09-1.73-.29-3.01-.63-5.94-1.61-8.71-2.93-.2-.1-.99.22-.7.36,2.34,1.1,4.78,1.97,7.29,2.61,1.06.34,2.16.55,3.28.63.24,0,.47-.05.68-.16.56-.35,1.09-.74,1.58-1.19.61-.43,1.22-.84,1.84-1.24,1.91-1.17,4.22-2.32,6.48-1.51,3.9,1.41,7.28,4.27,11.43,4.99,5.64.97,11.29-1.26,16.92-.31,1.55.25,3.04.8,4.39,1.6,1.25.64,2.27,1.65,2.92,2.89.11.4.14.82.1,1.23-.07,1.07-.33,1.61-1.41,1.91-1.53.42-3.39-.1-5.02,0-.26,0-.93.44-.36.4h-.01Z"/>
        <path class="cls-39" d="M192.76,251.29c1.07-.14,2.14.49,3.2.67,1.07.24,2.19.13,3.2-.31.13-.07.34-.22.21-.4s-.44-.11-.58,0c-.94.37-1.98.4-2.94.09-.96-.38-1.98-.57-3.01-.57-.17,0-.47.12-.49.32s.23.26.38.23v-.04Z"/>
        <path class="cls-39" d="M193.44,255.3c1.24.35,2.5.59,3.78.74,1.13.07,2.24-.21,3.2-.8.15-.1.1-.2-.06-.22-.22,0-.43.05-.61.17-1.64,1.07-3.91.12-5.64-.23-.21-.04-.42,0-.61.1-.07,0-.3.21-.1.26h.03Z"/>
        <path class="cls-39" d="M194.17,258.27c1.62,1.15,3.7,1.43,5.56.76.11-.05.27-.13.12-.2s-.48.06-.6.12c-.69.22-1.44.22-2.14,0-.76-.18-1.48-.49-2.14-.91-.14-.09-.42,0-.56.06s-.37.14-.27.21v-.04Z"/>
        <path class="cls-39" d="M206.05,242.97c.46-.51.42-1.29-.09-1.75-.03-.02-.05-.05-.08-.07-.6-.4-1.32-.59-2.04-.54h-1.27c-.07.02-.11.09-.09.16.01.04.04.07.09.09.84-.06,1.68,0,2.5.18.39.09.72.33.93.66.24.36.2.84-.11,1.14-.12.1.05.27.17.17v-.04Z"/>
        <path class="cls-39" d="M209.18,241.68c.88-.38.43-1.55,0-2.14-.26-.38-.63-.66-1.07-.79-.62-.16-1.27-.2-1.91-.14-.66-.07-1.32,0-1.95.18-.14.06,0,.27.13.2.63-.16,1.28-.21,1.92-.15.73-.11,1.47,0,2.14.31.59.35,1.47,1.9.56,2.31-.15.06,0,.28.12.21h.07Z"/>
        <path class="cls-39" d="M211.15,240.03c.43-.47.53-1.15.26-1.72-.23-.51-.65-.92-1.17-1.12-.58-.23-1.2-.35-1.83-.35-.66-.03-1.32.02-1.98.14-.16,0-.09.26.06.23.56-.1,1.13-.14,1.7-.13.56-.01,1.12.06,1.66.22.5.13.93.44,1.22.87.36.52.33,1.21-.09,1.69-.12.11,0,.28.17.17h0Z"/>
        <path class="cls-39" d="M213.22,238.67c.85-.87.85-2.25,0-3.12-.96-.52-2.06-.71-3.14-.53-.28,0-.57.05-.85.06-.34-.02-.68.03-1,.15-.14.06,0,.27.12.2.35-.1.71-.14,1.07-.13l.84-.03c.64-.04,1.27,0,1.9.11.57.08,1.06.44,1.3.96.26.73.1,1.55-.42,2.14-.11.11.06.28.17.17v.02Z"/>
        <path class="cls-10" d="M96.84,191.08s12.51-2.7,14.04-4.27c1.54-1.57,5.91-3.52,6.97-3.4s.18.07-.46,2.14c-.64,2.06-5.02,4.54-4.55,5.69.47,1.15,12.95,5.18,15.48,5.97,2.53.79,9.37,3.46,7.83,6.94,0,0,3.06,1.8,2.51,3.35-.21.73-.57,1.42-1.07,2,0,0-.77,2.94-3.1,2.55-1.3-.2-2.57-.56-3.78-1.07.53.88.24,2.02-.64,2.55-.17.1-.35.17-.54.22-2.25.91-12.4-.88-12.4-.88,0,0-5.91,1.67-9.68.44s-13.38-8.97-13.38-8.97l2.74-13.26Z"/>
        <path class="cls-39" d="M120.89,197.9c.81.32,1.63.6,2.47.82,1.99.61,3.95,1.32,5.87,2.14,2.26.97,4.27,1.99,5.69,2.77.75.46,1.53.86,2.33,1.22-.17-.17-.36-.32-.57-.45-.38-.26-.94-.62-1.64-1.07-1.82-1.09-3.72-2.05-5.67-2.88-1.93-.83-3.92-1.52-5.95-2.08-.77-.21-1.4-.36-1.84-.44-.23-.05-.46-.06-.69-.02Z"/>
        <path class="cls-39" d="M117.48,200.97c.12-.41,2.14,1.07,10.68,4.47,5.93,2.36,9.49,4.12,9.53,4.02s-3.47-2.05-9.41-4.42-10.76-4.19-10.8-4.07Z"/>
        <path class="cls-39" d="M118.78,206.44c.63.31,1.28.57,1.95.76,1.21.42,2.88,1,4.71,1.71.85.32,2.48.96,4.67,1.86.63.3,1.28.55,1.95.74-.58-.4-1.2-.74-1.85-1.01-1.17-.57-2.81-1.28-4.65-1.99s-3.53-1.25-4.76-1.6c-.66-.22-1.34-.38-2.03-.46Z"/>
        <path class="cls-39" d="M98.42,193.36v.13s-.02.08,0,.12c.01.04.04.07.07.1.04.03.08.05.13.05.05.01.11.01.16,0h.11c.07-.02.14-.05.2-.1l.1-.03s.05-.1.06-.16v-.13s.02-.08,0-.12c-.01-.04-.04-.07-.07-.1-.04-.03-.09-.05-.14-.05-.05-.01-.1-.01-.15,0h-.12l-.19.1-.07.06s-.06.1-.06.16l-.02-.03Z"/>
        <path class="cls-39" d="M83.06,208.9l9.23-.5c1.59-.09,3.2-.07,4.81-.26.13-.01.26-.01.38,0,.3,0-.35-.16-.1,0,.7.38,1.37.87,2.05,1.28,2.19,1.39,4.48,2.61,6.85,3.66,2.43.96,5.08,1.25,7.66.82.96-.13,1.92-.3,2.87-.52.25-.05.51-.16.77-.19-.2,0-.12,0,.15.05,1.77.34,3.55.6,5.34.76,2.14.25,4.5.66,6.57.17,1.56-.37,2.74-1.8,1.88-3.36l-.61.48c1.49.77,3.17,1.14,4.85,1.07,1.22-.34,2.18-1.28,2.55-2.49.36-.78,1.36-1.96,1.19-3.06-.18-1.27-1.63-2.3-2.65-2.9-.32-.2-1.07.25-.63.49,1.01.49,1.84,1.28,2.36,2.27.37,1.07-.54,1.95-.97,2.82s-.79,2.14-2.06,2.27c-1.45,0-2.88-.38-4.16-1.07-.28-.12-.8.14-.62.48,1.27,2.29-2.14,2.54-3.51,2.51-2.15-.09-4.29-.3-6.41-.64-1.05-.25-2.12-.42-3.2-.49-.46.08-.92.18-1.37.32-1.2.26-2.41.44-3.63.52-5.17.36-9.61-2.64-13.88-5.29-.46-.42-1.08-.63-1.7-.6l-4.27.23-9.61.51c-.47,0-.62.66-.06.64h-.04Z"/>
        <path class="cls-26" d="M85.74,196.58s-33.87-18.49-43.78-4.21c-9.91,14.28-1.07,28.61,3.1,32.61,8.39,8.07,37.89,20.8,55.6,26.09,17.71,5.29,40.07,7.41,40.07,7.41l12.36-24.12s-56.77-28.78-67.33-37.78Z"/>
        <path class="cls-43" d="M125.49,255.77c-9.77-1.23-19.4-3.37-28.77-6.41-8.49-2.5-16.81-5.53-24.93-9.07-2.23-1-4.91-2-6.74-3.68-.33-.32-1.21.19-.78.59,1.68,1.34,3.55,2.42,5.55,3.2,3.51,1.64,7.11,3.08,10.74,4.43,9.38,3.54,18.97,6.5,28.72,8.86,5.22,1.3,10.51,2.26,15.85,2.88.5.05,1.07-.67.35-.75v-.06Z"/>
        <path class="cls-10" d="M132.07,182.04l-25.7,2.26-.95-21.19-.78-2.6c-2.38-8.08-14.22-6.69-14.67,1.74v.35c-.28,7.48-.26,16.45-.11,19.85s.48,10.68,3.08,13.01c2.6,2.33,7.28,3.66,11.89,2.92,4.09-.75,8.13-1.72,12.11-2.92l14.59-5.69.56-7.74Z"/>
        <path class="cls-39" d="M95.32,197.54c1.99.97,4.19,1.43,6.41,1.35,2.47-.16,4.91-.57,7.29-1.21,3.61-.85,7.25-1.92,10.75-2.99.49-.16,0-.21-.25-.13-3.08.96-6.19,1.85-9.32,2.63-2.4.67-4.86,1.14-7.34,1.4-2.36.19-4.73-.25-6.87-1.27-.18-.09-.74.21-.68.23h0Z"/>
        <path class="cls-15" d="M88.87,180.81l19.79-1.7-4.5-35.55c-5.12,1.66-9.39,5.26-11.89,10.03-4.75,9.43-3.41,27.22-3.41,27.22Z"/>
        <path class="cls-2" d="M106.3,179.4h2.4c.09,0,.41,0,.41-.17.32-5.19.22-10.4-.3-15.57-.49-4.16-.97-8.12-3.45-11.64-.09-.13-.53.07-.5.13,2.48,3.52,2.96,7.48,3.45,11.64.52,5.18.62,10.39.3,15.58l.42-.17h-2.39c-.11,0-.57.21-.33.2h0Z"/>
        <path class="cls-39" d="M101.78,189.08c1.07-1.79,2.22-3.88,4.35-4.5.14,0,.34-.16.3-.33s-.3-.18-.43-.14c-2.4.68-3.75,2.85-4.91,4.89-.1.16.07.28.21.3.19.02.38-.06.48-.22h0Z"/>
        <path class="cls-40" d="M264.37,143.09l-11.83,64.42c-.34,1.86-2.14,4.39-3.93,4.06l-.21-.05-46.99-10.58,13.24-69.59,46.51,7.3c2.05.23,3.51,2.08,3.28,4.13,0,0,0,0,0,0-.03.12-.04.21-.06.31Z"/>
        <path class="cls-27" d="M218.79,132.42l-4.56,23.49-7.23,37.31-1.67,8.54c0,.09.29,0,.31,0l4.55-23.49,7.23-37.31,1.67-8.54c0-.09-.29,0-.3,0h0Z"/>
        <path class="cls-16" d="M207.93,159.88c-.81,0-1.59.27-2.23.77-.62.4-1.21.83-1.77,1.29-1.13.87-1.97,2.06-2.4,3.42-.1.37.72.28.8-.06.37-1.17,1.09-2.2,2.06-2.95.46-.38.95-.74,1.45-1.07.51-.45,1.14-.73,1.82-.8.2.02.4-.07.51-.25.09-.17-.06-.31-.23-.32v-.03Z"/>
        <path class="cls-30" d="M260.58,145.39l-9.92,58.05c-.29,1.68-1.76,3.95-3.28,3.65h-.18l-40.46-8.37,12.22-63.89,38.93,6.59c1.71.21,2.94,1.87,2.75,3.71,0,0,0,0,0,.01-.01.09-.03.17-.05.26Z"/>
        <path class="cls-1" d="M260.5,145.39l-10.68,58.05c-.31,1.68-1.89,3.95-3.53,3.65h-.19l-39.36-8.37,11.93-63.85,38.9,6.59c1.84.21,3.17,1.86,2.96,3.71,0,0,0,0,0,.01,0,.07-.01.14-.02.21Z"/>
        <path class="cls-35" d="M223.32,141.61c-.02.98.77,1.78,1.75,1.8.11,0,.23,0,.34-.03.75-.19,1.47-.48,2.14-.87,1.32-.46,1.74.2,2.51,1.07.54.61,1.16,1.17,2.03.91s1.07-.99,1.87-.83,1.32.89,1.91,1.25c.69.5,1.61.54,2.34.11.68-.31,1.07-.49,1.61.05.23.21.38.53.6.77.36.43.86.72,1.41.82.53.08,1.07,0,1.55-.26.82-.45,1.36-1.48,2.39-.81s1.22,1.76,2.14,2.3c1.41.81,2.46-.95,3.73-.45,1.07.41,1.37,2.02,2.72,1.53.41-.14.28-.64-.13-.5-.75.27-1.53-1.14-2.14-1.47-.32-.19-.7-.27-1.07-.22-1.07.15-1.69,1.27-2.8.57-.51-.42-.94-.92-1.3-1.47-.58-.69-1.27-1.35-2.23-1.07-1.19.33-1.68,1.91-3.14,1.07-.74-.44-1.07-1.33-1.82-1.71-.38-.19-.82-.19-1.2,0-.56.25-.83.8-1.62.64-.42-.15-.8-.38-1.12-.69-.81-.6-1.74-1.37-2.8-.87-.23.11-.41.36-.63.47-1.07.48-1.23.12-1.77-.5-.35-.46-.77-.87-1.24-1.21-.39-.24-.86-.32-1.31-.21-.4.12-.79.3-1.14.53-.83.42-2.96,1.3-2.89-.73,0-.37-.67-.29-.68,0v.02Z"/>
        <path class="cls-35" d="M230.79,148.28c.37,1.18,1.56,1.9,2.78,1.67.69-.26,1.41-.43,2.14-.52.73,0,1.07.8,1.59,1.22,1.07.87,1.94.05,2.9-.44,1.22-.62,1.64,1.31,2.71,1.57.29.06.8-.35.4-.45-.99-.23-1.17-1.6-2.26-1.75-.48-.03-.95.1-1.35.36-.56.33-1.12.88-1.76.42-.47-.32-.74-.87-1.23-1.16-.44-.25-.96-.32-1.45-.2-.66.23-1.33.41-2.02.52-.85-.02-1.58-.59-1.82-1.41-.09-.3-.77-.12-.67.18h.04Z"/>
        <path class="cls-10" d="M145.59,182.75l.99-.15c-.68-.99-1.19-1.9-1.88-2.88-1.5,0-2.76-.18-3-.13-.45.09-8.24,2.42-13.99,2.65s-14.27,1.22-14.27,1.22c-4.44.84-8.15,3.86-9.88,8.03,5.94-.43,22.69-2.92,24.28-2.14,1.07.54,2.32,2.14,3.47,3.09.4.4.9.7,1.44.87,1.53.35,6.83-.15,6.83-.15-.65,1.42,1.41,2.38,1.41,2.38,2-1.07,5.6-.44,6.3-1.36.45-.81.68-1.74.64-2.67.2-.1.41-.17.63-.21,1.32-.26,1.39-2.36,1.12-2.67-.2-.22-.44-.41-.69-.57,0,0,.64-.41.88-.53.66-.58.78-1.57.27-2.3-1.47-.91-3-1.74-4.56-2.48Z"/>
        <path class="cls-10" d="M157.54,183.42l-7.73-3.26c-1.28-.13-4.69-.47-6.25-.47.5,1.07.97,2.19,1.46,3.3h3.57c2.02.85,5.82,2.39,7.7,1.98s1.25-1.55,1.25-1.55Z"/>
        <path class="cls-39" d="M156.05,185.08c.33-.06.65-.16.95-.3.32-.13.61-.33.84-.59.2-.2.23-.5.09-.74-.22-.26-.51-.45-.84-.53-.38-.14-.77-.22-1.14-.37-.14-.05-.29-.05-.43,0,0,0-.29.13-.19.17.29.12.6.2.9.3.33.08.63.22.91.42.2.15.28.42.19.66-.13.23-.33.4-.57.51h-.34c-.06,0,.06,0,0,0h-.07c-.09.01-.17.04-.26.07,0,0-.13,0-.14.1s.22.05.27,0l-.16.3Z"/>
        <path class="cls-39" d="M139.69,193.44c.79-.36,1.64-.56,2.51-.59.42,0,.83.07,1.23.21.38.17.78.28,1.2.34.29,0,.28-.43,0-.45-.44-.09-.87-.21-1.28-.38-.43-.13-.87-.18-1.31-.16-.89.05-1.76.26-2.56.64-.27.11,0,.49.22.38h0Z"/>
        <path class="cls-39" d="M147.92,191.49c-.07-.53-.31-1.03-.69-1.41-.4-.35-.84-.66-1.31-.91-.73-.45-1.5-.81-2.32-1.07-.27-.1-.38.34-.12.43.74.23,1.46.55,2.14.94.79.49,1.77.97,1.9,2.01,0,.29.48.29.45,0h-.04Z"/>
        <path class="cls-39" d="M149.38,187.81c-.14-.14-.29-.26-.45-.37-.29-.22-.58-.44-.88-.64-.71-.51-1.45-.98-2.21-1.4-.3-.18-.63-.31-.97-.4-.28,0-.4.38-.12.44.27.05.53.16.77.3.37.18.72.38,1.07.61.68.43,1.36.9,2.01,1.39.17.11.33.24.48.38.19.22.5-.1.31-.31h-.01Z"/>
        <path class="cls-10" d="M273.17,159.03h0c-.55.87-1.7,1.12-2.57.57-.1-.06-.19-.13-.27-.21l-2.77-2.58c-.84-.87-.94-2.22-.23-3.2h0c.57-.87,1.73-1.11,2.6-.55.09.06.17.12.25.2l2.76,2.6c.84.87.94,2.21.23,3.19Z"/>
        <path class="cls-10" d="M272.53,162.23h0c-.2,1.05-1.22,1.75-2.27,1.55-.07-.01-.14-.03-.2-.05l-3.81-1.44c-1.11-.51-1.67-1.76-1.32-2.93h0c.21-1.05,1.23-1.73,2.27-1.52.08.02.17.04.25.07l3.82,1.45c1.07.52,1.6,1.73,1.27,2.87Z"/>
        <path class="cls-10" d="M273.47,153.6h0c-.5.89-1.63,1.21-2.52.71-.05-.03-.1-.06-.15-.1l-1.82-1.67c-.72-.88-.69-2.16.07-3h0c.5-.89,1.62-1.21,2.51-.71.05.03.1.06.14.09l1.82,1.68c.71.88.68,2.15-.06,3Z"/>
        <path class="cls-10" d="M270.16,166.13h0c-.27,1.22-1.19,1.99-2.04,1.71l-2.14-.7c-.96-.53-1.41-1.68-1.07-2.72h0c.27-1.22,1.19-1.99,2.04-1.71l2.14.7c.96.53,1.41,1.68,1.07,2.72Z"/>
        <path class="cls-1" d="M163.79,23.56c-1.72-5.72-6.22-9.38-15.11-11.85-16.3-4.54-22.69,1.13-22.69,1.13-1.76.11-3.5.47-5.16,1.07-6.41,2.29-9.01,7.85-10.25,13.61C38.69,47.59-3.3,122.15,16.79,194.02c20.08,71.88,94.63,113.87,166.51,93.79,71.88-20.08,113.87-94.63,93.79-166.51-14.64-52.41-59.3-90.93-113.3-97.72v-.02Z"/>
        <path class="cls-32" d="M137.83,118.64s3.86.7,5.2.33,1.98-1.81,1.98-1.81c0,0-.1-.55-1.6-.91s-3.92-.65-5.58,2.39Z"/>
        <path class="cls-32" d="M121.01,118.26s2.86.81,5.54.69,4.32-.43,4.32-.43c0,0-2.23-2.48-4.12-2.53s-4.41.57-5.73,2.26Z"/>
        <ellipse class="cls-13" cx="142.6" cy="117.56" rx="1.55" ry="1.54" transform="translate(-7.71 225.08) rotate(-75.08)"/>
        <path class="cls-19" d="M144.46,116.36c-.96-.59-2.09-.84-3.2-.72-2.39.15-3.55,3.13-3.55,3.13.81-1.32,2.15-2.23,3.68-2.48,1.35.06,2.66.42,3.84,1.07-.13-.42-.41-.77-.78-1Z"/>
        <ellipse class="cls-14" cx="126.54" cy="117.41" rx="1.55" ry="1.54" transform="translate(-19.49 209.46) rotate(-75.08)"/>
        <path class="cls-19" d="M130.86,118.53s-2.25-3.2-4.89-3.03c-3.72.21-4.39,1.74-5.14,2.92,1.44-1.3,3.27-2.1,5.2-2.29,2.61-.09,4.83,2.4,4.83,2.4Z"/>
        <path class="cls-32" d="M132.98,49.26s4.84,2.08,7.29,1.97,5-.71,5-.71c0,0-3.66-2.51-4.95-2.73-1.76-.31-6.38.06-7.35,1.46Z"/>
        <path class="cls-32" d="M154.27,51.94s4.4,2.36,6.85,1.99c1.93-.29,2.13-1.33,2.13-1.33,0,0-1.08-1.92-2.32-2.09-1.3-.18-5.01.5-6.66,1.43Z"/>
        <path class="cls-19" d="M140.59,48.41c-.6-.32-1.33-.26-1.87.15-.25.19-.44.44-.57.73-.19.53-.09,1.13.25,1.58.07.09.15.16.23.23,0,0,1.32.23,1.81.12.69-.15.93-1.08.79-1.8-.07-.41-.3-.78-.64-1.01"/>
        <path class="cls-19" d="M159.88,53.97c-.68-.04-1.02-.28-1.25-.92-.34-.8.04-1.73.84-2.07.04-.02.08-.03.12-.05.64-.23,1.35-.04,1.78.49.46.67.4,1.57-.14,2.18-.28.3-.38.4-.79.41"/>
        <path class="cls-19" d="M154.2,51.97s3.11-2.04,5.03-1.83c2.81.31,3.39,1.07,4.1,2.53-.93-.99-2.17-1.64-3.51-1.85-1.89-.16-5.62,1.14-5.62,1.14Z"/>
        <path class="cls-19" d="M145.28,50.53s-3.67-2.86-5.6-3.1c-2.8-.35-6.3.97-7.35,2.22,0,0,4.66-2,6.62-1.7s6.32,2.57,6.32,2.57Z"/>
        <path class="cls-25" d="M131.6,46.42l.46,2.14c.41,2.04,1.05,4.04,1.91,5.94.64,1.32,9.32,2.87,11.16,2.14s3.37-5.54,3.97-6.62l3.47.63c.14,1.51.67,6.29,1.26,7.01s4.61,1.07,5.07,1.13.9.09,1.47.11c1.53.07,3.4.05,4.03-.42.94-.72,2.23-3.72,3.37-6.56l.19-.45c0-.11.09-.18.09-.21h0l.2-.51c-4.75-2.98-11.41-3.42-15.76-1.07h0l-3.39-.62c-3.56-2.99-10.05-5.18-15.03-3.96h0l-13.75,2.04-.2,1.27,11.47-1.98ZM154.3,57.22c-.36-.45-.84-3.81-1.13-6.41,3.78-2.01,9.77-1.6,14.05.8v.06c-.62,1.53-2.24,5.6-3.2,6.29s-9.09,0-9.74-.73l.02-.02ZM135.08,54.32c-1.22-2.46-2.03-5.1-2.4-7.82,4.46-1.36,12.11.69,15.59,3.55-.85,1.96-2.04,5.46-3.35,6-1.89.79-9.44-.9-9.84-1.73Z"/>
        <path class="cls-34" d="M234.74,186.04c-8.97-1.69-18.01-2.34-25.26-2.05l-2.75,14.73,40.37,8.36h.18c1.53.3,3-1.98,3.28-3.65l2.07-12.13c-5.71-2.13-12.15-4.16-17.89-5.25Z"/>
        <g>
          <path class="cls-31" d="M230.43,194.11h0c-.1-.03-.21-.06-.3-.12.09.05.19.09.3.12Z"/>
          <path class="cls-23" d="M242.11,196.39c-.29,1.56-6.09,1.82-12.94.56-6.86-1.26-12.21-3.55-11.92-5.1s6.09-1.82,12.95-.56c6.87,1.26,12.2,3.55,11.91,5.1Z"/>
          <path class="cls-24" d="M222.04,187.38c.3,1.46-.29,3.3.9,4.45.61.59,1.33,1.05,2.14,1.32.73.21,1.51.21,2.24,0,1.07-.45,1.38-3.01,1.56-4.04.28-1.48.17-3.76-1.07-4.77-.98-.78-2.14-.69-3.32-1-.79-.22-2.3-2.25-2.55-1.07-.26,1.7-.22,3.42.11,5.1Z"/>
          <path class="cls-24" d="M239.12,190.52c-.8,1.25-.91,3.2-2.42,3.84-.78.34-1.63.5-2.49.47-.77-.06-1.52-.34-2.14-.81-.84-.8-.22-3.32,0-4.34.28-1.48,1.17-3.58,2.73-4.07,1.2-.38,2.29.13,3.47.23.81.07,2.94-1.29,2.78-.13-.37,1.7-1.02,3.32-1.93,4.79Z"/>
          <path class="cls-24" d="M236.28,187.63c-.4.03-.75-.24-.83-.63-.09-.44.18-.87.62-.96.21-.1.4-.23.58-.37.28-.21.57-.4.89-.56,1.18-.49,2.44-.8,3.72-.91,1.07-.08,2.15-.03,3.2.15l1.19.15c1.5.14,3.31-.19,3.75-1.28.3-.74.2-1.58-.27-2.22-.29-.33-.27-.84.06-1.13s.84-.27,1.13.06c.88,1.1,1.1,2.59.56,3.9-.8,1.98-3.41,2.46-5.34,2.26l-1.25-.15c-.94-.17-1.9-.22-2.85-.14-1.1.08-2.18.34-3.2.77-.2.11-.4.24-.58.38-.35.3-.76.52-1.21.66h-.16Z"/>
          <path class="cls-24" d="M227.38,172.27c2.78-1.58,9.19-.47,11.59,1.91,2.63,2.63,3.31,12.13.83,14.61s-16.86.15-17.81-3.27c-1.09-3.77,2.19-11.46,5.39-13.25Z"/>
          <path class="cls-24" d="M225.96,177.88c-5.06-1.07-8.91-5.19-9.61-10.32-.29-2.14,2.7-2.67,3.27-.15.85,3.71,3.61,4.57,7.1,5.2,2.14.38,1.28,5.64-.8,5.26h.04Z"/>
          <path class="cls-24" d="M238.06,179.57c4.93,1.5,10.28-.25,13.37-4.38,1.26-1.7-1.07-3.64-2.79-1.72-2.54,2.83-5.34,2.25-8.74,1.07-2-.68-3.84,4.27-1.85,4.98v.05Z"/>
          <path class="cls-38" d="M229.51,172.13c1.88-1.3,6.12-.58,7.66,1.25,1.68,2.01,1.91,9.48.2,11.49s-11.2.51-11.75-2.14c-.64-2.97,1.75-9.13,3.89-10.6Z"/>
          <path class="cls-24" d="M230.77,154.97c-.27,1.45-2.78,3.04-4.27,2.79s-2.29-3.27-2.02-4.72c.27-1.45.58-1.82,2.03-1.55s4.53,2.03,4.26,3.48Z"/>
          <path class="cls-38" d="M230.48,155.92c-.5,1.24-1.72,2.04-3.05,2.01-1.07-.19-1.64-2.36-1.45-3.4s.42-1.32,1.46-1.13,3.24,1.47,3.04,2.52Z"/>
          <path class="cls-24" d="M241.68,156.97c-.26,1.45,1.53,3.83,2.98,4.1s3.29-2.24,3.56-3.69c.27-1.45.11-1.91-1.35-2.14s-4.92.28-5.19,1.73Z"/>
          <path class="cls-38" d="M241.61,157.95c.03,1.33.88,2.51,2.14,2.96,1.07.19,2.37-1.61,2.56-2.66s.07-1.38-.97-1.57-3.53.22-3.73,1.27Z"/>
          <path class="cls-24" d="M229.09,154.11c3.35-1.75,11.16-.4,14.09,2.36,3.2,3.02,4.18,13.88,1.21,16.65-2.97,2.77-20.44,0-21.65-3.97-1.31-4.3,2.51-13.02,6.35-15.04Z"/>
          <path class="cls-38" d="M238.37,169.58c-.42,2.24-2.47,2.31-4.89,1.87s-4.33-1.24-3.91-3.47,2.88-4.67,5.34-4.22,3.87,3.59,3.46,5.82Z"/>
          <path class="cls-24" d="M235.03,162.93c.76.14,1.36,2.88,1.14,3.03-1.21-.02-2.41-.22-3.57-.6,0,0,1.67-2.57,2.42-2.43Z"/>
          <path class="cls-32" d="M231.42,162.83c-.18.97-.92,1.66-1.67,1.52-.82-.29-1.26-1.18-1.01-2.01.18-.97.93-1.64,1.67-1.52.82.29,1.26,1.18,1.01,2.01Z"/>
          <path class="cls-7" d="M230.15,162.21c-.59-.18-1.22.13-1.44.7-.1.71.39,1.36,1.09,1.46.67.1,1.3-.34,1.45-1-.02-.61-.49-1.11-1.1-1.16Z"/>
          <path class="cls-7" d="M232.72,165.75c-.29-.47,0-.75.69-.62l2.19.4c.67.13.87.5.42.83-.57.43-1.2.79-1.86,1.07-.29-.05-1.44-1.68-1.44-1.68Z"/>
          <path class="cls-20" d="M230.97,159.98c-.5-.27-1.11-.24-1.59.06-.22.15-.4.35-.5.6v.11c.07,0,.14,0,.2,0,.15,0,.28-.09.35-.21.04-.08.09-.15.14-.21l.05-.05c.05-.05,0,0,0,0h0l.09-.09h0s.07,0,0,0h0s-.07,0,0,0h.47s.08.04.12.06c.07.02.14.02.2,0,.08,0,.16-.03.23-.07.09-.05.18-.16.06-.23l.17.04Z"/>
          <path class="cls-32" d="M241.26,164.64c-.18.97-.93,1.66-1.67,1.52-.84-.27-1.32-1.16-1.07-2.01.18-.97.92-1.64,1.66-1.52.85.26,1.33,1.16,1.08,2.01Z"/>
          <path class="cls-7" d="M240.01,164c-.59-.16-1.21.14-1.44.72-.06.71.47,1.34,1.18,1.39.62.05,1.18-.34,1.35-.94-.01-.61-.48-1.12-1.09-1.17Z"/>
          <path class="cls-20" d="M240.1,162.17h.23s.12,0,0,0h.33c.05,0,0,0,0,0,.06.05.11.11.15.17h0s.04.09.05.14c.04.11.07.22.07.33,0,0,.07.09.12.1.08.02.16.02.23,0,.12,0,.28-.11.26-.26-.02-.38-.22-.72-.53-.92-.24-.13-.51-.2-.78-.18h-.04c-.13,0-.32.07-.35.22s.18.17.28.15l-.02.25Z"/>
          <path class="cls-38" d="M230.58,170.21l1.14,1.93.19-.54c.41.49.86.95,1.35,1.37.02-.27.11-.53.26-.76.05.19.13.38.22.56.02.06.07.11.14.13.05,0,.1,0,.14-.07l.65-.62c-.07.19-.1.49.11.53s.22-.09.31-.18c.3-.33.67-.6,1.07-.8.1,0,.21-.11.23-.21s-.22-.29-.43-.31c-.75-.07-1.47-.29-2.14-.63"/>
          <path class="cls-38" d="M225.58,182.68c.15.91.59,1.74,1.25,2.38v-.36l1.2,1.07v-.56c.57.52,1.19.98,1.85,1.39,0-.22.07-.54.3-.5.07,0,.13.04.17.09l.38.3c.1.09.21.15.34.17.12,0,.24-.03.34-.1l1.07-.48-.07.59c.58-.07,1.15-.21,1.71-.4l-.07.51c.53-.15,1.04-.37,1.51-.65l-.1.72c.72-.48,1.36-1.07,1.88-1.76.22-.29.44-.69.26-1.07-.2-.23-.48-.36-.78-.37-.71-.11-1.42-.16-2.14-.16"/>
          <path class="cls-38" d="M227.16,193.53c-1.41.06-2.8-.29-4.02-.99-.14-.06-.26-.15-.36-.26-.24-.38-.13-.88.24-1.12.01,0,.02-.01.03-.02.4-.21.85-.3,1.3-.27.72-.04,1.44.05,2.14.26.71.24,1.23.85,1.36,1.59,0,0,.31.72-.69.81Z"/>
          <path class="cls-38" d="M236.09,195.32c-1.41.06-2.8-.29-4.02-1-.14-.05-.27-.13-.37-.25-.24-.38-.13-.88.24-1.12.01,0,.02-.01.03-.02.4-.21.85-.3,1.3-.27.72-.05,1.45.04,2.14.26.72.23,1.24.85,1.36,1.59,0,0,.31.72-.68.81Z"/>
          <path class="cls-7" d="M231.37,158.2s3.01.19,4.22,2.02c1.39-.73,3.01-.87,4.51-.4,0,0-1.07-1.62-4.27-.66,0,0-2.04-2.17-4.45-.96Z"/>
          <path class="cls-7" d="M230.82,156.27s3.68-.06,5.15,2.14c1.57-.89,3.45-1.07,5.16-.48,0,0-1-1.9-4.89-.76-1.46-1.35-3.59-1.71-5.41-.9Z"/>
          <path class="cls-7" d="M231.17,154.38s3.68-.07,5.15,2.14c1.57-.89,3.45-1.07,5.16-.48,0,0-1-1.9-4.89-.76-1.46-1.36-3.59-1.71-5.41-.9Z"/>
          <path class="cls-7" d="M223.92,160.9s.98,3.33,3.2,4.67c0,0-2.94-.34-3.94-2.58.08-.74.33-1.46.74-2.08Z"/>
          <path class="cls-7" d="M222.49,166.01c1.44.98,3.15,1.47,4.89,1.4,0,0-2.72,1.42-4.87.22-.07-.54-.07-1.08-.02-1.62Z"/>
          <path class="cls-7" d="M246.11,165s-1.98,2.72-4.52,3.2c0,0,2.86.72,4.6-1.07.12-.71.09-1.44-.09-2.14Z"/>
          <path class="cls-7" d="M245.81,170.26c-1.69.4-3.46.26-5.05-.42,0,0,2.14,2.29,4.53,1.93.21-.49.38-1,.52-1.52Z"/>
          <polygon class="cls-32" points="230.85 162.17 230.18 163.2 231.28 162.55 230.85 162.17"/>
          <polygon class="cls-32" points="240.64 164.09 239.97 165.13 241.08 164.49 240.64 164.09"/>
          <path class="cls-7" d="M224.73,155.36c.1-1.03.37-2.04.78-2.99.92-.24,1.88-.3,2.82-.19-.94-.71-2.13-.99-3.29-.77,0,0-1.37,1.33-.31,3.95Z"/>
          <path class="cls-7" d="M247.22,159.39c.27-1,.38-2.04.33-3.08-.78-.54-1.65-.94-2.57-1.16,0,0,1.21-.58,3.35.44,0,0,.8,1.74-1.11,3.8Z"/>
          <path class="cls-20" d="M228.66,162.08l-.9-.21c-.06-.02-.13-.02-.19,0-.08.01-.16.04-.23.07-.05.02-.1.05-.13.1v.07l.9.21h.19c.08-.01.16-.04.23-.07.05-.02.1-.05.13-.1,0,0,0-.06-.05-.07h.05Z"/>
          <path class="cls-20" d="M242.82,164.66l-.9-.22c-.07-.01-.14-.01-.2,0-.08.02-.16.04-.23.07-.05,0-.21.13-.07.16l.9.21c.06.01.13.01.19,0,.08,0,.16-.03.23-.07.05,0,.21-.12.09-.15h0Z"/>
          <path class="cls-7" d="M225.11,172.25c-.76.51-1.37,1.21-1.78,2.03,0,0-.59-.76.23-2.51l1.55.48Z"/>
          <path class="cls-7" d="M223.11,171.54c-.83.34-1.57.89-2.14,1.59,0,0-.41-.87.77-2.39l1.37.8Z"/>
          <path class="cls-7" d="M221.29,170.31c-.92.03-1.81.29-2.6.77,0,0-.09-.94,1.53-2l1.07,1.23Z"/>
          <circle class="cls-38" cx="217.99" cy="167.89" r=".85"/>
          <circle class="cls-38" cx="216.91" cy="167.02" r=".36"/>
          <circle class="cls-38" cx="217.76" cy="166.43" r=".36"/>
          <circle class="cls-38" cx="218.74" cy="166.68" r=".36"/>
          <path class="cls-7" d="M241.26,175.04c.43.81.64,1.71.62,2.63,0,0,.87-.4.97-2.32l-1.59-.31Z"/>
          <path class="cls-7" d="M243.47,175.45c.59.7.99,1.54,1.16,2.43,0,0,.76-.57.45-2.48l-1.61.04Z"/>
          <path class="cls-7" d="M245.61,175.35c.79.46,1.45,1.11,1.91,1.9,0,0,.53-.79-.4-2.49l-1.52.59Z"/>
          <circle class="cls-38" cx="249.65" cy="174.78" r=".85"/>
          <circle class="cls-38" cx="251.02" cy="174.53" r=".36"/>
          <circle class="cls-38" cx="250.55" cy="173.61" r=".36"/>
          <circle class="cls-38" cx="249.57" cy="173.35" r=".36"/>
          <path class="cls-7" d="M221.7,184.84c.94-.18,1.83-.54,2.63-1.07-.89.18-1.8.18-2.69,0,0,.36.02.71.06,1.07Z"/>
          <path class="cls-7" d="M222.13,190.07c.94-.18,1.83-.54,2.63-1.07-.89.18-1.81.18-2.7,0-.02.4.03.74.07,1.07Z"/>
          <path class="cls-7" d="M237.9,193.15c-.82-.49-1.52-1.14-2.08-1.91.76.49,1.62.82,2.52.97-.13.32-.28.63-.44.94Z"/>
          <path class="cls-7" d="M222.8,178.59c.91.28,1.86.39,2.81.3-.87-.25-1.69-.67-2.39-1.25-.16.31-.3.63-.42.95Z"/>
          <path class="cls-7" d="M222.04,181.57c.94.13,1.9.06,2.82-.19-.91-.09-1.78-.37-2.57-.82-.11.33-.19.67-.25,1.01Z"/>
          <path class="cls-7" d="M240.33,188.14c-.82-.49-1.52-1.14-2.08-1.91.77.49,1.62.82,2.52.97-.14.29-.28.64-.44.94Z"/>
          <path class="cls-7" d="M241.53,181.9c-.95-.05-1.88-.29-2.73-.7.9.07,1.81-.04,2.67-.33.04.34.06.69.06,1.04Z"/>
          <path class="cls-7" d="M241.26,184.97c-.93-.21-1.8-.61-2.56-1.17.88.23,1.79.28,2.69.15-.02.34-.07.69-.13,1.03Z"/>
          <g class="cls-29">
            <rect class="cls-7" x="242.25" y="183.91" width="2.73" height="1.94" transform="translate(42.83 415.57) rotate(-86.16)"/>
            <rect class="cls-7" x="246.15" y="183.72" width="1.94" height="2.73" transform="translate(-19.93 30.14) rotate(-6.71)"/>
            <rect class="cls-7" x="249.05" y="182.16" width="1.94" height="2.73" transform="translate(-32.23 312.09) rotate(-60.77)"/>
            <rect class="cls-7" x="248.45" y="179.24" width="2.73" height="1.94" transform="translate(-46.02 94.4) rotate(-19.63)"/>
          </g>
          <path class="cls-9" d="M232.15,168.66c.01.89.62,1.67,1.48,1.89.88.14,1.76-.32,2.14-1.13,0,0-1.68-.29-1.75-.88-.57.32-1.26.37-1.87.12Z"/>
          <path class="cls-7" d="M233.88,168.47h0s-.1,0,0,0l-.18.09h-.65c-.22-.04-.41-.14-.58-.29-.28-.27-.49-.6-.61-.96-.06-.17-.52,0-.46.12.16.65.65,1.16,1.28,1.37.45.09.92.03,1.33-.18.1-.05.19-.1.28-.16.07,0,.14-.13,0-.19-.1-.05-.23-.05-.33,0l-.09.21Z"/>
          <path class="cls-7" d="M236.73,168.46c-.41.69-1.31.91-1.99.49-.2-.12-.37-.29-.49-.49v.07l.22-1.25c0-.21-.43-.16-.47,0l-.15.83c0,.17-.13.4,0,.54.35.51.94.81,1.56.79.66-.07,1.27-.39,1.71-.9.05-.05.05-.13,0-.18-.02-.02-.04-.03-.06-.03-.11-.03-.24,0-.32.09v.03Z"/>
        </g>
      </g>
    </g>
  </g>
</svg>