<?xml version="1.0" encoding="UTF-8"?>
<svg id="Layer_6" data-name="Layer 6" xmlns="http://www.w3.org/2000/svg" xmlns:xlink="http://www.w3.org/1999/xlink" viewBox="0 0 292.89 301.99">
  <defs>
    <style>
      .cls-1 {
        fill: none;
      }

      .cls-2 {
        fill: #87664e;
      }

      .cls-3 {
        fill: #755346;
      }

      .cls-4 {
        fill: #231f20;
      }

      .cls-5 {
        fill: #98554a;
      }

      .cls-6 {
        fill: #070808;
      }

      .cls-7 {
        fill: url(#linear-gradient);
      }

      .cls-8 {
        fill: #f1eef7;
      }

      .cls-9 {
        fill: #ce8d2a;
      }

      .cls-10 {
        clip-path: url(#clippath-1);
      }

      .cls-11 {
        fill: #ca5844;
      }

      .cls-12 {
        fill: #fff;
      }

      .cls-13 {
        fill: #0a0808;
      }

      .cls-14 {
        fill: #661f0f;
      }

      .cls-15 {
        fill: #dbb28f;
      }

      .cls-16 {
        fill: #4f2f26;
      }

      .cls-17 {
        fill: #161412;
      }

      .cls-18 {
        clip-path: url(#clippath);
      }
    </style>
    <clipPath id="clippath">
      <path class="cls-1" d="M574.16,61.91c-13.28-13.28-28.63-23.21-45.01-29.82C519.16,13.14,499.28.22,476.38.22s-44.41,14-53.95,34.22c-14.33,6.53-27.77,15.68-39.56,27.47-52.82,52.82-52.82,138.47,0,191.29,52.82,52.82,138.47,52.82,191.29,0,52.82-52.82,52.82-138.47,0-191.29Z"/>
    </clipPath>
    <clipPath id="clippath-1">
      <path class="cls-1" d="M290.65,144.33c0-4.83-3.91-8.74-8.74-8.74-.37,0-.73.03-1.08.07-4.29-27.4-16.99-53.75-38.1-74.86-16.22-16.22-35.53-27.47-56.03-33.76C176.99,10.85,159.27,0,139.02,0c-23.26,0-43.17,14.31-51.44,34.6-13.3,6.44-25.77,15.17-36.81,26.21C-2.24,113.82-2.24,199.76,50.77,252.77c53.01,53.01,138.95,53.01,191.96,0,27.46-27.46,40.69-63.75,39.7-99.72,4.58-.27,8.22-4.06,8.22-8.71Z"/>
    </clipPath>
    <linearGradient id="linear-gradient" x1="142.03" y1="258.8" x2="154.36" y2="-12.39" gradientUnits="userSpaceOnUse">
      <stop offset=".3" stop-color="#bbe5f5"/>
      <stop offset="1" stop-color="#77c5da"/>
    </linearGradient>
  </defs>
  <g class="cls-18">
    <rect class="cls-2" x="280.32" y="250.03" width="479.05" height="67.85"/>
  </g>
  <path class="cls-17" d="M215.54,82.54c-.84.4-1.76.61-2.69.59-.71.07-1.43-.07-2.07-.41-.58-.33-.87-1-.73-1.64.09-.28.2-.56.33-.83.17-.42.3-.85.4-1.29.03-.16-.31-.04-.33.09-.17.66-.39,1.3-.66,1.92-.17.43-.12.91.12,1.3.68,1.14,2.19,1.14,3.35,1.05.83-.06,1.65-.28,2.4-.66.22-.06.1-.27-.05-.18l-.07.05Z"/>
  <path class="cls-17" d="M218.77,80.07c.59-.07.73.84.74,1.25.04.27-.03.54-.19.76-.29.29-.69.46-1.1.48-.52-.03-1.03-.12-1.53-.27-.08,0-.16.02-.23.06,0,0-.15.12-.09.12.5.15,1.01.25,1.53.28.49-.04.97-.21,1.38-.49.31-.2.52-.53.55-.9.02-.33-.02-.66-.12-.97-.09-.32-.32-.61-.7-.56-.09,0-.17.03-.25.07,0,0-.1.11.02.08l-.02.07Z"/>
  <g class="cls-10">
    <circle class="cls-7" cx="146.65" cy="157.08" r="135.73"/>
    <path class="cls-3" d="M157.56,193.03l.12-.09v.06l-.12.02Z"/>
    <path class="cls-15" d="M196.36,204.6l1.07-4.71c-1.76,2.87-6.56,6.44-6.64,6.35s-1.65-.72-1.67-.73c-6.11,10.48-13.3,25.75-4.13,34.19,7.99,4.58,20.22,5.37,31.7-9.29.89-1.07,8.84-12.88,10.81-16.62-6.52-6.19-23.94-3.86-31.13-9.19Z"/>
    <path class="cls-6" d="M91.23,50.08s-6.62,27.21,4.12,41.26,50.15,22.84,61.63,15.19,16.2-38.31,9.56-44.55c-6.64-6.25-75.31-11.9-75.31-11.9Z"/>
    <path class="cls-6" d="M91.63,71.45s-10.05,5.1-11.71,15.59c-1.65,10.49,4.91,19.47,18.11,23.72s32.34,3.06,33.68-4.43,3.99-19.38-2.35-23.84c-6.34-4.46-37.74-11.03-37.74-11.03Z"/>
    <path class="cls-15" d="M113.46,82.57s2.94,17.59-3.59,29.83c-.91,1.71-11.59,5.27-11.59,5.27l8.89,7.51c7.2,6.12,19.59,15.76,29.05,15.91,5.37.09,12.88-3.96,17.33-4.94l2.34-11.19-10.05-6.55c-.19-2.27,2.15-17.98,2.15-17.98"/>
    <path class="cls-15" d="M182.56,159.47c-6.32,1.2-12.66,2.32-18.95,3.68-4.29.93-8.58,1.97-12.88,3.22-1.87.61-3.69,1.36-5.45,2.23.13.38.25.76.39,1.14,5,14.58,11.41,29.34,17.7,43.43,2.8,5.82,6.29,11.28,10.4,16.27,3.62,4.71,8.17,8.64,13.37,11.52,5.46,2.77,10.73-.34,16.57-1.56,1.75-.35,1.2-24.99-.3-27.9-9.28-18.33-15.88-40.52-20.84-52.03Z"/>
    <path class="cls-11" d="M180.96,194.88c1.16,6.63,1.87,14.89-1.72,20.95-1.65,3.01-3.86,5.68-6.51,7.86-2.51,1.96-5.82,3.83-7.02,6.98-1.07,2.91,3.4,51.51,6.81,65.1-19.33,3.89-39.07,5.33-58.75,4.29-37.05-2.36-60.09-17.08-60.09-17.08,6.44-30.93,15.51-44.62,15.51-44.62l-1.07-41.47-9.58-43.15c1.97-17.36,17.6-28.16,33.12-33.93l14.92-5.81s11.8,22.64,32.34,20.39c20.54-2.25,7.51-15.82,7.51-15.82,0,0,20.12,6.72,24.86,10.73,4.74,4.01,14.37,14.71,17.17,28.2,1.96,9.06,5.04,17.83,9.17,26.13,1.07,2.25-17.17,7.91-17.17,7.91"/>
    <path class="cls-6" d="M182.32,50.14s2.66-31.59-22.69-33.56c-10.48-6.21-22.91-8.22-34.81-5.62-19.85,4.41-32.5,17.17-35.22,52.23-2.71,35.06,92.71-13.05,92.71-13.05Z"/>
    <path class="cls-6" d="M102.36,59.47c3.61,8.58,11.8,14.89,20.69,18.52,8.89,3.63,18.6,5,28.15,6.35l11.69.65c5.7-5.67,11.8-9.13,15.24-16.28,2.45-6.17,3.9-12.69,4.29-19.32.38-6.44-3.31-14.07-6.21-19.85-2.62-4.85-6.84-8.64-11.93-10.73-5.13-2.32-7.96-4.29-15.44-5.48-12.73-2.09-25.73,1.52-35.57,9.86-10.12,8.21-15.9,24.32-10.89,36.27Z"/>
    <path class="cls-16" d="M146.35,115.09c-1.84-.89-3.74-1.66-5.69-2.29-2.74-.86-7.46-.91-19.82-11.91,0,0,3.29,12.98,19.43,16.46,1.84.55,3.78.7,5.69.44l.39-2.7Z"/>
    <path class="cls-15" d="M176.27,51.3c.82,3.24.94,6.61.35,9.89-.86,5.44-2.35,11.49-2.81,13.83-.41,2.45-.64,4.94-.68,7.43-.09,4.83-.24,6.08-1.99,10.73-1.36,3.85-3.45,7.41-6.16,10.46-3.22,3.81-7.38,6.92-11.4,10-2.65,2.03-3.22,2.25-9.66,1.53-9.57-1.07-18.14-7.05-23.39-14.24l-6.18-11.06-.58-4.65c-5.57,4.45-7.81-3.62-7.43-5.03-1.35-3.31-5.91-14.65-1.36-18.24l.34-.45c1.89-1.26,4.16-1.32,5.24,1.22.32,1.07.75,2.15,1.07,3.22.63,1.67,1.42,3.28,2.35,4.8.77-2.88,1.36-5.81,1.77-8.77.21-2.82,3.11-10.73,8.4-14.06,0,0,1.14-9.9,3.68-12.58l.8-.19c.46.06.75.25,1.21.31,0-.15-.12-.32-.08-.61.62.27,1.3.41,1.97.41-.13-.17-.42-.35-.4-.5.6.15,1.22.23,1.85.24-.14-.16-.41-.49-.39-.64.73.4,1.23.16,1.85.24-.14-.18-.22-.4-.23-.63.57.27,1.19.41,1.82.39-.14-.16-.25-.48-.39-.64.73.4,1.23.16,1.85.24.16,0-.27-.33-.25-.48.49.19,1,.3,1.52.34,0-.14-.28-.33-.26-.48.64.24,1.33.33,2.01.27l-.39-.65c.49.45,1.15.64,1.8.54-.13-.17-.4-.5-.38-.65.67.54,1.55.76,2.4.59-.16,0-.41-.49-.39-.64.57.51,1.33.77,2.09.72-.13-.16-.25-.48-.52-.82.75.75,1.83,1.06,2.87.82-.14,0-.23-.39-.23-.57s-.08-.3.26-.32c0,0,1.7.82,1.72.68.56.52-1.3-2.71-.53-2.62-.12-.31,4.38.85,4.11.52.7.69.58.36,1.52.33,0,0,2.96,2.15,2.83,2.02.16.26.44.42.75.44,0,0,11.46,10.59,17.57,17.36Z"/>
    <path class="cls-9" d="M110.48,83.75c-1.73-.1-3.28,1.05-3.68,2.74-.15.81.03,1.64.49,2.32.31.44.74.77,1.24.97,1.04.45,2.22.4,3.22-.13.11,0,.18-.16.06-.24s-.35,0-.46.08c-1.16.53-2.53.22-3.35-.75-.86-1.13-.81-2.72.13-3.79.53-.58,1.28-.89,2.06-.85.12,0,.36,0,.43-.18s0-.16-.17-.16h.02Z"/>
    <path class="cls-17" d="M126.02,46.5l-2.81,4.99c-3.26,5.8-5.67,12.04-7.15,18.52l-.42,1.85c-.04.31-.32.52-.63.48-.2-.03-.37-.16-.45-.35l-2.84-6.1s1.83-20.4,14.29-19.39Z"/>
    <path class="cls-4" d="M109.63,69.88c-1.19.52-2.04,1.61-2.25,2.9-.39,1.17-.43,2.42-.12,3.61.26,1.01,1.07,3.13,2.46,2.89,1.17-.19,1.29-1.59,1.07-2.51-.12-.63-.36-1.26-.45-1.9-.1-.84.35-.93,1.07-.85.17,0,.52-.1.45-.32-.6-2.22-1.42-4.38-2.44-6.44-.53-1-1.23-2.15-2.49-2.15-1.59-.11-2.32,1.63-2.55,2.92-.32,1.87-.05,3.8.76,5.52.14.28.79.09.67-.18-.56-1.19-.86-2.48-.89-3.79,0-1.07.32-4.52,2.15-3.92,1.07.34,1.58,1.6,2.01,2.5.53,1.16.99,2.34,1.4,3.55.26.73.49,1.47.71,2.21l.45-.32c-.79-.1-1.92,0-2.03.97s.45,1.92.54,2.87c0,.42,0,1.21-.47,1.4s-1.07-.74-1.27-1.07c-.67-1.17-.92-2.53-.71-3.85.21-1.18.65-3.08,1.96-3.49.4-.12.29-.57-.12-.45l.1-.08Z"/>
    <path class="cls-6" d="M111.46,37.61c1.71-11.36,20.16-13.08,29.75-13.08,6.18.17,15.39,6.32,20.71,9.53,1.67-1.55-14.73,15.19-48.18,18.96l-.14,8.27s-3.83-12.32-2.14-23.68Z"/>
    <path class="cls-17" d="M150.53,61.97c0-.09-.35-.19-.32-.28-3.8-1.97-7.84-3.41-12.03-4.29-1.33-.15-2.67-.11-3.99.12,0,0-3.62.56-4.16,1.07s2.05.25,2.05.25c.49-.03.97-.03,1.46,0,2.95.42,5.86.48,8.65,1.57,2.65,1.21,5.18,2.64,7.58,4.29.21-.92.47-1.83.77-2.73Z"/>
    <path class="cls-17" d="M177.97,66.74c-.02-.1-.05-.19-.08-.29h0c-.73-.45-1.5-.83-2.3-1.15-3.98-1.17-8.1-1.81-12.24-1.92-.23,1.07-.3,1.36-.54,2.41,2.3-.16,4.61-.06,6.89.29,2.75.34,5.47.93,8.11,1.75.12-.21,0,0,.08-.23.04-.15.08-.31.1-.46,0-.14,0-.27-.02-.41Z"/>
    <path class="cls-13" d="M150.55,95.34c-1.97-.31-10.34-1.7-10.34-1.7,0,0,2.09,7.51,9.24,8.68,4.31.83,8.59-1.6,10.1-5.72l-8.99-1.27Z"/>
    <path class="cls-8" d="M150.65,95.63c-1.97-.32-7.93-1.62-7.93-1.62,0,0,1.81,2.55,7.74,3.5s8.14-.89,8.14-.89l-7.95-.99Z"/>
    <path class="cls-17" d="M160.3,84.04c.13.69.27,1.38.39,2.07.08.48.16.96.23,1.44.06.33.09.66.08,1-.17,1.01-1.62,1.26-2.43,1.31-1.07.08-2.15.05-3.22-.1-1.35-.07-2.66-.44-3.85-1.07-.17-.12-.56.13-.34.27,1.08.59,2.26.96,3.49,1.07,1.22.2,2.45.26,3.68.19,1.02.04,2.01-.35,2.74-1.07.54-.67.29-1.5.17-2.29-.15-.99-.34-1.97-.54-2.96,0-.23-.48-.11-.44.12l.05.02Z"/>
    <path class="cls-17" d="M148.32,84.9c-.5,0-1,.15-1.42.43-.4.3-.67.75-.75,1.24-.07.29-.07.58,0,.87.08.23.21.43.39.6.44.35.97.59,1.52.69.7.21,1.42.3,2.15.28.09,0,.29,0,.33-.12s0-.08-.11-.08c-.68.02-1.37-.08-2.02-.29-.6-.1-1.16-.4-1.57-.86-.29-.52-.29-1.16,0-1.68.19-.51.67-.86,1.21-.89.12,0,.24-.03.34-.1.08,0,.08-.1,0-.1h-.09Z"/>
    <path class="cls-14" d="M179.53,172.65c-1.71,2.51-2.35,5.6-1.77,8.58.49,3.48,1.38,6.91,2.01,10.37.12.67,1.48.31,1.36-.36-.58-3.22-1.29-6.32-1.87-9.49-.54-2.95-.44-6.16,1.42-8.66.53-.7-.75-.97-1.15-.44h0Z"/>
    <path class="cls-15" d="M222.18,222.19c10.75-16.03,29.34-52.45,29.34-52.45-5.27-3.77-10.1-1.23-11.89-5.76l-40.53,41.11c2.79,12.37,16.79,11.1,23.08,17.11Z"/>
    <path class="cls-15" d="M231.74,171.67l6.77-8.19s2.28-7.98,3.95-9.95,10.11-7.72,10.58-7.86,6.65-11.34,8.99-10.77,3.83,2.38,2.9,5.49-6.71,8.96-5.34,10.13c1.11.82,2.36,1.42,3.7,1.76,0,0,.96-3.58,3.05-4.56,1.33-.58,2.83-.63,4.2-.14l-.08,2.85,2.76-1.64s2.05-7.12,5.18-6.84c.86-1.52,2.03-2.85,3.42-3.91,1.27-.8,2.94-.41,3.74.86.14.22.25.46.32.72h0l-7.01,16.06-16.93,15.75s-9.72,1.55-11.63,2.28-8.39,13.53-9.04,12.79c-3.74-4.55-6.93-9.52-9.51-14.82Z"/>
    <path class="cls-16" d="M238.51,164.47c.15.4.34.78.57,1.14.24.34.53.63.88.86.98.63,2.04,1.13,3.15,1.49.22.07.47.04.66-.09.11-.07.3-.27.08-.35-1.07-.35-2.09-.83-3.05-1.43-.32-.21-.59-.47-.82-.78-.22-.36-.41-.74-.55-1.14-.13-.32-1.04,0-.92.25v.05Z"/>
    <path class="cls-5" d="M151.41,95.34c-4.46-.73-12.6-1.67-12.6-1.67,0,0,.53,10.37,10.87,12.04,10.34,1.67,12.65-8.91,12.65-8.91,0,0-6.46-.74-10.92-1.46Z"/>
    <path class="cls-13" d="M151.45,95.34l-11.12-1.86c1.61,4.26,5.38,7.34,9.88,8.06,8.33,1.35,10.9-4.84,10.9-4.84l-9.67-1.36Z"/>
    <path class="cls-8" d="M151.48,95.68c-2.15-.34-8.51-1.76-8.51-1.76,0,0,1.93,2.79,8.29,3.82s8.77-.99,8.77-.99l-8.55-1.07Z"/>
    <path class="cls-5" d="M162.66,96.59c-.59-.07-1.17-.18-1.74-.34-1.76-.6-2.47-1.38-3.72-1.7-2.15-.53-3.67.14-4.61,0s-2.15-1.27-4.38-1.45c-1.29-.1-4.14.41-5.92.28-1.07-.09-3.55-.16-3.79-.14s.84,1.44,12.71,3.36,11.76.11,11.46-.01Z"/>
    <path class="cls-16" d="M256.76,166.6c1.04-2.12,2.33-4.11,3.83-5.93.7-.62,1.28-1.36,1.72-2.19.31-.9.56-1.82.73-2.76.38-1.99.98-3.94,1.78-5.81.39-.98,1.11-1.79,2.04-2.28,1.07-.39,2.23-.43,3.32-.11l-.18-.21c-.31,5.66-1.46,11.24-3.42,16.56-.11.32.81.21.92-.11,1.96-5.31,3.11-10.89,3.42-16.55,0-.13-.07-.18-.18-.21-1.77-.51-3.68-.22-5.21.8-1.63,1.25-2.28,3.52-2.76,5.41-.31,1.14-.57,2.28-.84,3.42-.13.51-.24,1.03-.39,1.53-.25.72-.68,1.36-1.24,1.86-1.76,1.97-3.24,4.18-4.4,6.55-.22.39.72.31.87,0v.03Z"/>
    <path class="cls-16" d="M271.45,157.45c.91-3.59,1.85-7.23,3.05-10.73.37-1.09.88-2.13,1.51-3.1.33-.65.95-1.12,1.68-1.24.74,0,1.48.06,2.21.19l-.17-.14c-1.14,4.11-1.96,8.27-3.08,12.37-.06.24.84.11.92-.15,1.14-4.11,1.96-8.27,3.08-12.37,0-.1-.09-.14-.17-.14-1.4-.16-2.83-.44-4.13.32-1.06.81-1.85,1.9-2.28,3.16-.71,1.74-1.29,3.53-1.75,5.35-.64,2.2-1.24,4.4-1.81,6.62-.06.25.86.11.92-.14h.02Z"/>
    <path class="cls-16" d="M256.05,149.4c1.18.28,2.28.81,3.23,1.56.15.13.44,0,.59,0s.41-.19.26-.31c-.98-.78-2.11-1.34-3.33-1.63-.22-.04-.45,0-.65.1-.09,0-.32.24-.1.3v-.02Z"/>
    <path class="cls-15" d="M89.48,179.99l-5.5-50.2s-21.54,8.67-26.81,25.75c-4.38,18.17-2.47,72.63-1.02,84.11,2.25,18.04,23.7,57.34,52.96,95.93l16.56-6.44-39.51-92.26,3.31-56.9Z"/>
    <path class="cls-11" d="M91.43,121.32s-25.56,5.69-32.56,20.06c-7,14.37-6.93,46.14-6.93,46.14,0,0,31.02,4.41,47.04.39,16.02-4.02-7.55-66.59-7.55-66.59Z"/>
    <path class="cls-14" d="M78.67,133.19c4.29,0,7.75,3.17,10.14,6.37,2.1,2.94,3.63,6.24,4.51,9.74,2.06,7.51,2.15,15.39,2.22,23.08v16.59l.76-.5-7.3.31c-.72,0-1.07.9-.16.86l7.31-.31c.21,0,.76-.2.76-.5-.12-9.45.27-18.97-.44-28.42-.56-7.33-1.88-15.19-6.33-21.26-2.59-3.51-6.44-6.86-11.01-6.82-.57,0-1.42.87-.5.86h.04Z"/>
    <path class="cls-1" d="M284.66,140.91c-.07-.24-.17-.46-.3-.68-.56-.9-1.62-1.35-2.66-1.14-7.39-56.48-49.23-102.36-104.8-114.9-3.38-4.6-8.58-8.18-16.58-8.8-10.48-6.21-22.91-8.22-34.81-5.62-12.02,2.67-21.4,8.4-27.52,20.29C28.08,57.18-6.61,135.83,20.5,205.73c27.11,69.9,105.75,104.6,175.66,77.49,52.23-20.25,86.65-70.5,86.67-126.52,0-3.58-.14-7.11-.42-10.59l2.25-5.19Z"/>
    <path class="cls-16" d="M199.62,204.37c-1.29,1.87-2.12,4.02-2.43,6.27-.44,2.6-.4,5.26.1,7.84.09.38.97.15.87-.24-.48-2.54-.51-5.14-.09-7.68.31-2.19,1.12-4.28,2.37-6.11.26-.39-.63-.39-.83-.09h0Z"/>
    <path class="cls-12" d="M130.23,65.68s4.96,4.4,7.73,5.01,8.86.59,8.86.59c0,0-5.35-4.5-6.81-4.88s-6.84-.75-9.78-.71Z"/>
    <path class="cls-12" d="M161.04,73.99s6.06,2.61,9.24,1.51c1.91-.66,3.61-2.09,3.61-2.09,0,0-2.97-1.42-4.64-1.63-1.75-.23-6.25.9-8.2,2.21Z"/>
    <path class="cls-17" d="M160.81,74.09s3.55-3,5.96-3.15c3.18-.37,5.02.4,7.37,2.57-2.73-1.06-4.31-1.29-7.24-1.2-2.09.34-4.14.94-6.08,1.78Z"/>
    <path class="cls-17" d="M140.41,66.82c-.87-.52-1.95-.56-2.85-.11-.96.69-1.18,2.03-.49,2.99.02.03.04.06.06.08.57.69,1.52.96,2.37.65,1.02-.42,1.61-1.5,1.41-2.59,0-.17.17-.48-.49-.91"/>
    <path class="cls-17" d="M169.75,72.02c-.87-.52-1.94-.57-2.84-.11-.34.24-.61.57-.76.96-.26.72-.14,1.53.32,2.15.57.7,1.52.96,2.37.67,1.02-.42,1.61-1.5,1.41-2.59,0-.17.18-.48-.48-.92"/>
    <path class="cls-17" d="M147.08,71.46s-3.29-5.1-7.4-5.68c-3.29-.35-6.6-.38-9.89-.06,0,0,7.51,1.07,9.66,1.44s7.64,4.3,7.64,4.3Z"/>
  </g>
</svg>