<?xml version="1.0" encoding="UTF-8"?>
<svg id="Layer_1" data-name="Layer 1" xmlns="http://www.w3.org/2000/svg" xmlns:xlink="http://www.w3.org/1999/xlink" viewBox="0 0 292.89 301.99">
  <defs>
    <style>
      .cls-1, .cls-2, .cls-3 {
        fill: none;
      }

      .cls-4 {
        fill: #466fb6;
      }

      .cls-2 {
        stroke: #4f2f26;
        stroke-width: .14px;
      }

      .cls-2, .cls-3 {
        stroke-miterlimit: 10;
      }

      .cls-5 {
        fill: #281437;
      }

      .cls-6 {
        fill: #2f1644;
      }

      .cls-7 {
        fill: #603b8a;
      }

      .cls-8 {
        fill: #010101;
      }

      .cls-9 {
        fill: url(#linear-gradient-2);
      }

      .cls-10 {
        fill: #231f20;
      }

      .cls-11 {
        fill: #070808;
      }

      .cls-12 {
        fill: url(#linear-gradient);
      }

      .cls-13 {
        fill: #f2e21f;
      }

      .cls-14 {
        fill: #f1eef7;
      }

      .cls-15 {
        fill: #5a3016;
      }

      .cls-16 {
        fill: #171413;
      }

      .cls-17 {
        fill: #7c4c2a;
      }

      .cls-18 {
        fill: #0a2f44;
      }

      .cls-19 {
        fill: #486d34;
      }

      .cls-20 {
        fill: #662817;
      }

      .cls-21 {
        fill: #0c0b0b;
      }

      .cls-22 {
        fill: #fff;
      }

      .cls-23 {
        fill: #639e98;
      }

      .cls-24 {
        fill: #364d25;
      }

      .cls-3 {
        stroke: #000;
        stroke-width: .69px;
      }

      .cls-25 {
        fill: #f79325;
      }

      .cls-26 {
        fill: #4f2f26;
      }

      .cls-27 {
        fill: #b98354;
      }

      .cls-28 {
        fill: #311811;
      }

      .cls-29 {
        fill: #523936;
      }

      .cls-30 {
        fill: #161412;
      }

      .cls-31 {
        fill: #3c5c2d;
      }

      .cls-32 {
        fill: #123a4c;
      }

      .cls-33 {
        clip-path: url(#clippath);
      }
    </style>
    <clipPath id="clippath">
      <path class="cls-1" d="M242.21,61.61c-29.04-29.04-67.99-42.13-105.97-39.28-3.02-16.99-17.85-29.89-35.7-29.89-20.03,0-36.27,16.24-36.27,36.27,0,6.4,1.67,12.42,4.58,17.64-6.38,4.47-12.47,9.56-18.17,15.26-52.89,52.89-52.89,138.65,0,191.54s138.65,52.89,191.54,0c52.89-52.89,52.89-138.65,0-191.54Z"/>
    </clipPath>
    <linearGradient id="linear-gradient" x1="146.69" y1="157.36" x2="150.94" y2="-113.49" gradientUnits="userSpaceOnUse">
      <stop offset=".21" stop-color="#bbe5f5"/>
      <stop offset=".55" stop-color="#77c5da"/>
    </linearGradient>
    <linearGradient id="linear-gradient-2" x1="148.6" y1="311.37" x2="155.45" y2="148.73" gradientUnits="userSpaceOnUse">
      <stop offset=".01" stop-color="#75983e"/>
      <stop offset=".98" stop-color="#496c34"/>
    </linearGradient>
  </defs>
  <g class="cls-33">
    <circle class="cls-12" cx="146.69" cy="157.28" r="135.44"/>
    <path class="cls-19" d="M234.12,175.89c2.6-2.82,5.37-6.01,5.44-9.84.08-3.84-4.34-7.67-7.54-5.55.93-2.31.06-5.2-1.99-6.61-2.05-1.41-5.06-1.2-6.89.49-1.04-5.57-9.54-7.76-13.14-3.39.34-2.17-2.73-3.63-4.64-2.54s-2.57,3.57-2.41,5.77c-1.25-2.57-4.18-4.21-7.03-3.93s-5.4,2.46-6.13,5.22c-.27-2.43-.67-5.11-2.55-6.68-1.87-1.57-5.6-.68-5.55,1.76.56-3.45-1.36-7.16-4.51-8.7s-7.25-.76-9.63,1.81c-.46-3.38-1.73-6.91-4.53-8.86s-7.41-1.44-8.84,1.67c-1.62-2.65-4.21-5.07-7.31-5.06-3.1,0-5.98,3.68-4.3,6.28-2.29-3.83-9.44-2.32-9.99,2.11-1.65-2.56-5.09-3.8-7.99-2.89-2.9.91-5.02,3.89-4.92,6.93-2.89-1.78-6.9-1.49-9.5.68-2.61,2.17-3.61,6.06-2.39,9.22-8.68.69-15.94,23.65-12.56,31.68"/>
    <path class="cls-24" d="M169.43,192.21c-2.06-2.23-4.24-4.75-4.3-7.78-.06-3.03,3.43-6.07,5.96-4.39-.73-1.82-.05-4.11,1.57-5.23,1.62-1.12,4-.95,5.45.38.82-4.4,7.55-6.14,10.39-2.68-.27-1.72,2.16-2.87,3.67-2.01s2.03,2.83,1.91,4.56c.99-2.03,3.31-3.33,5.56-3.11s4.27,1.95,4.84,4.13c.22-1.92.53-4.04,2.01-5.28s4.43-.54,4.39,1.39c-.44-2.73,1.08-5.67,3.56-6.88,2.49-1.21,5.74-.6,7.61,1.43.36-2.68,1.36-5.47,3.59-7,2.22-1.54,5.86-1.14,6.99,1.32,1.28-2.09,3.33-4.01,5.78-4,2.45,0,4.73,2.91,3.4,4.97,1.81-3.03,7.46-1.83,7.9,1.67,1.3-2.02,4.02-3.01,6.32-2.29,2.3.72,3.97,3.07,3.89,5.48,2.28-1.41,5.45-1.18,7.51.54,2.06,1.72,2.86,4.79,1.89,7.29,6.86.55,11.87,8.79,9.2,15.14"/>
    <path class="cls-19" d="M52.68,181.09c2.59-2.83,5.34-6.03,5.41-9.86s-4.37-7.65-7.56-5.52c.92-2.31.04-5.2-2.01-6.61-2.05-1.41-5.06-1.18-6.89.51-1.06-5.56-9.57-7.73-13.16-3.35.33-2.17-2.75-3.62-4.65-2.53s-2.55,3.58-2.39,5.78c-1.26-2.56-4.2-4.19-7.04-3.9s-5.39,2.48-6.11,5.25c-.28-2.43-.69-5.1-2.57-6.67-1.88-1.56-5.61-.66-5.55,1.78.55-3.46-1.39-7.16-4.54-8.68s-7.26-.73-9.62,1.85c-.47-3.38-1.75-6.91-4.57-8.84-2.82-1.93-7.41-1.41-8.83,1.7-1.63-2.64-4.23-5.05-7.33-5.04-3.1.01-5.97,3.7-4.28,6.3-2.31-3.82-9.45-2.28-9.98,2.14-1.66-2.55-5.1-3.78-8-2.86-2.9.92-5,3.91-4.89,6.95-2.89-1.77-6.9-1.47-9.5.71-2.6,2.18-3.59,6.07-2.36,9.23-8.68.72-14.98,11.17-11.57,19.18"/>
    <path class="cls-24" d="M-2.3,185.45c-2.61-2.82-5.37-6.02-5.45-9.86-.08-3.84,4.35-7.68,7.55-5.56-.93-2.31-.06-5.21,1.99-6.62,2.05-1.41,5.07-1.2,6.9.49,1.04-5.58,9.56-7.78,13.16-3.4-.34-2.18,2.74-3.64,4.65-2.55,1.91,1.09,2.57,3.58,2.42,5.78,1.25-2.57,4.19-4.21,7.04-3.93,2.85.28,5.41,2.47,6.14,5.23.27-2.43.67-5.12,2.55-6.69,1.88-1.57,5.61-.68,5.56,1.77-.56-3.46,1.36-7.18,4.51-8.71,3.15-1.53,7.27-.76,9.64,1.82.46-3.39,1.73-6.92,4.54-8.87,2.81-1.95,7.42-1.44,8.85,1.67,1.62-2.65,4.22-5.07,7.32-5.07,3.11,0,5.99,3.69,4.31,6.29,2.3-3.83,9.45-2.32,10.01,2.11,1.65-2.56,5.09-3.81,8-2.9s5.03,3.9,4.92,6.94c2.89-1.78,6.91-1.49,9.52.68,2.61,2.17,3.62,6.07,2.39,9.24,8.69.69,15.04,11.13,11.66,19.17"/>
    <path class="cls-31" d="M-66.77,190.02c-2.07-2.22-4.26-4.73-4.33-7.77s3.41-6.08,5.95-4.41c-.74-1.82-.06-4.11,1.55-5.23,1.61-1.12,4-.96,5.45.36.8-4.41,7.52-6.17,10.38-2.72-.27-1.72,2.15-2.88,3.66-2.03s2.04,2.82,1.92,4.55c.98-2.03,3.3-3.34,5.55-3.13s4.28,1.93,4.86,4.11c.21-1.92.52-4.04,2-5.29s4.43-.55,4.4,1.38c-.45-2.73,1.06-5.67,3.54-6.89s5.73-.62,7.62,1.41c.35-2.68,1.34-5.47,3.56-7.02s5.85-1.16,6.99,1.29c1.27-2.1,3.31-4.02,5.77-4.03,2.45,0,4.74,2.89,3.42,4.96,1.8-3.03,7.46-1.86,7.91,1.64,1.3-2.03,4.01-3.02,6.31-2.31,2.3.71,3.98,3.06,3.91,5.47,2.28-1.41,5.45-1.2,7.52.51s2.87,4.78,1.92,7.29c6.86.52,11.91,8.75,9.26,15.1"/>
    <path class="cls-31" d="M369.33,180.21c2.43-2.63,5.01-5.61,5.09-9.2s-4.06-7.17-7.04-5.18c.87-2.15.05-4.86-1.86-6.18-1.91-1.32-4.73-1.12-6.44.45-.97-5.2-8.91-7.25-12.28-3.17.32-2.03-2.55-3.39-4.34-2.38s-2.4,3.34-2.25,5.39c-1.17-2.4-3.91-3.93-6.57-3.67-2.66.26-5.05,2.3-5.72,4.88-.25-2.27-.63-4.77-2.38-6.24-1.75-1.47-5.24-.64-5.19,1.65.53-3.23-1.27-6.69-4.21-8.12s-6.78-.71-8.99,1.7c-.43-3.16-1.61-6.46-4.24-8.27-2.62-1.82-6.92-1.34-8.25,1.56-1.51-2.47-3.93-4.73-6.83-4.73-2.9,0-5.59,3.44-4.02,5.87-2.14-3.57-8.82-2.17-9.33,1.97-1.54-2.39-4.75-3.55-7.46-2.7s-4.69,3.63-4.59,6.47c-2.7-1.66-6.44-1.39-8.88.63-2.43,2.03-3.38,5.66-2.23,8.62-8.11.65-14.03,16.42-10.88,23.92"/>
    <path class="cls-9" d="M402.14,295.85H-98.75v-115.9l155.25-1.59c19.94-.87,173.16-.52,193.1.32l152.54,1.26v115.9Z"/>
    <polyline class="cls-27" points="120.3 92.8 120.09 77.56 108.57 78.28 107.9 97.47 120.3 92.8"/>
    <path class="cls-27" d="M120.3,92.8s7.14,10.38,11.5,12.58l-3.01,8.04s-12.29-4.17-16.43-8.34-5.6-4.09-5.81-6.13c.03-2.12.3-4.23.83-6.29l12.91.15Z"/>
    <path class="cls-27" d="M129.66,104.03s5.49,3.2,6.31,3.26,3.97.51,3.76,3.63c0,0,1.74,2.43.15,4.46,0,0,.99,1.15-.24,3.08-.37.58-.97.99-1.65,1.12l-1.09.22s-.36,2.25-1.32,2.36c-.75.09-4.31.13-5.56-.79-.34-.24-.43-.72-.18-1.06.04-.05.08-.1.14-.15l1.15-.99c-.15-.36-.17-.76-.06-1.13,0,0-2.17.24-2.1-1.72.08-1.07,2.08-1.57,2.08-1.57,0,0-2.67.11-2.41-1.13l1.03-9.59Z"/>
    <path class="cls-26" d="M129.79,110.38c.05.17.07.34.08.51.04.45-.09.9-.38,1.26-.23.23-.46.45-.72.65-.15.15-.27.33-.33.53-.06.23-.05.47.04.69.19.41.57.7,1.02.78.44.11.89.1,1.32-.03.88-.25,1.62-.82,2.09-1.6.37-.64.57-1.37.57-2.11,0-.49-.09-.97-.24-1.43-.13-.31-.22-.47-.23-.45.16.61.23,1.24.22,1.87-.02.69-.22,1.36-.58,1.95-.44.7-1.12,1.21-1.91,1.43-.38.11-.79.11-1.17.03-.35-.05-.65-.27-.8-.59-.14-.29-.06-.64.18-.86.25-.22.49-.46.71-.71.3-.42.42-.94.32-1.45-.05-.36-.18-.51-.19-.5Z"/>
    <path class="cls-26" d="M137.32,111.37c-.22.31-.46.6-.71.87-.64.61-1.41,1.06-2.25,1.34-.96.35-1.87.58-2.51.88-.36.1-.7.27-1,.5.37-.05.74-.14,1.1-.27.65-.2,1.56-.41,2.54-.74.87-.31,1.65-.83,2.27-1.51.3-.29.5-.66.57-1.07Z"/>
    <path class="cls-21" d="M105.54,240.36c.19-.63.04-1.32-.41-1.81-.55-.37-1.16-.63-1.81-.76-1.74-.59-3.48-1.16-5.23-1.74l-1.39-.46c-.17-.05-.79.21-.56.29,2.63.87,5.28,1.66,7.86,2.64.76.32,1.13,1.18.86,1.95,0,.19.64.1.69-.11h0Z"/>
    <path class="cls-27" d="M44.69,218.06s8.4,18.27,11.79,20.88,5.78-1.78,5.78-1.78c0,0-4.52-8.57-6.27-14.18-.6-1.96,34.65-34.75,34.65-34.75l-16.77-10.72-26.21,39.38-2.97,1.17Z"/>
    <path class="cls-15" d="M64.27,242.45s1.74-1.07,1.07-2.22-4.52-7.11-5.14-7.41c-.29.39-.23.98-1.65.48-2.29-.89-4.32-2.34-5.9-4.22-1.91-2.05-5.66-6.73-6.8-9.36-.38-.88-.89-1.84-.89-1.84-2.94.68-6.31,4.8-5.77,6.28s7.25,6.02,7.25,6.02l4.61,5.36,5.12,4.11,2.26,1.58,2.67.74,3.16.48Z"/>
    <path class="cls-8" d="M39.13,223.69c1.26,1.54,2.7,2.93,4.29,4.14,5.02,3.81,6.9,5.17,8.23,6.93.75,1.04,1.57,2.02,2.47,2.94,5.19,5.36,10.4,4.36,10.59,4.36.02.14,0,.28-.06.41-.09,0-.91.13-1.89.15-1.7,0-5.36-.27-9.45-4.29-.92-.83-1.76-1.73-2.54-2.69-1-1.33-1.79-1.58-4.5-3.87l-1.6-1.32s-5.19-4.23-6.43-5.47c.81-1.45.9-1.3.9-1.3Z"/>
    <path class="cls-27" d="M90.62,231.09s17.65,11.7,22.17,12.28c4.51.58,4.17-4.37,4.17-4.37,0,0-8.79-5.17-13.47-9.2-1.64-1.4,11.65-47.03,11.65-47.03l-18.56.18-3.93,45.7-2.02,2.43Z"/>
    <path class="cls-15" d="M121.67,242.63s.95-1.79-.31-2.41-7.99-3.94-8.7-3.9c0,.48.34.96-1.21,1.23-2.56.34-5.17.08-7.61-.77-2.84-.84-8.79-3.04-11.27-4.76-.83-.58-1.81-1.17-1.81-1.17-2.25,2.03-2.98,7.26-1.67,8.26s9.82,1.66,9.82,1.66l7.12,2.42,6.85,1.07,2.9.25,2.79-.65,3.11-1.23Z"/>
    <path class="cls-8" d="M88.8,238.73c1.99.71,4.06,1.19,6.15,1.46,6.6.84,9.04,1.07,11.21,1.96,1.24.54,2.52.99,3.83,1.34,7.59,2.06,11.72-1.32,11.89-1.41.09.11.15.24.17.38-.52.39-1.05.75-1.61,1.07-1.5.86-4.94,2.39-10.83.91-1.28-.27-2.54-.63-3.76-1.07-1.63-.65-2.49-.48-6.17-1.14l-2.14-.36s-6.99-1.07-8.81-1.56c-.08-1.66.08-1.56.08-1.56Z"/>
    <path class="cls-27" d="M94.78,152.41c.74-9.19.78-18.4,1.48-27.59,4.92-.3,10.26-.99,16.21-1.78l2.44,7.97c.69,3.79-.49,20.17-.59,24.05l.69,34.11-11.01,35.51-.16-2.14c-3.16.33-6.36.09-9.44-.71l-1.49,3.73,2.92-36.44-3.29-34.8c1.14.1,2.14-.73,2.25-1.87,0-.01,0-.02,0-.04Z"/>
    <path class="cls-27" d="M69.32,182.49l-1.48-51.26,4.52-8.96c7.69,4.94,15.23,6.43,23.99,6.36-.61,9.01-.61,18.05-1.29,27.06-.07.65.16,1.29.64,1.73l-3.72,27.87c-.31,2.14-6.3,9.35-7.92,10.93l-22.13,19.89s-9.04-.89-8.47-8.11l15.85-25.51Z"/>
    <path class="cls-27" d="M189.08,163.64l-4.04-2.98,6.6-11.2,7.92-20.21,7.44,9.04s-6.51,14.45-7.72,16.36-10.2,9-10.2,9Z"/>
    <path class="cls-29" d="M181.11,128.75h0l-.11-.13.11.13Z"/>
    <path class="cls-27" d="M183.48,161.96s-2.24,3.22-3.16,4.89c-.25.44-.3.97-.14,1.45.37,1.18.8,2.35,1.3,3.48l3.15,1.4,2.43-1.48c.11-.39-.12-.79-.51-.89,0,0-.02,0-.02,0-.06-.01-.12-.01-.18,0-.69-.1-1.36-.31-1.98-.63l-.58-1.78,2.14-2.38,3.72-2.8-2.94-5.43-3.23,4.18Z"/>
    <path class="cls-26" d="M181.92,167.29c-.1.26-.17.52-.21.79-.23,1.28.27,2.59,1.31,3.38.41.32.87.56,1.37.71.47.12.96.17,1.45.16-.13.05-.26.07-.4.08-.36.03-.72,0-1.07-.09-.53-.13-1.03-.37-1.47-.71-.54-.41-.96-.95-1.21-1.58-.24-.63-.3-1.32-.17-1.98.04-.29.13-.57.25-.84l.16.08Z"/>
    <path class="cls-27" d="M189.69,163.18c.13,1.21.01,2.44-.33,3.61-.55,1.07-2.52,4.63-2.97,4.71s-1.21.32-1.37-.47.96-2.79.96-2.79v-2.26s-1.07-1.67-.33-2.55,3.27-1.17,4.04-.25Z"/>
    <path class="cls-26" d="M185.98,168.25c-.15.22-.27.46-.35.71-.08.23-.2.49-.31.79l-.16.48c-.07.18-.11.37-.11.57.01.2.08.4.2.57.13.15.31.24.5.26.32.01.62-.11.84-.34.2-.18.35-.42.43-.68,0,0-.19.25-.54.56-.19.18-.45.28-.71.26-.3-.05-.52-.31-.51-.62,0-.17.03-.33.09-.49l.16-.47.28-.78c.1-.26.16-.53.19-.8Z"/>
    <path class="cls-11" d="M110.34,37.02c.98,1.22,2.31,2.17,3.32,3.39,1.13,1.22,1.64,2.89,1.38,4.54-.26.85-.69,1.65-1.25,2.33-.86,1.16-1.82,2.24-2.87,3.23-.19.21-.44.37-.71.45-.55.1-1.04-.44-1.3-.91-.67-1.04-1.29-2.1-1.9-3.21-1.03-1.62-1.45-3.56-1.17-5.47.55-1.64,1.57-3.09,2.92-4.16"/>
    <path class="cls-11" d="M89.38,39.45c.17-.4.61-.62,1.03-.5,4.65,1.06,9.35.31,13.94-.67,3.06-.65,6.45-.96,9.26-2.41s4.36-4.5,5.18-7.38c1.2-4.42,1.19-9.09-.03-13.5-1.49-4.58-4.39-6.86-9.5-9.05-6.93-3.03-17.33-2.41-22.34,3.6-3.4,4.04-5.79,10.94-7.62,15.99l-.59,1.84c-.03.37.06.76.11,1.08.72,5.67,5.37,9.47,10.57,11.02Z"/>
    <path class="cls-27" d="M116.42,31.8c-.05-.15-.03-.41,0-.57.17-.69.37-1.37.61-2.04.3-1.05.69-2.96.9-3.99,0,0,.18-1.21.19-1.24.48-5.17-.74-7.08-.74-7.08-1.84-4.69-6.04-8.04-11.02-8.78-5.48-.74-11.01.91-15.17,4.54-1.7,1.49-2.78,3.56-3.05,5.81-.21,2.09-.24,4.2-.1,6.29-2-.49-3.77-.18-3.75,3.7.02,5.38,3.21,7.12,4.96,5.45,0,1.43-.07,2.86-.22,4.28-.24,2.13-.5,5.56-1.86,7.17l-2.68,1.94c1.21,3.31,4.25,17.57,7.26,20.25,2.72,2.46,3.94,1.65,8,.04,2.22-.9,5.97-10.75,8.58-13.7l-4.07-5.38.27-1.56c.63.14,1.28.19,1.92.15,4.9-.31,7.83-6.07,8.55-8.37.81-2.21,1.29-4.53,1.43-6.89h0Z"/>
    <path class="cls-7" d="M116.87,77.37c2.31-.45,4.27-1.98,5.26-4.12-2.08-5.76-.75-15.75-8.68-19.95-1.41-.7-7.04-4.75-9.21-4.83-.05.82.31,2.93.02,3.7-.84,2.12-1.42,2.43-3.68,2.68l.2,8.57h-1.07l-1.37-8.57c-6.1-.77-10.83-10.39-10.83-10.39-4.14,1.16-10.54,5.25-13.65,6.8-13.66,6.76-8.79,23.78-8.79,23.78,2.14,1.28,8.14,2.38,8.14,2.38-.77,3.66-1.8,7.25-3.05,10.77-4.37,9.61-7.11,19.89-8.11,30.4-2.14,25.91.76,59.79,0,66.96,3.82,2.85,4.29-1.07,9.78.63,5.49,1.7,6.21,1.9,9.97,0,3.76-1.9,6.9-1.26,11.79.63s8.79-.16,11.61-.32c2.82-.16,2.78,1.59,7.79,1.75s5.49-2.14,8.47-1.95c-.15-3.81-7.42-65.38-8.07-77.68-.19-5.12,3.49-31.24,3.49-31.24Z"/>
    <path class="cls-27" d="M216.3,233.48s-9.29,4.37-12.04,4.76-3.47,1.15-3.47,1.15c0,0,3.61-4.77,6.88-6.93.69-.45-4.9-24.22-7.67-35.25-1.16-4.59-1.05-9.4.31-13.93l10.44-.47,1.07,11.91.84,2.09c.69,1.39,1.3,2.82,1.81,4.29.64,3.13,1.59,7.29,1.67,8.93.15,2.77-.29,6.59-.27,7.57l-.24,12.15.66,3.75Z"/>
    <path class="cls-27" d="M246.82,222.46s-5.86,12.34-8.07,14-2.34-.09-2.34-.09c0,0,1.58-10.15,1.35-11.63-.12-.81-14.87-17.28-22.62-25.61-5.36-5.79-9.17-10.72-9.17-10.72l10.98-6.57,7.9,8.41,1.75,1.44c1.14.94,2.22,1.96,3.22,3.04,2.08,2.43,5.46,6.61,6.32,8,1.46,2.35,4.11,8.84,4.59,9.65l4.06,7.73,2.04,2.35Z"/>
    <path class="cls-26" d="M194.82,239.76c-.29.51-.29,1.13,0,1.64.47.98,6.9-.94,9.21-1s11.57-.26,13.73-1.07-.28-3.05-.28-3.05l-22.66,3.48Z"/>
    <path class="cls-26" d="M250.05,225.62s.34-.25,1.26.83c1.24,1.45-3.48,4.99-4.61,6.1s-4.03,5.48-6.69,7.82-6.8,2.99-7.78,2.35c-.68-.27-1.01-1.04-.74-1.71.04-.11.1-.21.17-.3.4-.71,16.82-15.27,16.82-15.27l1.56.19Z"/>
    <path class="cls-27" d="M244.26,219.71c1.21,1.35,2.5,2.62,3.87,3.79.79.77,2.48,1.43,2.09,2.78-.69,2.4-2.94,3.5-3.5,4.29-1.22,1.6-2.43,2.58-3.48,4.29-.73,1.31-1.68,2.48-2.81,3.47-.2.21-.45.37-.73.44-.18,0-.38,0-.56.06-.65.14-.98.93-1.55,1.29-.26.14-.55.26-.84.33-.74.3-1.46.66-2.14,1.07-.68.41-1.45.62-2.24.61-.76-.02-1.39-.6-1.47-1.35,0-1.13,1.02-1.31,1.7-1.97.54-.52.97-1.15,1.26-1.84,1.07-2.14,1.17-2.49,2.08-4.23,1.31-2.5,2.43-5.09,3.37-7.75l-3.01-3.64"/>
    <path class="cls-26" d="M239.22,238.73c-.27.07-.54-.07-.65-.32-.11-.22-.13-.46-.06-.7.14-.48.34-.94.61-1.36,0-.09-.09-.16-.13-.08-.34.49-.57,1.06-.66,1.65-.03.27.06.53.24.73.18.21.47.3.74.2.09,0,0-.17-.08-.13h0Z"/>
    <path class="cls-26" d="M237.55,240.08c-.28.2-.58,0-.75-.26-.21-.22-.33-.52-.33-.83.06-.44.23-.86.49-1.22.13-.35.34-.67.6-.93.08-.06,0-.16-.11-.11-.3.31-.54.68-.72,1.07-.31.4-.45.9-.41,1.4.11.5.76,1.35,1.32.92.04-.02.05-.06.03-.1-.02-.04-.06-.05-.1-.03-.01,0-.02.02-.03.03v.05Z"/>
    <path class="cls-26" d="M236.11,240.64c-.38.08-.76-.1-.94-.44-.15-.29-.18-.63-.11-.94.07-.33.19-.66.35-.95.16-.3.34-.59.55-.87.06-.06,0-.17-.1-.1-.26.33-.47.69-.64,1.07-.18.33-.29.7-.34,1.07-.04.35.06.7.29.96.23.3.62.44.99.34.04.02.08,0,.1-.04.02-.04,0-.08-.04-.1-.02,0-.04,0-.06,0h-.04Z"/>
    <path class="cls-26" d="M234.78,241.37c-.43.11-.88,0-1.2-.3-.29-.28-.39-.7-.25-1.07.11-.38.28-.74.49-1.07l.27-.44c.1-.21.23-.39.39-.56.08-.05,0-.18-.08-.13-.17.16-.3.35-.4.56-.12.18-.24.36-.34.56-.25.39-.43.83-.53,1.29-.08.41.08.83.42,1.07.35.29.82.4,1.26.28.04,0,.07-.03.07-.08,0-.04-.03-.07-.07-.07l-.04-.03Z"/>
    <path class="cls-27" d="M214.97,228.96c.4,1.07,2.42,4.57,2.83,5.62.47,1.14-.07,2.45-1.22,2.93-.04.02-.08.03-.11.04-1.14.6-3.87.39-5.17.49-1.7.14-3.61.81-5.36.95-2.1.07-4.19.31-6.26.71-1.48.53-3.07.64-4.61.33-.28-.05-.45,0-.6-.2-.38-.45-.32-1.13.13-1.51.03-.03.07-.05.1-.08.85-.68,2.06-.06,2.83-.83.13-.15.27-.28.43-.4.36-.17.74-.27,1.14-.28,1.95-.24,1.69-1.07,4.17-2.02.73-.28,5.17-4.45,5.83-4.86"/>
    <path class="cls-26" d="M199.56,236.92c-.66.24-1.27.6-1.79,1.07-.42-.23-.91-.29-1.37-.17.44-.2.94-.2,1.38,0h-.1c.52-.5,1.17-.85,1.88-1.01v.11Z"/>
    <path class="cls-2" d="M232.62,238.72c1.55-1.07,4.29-8.15,4.29-8.15"/>
    <path class="cls-26" d="M235.27,233.39c-.4.33-.65.81-.7,1.33l-.25,3.22.4-.48.9-4.36-.35.3Z"/>
    <path class="cls-26" d="M234.44,237.85c-.06-.43.11-.87.45-1.15,1.87-2.02,6.6-5.81,9.71-3.22l-.53.92s-2.87-1.54-4.99-.14-4.64,3.58-4.64,3.58Z"/>
    <path class="cls-26" d="M198.49,237.4s2.4-1.13,2.73,2.21l1.49-.14s-.88-3.04-2.29-3c-.76-.03-1.48.32-1.93.93Z"/>
    <path class="cls-29" d="M61.07,78.05v.07s.15-.15.15-.15l-.15.07Z"/>
    <path class="cls-26" d="M104.47,46.97c-3.73-.58-7.21-2.28-9.96-4.87,0,0,.28,1.78,3.58,3.73,1.89,1.14,4.01,1.84,6.21,2.04l.17-.89Z"/>
    <path class="cls-16" d="M89.03,28.37s.01-.06,0-.1c-.09-.77-.37-1.51-.82-2.14-.23-.32-.51-.6-.82-.84-.31-.24-.66-.44-1.03-.58-.5-.23-1.05-.32-1.6-.26l-.28.06c-.55-4.68-.34-9.51,3.94-14.33,1.44-1.29,3.07-2.33,4.85-3.08,5.16-2.47,9.27-1.96,14.18-.54,5.7,1.63,10.43,6.36,10.68,12.47.07,1.47.59,3.68.19,5.1,0,0-.55-6.75-3.05-8.93s-3.44.18-7.42-.47c-4.6-.76-5.65-3.53-9.68-2.29-2.15.64-3.99,2.02-5.21,3.9-.88,1.91-2.04,3.07-1.9,5.46.03.57.04,1.14.04,1.71-.06,1.02-.22,2.03-.49,3.02-.15.5-.48.92-.94,1.17-.58.23-.16.92-.62.66Z"/>
    <path class="cls-10" d="M85.59,28.75c-.14-.69.01-1.41.41-1.99l-.19.05h.11c.16.11.3.23.41.37.61.8,1.07,1.71,1.35,2.68l.31-.08c-.18-.21-.43-.34-.7-.37-.3.03-.55.27-.59.57-.21.8.43,1.37,1.13,1.58.12,0,.37-.12.2-.18-.58-.09-1.02-.57-1.05-1.16-.01-.21.07-.41.22-.56.16-.1.41.14.51.25s.35.03.31-.08c-.24-.72-.55-1.41-.92-2.07-.18-.34-.42-.64-.7-.9-.11-.1-.24-.18-.38-.23-.2-.02-.31.08-.41.24-.33.59-.45,1.27-.32,1.93,0,.13.33.08.3-.05h.01Z"/>
    <path class="cls-17" d="M106.7,38.37c-1.78-.35-4.63-1.12-4.63-1.12,0,0-1.07,4.22,3.91,5.09,2.27.5,4.51-.94,5-3.2,0-.01,0-.02,0-.03,0,0-2.51-.38-4.29-.73Z"/>
    <path class="cls-28" d="M106.72,38.37c-.85-.16-4-.82-4-.82.5,1.61,1.9,2.77,3.58,2.97,3.33.65,4.01-1.25,4.01-1.25l-3.59-.9Z"/>
    <path class="cls-14" d="M106.69,38.69c-.84-.16-3.39-.81-3.39-.81,0,0,.75,1.07,3.29,1.58s3.52-.21,3.52-.21l-3.42-.55Z"/>
    <path class="cls-17" d="M110.96,39.06c0-.1-.16-.17-.57-.29-.69-.19-.88-.49-1.37-.62-.61-.1-1.23-.13-1.85-.09-.55-.27-1.14-.48-1.74-.62l-2.52-.19c-.34-.07-.67-.18-.99-.3-.13,0-.09,1.21,4.67,2.14s4.34.1,4.37-.03Z"/>
    <path class="cls-16" d="M88.21,20.63c.13-1.71.49-3.4,1.07-5.01.83-2.16,2.31-4.01,4.23-5.29,1.61-1.1,3.43-1.87,5.34-2.25,2.64-.27,4.06-.76,8.77.84,2,.69,2.37.42,4.1,1.61l2.48,2.44c-1.78,3.56-15.92,7.48-20.32,8.39-.4,1.55-.87,3.08-1.43,4.59-.21.73-.6,1.39-1.14,1.92-.67.78-1.49,1.23-2.08.73s-.79-2.56-.83-3.2c-.38-1.56-.45-3.17-.21-4.76Z"/>
    <path class="cls-30" d="M105.85,23.9s-.13-.09-.12-.13c-1.41-.81-2.95-1.37-4.56-1.64-.52-.02-1.05.05-1.54.21-.57.15-1.13.38-1.64.67-.22.25.79.06.79.06.19-.03.37-.04.56-.04,1.12-.02,2.23.12,3.31.43,1.01.5,1.97,1.11,2.85,1.82.14-.48.18-.93.35-1.38Z"/>
    <path class="cls-11" d="M111.12,25.29s.14.01.15-.07c1.43-.22,2.88-.16,4.29.19.43.18.82.45,1.15.78.41.36.77.78,1.08,1.23.08.31-.65-.26-.65-.26-.14-.09-.29-.17-.44-.24-.87-.44-1.82-.73-2.79-.85-.99.09-1.97.3-2.92.62.07-.48.17-.91.14-1.4Z"/>
    <ellipse class="cls-25" cx="92.94" cy="19.53" rx="1.09" ry="2.9" transform="translate(6.29 58.39) rotate(-36.02)"/>
    <path class="cls-6" d="M115.95,81.12s1.28-9.1,1.48-13.32c.04-.87,0-1.74-.1-2.6l-.11-8.72c1.5,2.16,2.74,4.49,3.69,6.95,1.93,4.69,1.85,16.67,1.85,16.67-2.17.83-4.49,1.17-6.81,1.02Z"/>
    <path class="cls-11" d="M81.41,31.14c.98,1.22,2.31,2.17,3.32,3.39,1.12,1.21,1.62,2.86,1.37,4.49-.25.86-.67,1.65-1.25,2.33-.86,1.16-1.82,2.25-2.87,3.24-.19.2-.43.36-.7.44-.55.11-1.04-.42-1.31-.91-.66-1.03-1.28-2.1-1.9-3.2-1.03-1.62-1.45-3.56-1.18-5.47.55-1.64,1.57-3.08,2.93-4.15"/>
    <path class="cls-11" d="M79.19,40.64c-.86,1.42-1.46,2.97-1.79,4.59-.32,1.67.11,3.39,1.16,4.71.81.9,1.9,1.48,3.1,1.64.13.04.27.05.41.03.12-.06.22-.14.31-.23,1.63-1.81,2.87-2.62,3.14-4.99.03-.72-.02-1.45-.15-2.16-.35-1.06-1.58-1.87-2.38-2.56"/>
    <path class="cls-11" d="M79.84,49.14c-.69,1.11-1.18,2.33-1.44,3.61-.24,1.33.12,2.69.98,3.73.67.69,1.55,1.14,2.5,1.27.11.04.22.04.33.03.1-.04.18-.11.25-.18,1.32-1.42,2.31-2.05,2.56-3.93.03-.36,0-.73-.08-1.08-.47-.99-1.13-1.87-1.95-2.6"/>
    <path class="cls-11" d="M80.53,57.27c-.5,1.04-1.41,3.12-.68,4,.83.77,1.59,1.61,2.28,2.51.38.73.65,1.51.8,2.32.69-1.64,1.24-3.34,1.66-5.08.07-.94-.04-1.88-.3-2.79-.47-.73-1.08-1.36-1.79-1.86-.34-.2.21.34-.19.31s-.49.27-.61.65"/>
    <path class="cls-11" d="M107.74,47.5c-.73,1.09-1.21,2.32-1.42,3.61-.32,1.66.11,3.38,1.17,4.7.8.91,1.9,1.49,3.1,1.65.13.04.27.05.41.03.12-.05.22-.14.3-.25,1.63-1.8,2.88-2.61,3.14-4.98.03-.74-.01-1.48-.13-2.21-.3-.96-1.53-1.77-2.32-2.45"/>
    <path class="cls-11" d="M108.68,55.53c-.69,1.11-1.18,2.34-1.44,3.62-.25,1.32.11,2.69.98,3.72.67.7,1.55,1.14,2.5,1.27.11.03.22.04.33.03.09-.04.17-.11.24-.19,1.33-1.41,2.31-2.05,2.57-3.92.03-.36,0-.73-.09-1.08-.47-.99-1.13-1.87-1.95-2.6"/>
    <path class="cls-11" d="M109.36,63.65c-.51,1.04-1.42,3.12-.68,4,.83.77,1.59,1.61,2.27,2.51.38.73.65,1.51.8,2.32.69-1.64,1.25-3.34,1.67-5.07.07-.94-.03-1.88-.3-2.79-.47-.73-1.08-1.36-1.79-1.86-.35-.21.21.33-.19.3s-.48.27-.6.66"/>
    <path class="cls-30" d="M110.37,33.75c.69,2.87-1.3,3.07-3.45,2.19-.61-.12.56.45.96.49,1.41.44,3.3-.3,2.83-1.98-.03-.22-.18-.97-.33-.8v.09Z"/>
    <path class="cls-30" d="M104.95,33.88c-.2-.05-.41.01-.55.16-.13.17-.21.37-.24.57-.05.19-.03.39.07.56.16.23.39.46.66.53.18.06.4.12.58.09.21.02.6-.05.82-.06,0,0-.03-.12,0-.12s0,0-.05,0c-.32.06-.64.09-.96.08-.25-.06-.49-.17-.68-.33-.26-.27-.31-.68-.13-1.01.03-.09.08-.17.15-.25.03-.04.06-.07.09-.09h0c.05.02.11.02.16.01,0,0,.09,0,0,0l.08-.14Z"/>
    <path class="cls-18" d="M219.31,209.31c-.61-.14-.14-.4-.75-.56l-2.74-5.19-3.22-28.6-4.29-14.83,28.47-.71.66,4.92c.55,4.12.52,8.31-.09,12.42l-2.43,14.7s2.14,10.49,2.23,12.55c-1.16,1.29-5.09,3.22-9.65,3.96"/>
    <path class="cls-18" d="M206.46,204.81c-2.6-.19-5.97-.59-7.87-2.14l-.8-39.32,14.43-3.9,4.77,43.8c-2.89.01-7.63,1.78-10.53,1.56Z"/>
    <path class="cls-3" d="M215.94,203.3l-3.62-26.36s-1.91-4.29-3.22-4.41"/>
    <path class="cls-27" d="M207.2,98.65c-.03-1.97.15-3.94.54-5.87,0-.79.1-1.69.16-2.8,0-.31.05-.62.08-.92.03-.15.05-.31.05-.46.2-2.83,1.1-5.57,2.6-7.97,2.54-3.34,6.66-5.09,10.83-4.58,4.57.64,8.64,3.22,11.18,7.07,1.03,1.58,1.44,3.49,1.15,5.36-.31,1.72-.76,3.42-1.35,5.07,1.73.06,3.37.83,2.48,3.93-1.22,4.29-4.15,5.42-5.36,4.12-.31,0-1.07,1.31-1.17,2.21-.28,1.74-.76,5.09,0,6.7l.21.24c-4.2,5.68-6.68,8.96-19.07,4.37l4.52-5.48.19-1.96c-.74,0-1.47-.16-2.14-.47-3.88-1.35-4.83-6.55-4.9-8.55Z"/>
    <path class="cls-23" d="M235.04,134.29c.28,2.53.41,5.07.4,7.61.05.27.85,12.93,2.14,23.12-1.9.64-3.85,1.11-5.83,1.39-3.78.39-9.04,1.47-12.86,1.13-3.4-.31-10.23-.46-13.6-.99-3.85-.6-4.64-1.48-8.3-3.38,1.51-8.05,3.15-18.93,3.55-22.71.43-4.18.24-2.47.24-2.47,0,0-4.75-.6-5.91-3.71,2.02-4.63,3.1-18.51,11.27-22.43,1.16-.56,5.97-2.41,7.71-2.36-.47.88-.71,1.86-.7,2.86,0,1.1.61,2.11,1.59,2.62,1.65.73,3.45,1.04,5.25.89,3.85-.56,6.99-4.19,8.5-6.5,2.88,1.22,5.68,2.63,8.38,4.22,9.31,4.79,6.68,18.96,6.68,18.96-1.71.93-8.5,1.74-8.5,1.74Z"/>
    <path class="cls-29" d="M178.25,133.48s0,.04,0,.06l.11-.14-.11.08Z"/>
    <path class="cls-26" d="M214.22,107.66c3.13.37,6.3-.2,9.1-1.66,0,0-.63,1.36-3.72,2.14-1.77.49-3.63.58-5.44.25l.06-.73Z"/>
    <path class="cls-10" d="M233.86,97.61c.24-.49.31-1.04.19-1.56,0-.11,0-.23-.16-.23-.46.06-.88.28-1.19.63-.48.46-.91.98-1.29,1.53h.23s.27-.14.4,0,.15.33.14.48c-.06.49-.49.85-.99.81h-.18s0,0,0,0c.62,0,1.36-.27,1.41-.98,0-.25,0-.54-.32-.57-.24-.01-.47.06-.66.19h.23c.32-.48.68-.92,1.07-1.34.21-.22.45-.42.71-.58.06-.04.13-.07.2-.1h.06v.13c.13.53.07,1.09-.17,1.58h.32Z"/>
    <path class="cls-17" d="M214.32,100.27c1.51.12,3.97.15,3.97.15,0,0-.09,3.6-4.29,3.22-1.93-.11-3.41-1.77-3.29-3.71,0,0,0-.02,0-.02,0,0,2.11.25,3.61.36Z"/>
    <path class="cls-28" d="M214.31,100.27c.72.06,3.39.25,3.39.25-.67,1.19-2.01,1.82-3.35,1.59-2.82-.23-3.11-1.92-3.11-1.92l3.08.09Z"/>
    <path class="cls-14" d="M214.26,100.6c.72,0,2.9.11,2.9.11-.97.4-2.02.52-3.05.35-2.14-.17-2.71-.78-2.71-.78l2.86.32Z"/>
    <path class="cls-17" d="M210.75,99.87c0-.08.17-.1.53-.1.6,0,.8-.2,1.24-.2.51.06,1.01.18,1.5.34.51-.09,1.02-.12,1.53-.1.43.06,1.48.3,2.07.4.29.02.57.02.86,0,.1,0-.23.99-4.29.68s-3.44-.91-3.44-1.02Z"/>
    <path class="cls-30" d="M218.31,88.85s.13,0,.13-.08c1.32-.34,2.69-.44,4.04-.29.42.1.83.28,1.19.51.43.25.82.56,1.17.91.12.25-.64-.15-.64-.15-.15-.06-.3-.12-.45-.16-.89-.27-1.82-.41-2.75-.41-.92.18-1.83.45-2.69.83-.02-.41.05-.77.01-1.17Z"/>
    <path class="cls-30" d="M213.73,88.77s-.11,0-.1-.09c-1.08-.5-2.26-.77-3.45-.8-.38.06-.74.18-1.07.36-.41.19-.79.44-1.14.74-.14.24.58-.06.58-.06.13-.04.27-.07.41-.1.81-.14,1.64-.14,2.44,0,.76.3,1.48.69,2.14,1.16.1-.44.09-.81.18-1.21Z"/>
    <path class="cls-32" d="M201.17,122.83c-.3,2.59-.42,5.2-.34,7.8.17,2.47.07,4.96-.29,7.41,0,.18.53.09.57-.08.38-1.84.51-3.71.38-5.58,0-.57-.09-1.07-.09-1.69-.08-2.65.04-5.31.34-7.94,0-.18-.55-.09-.57.09h0Z"/>
    <path class="cls-23" d="M231.12,111.83s10.06.72,12.67,10.35c1.59,6.24,2.22,12.69,1.86,19.12,0,0-9.97-.44-14.57-1.07s0-27.77,0-27.77"/>
    <path class="cls-32" d="M233.63,140.41l-1.15-.1c-.08,0-.48,0-.54-.05s.11,0,.08,0c-.09-.55-.09-1.12,0-1.67,0-2.36,0-4.73.09-7.1-.05-2.53.25-5.05.88-7.5.51-1.6,1.71-3.6,3.53-3.99.33-.08.28-.3-.06-.23-3.9.85-4.51,5.78-4.76,9.01-.27,3.92-.34,7.86-.2,11.79h.1l1.73.15c.14,0,.65-.24.35-.27l-.03-.05Z"/>
    <path class="cls-16" d="M230.47,96.73s0-.05,0-.08c.28-.62.7-1.15,1.24-1.55.26-.2.55-.37.86-.49.31-.13.63-.21.96-.25.46-.07.93-.02,1.36.15l.23.12c1.51-3.68,2.4-7.69.05-12.58-.86-1.38-1.95-2.6-3.22-3.61-3.63-3.22-7.11-3.72-11.44-3.69-5.03,0-9.97,2.8-11.57,7.73-.42,1.02-.43,2.31-.47,3.41,0,0,1.16-4.68,3.69-5.89s2.77.93,6.16,1.32c3.92.43,5.41-1.59,8.41.34,1.61,1.01,2.8,2.55,3.37,4.36.29,1.76.96,2.97.3,4.89-.15.46-.29.92-.42,1.39-.17.85-.26,1.72-.25,2.59,0,.44.18.86.49,1.17.29.31-.2.77.23.66Z"/>
    <path class="cls-30" d="M218.2,71.82c.48.2,1,.32,1.52.36.73.06,1.46-.05,2.14-.32l2.27.16c2.51,1.45,7.16,2.29,9,4.03,1.21,1.18,2.03,2.7,2.36,4.35l.61.65c.65.7,1.12,1.56,1.36,2.49,2.03,8.11-2.39,11.08-2.39,11.08,0,0-1.33-12.7-9.65-16.83-8.32-4.13-16.95,4.29-16.95,4.29,1.95-8.37,7.47-9.97,9.71-10.27Z"/>
    <path class="cls-30" d="M214.8,98.01c-.52.17-1.08.2-1.62.08-.38-.04-.73-.22-.99-.5-.24-.28-.29-.67-.13-1,.18-.39.42-.73.57-1.14h-.2c-.15.37-.32.73-.51,1.07-.15.22-.19.5-.12.76.24.74,1.07.91,1.69.96.47.05.94,0,1.38-.16.14,0,0-.1-.08-.06h0Z"/>
    <path class="cls-30" d="M216.78,96.84c.15,0,.21.16.25.28.03.16.03.33,0,.49,0,.16-.06.31-.16.43-.16.15-.38.23-.6.21-.31,0-.56-.21-.84-.3-.05-.01-.1-.01-.15,0,0,0-.06,0,0,0,.29.1.54.31.85.31.27.01.54-.05.78-.18.17-.1.3-.27.33-.47.03-.19.03-.38,0-.57,0-.18-.13-.35-.33-.36-.05-.01-.1-.01-.15,0h0l.02.16Z"/>
    <path class="cls-30" d="M235.31,94.79c.56.29,1.24.07,1.53-.49,0,0,0,0,0,0,.28-.62,0-1.45.43-1.95.16-.14.33-.28.5-.4.39-.35.62-.85.62-1.37.02-.52-.04-1.04-.16-1.54-.14-.5-.1-1.04.12-1.51.28-.44,1.07-.58,1.29-.13-.01-.66-.3-1.28-.8-1.71-.22-.16-.42-.35-.58-.57-.28-.5.08-1.07.13-1.69,0-.78-.41-1.5-1.07-1.9-.66-.39-1.39-.66-2.14-.79l-.75,7.29"/>
    <path class="cls-30" d="M235.18,80.71c.6-.49.7-1.37.23-1.98-.27-.34-.66-.58-.9-.94-.23-.45-.36-.94-.39-1.45-.03-.51-.31-.98-.75-1.24-.23-.08-.47-.13-.71-.15-1.13-.25-1.87-1.31-1.73-2.45-.52-.1-1.04.17-1.26.65-.09.19-.12.41-.21.59-.08.2-.28.33-.49.32-.16-.04-.29-.14-.38-.28-.49-.62-1.07-1.44-1.81-1.38-.29.07-.59.13-.89.17-.75,0-1.16-.95-1.88-1.2s-1.52.32-2.28.16c-.64-.16-1.04-.78-.93-1.43-.76,0-1.17.92-1.85,1.23-.98.44-2.14-.4-3.15-.21-.53.14-1.02.41-1.43.78l-.45.36c.22.37.1.85-.27,1.07-.39.2-.82.32-1.25.34-.74.12-1.58.54-1.66,1.28,0,.31,0,.69-.2.88-.11.08-.24.13-.38.16-.58.21-.92.81-.8,1.41.07.22.13.45.17.68-.03.35-.16.69-.36.98-.35.68-.48,1.45-.38,2.21,4.03-2.44,8.45-4.54,13.15-4.76"/>
    <path class="cls-30" d="M209.38,80.32c-.23.41-.51.79-.81,1.15-.31.36-.72.62-1.18.74-.06,0-.12.03-.17.06-.13.1-.08.3,0,.46l1.28,2.08c.16-.26.29-.89.44-1.16l1.11-2.93"/>
    <path class="cls-30" d="M230.41,94.41c-.6-.43-.86-1.19-.64-1.9.15-.46.5-.86.51-1.34,0-.64-.56-1.21-.46-1.85.05-.35.32-.69.25-1.07s-.62-.62-.87-1,0-1.21.14-1.83c.04-.12.04-.26,0-.39-.08-.11-.2-.19-.33-.23-.54-.21-1.1-.4-1.66-.55.09-.44,0-.91-.25-1.29-.27-.38-.76-.52-1.19-.35-.13.09-.27.17-.42.24-.39.13-.77-.21-1.01-.56s-.46-.74-.87-.83-.92.31-1.35.57c-.45.28-1.01.35-1.51.17-.5-.2-.8-.73-.71-1.26.17-.77,1.07-1.01,1.91-1.07,2.08-.21,4.29-.26,6.09.87,0,0,4.29,4.11,4.29,7.57-.04,2.18-.7,4.29-1.92,6.1Z"/>
    <path class="cls-30" d="M219.34,80.97c-.31.3-.67.55-1.07.72-.42.17-.9.1-1.25-.18-.18-.21-.35-.42-.5-.65-.16-.23-.46-.33-.73-.24-.11.08-.22.17-.3.28-.31.31-.8.34-1.15.09-.43-.31-.66-1.07-1.19-.95s-.56,1.07-1.07,1.3-1.15-.15-1.37.29c-.05.12-.08.25-.06.38-.09.9-.81,1.6-1.7,1.67-.03-.71.19-1.41.62-1.98,1.07-1.71,2.46-3.19,4.09-4.37"/>
    <ellipse class="cls-20" cx="108.98" cy="24.83" rx=".59" ry=".46" transform="translate(67.74 128.71) rotate(-81.18)"/>
    <path class="cls-5" d="M62.62,180.7c.96,1.65,3.22,1.07,4.69.7,2.14-.53,3.85.39,5.72,1.29,1.49.85,3.21,1.2,4.91,1,1.61-.44,3.12-1.17,4.47-2.14.77-.47,1.59-.86,2.45-1.14,1.06-.29,2.18-.26,3.22.09,2.14.62,4.02,1.67,6.15,2.21,1.89.56,3.89.6,5.8.12.91-.29,1.78-.72,2.56-1.26.93-.67,2.08-.97,3.22-.85,2.42.28,4.57,1.65,6.93,2.14,2.41.5,4.91.41,7.28-.28.55-.15.42-.63-.13-.48-2.23.64-4.58.71-6.84.19-2.04-.47-3.89-1.52-5.93-1.97-1.76-.42-3.62-.08-5.11.93-.88.63-1.88,1.06-2.95,1.26-1.07.15-2.16.12-3.22-.09-2.08-.47-4.1-1.15-6.05-2.03-1.68-.78-3.58-.93-5.36-.43-1.5.62-2.93,1.39-4.29,2.28-.75.46-1.58.78-2.44.94-.95.1-1.9-.04-2.78-.42-1.78-.69-3.41-1.83-5.36-2.08-1.04-.08-2.09.04-3.09.35-1.07.28-2.47.42-3.13-.72-.16-.28-1.07,0-.85.36h.1Z"/>
    <path class="cls-5" d="M62.92,177.04c.92,1.59,3.03,1.14,4.48.77,1.05-.3,2.17-.28,3.22.05.86.3,1.7.66,2.52,1.07,1.48.86,3.19,1.23,4.9,1.07,1.65-.39,3.2-1.09,4.58-2.07.75-.49,1.55-.89,2.39-1.21,1.12-.33,2.32-.31,3.42.08,2.07.64,3.98,1.66,6.08,2.14,1.87.54,3.84.59,5.73.15.92-.28,1.79-.69,2.58-1.23.95-.71,2.14-1.04,3.32-.91,2.41.31,4.56,1.66,6.92,2.14,2.41.49,4.91.4,7.28-.29.54-.15.44-.55-.11-.4-2.23.63-4.58.7-6.84.18-2.04-.47-3.89-1.52-5.93-1.97-1.76-.42-3.62-.08-5.11.94-.85.61-1.82,1.04-2.84,1.25-1.07.15-2.15.13-3.22-.06-2.08-.46-4.1-1.13-6.03-2.02-1.68-.78-3.57-.95-5.36-.47-1.5.6-2.94,1.36-4.29,2.26-.75.46-1.57.79-2.43.98-.91.11-1.83-.01-2.68-.35-1.82-.66-3.47-1.87-5.42-2.14-.99-.1-2,0-2.95.3-1.07.29-2.64.56-3.34-.65-.16-.28-1.07,0-.91.25l.04.14Z"/>
    <path class="cls-7" d="M117.93,79.51c1.64-.15,3.25-.58,4.75-1.26.23-.1.41-.41.15-.58-.32-.15-.69-.14-.99.03h0l-.13.05-.21.08-.49.19c-.15.05-.32.12-.49.16l-.25.08h-.13c-.34.08-.68.15-1.02.21l-.51.08-.21-.02q-.1,0,0,0h-.15c-.27-.03-.73.1-.82.42s.38.42.58.39l-.09.17Z"/>
    <path class="cls-27" d="M74.49,75.87l-7.11,22.47.39,24.38-6.69,3.14s-4.11-16.44-4.81-19.79c-.89-4.29-1.71-6.71-1.18-10.84.24-1.98,6.61-23.14,6.61-23.14l12.79,3.78Z"/>
    <path class="cls-27" d="M67.68,119.28c.23.85.54,1.67.91,2.47.29.33,3.01,1.36,3.61,2.38s1.92,3.75,2.51,3.99-.46,1.34-1.33,1.25c-1.12-.24-2.11-.91-2.74-1.87-.72-1.03-1.44.18-1.44.18l1.03,5.42,1.96,2.8s2.24,1.13,2.58,2.07c0,.41-.12.81-.35,1.15-.33.36-2.75.07-2.75.07,0,0,.6,2.06-.43,2.25-.76.07-1.53-.08-2.21-.43,0,0-.76,1.06-1.26.85-1.62-1.03-3.14-2.21-4.53-3.53-.96-1.7-1.82-3.45-2.58-5.25l-.03-10.57,3.09-4.26,3.97,1.03Z"/>
    <path class="cls-26" d="M67.21,132.34c.18,1.06.48,2.09.91,3.07.55,1.24,1.4,2.33,2.47,3.17.44.33.92.62,1.42.87l-.43-.12c-.38-.14-.75-.33-1.09-.57-1.15-.81-2.06-1.91-2.64-3.19-.41-.96-.7-1.96-.86-2.99l.22-.24Z"/>
    <path class="cls-26" d="M64.36,134.73c.73,2.03,1.96,3.85,3.56,5.3.42.32.83.65,1.21,1.01-.14-.04-.27-.1-.38-.18-.33-.2-.64-.42-.93-.67-1.72-1.39-3.01-3.24-3.73-5.32l.27-.14Z"/>
    <path class="cls-6" d="M74.72,50.81s-5.75-.12-10.71,11.24c-4.96,11.36-3.59,11.25-3.59,11.25,0,0,9.37,6.57,14.98,5.18,2.1-.53,2.88-9.45,3.15-14.81.17-3.11-.29-6.22-1.34-9.14-.4-1.27-1.69-2.66-2.5-3.71Z"/>
    <path class="cls-7" d="M60.92,70.8c1.15.7,2.24,1.5,3.24,2.4,1.01.81,2.13,1.46,3.33,1.93,2.44.83,4.98,1.33,7.55,1.5.3.02.78-.03.94-.33s-.09-.52-.37-.54c-2.47-.16-4.9-.64-7.24-1.43-2.42-.95-4.07-2.93-6.32-4.14-.32-.15-.69-.14-.99.03-.18.12-.45.44-.14.6v-.02Z"/>
    <path class="cls-27" d="M221.5,131.76l20.87,5.8c1.53.69,2.75,1.93,3.41,3.47.24,1.18.15,2.4-.26,3.54-.84,2.09-1.07,3.11-4,3.6s-22.09-10.72-22.09-10.72l2.07-5.69Z"/>
    <path class="cls-27" d="M223.29,132.76l-3.83-3.35s-5.47-2.27-6.43-1.99-2.27.77-1.46,2.14c0,0-1.44,1.07-.95,1.93.37.52.96.83,1.6.86,0,0-1.67.58-1.2,1.65s1.07.88,1.07.88c0,0-.36.74.09.98.7.26,1.41.46,2.14.6,1.12.95,2.39,1.72,3.74,2.28,1.08.26,2.21.26,3.29,0l1.94-5.97Z"/>
    <circle class="cls-4" cx="149.34" cy="225.86" r="17.43"/>
    <path class="cls-13" d="M133.11,232.17c1.07,2.82,2.86,5.32,5.19,7.23,16.95-5.47,21.3-10.41,27.5-19.29-1.11-3.08-3.07-5.78-5.65-7.8-9.37,14.51-22.26,17.9-27.04,19.86Z"/>
    <path class="cls-26" d="M138.52,115.92c-.94.55-2,.87-3.08.94-.93.05-1.85.17-2.76.36-.7.2-1.66.64-1.79,1.44-.17.99,1.31,1.04,1.94,1.11,1.31.17,2.64.21,3.96.14.22.02.47-.23.1-.22-1.43.06-2.87,0-4.28-.21-.49-.04-1.26-.16-1.2-.82s.66-1.02,1.17-1.17c1.07-.27,2.16-.43,3.26-.47,1.1-.11,2.16-.46,3.1-1.03.23-.15-.29-.15-.41-.03v-.04Z"/>
    <path class="cls-22" d="M110.55,30.02s3.37,1.35,4.39,1.04c.92-.28,1.76-.88,1.76-.88,0,0,.34-.08-.61-.85s-3.29-1.79-5.53.69Z"/>
    <path class="cls-22" d="M97.19,27.23s2.08,1.25,4.25,1.39,3.67.28,3.67.28c0,0-1.17-1.82-2.61-2.31s-3.29-1.13-5.31.65Z"/>
    <path class="cls-8" d="M115.82,30.68s.03-.06.04-.1c.22-.61-.05-1.3-.65-1.58-.63-.29-1.38,0-1.67.63-.22.48-.12,1.02.21,1.38,0,0,.62.2,1.18.04s.88-.38.88-.38Z"/>
    <path class="cls-11" d="M116.33,29.02c-.69-.61-1.58-.97-2.5-1.02-1.94-.15-3.28,2.03-3.28,2.03.84-.96,2.06-1.5,3.34-1.47,1.08.23,2.09.83,2.95,1.51-.06-.35-.23-.8-.5-1.04Z"/>
    <path class="cls-8" d="M102.66,28.66c.13-.09.21-.24.28-.39.29-.63.02-1.38-.61-1.67s-1.38,0-1.67.63c-.21.46-.13.97.17,1.33,0,0,1.58.27,1.83.11Z"/>
    <path class="cls-16" d="M105.11,28.89s-1.37-2.87-3.51-3.11c-3.02-.34-3.68.61-4.41,1.44,1.33-.74,2.85-1.07,4.37-.93,2.11.28,3.55,2.6,3.55,2.6Z"/>
    <path class="cls-30" d="M117.07,30.5s.52.38,1.03-.43c0,0-.75.22-1.99-.84l.96,1.27Z"/>
    <path class="cls-30" d="M97.15,27.23s-.76.12-1.01-.84c.86.31,1.8.35,2.68.1l-1.67.74Z"/>
    <path class="cls-22" d="M213.11,92.7s-2.44.54-3.5.09-1.5-1.57-1.5-1.57c0,0,.04-.25,1.11-.45s2.28-.65,3.89,1.93Z"/>
    <path class="cls-22" d="M224.51,93.48s-1.8.66-3.73.42-3-.88-3-.88c0,0,1.41-1.33,2.8-1.31s3.33.22,3.93,1.77Z"/>
    <circle class="cls-8" cx="209.91" cy="91.56" r="1.05" transform="translate(-11.74 33.96) rotate(-9)"/>
    <path class="cls-16" d="M208.74,90.59c.69-.33,1.48-.42,2.23-.26,1.62.28,2.14,2.37,2.14,2.37-.46-.95-1.3-1.65-2.32-1.93-.92-.06-1.83.1-2.68.45.12-.28.34-.5.62-.63Z"/>
    <circle class="cls-8" cx="220.62" cy="92.61" r="1.05" transform="translate(-11.77 35.65) rotate(-9)"/>
    <path class="cls-16" d="M217.78,93.03s1.75-2,3.53-1.71c2.49.41,2.84,1.49,3.27,2.34-.89-.98-2.07-1.65-3.37-1.91-1.27-.03-2.49.43-3.43,1.29Z"/>
  </g>
</svg>