<svg xmlns="http://www.w3.org/2000/svg" xmlns:xlink="http://www.w3.org/1999/xlink" viewBox="0 0 292.89 301.99"><defs><style>.cls-1,.cls-15,.cls-25{fill:none;}.cls-2{clip-path:url(#clip-path);}.cls-3{fill:#c3e6f7;}.cls-4{fill:#86c460;}.cls-5{fill:#5e9641;}.cls-6{fill:#446831;}.cls-7{fill:#b98354;}.cls-8{fill:#4f2e25;}.cls-9{fill:#090807;}.cls-10{fill:#5a2e13;}.cls-11{fill:#513835;}.cls-12{fill:#050606;}.cls-13,.cls-16{fill:#151210;}.cls-13{stroke:#231f20;stroke-width:0.21px;}.cls-13,.cls-15,.cls-25{stroke-miterlimit:10;}.cls-14{fill:#5f3a89;}.cls-15{stroke:#4f2e25;stroke-width:0.14px;}.cls-17{fill:#231f20;}.cls-18{fill:#7b4b29;}.cls-19{fill:#31160e;}.cls-20{fill:#f1eef7;}.cls-21{fill:#13110f;}.cls-22{fill:#f79224;}.cls-23{fill:#2f1644;}.cls-24{fill:#0a2f44;}.cls-25{stroke:#707071;stroke-width:0.69px;}.cls-26{fill:#639e98;}.cls-27{fill:#11394c;}.cls-28{fill:#662616;}.cls-29{fill:#281237;}.cls-30{fill:#456eb5;}.cls-31{fill:#f2e223;}</style><clipPath id="clip-path"><circle class="cls-1" cx="146.68" cy="152.53" r="126.36" transform="translate(-64.9 148.4) rotate(-45)"/></clipPath></defs><g id="Layer_2" data-name="Layer 2"><g class="cls-2"><circle class="cls-3" cx="146.68" cy="154.3" r="126.36" transform="translate(-66.15 148.91) rotate(-45)"/><path class="cls-4" d="M386.82,186.58a7,7,0,0,0,.69-3.05,7.77,7.77,0,0,0-3.49-6.32c.25-.72.47-1.45.67-2.2,1.94-7.59.36-14.63-3.61-18.82-3.22-1.07-6.75-1.18-8.5,2.15-.84,1.57-3.76,1.37-4-.53-.33-2.21-1.24-3.49-3.61-3.21a2.29,2.29,0,0,1-.75,0,6.85,6.85,0,0,1-4.07-.34,2.29,2.29,0,0,1-1.54-2.72,7.65,7.65,0,0,0-.21-4.24c-.68-1.49-1.74-1.13-3.12-.59a2.21,2.21,0,0,1-2.71-1.55c-.3-1.75.2-5.37-1.78-6.08-2.66-1-4.66,2.58-5.66,4.5a2.23,2.23,0,0,1-3.82,0c-1.15-2.21-2.07-3.24-4.3-1.81a34.88,34.88,0,0,0-4.62,4.07,2.17,2.17,0,0,1-.75.46,3.87,3.87,0,0,1-3.06.24c-1.46-.48-2.11-1.8-2.61-3.14s-.86-2.86-1.29-4.28c-.15-.51-.32-1-.52-1.54a2.08,2.08,0,0,1-1.58-2.07v-.05l-.33-.19c-.36-.14-.07,0-.46-.06a16.12,16.12,0,0,1-2.4-.15l-.57.22a3.34,3.34,0,0,1-1.26.12,3.09,3.09,0,0,1-2.45-1.56c-.65-1-.66-1.34-1.77-1.89a6.23,6.23,0,0,0-2.74-.68,8.08,8.08,0,0,0-5.51,2.72,2,2,0,0,1-2.73,0,7.56,7.56,0,0,0-7.11-1.6,5.74,5.74,0,0,0-1.28.55,1,1,0,0,0-.41.46c-.18.4-.45,1.44-.71,2.06-1,2.45-3,3.23-5.23,4.25a3.47,3.47,0,0,0-2.29,2.63,33.82,33.82,0,0,0-.28,4.51,2,2,0,0,1-1.94,1.94h-3.68a1.77,1.77,0,0,1-1.51-.75l-.09.13a6.19,6.19,0,0,1-1.72,1.88c-1.33.66-2.51-.72-3.61-1.24-2.3-1.1-6.48-1.72-6.69,1.82a1.26,1.26,0,0,1-1.25,1.25,14.47,14.47,0,0,0-3.72,0c-1.52.32-1.74,1.3-1.59,2.73a1.05,1.05,0,0,1-1.15,1.2,6,6,0,0,1-5.68,3.64c-2.1,0-4.54-.85-6.49.23a2.42,2.42,0,0,0-1.38,2.8,7.15,7.15,0,0,1-.88,4.46,15.64,15.64,0,0,1-2.25,2.56,3.09,3.09,0,0,0-.78,2.82,1.75,1.75,0,0,1-.78,1.53,27.26,27.26,0,0,0,1,4.32,29.34,29.34,0,0,0,4.25,8.48l-62,0a20.75,20.75,0,0,0,10.89-11.58,8.67,8.67,0,0,0,14.28-9.46,2.23,2.23,0,0,1-4-.6c-.36-1.35-1.09-2.14-2.49-1.4a2.24,2.24,0,0,1-3.25-1.32c-.41-1.61-1.7-.82-2.79-.19a2.24,2.24,0,0,1-3.33-1.91c-.09-1,.25-3.93-.43-4.76s-3.4-.31-4.31-.28a2.23,2.23,0,0,1-2.13-2.79c.84-3.21-1.23-4.51-4-2.95a2.23,2.23,0,0,1-3.33-1.9c0-1.95-3.74-1.88-4.12,0-.4,2-3,2-4,.53s-1.9-.7-2.53.6c-.8,1.65-3.74,1.31-4-.53-.23-1.4-.13-3.35-.75-4.66a1.36,1.36,0,0,1-.15-.41s-.06,0-.22,0c-.74-.31-2.06.16-2.81.31A2.24,2.24,0,0,1,157,140.1c.77-1.71,1.81-3.46.22-5.08a3.09,3.09,0,0,0-3.85-.66,2.22,2.22,0,0,1-3.24-1.32c-.25-1.4-.25-3.38-1.46-4.32-1.37-1.06-4.26-1-5.08.62a2.22,2.22,0,0,1-3.81,0l-.18-.29c-2-.49-4.9-.6-6.55.63,0,.12,0,.23,0,.35a2.23,2.23,0,0,1-2.8,2.14c-3.22-1.26-8.36-.22-7.25,4.22a2.24,2.24,0,0,1-2.13,2.8c-3,.15-4.53,2.51-4.43,5.34a2,2,0,0,1-1.28,1.93,2.17,2.17,0,0,1-2.73,2c-1-.26-5.28-2.39-6-1.32a2,2,0,0,1-.46.5A2.25,2.25,0,0,1,102.8,149a7.84,7.84,0,0,0-5.71-.86c0,.23-.07.45-.1.64a2.22,2.22,0,0,1-2.72,1.54,17.63,17.63,0,0,0-4.19-.8H90c-.51.71-1,1.45-1.46,2.24l-.23-.17c.16,2-2.52,2.62-3.77,1.49-3.62-3.29-6.25,2.16-6.2,5.38a2,2,0,0,1-1,1.83,8.55,8.55,0,0,0,5.68,2,9.21,9.21,0,0,0,1.68-.15,40.88,40.88,0,0,0-.71,7.62,36.81,36.81,0,0,0,3.9,16.93H14.56v11.66H388V186.58Z"/><path class="cls-4" d="M89.61,165.62a4.4,4.4,0,0,1-5.72,0c-2-1.5-3-3.52-4-5.75-.93-2-1.66-3.36-4-3.18a1.6,1.6,0,0,1-1.71-1h-.44a2,2,0,0,1-1.93-1.94c0-.41-.05-.82-.06-1.23a9.08,9.08,0,0,1-2.93-2.23c-1-1.22-1.78-2.61-2.75-3.85-.78-1-1.74-1.88-3.1-1.69-1.7.24-3.18,1.19-4.92,1.36a6.93,6.93,0,0,1-4.73-1.45c-1-.71-2-1.49-3.27-1a5.93,5.93,0,0,0-1.59,1.32,8.08,8.08,0,0,1-2.06,1.52,5.72,5.72,0,0,1-2.72.6,7.07,7.07,0,0,1-2.06-.65,21,21,0,0,0-2.76-.53,7.83,7.83,0,0,0-2-.29c-1.67.07-2.78,1.37-3.57,2.7A15,15,0,0,1,30,152.8a2.37,2.37,0,0,1-1.37.55,2.39,2.39,0,0,1-.37.15,3.89,3.89,0,0,1-3.07-.24,2.27,2.27,0,0,1-.75-.46,34.17,34.17,0,0,0-4.61-4.07c-2.23-1.43-3.15-.4-4.3,1.81a2.23,2.23,0,0,1-3.82,0c-1-1.92-3-5.46-5.66-4.5-2,.71-1.49,4.33-1.78,6.08a2.22,2.22,0,0,1-2.72,1.55c-1.37-.54-2.43-.9-3.12.59a7.64,7.64,0,0,0-.2,4.24,2.29,2.29,0,0,1-1.54,2.72,6.88,6.88,0,0,1-4.08.34,2.21,2.21,0,0,1-.74,0c-2.37-.28-3.28,1-3.61,3.21-.28,1.9-3.21,2.1-4,.53-1.76-3.33-5.28-3.22-8.51-2.15-4,4.19-5.55,11.23-3.6,18.82.19.75.42,1.48.66,2.2a7.77,7.77,0,0,0-3.49,6.32,7.17,7.17,0,0,0,.69,3.05h-1.12v11.78H91V163.67A6.78,6.78,0,0,1,89.61,165.62Z"/><path class="cls-5" d="M378.42,182.69a4.87,4.87,0,0,0-4.58,5.12,5.46,5.46,0,0,0,1,3.22h-4a1.49,1.49,0,0,0,0-.21c0-1.46-2.45-2.65-5.48-2.65H365c.27-.3.53-.63.78-1a2.18,2.18,0,0,1-1.07-3.66c1.9-1.84,4.45-6.23,2.25-8.79-1.46-1.7-4.9-.7-6.7-.26a2.25,2.25,0,0,1-2.8-2.14c-.09-2-1.3-1.66-2.88-2.1A6.35,6.35,0,0,1,351,168c-.88-1.12-1.14-2.78-2.11-3.78-1.73-1.77-4.34-.25-5.68,1.19-1,1.11-3.46.7-3.7-1s-.22-3.15-.56-4.66c-.39-1.74-1.19-2.09-3-2.22a2.28,2.28,0,0,1-2.21-2.21c-.44-4.15-6.75-9.7-8.87-3.66a2.25,2.25,0,0,1-3.25,1.32c-1.35-.69-3.66-2.37-5.3-2s-3,2.75-3.67,4a4.33,4.33,0,0,1-4,2.79c-1.62,0-2.29.24-2.54,2.09a22.07,22.07,0,0,0,0,3.45c0,2.12-2.41,2.65-3.68,1.62a16.09,16.09,0,0,0-4.56,2.67,15,15,0,0,0-4-3.51,11.13,11.13,0,0,0-1.3,0l-.39.13a3.31,3.31,0,0,0-2.11,3.42,1,1,0,0,1-1,1,6.25,6.25,0,0,0-4.44,1.47,8.53,8.53,0,0,0-1.09,1.3l-.12.29a2.41,2.41,0,0,1-.53.72c-.28.46-.54.94-.8,1.42a22.42,22.42,0,0,0,.35,4.08,6.94,6.94,0,0,0-2.1-.33,7.55,7.55,0,0,0-7.27,7.8,8.21,8.21,0,0,0,1,4,8.4,8.4,0,0,0-5.27-1.5,12.18,12.18,0,0,0-2.32.22,4.5,4.5,0,0,0-.16.48c-.47,1.54-2.89.88-2.42-.66.26-.85.71-1.62,1-2.47s.18-.93-.29-1.47a2.92,2.92,0,0,1-.68-3.11c.17-.69.53-1.31-.05-1.86-.33-.32-.8-.47-1.12-.83-.93-1-.45-2-.44-3.19,0-.76-.62-1-1.33-1.27a16.67,16.67,0,0,0-5.08.36,1.27,1.27,0,0,1-1.58-1.21,10.62,10.62,0,0,0-.4-3.47c-.46-.3-.92-.6-1.37-.91-1.23-.85-2.32-1.44-3.67-.51a1.26,1.26,0,0,1-1.71-.45c-1.53-2.22-4.35,1.07-5.9,2a1.28,1.28,0,0,1-1.81-1.53,1.89,1.89,0,0,1-.88-.77,3.11,3.11,0,0,0-2.75-1.5,2,2,0,0,1-1.93-1.93,11.48,11.48,0,0,0-.34-2.48,1.56,1.56,0,0,0-.59-1c-.06,0-.08-.07-.07-.07h0c-.15-.11-.31-.21-.46-.3-.33-.2-.66-.37-1-.54s-.83-.43-1.25-.6c-.13-.05-.71-.21-.51-.18a4.42,4.42,0,0,1-1.87-.5,6,6,0,0,1-1.91-2.05,7.56,7.56,0,0,1-.45-.9,2.32,2.32,0,0,1-.42-1.19c-.23-.78-.42-1.58-.67-2.35a2.53,2.53,0,0,0-2-.66,3.74,3.74,0,0,1-.49,0,2.15,2.15,0,0,1-2.5-.33c-1.26-1.12-3.17-3.41-5.13-4-.7,0-1.4.05-2.09.12l-.34.19c-1.84,1.25-2.81,3.36-4.82,4.5a23.78,23.78,0,0,1-5.71,1.83c-2.38.64-2,2.44-1.76,4.66a2.21,2.21,0,0,1-1.62,2.13c-2.43.41-6,.81-6.35,3.84-.19,1.65-2.45,3.27-3.78,1.57-1.47-1.88-3.55-1.38-5.53-.57a2.26,2.26,0,0,1-2.5-1c-1.4-2.12-3.25-2-4.78-.12a2.25,2.25,0,0,1-3.13,0c-1-.82-2.15-.56-3.26-.29a2.16,2.16,0,0,1-1.32-.07,1.92,1.92,0,0,1-2.08-.43,1.87,1.87,0,0,1-1.22-1.78,5,5,0,0,0,0-1s-.06-.4,0-.21c-.06-.25,0-.11-.19-.22-.56-.34-1.2-.52-1.76-.87a3.85,3.85,0,0,1-1.85-2.62c-.08-.45,0-1.22-.22-1.62s-1.11-.55-1.62-.52a1.92,1.92,0,0,1-1.86-1.42,5.58,5.58,0,0,0-1.74-3.57c-1-.86-1.94-.6-2.95.15a2,2,0,0,1-2.65-.69c-2.11-4.45-9.15-3-11.43.59a1.83,1.83,0,0,1-1.94.86c-1.81.89-3.93-.12-5.84,1.27-2.58,1.88-1.54,5.53-3.6,7.67-1.06,1.1-2.8,1.11-3.27,2.81-.36,1.28.34,2.72.34,4a5.73,5.73,0,0,1-1.41,3.84c-.88.94-2.94,1.37-3.41,2.55a2.27,2.27,0,0,1-2.72,1.54,10.71,10.71,0,0,0-2-.3c-.13.15-.26.3-.38.46-.21-.18-.43-.35-.65-.52-1.83-.1-3.7-.2-5.08-1.32-.87-.7-1.6-1.56-2.44-2.29a23.17,23.17,0,0,0-3.07-.62,13.42,13.42,0,0,0-1.25,1.58c-.65.87-2,1.56-3,.8-1.84-1.35-5.06-2.6-6.66-.23-1.47,2.18-4.88.42-4.07-1.73a3.88,3.88,0,0,1-2.69-2.36c-.75-1.92,0-3.95-.88-5.86-1-2.26-3-5.24-5.37-6.21-1.09-.45-2-.26-2.87-1.26a2.71,2.71,0,0,1-.62-2c-2.4-1.26-5-2.1-7.35-3.45-1.59-.92-.93-.6-2.56,0a5.73,5.73,0,0,1-3.43,0c-2.05-.53-3.12-1.33-4.5,1-1.07,1.81-3,3.11-5.06,2-.24-.12-.93-.84-1.28-1.06,0,.1-.51.26-.45.24-1,.35-.93.83-1.23,1.71a4,4,0,0,1-3.39,3A3.28,3.28,0,0,1,42,153a3.84,3.84,0,0,1-.14-.87,2.57,2.57,0,0,1-.48-.79,4.13,4.13,0,0,0-3.45-2.81,2.29,2.29,0,0,1-2.21-2.21c-.09-1.28.07-2.88-1.08-3.72-1.66-1.21-3.34-.25-4,1.36s-3.12,1.39-3.82,0c-1-2-2.48-4.59-4.82-2.63a2.49,2.49,0,0,1-1.07.55c-.22,1.61-2.45,2.28-3.79,1.18-1.93-1.58-4.06-.19-5,1.78.09-.16-.12.54-.16.62a2.93,2.93,0,0,1-.82,1.23c-1.73,1.44-4.8.63-5.77,2.86a1.73,1.73,0,0,1-2.11,1.09A12.45,12.45,0,0,0,1.65,152c-.22.64-.43,1.29-.62,1.95.07,1.29.52,2.94.31,4.06a2.23,2.23,0,0,1-3.25,1.32,33.41,33.41,0,0,1-5.28-4c-.68-.58-1.38-1.12-2.11-1.64-.44-.32-.91-.61-1.35-.92l-.21-.13a5.24,5.24,0,0,1-.61.83,4.14,4.14,0,0,1-1.21.81,3.2,3.2,0,0,1-2.81-.18c-1.31-.73-.87-1.12-2.27-1s-1.55-.05-2,1.57A2.22,2.22,0,0,1-23,155.89c-2.1-1.42-4-.94-4.08,1.79a2.25,2.25,0,0,1-2.21,2.21,6.91,6.91,0,0,0-2.94.29,27.45,27.45,0,0,0-4.29,14.93,27.33,27.33,0,0,0,5,15.92h-4.53v17.43H383.15V187.81A5,5,0,0,0,378.42,182.69ZM274.8,191a1,1,0,0,0,0-.17,1.12,1.12,0,0,0,0-.32,6.4,6.4,0,0,0,.42.49Z"/><rect class="cls-6" x="-44.24" y="207.84" width="423.07" height="86.14"/><path class="cls-6" d="M245.89,204.34a20,20,0,0,1,4.64,2.42,1.24,1.24,0,0,0,1.05.33c.8-.08.57-.39.45-.58-.93-1.44-1.49-2.93-3.19-4.28-.34-.27-1-.54-.36-1,4.56,1.55,7,3.66,9.84,5.7a7.19,7.19,0,0,1,.48-3.36c1.12.88.75,1.9,2.1,2.94a31.14,31.14,0,0,0-.52-6.14l.72,0,2.87,5c1-1.67.92-3.23,2.83-4.59-.18,1.6-.61,3.18.82,5a14.17,14.17,0,0,1,5-4.66c-1,2.51-2,5-1.55,7.55l3.57-4.25c.46,1.44,0,2.87.87,4.37a2.23,2.23,0,0,0,.44-.42,52.51,52.51,0,0,0-.56,6.74.56.56,0,0,0,1.1.1c0,.13.08.26.13.39,0,.58-.05,1.16-.08,1.74-.13,2.48-.32,5-.5,7.44H257a148.29,148.29,0,0,0-7.82-13.18l-.24-.36a14.88,14.88,0,0,0-1.25-2.37c-.19-.29-.39-.58-.6-.86l.47.32C247.88,206.8,246.61,205.6,245.89,204.34Z"/><path class="cls-6" d="M177.16,204.49a20.39,20.39,0,0,0-4.64,2.42,1.26,1.26,0,0,1-1,.34c-.8-.09-.58-.4-.46-.58.93-1.45,1.49-2.94,3.2-4.29.34-.27,1-.54.35-1-4.56,1.55-7,3.67-9.84,5.7a7.13,7.13,0,0,0-.48-3.35c-1.12.87-.75,1.89-2.1,2.94a31.25,31.25,0,0,1,.52-6.15l-.72,0-2.86,5c-1-1.66-.93-3.23-2.84-4.59.18,1.6.61,3.19-.82,5a14.13,14.13,0,0,0-5-4.66c1,2.51,1.95,5,1.54,7.56l-3.57-4.26c-.46,1.44,0,2.87-.87,4.37a2.55,2.55,0,0,1-.44-.41,52.21,52.21,0,0,1,.56,6.73.56.56,0,0,1-1.1.1l-.12.4c0,.57,0,1.15.07,1.73.13,2.48.32,5,.51,7.44h19a146.62,146.62,0,0,1,7.81-13.17l.24-.37a14.78,14.78,0,0,1,1.25-2.36c.19-.3.4-.59.6-.87-.15.11-.3.22-.46.32C175.17,207,176.44,205.75,177.16,204.49Z"/><path class="cls-6" d="M216.68,205.38A20,20,0,0,0,212,207.8a1.26,1.26,0,0,1-1,.34c-.8-.09-.58-.4-.46-.59.93-1.44,1.49-2.93,3.2-4.28.34-.27,1-.54.35-1-4.56,1.55-7,3.66-9.84,5.7a7.19,7.19,0,0,0-.48-3.36c-1.12.88-.75,1.9-2.1,2.94a31.14,31.14,0,0,1,.52-6.14l-.72,0-2.86,5c-1-1.67-.93-3.23-2.84-4.59.18,1.6.61,3.18-.82,5a14.13,14.13,0,0,0-5-4.66c1,2.51,2,5,1.55,7.55q-1.8-2.12-3.58-4.25c-.46,1.44,0,2.87-.87,4.37a2.23,2.23,0,0,1-.44-.42,52.51,52.51,0,0,1,.56,6.74.56.56,0,0,1-1.1.1l-.12.39c0,.58,0,1.16.07,1.74.13,2.48.32,5,.51,7.44h19a148.19,148.19,0,0,1,7.81-13.18l.24-.36a14.88,14.88,0,0,1,1.25-2.37c.19-.29.4-.58.6-.86l-.46.32C214.69,207.84,216,206.64,216.68,205.38Z"/><path class="cls-6" d="M111.11,204.05a20,20,0,0,0-4.64,2.42,1.23,1.23,0,0,1-1,.33c-.8-.08-.58-.39-.46-.58.93-1.44,1.49-2.93,3.2-4.28.34-.27,1-.54.35-1-4.56,1.55-7,3.66-9.84,5.7a7.19,7.19,0,0,0-.48-3.36c-1.12.88-.75,1.9-2.1,2.94a31.14,31.14,0,0,1,.52-6.14l-.72,0-2.86,5c-1-1.67-.93-3.23-2.84-4.59.18,1.6.61,3.18-.82,5a14.2,14.2,0,0,0-5-4.65c1,2.51,2,5,1.54,7.55l-3.57-4.25c-.46,1.44,0,2.87-.87,4.37a2.23,2.23,0,0,1-.44-.42,52.51,52.51,0,0,1,.56,6.74.56.56,0,0,1-1.1.1l-.12.39c0,.58,0,1.16.07,1.74.13,2.48.32,5,.51,7.43h19a148.19,148.19,0,0,1,7.81-13.18l.24-.36a14.88,14.88,0,0,1,1.25-2.37c.19-.29.4-.58.6-.86l-.46.32C109.12,206.51,110.39,205.31,111.11,204.05Z"/><path class="cls-6" d="M133.13,204.94a19.54,19.54,0,0,0-4.63,2.42,1.27,1.27,0,0,1-1,.33c-.8-.08-.57-.39-.45-.58.93-1.44,1.49-2.93,3.19-4.28.34-.27,1-.55.36-1-4.56,1.55-7,3.66-9.85,5.69a7,7,0,0,0-.47-3.35c-1.13.87-.76,1.89-2.1,2.94a31.31,31.31,0,0,1,.52-6.15l-.72,0-2.87,5c-1-1.67-.92-3.23-2.83-4.59.18,1.6.6,3.18-.82,5a14.15,14.15,0,0,0-5-4.65c1,2.5,2,5,1.55,7.55L104.38,205c-.46,1.44,0,2.87-.87,4.37a2.56,2.56,0,0,1-.44-.42,50.47,50.47,0,0,1,.55,6.73.55.55,0,0,1-1.09.11c0,.13-.09.26-.13.39,0,.58,0,1.16.08,1.73.13,2.48.32,5,.5,7.44h19a148.29,148.29,0,0,1,7.82-13.18l.24-.37a14.41,14.41,0,0,1,1.25-2.36q.28-.44.6-.87l-.47.33C131.14,207.4,132.41,206.19,133.13,204.94Z"/><path class="cls-6" d="M62.59,205.38A20,20,0,0,0,58,207.8a1.27,1.27,0,0,1-1.05.34c-.8-.09-.57-.4-.45-.59.93-1.44,1.49-2.93,3.19-4.28.35-.27,1-.54.36-1-4.56,1.55-7,3.66-9.84,5.7a7.19,7.19,0,0,0-.48-3.36c-1.12.88-.75,1.9-2.1,2.94a31.14,31.14,0,0,1,.52-6.14l-.72,0-2.87,5c-1-1.67-.92-3.23-2.83-4.59.18,1.6.61,3.18-.82,5a14.17,14.17,0,0,0-5-4.66c1,2.51,2,5,1.55,7.55l-3.57-4.25c-.46,1.44,0,2.87-.87,4.37a2.23,2.23,0,0,1-.44-.42,52.51,52.51,0,0,1,.56,6.74.56.56,0,0,1-1.1.1c0,.13-.08.26-.13.39,0,.58,0,1.16.08,1.74.13,2.48.32,5,.5,7.44h19a148.29,148.29,0,0,1,7.82-13.18l.24-.36a14.88,14.88,0,0,1,1.25-2.37c.19-.29.39-.58.6-.86l-.47.32C60.6,207.84,61.87,206.64,62.59,205.38Z"/></g></g><g id="Layer_3" data-name="Layer 3"><polyline class="cls-7" points="123.39 92.64 122.1 78.48 111.44 79.98 112.19 97.88 123.39 92.64"/><path class="cls-7" d="M123.39,92.64s7.39,9.14,11.6,10.88l-2.22,7.69s-11.73-3-15.88-6.58-5.5-3.4-5.84-5.29a25,25,0,0,1,.32-5.91Z"/><path class="cls-7" d="M132.9,102.42S138.24,105,139,105s3.73.19,3.76,3.11c0,0,1.79,2.14.46,4.14,0,0,1,1,0,2.88a2.34,2.34,0,0,1-1.45,1.16l-1,.28s-.17,2.12-1.06,2.29c-.69.14-4,.43-5.23-.34a.71.71,0,0,1-.13-1.12l1-1a1.65,1.65,0,0,1-.14-1.05s-2,.38-2.08-1.45c0-1,1.82-1.61,1.82-1.61s-2.48.29-2.32-.88Z"/><path class="cls-8" d="M133.48,108.32a2.07,2.07,0,0,1,.11.47,1.66,1.66,0,0,1-.26,1.2c-.2.23-.4.45-.62.66a1.18,1.18,0,0,0-.27.52,1,1,0,0,0,.09.64,1.27,1.27,0,0,0,1,.65,2.36,2.36,0,0,0,1.23-.12,3.34,3.34,0,0,0,1.83-1.64,4,4,0,0,0,.38-2,4.14,4.14,0,0,0-.33-1.31c-.14-.28-.24-.42-.25-.4a6.64,6.64,0,0,1,.34,1.72,3.74,3.74,0,0,1-.4,1.86,3.11,3.11,0,0,1-1.67,1.47,2.26,2.26,0,0,1-1.09.11,1,1,0,0,1-.79-.49.68.68,0,0,1,.11-.81,6.91,6.91,0,0,0,.61-.71,1.74,1.74,0,0,0,.19-1.37C133.62,108.44,133.49,108.31,133.48,108.32Z"/><path class="cls-8" d="M140.55,108.7a8,8,0,0,1-.6.86,5.68,5.68,0,0,1-2,1.41c-.87.39-1.7.67-2.27,1a2.63,2.63,0,0,0-.89.54,5.44,5.44,0,0,0,1-.33c.59-.23,1.42-.49,2.31-.87a5.15,5.15,0,0,0,2-1.57A1.78,1.78,0,0,0,140.55,108.7Z"/><path class="cls-9" d="M108.28,231.81a1.75,1.75,0,0,0-.38-1.69,4.79,4.79,0,0,0-1.69-.71q-2.43-.82-4.88-1.62l-1.3-.43c-.16-.05-.74.2-.52.27,2.45.81,4.93,1.55,7.33,2.46a1.45,1.45,0,0,1,.8,1.82c0,.18.6.09.64-.1Z"/><path class="cls-7" d="M51.51,211s7.84,17.05,11,19.48,5.39-1.66,5.39-1.66-4.22-8-5.85-13.23c-.56-1.83,32.33-32.42,32.33-32.42l-15.65-10L54.28,209.91Z"/><path class="cls-10" d="M69.78,233.76s1.62-1,1-2.07-4.22-6.63-4.8-6.91c-.27.36-.21.91-1.54.45a13.66,13.66,0,0,1-5.5-3.94c-1.78-1.91-5.28-6.28-6.34-8.73-.35-.82-.83-1.72-.83-1.72-2.74.63-5.89,4.48-5.38,5.86s6.76,5.62,6.76,5.62l4.3,5,4.78,3.83,2.11,1.47,2.49.69Z"/><path d="M46.32,216.26a23.4,23.4,0,0,0,4,3.86c4.68,3.55,6.44,4.82,7.68,6.47a24.93,24.93,0,0,0,2.3,2.74c4.84,5,9.7,4.07,9.88,4.07a.66.66,0,0,1-.06.38c-.08,0-.85.12-1.76.14-1.59,0-5-.25-8.82-4a22.28,22.28,0,0,1-2.37-2.51c-.93-1.24-1.67-1.47-4.2-3.61l-1.49-1.23s-4.84-3.95-6-5.1C46.24,216.12,46.32,216.26,46.32,216.26Z"/><path class="cls-7" d="M94.36,223.16s16.47,10.92,20.68,11.46,3.89-4.08,3.89-4.08-8.2-4.82-12.57-8.58c-1.53-1.31,10.87-43.88,10.87-43.88l-17.32.17-3.67,42.64Z"/><path class="cls-10" d="M123.33,233.93s.89-1.67-.29-2.25-7.45-3.68-8.12-3.64c0,.45.32.9-1.13,1.15a15.33,15.33,0,0,1-7.1-.72c-2.65-.78-8.2-2.84-10.51-4.44-.77-.54-1.69-1.09-1.69-1.09-2.1,1.89-2.78,6.77-1.56,7.71s9.16,1.55,9.16,1.55l6.64,2.26,6.39,1,2.71.23,2.6-.61Z"/><path d="M92.66,230.29a27.49,27.49,0,0,0,5.74,1.36c6.16.78,8.43,1,10.46,1.83a26.29,26.29,0,0,0,3.57,1.25c7.08,1.92,10.93-1.23,11.09-1.32a.67.67,0,0,1,.16.35,15.8,15.8,0,0,1-1.5,1c-1.4.8-4.61,2.23-10.1.85a25.69,25.69,0,0,1-3.51-1c-1.52-.61-2.32-.45-5.76-1.06l-2-.34s-6.52-1-8.22-1.46C92.52,230.2,92.66,230.29,92.66,230.29Z"/><path class="cls-7" d="M98.24,149.75c.69-8.57.73-17.17,1.38-25.74,4.59-.28,9.57-.92,15.12-1.66l2.28,7.44c.64,3.54-.46,18.82-.55,22.44l.64,31.82-10.27,33.13-.15-2a24.69,24.69,0,0,1-8.81-.66L96.49,218l2.72-34-3.07-32.47A1.93,1.93,0,0,0,98.24,149.75Z"/><path class="cls-7" d="M74.49,177.82,73.11,130l4.22-8.36c7.17,4.61,14.21,6,22.38,5.93-.57,8.41-.57,16.84-1.2,25.25a1.89,1.89,0,0,0,.6,1.61l-3.47,26c-.29,2-5.88,8.72-7.39,10.2L67.6,209.19s-8.43-.83-7.9-7.57Z"/><path class="cls-7" d="M186.22,160.23l-3.77-2.78L188.61,147,196,128.14l6.94,8.43s-6.07,13.48-7.2,15.26S186.22,160.23,186.22,160.23Z"/><path class="cls-11" d="M178.79,127.68l0,0-.1-.12Z"/><path class="cls-7" d="M181,158.66s-2.09,3-2.95,4.56a1.64,1.64,0,0,0-.13,1.35,30.41,30.41,0,0,0,1.21,3.25l2.94,1.31,2.27-1.38a.68.68,0,0,0-.5-.84.47.47,0,0,0-.17,0,5.8,5.8,0,0,1-1.85-.59l-.54-1.66,2-2.22,3.47-2.61-2.74-5.07Z"/><path class="cls-8" d="M179.54,163.64a3.86,3.86,0,0,0-.2.74,3.23,3.23,0,0,0,1.22,3.15,3.72,3.72,0,0,0,1.28.66,5.09,5.09,0,0,0,1.35.15,1.06,1.06,0,0,1-.37.07,3.12,3.12,0,0,1-1-.08,3.71,3.71,0,0,1-1.37-.66,3.47,3.47,0,0,1-1.13-1.47,3.43,3.43,0,0,1-.16-1.85,3,3,0,0,1,.23-.78Z"/><path class="cls-7" d="M186.79,159.8a8.73,8.73,0,0,1-.31,3.37c-.51,1-2.35,4.32-2.77,4.39s-1.13.3-1.28-.44.9-2.6.9-2.6v-2.11s-1-1.56-.31-2.38S186.07,158.94,186.79,159.8Z"/><path class="cls-8" d="M183.33,164.53a2.72,2.72,0,0,0-.33.66c-.07.21-.19.46-.29.74l-.15.45a1.39,1.39,0,0,0-.1.53,1,1,0,0,0,.19.53.72.72,0,0,0,.47.24,1,1,0,0,0,.78-.32,1.45,1.45,0,0,0,.4-.63s-.18.23-.5.52a.84.84,0,0,1-.66.24.57.57,0,0,1-.48-.58,1.48,1.48,0,0,1,.08-.46l.15-.44.26-.73A3.16,3.16,0,0,0,183.33,164.53Z"/><path class="cls-12" d="M111.12,41.39c1,1.06,2.3,1.85,3.33,2.92a5.09,5.09,0,0,1,1.61,4.12,6.23,6.23,0,0,1-1,2.26,22.06,22.06,0,0,1-2.44,3.21,1.44,1.44,0,0,1-.63.47c-.5.13-1-.33-1.27-.75-.7-.92-1.35-1.86-2-2.85a7.49,7.49,0,0,1-1.48-5,8.32,8.32,0,0,1,2.42-4.08"/><path class="cls-13" d="M91.8,45.16a.81.81,0,0,1,.92-.54c4.4.65,8.72-.38,12.92-1.62,2.8-.82,5.93-1.36,8.44-2.91s3.73-4.5,4.29-7.24a23.87,23.87,0,0,0-1-12.56c-1.71-4.15-4.58-6.07-9.49-7.74-6.66-2.32-16.29-1-20.52,4.95-2.87,4-4.6,10.59-5.94,15.42L81,34.67c0,.35.11.7.18,1C82.26,40.89,86.85,44.09,91.8,45.16Z"/><path class="cls-7" d="M116.42,36a.93.93,0,0,1-.07-.43,18.09,18.09,0,0,1,.42-1.94c.2-1,.43-2.8.55-3.78,0,0,.08-1.14.09-1.17.08-4.84-1.2-6.53-1.2-6.53a13.14,13.14,0,0,0-10.88-7.38,17.89,17.89,0,0,0-13.79,5.31,8.58,8.58,0,0,0-2.42,5.62,35.1,35.1,0,0,0,.36,5.86c-1.9-.31-3.52.1-3.22,3.71.4,5,3.5,6.39,5,4.71a34.92,34.92,0,0,1,.1,4c-.07,2-.07,5.21-1.22,6.8l-2.35,2C89.15,55.77,93,68.82,96,71.1c2.71,2.09,3.78,1.25,7.44-.54,2-1,4.78-10.43,7-13.36l-4.24-4,.21-2.19a6.36,6.36,0,0,0,1.8,0c4.54-.64,6.85-6.21,7.35-8.4a22.79,22.79,0,0,0,.84-6.51Z"/><path class="cls-14" d="M118.85,79.74a6.86,6.86,0,0,0,4.91-3.84c-1.94-5.37-2.14-15.69-8.1-18.61-1.32-.65-7.18-4.2-9.2-4.28a7.65,7.65,0,0,1-.49,2.23,5.76,5.76,0,0,1-4.7,3.6l.19,8h-1l-1.28-8c-5.69-.72-9.3-7.79-9.3-7.79-3.86,1.08-8.54,4.4-11.44,5.84-12.74,6.31-7.91,20.68-7.91,20.68,2,1.19,7.59,2.22,7.59,2.22a77.5,77.5,0,0,1-2.85,10.05,89.16,89.16,0,0,0-7.57,28.36c-2,24.17.71,55.78,0,62.47,3.56,2.66,4-1,9.12.59s5.79,1.77,9.3,0,6.44-1.18,11,.59,8.2-.15,10.83-.3,2.59,1.48,7.27,1.63,5.12-2,7.9-1.82c-.14-3.55-6.92-61-7.53-72.47C115.41,104.11,118.85,79.74,118.85,79.74Z"/><path class="cls-7" d="M211.62,225.39s-8.67,4.08-11.23,4.44-3.24,1.07-3.24,1.07,3.37-4.45,6.42-6.47c.64-.42-4.57-22.6-7.16-32.89a24.45,24.45,0,0,1,.29-13l9.74-.44,1,11.11.78,1.95a35.4,35.4,0,0,1,1.69,4c.6,2.92,1.48,6.8,1.56,8.33.14,2.58-.27,6.15-.25,7.06L211,221.89Z"/><path class="cls-7" d="M240.09,215.11s-5.47,11.51-7.53,13.06-2.18-.08-2.18-.08,1.47-9.47,1.26-10.85c-.11-.76-13.87-16.12-21.1-23.89-5-5.4-8.56-10-8.56-10l10.24-6.13,7.37,7.85,1.63,1.34a29.71,29.71,0,0,1,3,2.84c1.94,2.27,5.09,6.17,5.9,7.46,1.36,2.19,3.83,8.25,4.28,9l3.79,7.21Z"/><path class="cls-8" d="M191.58,231.25a1.53,1.53,0,0,0,0,1.53c.44.91,6.44-.88,8.59-.93s10.79-.24,12.81-1-.26-2.85-.26-2.85Z"/><path class="cls-8" d="M243.11,218.06s.32-.23,1.18.77c1.16,1.35-3.25,4.66-4.3,5.69s-3.76,5.11-6.24,7.3-6.34,2.79-7.26,2.19a1.23,1.23,0,0,1-.53-1.88c.37-.66,15.69-14.25,15.69-14.25Z"/><path class="cls-7" d="M237.7,212.54a38.48,38.48,0,0,0,3.61,3.54c.74.72,2.31,1.33,1.95,2.59-.64,2.24-2.74,3.27-3.27,4-1.14,1.49-2.27,2.41-3.25,4a12.21,12.21,0,0,1-2.62,3.24,1.42,1.42,0,0,1-.68.41c-.17,0-.35,0-.52.06-.61.13-.91.87-1.45,1.2a3.53,3.53,0,0,1-.78.31,14,14,0,0,0-2,1,4,4,0,0,1-2.09.57,1.41,1.41,0,0,1-1.37-1.26c0-1.05.95-1.22,1.59-1.84a5.14,5.14,0,0,0,1.18-1.72c1-2,1.09-2.32,1.94-3.95a54,54,0,0,0,3.14-7.23l-2.81-3.4"/><path class="cls-8" d="M233,230.29a.53.53,0,0,1-.61-.3.87.87,0,0,1-.06-.65,4.84,4.84,0,0,1,.57-1.27c0-.08-.08-.15-.12-.07a3.82,3.82,0,0,0-.62,1.54.88.88,0,0,0,.22.68.63.63,0,0,0,.69.19c.08,0,0-.16-.07-.12Z"/><path class="cls-8" d="M231.44,231.55c-.26.19-.54,0-.7-.24a1.12,1.12,0,0,1-.31-.77,2.53,2.53,0,0,1,.46-1.14,2.5,2.5,0,0,1,.56-.87c.07-.06,0-.15-.1-.1a3.49,3.49,0,0,0-.67,1,1.89,1.89,0,0,0-.38,1.31c.1.47.71,1.26,1.23.86a.07.07,0,1,0-.09-.1Z"/><path class="cls-8" d="M230.1,232.07a.8.8,0,0,1-.88-.41,1.28,1.28,0,0,1-.1-.88,3.19,3.19,0,0,1,.33-.89,6.87,6.87,0,0,1,.51-.81c.06-.06,0-.16-.09-.09a4.81,4.81,0,0,0-.6,1,2.94,2.94,0,0,0-.32,1,1.16,1.16,0,0,0,.27.9.87.87,0,0,0,.92.32.07.07,0,1,0,0-.13Z"/><path class="cls-8" d="M228.86,232.75a1.19,1.19,0,0,1-1.12-.28.93.93,0,0,1-.23-1,3.9,3.9,0,0,1,.46-1l.25-.41a1.93,1.93,0,0,1,.36-.52c.07-.05,0-.17-.07-.12a1.76,1.76,0,0,0-.37.52c-.11.17-.22.34-.32.52a3.5,3.5,0,0,0-.49,1.2,1,1,0,0,0,.39,1,1.32,1.32,0,0,0,1.18.26.07.07,0,0,0,0-.14Z"/><path class="cls-7" d="M210.38,221.17c.37,1,2.26,4.26,2.64,5.24a2.09,2.09,0,0,1-1.24,2.77c-1.06.56-3.61.36-4.82.46-1.59.13-3.37.76-5,.89a37.69,37.69,0,0,0-5.84.66,8.08,8.08,0,0,1-4.3.31c-.26-.05-.42,0-.56-.19a1,1,0,0,1,.22-1.48c.79-.63,1.92-.06,2.64-.77a2.34,2.34,0,0,1,.4-.37,2.63,2.63,0,0,1,1.06-.26c1.82-.22,1.58-1,3.89-1.88.68-.26,4.82-4.15,5.44-4.53"/><path class="cls-8" d="M196,228.6a5.12,5.12,0,0,0-1.67,1,1.76,1.76,0,0,0-1.28-.16,1.57,1.57,0,0,1,1.29,0l-.09,0a3.61,3.61,0,0,1,1.75-.94Z"/><path class="cls-15" d="M226.84,230.28c1.45-1,4-7.6,4-7.6"/><path class="cls-8" d="M229.32,225.31a1.83,1.83,0,0,0-.65,1.24l-.23,3,.37-.45.84-4.07Z"/><path class="cls-8" d="M228.54,229.47a1.19,1.19,0,0,1,.42-1.07c1.74-1.88,6.16-5.42,9.06-3l-.49.86s-2.68-1.44-4.66-.13S228.54,229.47,228.54,229.47Z"/><path class="cls-8" d="M195,229.05s2.24-1.05,2.55,2.06l1.39-.13s-.82-2.84-2.14-2.8A2.14,2.14,0,0,0,195,229.05Z"/><path class="cls-11" d="M67.23,83.17l0,.07.13-.15Z"/><path class="cls-8" d="M106.37,51.07a17.44,17.44,0,0,1-9.61-3.82s.39,1.64,3.6,3.21a13.64,13.64,0,0,0,5.92,1.45Z"/><path class="cls-16" d="M90.68,34.88a.28.28,0,0,0,0-.09,4.22,4.22,0,0,0-.92-1.93,3.79,3.79,0,0,0-.82-.72,3.74,3.74,0,0,0-1-.47,2.87,2.87,0,0,0-1.51-.13l-.26.08c-.85-4.31-1-8.82,2.64-13.61A16.34,16.34,0,0,1,93.1,14.8c4.62-2.67,8.48-2.49,13.15-1.52,5.42,1.11,10.16,5.17,10.83,10.83.17,1.36.81,3.38.54,4.73,0,0-1-6.24-3.48-8.09s-3.19.41-6.94.1c-4.33-.38-5.51-2.88-9.17-1.44a8.78,8.78,0,0,0-4.57,4c-.68,1.84-1.68,3-1.38,5.22.07.53.12,1.06.16,1.59A13.58,13.58,0,0,1,92,33.06a1.84,1.84,0,0,1-.79,1.16C90.69,34.48,91.13,35.09,90.68,34.88Z"/><path class="cls-17" d="M91,34.8a4.06,4.06,0,0,0-4.88-3.39l.37.13c-.69-3.57-.73-7.18.84-10.54a11.14,11.14,0,0,1,3.52-4.51,23.44,23.44,0,0,1,3.84-2.26c3.67-1.72,7.59-1.57,11.47-.73a14.28,14.28,0,0,1,8.15,4.86,11.43,11.43,0,0,1,2.31,4.79c.37,1.77,1,3.92.7,5.71l.61-.1a19.4,19.4,0,0,0-2.08-6.4A4.82,4.82,0,0,0,113,19.87c-1.11-.27-2.13.27-3.18.54a10,10,0,0,1-6.23-.75,8.1,8.1,0,0,0-3.91-.89,8.81,8.81,0,0,0-6.44,4.5,10.07,10.07,0,0,0-1.49,4.94,26.34,26.34,0,0,1,.12,3.66c0,.27-.06.55-.11.82a3.27,3.27,0,0,1-.84,1.44,3.63,3.63,0,0,0-.33.75l.39-.19-.17,0c-.3-.06-.62.36-.21.44l.17,0a.4.4,0,0,0,.4-.19c.22-.45.54-.75.81-1.19a5.45,5.45,0,0,0,.54-2.55c.1-2-.43-3.86.38-5.78,1.17-2.76,2.65-5,5.72-6a6.38,6.38,0,0,1,4.49.57,13.15,13.15,0,0,0,4.45,1.09,12.44,12.44,0,0,0,3.77-.7c1.59-.44,2.84.46,3.69,1.76a17.59,17.59,0,0,1,2.31,6.76c0,.28.58.12.62-.1.26-1.78-.33-3.74-.65-5.49a11.48,11.48,0,0,0-1.92-4.57,14.4,14.4,0,0,0-8.26-5.53,19.37,19.37,0,0,0-11.21,0c-3,1.06-6.29,3-8.06,5.71-2.54,3.9-2.82,8.27-2,12.73,0,.15.25.16.36.13,1.87-.59,4,1.3,4.15,3.13C90.4,35.24,91,35.09,91,34.8Z"/><ellipse cx="114.63" cy="34.34" rx="1.18" ry="1.17" transform="translate(42.74 130) rotate(-69.75)"/><path class="cls-16" d="M116.12,33.52a3.81,3.81,0,0,0-2.4-.77c-1.82,0-2.91,2.12-2.91,2.12a4.06,4.06,0,0,1,3-1.61,6.6,6.6,0,0,1,2.84,1.08A1.46,1.46,0,0,0,116.12,33.52Z"/><path class="cls-17" d="M87.5,35.48a2.43,2.43,0,0,1,.24-1.88l-.17.06s0,0,0,0l.1,0a1.53,1.53,0,0,1,.41.31,7.63,7.63,0,0,1,1.45,2.4l.28-.1a1,1,0,0,0-.68-.29.63.63,0,0,0-.51.57c-.14.76.5,1.24,1.16,1.39.11,0,.34-.14.17-.18a1.16,1.16,0,0,1-1.06-1,.7.7,0,0,1,.16-.54c.14-.1.39.1.49.2s.33,0,.28-.1a11.89,11.89,0,0,0-1-1.86,3.19,3.19,0,0,0-.72-.79,1.09,1.09,0,0,0-.37-.19c-.19,0-.28.1-.36.25a2.66,2.66,0,0,0-.16,1.82c0,.12.31.05.28-.07Z"/><ellipse cx="102.48" cy="33.06" rx="1.18" ry="1.17" transform="translate(36 117.77) rotate(-69.75)"/><path class="cls-16" d="M105.67,34.21s-1.48-2.57-3.49-2.64c-2.83-.1-3.38.83-4,1.66a7.08,7.08,0,0,1,4-1.18C104.16,32.16,105.67,34.21,105.67,34.21Z"/><path class="cls-18" d="M107.83,42.91c-1.68-.2-4.39-.71-4.39-.71s-.69,4,4,4.45a3.92,3.92,0,0,0,4.43-3.37S109.51,43.11,107.83,42.91Z"/><path class="cls-19" d="M107.85,42.91c-.8-.09-3.78-.48-3.78-.48a4,4,0,0,0,3.54,2.51c3.14.37,3.64-1.45,3.64-1.45Z"/><path class="cls-20" d="M107.84,43.21c-.79-.09-3.21-.51-3.21-.51s.77.94,3.17,1.23,3.26-.45,3.26-.45Z"/><path class="cls-18" d="M111.84,43.25c0-.09-.16-.15-.55-.23-.66-.13-.85-.39-1.32-.48a7.26,7.26,0,0,0-1.73.05,7.17,7.17,0,0,0-1.66-.45c-.49,0-1.69,0-2.36,0a6.08,6.08,0,0,1-.94-.21c-.12,0,0,1.13,4.5,1.66S111.82,43.37,111.84,43.25Z"/><path class="cls-13" d="M89.36,27.74A17.53,17.53,0,0,1,90,23a10.35,10.35,0,0,1,3.56-5.22,13.69,13.69,0,0,1,4.81-2.48c2.44-.44,3.72-1,8.22.15,1.91.5,2.23.22,3.93,1.2L113,18.74C111.6,22.18,98.73,26.84,94.7,28a43.37,43.37,0,0,1-1,4.37,4.07,4.07,0,0,1-.92,1.87c-.57.77-1.3,1.25-1.88.83s-.92-2.32-1-2.92A11.53,11.53,0,0,1,89.36,27.74Z"/><path class="cls-21" d="M106,29.51s-.13-.07-.12-.11a12.78,12.78,0,0,0-4.36-1.2,4.17,4.17,0,0,0-1.42.31,6.5,6.5,0,0,0-1.48.74c-.19.25.74,0,.74,0a3.12,3.12,0,0,1,.52-.08,10.41,10.41,0,0,1,3.11.16,14.11,14.11,0,0,1,2.78,1.49C105.87,30.36,105.87,29.94,106,29.51Z"/><path class="cls-21" d="M111,30.43s.13,0,.13-.08a10.07,10.07,0,0,1,4-.13,3.46,3.46,0,0,1,1.13.64,5.9,5.9,0,0,1,1.09,1.07c.1.28-.62-.2-.62-.2a2.35,2.35,0,0,0-.43-.19,7.82,7.82,0,0,0-2.66-.59,11.46,11.46,0,0,0-2.67.79C111,31.29,111.06,30.88,111,30.43Z"/><ellipse class="cls-22" cx="93.68" cy="26.37" rx="1.02" ry="2.71" transform="translate(5.27 67.05) rotate(-40.43)"/><path class="cls-23" d="M118.5,82.09s.54-8.56.42-12.5a15.08,15.08,0,0,0-.28-2.41l-.73-8.1a30.68,30.68,0,0,1,3.93,6.2c2.13,4.22,2.92,15.37,2.92,15.37A15.1,15.1,0,0,1,118.5,82.09Z"/><path class="cls-12" d="M83.79,38c1,1.06,2.3,1.85,3.33,2.92A5.06,5.06,0,0,1,88.72,45a5.84,5.84,0,0,1-1,2.26,22.71,22.71,0,0,1-2.44,3.22,1.53,1.53,0,0,1-.62.46c-.5.14-1-.32-1.28-.75-.69-.91-1.34-1.86-2-2.84a7.54,7.54,0,0,1-1.49-5,8.3,8.3,0,0,1,2.43-4.07"/><path class="cls-12" d="M82.4,47a13.51,13.51,0,0,0-1.34,4.4,5.42,5.42,0,0,0,1.42,4.3,4.73,4.73,0,0,0,3,1.3.8.8,0,0,0,.38,0,.88.88,0,0,0,.27-.24c1.39-1.8,2.48-2.64,2.56-4.87a9.94,9.94,0,0,0-.29-2C88,48.93,86.8,48.26,86,47.68"/><path class="cls-12" d="M83.62,54.86a10.25,10.25,0,0,0-1.08,3.46,4.24,4.24,0,0,0,1.18,3.4,4,4,0,0,0,2.42,1,.63.63,0,0,0,.31,0,.67.67,0,0,0,.22-.19c1.13-1.42,2-2.07,2.1-3.84a3.11,3.11,0,0,0-.15-1,7.57,7.57,0,0,0-2-2.28"/><path class="cls-12" d="M84.84,62.37c-.39,1-1.09,3-.35,3.77a18.21,18.21,0,0,1,2.3,2.17,7.43,7.43,0,0,1,.91,2.1,31.06,31.06,0,0,0,1.18-4.84A7.37,7.37,0,0,0,88.4,63a6.15,6.15,0,0,0-1.8-1.6c-.33-.16.22.3-.15.3s-.44.29-.52.65"/><path class="cls-12" d="M109.45,51.33a8.4,8.4,0,0,0-1.06,3.46,5.39,5.39,0,0,0,1.43,4.29,4.66,4.66,0,0,0,3,1.31.81.81,0,0,0,.38,0,.69.69,0,0,0,.26-.25c1.39-1.79,2.49-2.63,2.56-4.86a10.12,10.12,0,0,0-.28-2.05c-.35-.87-1.55-1.54-2.33-2.11"/><path class="cls-12" d="M110.9,58.73a10.3,10.3,0,0,0-1.08,3.47A4.16,4.16,0,0,0,111,65.59a3.93,3.93,0,0,0,2.42,1,.66.66,0,0,0,.31,0,.64.64,0,0,0,.21-.19c1.14-1.41,2-2.07,2.11-3.83a3.14,3.14,0,0,0-.16-1,7.66,7.66,0,0,0-2-2.28"/><path class="cls-12" d="M112.12,66.24c-.4,1-1.1,3-.35,3.77a17.47,17.47,0,0,1,2.29,2.17,7.56,7.56,0,0,1,.91,2.1,31.09,31.09,0,0,0,1.19-4.84,7.32,7.32,0,0,0-.48-2.57,6.14,6.14,0,0,0-1.8-1.6c-.34-.17.22.29-.16.29s-.43.29-.51.66"/><path class="cls-21" d="M110.78,38.33A5.14,5.14,0,0,1,111.1,40c0,.31-.32.5-.56.67a1.21,1.21,0,0,1-.42.22,2.55,2.55,0,0,1-.73,0,3.74,3.74,0,0,1-1.58-.41c-.06,0-.26,0-.17.1a3.63,3.63,0,0,0,1.43.42,2.44,2.44,0,0,0,1.34-.12,2,2,0,0,0,.82-.66,1.4,1.4,0,0,0,0-1c-.06-.32-.18-.64-.25-1,0-.07-.23,0-.22.06Z"/><path class="cls-21" d="M105.88,38.86a.53.53,0,0,0-.5.19,1.19,1.19,0,0,0-.18.55.68.68,0,0,0,.11.52,1.08,1.08,0,0,0,.67.38,1.14,1.14,0,0,0,.52,0c.2,0,.4-.1.61-.12,0,0,.13,0,.15,0s0,0-.05,0a3.84,3.84,0,0,1-.89.14,1.53,1.53,0,0,1-.66-.26.8.8,0,0,1-.19-.93.77.77,0,0,1,.12-.24.34.34,0,0,1,.08-.09s0,0,0,0,0,0,0,0a.37.37,0,0,0,.15,0s.08,0,0,0Z"/><path class="cls-21" d="M98.15,33.23s-.7.17-1-.71a4.1,4.1,0,0,0,2.5-.1Z"/><path class="cls-21" d="M116.91,34.85s.51.32.93-.47c0,0-.68.26-1.91-.64Z"/><path class="cls-24" d="M214.43,202.84c-.57-.13-.13-.37-.7-.52l-2.56-4.84-3-26.68-4-13.84,26.56-.66.62,4.59a41.66,41.66,0,0,1-.08,11.59L229,186.19s2,9.79,2.08,11.71c-1.08,1.2-4.75,3-9,3.69"/><path class="cls-24" d="M202.44,198.64c-2.43-.18-5.57-.55-7.34-2l-.75-36.68,13.46-3.64,4.45,40.86C209.56,197.19,205.14,198.84,202.44,198.64Z"/><path class="cls-25" d="M211.28,197.23l-3.38-24.59s-1.78-4-3-4.11"/><path class="cls-7" d="M203.13,99.6a26.53,26.53,0,0,1,.5-5.48c0-.74.09-1.58.15-2.61,0-.29.05-.58.07-.86a2.1,2.1,0,0,0,.05-.43,16.19,16.19,0,0,1,2.43-7.44,11,11,0,0,1,10.1-4.27,15,15,0,0,1,10.43,6.6,7.16,7.16,0,0,1,1.07,5,29.2,29.2,0,0,1-1.26,4.73c1.61.06,3.14.77,2.31,3.67-1.14,4-3.87,5.06-5,3.84-.29,0-1,1.22-1.09,2.06-.26,1.62-.71,4.75,0,6.25l.2.22c-3.92,5.3-6.23,8.36-17.79,4.08l4.22-5.11.18-1.83a4.76,4.76,0,0,1-2-.44C204.08,106.32,203.19,101.47,203.13,99.6Z"/><path class="cls-26" d="M229.1,132.85a61.53,61.53,0,0,1,.37,7.1c.05.25.79,12.06,2,21.57a30.12,30.12,0,0,1-5.44,1.3c-3.53.36-8.43,1.37-12,1.05-3.17-.29-9.54-.43-12.69-.92-3.59-.56-4.33-1.38-7.74-3.15,1.41-7.51,2.94-17.66,3.31-21.19.4-3.9.22-2.3.22-2.3s-4.43-.56-5.51-3.46c1.88-4.32,2.89-17.27,10.51-20.93,1.08-.52,5.57-2.25,7.19-2.2a5.44,5.44,0,0,0-.65,2.67,2.76,2.76,0,0,0,1.48,2.44,10.05,10.05,0,0,0,4.9.83c3.59-.52,6.52-3.91,7.93-6.06a66.8,66.8,0,0,1,7.82,3.94c8.69,4.47,6.23,17.69,6.23,17.69C235.43,132.1,229.1,132.85,229.1,132.85Z"/><path class="cls-11" d="M176.12,132.09a.21.21,0,0,0,0,.06l.1-.13Z"/><path class="cls-8" d="M209.68,108a14.62,14.62,0,0,0,8.49-1.55s-.59,1.27-3.47,2a11.35,11.35,0,0,1-5.08.23Z"/><circle cx="205.65" cy="93" r="0.98" transform="translate(-12.01 33.3) rotate(-9)"/><path class="cls-16" d="M204.56,92.08a3.22,3.22,0,0,1,2.08-.24c1.51.26,2,2.21,2,2.21a3.39,3.39,0,0,0-2.16-1.8,5.57,5.57,0,0,0-2.5.42A1.17,1.17,0,0,1,204.56,92.08Z"/><path class="cls-17" d="M228,98.63a2.24,2.24,0,0,0,.18-1.46c0-.1,0-.21-.15-.21a1.79,1.79,0,0,0-1.11.59,8.66,8.66,0,0,0-1.2,1.43s.19,0,.21,0,.25-.13.37,0,.14.31.13.45a.86.86,0,0,1-.92.76s-.14,0-.17,0,0,0,0,0c.58,0,1.27-.25,1.32-.91,0-.23,0-.5-.3-.53a1,1,0,0,0-.62.18l.21,0a9.36,9.36,0,0,1,1-1.25,3.12,3.12,0,0,1,.66-.54.82.82,0,0,1,.19-.09h.06s0,0,0,0,0,0,0,0,0,.08,0,.12a2.13,2.13,0,0,1-.16,1.47s.21,0,.24,0Z"/><circle cx="215.79" cy="93.93" r="0.98" transform="translate(-12.03 34.9) rotate(-9)"/><path class="cls-16" d="M213,94.35s1.63-1.87,3.29-1.6c2.32.38,2.65,1.39,3.05,2.18a5.73,5.73,0,0,0-3.14-1.78A4.62,4.62,0,0,0,213,94.35Z"/><path class="cls-18" d="M209.77,101.11c1.41.11,3.7.14,3.7.14s-.08,3.36-4,3a3.27,3.27,0,0,1-3.07-3.48S208.37,101,209.77,101.11Z"/><path class="cls-19" d="M209.76,101.11c.67.06,3.16.23,3.16.23a3,3,0,0,1-3.13,1.48c-2.63-.21-2.9-1.79-2.9-1.79Z"/><path class="cls-20" d="M209.71,101.42c.67,0,2.71.1,2.71.1a5.31,5.31,0,0,1-2.85.33c-2-.16-2.53-.73-2.53-.73Z"/><path class="cls-18" d="M206.44,100.74c0-.07.16-.09.49-.09.56,0,.75-.19,1.16-.19a6.86,6.86,0,0,1,1.4.32,6.31,6.31,0,0,1,1.43-.09c.4.06,1.38.28,1.93.37a5.51,5.51,0,0,0,.8,0c.09,0-.21.92-4,.63S206.44,100.84,206.44,100.74Z"/><path class="cls-21" d="M213.49,90.45s.12,0,.12-.07a10.51,10.51,0,0,1,3.77-.27,3.5,3.5,0,0,1,1.11.48,5.44,5.44,0,0,1,1.09.85c.11.23-.6-.14-.6-.14a3.52,3.52,0,0,0-.42-.15,8.75,8.75,0,0,0-2.57-.38,11.92,11.92,0,0,0-2.51.77C213.46,91.16,213.53,90.82,213.49,90.45Z"/><path class="cls-21" d="M209.22,90.38s-.1,0-.09-.08a8.2,8.2,0,0,0-3.22-.75,2.91,2.91,0,0,0-1,.34,4.64,4.64,0,0,0-1.06.69c-.13.22.54-.06.54-.06a2.62,2.62,0,0,1,.38-.09,6.48,6.48,0,0,1,2.28,0,9.38,9.38,0,0,1,2,1.08C209.14,91.1,209.13,90.75,209.22,90.38Z"/><path class="cls-27" d="M197.5,122.16a50.56,50.56,0,0,0-.32,7.28,32,32,0,0,1-.27,6.91c0,.17.49.08.53-.07a19,19,0,0,0,.35-5.21c0-.53-.08-1-.08-1.58a50.93,50.93,0,0,1,.32-7.41c0-.17-.51-.08-.53.08Z"/><path class="cls-26" d="M225.44,111.89s9.39.67,11.82,9.66A59.24,59.24,0,0,1,239,139.39s-9.3-.41-13.59-1,0-25.91,0-25.91"/><path class="cls-27" d="M227.79,138.56l-1.07-.09c-.07,0-.45,0-.5-.05s.1,0,.07,0a5.08,5.08,0,0,1,0-1.56c0-2.2,0-4.41.08-6.62a26.08,26.08,0,0,1,.82-7c.48-1.49,1.6-3.36,3.29-3.72.31-.07.26-.28-.06-.21-3.64.79-4.21,5.39-4.44,8.41a108.29,108.29,0,0,0-.19,11s.07,0,.09,0l1.61.14c.13,0,.61-.22.33-.25Z"/><path class="cls-16" d="M224.84,97.81a.64.64,0,0,0,0-.07A3.71,3.71,0,0,1,226,96.29a3.33,3.33,0,0,1,.8-.46,3.14,3.14,0,0,1,.9-.23,2.39,2.39,0,0,1,1.27.14l.21.11c1.41-3.43,2.24-7.17.05-11.74a13.55,13.55,0,0,0-3-3.37c-3.39-3-6.63-3.47-10.67-3.44-4.69,0-9.3,2.61-10.79,7.21a8.7,8.7,0,0,0-.66,3s1.3-4.18,3.66-5.31,2.58.87,5.75,1.23c3.66.4,5.05-1.48,7.85.32a7.4,7.4,0,0,1,3.14,4.07c.27,1.64.9,2.77.28,4.56-.14.43-.27.86-.39,1.3a11.54,11.54,0,0,0-.23,2.42,1.53,1.53,0,0,0,.46,1.09C224.9,97.48,224.44,97.91,224.84,97.81Z"/><path class="cls-17" d="M225.1,97.79c.42-1.42,2.43-2.56,3.83-1.79a.33.33,0,0,0,.44-.12,14.56,14.56,0,0,0,1-9.28,12.56,12.56,0,0,0-5.35-7c-4.55-3.19-11.79-3.46-16.47-.38a10.74,10.74,0,0,0-4.8,8.36c0,.25.45.2.51,0,.62-2,2.27-5.75,4.82-5.48,1.2.12,2.28,1.16,3.49,1.43a11.4,11.4,0,0,0,4.58-.14,5.38,5.38,0,0,1,5.34,1.72,6.84,6.84,0,0,1,1.65,2.79,17,17,0,0,1,.48,2.25,7,7,0,0,1-.46,3.15,8.15,8.15,0,0,0-.35,2.86c.07.64.59,1.1.58,1.7a.18.18,0,0,0,.17.17h.17c.25,0,.53-.34.18-.37.17,0-.45-1.07-.44-1a5.88,5.88,0,0,1,.21-3.34,8.94,8.94,0,0,0,.54-2.5,12,12,0,0,0-.39-2.22,7.61,7.61,0,0,0-3.69-5.13c-2.5-1.4-5.17.22-7.83-.19-2.23-.34-3.76-2.34-6-1-1.81,1.06-2.92,3.36-3.53,5.29h.51a10.4,10.4,0,0,1,5.91-8.81,15.79,15.79,0,0,1,10.88-.57c3.06.91,6.7,3.51,8,6.51,1.66,3.72,1.24,7.51-.25,11.2l.45-.12a3.56,3.56,0,0,0-4.75,2.13C224.51,98.08,225,98,225.1,97.79Z"/><path class="cls-21" d="M213.39,74.57a4.62,4.62,0,0,0,1.42.34,4.33,4.33,0,0,0,2-.3l2.12.15c2.34,1.35,6.68,2.14,8.4,3.76a7.8,7.8,0,0,1,2.2,4.06l.57.61a5.45,5.45,0,0,1,1.27,2.32c1.89,7.57-2.23,10.34-2.23,10.34s-1.24-11.85-9-15.7-15.81,4-15.81,4C206.15,76.34,211.3,74.85,213.39,74.57Z"/><path class="cls-21" d="M210.22,99a2.87,2.87,0,0,1-1.51.07,1.47,1.47,0,0,1-.92-.47.86.86,0,0,1-.12-.93c.17-.36.39-.68.53-1.06,0,0-.18,0-.19,0a7.81,7.81,0,0,1-.48,1,.85.85,0,0,0-.11.71c.22.69,1,.85,1.58.9a3,3,0,0,0,1.29-.15c.13,0,0-.09-.07-.06Z"/><path class="cls-21" d="M212.07,97.91c.14,0,.2.15.23.26a1.19,1.19,0,0,1,0,.46.7.7,0,0,1-.15.4.72.72,0,0,1-.56.2c-.29,0-.52-.2-.78-.28a.24.24,0,0,0-.14,0s-.06,0,0,0c.27.09.5.29.79.29a1.41,1.41,0,0,0,.73-.17.64.64,0,0,0,.31-.44,1.57,1.57,0,0,0,0-.53c0-.17-.12-.33-.31-.34a.25.25,0,0,0-.14,0s0,0,0,0Z"/><path class="cls-21" d="M229.35,96a1.06,1.06,0,0,0,1.43-.46c.26-.58,0-1.35.4-1.82a4.25,4.25,0,0,1,.47-.37,1.75,1.75,0,0,0,.58-1.28,5.43,5.43,0,0,0-.15-1.44,2.06,2.06,0,0,1,.11-1.41c.26-.41,1-.54,1.2-.12a2.17,2.17,0,0,0-.75-1.6,2.27,2.27,0,0,1-.54-.53c-.26-.47.07-1,.12-1.58a2.06,2.06,0,0,0-1-1.77,6,6,0,0,0-2-.74l-.7,6.8"/><path class="cls-21" d="M229.23,82.86a1.33,1.33,0,0,0,.21-1.85c-.25-.32-.62-.54-.84-.88a3.43,3.43,0,0,1-.36-1.35,1.46,1.46,0,0,0-.7-1.16,2.51,2.51,0,0,0-.66-.14,2.07,2.07,0,0,1-1.61-2.29,1.08,1.08,0,0,0-1.18.61c-.08.18-.11.38-.2.55a.47.47,0,0,1-.46.3.57.57,0,0,1-.35-.26c-.46-.58-1-1.34-1.69-1.29a8.09,8.09,0,0,1-.83.16c-.7,0-1.08-.89-1.75-1.12s-1.42.3-2.13.15a1.17,1.17,0,0,1-.87-1.33c-.71,0-1.09.86-1.73,1.15-.91.41-2-.37-2.94-.2a3.06,3.06,0,0,0-1.33.73l-.42.34a.73.73,0,0,1-.25,1,2.91,2.91,0,0,1-1.17.32c-.69.11-1.47.5-1.55,1.19,0,.29,0,.64-.19.82a1.09,1.09,0,0,1-.35.15,1.18,1.18,0,0,0-.75,1.32,4.47,4.47,0,0,1,.16.63,1.85,1.85,0,0,1-.34.91,3.5,3.5,0,0,0-.35,2.06c3.76-2.28,7.88-4.24,12.27-4.44"/><path class="cls-21" d="M205.16,82.5a6.69,6.69,0,0,1-.76,1.07,2.14,2.14,0,0,1-1.1.69.35.35,0,0,0-.16.06c-.12.09-.07.28,0,.43l.69,1.62c.15-.24.29-.48.43-.73l1.52-2.76"/><path class="cls-21" d="M224.78,95.64a1.61,1.61,0,0,1-.6-1.77c.14-.43.47-.8.48-1.25,0-.6-.52-1.13-.43-1.73.05-.33.3-.64.23-1s-.58-.58-.81-.93,0-1.13.13-1.71a.55.55,0,0,0,0-.36.53.53,0,0,0-.31-.21,14.77,14.77,0,0,0-1.55-.51,1.57,1.57,0,0,0-.23-1.2.94.94,0,0,0-1.11-.33,3,3,0,0,1-.39.22c-.36.12-.72-.2-.94-.52s-.43-.69-.81-.77-.86.29-1.26.53a1.64,1.64,0,0,1-1.41.16,1.08,1.08,0,0,1-.66-1.18c.16-.72,1-.94,1.78-1,1.94-.2,4-.24,5.68.81,0,0,4,3.83,4,7.06A10.48,10.48,0,0,1,224.78,95.64Z"/><path class="cls-21" d="M214.45,83.1a3.24,3.24,0,0,1-1,.67,1.17,1.17,0,0,1-1.17-.17,5.5,5.5,0,0,1-.47-.61.59.59,0,0,0-.68-.22,1.16,1.16,0,0,0-.28.26.83.83,0,0,1-1.07.08c-.4-.29-.62-1-1.11-.89s-.52,1-1,1.21-1.07-.14-1.28.27a.7.7,0,0,0-.06.35,1.74,1.74,0,0,1-1.59,1.56,2.89,2.89,0,0,1,.58-1.85,14.71,14.71,0,0,1,3.82-4.08"/><ellipse class="cls-28" cx="108.98" cy="30.15" rx="0.55" ry="0.43" transform="translate(70.54 136.49) rotate(-85.59)"/><path class="cls-29" d="M68.24,176.15c.9,1.54,3,1,4.38.65,2-.49,3.59.36,5.34,1.2a7.43,7.43,0,0,0,4.58.93,12.92,12.92,0,0,0,4.17-2A10.61,10.61,0,0,1,89,175.87a5.2,5.2,0,0,1,3,.08c2,.58,3.75,1.56,5.74,2.06a10.24,10.24,0,0,0,5.41.11,9,9,0,0,0,2.39-1.18,4.32,4.32,0,0,1,3-.79c2.26.26,4.26,1.54,6.47,2a14.07,14.07,0,0,0,6.79-.26c.51-.14.39-.59-.12-.45a12.77,12.77,0,0,1-6.38.18c-1.9-.44-3.63-1.42-5.53-1.84a6,6,0,0,0-4.77.87,6.87,6.87,0,0,1-2.75,1.18,9,9,0,0,1-3-.08,29.68,29.68,0,0,1-5.64-1.89,7.23,7.23,0,0,0-5-.4,23.7,23.7,0,0,0-4,2.13,6.75,6.75,0,0,1-2.28.88,5.11,5.11,0,0,1-2.59-.39c-1.66-.64-3.18-1.71-5-1.94a7.62,7.62,0,0,0-2.88.33c-1,.26-2.3.39-2.92-.67-.15-.26-1,0-.79.34Z"/><path class="cls-29" d="M68.52,172.73c.86,1.48,2.83,1.06,4.18.72a5.12,5.12,0,0,1,3,.05,19.67,19.67,0,0,1,2.35,1,7.66,7.66,0,0,0,4.57,1,12.13,12.13,0,0,0,4.27-1.93,11.68,11.68,0,0,1,2.23-1.13,5.19,5.19,0,0,1,3.19.07c1.93.6,3.71,1.55,5.67,2a10.55,10.55,0,0,0,5.35.14,8.91,8.91,0,0,0,2.41-1.15,4.37,4.37,0,0,1,3.1-.85c2.25.29,4.25,1.55,6.46,2a14.19,14.19,0,0,0,6.79-.27c.5-.14.41-.51-.1-.37a12.89,12.89,0,0,1-6.38.17c-1.9-.44-3.63-1.42-5.53-1.84a6,6,0,0,0-4.77.88,7,7,0,0,1-2.65,1.17,9.25,9.25,0,0,1-3-.06,28.21,28.21,0,0,1-5.63-1.88,7.35,7.35,0,0,0-5-.44,21.49,21.49,0,0,0-4,2.11,7.21,7.21,0,0,1-2.27.91,5.09,5.09,0,0,1-2.5-.33c-1.7-.62-3.24-1.74-5.06-2a6.93,6.93,0,0,0-2.75.28c-1,.27-2.46.52-3.12-.61-.15-.26-1,0-.85.23Z"/><path class="cls-14" d="M120.23,80.45a13.86,13.86,0,0,0,4.33-1.51c.21-.11.35-.41.1-.55a1,1,0,0,0-.92.1s0,0,0,0l-.12.06-.19.09-.44.21c-.14.06-.29.13-.44.18l-.23.09-.12,0c-.31.11-.62.2-.93.28l-.47.11-.2,0q-.14,0,0,0l-.14,0c-.25,0-.67.16-.73.46s.38.36.57.32Z"/><path class="cls-7" d="M79.56,80.18l-5,21.41,2.11,22.65-6,3.4s-5-15-5.89-18.06c-1.14-3.93-2.07-6.12-1.88-10,.08-1.86,4.49-22,4.49-22Z"/><path class="cls-7" d="M76,120.94a14,14,0,0,0,1.27,2.1c.32.25,3,.71,3.73,1.54s2.42,3.1,3,3.21-.18,1.31-1,1.38a4.09,4.09,0,0,1-2.84-1.23c-.84-.82-1.29.42-1.29.42l1.9,4.78,2.29,2.22s2.25.64,2.73,1.44a1.93,1.93,0,0,1-.12,1.12c-.24.39-2.51.55-2.51.55s.91,1.78,0,2.14a3.84,3.84,0,0,1-2.1,0s-.51,1.11-1,1a27.61,27.61,0,0,1-4.77-2.43A49.31,49.31,0,0,1,72,134.83l-1.9-9.68,2.08-4.45Z"/><path class="cls-8" d="M77.19,133.25a12.12,12.12,0,0,0,1.58,2.54,7.66,7.66,0,0,0,3,2.24,8.18,8.18,0,0,0,1.49.43s-.15,0-.42,0a4.76,4.76,0,0,1-1.12-.24A7.27,7.27,0,0,1,78.56,136a11.42,11.42,0,0,1-1.51-2.48Z"/><path class="cls-8" d="M75.21,136.11A12.28,12.28,0,0,0,79.72,140a14.64,14.64,0,0,1,1.34.61,1.34,1.34,0,0,1-.39-.07,6.79,6.79,0,0,1-1-.37A11.05,11.05,0,0,1,75,136.3Z"/><path class="cls-23" d="M78.62,57s-6,.16-9.8,11.08-2.53,10.72-2.53,10.72,9.19,5.44,14.31,3.74c1.92-.64,2-9,1.87-14a21.77,21.77,0,0,0-1.9-8.41A10.61,10.61,0,0,0,78.62,57Z"/><path class="cls-14" d="M66.57,76.44a20,20,0,0,1,3.19,2A11.76,11.76,0,0,0,73,80a27.18,27.18,0,0,0,7.13.85c.28,0,.72-.08.85-.37S80.86,80,80.6,80a26.24,26.24,0,0,1-6.84-.81c-2.32-.71-4-2.43-6.18-3.4a1,1,0,0,0-.92.1c-.16.12-.39.44-.09.57Z"/><path class="cls-7" d="M216.47,130.49l19.47,5.41a6.28,6.28,0,0,1,3.18,3.24,6.16,6.16,0,0,1-.24,3.3c-.78,1.95-1,2.9-3.73,3.36s-20.61-10-20.61-10Z"/><path class="cls-7" d="M218.14,131.42l-3.57-3.13s-5.1-2.12-6-1.86-2.12.72-1.36,2c0,0-1.34,1-.89,1.8a1.92,1.92,0,0,0,1.49.8s-1.56.54-1.12,1.54,1,.82,1,.82-.34.69.08.91a12.11,12.11,0,0,0,2,.56,13.5,13.5,0,0,0,3.49,2.13,6.64,6.64,0,0,0,3.07,0Z"/><circle class="cls-30" cx="149.15" cy="218.28" r="16.26"/><path class="cls-31" d="M134,224.17a16.18,16.18,0,0,0,4.84,6.75c15.81-5.1,19.87-9.71,25.66-18a16.29,16.29,0,0,0-5.27-7.28C150.49,219.18,138.46,222.34,134,224.17Z"/><path class="cls-8" d="M142,112.84a6.56,6.56,0,0,1-2.8,1.1,16.85,16.85,0,0,0-2.54.53c-.64.24-1.5.71-1.56,1.47-.09.93,1.29.87,1.88.89a20.68,20.68,0,0,0,3.69-.15c.21,0,.42-.25.08-.21a21.27,21.27,0,0,1-4,.11c-.46,0-1.18-.06-1.18-.68s.54-1,1-1.17a14.58,14.58,0,0,1,3-.67,6.94,6.94,0,0,0,2.81-1.18c.2-.16-.28-.12-.38,0Z"/></g></svg>