<svg xmlns="http://www.w3.org/2000/svg" xmlns:xlink="http://www.w3.org/1999/xlink" viewBox="0 0 292.89 301.99"><defs><style>.cls-1{fill:none;}.cls-2{clip-path:url(#clip-path);}.cls-3{fill:#86c460;}.cls-4{fill:#5e9641;}.cls-5{clip-path:url(#clip-path-2);}.cls-6{fill:#f2ebd1;}.cls-7{clip-path:url(#clip-path-3);}.cls-8{fill:#ddad6f;}.cls-9{fill:#4c3059;}.cls-10{fill:#dbb28e;}.cls-11{fill:#825639;}.cls-12,.cls-24{fill:#151210;}.cls-13{fill:#131429;}.cls-14{fill:#628e9f;}.cls-15{fill:#4f2e25;}.cls-16{fill:#13110f;}.cls-17{fill:#040404;}.cls-18{fill:#94664a;}.cls-19{fill:#060505;}.cls-20{fill:#f1eef7;}.cls-21{fill:#513835;}.cls-22{fill:#745245;}.cls-23{fill:#27153c;}.cls-24{stroke:#231f20;stroke-miterlimit:10;stroke-width:0.32px;}.cls-25{fill:#874d3e;}.cls-26{fill:#231f20;}.cls-27{fill:#1d170f;}.cls-28{fill:#31160e;}.cls-29{fill:#ccb631;}.cls-30{fill:#aa3828;}.cls-31{fill:#d58780;}.cls-32{fill:#4d1513;}.cls-33{fill:#412b12;}</style><clipPath id="clip-path"><circle class="cls-1" cx="-234.69" cy="152.53" r="126.36" transform="translate(-176.6 -121.27) rotate(-45)"/></clipPath><clipPath id="clip-path-2"><path class="cls-1" d="M275.43,137.8a6.9,6.9,0,0,0-1.81-5.26,9.55,9.55,0,0,0-2.43-1.57,126.56,126.56,0,0,0-113-104.39c-1.64-7.48-7-12.42-18.08-16.12-19.86-6.6-30-1.75-30-1.75a15.75,15.75,0,0,1-5.84,3.42c-11.7,3.59-17.82,14.12-19.06,23.66-.08.68,1,4.93,1,5.57C44.62,62.1,20.05,103,20.05,152.53a126.05,126.05,0,0,0,10.32,50.12c-.25,16,5.36,26.16,9.56,34.43,5.21,10.28,28.5,14.64,28.5,14.64-1.51.06,7.22,5.59,7.22,5.59A126.5,126.5,0,0,0,273,152.53c0-2.16,0-4.3-.16-6.44a9.72,9.72,0,0,0,1.29-2.72A20.37,20.37,0,0,0,275.43,137.8ZM117.67,20.39l-3.91,1.34"/></clipPath><clipPath id="clip-path-3"><path class="cls-1" d="M162.05,17.82A43.17,43.17,0,0,0,77.77,31c0,.58,0,1.15,0,1.73a140.39,140.39,0,1,0,84.24-14.92Z"/></clipPath></defs><g id="Layer_2" data-name="Layer 2"><g class="cls-2"><path class="cls-3" d="M5.45,186.58a7,7,0,0,0,.69-3.05,7.77,7.77,0,0,0-3.49-6.32c.25-.72.47-1.45.67-2.2,1.94-7.59.36-14.63-3.61-18.82-3.22-1.07-6.75-1.18-8.5,2.15-.84,1.57-3.76,1.37-4-.53-.33-2.21-1.24-3.49-3.61-3.21a2.29,2.29,0,0,1-.75,0,6.85,6.85,0,0,1-4.07-.34,2.29,2.29,0,0,1-1.54-2.72,7.55,7.55,0,0,0-.21-4.24c-.68-1.49-1.74-1.13-3.12-.59a2.21,2.21,0,0,1-2.71-1.55c-.3-1.75.2-5.37-1.78-6.08-2.66-1-4.66,2.58-5.66,4.5a2.23,2.23,0,0,1-3.82,0c-1.15-2.21-2.07-3.24-4.3-1.81A34.88,34.88,0,0,0-49,145.8a2.17,2.17,0,0,1-.75.46,3.87,3.87,0,0,1-3.06.24c-1.46-.48-2.11-1.8-2.61-3.14s-.86-2.86-1.29-4.28c-.15-.51-.32-1-.52-1.54a2.08,2.08,0,0,1-1.58-2.07v-.05l-.33-.19c-.36-.14-.07,0-.46-.06A16.12,16.12,0,0,1-62,135l-.57.22a3.34,3.34,0,0,1-1.26.12,3.09,3.09,0,0,1-2.45-1.56c-.65-1-.66-1.34-1.77-1.89a6.23,6.23,0,0,0-2.74-.68A8.08,8.08,0,0,0-76.32,134,2,2,0,0,1-79,134a7.56,7.56,0,0,0-7.11-1.6,5.74,5.74,0,0,0-1.28.55,1,1,0,0,0-.41.46c-.18.4-.45,1.44-.71,2.06-1,2.45-3,3.23-5.23,4.25a3.47,3.47,0,0,0-2.29,2.63,33.82,33.82,0,0,0-.28,4.51,2,2,0,0,1-1.94,1.94H-102a1.77,1.77,0,0,1-1.51-.75l-.09.13A6.19,6.19,0,0,1-105.3,150c-1.33.66-2.5-.72-3.61-1.24-2.3-1.1-6.48-1.72-6.69,1.82a1.26,1.26,0,0,1-1.25,1.25,14.47,14.47,0,0,0-3.72,0c-1.52.32-1.74,1.3-1.59,2.73a1.05,1.05,0,0,1-1.15,1.2,6,6,0,0,1-5.68,3.64c-2.1,0-4.54-.85-6.49.23a2.42,2.42,0,0,0-1.38,2.8,7.15,7.15,0,0,1-.88,4.46,15.64,15.64,0,0,1-2.25,2.56,3.09,3.09,0,0,0-.78,2.82,1.75,1.75,0,0,1-.78,1.53,27.26,27.26,0,0,0,1,4.32,29.34,29.34,0,0,0,4.25,8.48l-62,0a20.72,20.72,0,0,0,10.89-11.58A8.62,8.62,0,0,0-181,178a8.68,8.68,0,0,0,8.65-8.72,8.7,8.7,0,0,0-.79-3.61,2.23,2.23,0,0,1-4-.6c-.36-1.35-1.09-2.14-2.49-1.4a2.24,2.24,0,0,1-3.25-1.32c-.41-1.61-1.7-.82-2.79-.19a2.24,2.24,0,0,1-3.33-1.91c-.09-1,.25-3.93-.43-4.76s-3.4-.31-4.31-.28a2.23,2.23,0,0,1-2.13-2.79c.84-3.21-1.23-4.51-4-2.95a2.23,2.23,0,0,1-3.33-1.9c0-1.95-3.74-1.88-4.11,0-.41,2-3,2-4,.53s-1.9-.7-2.53.6c-.8,1.65-3.74,1.31-4-.53-.23-1.4-.13-3.35-.75-4.66a1.36,1.36,0,0,1-.15-.41s-.06,0-.22,0c-.74-.31-2.06.16-2.81.31a2.24,2.24,0,0,1-2.49-3.24c.77-1.71,1.81-3.46.22-5.08a3.09,3.09,0,0,0-3.85-.66,2.22,2.22,0,0,1-3.24-1.32c-.25-1.4-.25-3.38-1.46-4.32-1.37-1.06-4.26-1-5.08.62a2.22,2.22,0,0,1-3.81,0l-.18-.29c-2-.49-4.9-.6-6.55.63,0,.12,0,.23,0,.35a2.23,2.23,0,0,1-2.8,2.14c-3.22-1.26-8.36-.22-7.25,4.22a2.24,2.24,0,0,1-2.13,2.8c-3,.15-4.53,2.51-4.43,5.34a2,2,0,0,1-1.28,1.93,2.17,2.17,0,0,1-2.73,2c-1-.26-5.28-2.39-6-1.32a2,2,0,0,1-.46.5,2.25,2.25,0,0,1-3.18,1.31,7.84,7.84,0,0,0-5.71-.86c0,.23-.07.45-.1.64a2.22,2.22,0,0,1-2.72,1.54,17.63,17.63,0,0,0-4.19-.8h-.08c-.51.71-1,1.45-1.46,2.24l-.23-.17c.16,2-2.52,2.62-3.77,1.49-3.62-3.29-6.25,2.16-6.2,5.38a2,2,0,0,1-1,1.83,8.56,8.56,0,0,0,5.69,2,9.18,9.18,0,0,0,1.67-.15,40.88,40.88,0,0,0-.71,7.62,36.81,36.81,0,0,0,3.9,16.93h-73.35v11.66H6.58V186.58Z"/><path class="cls-4" d="M-2.95,182.69a4.87,4.87,0,0,0-4.58,5.12,5.46,5.46,0,0,0,1,3.22h-4a1.49,1.49,0,0,0,0-.21c0-1.46-2.45-2.65-5.48-2.65h-.46c.27-.3.53-.63.78-1a2.18,2.18,0,0,1-1.07-3.66c1.9-1.84,4.45-6.23,2.25-8.79-1.46-1.7-4.9-.7-6.7-.26a2.25,2.25,0,0,1-2.8-2.14c-.09-2-1.3-1.66-2.88-2.1A6.35,6.35,0,0,1-30.33,168c-.88-1.12-1.14-2.78-2.11-3.78-1.73-1.77-4.34-.25-5.68,1.19-1,1.11-3.46.7-3.7-1s-.22-3.15-.56-4.66c-.39-1.74-1.19-2.09-3-2.22a2.28,2.28,0,0,1-2.21-2.21c-.44-4.15-6.75-9.7-8.87-3.66A2.25,2.25,0,0,1-59.68,153c-1.34-.69-3.66-2.37-5.3-2s-3,2.75-3.67,4a4.33,4.33,0,0,1-4,2.79c-1.62,0-2.29.24-2.54,2.09a22.07,22.07,0,0,0,0,3.45c0,2.12-2.41,2.65-3.68,1.62a16.09,16.09,0,0,0-4.56,2.67,15,15,0,0,0-4-3.51,11.13,11.13,0,0,0-1.3,0l-.39.13a3.31,3.31,0,0,0-2.11,3.42,1,1,0,0,1-1,1,6.25,6.25,0,0,0-4.44,1.47,8.53,8.53,0,0,0-1.09,1.3l-.12.29a2.41,2.41,0,0,1-.53.72c-.28.46-.54.94-.8,1.42a22.42,22.42,0,0,0,.35,4.08,6.94,6.94,0,0,0-2.1-.33,7.55,7.55,0,0,0-7.27,7.8,8.21,8.21,0,0,0,1,4,8.4,8.4,0,0,0-5.27-1.5,12.18,12.18,0,0,0-2.32.22,4.5,4.5,0,0,0-.16.48c-.47,1.54-2.89.88-2.42-.66.26-.85.71-1.62,1-2.47s.18-.93-.29-1.47a2.92,2.92,0,0,1-.68-3.11c.17-.69.53-1.31,0-1.86-.33-.32-.8-.47-1.12-.83-.93-1-.45-2-.44-3.19,0-.76-.62-1-1.33-1.27a16.67,16.67,0,0,0-5.08.36A1.27,1.27,0,0,1-127,173a10.62,10.62,0,0,0-.4-3.47c-.46-.3-.92-.6-1.37-.91-1.23-.85-2.32-1.44-3.67-.51a1.26,1.26,0,0,1-1.71-.45c-1.53-2.22-4.35,1.07-5.9,2a1.28,1.28,0,0,1-1.81-1.53,1.89,1.89,0,0,1-.88-.77,3.11,3.11,0,0,0-2.75-1.5,2,2,0,0,1-1.93-1.93,10.9,10.9,0,0,0-.34-2.48,1.56,1.56,0,0,0-.59-1c-.06,0-.08-.07-.07-.07h0c-.15-.11-.31-.21-.46-.3-.33-.2-.66-.37-1-.54s-.83-.43-1.25-.6c-.13-.05-.71-.21-.51-.18a4.42,4.42,0,0,1-1.87-.5,6,6,0,0,1-1.91-2.05,7.56,7.56,0,0,1-.45-.9,2.32,2.32,0,0,1-.42-1.19c-.23-.78-.42-1.58-.67-2.35a2.53,2.53,0,0,0-2-.66,3.74,3.74,0,0,1-.49,0,2.15,2.15,0,0,1-2.5-.33c-1.26-1.12-3.17-3.41-5.13-4-.7,0-1.4.05-2.09.12l-.34.19c-1.84,1.25-2.81,3.36-4.82,4.5a23.78,23.78,0,0,1-5.71,1.83c-2.38.64-2,2.44-1.76,4.66a2.21,2.21,0,0,1-1.62,2.13c-2.43.41-6,.81-6.35,3.84-.19,1.65-2.45,3.27-3.78,1.57-1.47-1.88-3.55-1.38-5.53-.57a2.26,2.26,0,0,1-2.5-1c-1.4-2.12-3.25-2-4.78-.12a2.25,2.25,0,0,1-3.13,0c-1-.82-2.15-.56-3.26-.29a2.16,2.16,0,0,1-1.32-.07,1.92,1.92,0,0,1-2.08-.43,1.87,1.87,0,0,1-1.22-1.78,5,5,0,0,0,0-1s-.06-.4,0-.21c-.07-.25,0-.11-.2-.22-.56-.34-1.2-.52-1.76-.87a3.85,3.85,0,0,1-1.85-2.62c-.08-.45,0-1.22-.22-1.62s-1.11-.55-1.62-.52a1.92,1.92,0,0,1-1.86-1.42,5.58,5.58,0,0,0-1.74-3.57c-1-.86-1.94-.6-2.95.15a2,2,0,0,1-2.65-.69c-2.11-4.45-9.15-3-11.43.59a1.83,1.83,0,0,1-1.94.86c-1.81.89-3.93-.12-5.84,1.27-2.58,1.88-1.54,5.53-3.6,7.67-1.06,1.1-2.8,1.11-3.27,2.81-.36,1.28.34,2.72.34,4a5.73,5.73,0,0,1-1.41,3.84c-.88.94-2.94,1.37-3.41,2.55a2.27,2.27,0,0,1-2.72,1.54,10.71,10.71,0,0,0-2-.3c-.13.15-.26.3-.38.46-.21-.18-.43-.35-.65-.52-1.83-.1-3.7-.2-5.08-1.32-.87-.7-1.6-1.56-2.44-2.29a23.17,23.17,0,0,0-3.07-.62,13.42,13.42,0,0,0-1.25,1.58c-.65.87-2,1.56-3,.8-1.84-1.35-5.06-2.6-6.66-.23-1.47,2.18-4.88.42-4.07-1.73a3.88,3.88,0,0,1-2.69-2.36c-.75-1.92,0-3.95-.88-5.86-1-2.26-3-5.24-5.37-6.21-1.09-.45-2-.26-2.87-1.26a2.71,2.71,0,0,1-.62-2c-2.4-1.26-5-2.1-7.35-3.45-1.59-.92-.93-.6-2.56,0a5.73,5.73,0,0,1-3.43,0c-2-.53-3.12-1.33-4.5,1-1.07,1.81-3,3.11-5.06,2-.24-.12-.93-.84-1.28-1.06,0,.1-.51.26-.45.24-1,.35-.93.83-1.23,1.71a4,4,0,0,1-3.39,3,3.28,3.28,0,0,1-3.6-2.34,3.84,3.84,0,0,1-.14-.87,2.57,2.57,0,0,1-.48-.79,4.13,4.13,0,0,0-3.45-2.81,2.29,2.29,0,0,1-2.21-2.21c-.09-1.28.07-2.88-1.08-3.72-1.66-1.21-3.34-.25-4,1.36s-3.12,1.39-3.82,0c-1-2-2.48-4.59-4.82-2.63a2.49,2.49,0,0,1-1.07.55c-.22,1.61-2.45,2.28-3.79,1.18-1.93-1.58-4.06-.19-5,1.78.09-.16-.12.54-.16.62a2.93,2.93,0,0,1-.82,1.23c-1.73,1.44-4.8.63-5.77,2.86a1.73,1.73,0,0,1-2.11,1.09,12.45,12.45,0,0,0-1.59,1.33c-.22.64-.43,1.29-.62,1.95.07,1.29.52,2.94.31,4.06a2.23,2.23,0,0,1-3.25,1.32,33.41,33.41,0,0,1-5.28-4c-.68-.58-1.38-1.12-2.11-1.64-.44-.32-.91-.61-1.35-.92l-.21-.13a5.24,5.24,0,0,1-.61.83,4.14,4.14,0,0,1-1.21.81,3.2,3.2,0,0,1-2.81-.18c-1.31-.73-.87-1.12-2.27-1s-1.55-.05-2,1.57a2.22,2.22,0,0,1-3.24,1.32c-2.1-1.42-4-.94-4.08,1.79a2.25,2.25,0,0,1-2.21,2.21,6.91,6.91,0,0,0-2.94.29,27.45,27.45,0,0,0-4.29,14.93,27.33,27.33,0,0,0,5,15.92h-4.53v17.43H1.78V187.81A5,5,0,0,0-2.95,182.69ZM-106.57,191a1,1,0,0,0,0-.17,1.12,1.12,0,0,0,0-.32,6.4,6.4,0,0,0,.42.49Z"/></g></g><g id="Layer_4" data-name="Layer 4"><g class="cls-5"><circle class="cls-6" cx="146.28" cy="153.27" r="126.49" transform="translate(-65.54 148.33) rotate(-45)"/><g class="cls-7"><rect class="cls-8" x="132.65" y="25.45" width="5.7" height="15.21" rx="2.85" transform="translate(1.89 -6.96) rotate(2.96)"/><path class="cls-9" d="M112.37,119.33a193.17,193.17,0,0,1,5.14-22.65c1.82-6.2,3.78-13,9-17.22.35-.29.11-.6-.2-.74a1.42,1.42,0,0,0-1.31.35c-5.12,4.2-7.22,10.75-9,16.88a189.91,189.91,0,0,0-5.41,23.58c-.14.8,1.74.51,1.85-.2Z"/><rect class="cls-8" x="115.06" y="42.33" width="5.7" height="15.21" rx="2.85" transform="matrix(0.81, 0.58, -0.58, 0.81, 51.43, -59.5)"/><path class="cls-10" d="M97.52,71.83c.73-.1-.16,7.39-3.16,15-4,10.11-9.58,13.87-9.58,13.87l36.47,27.26,18.57-16.17s-8.6-7.2-8.66-9.36S135.88,86,135.88,86"/><path class="cls-11" d="M97.53,73v.11A.2.2,0,0,1,97.53,73Z"/><path class="cls-10" d="M120.85,98.55l10.68,2.4,4.86.55a5.16,5.16,0,0,0,5.16-2.37c2.49-3.79,3.38-5.78,3.7-6.24a67.52,67.52,0,0,0,5.37-9.29c1.27-2.82,2.52-4.43,3.43-7.91.66-2.55.91-4.36.07-8.77a5.91,5.91,0,0,1,.33-3.31c.88-2.35,1.45-5.17,2.56-8.34a6.51,6.51,0,0,0,.48-1.74s2.35-13.5.54-18.67S154.47,24.42,151,23s-15.71.44-15.71.44L119,18.14l-13.18,4.5L99.59,38.18,98.21,55.75,97.53,73"/><path class="cls-12" d="M104.59,31.07c0-7.88,7.34-9.91,10.41-10.88,2.59-.82,9.81-2.16,14.78-.75,2.14.6.52,5.06,1.6,6,.37.13,4.69,1.71,6.41,2.2a18.12,18.12,0,0,0,6.73,1,7.87,7.87,0,0,1,3.79.13c2.22.63,3.9-4.81,7.84,1l.26-.21c-4.87-8.45-12.57-9.31-21.59-11.86-.95-.26-1.94-.5-2.94-.71-14.49-2.93-14-2.76-24.77,5.7-6.25,4.92-10.19,9.89-10.54,13.29l-.09.76c-.38,3.55-5.2,12.69-4.2,14.78.64,1.35,2.46,7.11,4,12l7,1c0-1.33.91-12.65,1-14"/><path class="cls-10" d="M97.81,73.29c-6.36,4.75-6.24-4.75-6.24-4.75C88.31,63.25,89,58.22,89.68,54.8S94.09,52,94.09,52c3.17.81,4.86,1.86,6,13.1"/><path class="cls-12" d="M146.68,25.47c-5.23-.76-18.51-6.13-25.56-7.48-2.92-.56-13.61,5.48-15.09,7-3.4,3.43,2.22,13-4.35,24.48-2.16,3.79-3.6-3.51-6-1.16s-3.37,3.31-3.37,3.31c-.07-11.79-.08-11.37,3.93-22.5s17.09-14.5,23.24-14.69,25.25,4.18,30.17,7.27"/><path class="cls-13" d="M97.24,63.54a27.27,27.27,0,0,0-2-5,8.34,8.34,0,0,0-1.55-2.17,2,2,0,0,0-.85-.57c-.43-.09-.69.25-.91.56A6.65,6.65,0,0,0,91,60.82c0,.09.56,0,.55-.14a7.12,7.12,0,0,1,.5-3.68,3.78,3.78,0,0,1,.74-1.15l-.47.13a2.09,2.09,0,0,1,.83.53,10.07,10.07,0,0,1,2.07,3.25,31.82,31.82,0,0,1,1.44,3.93c0,.1.57,0,.54-.15Z"/><path class="cls-13" d="M96,64c-2.22-.41-1.47,2.72-1.73,3.93a2.59,2.59,0,0,1-.18.4l.2,0s0,0,0,0l-.08-.08a1.17,1.17,0,0,1-.15-.32,7.44,7.44,0,0,1-.34-2.1,9,9,0,0,1,.16-2.89c.25-1,.72-2.56,1.85-2.87.33-.09.26-.35-.07-.26a3.34,3.34,0,0,0-2.06,2.33,6.91,6.91,0,0,0-.47,2.33,15.78,15.78,0,0,0,.19,2.83c.07.37.15,1.09.54,1.3a.7.7,0,0,0,.86-.31,2.36,2.36,0,0,0,.2-1.23c0-.57-.23-2.9.78-2.71.17,0,.64-.23.34-.29Z"/><path class="cls-14" d="M88.7,97.37l.64-1.66c-8.14,3-33.72,13.35-39.6,19.73C40.9,125,68.32,156.35,69,164.78c.34,4.08,2.05,34.38-3,57.59a391.11,391.11,0,0,0-7.1,46.79L84,274c12.26,2.35,24.8,6,37.22,4.83l30.25,4.87c.25-16.19,3.13-40.46,3.94-62.46L158,152.38l-3.72-31s-1.82-5.39-2.47-7L131.1,102.7s4.43,13.79-8.23,14.83c-13.07,1.07-19.24-1-28.55-9.11C94.32,108.42,89.44,101.93,88.7,97.37Z"/><path class="cls-15" d="M131.53,101c-5.6-.64-11-1.39-12.84-2.19-9.15-4.08-14.59-18.87-14.59-18.87a37.08,37.08,0,0,0,5.59,12.66c4.49,6.66,7.41,7.86,13.08,8.63,2.69.37,4.77,1,8.33,1.52Z"/><path class="cls-12" d="M90,53.8S87.77,47.53,89,38s3.58-22.27,15.28-25.86a22.85,22.85,0,0,1,6.43-1s8.25-6.62,28.11,0c13.94,4.63,18.8,11.21,18.65,22.34,0,0-3.21-6.22-4.49-5.84s-2.71,3.11-7.59,2.9-12.44-2-15.34-4.39-8.36-5.25-11.72-5.24c-8.15,0-9.83,6-11,9.43s-4.71,15.71-8.87,16.91a6.34,6.34,0,0,0-4.74,4.6l-.67.16A6.3,6.3,0,0,0,90,53.8Z"/><path class="cls-16" d="M145.72,61.47s2.14-2.19,4.09-2.28c4-.19,4.4.86,5.87,2A9.24,9.24,0,0,0,150.21,60,13.67,13.67,0,0,0,145.72,61.47Z"/><path class="cls-16" d="M127.57,55.52a2.4,2.4,0,0,0-2.31-.13,1.89,1.89,0,0,0-.63.77,1.84,1.84,0,0,0,.24,1.72,1.69,1.69,0,0,0,1.91.56A1.9,1.9,0,0,0,128,56.37c0-.14.14-.39-.39-.75"/><path class="cls-16" d="M153.12,59.94a2.37,2.37,0,0,0-2.31-.12,1.77,1.77,0,0,0-.63.76,1.87,1.87,0,0,0,.24,1.72,1.71,1.71,0,0,0,1.91.57,1.89,1.89,0,0,0,1.18-2.08c0-.14.14-.39-.39-.75"/><path class="cls-16" d="M132.8,59.15s-3.47-4.43-6.8-5c-2.53-.4-7.16.27-8.43.42,0,0,6.23.47,8,.78S132.8,59.15,132.8,59.15Z"/><path class="cls-12" d="M136.34,52.15s-9.16-3.85-13.53-3.63-5.87.85-5.87.85-1-.64-.27-1.17,4.55-2.42,7-2.57,13.25,2.73,13.25,2.73Z"/><path class="cls-12" d="M157.76,54.05a2.67,2.67,0,0,1,.14-.36l-.06.14c.1-.2.18-.42.26-.63-.1-.58,0-1.08-.06-1.66a108.22,108.22,0,0,0-11.23-1.8l-1.28,3.79a42.74,42.74,0,0,1,11.69.78A1.59,1.59,0,0,1,157.76,54.05Z"/><path class="cls-16" d="M143.1,71.24c.11.62.22,1.24.32,1.86.06.42.13.84.18,1.27a3.33,3.33,0,0,1,.05.89c-.16.89-1.46,1.09-2.18,1.13a13.9,13.9,0,0,1-2.81-.13,8.3,8.3,0,0,1-3.41-1c-.15-.11-.49.1-.3.24a8,8,0,0,0,3.08,1,15.69,15.69,0,0,0,3.28.22,3.26,3.26,0,0,0,2.44-.9c.49-.59.28-1.33.18-2-.12-.88-.28-1.76-.43-2.64,0-.2-.43-.1-.4.1Z"/><path class="cls-16" d="M132.48,71.79a2.19,2.19,0,0,0-1.26.37,1.69,1.69,0,0,0-.69,1.1,1.35,1.35,0,0,0,.31,1.28,3,3,0,0,0,1.3.64,6.17,6.17,0,0,0,1.9.29.65.65,0,0,0,.31-.08c.06,0,.08-.1,0-.09A5.74,5.74,0,0,1,132.5,75a2.41,2.41,0,0,1-1.37-.76,1.56,1.56,0,0,1,0-1.5A1.22,1.22,0,0,1,132.2,72a.55.55,0,0,0,.3-.09c.07,0,.07-.08,0-.08Z"/><path class="cls-17" d="M116.52,52.78l.43,2.65a35,35,0,0,0,2,7.35c.71,1.64,11.17,4,13.44,3.22s4.44-6.53,5.22-7.81l4.19,1c.07,1.84.44,7.69,1.11,8.59s5.54,1.6,6.09,1.68,1.09.15,1.79.22c1.85.19,4.13.27,4.92-.27,1.18-.81,2.93-4.37,4.49-7.77l.25-.53c.06-.12.12-.21.13-.25h0l.28-.61c-5.6-3.91-13.66-4.83-19.09-2.19l0,.07-4.07-1c-4.14-3.85-11.9-6.9-18-5.72h0l-16.84,1.65-.32,1.54Zm26.94,14.48c-.42-.56-.79-4.68-1-7.87,4.71-2.21,12-1.36,17,1.82v.08c-.84,1.82-3.07,6.66-4.23,7.45-1.37.93-11-.58-11.8-1.47Zm-23.22-4.69a30.83,30.83,0,0,1-2.45-9.63c5.51-1.39,14.67,1.56,18.73,5.23-1.15,2.35-2.8,6.51-4.43,7.09-2.35.85-11.41-1.65-11.85-2.69Z"/><path class="cls-18" d="M135.61,81.41c-3.85-.7-10-2.3-10-2.3s-1,9.68,7.91,11.31,11-7.86,11-7.86S139.45,82.11,135.61,81.41Z"/><path class="cls-19" d="M135.65,81.41c-1.83-.33-9.14-2-9.14-2s1.54,6.46,8.15,7.67c7.17,1.31,8.9-4.49,8.9-4.49Z"/><path class="cls-20" d="M135.67,81.71c-1.82-.34-7.33-1.67-7.33-1.67s1.63,2.41,7.11,3.42,7.59-.67,7.59-.67Z"/><path class="cls-18" d="M144.41,82.39a4.89,4.89,0,0,0-1.37-.6c-1.49-.41-1.33-.66-2.41-.94-1.85-.49-3.17.05-4-.1s-1.86-1.12-3.76-1.32c-1.11-.11-3.9-.2-5.44-.34a14.06,14.06,0,0,1-2.12-.63c-.29,0-.13,2.14,10.1,4S144.67,82.51,144.41,82.39Z"/><path class="cls-10" d="M250.89,200.55c-10.6,2.72-61.77-1.15-61.77-1.15s-18.31-46.69-30.73-67.73c-8.33,11.29-16.69,22.66-21.79,35.4,9.28,19,23.43,46.13,33.09,56.55,8.06,8.7,19.87,6.2,19.87,6.2,14.37-1.57,41.89,2,61.95-12.76Z"/><path class="cls-10" d="M209.69,188c-2.1-3.26-4.4-6.79-7.54-9.18a26.17,26.17,0,0,0-3.83,5.34C195.62,188.5,172,210.6,172,210.6l-42.18.82-4.64,8.7s37.44,11.17,51.65,9.33c6-.77,24.71-17.37,32.42-27l2.6-11.05C211.15,190.29,210.43,189.14,209.69,188Z"/><path class="cls-15" d="M198,184.27a30.51,30.51,0,0,1-3.66,4.29c-2.1,2.24-4.27,4.42-6.45,6.59-4.34,4.3-8.75,8.53-13.18,12.73l-3,2.83.51-.2-11.7.18c-.25,0-.83.38-.32.37l9.83-.15c.71,0,1.77.18,2.39-.24a12,12,0,0,0,1.38-1.29c6-5.68,12-11.39,17.8-17.28,2.41-2.45,5.24-4.93,7.1-7.85.16-.26-.59-.16-.71,0Z"/><path class="cls-15" d="M213.23,178.44c.16,0,.87-.32.49-.32-.17,0-.87.32-.49.32Z"/><path class="cls-15" d="M208.91,202.66a126.71,126.71,0,0,1-15.8,16,84.9,84.9,0,0,1-14.76,10.51c-.33.18.44.1.58,0a84.89,84.89,0,0,0,14.87-10.59,126.57,126.57,0,0,0,15.87-16,1,1,0,0,0-.76.14Z"/><path class="cls-15" d="M172.07,210.77a7.09,7.09,0,0,1,3.43,5.09c.05.32.82.13.77-.21a7.45,7.45,0,0,0-3.6-5.3.55.55,0,0,0-.55.06c-.12.08-.22.26-.05.36Z"/><path class="cls-14" d="M163.81,141.37l-4-17.43s-6.91-8-14.2-10.87c-4.34-1.71-9.12-6.16-11.7-7.16.46,3.54-.62,6.65-3.15,8.4a19.93,19.93,0,0,1-12.13,3.51,34.49,34.49,0,0,1-12-3c-7.07-3-15.77-12.09-17-20.08l-7.85,4.1S60.9,112.62,57.28,113.82s-7.93,86.31-7.93,86.31l-9.3,36.49C39,240.31,26.35,264,37,294.26c0,0,72.4-17.84,80.61-17.44,9.53.48,30-7.78,32.65-12.17S163.81,141.37,163.81,141.37Z"/><path class="cls-21" d="M188,264.19V264"/><path class="cls-21" d="M109.54,167.16h.08c0,.11,0,.23,0,.32Z"/><path class="cls-21" d="M106,197.67l-.07,0,0-.21Z"/><path class="cls-22" d="M135,164.38l-.12,0,.12-.05A.09.09,0,0,1,135,164.38Z"/><path class="cls-22" d="M118.66,166.16l.11-.07,0,.06Z"/><path class="cls-22" d="M134.67,164.39l-.15,0A.1.1,0,0,1,134.67,164.39Z"/><path class="cls-22" d="M109.9,167.13s.08,0,.13,0Z"/><path class="cls-10" d="M135,253.66s11.43,4.21,15,4.41,11.73,1.68,11.73,1.68a4.68,4.68,0,0,0-.71,3.1,4.61,4.61,0,0,0,2,3l4.5-4.83c.58,2.68,3.15,1.17,3.15,1.17l3.41-4.35c.56,3.36,4,1.47,4,1.47l2.62-6.44a10.58,10.58,0,0,0,2.62,3.22c1.43,1,2.38-1.58,2.38-1.58l-4.1-11.42-14.95-7.34-26.3,1.87-9.58.42"/><path class="cls-15" d="M180.78,247.2a17.9,17.9,0,0,0-2.87-2.7,38.42,38.42,0,0,0-3.22-2.22,24.83,24.83,0,0,0-2.8-1.58l-.13-.06-.07.1-.28.35.26.12c.77.41,1.64,1,2.64,1.69s2.07,1.38,3.14,2.21a20.62,20.62,0,0,1,2.81,2.56,1.87,1.87,0,0,1,.56,1.32c0,.48,0,1-.09,1.44-.15,1.79-.36,2.82-.27,2.85a6.67,6.67,0,0,0,.79-2.82,9.58,9.58,0,0,0,.18-1.51A2.42,2.42,0,0,0,180.78,247.2Z"/><path class="cls-15" d="M176.77,251.19a5.81,5.81,0,0,0-.36-1.74,4.45,4.45,0,0,0-1.44-1.29c-2.07-1.37-4.1-2.27-5.48-3.06-.26-.18-.53-.35-.8-.51l-.27.32a6.46,6.46,0,0,0,.84.56c1.33.92,3.35,1.91,5.36,3.23a4.16,4.16,0,0,1,1.22,1,6.33,6.33,0,0,1,.33,1.48,5.81,5.81,0,0,1-.11,2.72,12,12,0,0,1-.79,1.69,2.18,2.18,0,0,0-.21.68,4.77,4.77,0,0,0,.43-.56,11.46,11.46,0,0,0,1-1.64A5.76,5.76,0,0,0,176.77,251.19Z"/><path class="cls-15" d="M191.36,188.31a10.32,10.32,0,0,0-4.31,11.44c0,.16.86,0,.83-.22a10.15,10.15,0,0,1,4.22-11.29c.15-.12-.14-.12-.19-.12a1,1,0,0,0-.55.19Z"/><path class="cls-21" d="M209.46,146.05h.07v-.17Z"/><path class="cls-21" d="M206.78,130.15s0,0,0,.06l-.13-.14Z"/><path class="cls-14" d="M138.82,107.27s16.33,7.68,23.36,13.82c9,7.86,19,46.66,21.19,52.94s-26.07,21.33-26.07,21.33l-2-.3-16.79-12.48,3.38-61.69Z"/><path class="cls-23" d="M158.93,195.58c1.76-11.16,2.91-22.42,4.38-33.63.37-2.82.75-5.65,1.2-8.47,0-.19-.76,0-.79.14-1.76,11.16-2.91,22.42-4.38,33.63-.37,2.82-.75,5.65-1.2,8.47,0,.19.76.06.79-.14Z"/><path class="cls-10" d="M257.7,255.05s5.2,9.32,8.2,14.68-1.68-2.18,1,2.9c3.61,6.79-62.82,22.15-63.48,23.19,4.49,7,4.41,54.25,4.41,54.25l-17.09,6.11s-16.71-62.06-12.6-68.77c4.43-7.23,29.23-24.17,50.29-29.88a12.34,12.34,0,0,0,3.93-2.63c10.33.26,22.3,0,25.31.15Z"/><path class="cls-24" d="M253.81,163c-2.27,2.81-4.92,5.57-8.26,7.1s-7.25,1.14-10.86.6a37.31,37.31,0,0,1-19.23-8.59,29.55,29.55,0,0,1-9.72-19,40.84,40.84,0,0,1,1.39-15.7c.18-.31.35-.63.54-.92,5.46-8.64,9.32-12.47,19-12.34,6,0,11.2-.63,19.54,4.46,1.79,1.1,3.47,3.65,5.72,5.32,3.39,2.52,6.87,6.41,7.86,9.82,1.87,6.5-.51,15-1.39,22.2A37.35,37.35,0,0,1,253.81,163Z"/><path class="cls-10" d="M201.62,155.11c.32-2.88,1.38-8.23,2.14-9.84.25-1.31.56-2.82.94-4.65.11-.53.23-1,.35-1.54a4.83,4.83,0,0,0,.2-.77c2.32-8.79,6.3-12.76,6.3-12.76a20,20,0,0,1,19.32-5.07c8.14,2,14.38,8.7,17.08,14.58a13.07,13.07,0,0,1,.62,9.29,53.6,53.6,0,0,1-3.48,8.21c2.88.52,5.45,2.19,3.2,7.21-3.09,6.94-8,8.18-10.06,5.5-1.42.46-2.15,2.33-2.62,3.82-.89,2.85-1.2,7.79-.35,10.65l-.27.81c-8.44,8.53-13.39,13.44-33.12,2.74l8.61-7.17,1.14-4.19a19.47,19.47,0,0,1-3.45-1.32C202,167.4,201.23,158.5,201.62,155.11Z"/><path class="cls-25" d="M211.66,172a24.43,24.43,0,0,0,15.08-.63s-.76,2.18-6.15,2.8a20.67,20.67,0,0,1-9.22-.91Z"/><path class="cls-12" d="M241.71,156.66l0-.12a6.61,6.61,0,0,1,2.31-2.3,5.5,5.5,0,0,1,1.53-.61,5.56,5.56,0,0,1,1.67-.18,4.26,4.26,0,0,1,2.21.57l.34.25c3.39-5.74,5.82-12.16,3.1-20.83-.79-2.5-3.65-5.74-4.52-6.77-5.27-6.16-10.89-7.85-18.07-8.84-8.33-1.13-17.17,2.28-21,10-.93,1.87-.64.2-.93,2.27a13.35,13.35,0,0,1,6.85-5.6c4.48-1.41,4.36,2.21,9.89,3.65,6.4,1.65,9.34-1.33,13.86,2.58,4.12,3.59,3.26,5.35,3.26,5.35a23.09,23.09,0,0,0,.71,3.67,10.37,10.37,0,0,1-.08,3.6,53.79,53.79,0,0,1-1.49,7.33c-.47,1.47-1.25,3.4,0,4.75C241.89,156.08,241,156.74,241.71,156.66Z"/><path class="cls-26" d="M242.15,156.72c1.16-2.55,5-3.91,7.31-2.18a.6.6,0,0,0,.8-.21c2.88-4.9,4.76-10.19,4.18-15.94a17.43,17.43,0,0,0-2.9-8.5,36.47,36.47,0,0,0-4.74-5.56c-3.94-3.73-8.82-5.59-14.1-6.49s-10.42-.7-15.23,1.62a18.88,18.88,0,0,0-6.63,5.26c-.91,1.16-1.45,2.52-2.28,3.71a3.22,3.22,0,0,0-.63,1.75c-.07.5.77.28.91,0a12.59,12.59,0,0,1,2.19-2.69c1.59-1.52,4.17-3.31,6.5-2.89,1.62.29,2.88,1.82,4.26,2.63a14.55,14.55,0,0,0,6.58,1.81c1.91.1,3.82-.21,5.72-.05a9.37,9.37,0,0,1,6,3.48,5.28,5.28,0,0,1,1.71,3.5c-.05,2,.9,4,.75,6.1a45.65,45.65,0,0,1-2,9.67,4.61,4.61,0,0,0-.07,3.31,2.84,2.84,0,0,1,.45,1.29c0,.1-.1.23,0,.33a.62.62,0,0,0,.61.31c.45,0,.94-.64.32-.67.21,0,.1-.68.08-.76s-.28-.39-.4-.59a2.67,2.67,0,0,1-.36-1.51,20.06,20.06,0,0,1,1.06-4.13c.38-1.51.63-3.05.88-4.59a16.32,16.32,0,0,0,.37-4.62c-.16-1.32-.82-2.64-.79-4a5.94,5.94,0,0,0,.08-.75c-.11-1.67-1.57-3.17-2.7-4.24a9.36,9.36,0,0,0-5.55-2.83c-2.06-.2-4.13.17-6.19,0A13.53,13.53,0,0,1,221,125.7c-1.23-.93-2.37-1.85-4-1.81-3.66.09-7.32,3.14-9.07,6.21h.91c.11-.79.07-.86.46-1.39.78-1.08,1.26-2.37,2.07-3.45a17.54,17.54,0,0,1,5.56-4.79c4.61-2.53,9.77-2.88,14.88-2.06s9.69,2.41,13.54,5.8a35,35,0,0,1,4.67,5.2,16.73,16.73,0,0,1,3.23,7.51c1.08,6.21-.78,12-3.9,17.29l.8-.21c-2.77-2.09-7.53-.46-8.92,2.6C241.05,157.09,242,157.09,242.15,156.72Z"/><ellipse class="cls-26" cx="207.67" cy="143.78" rx="1.78" ry="1.79" transform="translate(-1.99 2.92) rotate(-0.8)"/><path class="cls-12" d="M205.53,141.86a4.83,4.83,0,0,1,3.55-.07c2.64.85,3.47,4.31,3.47,4.31a7.42,7.42,0,0,0-3.81-3.61,9.29,9.29,0,0,0-4.46.16C204.37,142.4,205,142.09,205.53,141.86Z"/><path class="cls-26" d="M246.9,159.84a4.17,4.17,0,0,0,.71-2.56c0-.21,0-.5-.27-.53a3.21,3.21,0,0,0-2,.78,15.76,15.76,0,0,0-2.55,2.28c-.16.18.16.21.27.16a1.1,1.1,0,0,1,.65-.09c.32.11.29.58.23.85-.2.93-1.09,1.18-1.94,1.07-.19,0-.45.25-.16.28a2.11,2.11,0,0,0,2.54-1.44c.08-.39,0-.88-.42-1a1.62,1.62,0,0,0-1.08.13l.27.16a11.26,11.26,0,0,1,3.24-2.67A2.14,2.14,0,0,1,247,157c.07,0,.05,0,.13,0s0,0,0,0l-.08-.07a3.48,3.48,0,0,1-.6,2.85c-.11.19.32.18.41,0Z"/><ellipse class="cls-27" cx="225.72" cy="148.08" rx="1.78" ry="1.79" transform="translate(-2.05 3.18) rotate(-0.8)"/><path class="cls-12" d="M220.58,148.12s3.42-2.94,6.33-2c4.1,1.29,4.07,2.16,5.38,3.78a16.17,16.17,0,0,0-5.63-3.09C223.77,146,220.58,148.12,220.58,148.12Z"/><path class="cls-18" d="M213.08,159.49c2.51.57,6.64,1.2,6.64,1.2s-1.14,6.87-8.08,5.19c-5.8-1.41-4.51-7.9-4.51-7.9S210.57,158.93,213.08,159.49Z"/><path class="cls-28" d="M213.05,159.49c1.2.27,5.65,1.22,5.65,1.22a6.1,6.1,0,0,1-6.47,2.62c-4.68-1.06-4.34-4.74-4.34-4.74Z"/><path class="cls-20" d="M212.9,159.92c1.2.27,4.87.89,4.87.89s-1.59,1-5.17.16-4.44-2.29-4.44-2.29Z"/><path class="cls-18" d="M207.16,158c0-.13.3-.12.91,0,1,.14,1.4-.14,2.13,0a11.72,11.72,0,0,1,2.45.94,11.71,11.71,0,0,1,2.61.2c.71.22,2.42.87,3.39,1.17a10.75,10.75,0,0,0,1.45.18c.16.08-.61,1.61-7.29.1S207.12,158.13,207.16,158Z"/><path class="cls-16" d="M222.48,141.22c0-.07.21,0,.22-.1a19.58,19.58,0,0,1,6.86.49,6.29,6.29,0,0,1,1.88,1.17,9.73,9.73,0,0,1,1.74,1.8c.15.45-1-.4-1-.4a4.82,4.82,0,0,0-.71-.37,15.88,15.88,0,0,0-4.55-1.36,22.24,22.24,0,0,0-4.72.73C222.24,142.5,222.45,141.9,222.48,141.22Z"/><path class="cls-16" d="M214.79,140c0-.06-.16-.11-.14-.17a15.17,15.17,0,0,0-5.6-2.19,5.38,5.38,0,0,0-2,.34,8.81,8.81,0,0,0-2.09,1c-.29.36,1,0,1,0a3.39,3.39,0,0,1,.7-.07,12,12,0,0,1,4.12.51,17.15,17.15,0,0,1,3.43,2.48C214.46,141.26,214.53,140.62,214.79,140Z"/><path class="cls-24" d="M245.76,138.75s-13.6.28-23.44-4.58l-.52-6.32s-1.49,5.27-1.38,6.31l-2.25-.5a33.56,33.56,0,0,1,1.38-6.31s-3.16,4.67-3.29,5.9c0,0-8-1.49-8.68-2.31s8.58-10,13.33-9.81S245,124,245.76,138.75Z"/><path class="cls-26" d="M259.53,135c.3-3.19,2.79-6.67,6-6.14a7.61,7.61,0,0,1,2.18.83l3.1,1.55a10,10,0,0,1,2.64,1.69,6.91,6.91,0,0,1,1.82,5.26,20.59,20.59,0,0,1-1.27,5.56c-.55,1.67-1.35,3.58-3.06,4a13.87,13.87,0,0,1-3.08-.1,18.4,18.4,0,0,0-2.73.49,7.6,7.6,0,0,1-7.85-4"/><path class="cls-16" d="M214.47,155.86a5.29,5.29,0,0,1-2.4-.19,3.43,3.43,0,0,1-1.7-.9,1.4,1.4,0,0,1-.22-1.63,8.06,8.06,0,0,1,.52-.64,6.75,6.75,0,0,0,.69-1c.07-.12-.26-.08-.31,0A11.61,11.61,0,0,1,210,153a1.31,1.31,0,0,0-.29,1.17c.27,1.14,1.53,1.55,2.54,1.78a5.45,5.45,0,0,0,2.2.11c.15,0,.28-.21.05-.17Z"/><path class="cls-16" d="M217.86,154.66c.52.1.39.92.29,1.28a1,1,0,0,1-.41.61,1.64,1.64,0,0,1-1.07.06,5.93,5.93,0,0,1-1.19-.64.31.31,0,0,0-.21,0s-.15.07-.1.09a7,7,0,0,0,1.2.65,2.53,2.53,0,0,0,1.31,0,1.13,1.13,0,0,0,.72-.61,2.17,2.17,0,0,0,.16-.87c0-.3-.1-.61-.43-.67a.38.38,0,0,0-.23,0s-.11.07,0,.08Z"/><line class="cls-29" x1="211.33" y1="182.14" x2="207.87" y2="181.61"/><path class="cls-30" d="M195.78,250.26c3.48-9.33.84-13.34.18-20.46,2.87.39,12.6-.5,15.47-.2,4.25.44,8.5.77,12.76.94a95.52,95.52,0,0,0,11.6-.13c3.77-.3,7.53-.75,11.31-.95a19.11,19.11,0,0,1,6.43.46c-.83,5.86.16,5,.7,8L255.9,244a54.06,54.06,0,0,0,4.76,15.51h0a44.46,44.46,0,0,1,2,12.58c.57,43.45-35.23,35.57-35.23,35.57s-5.07-12.94-6.44-15.46l-3-4.83c-1.13.1-4.87-7.44-8.17-10.68-7.07-6.93-16.38,2.56-16.38,2.56l-.24-9.6Z"/><path class="cls-31" d="M254,231.67c-1.84-1.58-1.23-4.75-1.12-10.06,0-1.83,2.67-12.06,2.6-16.26a39.42,39.42,0,0,0-2-12.8c-1.71-4.48-7-10.08-11.15-12.36-.34-.18-4.58-2.46-6.55-3.37-10.14,11.18-18.36,9-21.23,8.38,0,0-7.41-3.15-4.24-10.07,0,0-13.78,2.33-17.44,6.07s-13.79,16.55-13.79,16.55,5.29,11.73,15.27,13.56l.66,12.11c.6,5.8,1,8.81,1.35,12.07,2.3.52,7.3-.72,9.63-.45,4.42.53,8.88.75,13.33,1a50.31,50.31,0,0,0,6.14,0c2-.15,4-.42,6.05-.74,4.18-.64,8.33-1.48,12.53-2a44.14,44.14,0,0,1,9.95-.33c0-.28.07-.56.11-.84C254.05,232,254.15,231.77,254,231.67Z"/><path class="cls-32" d="M194.72,211.21a7.07,7.07,0,0,1-.09-1.72c0-.9,0-1.81,0-2.71a37.24,37.24,0,0,0-1.11-8.54c-.07-.28-.84-.08-.77.2a36.65,36.65,0,0,1,1.11,8.59c0,.91,0,1.81,0,2.71a7.18,7.18,0,0,0,.09,1.67c.07.27.84.08.77-.2Z"/><path class="cls-31" d="M253.58,228.51s-.31,6.38.2,8.13c0,0-15.73,4.5-27.5,4.23s-29.17-3.41-29.17-3.41L196,229.8s16.69,3.21,31.86,2.88A88.16,88.16,0,0,0,253.58,228.51Z"/><path class="cls-32" d="M253,228.67c-.12,2.59-.47,5.59.2,8.13l.55-.33c-3.08.88-6.21,1.59-9.34,2.22a81.94,81.94,0,0,1-18.06,1.94A161.17,161.17,0,0,1,208.93,239c-3.63-.49-7.41-.85-11-1.7-.43-.1-.25.09-.3-.34-.1-.8-.24-1.6-.36-2.4l-.74-4.92-1.07.38c17.05,3.27,35.07,4.36,52.07.36a53.3,53.3,0,0,0,6.23-1.76c.8-.28.05-.39-.39-.23A74.38,74.38,0,0,1,235.61,232c-10.63,1.06-21.39.22-31.94-1.26-2.41-.34-4.83-.7-7.22-1.16-.18,0-1.12.09-1.08.38l1.15,7.66a.1.1,0,0,0,.1.06c6.72,1.21,13.5,2.16,20.3,2.82a84.12,84.12,0,0,0,14.28.44,106.92,106.92,0,0,0,14.57-2.18c2.7-.58,5.4-1.2,8.06-2,.09,0,.59-.15.54-.32-.67-2.53-.32-5.54-.19-8.13C254.18,228.21,253,228.34,253,228.67Z"/><path class="cls-33" d="M180.64,278.17A16.82,16.82,0,0,0,175.21,289a42.68,42.68,0,0,0,.74,10.21c1,6.06,3,12,4.89,17.86,3.19,10.07,6.64,20.05,10.08,30,.58,1.68,1.16,3.36,1.7,5,.26.8,1,2.38.88,3.12a6.32,6.32,0,0,1-.75,1.27l-1.15,1.92-1.6,2.71c-.23.39.64.36.82.07l3.22-5.44c.44-.74.34-1,.08-1.83-.36-1.25-.77-2.49-1.18-3.72-2.19-6.56-4.61-13-6.78-19.61-3.13-9.46-6.45-19-8.72-28.69a55.64,55.64,0,0,1-1.39-10.12,18.23,18.23,0,0,1,.75-6.65,17.25,17.25,0,0,1,4.55-6.81c.38-.37-.47-.45-.71-.21Z"/><path class="cls-10" d="M199.45,249.16a14.32,14.32,0,0,0-.84-1.42c-2.16.58-4.47,1.11-7,1.59v-.06l-2.61.24s-7.08-3.1-8.47-3.66-8.38-1.38-8.38-1.38-4.21-2.29-4.62-2.08A1.68,1.68,0,0,0,167,245a26.46,26.46,0,0,0,3.52,4.15l-11.66,6.37a3.11,3.11,0,0,0-1.53,1.92c-.13.57-.08,1,.6,1.07,1.52-.2,3-.47,4.55-.78h0s.44,2.43,2.29,2.73a7.69,7.69,0,0,1,2,.45,7,7,0,0,0,1.9,2.55c1,.52,9.06.56,9.06.56s4.78-.92,6.9-2.13a14.58,14.58,0,0,1,4.54-1.91c3,.15,11.53-1.95,15.66-1.93,0-1.37-2.68.07-2.64-.06.32-1.1-1.52.39-1.39-.76a15.78,15.78,0,0,0-.13-4.23A13.21,13.21,0,0,0,199.45,249.16Z"/><path class="cls-15" d="M186.73,248.09c-1.82-.65-3.64-1.3-5.45-2a26,26,0,0,0-5.6-1.2c-1-.14-2-.27-3-.39a1.8,1.8,0,0,1-1.07-.37c-.89-.47-1.79-.93-2.7-1.34a2.72,2.72,0,0,0-1.72-.41,1.87,1.87,0,0,0-1.3,2,6.45,6.45,0,0,0,1.5,2.37,28.09,28.09,0,0,0,2.44,2.68l.14-.23-9.14,5a16.55,16.55,0,0,0-3.24,1.87c-.56.51-1.7,2.21-.59,2.7a3.47,3.47,0,0,0,1.69-.11c1.15-.18,2.28-.39,3.41-.62l0-.34h0c-.08,0-.41.12-.37.26a3.9,3.9,0,0,0,2.06,2.43,6.83,6.83,0,0,0,3.19.6l-.34-.07c-.05,2.41,2.21,3.38,4.33,3.19.25,0,.89-.42.35-.38-2,.18-3.9-.87-3.86-3,0-.11-.29-.07-.34-.07a6.8,6.8,0,0,1-3.14-.86,3.82,3.82,0,0,1-1.42-2l-.37.27h0c.35-.08.52-.44,0-.34-.9.19-1.81.36-2.72.51s-2.33.6-2.09-.68a3.11,3.11,0,0,1,1.69-2c1.25-.71,2.52-1.38,3.78-2.06l7.56-4.13c.06,0,.23-.14.14-.23a26.93,26.93,0,0,1-2.44-2.68c-.6-.76-1.73-1.88-1.43-3,.07-.25.73-.9.37-.82.16,0,.5.16.64.21.51.2,1,.45,1.5.69a19.54,19.54,0,0,0,2.27,1.18,10.34,10.34,0,0,0,1.75.22,32.81,32.81,0,0,1,6.77,1.22c2,.72,4,1.47,6,2.19.2.07.94-.25.66-.35Z"/><path class="cls-15" d="M172.51,248.09a15.7,15.7,0,0,1,3.55-1.11,14.77,14.77,0,0,1-3.41,1.56,26,26,0,0,1-3.46,1.33A11,11,0,0,1,172.51,248.09Z"/><path class="cls-15" d="M167.52,256.34c-1.41.52-2.7,1-3.65,1.25a4.32,4.32,0,0,1-1.57.32,6.94,6.94,0,0,1,1.49-.63c.92-.36,2.19-.87,3.61-1.39a18.66,18.66,0,0,1,5.24-1.45C172.65,254.56,170.34,255.27,167.52,256.34Z"/><path class="cls-15" d="M171,260.16a10.86,10.86,0,0,1-4.19.72c0-.1,1.88-.43,4.11-1.13s4-1.54,4-1.41A11.91,11.91,0,0,1,171,260.16Z"/></g></g><path class="cls-10" d="M252.85,201.23c-3.78,11.71-16.25,47.14-21.57,50-12.62,6.78-45.94,9.61-45.94,9.61l.84-10.3L219,237.05S231,197.92,232,192.9c0,0,3.58-8.84,15.14-3.39"/><path class="cls-31" d="M250.78,221.88c-9.24,1.66-18.32-3-26.57-7.43a6.27,6.27,0,0,1-2-1.46c-1.37-1.72-.61-4.24.21-6.28,2.07-5.15,4.17-10.35,7.33-14.92s7.51-8.51,12.82-10.14a3.19,3.19,0,0,1,1.43-.2,3.13,3.13,0,0,1,1.39.71c4.31,3.36,7.93,8.52,8.93,13.88,1.54,8.17.09,17.28-2.51,25.17"/><path class="cls-32" d="M225.32,214.75a3.76,3.76,0,0,1-2.84-2.68c-.33-1.62.44-3.7.89-5.23.94-3.25,2.18-6.34,3.42-9.47,2.31-5.83,5.85-13.55,13.16-13.63.48,0,.61-.64.06-.63-6.58.08-10.09,5.82-12.75,11-1,2-1.76,4.31-2.6,6.43a49.9,49.9,0,0,0-2.85,9.32,4.46,4.46,0,0,0,.2,3.22c.66,1,1.73,2.21,3,2.27.41,0,.82-.59.27-.62Z"/><path class="cls-15" d="M219,237.08a7.17,7.17,0,0,1,5,3.52c.12.22.85,0,.76-.2a7.44,7.44,0,0,0-5.28-3.68.75.75,0,0,0-.54.15c-.12.09-.1.18.06.21Z"/><path class="cls-32" d="M245.89,222.45c.78-.13,1.57-.14,2.35-.24a2.58,2.58,0,0,0,1.1-.26,2.32,2.32,0,0,0,.64-1c.18-.43.32-.9.54-1.32s-.63-.32-.77-.05c-.36.7-.53,1.48-.95,2.15,0-.05-.07,0,0,0l.06,0s0,0,0,0,0,0,0,0l-.09,0c-.07,0,.07,0,0,0l-.11,0-.31.05-1.33.14c-.34,0-.69,0-1,.1-.16,0-.43.1-.46.29s.23.23.36.21Z"/><path class="cls-10" d="M60.9,125.62s1.9-11.39,6.67,10.42c4.84,22.16-7.38,82.27-7.38,82.27s78.13,23.32,88.77,24.38L140,255c-33.65,2-69,.88-82.75-2.49,0,0-22.39-4.28-26.91-14.88C21.64,217.23,34.13,153,34.13,153"/><path class="cls-15" d="M60.13,218.08a10,10,0,0,0-4.21,2,7.2,7.2,0,0,0-1.81,3.3c-.29,1-.52,2-.77,2.94-.09.34.72.24.8-.08a16.6,16.6,0,0,1,1.76-5.19c1-1.46,2.74-2,4.35-2.5.49-.13.36-.61-.12-.47Z"/><path class="cls-14" d="M56.32,190.48C60,191,71,191.54,74.78,191.81l-2.85-24.6s10.35-28.15,4.87-42.32-10.87-17.18-10.87-17.18-26.69,1.94-32.86,26.89c-1.7,6.9-6.15,34.81-8.09,46.94C34.8,184.48,46.14,189,56.32,190.48Z"/><path class="cls-23" d="M65,118.51c2.55.53,4.36,2.64,5.7,4.74a28.77,28.77,0,0,1,3.2,7.16,41.2,41.2,0,0,1,1.36,12A196.28,196.28,0,0,1,72,176.23c-.52,3-1.1,6-1.76,8.91q-.43,2-.93,3.93c-.06.26-.15.52-.2.78-.08.43.26.18-.2.35a6,6,0,0,1-3.19.24c-.34-.06-1.12.47-.56.57a7.85,7.85,0,0,0,4-.29c.92-.29.89-.84,1.12-1.75.65-2.57,1.22-5.16,1.74-7.76,1.21-6.1,2.16-12.25,2.89-18.43a182.33,182.33,0,0,0,1.35-18.39c.07-4.35.08-8.93-1-13.17a30.25,30.25,0,0,0-3.33-8c-1.43-2.36-3.43-4.73-6.26-5.32-.35-.07-1.13.45-.57.57Z"/></g></svg>