<?xml version="1.0" encoding="UTF-8"?>
<svg id="Layer_3" data-name="Layer 3" xmlns="http://www.w3.org/2000/svg" xmlns:xlink="http://www.w3.org/1999/xlink" viewBox="0 0 292.89 301.99">
  <defs>
    <style>
      .cls-1, .cls-2 {
        fill: none;
      }

      .cls-3 {
        fill: #070707;
      }

      .cls-4 {
        fill: #d68881;
      }

      .cls-2 {
        stroke: #4f2f26;
        stroke-miterlimit: 10;
        stroke-width: .68px;
      }

      .cls-5 {
        fill: #4c1816;
      }

      .cls-6 {
        fill: #825739;
      }

      .cls-7 {
        fill: #010101;
      }

      .cls-8 {
        fill: #ddad6f;
      }

      .cls-9 {
        fill: url(#linear-gradient-2);
      }

      .cls-10 {
        fill: #755346;
      }

      .cls-11 {
        fill: #638e9f;
      }

      .cls-12 {
        fill: #231f20;
      }

      .cls-13 {
        fill: #1e1811;
      }

      .cls-14 {
        fill: #27153c;
      }

      .cls-15 {
        fill: url(#linear-gradient);
      }

      .cls-16 {
        fill: #884e3f;
      }

      .cls-17 {
        fill: #f1eef7;
      }

      .cls-18 {
        fill: #171413;
      }

      .cls-19 {
        fill: #060606;
      }

      .cls-20 {
        fill: #486d34;
      }

      .cls-21 {
        clip-path: url(#clippath-1);
      }

      .cls-22 {
        fill: #fff;
      }

      .cls-23 {
        fill: #4c3059;
      }

      .cls-24 {
        fill: #dbb28f;
      }

      .cls-25 {
        fill: #4f2f26;
      }

      .cls-26 {
        fill: #14162a;
      }

      .cls-27 {
        fill: #311811;
      }

      .cls-28 {
        fill: #523936;
      }

      .cls-29 {
        fill: #ab3928;
      }

      .cls-30 {
        fill: #161412;
      }

      .cls-31 {
        fill: #94674b;
      }

      .cls-32 {
        clip-path: url(#clippath);
      }
    </style>
    <clipPath id="clippath">
      <path class="cls-1" d="M289.06,146.35c0-5.96-3.37-11.12-8.3-13.72-4.79-26.7-17.5-52.26-38.13-72.89-18.28-18.28-40.43-32.34-63.81-38.19-7.13-20.4-26.53-33.04-49.36-33.04-27.72,0-50.38,18.57-52.15,45.84-10.5,5.97-20.39,16.43-29.35,25.39-53.76,53.76-55.48,142.7,0,194.67,53.94,50.53,140.58,53.07,194.67,0,26.72-26.22,39.9-61.04,40.3-95.74,3.72-2.83,6.13-7.29,6.13-12.33Z"/>
    </clipPath>
    <linearGradient id="linear-gradient" x1="139.81" y1="281.41" x2="152.12" y2="9.98" gradientUnits="userSpaceOnUse">
      <stop offset=".06" stop-color="#d3c293"/>
      <stop offset=".66" stop-color="#f2ebd1"/>
      <stop offset=".91" stop-color="#f2ebd1"/>
    </linearGradient>
    <clipPath id="clippath-1">
      <path class="cls-1" d="M611.08,62.62c-28.91-28.91-67.69-41.95-105.5-39.11-3-16.91-17.77-29.76-35.55-29.76-19.95,0-36.12,16.17-36.12,36.12,0,6.38,1.66,12.36,4.56,17.56-6.36,4.45-12.42,9.52-18.09,15.19-52.66,52.66-52.66,138.04,0,190.7,52.66,52.66,138.04,52.66,190.7,0,52.66-52.66,52.66-138.04,0-190.7Z"/>
    </clipPath>
    <linearGradient id="linear-gradient-2" x1="517.88" y1="311.29" x2="524.7" y2="149.36" gradientUnits="userSpaceOnUse">
      <stop offset=".01" stop-color="#75983e"/>
      <stop offset=".98" stop-color="#496c34"/>
    </linearGradient>
  </defs>
  <g class="cls-32">
    <circle class="cls-15" cx="145.49" cy="156.1" r="137.65"/>
    <path class="cls-24" d="M245.64,228.14c-11.8,1.58-66.61-9.16-66.61-9.16,0,0-13.81-52.8-24.53-77.13-10.45,11.13-20.94,22.35-28.08,35.46,7.59,21.72,19.41,52.85,28.51,65.35,7.6,10.43,20.68,9.25,20.68,9.25,15.73.14,45.01,7.53,68.58-5.85l1.45-17.92Z"/>
    <path class="cls-24" d="M214.28,210.98c-9.66,9.27-39.89,36.79-46.46,36.79-15.59-.01-48.98-14.49-48.98-14.49l6.12-9.44,38.41,4s31.68-31.31,35.23-35.6c0,0,7.99-6.62,16.26,4.56"/>
    <path class="cls-2" d="M214.28,210.98c-9.66,9.27-39.89,36.79-46.46,36.79-15.59-.01-48.98-14.49-48.98-14.49l6.12-9.44,38.41,4s31.68-31.31,35.23-35.6c0,0,7.99-6.62,16.26,4.56"/>
    <path class="cls-8" d="M143.8,24.18h0c1.69.29,2.82,1.89,2.53,3.58l-1.75,10.2c-.29,1.69-1.89,2.82-3.58,2.53h0c-1.69-.29-2.82-1.89-2.53-3.58l1.75-10.2c.29-1.69,1.89-2.82,3.58-2.53Z"/>
    <path class="cls-23" d="M106.35,122.62c2.34-8.1,5.16-16.06,8.46-23.82,2.76-6.47,5.75-13.56,11.93-17.46.42-.27.2-.63-.12-.83-.49-.18-1.04-.1-1.46.21-6.07,3.88-9.18,10.69-11.89,17.09-3.48,8.07-6.44,16.35-8.87,24.79-.25.85,1.82.77,2.02.02h-.08Z"/>
    <path class="cls-8" d="M126.93,41.6h0c1.26,1.15,1.35,3.1.2,4.37l-6.95,7.62c-1.15,1.26-3.1,1.35-4.37.2h0c-1.26-1.15-1.35-3.1-.2-4.37l6.95-7.62c1.15-1.26,3.1-1.35,4.37-.2Z"/>
    <path class="cls-24" d="M96.39,69.39c.8-.01-1.12,7.97-5.34,15.81-5.62,10.41-12.13,13.76-12.13,13.76l35.92,34.13,22.14-15.1s-8.37-8.88-8.16-11.22c.21-2.34,7.21-17.15,7.21-17.15"/>
    <path class="cls-6" d="M96.25,70.65v.12s-.02-.08,0-.12Z"/>
    <path class="cls-24" d="M118.18,101.25l11.23,3.96,5.18,1.22c2.16.6,4.48-.15,5.88-1.9,3.18-3.78,4.39-5.81,4.8-6.27,2.58-2.93,4.91-6.05,6.99-9.35,1.73-2.88,3.29-4.46,4.72-8.11,1.04-2.67,1.54-4.6,1.2-9.47-.08-1.23.19-2.46.78-3.53,1.25-2.43,2.23-5.4,3.84-8.68.33-.57.58-1.18.74-1.82,0,0,4.27-14.29,2.98-20.11-1.29-5.82-2.51-11.74-6.08-13.72s-17.03-1.54-17.03-1.54l-16.93-7.81-14.82,3.17-8.72,16-3.74,18.81-2.95,18.55"/>
    <path class="cls-18" d="M109.25,26.24c1.01-8.52,9.2-9.77,12.64-10.42,2.9-.55,10.88-1.08,16.07,1.08,2.24.92-.09,5.53.96,6.69.38.19,4.85,2.45,6.65,3.2,2.24,1.09,4.66,1.75,7.14,1.94,1.39-.13,2.79.09,4.08.63,2.32.97,4.83-4.7,8.34,2.09l.31-.19c-4.18-9.76-12.39-11.67-21.81-15.58-.99-.4-2.03-.79-3.09-1.14-15.28-5.02-14.78-4.78-27.5,2.99-7.38,4.52-12.28,9.38-13.09,13.01l-.19.81c-.87,3.79-7.25,13.05-6.43,15.43.52,1.54,1.75,8,2.79,13.48l7.44,1.98c.17-1.44,2.6-13.55,2.87-15"/>
    <path class="cls-24" d="M96.51,71c-7.48,4.32-6.13-5.93-6.13-5.93-2.85-6.13-1.46-11.48-.28-15.09,1.17-3.61,5.12-2.46,5.12-2.46,3.32,1.28,5.01,2.63,4.81,14.93"/>
    <path class="cls-18" d="M155.45,25.58c-5.55-1.49-19.22-9-26.66-11.36-3.08-.98-15.41,4.18-17.2,5.63-4.11,3.27.73,14.33-7.84,25.9-2.82,3.82-3.44-4.25-6.34-2.02s-4.07,3.15-4.07,3.15c1.43-12.75,1.37-12.3,7.13-23.81,5.76-11.51,20.33-13.48,27-12.9s26.75,7.75,31.67,11.72"/>
    <path class="cls-26" d="M97.15,60.39c-.32-1.93-.83-3.83-1.52-5.66-.33-.92-.8-1.78-1.4-2.54-.21-.31-.51-.56-.85-.72-.45-.15-.78.18-1.06.49-1.06,1.33-1.62,3-1.58,4.7-.01.1.61.07.61-.08-.01-1.37.33-2.72,1.01-3.91.24-.44.56-.83.95-1.15l-.52.08c.33.16.61.39.83.68.84,1.13,1.46,2.41,1.82,3.78.45,1.45.8,2.93,1.05,4.43-.01.11.62.07.6-.09h.04Z"/>
    <path class="cls-26" d="M95.75,60.73c-2.35-.73-1.94,2.75-2.37,4.03-.07.14-.15.28-.25.41l.22.03h0l-.08-.1c-.06-.11-.1-.24-.12-.37-.14-.76-.18-1.54-.1-2.31.01-1.06.2-2.1.54-3.1.4-1.05,1.11-2.67,2.37-2.86.37-.05.33-.34-.04-.29-1.16.29-2.11,1.13-2.52,2.25-.41.77-.68,1.6-.81,2.46-.14,1.02-.2,2.05-.16,3.08.03.41.02,1.2.42,1.47.33.18.75.08.97-.22.24-.39.37-.84.37-1.3.07-.62.12-3.16,1.19-2.83.18.02.72-.17.4-.27l-.04-.07Z"/>
    <path class="cls-11" d="M83.58,95.86l.9-1.71c-9.18,2.2-38.15,10.11-45.32,16.25-10.78,9.2,14.84,46.59,14.49,55.79-.16,4.45-2.19,37.42-10.62,61.85-5.55,16.26-10.12,32.84-13.67,49.66l26.51,8.45c12.95,4.11,26.03,9.66,39.6,9.99l32.07,9.14c2.34-17.46,8.57-43.32,12.26-67l11.62-74.08-.05-33.98s-1.28-6.06-1.77-7.88l-20.88-15.28s3.02,15.47-10.79,14.97c-14.26-.52-20.66-3.55-29.69-13.5,0,0-4.44-7.64-4.66-12.66Z"/>
    <path class="cls-25" d="M129.4,105.27c-5.97-1.41-11.71-2.91-13.6-4.01-9.37-5.58-13.35-22.26-13.35-22.26.56,5.03,2.06,9.92,4.42,14.4,4,7.77,7,9.44,13.03,11,2.86.74,5.03,1.69,8.81,2.71l.69-1.84Z"/>
    <path class="cls-18" d="M90.57,48.94s-1.61-7.06.94-17.2,6.72-23.61,19.83-25.99c2.33-.42,4.72-.51,7.08-.26,0,0,9.76-6.1,30.38,3.6,14.47,6.79,18.88,14.52,17.29,26.53,0,0-2.67-7.13-4.1-6.89s-3.33,3.01-8.57,2.16-13.19-3.76-16.02-6.71-8.36-6.74-11.99-7.16c-8.81-1.04-11.39,5.22-13.1,8.78s-7.1,16.37-11.75,17.14c-2.57.27-4.78,1.95-5.71,4.36l-.74.09c-1.3.17-2.52.7-3.53,1.54Z"/>
    <path class="cls-18" d="M140.86,53.09s-9.41-5.33-14.16-5.66-6.45.17-6.45.17c0,0-1-.82-.14-1.3s5.23-2.03,7.89-1.88,13.97,4.65,13.97,4.65l-1.11,4.02Z"/>
    <path class="cls-18" d="M163.77,57.89c.06-.13.12-.25.2-.37l-.08.14c.13-.2.25-.43.36-.65-.03-.64.14-1.17.15-1.8-3.91-1.34-7.88-2.47-11.91-3.38l-1.87,3.93c4.27.2,8.48.99,12.53,2.34.19-.11.4-.18.62-.21Z"/>
    <path class="cls-30" d="M145.72,74.59c.04.68.08,1.37.11,2.05.01.46.03.92.03,1.4.02.32,0,.65-.06.97-.29.94-1.72.99-2.5.94-1.02-.06-2.03-.23-3.02-.5-1.28-.24-2.49-.76-3.56-1.52-.15-.14-.54.05-.35.22.96.7,2.04,1.21,3.2,1.48,1.15.34,2.32.56,3.52.66.97.17,1.97-.07,2.75-.66.61-.57.47-1.4.45-2.14-.02-.97-.08-1.94-.13-2.91.03-.22-.45-.16-.45.06v-.04Z"/>
    <path class="cls-30" d="M134.17,73.82c-.48-.07-.97.02-1.41.24-.43.23-.75.63-.89,1.1-.19.47-.13,1.01.17,1.42.36.39.82.68,1.32.86.64.29,1.32.48,2.02.56.12.01.24,0,.35-.05.06,0,.1-.1.01-.1-.68-.08-1.34-.27-1.96-.56-.56-.17-1.05-.52-1.38-1-.22-.54-.14-1.15.19-1.62.25-.44.74-.7,1.25-.66.12.01.23,0,.34-.06.08,0,.09-.08.01-.09l-.02-.05Z"/>
    <path class="cls-19" d="M119.36,51.23l.13,2.92c.11,2.77.52,5.52,1.22,8.2.56,1.86,11.56,5.75,14.11,5.2s5.63-6.49,6.64-7.77l4.4,1.62c-.16,2-.51,8.37.1,9.43s5.78,2.44,6.37,2.6,1.16.3,1.91.47c1.97.44,4.43.82,5.35.34,1.38-.72,3.73-4.35,5.85-7.82l.34-.54c.08-.12.16-.21.17-.25h0l.38-.62c-5.55-4.94-14.14-6.97-20.35-4.81v.08s-4.28-1.6-4.28-1.6c-3.98-4.69-11.98-8.98-18.72-8.49h0l-18.41-.37-.54,1.62,15.34-.18ZM146.62,70.33c-.38-.66-.25-5.16-.07-8.63,5.37-1.78,13.14.07,18.14,4.15v.09c-1.15,1.86-4.18,6.8-5.54,7.51-1.6.83-11.81-2.04-12.56-3.1h.03ZM122.13,62.29c-1.05-3.47-1.53-7.09-1.41-10.72,6.13-.8,15.65,3.57,19.57,8.05-1.54,2.39-3.86,6.68-5.7,7.09-2.65.62-12.12-3.25-12.46-4.43Z"/>
    <path class="cls-31" d="M136.32,84.62c-4.07-1.25-10.51-3.77-10.51-3.77,0,0-2.32,10.33,7.1,13.24,9.42,2.9,11.85-7.18,11.85-7.18,0,0-4.38-1.05-8.44-2.29Z"/>
    <path class="cls-3" d="M136.37,84.62c-1.94-.59-9.62-3.33-9.62-3.33,0,0,.84,7.18,7.82,9.33,7.58,2.33,9.31-3.95,9.31-3.95l-7.52-2.05Z"/>
    <path class="cls-17" d="M136.35,84.95c-1.92-.6-7.71-2.74-7.71-2.74,0,0,1.45,2.81,7.25,4.61,5.79,1.79,8.29.25,8.29.25l-7.83-2.11Z"/>
    <path class="cls-31" d="M145.71,86.81c-.42-.35-.9-.62-1.4-.82-1.56-.63-1.35-.88-2.48-1.32-1.94-.77-3.43-.35-4.31-.62s-1.87-1.45-3.89-1.91c-1.19-.26-4.19-.72-5.84-1.06-.76-.26-1.5-.58-2.21-.95-.31-.04-.41,2.3,10.4,5.62,10.82,3.32,10,1.24,9.74,1.08Z"/>
    <path class="cls-25" d="M212.92,183.49c.17,0,.95-.35.53-.35-.19,0-.95.35-.53.35Z"/>
    <path class="cls-25" d="M162.05,228.11c2.21.77,3.96,2.5,4.74,4.7.12.33.9-.04.78-.39-.83-2.3-2.66-4.09-4.97-4.89-.21-.05-.43.02-.57.18-.11.11-.18.32.02.39h0Z"/>
    <path class="cls-11" d="M159.12,153.03l-2.09-19.35s-6.44-9.53-13.95-13.57c-4.47-2.4-9.07-7.83-11.73-9.24.04,3.88-1.52,7.11-4.48,8.67-4.16,2.2-8.92,2.98-13.56,2.24-4.45-.82-8.71-2.44-12.58-4.78-7.26-4.15-15.49-15.09-15.8-23.88l-9.01,3.43s-24.33,12.22-28.4,13.05-19.63,92.26-19.63,92.26l-14.73,38.24c-1.61,3.85-18.31,27.83-10.68,61.9,0,0,80.53-10,89.35-8.52,10.24,1.74,33.42-4.56,36.84-8.97,3.43-4.4,30.44-131.49,30.44-131.49Z"/>
    <path class="cls-28" d="M97.16,173.95h.09c-.01.13-.03.26-.04.36l-.05-.36Z"/>
    <path class="cls-28" d="M96.22,204.42h-.08v-.23l.08.23Z"/>
    <path class="cls-10" d="M125.03,174.21l-.13-.02.14-.04s0,.04,0,.05Z"/>
    <path class="cls-10" d="M107.15,174.04l.13-.06v.06s-.13,0-.13,0Z"/>
    <path class="cls-10" d="M124.68,174.17l-.16-.02s.11-.04.15,0c0,0,0,0,0,.01Z"/>
    <path class="cls-10" d="M97.56,173.96l.14.02-.14-.02Z"/>
    <path class="cls-24" d="M126.76,274.57s12.84,3.28,16.73,3.1,12.89.51,12.89.51c-.54,1.06-.69,2.28-.42,3.44.39,1.31,1.29,2.4,2.5,3.02l4.33-5.73c.93,2.84,3.54.91,3.54.91l3.2-5.09c.98,3.57,4.49,1.14,4.49,1.14l2.12-7.26c.84,1.26,1.93,2.35,3.2,3.19,1.66.92,2.4-1.98,2.4-1.98l-5.72-11.9-17-6.27-28.26,4.97-10.32,1.53"/>
    <path class="cls-25" d="M163.9,269.57c-.79-1.19-1.72-2.3-2.76-3.29-1.02-.99-2.08-1.93-3.2-2.81-.9-.75-1.84-1.44-2.82-2.07l-.13-.08-.09.1-.35.34.27.16c.78.54,1.64,1.29,2.64,2.16s2.06,1.76,3.11,2.79c1,.96,1.9,2,2.71,3.13.34.42.5.96.44,1.5-.06.52-.13,1.08-.28,1.54-.39,1.92-.75,3-.66,3.05.62-.88,1.03-1.89,1.22-2.95.17-.53.3-1.06.39-1.61.11-.7-.06-1.41-.48-1.97Z"/>
    <path class="cls-28" d="M211.48,148.32h.08s.01-.18.01-.18l-.09.18Z"/>
    <path class="cls-28" d="M209.73,130.86v.07s-.14-.16-.14-.16l.14.1Z"/>
    <path class="cls-11" d="M136.48,112.98s16.66,10.39,23.47,17.93c8.72,9.65,14.55,52.86,16.12,59.93s-30.91,19.71-30.91,19.71l-2.12-.58-16.55-15.64,11.56-66.23-1.57-15.11Z"/>
    <path class="cls-14" d="M146.9,210.99c3.33-11.84,6.02-23.86,9.04-35.78.76-3,1.53-6.01,2.38-9,.02-.21-.82-.1-.87.05-3.33,11.84-6.02,23.86-9.04,35.78-.76,3-1.53,6.01-2.38,9-.02.21.81.16.87-.05Z"/>
    <path class="cls-7" d="M258.4,169.96c-2.67,2.89-5.75,5.69-9.49,7.11-3.74,1.42-7.96.71-11.84-.14-7.64-1.56-14.67-5.28-20.25-10.73-5.61-5.72-8.88-13.33-9.17-21.34-.22-5.77.68-11.52,2.65-16.95.22-.32.43-.66.65-.96,6.56-8.98,11.03-12.86,21.53-12.01,6.51.44,12.21.13,20.89,6.27,1.86,1.32,3.5,4.22,5.82,6.19,3.5,2.98,6.99,7.46,7.82,11.24,1.56,7.19-1.65,16.25-3.13,24-1.55,2.64-3.4,5.1-5.5,7.32Z"/>
    <path class="cls-24" d="M202.3,157.59c.56-3.1,2.1-8.84,3.04-10.53.37-1.4.81-3.02,1.36-4.98.16-.57.32-1.07.49-1.65.11-.27.2-.54.27-.82,3.16-9.38,7.77-13.4,7.77-13.4,5.88-5.08,14.01-6.64,21.35-4.1,8.69,2.76,14.98,10.49,17.48,17.08,1.24,3.26,1.24,6.87,0,10.13-1.22,3-2.68,5.9-4.38,8.66,3.09.77,5.76,2.78,2.95,8.06-3.86,7.31-9.28,8.3-11.32,5.24-1.58.4-2.5,2.37-3.12,3.96-1.17,3.03-1.87,8.37-1.16,11.54l-.35.86c-9.79,8.65-15.52,13.62-36.16.56l9.87-7.16,1.54-4.47c-1.27-.44-2.49-1.01-3.65-1.68-6.47-3.94-6.65-13.65-5.98-17.31Z"/>
    <path class="cls-16" d="M211.98,176.66c5.29,1.87,11.04,2.01,16.42.41,0,0-.98,2.31-6.88,2.59-3.4.21-6.8-.36-9.94-1.66l.41-1.35Z"/>
    <path class="cls-7" d="M245.72,162.19v-.13c.69-.99,1.61-1.79,2.68-2.33.54-.27,1.11-.45,1.71-.55.6-.12,1.22-.14,1.83-.07.84.04,1.66.31,2.36.78l.35.3c4.1-5.99,7.21-12.78,4.88-22.39-.68-2.77-3.54-6.5-4.41-7.68-5.27-7.07-11.25-9.32-18.98-10.92-8.96-1.83-18.81,1.22-23.53,9.33-1.15,1.96-.71.17-1.18,2.4,1.9-2.7,4.67-4.67,7.85-5.58,4.97-1.2,4.57,2.72,10.47,4.68,6.83,2.26,10.24-.76,14.86,3.81,4.21,4.2,3.15,6.05,3.15,6.05.06,1.36.23,2.71.5,4.04.11,1.31,0,2.63-.35,3.9-.53,2.66-1.25,5.29-2.15,7.85-.62,1.56-1.61,3.6-.35,5.16.54.75-.48,1.4.3,1.36Z"/>
    <path class="cls-12" d="M251.13,166.03c.61-.78.94-1.74.96-2.73.02-.23.04-.54-.25-.6-.8-.03-1.59.22-2.23.7-1.06.65-2.04,1.42-2.93,2.29-.19.18.16.24.28.19.23-.09.48-.11.71-.05.34.14.27.65.19.94-.28,1-1.27,1.2-2.18,1.02-.21-.01-.51.24-.19.29,1.17.38,2.43-.23,2.86-1.38.12-.42.06-.96-.38-1.12-.39-.12-.81-.09-1.18.06l.28.19c1.06-1.11,2.32-2.02,3.71-2.66.21-.11.44-.19.68-.24h.14c.09.02,0,0,0,0l-.08-.08c.17,1.09-.14,2.21-.86,3.05-.13.2.33.22.45.03l.04.07Z"/>
    <path class="cls-31" d="M214.65,163.2c2.6.8,6.91,1.77,6.91,1.77,0,0-1.7,7.38-8.89,5.06-6.01-1.94-4.17-8.9-4.17-8.9,0,0,3.55,1.27,6.16,2.06Z"/>
    <path class="cls-27" d="M214.55,163.19c1.25.38,5.89,1.73,5.89,1.73-1.63,2.23-4.44,3.18-7.04,2.39-4.87-1.48-4.25-5.45-4.25-5.45l5.39,1.34Z"/>
    <path class="cls-17" d="M214.2,163.63c1.28.38,5.22,1.32,5.22,1.32,0,0-1.8.97-5.63-.2-3.83-1.17-4.65-2.81-4.65-2.81l5.06,1.69Z"/>
    <path class="cls-31" d="M208.11,161.13c0-.14.33-.11.99.07,1.08.22,1.53-.05,2.31.16.91.3,1.78.7,2.59,1.2.95.03,1.9.17,2.82.41.75.29,2.56,1.12,3.6,1.52.51.14,1.03.24,1.56.3.17.1-.78,1.7-7.92-.42s-6-3.09-5.95-3.22Z"/>
    <path class="cls-30" d="M225.02,144.98c0-.08.26.02.28-.09,2.9-.07,5.8.31,8.57,1.11.85.36,1.62.84,2.27,1.43.78.62,1.47,1.33,2.05,2.1.16.5-1.23-.52-1.23-.52-.27-.17-.56-.33-.86-.46-1.76-.86-3.65-1.49-5.61-1.86-2.01-.05-4.01.08-5.97.4.1-.73.41-1.37.49-2.1Z"/>
    <path class="cls-30" d="M217.53,141.95c-2.18-1.34-4.66-2.32-7.29-2.88-.89-.08-1.78-.01-2.64.18-.08.28-.17.56-.24.85-.01.05-.03.11-.04.16,1.74.08,3.46.37,5.09.9,1.6.85,3.07,1.86,4.38,3,.38-.67.52-1.36.91-2.01,0-.07-.2-.13-.17-.2Z"/>
    <path class="cls-7" d="M251.43,143.04s-14.79-.69-25.12-6.68l-.1-6.9s-2,5.61-1.96,6.75l-2.41-.71c.43-2.31,1.09-4.57,1.96-6.75,0,0-3.77,4.84-4,6.17,0,0-8.58-2.2-9.26-3.14s10.05-10.23,15.19-9.68,25.95,4.87,25.7,20.94Z"/>
    <path class="cls-7" d="M266.65,139.97c.56-3.44,3.52-7.04,6.96-6.23.82.23,1.6.59,2.31,1.06l3.25,1.91c1.02.53,1.94,1.21,2.74,2.03,1.33,1.64,1.9,3.76,1.59,5.84-.32,2.05-.92,4.06-1.78,5.94-.72,1.77-1.73,3.79-3.61,4.12-1.12.01-2.24-.1-3.34-.33-1.01.04-2.01.15-3,.33-3.51.28-6.81-1.69-8.23-4.92"/>
    <path class="cls-30" d="M216.2,159.34c-.88.07-1.77-.06-2.59-.38-.69-.19-1.3-.57-1.78-1.1-.42-.51-.47-1.23-.12-1.79.19-.23.4-.45.61-.66.3-.32.58-.67.82-1.04.08-.13-.28-.11-.34-.02-.37.55-.79,1.07-1.25,1.55-.33.33-.48.79-.4,1.25.21,1.26,1.55,1.79,2.63,2.12.77.25,1.58.35,2.38.28.16.01.32-.21.07-.18l-.03-.03Z"/>
    <path class="cls-30" d="M219.97,158.28c.56.15.36,1.03.22,1.41-.08.27-.25.49-.49.63-.38.13-.79.12-1.17-.01-.44-.21-.86-.47-1.25-.78-.07-.03-.15-.04-.23-.02,0,0-.17.07-.12.09.39.3.81.57,1.26.79.46.16.95.19,1.42.1.35-.07.65-.3.83-.61.14-.29.22-.61.24-.93.02-.33-.06-.67-.42-.76-.08-.03-.17-.04-.25-.02,0,0-.12.07,0,.09l-.04.02Z"/>
    <line class="cls-1" x1="210.85" y1="187.52" x2="207.08" y2="186.94"/>
    <path class="cls-29" d="M193.93,261.65c3.79-10.15.91-14.52.2-22.27,3.12.42,13.71-.54,16.84-.22,4.63.48,9.25.84,13.89,1.02,4.21.21,8.42.16,12.62-.14,4.1-.33,8.19-.82,12.31-1.03,2.34-.23,4.71-.06,7,.5-.9,6.38.17,5.44.76,8.71l1.82,6.62c.87,5.85,2.61,11.55,5.18,16.88h0c1.38,4.44,2.11,9.05,2.18,13.69.62,47.28-38.34,38.71-38.34,38.71,0,0-5.52-14.08-7.01-16.82l-3.26-5.26c-1.23.11-5.3-8.1-8.89-11.62-7.69-7.54-17.83,2.79-17.83,2.79l-.26-10.45,2.81-21.1Z"/>
    <path class="cls-4" d="M257.29,241.42c-2-1.72-1.34-5.17-1.22-10.95,0-1.99,2.91-13.12,2.83-17.7.05-4.73-.69-9.44-2.18-13.93-1.86-4.88-6.66-9.99-11.17-12.47-.37-.2-7.01-3.59-9.15-4.58-11.03,12.17-18.92,9.73-22.04,9.06,0,0-7.88-2.35-4.43-9.88,0,0-11.77,3.04-15.76,7.11s-18.66,24.12-18.66,24.12c0,0,5.68,12.5,16.54,14.49l1.04,5.75c.65,6.31,1.09,9.59,1.47,13.14,2.5.57,7.94-.78,10.48-.49,4.81.58,9.66.82,14.51,1.09,2.23.14,4.46.14,6.68,0,2.18-.16,4.35-.46,6.58-.81,4.55-.7,9.07-1.61,13.64-2.18,3.58-.53,7.22-.65,10.83-.36,0-.3.08-.61.12-.91-.05-.14.05-.39-.11-.5Z"/>
    <path class="cls-5" d="M192.54,226.07c-.11-.62.09-8.16.14-8.79v-2.95c-.04-3.13-.45-6.25-1.21-9.29-.08-.3-.91-.09-.84.22.77,3.06,1.18,6.2,1.21,9.35v2.95c-.04.61-.24,8.14-.14,8.74.08.29.91.09.84-.22Z"/>
    <path class="cls-4" d="M256.83,237.98s-.34,6.94.22,8.85c0,0-17.12,4.9-29.93,4.6-12.81-.29-31.74-3.71-31.74-3.71l-1.21-8.34s18.16,3.49,34.67,3.13c9.5-.12,18.94-1.65,27.99-4.54Z"/>
    <path class="cls-5" d="M256.2,238.16c-.13,2.82-.51,6.08.22,8.85l.6-.36c-3.35.96-6.76,1.73-10.16,2.42-6.45,1.43-13.04,2.14-19.65,2.11-6.35-.25-12.68-.84-18.96-1.77-3.95-.53-8.06-.93-11.97-1.85-.47-.11-.27.1-.33-.37-.11-.87-.26-1.74-.39-2.61l-.81-5.35-1.16.41c18.55,3.56,38.17,4.74,56.67.39,2.3-.5,4.56-1.14,6.78-1.92.87-.3.05-.42-.42-.25-6.26,2.09-12.75,3.41-19.33,3.93-11.57,1.15-23.28.24-34.76-1.37-2.62-.37-5.26-.76-7.86-1.26-.2,0-1.22.1-1.18.41l1.25,8.34s.06.07.11.07c7.31,1.32,14.69,2.35,22.09,3.07,5.16.6,10.36.76,15.54.48,5.33-.43,10.63-1.22,15.86-2.37,2.94-.63,5.88-1.31,8.77-2.18.1,0,.64-.16.59-.35-.73-2.75-.35-6.03-.21-8.85,0-.11-1.28.03-1.28.39Z"/>
    <path class="cls-24" d="M194.49,265.22c-.34-.55-.71-1.08-1.11-1.59-2.48.87-5.15,1.69-8.08,2.47v-.07s-3.05.51-3.05.51c0,0-8.58-3.03-10.26-3.56s-9.95-.9-9.95-.9c0,0-5.14-2.32-5.6-2.04-.94.55-1.26,1.76-.71,2.7.09.15.19.28.31.4,1.34,1.67,2.84,3.2,4.49,4.57l-13.13,8.48c-.85.54-1.44,1.4-1.63,2.39-.1.68,0,1.18.8,1.2,1.77-.37,3.48-.81,5.27-1.31h0s.73,2.81,2.92,3.01c.81.01,1.61.13,2.39.36.59,1.12,1.43,2.09,2.45,2.83,1.22.52,10.68-.12,10.68-.12,0,0,5.53-1.49,7.91-3.09,1.56-1.16,3.31-2.05,5.16-2.63,3.53-.08,13.36-3.28,18.21-3.62-.12-1.61-3.14.31-3.1.16.28-1.32-1.75.59-1.7-.77.05-1.67-.12-3.33-.52-4.95-.36-1.55-.95-3.03-1.76-4.4Z"/>
    <path class="cls-25" d="M179.47,265.06c-2.19-.61-4.38-1.21-6.57-1.88-2.18-.55-4.42-.86-6.68-.93-1.19-.08-2.37-.14-3.55-.2-.45.03-.91-.09-1.29-.34-1.09-.47-2.18-.94-3.28-1.34-.63-.34-1.35-.45-2.05-.33-.98.39-1.55,1.42-1.35,2.46.45,1.02,1.12,1.92,1.96,2.65.97,1.04,2,2.02,3.09,2.93l.14-.28-10.3,6.66c-1.3.68-2.52,1.51-3.64,2.47-.61.65-1.8,2.74-.46,3.22.67.07,1.35-.02,1.97-.27,1.33-.31,2.64-.65,3.95-1.02l-.03-.4h0c-.09,0-.47.18-.41.34.46,1.22,1.41,2.2,2.63,2.67,1.21.45,2.51.59,3.8.43l-.41-.05c.15,2.83,2.89,3.78,5.36,3.37.29-.02,1.01-.57.38-.48-2.33.38-4.65-.68-4.79-3.19,0-.13-.35-.06-.41-.05-1.29.06-2.58-.19-3.76-.74-.84-.52-1.49-1.3-1.84-2.22l-.41.35h0c.4-.12.57-.56-.03-.4-1.04.3-2.09.58-3.15.83s-2.68.91-2.51-.62c.21-1.06.87-1.97,1.81-2.49,1.41-.94,2.84-1.84,4.26-2.74l8.52-5.5c.07,0,.26-.18.14-.28-1.1-.91-2.13-1.89-3.09-2.93-.77-.84-2.19-2.06-1.94-3.4.06-.3.78-1.12.36-.99.19-.01.6.14.77.19.62.19,1.21.44,1.82.68.89.46,1.82.85,2.77,1.19.69.09,1.38.13,2.07.11,2.71,0,5.4.28,8.05.85,2.41.67,4.82,1.38,7.23,2.05.24.06,1.08-.37.74-.47l.11.1Z"/>
    <path class="cls-25" d="M162.78,266.29c1.29-.7,2.65-1.24,4.07-1.61-1.19.87-2.49,1.58-3.87,2.12-1.27.71-2.59,1.33-3.95,1.86,1.1-1,2.37-1.8,3.74-2.38Z"/>
    <path class="cls-25" d="M157.63,276.4c-1.61.73-3.08,1.41-4.18,1.78-.57.28-1.18.46-1.81.51.53-.35,1.1-.65,1.69-.87,1.05-.5,2.5-1.21,4.12-1.94,1.89-1.01,3.92-1.73,6.02-2.15.02.14-2.63,1.17-5.84,2.67Z"/>
    <path class="cls-25" d="M162.05,280.58c-1.52.72-3.17,1.13-4.86,1.21,0-.12,2.17-.67,4.73-1.68s4.56-2.15,4.57-2c-1.32,1.09-2.82,1.93-4.44,2.47Z"/>
    <path class="cls-1" d="M124.75,16.38l-4.4.95,4.4-.95Z"/>
    <path class="cls-24" d="M258.73,212.64c-4.11,12.74-17.68,51.3-23.47,54.41-13.73,7.38-49.99,10.46-49.99,10.46l.91-11.21,35.72-14.68s13.06-42.58,14.15-48.05c0,0,3.9-9.62,16.48-3.69"/>
    <path class="cls-4" d="M258.13,230.77c-10.06,1.81-21.45-.08-30.43-4.9-.82-.38-1.56-.92-2.18-1.59-1.49-1.87.85-7.8,1.75-10.02,2.25-5.6,4.54-11.26,7.98-16.24s2.96-9.65,8.74-11.43c.5-.19-1.84-.28-1.31-.23.56.13,5.57,1.64,6,2.02,4.69,3.66,12.22,8.43,13.3,14.26,1.68,8.89.1,18.81-2.73,27.39"/>
    <path class="cls-5" d="M230.43,226.27c-1.49-.32-2.69-1.44-3.09-2.92-.36-1.76.48-4.03.97-5.69,1.02-3.54,2.37-6.9,3.72-10.31,2.51-6.34,6.37-14.75,14.32-14.83.52,0,.66-.7.07-.69-7.16.09-10.98,6.33-13.88,11.97-1.09,2.18-1.92,4.69-2.83,7-1.36,3.27-2.4,6.67-3.1,10.14-.37,1.15-.29,2.4.22,3.5.72,1.09,1.88,2.41,3.26,2.47.45,0,.89-.64.29-.67l.04.02Z"/>
    <path class="cls-25" d="M221.98,251.84c2.29.4,4.29,1.81,5.44,3.83.13.24.93,0,.83-.22-1.21-2.14-3.32-3.61-5.75-4-.21-.02-.42.03-.59.16-.13.1-.11.2.07.23h0Z"/>
    <path class="cls-24" d="M52.1,125s3.51-12.07,5.87,12.12c2.39,24.57-18.52,87.96-18.52,87.96,0,0,80.75,33.74,92.11,36.25l-4.8,13.24c-36.62-2.15-80.44-7.51-94.87-12.91,0,0-23.65-7.49-27.17-19.53-6.79-23.16,14.94-90.97,14.94-90.97"/>
    <path class="cls-25" d="M39.42,224.82c-1.71.15-3.35.71-4.81,1.62-1.07.88-1.9,2.03-2.38,3.33-.44,1.04-.82,2.09-1.21,3.08-.14.36.75.35.87.02.55-1.92,1.42-3.74,2.57-5.38,1.27-1.45,3.22-1.81,5.02-2.14.55-.08.47-.61-.07-.52Z"/>
    <path class="cls-11" d="M36.66,192.33c3.91,1.03,15.73,3.03,19.78,3.8l.07-26.95s14.79-29.1,10.69-45.11c-4.11-16.02-9.55-19.96-9.55-19.96,0,0-29.09-1.32-38.96,24.85-2.72,7.24-11.11,36.83-14.76,49.69,10.24,4.44,21.91,10.77,32.72,13.68Z"/>
    <path class="cls-14" d="M55.26,115.67c2.69.9,4.37,3.41,5.55,5.85,1.21,2.59,2.07,5.33,2.54,8.15.62,4.36.6,8.79-.07,13.14-1.57,12.25-4.2,24.34-7.86,36.13-.95,3.18-1.96,6.34-3.04,9.4-.48,1.4-.98,2.78-1.51,4.13-.1.27-.23.54-.32.82-.14.45.26.23-.26.35-1.15.27-2.35.21-3.48-.15-.36-.11-1.27.36-.68.54,1.41.44,2.91.51,4.36.2,1.03-.2,1.07-.79,1.43-1.75,1.03-2.69,1.98-5.42,2.87-8.16,2.09-6.44,3.9-12.96,5.48-19.55,1.6-6.5,2.88-13.07,3.82-19.7.63-4.69,1.23-9.64.61-14.36-.42-3.13-1.28-6.19-2.57-9.07-1.24-2.73-3.1-5.55-6.08-6.55-.37-.12-1.28.34-.69.54l-.11.03Z"/>
    <path class="cls-22" d="M120.71,53.39s5.6,4.94,8.43,5.52,6.78,1.12,6.78,1.12c0,0-4.02-4.34-5.41-5-1.9-.9-6.54-1.7-9.8-1.63Z"/>
    <path class="cls-22" d="M149.93,64.24s4.42,2.81,7.33,2.45c2.29-.29,2.69-1.79,2.69-1.79,0,0-1.87-1.6-3.33-1.8-1.53-.21-4.71.16-6.69,1.14Z"/>
    <path class="cls-30" d="M149.8,64.36s2.59-2.09,4.71-1.94c4.35.31,5.43,2.07,5.43,2.47-.41-.29-3.03-1.49-5.11-1.54-1.73.04-3.43.39-5.04,1.01Z"/>
    <path class="cls-30" d="M127.64,58.35c-.23-.85.11-1.77.86-2.26.67-.43,1.55-.38,2.16.13.51.44.76,1.1.67,1.77-.07.36-.24.7-.48.97-.12.09-.24.17-.37.24,0,0-1.14-.16-1.75-.39s-1.1-.45-1.1-.45Z"/>
    <path class="cls-30" d="M157.14,66.7c.32-.05.36-.36.53-.65.14-.34.17-.71.11-1.07-.16-.65-.63-1.17-1.26-1.41-.76-.25-1.59,0-2.07.64-.42.6-.48,1.36-.2,2l.03.06s1.71.58,2.86.42Z"/>
    <path class="cls-30" d="M136.14,60.2s-3.18-5.23-6.71-6.27c-2.68-.76-7.77-.63-9.16-.63,0,0,6.67,1.31,8.55,1.87s7.33,5.03,7.33,5.03Z"/>
    <path class="cls-22" d="M214.83,148.6s-5.11-.15-6.47-1.11-2.26-3.24-2.26-3.24c0,0-.04-.05,1.65-.44s5.52-.54,7.08,4.79Z"/>
    <path class="cls-22" d="M235.99,154.17s-4.87.93-7.57-.08-5.01-2.71-5.01-2.71c0,0,3.34-1.84,5.4-1.65s5.3,1.32,7.18,4.44Z"/>
    <ellipse class="cls-7" cx="209.7" cy="145.74" rx="1.95" ry="1.94" transform="translate(53.05 347.41) rotate(-86.96)"/>
    <path class="cls-18" d="M207.52,143.49c1.26-.43,2.64-.37,3.86.18,2.8,1.12,3.45,4.93,3.45,4.93-.74-1.82-2.11-3.32-3.87-4.2-1.58-.44-3.25-.5-4.85-.15.12-.26.82-.56,1.41-.77Z"/>
    <ellipse class="cls-13" cx="228.98" cy="151.73" rx="1.95" ry="1.94" transform="translate(65.32 372.34) rotate(-86.96)"/>
    <path class="cls-18" d="M223.4,151.38s3.93-2.94,7.02-1.71c4.36,1.7,4.26,2.64,5.57,4.5-1.69-1.64-3.69-2.92-5.89-3.77-3.08-1.09-6.7.98-6.7.98Z"/>
  </g>
  <g class="cls-21">
    <path class="cls-20" d="M422.38,181.58c2.58-2.82,5.32-6,5.38-9.82.06-3.82-4.35-7.62-7.53-5.5.92-2.3.04-5.18-2-6.58-2.04-1.4-5.04-1.18-6.86.51-1.05-5.54-9.53-7.7-13.1-3.33.33-2.16-2.73-3.61-4.63-2.52s-2.54,3.57-2.38,5.75c-1.25-2.55-4.18-4.17-7.01-3.89s-5.37,2.47-6.08,5.22c-.28-2.42-.69-5.08-2.56-6.64-1.87-1.55-5.58-.66-5.52,1.78.55-3.44-1.38-7.13-4.52-8.64s-7.22-.73-9.58,1.84c-.47-3.37-1.74-6.88-4.55-8.8s-7.38-1.4-8.79,1.69c-1.62-2.63-4.21-5.03-7.3-5.02-3.09.01-5.94,3.68-4.26,6.27-2.3-3.8-9.41-2.27-9.94,2.13-1.65-2.54-5.08-3.77-7.96-2.85-2.89.91-4.98,3.89-4.87,6.92-2.88-1.76-6.87-1.46-9.46.71s-3.58,6.05-2.35,9.19c-8.64.72-14.91,11.12-11.52,19.1"/>
    <path class="cls-9" d="M770.31,295.84h-498.7v-115.39l154.57-1.58c19.85-.87,172.4-.52,192.26.32l151.87,1.26v115.39Z"/>
  </g>
</svg>