<svg xmlns="http://www.w3.org/2000/svg" xmlns:xlink="http://www.w3.org/1999/xlink" viewBox="0 0 292.89 301.99"><defs><style>.cls-1{fill:none;}.cls-2{clip-path:url(#clip-path);}.cls-3{clip-path:url(#clip-path-2);}.cls-4{fill:#9b5925;}.cls-5{clip-path:url(#clip-path-3);}.cls-6{fill:#c3e6f7;}.cls-7{fill:#745245;}.cls-8{fill:#dbb28e;}.cls-9{fill:#050606;}.cls-10{fill:#c95744;}.cls-11{fill:#4f2e25;}.cls-12{fill:#661d0d;}.cls-13{fill:#ce8d2a;}.cls-14{fill:#13110f;}.cls-15{fill:#231f20;}.cls-16{fill:#070505;}.cls-17{fill:#f1eef7;}.cls-18{fill:#975449;}</style><clipPath id="clip-path"><path class="cls-1" d="M-93.85,121.87c0-7.56-8.85-17.85-19.06-26.87A127.06,127.06,0,0,0-156,47.72a31.77,31.77,0,0,0,1.44-9.46A31.63,31.63,0,0,0-186.16,6.63a31.63,31.63,0,0,0-29.77,21q-4.47-.32-9-.32A126.49,126.49,0,0,0-351.43,153.77c0,2.72.1,5.42.27,8.09-.06.24-.09.4-.09.4a10,10,0,0,0-.92,3.25c-.24,2,1.14,5.18,1.14,5.18l-.22,1.37c-2,6.21-6.29,21.76-1.88,26.76h0c1.18,1.86,3.49,3.34,8,2l.21-.06.33-.11q.3-.09.6-.21l.15,0h0c.37-.15.75-.3,1.13-.47a126.54,126.54,0,0,0,117.79,80.3A126.5,126.5,0,0,0-98.44,153.77c0-4-.2-8-.56-11.86C-96.14,133.55-93.85,125.67-93.85,121.87Z"/></clipPath><clipPath id="clip-path-2"><polygon class="cls-1" points="-8.15 289.58 -437.33 289.58 -421.4 216.92 -24.09 216.92 -8.15 289.58"/></clipPath><clipPath id="clip-path-3"><path class="cls-1" d="M275.89,138.2a2.75,2.75,0,0,0-.28-.63,2.37,2.37,0,0,0-2.48-1.06A126.6,126.6,0,0,0,175.47,29.44c-3.15-4.29-8-7.62-15.45-8.2A44.87,44.87,0,0,0,127.58,16c-11.2,2.49-19.94,7.83-25.65,18.91a126.51,126.51,0,1,0,172.25,118q0-5-.39-9.87Z"/></clipPath></defs><g id="Layer_9" data-name="Layer 9"><g class="cls-2"><g class="cls-3"><rect class="cls-4" x="-441.76" y="235.12" width="445.26" height="6.44"/><rect class="cls-4" x="-441.29" y="218.06" width="445.26" height="6.44"/><rect class="cls-4" x="-444.06" y="251.45" width="445.26" height="6.44"/><rect class="cls-4" x="-443.88" y="267.46" width="445.26" height="6.44"/></g></g></g><g id="Layer_10" data-name="Layer 10"><g class="cls-5"><circle class="cls-6" cx="147.28" cy="153.27" r="126.49" transform="translate(-65.24 149.03) rotate(-45)"/><path class="cls-7" d="M157.44,186.77l.11-.08,0,.06Z"/><path class="cls-8" d="M193.6,197.55l1-4.39c-1.64,2.67-6.11,6-6.19,5.92s-1.54-.67-1.56-.68c-5.69,9.77-12.39,24-3.85,31.86,7.45,4.27,16.95,5.14,27.65-8.55.83-1.06,9.17-12.46,11-15.9C215.56,200,200.3,202.51,193.6,197.55Z"/><path class="cls-9" d="M95.63,53.55S89.46,78.91,99.47,92s46.73,21.28,57.43,14.16S172,70.46,165.81,64.64,95.63,53.55,95.63,53.55Z"/><path class="cls-9" d="M96,73.47S86.63,78.22,85.09,88s4.58,18.14,16.88,22.1,30.14,2.85,31.39-4.13,3.72-18.06-2.19-22.22S96,73.47,96,73.47Z"/><path class="cls-8" d="M116.35,83.83s2.74,16.39-3.35,27.8c-.85,1.59-10.8,4.91-10.8,4.91l8.28,7c6.71,5.7,18.26,14.69,27.07,14.83,5,.08,12-3.69,16.15-4.6l2.18-10.43-9.37-6.1c-.18-2.12,2-16.76,2-16.76"/><path class="cls-8" d="M180.74,155.49c-5.89,1.12-11.8,2.16-17.66,3.43-4,.87-8,1.84-12,3A38.81,38.81,0,0,0,146,164c.12.35.23.71.36,1.06,4.66,13.59,10.63,27.34,16.49,40.47a74.79,74.79,0,0,0,9.69,15.16A40.55,40.55,0,0,0,185,231.43c5.09,2.58,11.74,2,17.14.92,1.63-.34-.58-25.66-2-28.41C191.51,186.9,185.36,166.22,180.74,155.49Z"/><path class="cls-10" d="M179.25,188.49c1.08,6.18,1.74,13.88-1.6,19.52a25.11,25.11,0,0,1-6.07,7.32c-2.34,1.83-5.42,3.57-6.54,6.5-1,2.71,3.17,48,6.35,60.67a219,219,0,0,1-54.75,4c-34.53-2.2-56-15.92-56-15.92,6-28.82,14.45-41.58,14.45-41.58l-1-38.65-8.93-40.21c1.84-16.18,16.4-26.24,30.86-31.62l13.9-5.41s11,21.1,30.14,19,7-14.74,7-14.74,18.75,6.26,23.17,10,13.39,13.71,16,26.28A104,104,0,0,0,194.78,178c1,2.1-16,7.37-16,7.37"/><path class="cls-8" d="M82.64,143.62c5,.17,8.86,10,8.86,10,12.78,18.08,19.45,75.7,19.45,75.7l65.2,9.53,4.33,11.64c-22,5.45-39.93,7.73-68.42,7.93-14.24.1-22.15-3.18-28-17.41-2.39-5.8-13.18-51.72-14.61-54.2,0,0,.22-9.37-3.5-22.86S72.7,143.3,82.64,143.62Z"/><path class="cls-11" d="M111.22,229.05c-2.5,0-4.49,2.12-5.29,4.33a11.34,11.34,0,0,0-.62,3.22c0,.25,1.29.08,1.31-.35a8.89,8.89,0,0,1,1.92-5.34,4.73,4.73,0,0,1,1.32-1s.23-.1.08,0l.18-.08s.25-.08,0,0l.17,0c.19-.06-.09,0,0,0l.15,0c.12,0-.15,0,0,0h.14a1.22,1.22,0,0,0,.88-.33c.17-.24-.15-.27-.33-.27Z"/><path class="cls-10" d="M87.6,122.24S65.89,133.36,62.94,148s4.56,43.22,4.56,43.22,29-3.29,42.52-10.67S87.6,122.24,87.6,122.24Z"/><path class="cls-12" d="M78.89,135.93c4.34-1.17,9.11,1.21,12.43,3.86a38.75,38.75,0,0,1,8,9.32c3.78,5.85,5.43,12.48,6.81,19.23.93,4.54,1.87,9.07,3.09,13.55l.53-.54-4.71,1.33c-.76.21-.58.94.2.73l4.71-1.32c.21-.06.61-.26.53-.54-2.11-7.78-3.05-15.89-5.55-23.56a40.52,40.52,0,0,0-4.53-9.54,38.18,38.18,0,0,0-8.5-9.63c-3.66-2.76-8.61-4.87-13.23-3.62-.77.21-.58.94.19.73Z"/><path class="cls-9" d="M180.52,53.61S183,24.17,159.38,22.34a44.87,44.87,0,0,0-32.44-5.24c-18.5,4.11-30.29,16-32.82,48.67S180.52,53.61,180.52,53.61Z"/><path class="cls-9" d="M106,62.3c3.36,8,11,13.88,19.28,17.26s17.33,4.66,26.23,5.92l10.89.61c5.31-5.28,11-8.51,14.2-15.17a57.83,57.83,0,0,0,4-18c.35-6-3.08-13.11-5.79-18.5a22.27,22.27,0,0,0-11.12-10c-4.78-2.16-7.42-4-14.39-5.11a41,41,0,0,0-33.15,9.19C106.72,36.15,101.33,51.16,106,62.3Z"/><path class="cls-11" d="M147,114.13A41.37,41.37,0,0,0,141.7,112c-2.55-.8-6.95-.85-18.47-11.1,0,0,3.07,12.1,18.11,15.34a12.44,12.44,0,0,0,5.3.41Z"/><path class="cls-8" d="M174.88,54.69a21.87,21.87,0,0,1,.33,9.22c-.8,5.07-2.19,10.71-2.62,12.89a46.11,46.11,0,0,0-.63,6.92c-.08,4.5-.22,5.67-1.85,10a29.45,29.45,0,0,1-5.74,9.75c-3,3.55-6.88,6.45-10.62,9.32-2.47,1.89-3,2.1-9,1.43-8.92-1-16.9-6.57-21.8-13.27l-5.76-10.31-.54-4.33c-5.19,4.15-7.28-3.37-6.92-4.69-1.26-3.08-5.51-13.65-1.27-17l.32-.42c1.76-1.17,3.88-1.23,4.88,1.14.3,1,.7,2,1,3a26.41,26.41,0,0,0,2.19,4.47,67.45,67.45,0,0,0,1.65-8.17c.2-2.63,2.9-10,7.83-13.1,0,0,1.06-9.23,3.43-11.72l.75-.18c.43.06.7.23,1.13.29,0-.14-.11-.3-.07-.57a4.52,4.52,0,0,0,1.84.38c-.12-.16-.39-.33-.37-.47a7.05,7.05,0,0,0,1.72.22c-.13-.15-.38-.46-.36-.6.68.37,1.15.15,1.72.22a1.06,1.06,0,0,1-.21-.59,3.62,3.62,0,0,0,1.7.36c-.13-.15-.23-.45-.36-.6.68.37,1.15.15,1.72.22.15,0-.25-.31-.23-.45a5,5,0,0,0,1.42.32c0-.13-.26-.31-.24-.45a4.32,4.32,0,0,0,1.87.25l-.36-.61a2,2,0,0,0,1.68.5c-.12-.16-.37-.47-.35-.61A2.71,2.71,0,0,0,145,38c-.15,0-.38-.46-.36-.6a2.69,2.69,0,0,0,1.95.67c-.12-.15-.23-.45-.48-.76a2.86,2.86,0,0,0,2.67.76c-.13,0-.21-.36-.21-.53s-.07-.28.24-.3c0,0,1.58.76,1.6.63.52.48-1.21-2.53-.49-2.44-.11-.29,4.08.79,3.83.48.65.64.54.34,1.42.31,0,0,2.76,2,2.64,1.88a.88.88,0,0,0,.7.41S169.19,48.38,174.88,54.69Z"/><path class="cls-13" d="M113.57,84.93a3.32,3.32,0,0,0-3.43,2.55,2.9,2.9,0,0,0,.46,2.16,2.53,2.53,0,0,0,1.16.9,3.48,3.48,0,0,0,3-.12c.1,0,.17-.15.06-.22s-.33,0-.43.07a2.65,2.65,0,0,1-3.12-.7,2.79,2.79,0,0,1,.12-3.53,2.44,2.44,0,0,1,1.92-.79c.11,0,.34,0,.4-.17s0-.15-.16-.15Z"/><path class="cls-14" d="M128.05,50.22l-2.62,4.65a64.41,64.41,0,0,0-6.66,17.26l-.39,1.72a.52.52,0,0,1-1,.12l-2.65-5.68S116.44,49.28,128.05,50.22Z"/><path class="cls-15" d="M112.78,72a3.58,3.58,0,0,0-2.1,2.7,5.91,5.91,0,0,0-.11,3.36c.24.94,1,2.92,2.29,2.69,1.09-.18,1.2-1.48,1-2.34-.11-.59-.34-1.17-.42-1.77-.09-.78.33-.87,1-.79.16,0,.48-.09.42-.3a32.91,32.91,0,0,0-2.27-6c-.49-.93-1.15-2-2.32-2-1.48-.1-2.16,1.52-2.38,2.72a8.59,8.59,0,0,0,.71,5.14c.13.26.74.08.62-.17a8.78,8.78,0,0,1-.83-3.53c0-1,.3-4.21,2-3.65,1,.32,1.47,1.49,1.87,2.33a33.39,33.39,0,0,1,1.3,3.31c.24.68.46,1.37.66,2.06l.42-.3c-.74-.09-1.79,0-1.89.9s.42,1.79.5,2.67c0,.39,0,1.13-.44,1.3s-1-.69-1.18-1a5.48,5.48,0,0,1-.66-3.59c.2-1.1.61-2.87,1.83-3.25.37-.11.27-.53-.11-.42Z"/><path class="cls-9" d="M114.48,41.93c1.59-10.59,18.79-12.19,27.72-12.19,5.76.16,14.34,5.89,19.3,8.88,1.56-1.44-13.73,14.16-44.9,17.67L116.47,64S112.9,52.52,114.48,41.93Z"/><path class="cls-14" d="M160.47,75.93s3.31-2.8,5.55-2.94a10.25,10.25,0,0,1,8.12,2.64,20.32,20.32,0,0,0-8-1.36A23.8,23.8,0,0,0,160.47,75.93Z"/><path class="cls-14" d="M141.46,69.15a2.78,2.78,0,0,0-2.66-.1,2,2,0,0,0-.4,2.87,2,2,0,0,0,2.21.61,2.17,2.17,0,0,0,1.31-2.41c0-.16.16-.45-.46-.85"/><path class="cls-14" d="M168.8,74a2.73,2.73,0,0,0-2.65-.1,2,2,0,0,0-.71.89,2.11,2.11,0,0,0,.3,2,2,2,0,0,0,2.21.62A2.18,2.18,0,0,0,169.26,75c0-.16.17-.45-.45-.86"/><path class="cls-14" d="M147.68,73.48s-3.07-4.75-6.9-5.29a45.87,45.87,0,0,0-9.22-.06s7,1,9,1.34S147.68,73.48,147.68,73.48Z"/><path class="cls-14" d="M150.89,64.63c0-.08-.33-.18-.3-.26a44.27,44.27,0,0,0-11.21-4,13.25,13.25,0,0,0-3.72.11s-3.37.52-3.88,1,1.91.23,1.91.23a10.29,10.29,0,0,1,1.36,0c2.75.39,5.46.45,8.06,1.46a46.16,46.16,0,0,1,7.06,4A24.35,24.35,0,0,1,150.89,64.63Z"/><path class="cls-14" d="M176.46,69.08a2.68,2.68,0,0,0-.07-.27h0a14.16,14.16,0,0,0-2.14-1.07,44.73,44.73,0,0,0-11.41-1.79c-.21,1-.28,1.27-.5,2.25a29.37,29.37,0,0,1,6.42.27,43.73,43.73,0,0,1,7.56,1.63c.11-.2,0,0,.07-.21a3,3,0,0,0,.09-.43A2.3,2.3,0,0,0,176.46,69.08Z"/><path class="cls-16" d="M150.91,95.73c-1.84-.29-9.64-1.58-9.64-1.58s1.95,7,8.61,8.09a8.35,8.35,0,0,0,9.41-5.33Z"/><path class="cls-17" d="M151,96c-1.84-.3-7.39-1.51-7.39-1.51s1.69,2.38,7.21,3.26,7.59-.83,7.59-.83Z"/><path class="cls-14" d="M160,85.2c.12.64.25,1.29.36,1.93.07.45.15.89.21,1.34a4.12,4.12,0,0,1,.07.93c-.16.94-1.51,1.17-2.26,1.22a13.85,13.85,0,0,1-3-.09,8.6,8.6,0,0,1-3.59-1c-.16-.11-.52.12-.32.25a8.3,8.3,0,0,0,3.25,1,15.8,15.8,0,0,0,3.43.18,3.45,3.45,0,0,0,2.55-1c.5-.62.27-1.4.16-2.13-.14-.92-.32-1.84-.5-2.76,0-.21-.45-.1-.41.11Z"/><path class="cls-14" d="M148.83,86a2.38,2.38,0,0,0-1.32.4,1.79,1.79,0,0,0-.7,1.16,1.71,1.71,0,0,0,0,.81,1.46,1.46,0,0,0,.36.56,3.22,3.22,0,0,0,1.42.64,6.35,6.35,0,0,0,2,.26c.08,0,.27,0,.31-.11s0-.07-.1-.07a5.71,5.71,0,0,1-1.88-.27,2.5,2.5,0,0,1-1.46-.8,1.62,1.62,0,0,1,0-1.57,1.27,1.27,0,0,1,1.13-.83.59.59,0,0,0,.32-.09c.07,0,.07-.09,0-.09Z"/><path class="cls-12" d="M177.92,167.77a10.64,10.64,0,0,0-1.65,8c.46,3.24,1.29,6.44,1.87,9.66.11.62,1.38.29,1.27-.34-.54-3-1.2-5.89-1.74-8.84-.5-2.75-.41-5.74,1.32-8.07.49-.65-.7-.9-1.07-.41Z"/><path class="cls-8" d="M218.81,213.13c10-14.95,26.2-48.07,26.2-48.07-4.91-3.51-9.41-1.15-11.08-5.37L196.15,198C198.75,209.53,213,207.53,218.81,213.13Z"/><g id="freepik--Character--inject-2"><path class="cls-8" d="M228.06,166.26l5.94-7.18s2-7,3.46-8.72,8.86-6.77,9.28-6.89,5.83-9.94,7.88-9.44,3.36,2.09,2.54,4.81-5.88,7.86-4.68,8.88a9.31,9.31,0,0,0,3.24,1.54s.84-3.14,2.67-4a5,5,0,0,1,3.68-.12l-.07,2.5,2.42-1.44s1.8-6.24,4.54-6a11.28,11.28,0,0,1,3-3.43,2.38,2.38,0,0,1,3.28.75,2.21,2.21,0,0,1,.28.63h0l-6.15,14.08-14.84,13.81s-8.52,1.36-10.2,2-4.16,7.9-4.72,7.25A46.48,46.48,0,0,0,228.06,166.26Z"/></g><path class="cls-11" d="M234,159.94a5.76,5.76,0,0,0,.5,1,2.89,2.89,0,0,0,.77.75,12.25,12.25,0,0,0,2.76,1.31.67.67,0,0,0,.58-.08c.1-.06.26-.24.07-.31a12.5,12.5,0,0,1-2.67-1.25,2.9,2.9,0,0,1-.72-.68,5,5,0,0,1-.48-1c-.11-.28-.91,0-.81.22Z"/><path class="cls-18" d="M151.71,95.73c-4.16-.68-11.74-1.56-11.74-1.56s.49,9.66,10.13,11.22,11.79-8.3,11.79-8.3S155.87,96.4,151.71,95.73Z"/><path class="cls-16" d="M151.75,95.73,141.39,94a11.86,11.86,0,0,0,9.21,7.51c7.76,1.26,10.16-4.51,10.16-4.51Z"/><path class="cls-17" d="M151.78,96.05c-2-.32-7.93-1.64-7.93-1.64s1.8,2.6,7.73,3.56,8.17-.92,8.17-.92Z"/><path class="cls-18" d="M162.2,96.89a10.11,10.11,0,0,1-1.62-.32c-1.64-.56-2.3-1.29-3.47-1.58-2-.49-3.42.13-4.3,0s-2-1.18-4.08-1.35c-1.2-.09-3.86.38-5.52.26-1-.08-3.31-.15-3.53-.13s.78,1.34,11.84,3.13S162.48,97,162.2,96.89Z"/><rect class="cls-15" x="191.52" y="207.13" width="27.71" height="51.96" rx="5.47" transform="translate(105.87 -61.2) rotate(22.7)"/><path class="cls-8" d="M171.34,239.14l2.48,8.33-1,4.45s13.09,3.08,16.29,2.25,10.95-1.85,10.95-1.85a4.26,4.26,0,0,0,.23,2.94,4.21,4.21,0,0,0,2.65,2.08l2.66-5.55c1.27,2.21,3.14.14,3.14.14l1.83-4.81c1.44,2.8,3.94.17,3.94.17l.53-6.44a9.78,9.78,0,0,0,3.24,2.1c1.55.47,1.69-2.07,1.69-2.07L213.12,232l-15.4-2.23-22.95,9.14Z"/><path class="cls-11" d="M203.58,232.8a28.81,28.81,0,0,1,7.78,2.19c1,.47,2.48,1,2.86,2.21a14.75,14.75,0,0,1,.38,1.87,6.3,6.3,0,0,1,0,2.25c-.05.29.79.15.83-.11a6.53,6.53,0,0,0,0-2.16,13.57,13.57,0,0,0-.38-2c-.36-1.22-1.61-1.76-2.68-2.27a23.9,23.9,0,0,0-4-1.45,34.66,34.66,0,0,0-4.27-1,.78.78,0,0,0-.59.16c-.09.12-.13.24.07.27Z"/><path class="cls-11" d="M201.64,239a49.63,49.63,0,0,1,6.65,1.37,2.5,2.5,0,0,1,1.4,1.11,7.79,7.79,0,0,1,.73,1.61,5.17,5.17,0,0,1,.3,1.83,6.86,6.86,0,0,1-.46,1.94c-.15.45.68.44.8.09a8.3,8.3,0,0,0,.5-2,5.43,5.43,0,0,0-.24-1.83,9,9,0,0,0-.75-1.78,2.79,2.79,0,0,0-1.28-1.28,14.58,14.58,0,0,0-3.81-1c-1.19-.22-2.38-.38-3.56-.63-.4-.08-.83.49-.28.6Z"/><path class="cls-11" d="M200,246.11c.93-.05,1.89-.15,2.83-.12a4.32,4.32,0,0,1,2.76.9,2.78,2.78,0,0,1,.8,2.68,4.73,4.73,0,0,1-.7,1.57,4.34,4.34,0,0,1-.35.49l-.13.14c-.09.11-.08,0,.21-.07-.08,0-.41.12-.38.24s.39,0,.45,0c.65-.15,1.07-1,1.34-1.52a3.29,3.29,0,0,0,.08-3.2c-1-1.64-3.15-1.63-4.85-1.55l-1.7.08c-.15,0-.48.06-.56.2s.07.14.2.14Z"/><path class="cls-11" d="M250,161.81a26.57,26.57,0,0,1,3.36-5.2,6.83,6.83,0,0,0,1.51-1.92,16.91,16.91,0,0,0,.64-2.42,25,25,0,0,1,1.56-5.09,3.89,3.89,0,0,1,1.79-2,4.74,4.74,0,0,1,2.91-.1l-.16-.18a49.81,49.81,0,0,1-3,14.52c-.1.28.71.18.81-.1a49.74,49.74,0,0,0,3-14.51c0-.11-.06-.16-.16-.18a5.49,5.49,0,0,0-4.57.7c-1.43,1.1-2,3.09-2.42,4.74-.27,1-.5,2-.74,3-.11.45-.21.9-.34,1.34a3.85,3.85,0,0,1-1.09,1.63,25.67,25.67,0,0,0-3.86,5.74c-.19.34.63.27.76,0Z"/><path class="cls-11" d="M262.88,153.79c.8-3.15,1.62-6.34,2.67-9.41a12.21,12.21,0,0,1,1.32-2.72,2.05,2.05,0,0,1,1.47-1.09,9.72,9.72,0,0,1,1.94.17l-.15-.12c-1,3.6-1.72,7.25-2.7,10.85-.05.21.74.1.81-.13,1-3.6,1.72-7.25,2.7-10.85,0-.09-.08-.12-.15-.12-1.23-.14-2.48-.39-3.62.28a5.9,5.9,0,0,0-2,2.77,35.18,35.18,0,0,0-1.53,4.69q-.84,2.89-1.59,5.8c-.05.22.75.1.81-.12Z"/><path class="cls-11" d="M249.38,146.73a7.24,7.24,0,0,1,2.83,1.37c.13.11.39,0,.52,0s.36-.17.23-.27a7.45,7.45,0,0,0-2.92-1.43.87.87,0,0,0-.57.09c-.08,0-.28.21-.09.26Z"/></g><path class="cls-11" d="M196.64,197.33a13.56,13.56,0,0,0-2.26,5.84,20.63,20.63,0,0,0,.09,7.31c.08.35.9.14.81-.22a20.5,20.5,0,0,1-.08-7.16,13.31,13.31,0,0,1,2.21-5.69c.24-.36-.59-.36-.77-.08Z"/></g></svg>