<?xml version="1.0" encoding="UTF-8"?>
<svg id="Layer_2" data-name="Layer 2" xmlns="http://www.w3.org/2000/svg" xmlns:xlink="http://www.w3.org/1999/xlink" viewBox="0 0 292.89 301.99">
  <defs>
    <style>
      .cls-1 {
        fill: none;
      }

      .cls-2 {
        fill: #755346;
      }

      .cls-3 {
        fill: #231f20;
      }

      .cls-4 {
        fill: #98554a;
      }

      .cls-5 {
        fill: #070808;
      }

      .cls-6 {
        fill: url(#linear-gradient);
      }

      .cls-7 {
        fill: #f1eef7;
      }

      .cls-8 {
        fill: #ce8d2a;
      }

      .cls-9 {
        fill: #ca5844;
      }

      .cls-10 {
        fill: #fff;
      }

      .cls-11 {
        fill: #0a0808;
      }

      .cls-12 {
        fill: #661f0f;
      }

      .cls-13 {
        fill: #dbb28f;
      }

      .cls-14 {
        fill: #4f2f26;
      }

      .cls-15 {
        fill: #161412;
      }

      .cls-16 {
        clip-path: url(#clippath);
      }
    </style>
    <clipPath id="clippath">
      <path class="cls-1" d="M299.12,138.88c0-19.13-12.37-35.36-29.55-41.15-6.53-13.82-15.5-26.77-26.92-38.19-14.52-14.52-31.5-25.07-49.59-31.69-2.73-4.72-6.1-9.17-10.14-13.21-24.93-24.93-65.35-24.93-90.28,0-6.78,6.78-11.71,14.72-14.8,23.17-10.1,5.84-19.62,13.07-28.27,21.72C-3.75,112.86-3.75,199.3,49.57,252.62c53.32,53.32,139.76,53.32,193.08,0,22.14-22.14,35.07-49.98,38.83-78.8,10.7-7.91,17.64-20.61,17.64-34.94Z"/>
    </clipPath>
    <linearGradient id="linear-gradient" x1="149.97" y1="225.43" x2="133.06" y2="-47.1" gradientUnits="userSpaceOnUse">
      <stop offset=".21" stop-color="#bbe5f5"/>
      <stop offset=".55" stop-color="#77c5da"/>
    </linearGradient>
  </defs>
  <g class="cls-16">
    <circle class="cls-6" cx="145.67" cy="156.14" r="136.53"/>
    <path class="cls-2" d="M156.63,192.3l.12-.09v.06l-.12.02Z"/>
    <path class="cls-13" d="M195.66,203.94l1.08-4.74c-1.77,2.88-6.59,6.48-6.68,6.39s-1.66-.72-1.68-.73c-6.14,10.55-13.37,25.9-4.16,34.39,8.04,4.61,18.3,5.55,29.84-9.23.9-1.14,9.9-13.45,11.87-17.16-6.57-6.27-23.04-3.56-30.28-8.92Z"/>
    <path class="cls-5" d="M89.92,48.51s-6.66,27.37,4.14,41.5c10.8,14.13,50.44,22.97,61.99,15.28,11.55-7.69,16.3-38.53,9.62-44.81-6.68-6.28-75.75-11.97-75.75-11.97Z"/>
    <path class="cls-5" d="M90.32,70.01s-10.11,5.13-11.78,15.68,4.94,19.58,18.22,23.85c13.28,4.27,32.53,3.08,33.88-4.46,1.35-7.53,4.02-19.49-2.36-23.98s-37.96-11.1-37.96-11.1Z"/>
    <path class="cls-13" d="M112.28,81.19s2.96,17.69-3.62,30.01c-.92,1.72-11.66,5.3-11.66,5.3l8.94,7.56c7.24,6.15,19.71,15.86,29.22,16.01,5.4.09,12.95-3.98,17.43-4.97l2.35-11.26-10.11-6.58c-.19-2.29,2.16-18.09,2.16-18.09"/>
    <path class="cls-13" d="M181.78,158.54c-6.36,1.21-12.74,2.33-19.06,3.7-4.32.94-8.63,1.99-12.95,3.24-1.88.62-3.71,1.37-5.48,2.25.13.38.25.77.39,1.14,5.03,14.67,11.47,29.51,17.8,43.68,2.82,5.86,6.33,11.35,10.46,16.36,3.64,4.74,8.22,8.69,13.45,11.59,5.49,2.78,12.67,2.16,18.5.99,1.76-.37-.63-27.7-2.16-30.66-9.31-18.39-15.95-40.71-20.94-52.29Z"/>
    <path class="cls-9" d="M180.17,194.16c1.17,6.67,1.88,14.98-1.73,21.07-1.66,3.03-3.88,5.71-6.55,7.9-2.53,1.98-5.85,3.85-7.06,7.02-1.08,2.93,3.42,51.81,6.85,65.48-19.44,3.91-39.29,5.36-59.09,4.32-37.27-2.37-60.44-17.18-60.44-17.18,6.48-31.11,15.6-44.88,15.6-44.88l-1.08-41.72-9.64-43.4c1.99-17.46,17.7-28.32,33.31-34.13l15-5.84s11.87,22.77,32.53,20.51c20.66-2.27,7.56-15.91,7.56-15.91,0,0,20.24,6.76,25.01,10.79s14.45,14.8,17.27,28.37c1.97,9.11,5.07,17.94,9.23,26.28,1.08,2.27-17.27,7.95-17.27,7.95"/>
    <path class="cls-13" d="M75.9,145.73c5.4.18,9.56,10.79,9.56,10.79,13.79,19.51,20.99,81.71,20.99,81.71l70.37,10.29,4.67,12.56c-23.75,5.88-43.1,8.34-73.85,8.56-15.37.11-23.91-3.43-30.22-18.79-2.58-6.26-14.23-55.82-15.77-58.5,0,0,.24-10.11-3.78-24.67-4.02-14.56,7.29-22.29,18.01-21.94Z"/>
    <path class="cls-14" d="M106.74,237.94c-2.7,0-4.85,2.29-5.71,4.67-.39,1.12-.62,2.29-.67,3.48,0,.27,1.39.09,1.41-.38.04-2.1.77-4.12,2.07-5.76.41-.44.89-.81,1.42-1.08,0,0,.25-.11.09,0l.19-.09s.27-.09,0,0h.18c.21-.06-.1,0,0,0h.16c.13,0-.16,0,0,0h.15c.35.01.69-.12.95-.36.18-.26-.16-.29-.36-.29l.1-.19Z"/>
    <path class="cls-9" d="M81.25,122.65s-23.43,12-26.62,27.8,4.92,46.65,4.92,46.65c0,0,31.3-3.55,45.89-11.52,14.59-7.97-24.2-62.94-24.2-62.94Z"/>
    <path class="cls-12" d="M71.85,137.43c4.68-1.26,9.83,1.31,13.42,4.17,3.39,2.87,6.31,6.27,8.63,10.06,4.08,6.31,5.86,13.47,7.35,20.76,1,4.9,2.02,9.79,3.34,14.63l.57-.58-5.08,1.44c-.82.23-.63,1.01.22.79l5.08-1.42c.23-.06.66-.28.57-.58-2.28-8.4-3.29-17.15-5.99-25.43-1.17-3.63-2.82-7.09-4.89-10.3-2.45-3.96-5.55-7.47-9.17-10.39-3.95-2.98-9.29-5.26-14.28-3.91-.83.23-.63,1.01.21.79h.03Z"/>
    <path class="cls-5" d="M181.54,48.57s2.68-31.78-22.82-33.75c-10.54-6.24-23.05-8.27-35.01-5.66-19.97,4.44-32.69,17.27-35.42,52.53-2.73,35.26,93.26-13.12,93.26-13.12Z"/>
    <path class="cls-5" d="M101.11,57.95c3.63,8.63,11.87,14.98,20.81,18.63,8.94,3.65,18.71,5.03,28.31,6.39l11.75.66c5.73-5.7,11.87-9.19,15.33-16.37,2.47-6.2,3.93-12.76,4.32-19.43.38-6.48-3.32-14.15-6.25-19.97-2.64-4.87-6.88-8.69-12-10.79-5.16-2.33-8.01-4.32-15.53-5.52-12.8-2.1-25.88,1.53-35.78,9.92-10.18,8.26-16,24.46-10.96,36.48Z"/>
    <path class="cls-14" d="M145.36,113.9c-1.85-.9-3.76-1.67-5.72-2.3-2.75-.86-7.5-.92-19.94-11.98,0,0,3.31,13.06,19.55,16.56,1.85.56,3.8.71,5.72.44l.39-2.72Z"/>
    <path class="cls-13" d="M175.46,49.74c.83,3.25.95,6.65.36,9.95-.86,5.47-2.36,11.56-2.83,13.91-.41,2.47-.64,4.97-.68,7.47-.09,4.86-.24,6.12-2,10.79-1.37,3.88-3.47,7.45-6.2,10.52-3.24,3.83-7.43,6.96-11.46,10.06-2.67,2.04-3.24,2.27-9.71,1.54-9.63-1.08-18.24-7.09-23.53-14.32l-6.22-11.13-.58-4.67c-5.6,4.48-7.86-3.64-7.47-5.06-1.36-3.32-5.95-14.73-1.37-18.35l.35-.45c1.9-1.26,4.19-1.33,5.27,1.23.32,1.08.76,2.16,1.08,3.24.63,1.68,1.43,3.29,2.36,4.82.77-2.9,1.37-5.84,1.78-8.82.22-2.84,3.13-10.79,8.45-14.14,0,0,1.14-9.96,3.7-12.65l.81-.19c.46.06.76.25,1.22.31,0-.15-.12-.32-.08-.62.63.27,1.3.41,1.99.41-.13-.17-.42-.36-.4-.51.61.16,1.23.24,1.86.24-.14-.16-.41-.5-.39-.65.73.4,1.24.16,1.86.24-.14-.18-.22-.41-.23-.64.57.28,1.2.41,1.83.39-.14-.16-.25-.49-.39-.65.73.4,1.24.16,1.86.24.16,0-.27-.33-.25-.49.49.19,1.01.31,1.53.35,0-.14-.28-.33-.26-.49.64.24,1.33.33,2.02.27l-.39-.66c.49.45,1.16.65,1.81.54-.13-.17-.4-.51-.38-.66.68.55,1.56.77,2.42.59-.16,0-.41-.5-.39-.65.58.51,1.33.77,2.1.72-.13-.16-.25-.49-.52-.82.75.75,1.84,1.06,2.88.82-.14,0-.23-.39-.23-.57s-.08-.3.26-.32c0,0,1.71.82,1.73.68.56.52-1.31-2.73-.53-2.63-.12-.31,4.4.85,4.13.52.7.69.58.37,1.53.33,0,0,2.98,2.16,2.85,2.03.16.26.45.43.76.44,0,0,11.53,10.65,17.67,17.46Z"/>
    <path class="cls-8" d="M109.28,82.38c-1.74-.1-3.3,1.06-3.7,2.75-.15.81.03,1.65.5,2.33.31.44.75.78,1.25.97,1.04.45,2.23.4,3.24-.13.11,0,.18-.16.06-.24s-.36,0-.46.08c-1.17.53-2.54.22-3.37-.76-.87-1.14-.81-2.73.13-3.81.53-.58,1.29-.89,2.07-.85.12,0,.37,0,.43-.18s0-.16-.17-.16h.02Z"/>
    <path class="cls-15" d="M124.91,44.91l-2.83,5.02c-3.28,5.83-5.7,12.11-7.19,18.63l-.42,1.86c-.04.31-.32.52-.63.48-.2-.03-.37-.16-.45-.35l-2.86-6.13s1.85-20.52,14.38-19.5Z"/>
    <path class="cls-3" d="M108.43,68.42c-1.2.52-2.05,1.62-2.27,2.91-.39,1.17-.43,2.43-.12,3.63.26,1.01,1.08,3.15,2.47,2.9,1.18-.19,1.3-1.6,1.08-2.53-.12-.64-.37-1.26-.45-1.91-.1-.84.36-.94,1.08-.85.17,0,.52-.1.45-.32-.6-2.23-1.42-4.4-2.45-6.48-.53-1-1.24-2.16-2.5-2.16-1.6-.11-2.33,1.64-2.57,2.94-.32,1.88-.05,3.82.77,5.55.14.28.8.09.67-.18-.56-1.19-.87-2.49-.9-3.81,0-1.08.32-4.54,2.16-3.94,1.08.35,1.59,1.61,2.02,2.51.53,1.17,1,2.36,1.4,3.57.26.73.5,1.48.71,2.22l.45-.32c-.8-.1-1.93,0-2.04.97s.45,1.93.54,2.88c0,.42,0,1.22-.47,1.4s-1.08-.74-1.27-1.08c-.67-1.17-.92-2.54-.71-3.87.22-1.19.66-3.1,1.98-3.51.4-.12.29-.57-.12-.45l.1-.08Z"/>
    <path class="cls-5" d="M110.26,35.97c1.72-11.43,20.28-13.16,29.92-13.16,6.22.17,15.48,6.36,20.83,9.58,1.68-1.55-14.82,15.28-48.46,19.07l-.14,8.32s-3.85-12.39-2.15-23.82Z"/>
    <path class="cls-15" d="M149.56,60.47c0-.09-.36-.19-.32-.28-3.82-1.98-7.89-3.43-12.1-4.32-1.34-.15-2.69-.11-4.02.12,0,0-3.64.56-4.19,1.08s2.06.25,2.06.25c.49-.03.98-.03,1.47,0,2.97.42,5.89.49,8.7,1.58,2.66,1.21,5.21,2.66,7.62,4.32.21-.93.47-1.84.78-2.74Z"/>
    <path class="cls-15" d="M177.16,65.27c-.02-.1-.05-.2-.08-.29h0c-.74-.45-1.51-.84-2.31-1.15-4-1.17-8.14-1.82-12.32-1.93-.23,1.08-.3,1.37-.54,2.43,2.31-.16,4.64-.06,6.93.29,2.77.34,5.5.93,8.16,1.76.12-.22,0,0,.08-.23.04-.15.08-.31.1-.46,0-.14,0-.27-.02-.41Z"/>
    <path class="cls-11" d="M149.58,94.04c-1.99-.31-10.4-1.71-10.4-1.71,0,0,2.1,7.56,9.29,8.73,4.34.83,8.64-1.61,10.16-5.75l-9.05-1.27Z"/>
    <path class="cls-7" d="M149.68,94.33c-1.99-.32-7.98-1.63-7.98-1.63,0,0,1.82,2.57,7.78,3.52s8.19-.9,8.19-.9l-8-.99Z"/>
    <path class="cls-15" d="M159.4,82.67c.13.69.27,1.39.39,2.08.08.49.16.96.23,1.45.06.33.09.67.08,1-.17,1.01-1.63,1.26-2.44,1.32-1.08.09-2.17.05-3.24-.1-1.35-.07-2.68-.44-3.87-1.08-.17-.12-.56.13-.35.27,1.08.6,2.28.97,3.51,1.08,1.22.2,2.46.26,3.7.19,1.03.04,2.02-.36,2.75-1.08.54-.67.29-1.51.17-2.3-.15-.99-.35-1.99-.54-2.98,0-.23-.49-.11-.44.12l.05.02Z"/>
    <path class="cls-15" d="M147.34,83.53c-.51,0-1,.15-1.42.43-.41.3-.68.75-.76,1.25-.07.29-.07.59,0,.87.08.23.21.44.39.6.45.35.97.59,1.53.69.7.21,1.43.3,2.16.28.09,0,.29,0,.33-.12s0-.08-.11-.08c-.69.02-1.37-.08-2.03-.29-.61-.1-1.16-.4-1.58-.86-.29-.53-.29-1.17,0-1.69.19-.52.67-.87,1.22-.9.12,0,.24-.03.35-.1.08,0,.08-.1,0-.1h-.09Z"/>
    <path class="cls-12" d="M178.74,171.79c-1.72,2.53-2.36,5.63-1.78,8.63.5,3.5,1.39,6.95,2.02,10.43.12.67,1.49.31,1.37-.37-.58-3.24-1.3-6.36-1.88-9.54-.54-2.97-.44-6.2,1.42-8.71.53-.7-.76-.97-1.15-.44h0Z"/>
    <path class="cls-13" d="M222.87,220.75c10.79-16.14,28.28-51.88,28.28-51.88-5.3-3.79-10.16-1.24-11.96-5.8l-40.78,41.35c2.81,12.44,18.19,10.29,24.46,16.33Z"/>
    <path class="cls-13" d="M231.54,170.81l6.74-8.15s2.27-7.94,3.93-9.89c1.66-1.95,10.05-7.68,10.53-7.82s6.62-11.28,8.94-10.71,3.81,2.37,2.88,5.46c-.93,3.09-6.67,8.92-5.31,10.08,1.1.82,2.35,1.41,3.68,1.75,0,0,.95-3.56,3.03-4.54,1.32-.57,2.82-.62,4.18-.14l-.08,2.84,2.75-1.63s2.04-7.08,5.15-6.81c.86-1.52,2.02-2.84,3.4-3.89,1.26-.79,2.93-.41,3.72.85.14.22.25.46.32.71h0l-6.98,15.98-16.84,15.67s-9.67,1.54-11.57,2.27-4.72,8.96-5.36,8.23c-3.8-4.09-8.22-7.55-13.11-10.25Z"/>
    <path class="cls-14" d="M238.28,163.63c.15.4.34.78.57,1.13.24.34.53.62.87.85.98.62,2.03,1.12,3.13,1.49.22.07.46.04.66-.09.11-.07.3-.27.08-.35-1.06-.35-2.08-.83-3.03-1.42-.31-.21-.59-.47-.82-.77-.22-.36-.41-.74-.54-1.13-.12-.32-1.03,0-.92.25v.05Z"/>
    <path class="cls-4" d="M150.45,94.04c-4.49-.73-12.67-1.68-12.67-1.68,0,0,.53,10.43,10.93,12.11,10.4,1.68,11.73-8.96,11.73-8.96,0,0-5.5-.74-9.99-1.47Z"/>
    <path class="cls-11" d="M150.49,94.04l-11.18-1.87c1.62,4.29,5.41,7.38,9.94,8.11,8.38,1.36,9.97-4.87,9.97-4.87l-8.73-1.37Z"/>
    <path class="cls-7" d="M150.52,94.38c-2.16-.35-8.56-1.77-8.56-1.77,0,0,1.94,2.81,8.34,3.84s8.82-.99,8.82-.99l-8.6-1.08Z"/>
    <path class="cls-4" d="M160.79,95.13c-.59-.07-1.18-.18-1.75-.35-1.77-.6-1.5-1.23-2.76-1.55-2.16-.53-3.69.14-4.64,0s-2.16-1.27-4.4-1.46c-1.3-.1-4.17.41-5.96.28-1.08-.09-3.57-.16-3.81-.14s.84,1.45,12.78,3.38c11.94,1.93,10.85-.05,10.54-.17Z"/>
    <rect class="cls-3" x="180.33" y="227.36" width="56.08" height="29.91" rx="5.47" ry="5.47" transform="translate(-95.58 341.04) rotate(-67.3)"/>
    <path class="cls-13" d="M171.64,248.83l2.68,8.99-1.08,4.8s14.13,3.32,17.58,2.43,11.82-2,11.82-2c-.3,1.05-.21,2.18.25,3.17.6,1.11,1.64,1.93,2.86,2.25l2.87-5.99c1.37,2.39,3.39.15,3.39.15l1.98-5.19c1.55,3.02,4.25.18,4.25.18l.57-6.95c1,.98,2.19,1.75,3.5,2.27,1.67.51,1.82-2.23,1.82-2.23l-7.39-9.58-16.62-2.41-24.77,9.87-3.7.25Z"/>
    <path class="cls-14" d="M206.43,241.98c2.9.39,5.72,1.19,8.4,2.36,1.08.51,2.68,1.08,3.09,2.39.18.66.32,1.34.41,2.02.15.8.15,1.63,0,2.43-.05.31.85.16.9-.12.13-.77.13-1.56,0-2.33-.08-.73-.22-1.45-.41-2.16-.39-1.32-1.74-1.9-2.89-2.45-1.39-.65-2.83-1.17-4.32-1.57-1.51-.46-3.05-.82-4.61-1.08-.23-.03-.46.03-.64.17-.1.13-.14.26.08.29v.04Z"/>
    <path class="cls-14" d="M204.34,248.68c2.42.33,4.82.82,7.18,1.48.63.2,1.17.63,1.51,1.2.33.55.59,1.13.79,1.74.23.63.34,1.3.32,1.98-.06.72-.23,1.42-.5,2.09-.16.49.73.47.86.1.27-.69.45-1.42.54-2.16.03-.67-.06-1.34-.26-1.98-.2-.67-.47-1.31-.81-1.92-.29-.6-.78-1.09-1.38-1.38-1.32-.54-2.7-.91-4.11-1.08-1.28-.24-2.57-.41-3.84-.68-.43-.09-.9.53-.3.65v-.03Z"/>
    <path class="cls-14" d="M202.57,256.35c1-.05,2.04-.16,3.05-.13,1.08-.03,2.13.31,2.98.97.79.74,1.12,1.84.86,2.89-.15.61-.4,1.18-.76,1.69-.11.18-.24.36-.38.53l-.14.15c-.1.12-.09,0,.23-.08-.09,0-.44.13-.41.26s.42,0,.49,0c.7-.16,1.15-1.08,1.45-1.64.62-1.06.66-2.37.09-3.45-1.08-1.77-3.4-1.76-5.23-1.67l-1.83.09c-.16,0-.52.06-.6.22s.08.15.22.15v.02Z"/>
    <path class="cls-14" d="M256.44,165.76c1.04-2.11,2.32-4.09,3.81-5.9.7-.62,1.28-1.36,1.71-2.18.31-.9.55-1.81.73-2.75.38-1.98.98-3.92,1.77-5.78.39-.97,1.11-1.78,2.03-2.27,1.06-.38,2.22-.42,3.3-.11l-.18-.2c-.31,5.63-1.45,11.18-3.4,16.48-.11.32.81.2.92-.11,1.95-5.29,3.1-10.84,3.4-16.47,0-.12-.07-.18-.18-.2-1.76-.51-3.66-.22-5.19.79-1.62,1.25-2.27,3.51-2.75,5.38-.31,1.13-.57,2.27-.84,3.4-.12.51-.24,1.02-.39,1.52-.25.71-.67,1.35-1.24,1.85-1.75,1.96-3.22,4.15-4.38,6.51-.22.39.71.31.86,0v.03Z"/>
    <path class="cls-14" d="M271.05,156.65c.91-3.57,1.84-7.19,3.03-10.68.37-1.09.87-2.12,1.5-3.09.33-.65.95-1.11,1.67-1.24.74,0,1.48.06,2.2.19l-.17-.14c-1.13,4.09-1.95,8.23-3.06,12.31-.06.24.84.11.92-.15,1.13-4.09,1.95-8.23,3.06-12.31,0-.1-.09-.14-.17-.14-1.4-.16-2.81-.44-4.11.32-1.05.8-1.84,1.89-2.27,3.14-.7,1.73-1.28,3.51-1.74,5.32-.64,2.19-1.24,4.38-1.8,6.58-.06.25.85.11.92-.14h.02Z"/>
    <path class="cls-14" d="M255.73,148.64c1.17.28,2.27.81,3.21,1.55.15.12.44,0,.59,0s.41-.19.26-.31c-.97-.78-2.1-1.33-3.31-1.62-.22-.04-.45,0-.65.1-.09,0-.32.24-.1.3v-.02Z"/>
    <path class="cls-1" d="M284.48,139.88c-.07-.24-.17-.47-.3-.68-.57-.9-1.63-1.36-2.68-1.14-7.43-56.81-49.52-102.95-105.41-115.57-3.4-4.63-8.63-8.22-16.68-8.85-10.54-6.24-23.05-8.27-35.01-5.66-12.09,2.69-21.52,8.45-27.69,20.41C26.4,55.66-8.49,134.76,18.77,205.07c27.27,70.31,106.37,105.21,176.68,77.94,52.53-20.37,87.16-70.92,87.18-127.26,0-3.6-.14-7.15-.42-10.65l2.27-5.22Z"/>
    <path class="cls-14" d="M198.94,203.7c-1.29,1.88-2.13,4.04-2.44,6.3-.44,2.61-.4,5.29.1,7.89.09.38.97.15.87-.24-.48-2.55-.51-5.17-.09-7.73.31-2.2,1.13-4.31,2.39-6.14.26-.39-.64-.39-.83-.09h0Z"/>
    <path class="cls-10" d="M129.42,64.35s4.99,4.43,7.78,5.04c2.79.61,8.91.59,8.91.59,0,0-5.38-4.52-6.85-4.91s-6.88-.75-9.84-.72Z"/>
    <path class="cls-10" d="M160.41,72.71s6.09,2.62,9.29,1.51c1.92-.66,3.63-2.1,3.63-2.1,0,0-2.99-1.42-4.67-1.64-1.76-.23-6.28.9-8.25,2.22Z"/>
    <path class="cls-15" d="M159.9,72.67s3.57-3.02,5.99-3.17c3.2-.37,6.4.67,8.76,2.85-2.75-1.06-5.69-1.56-8.63-1.47-2.11.34-4.16.94-6.12,1.79Z"/>
    <path class="cls-15" d="M139.38,65.35c-.88-.52-1.96-.56-2.87-.11-.97.69-1.19,2.04-.5,3.01.02.03.04.06.06.09.58.7,1.53.96,2.39.66,1.03-.42,1.62-1.51,1.41-2.6,0-.17.17-.49-.5-.92"/>
    <path class="cls-15" d="M168.89,70.58c-.87-.53-1.95-.57-2.86-.11-.34.24-.61.57-.77.96-.27.73-.14,1.54.32,2.16.58.7,1.53.97,2.39.67,1.03-.42,1.62-1.51,1.41-2.6,0-.17.18-.49-.49-.93"/>
    <path class="cls-15" d="M146.1,70.02s-3.31-5.13-7.45-5.71c-3.31-.36-6.64-.38-9.95-.06,0,0,7.56,1.08,9.71,1.45s7.69,4.33,7.69,4.33Z"/>
  </g>
</svg>