<?xml version="1.0" encoding="UTF-8"?>
<svg id="Layer_2" data-name="Layer 2" xmlns="http://www.w3.org/2000/svg" xmlns:xlink="http://www.w3.org/1999/xlink" viewBox="0 0 292.89 301.99">
  <defs>
    <style>
      .cls-1 {
        fill: none;
      }

      .cls-2 {
        fill: #192a19;
      }

      .cls-3 {
        fill: #4896a3;
      }

      .cls-4 {
        fill: #2e7e3e;
      }

      .cls-5 {
        fill: #273339;
      }

      .cls-6 {
        fill: #010101;
      }

      .cls-7 {
        fill: #6d266d;
      }

      .cls-8 {
        fill: #c69e81;
      }

      .cls-9 {
        fill: #231f20;
      }

      .cls-10 {
        fill: #98554a;
      }

      .cls-11 {
        fill: #1e1811;
      }

      .cls-12 {
        fill: #527569;
      }

      .cls-13 {
        fill: #cf7ab2;
      }

      .cls-14 {
        fill: #27153c;
      }

      .cls-15 {
        fill: url(#linear-gradient);
      }

      .cls-16 {
        fill: #f1eef7;
      }

      .cls-17 {
        fill: #171413;
      }

      .cls-18 {
        fill: #784f81;
      }

      .cls-19 {
        fill: #906244;
      }

      .cls-20 {
        fill: #0a2f44;
      }

      .cls-21 {
        fill: #db5533;
      }

      .cls-22 {
        fill: #28343a;
      }

      .cls-23 {
        clip-path: url(#clippath-1);
      }

      .cls-24 {
        clip-path: url(#clippath-2);
      }

      .cls-25 {
        fill: #fff;
      }

      .cls-26 {
        fill: #725547;
      }

      .cls-27 {
        fill: #878787;
      }

      .cls-28 {
        fill: #4555a5;
      }

      .cls-29 {
        fill: #e0e1e0;
      }

      .cls-30 {
        fill: #eaebf3;
      }

      .cls-31 {
        fill: #4f2f26;
      }

      .cls-32 {
        fill: #9b9a9a;
      }

      .cls-33 {
        fill: #a382ad;
      }

      .cls-34 {
        fill: #e89830;
      }

      .cls-35 {
        fill: #311811;
      }

      .cls-36 {
        fill: #6c2558;
      }

      .cls-37 {
        fill: #161412;
      }

      .cls-38 {
        fill: #18363b;
      }

      .cls-39 {
        fill: #206835;
      }

      .cls-40 {
        clip-path: url(#clippath);
      }
    </style>
    <clipPath id="clippath">
      <path class="cls-1" d="M248.46,66.32c2.26-16.31-2.88-33.44-15.42-45.98-21.2-21.2-55.55-21.25-76.81-.14-38.33-2.92-77.65,10.28-106.96,39.59-53.32,53.32-53.32,139.77,0,193.09,53.32,53.32,139.77,53.32,193.09,0,51.2-51.2,53.22-132.93,6.11-186.56Z"/>
    </clipPath>
    <linearGradient id="linear-gradient" x1="144.72" y1="272.55" x2="146.35" y2="-.51" gradientUnits="userSpaceOnUse">
      <stop offset=".06" stop-color="#d3c293"/>
      <stop offset=".66" stop-color="#f2ebd1"/>
      <stop offset=".91" stop-color="#f2ebd1"/>
    </linearGradient>
    <clipPath id="clippath-1">
      <path class="cls-1" d="M95.13,153.93l4.56,14.23c.68,1.82,1.09,3.74,1.2,5.68,0,2.72-1.08,5.3-1.71,7.94-.34,1.27-.41,2.6-.19,3.9.24,1.31,1.08,2.44,2.28,3.03,1.94.85,4.19-.35,5.73-1.81,4.05-3.83,5.4-7.78,6.74-12.41.37-1.26,1.33-1.9,1.57-2.73.63-1.62.44-3.45-.51-4.91-.97-1.68-3.24-1.31-4.04-2.63-.26-.49-.43-1.02-.51-1.58l-2.16-10.79c-.02-.26-.14-.51-.32-.69-.18-.1-.39-.15-.6-.14-4.09-.1-8.15.73-11.87,2.42l-.15.51Z"/>
    </clipPath>
    <clipPath id="clippath-2">
      <path class="cls-1" d="M81.63,183.86l3.72,15.67c.59,2.02.87,4.11.83,6.21-.21,2.91-1.62,5.59-2.49,8.39-.48,1.34-.66,2.76-.53,4.18.14,1.42.94,2.7,2.16,3.44,2.02,1.08,4.53,0,6.3-1.48,4.66-3.78,4.32-5.34,6.48-10.93.7-1.78,5.4-4.32,3.59-8.39-.67-1.52-3.4-3.24-4.14-4.76-.24-.55-.38-1.14-.41-1.74l-1.42-11.81c0-.28-.11-.55-.29-.77-.19-.12-.41-.19-.64-.21-4.41-.44-8.85.11-13.02,1.62l-.14.57Z"/>
    </clipPath>
  </defs>
  <g class="cls-40">
    <circle class="cls-15" cx="145.41" cy="157.23" r="136.53"/>
    <polyline class="cls-26" points="-40.1 314.73 345.11 314.73 345.11 228.85 -40.1 228.85"/>
    <ellipse class="cls-32" cx="217.15" cy="116.98" rx="7.8" ry="5.63" transform="translate(-8.08 16.44) rotate(-4.26)"/>
    <path class="cls-6" d="M224.53,116.51c.15,2.75-2.26,4.71-4.67,5.46-2.84.93-5.95.41-8.34-1.38-1.87-1.45-2.27-4.11-.9-6.04,1.72-2.44,5.08-3.3,7.92-2.96s5.71,1.95,6,4.97c.02.2.84,0,.81-.28-.29-3.03-3.37-4.67-6.09-5.05-3.2-.51-6.45.5-8.8,2.72-1.87,1.77-1.95,4.71-.18,6.58.07.07.14.14.21.21,2.33,2.19,5.99,2.53,8.94,1.76s6.11-2.89,5.92-6.22c0-.21-.82-.01-.82.23Z"/>
    <ellipse class="cls-32" cx="222.37" cy="161.97" rx="7.8" ry="5.63"/>
    <path class="cls-6" d="M229.77,162.02c-.05,2.69-2.43,4.46-4.84,5.07-2.89.78-5.99.11-8.3-1.79-1.84-1.53-2.13-4.25-.65-6.13,1.85-2.33,5.27-2.97,8.05-2.45s5.67,2.32,5.73,5.4c0,.25.84.09.83-.22-.06-3-2.94-4.87-5.58-5.48-3.12-.77-6.43-.06-8.96,1.92-2.06,1.56-2.46,4.5-.9,6.56.05.07.11.14.16.2,2.05,2.42,5.69,3.1,8.64,2.62s6.48-2.39,6.6-5.77c.05-.37-.78-.19-.79.06Z"/>
    <path class="cls-8" d="M133.35,143.68l-5.76-1.94s-8.18,1.99-12.03,1.37c-2.77-.56-5.45-1.5-7.97-2.79l-8.75-1.28s-4.08,1.61-4.68.35c-.6-1.26.78-2.22,2.1-3.21s23.25-7.57,23.25-7.57c-2.06-1.16-4.22-2.14-6.45-2.93-3.43-1.19-4.45-3.65-2.73-4.64,1.04-.61,6.33-.05,7.6,1.6,1.27,1.65,6.08.82,9.38,2.55,3.3,1.72,5.09,6.41,5.09,6.41,1.35.85,2.78,1.57,4.25,2.17.48,3.55-3.29,9.91-3.29,9.91Z"/>
    <path class="cls-31" d="M103.51,137.92c.12-.52.42-.99.84-1.31,1.45-.91,3.17-1.29,4.87-1.05,1.64.18,3.25.61,4.76,1.28.65.23,1.26.55,1.82.95-.66-.11-1.31-.3-1.94-.56-1.51-.56-3.08-.93-4.68-1.11-1.58-.21-3.18.08-4.59.83-.39.26-.7.63-.87,1.06-.12.31-.14.5-.16.52s-.1-.23-.06-.6Z"/>
    <path class="cls-31" d="M113.53,134.29c1.06-.36,2.17-.55,3.29-.58-.99.53-2.06.9-3.17,1.09-1.06.36-2.17.56-3.29.58.99-.52,2.06-.89,3.17-1.09Z"/>
    <path class="cls-31" d="M118.79,133.84c-.42.95-.74,1.93-.95,2.95-.41-2.24.76-4.48,2.84-5.41-.69.77-1.32,1.59-1.9,2.46Z"/>
    <path class="cls-8" d="M270.32,235.53c1.2-2.28,3.03-4.17,5.26-5.46,1.81-1.08,4.02-.08,4.61.17,4.39,1.86,6.67,5.49,10.12,8.64,2.65,2.4,5.59,4.47,8.74,6.15,3.24,1.72,6.69,2.58,9.94,4.13h.08c1.61.77,2.9,2.07,3.65,3.69.28.58.56,1.17.86,1.72.43.76.9,1.33.45,2.22-.83,1.65-3.59-.24-4.4-.58-.15-.06-.31-.09-.47-.08-1.95.1-3.91-.1-5.81-.57-.31-.06-.62-.12-.92-.15h0c-1.72-.27-9.47-.63-10.85-.76-2.74-.27-11.13-2.05-11.13-2.05,0,0-11.18-1.55-14.83.69l-4.32-13.35s8.14-2.28,9.01-4.41Z"/>
    <path class="cls-14" d="M273.33,187.03c.62,9.71,5.18,30.22-24.5,34.39l13.33-4.21,2.16,23.43s-88.98,14.26-91.58,14.52c-5.03.4-12.34-11.79-15.56-26.69s8.99-19.87,12.5-22.97,41.65-38.78,57.37-42.64l41.44,19.22,4.85,4.94Z"/>
    <path class="cls-14" d="M279.94,203.73c-.86,9.64,13.57,26.83-16.4,26.43l3.24,4.7c4.55,6.54,6.16,14.68,4.44,22.46l-.82,3.68s-75.33,8.01-88.15,4.85c-5.02-.37-16.54-7.56-17.45-22.78s11.93-18.26,15.87-20.79c3.94-2.53,46.62-13.24,62.74-14.65l17.21-13.45,19.33,9.54Z"/>
    <path class="cls-33" d="M289.25,188.01c-.01-.17-.08-.34-.11-.5-1.19-4.93-3.79-9.63-6.25-14.03-2.19-4.29-4.85-8.32-7.93-12.02-3.01-3.09-6.46-5.72-10.25-7.8-.82-.38-1.49-1-1.94-1.78-.33-.83.15-2.02,1.05-2-.16-5.47-.62-10.93-1.39-16.35-.67-4.8-2.88-8.55-5.06-12.89-.19-.4-.39-.79-.6-1.19l-.18-.33c-.23-.46-.47-.93-.71-1.39-.59-1.14-1.2-2.25-1.8-3.36-1.26-2.43-2.59-4.85-3.98-7.22-1.33-2.3-2.79-4.52-4.37-6.66-.79-1.02-1.62-2.04-2.49-3.06l-.5-.57-.88-1.02c-3.71-4.05-7.35-8.32-7.97-14.04-2.2-.43-4.41-.75-6.64-.96.31,11.18-15.41,18.61-19.02,18.62,0,0-10.31.95-8.46-8.18,0,0-7.08,5.94-10.4,11.41s-7.61,36.88-7.61,36.88c0,0,6.33,14.34,18.38,12.7-.63.35-.04.38.96,9.28l-2.22,1,2.58,14.17-13.13,12.66c.95.2,15.04,6.09,15.95,6.39,3.17.9,6.35,1.97,9.43,3.17,5.85,2.29,10.69,6.45,15.89,9.84,5.32,3.49,10.15,7.68,14.36,12.45,4.12,4.61,7.82,9.55,11.63,14.42.35.45.74.86,1.17,1.22,3.09-.44,6.11-1.21,9.03-2.32,12.31-4.64,19.13-13.85,22.73-26.78,1.85-6.43,2.09-13.22.72-19.77Z"/>
    <path class="cls-33" d="M190.16,133.94l-12.65,16.51-43.88-18.65c.06,3.72-2.68,9.38-5.2,13.59,0,0,36.32,24.68,41.29,26.83,22.25,9.61,25.55.48,29.49-6.65,2.27-4.1,9.45-18.48,7.19-22.33-.51-.88-16.42-9.22-16.23-9.29Z"/>
    <path class="cls-33" d="M210.3,93.11c-1.19-4.39-3.81-8.26-7.45-10.99l-3.76,2.8-5.65,3.54-12.02,6.62c-1.5,1.52-3.34,5.02-4.68,8.14-2.77,7.3-.73,15.6-.43,23.27.1,2.53-.13,28.76,1.14,28.86,8.71.65,14.07-6.91,20.99-1.43.32-3.77,1-7.51,2.04-11.15,3.02-11.38,7.76-22.32,9.82-33.95.9-5.17,1.35-10.58,0-15.71Z"/>
    <path class="cls-29" d="M218.03,85.37c-1.02,1.88-2.17,3.67-3.45,5.38-1.92,2.57-15.6,18.78-15.6,18.78l6.05,6.84,11.94-4.48,1.06-26.52Z"/>
    <path class="cls-22" d="M204.99,116.42h0l-6.07-6.85h0c.13-.16,13.7-16.25,15.58-18.79,1.29-1.69,2.46-3.46,3.5-5.32l.07-.11v.14s-1.14,26.44-1.14,26.44h0l-11.94,4.49ZM198.99,109.52l6.02,6.8,11.9-4.46,1.09-26.36c-1.01,1.83-2.16,3.58-3.42,5.24-1.89,2.5-15.04,18.17-15.53,18.77h-.05Z"/>
    <path class="cls-33" d="M189.74,118.61c.82,4.94-.29,15.75,2.37,20.17,1.69,2.82,7.89,3.49,10.05,5.97,4.25,4.93,8.75,9.66,13.34,14.28l.98,1.01,9.08,5.65c37.36,15.21,62.97,19.8,62.97,19.8-6.26-14.86-20.4-35.03-20.4-35.03l-1.59-19.92c-.91-7.11-1.59-14.23-2.5-21.33-.78-6.15-1.12-12.24-3.49-18.02-3.52-8.6-13.7-12.71-22.01-14.36-.98-.25-18.68-.46-19.03,7.59"/>
    <path class="cls-14" d="M200.13,169.71c1.35,2.27,2.71,4.55,4.07,6.82,0,.08.19.09.27.08,10.15-2.36,20.38-4.4,30.59-6.52,5.47-1.13,10.92-2.28,16.36-3.51,4.17-.94,7.98-1.97,11.37-4.71s5.86-6.63,5.61-11.08c-.02-.33-.64-.21-.64.05.31,5.48-3.58,10.01-8.13,12.51-2.67,1.32-5.52,2.24-8.46,2.73-3.31.74-6.62,1.46-9.94,2.17-6.03,1.27-12.08,2.5-18.12,3.75-3.02.62-6.03,1.25-9.05,1.91l-4.55.99-2.07.47c-.82.3-1.67.49-2.53.59-.52-.03.02.27-.39-.14-.17-.21-.31-.45-.42-.69-.45-.76-.9-1.51-1.36-2.27-.69-1.18-1.4-2.35-2.1-3.52-.15-.26-.72.05-.54.32l.02.07Z"/>
    <path class="cls-14" d="M181.88,121.08c3.31,2.67,2.29,6.82,2.39,10.53.03,3.51.53,7.01,1.49,10.38.77,2.92,2.36,5.56,4.58,7.61,1.02.86,2.19,1.51,3.45,1.94,1.09.36,2.72.27,3.56,1.11.77.94,1.39,1.98,1.85,3.1,1.03,2.07,1.65,4.31,1.85,6.61,0,0,.59-.11.58-.29-.28-3.39-1.48-6.63-3.47-9.39-.52-.63-1.28-1-2.09-1.02-1.4-.23-2.73-.72-3.94-1.46-5.65-3.52-6.9-11.36-7.21-17.44-.12-2.25-.02-4.48.03-6.73.05-2.04-.87-3.99-2.48-5.24-.14-.12-.62.25-.59.27h0Z"/>
    <path class="cls-18" d="M226.25,105.75c2.35-2.34,6.49-19.39,6.49-19.39,3.07-7.22,10.53-6.92,2.68-12.52l-7.01-7.83s.72-52.74-34.67-47.82c0,0-22.73.96-22.45,23.25,0,0,.87,14.17,3.68,22.92,2.59,8.11,9.37,22.52,9.37,22.52"/>
    <path class="cls-18" d="M181.29,96.71s2.29.66,5.59,6c1.65,3.74,2.41,7.25,5.21,10.3,7.84,8.31,19.62,7.55,29.32.58,6.89-4.93,10.65-24.69,10.65-24.69l-5.08-29.61-9.81,5.21s-.88,17.24-17.9,19.98c-17.02,2.74-17.2-11.78-17.2-11.78l1.45,12.06c.5,3.82.22,3.99-.82,5.94-.68,1.28-1.11,2.69-1.24,4.14l-.17,1.89Z"/>
    <path class="cls-8" d="M174.04,51.46c-.83-3.19-.71-10.47-.71-10.47-.02-.33-.15-5.4-.08-5.74,4.46-3.21,10.77-7.7,16.21-7.64s17.43.54,19.09,6.83c.5,1.92,2.05,14.61,3.6,14.63.07.22.13.44.18.66.42,1.73.94,3.44,1.58,5.1.49-.97.88-1.97,1.18-3.01.13-.67-.23-1.4-.09-2.07.53-1.58,2.51-1.58,3.75-.96l.23.24c1.9,1.62,1.68,8.06,1.08,10.11.53,3.75-2.26,6.41-4.69,4.18l-.18,1.55-3.2,5.76c-2.9,4.62-8.23,12.33-14.09,13.59-3.98.85-5.4.2-7.18-.83-2.65-1.57-4.38-3.6-6.56-5.66-1.83-1.62-3.32-3.6-4.38-5.81-1.1-1.9-1.73-4.04-1.83-6.24-.16-1.48-.44-2.94-.83-4.36-.4-1.37-2.24-6.67-3.08-9.85Z"/>
    <path class="cls-37" d="M203.69,49.1c-.37.03-.62-.03-.98,0-3.74.36-7.35,1.55-10.56,3.49-.11-.34-.17-.15-.29-.49s-.29-.91-.44-1.36c2.63-1.19,5.39-2.05,8.23-2.56.89-.08,1.79-.04,2.67.1.94.13,1.86.35,2.76.67.35.3-1.39.14-1.39.14Z"/>
    <path class="cls-37" d="M175.21,55.48c0-.06,0-.13.04-.19h0c.41-.3.85-.56,1.31-.78,2.29-.83,4.69-1.34,7.12-1.54.19.64.37,1.27.55,1.92-1.52-.08-3.04,0-4.54.25-1.43.26-2.83.68-4.17,1.23-.07-.12-.15-.25-.21-.38-.03-.09-.06-.18-.09-.28,0-.08,0-.16,0-.24Z"/>
    <path class="cls-10" d="M193.13,70.99c2.83-.71,7.55-2.26,7.55-2.26,0,0,1.02,7.7-5.54,9.34-6.56,1.65-8.98-5.53-8.98-5.53,0,0,4.15-.83,6.97-1.55Z"/>
    <path class="cls-35" d="M193.11,71.01c1.34-.34,6.7-1.93,6.7-1.93,0,0-.37,5.17-5.23,6.4-2.93.84-6.06-.42-7.6-3.06l6.13-1.41Z"/>
    <path class="cls-16" d="M193.1,71.22c1.35-.34,5.38-1.59,5.38-1.59,0,0-1.09,1.88-5.12,2.89s-5.68-.14-5.68-.14l5.42-1.16Z"/>
    <path class="cls-10" d="M185.98,72.43c.29-.18.59-.35.91-.49.81-.42,1.64-.79,2.49-1.12.97-.19,1.97-.26,2.96-.22.86-.5,1.78-.9,2.74-1.17.81-.14,3.11-.39,4.29-.57.53-.15,1.04-.35,1.54-.58.22-.02-.02,1.65-7.53,3.54s-7.58.7-7.39.6Z"/>
    <path class="cls-25" d="M214.33,51.88s-8.62-16.76-26.97-13.35c-10.61,1.97-13.49,12.07-13.49,12.07,0,0-2.18-9.8,1.22-14.51s17.11-8.24,24.14-6.71c7.03,1.53,15.11,22.5,15.11,22.5Z"/>
    <path class="cls-18" d="M218.48,36.03s-9.88-19.06-27.47-15.9c-21.85,3.96-19.18,27.33-19.18,27.33l3.99,16.92c-1.1-4.34-2.27-8.19-2.02-12.66-.37-2.51-2.74-8.85,3.33-14.64,3.42-3.02,7.77-4.76,12.33-4.95,4.11-.31,8.95.19,12.14,3.11,2.66,2.46,4.83,5.4,6.37,8.68,2.18,4.31,3.67,10.92,4.28,15.71.46,4.3,1.7,10.04-3.58,18.57,17.52-10.29,13.59-32.4,10.37-42.23l-.54.06Z"/>
    <path class="cls-14" d="M203.34,21.86c4.38,2.23,7.95,6.56,10.02,10.91,3.36,7.05,3.39,15.5,3.04,23.14-.09,1.99-.21,3.98-.44,5.96-.04.33.62.19.66-.05.65-5.5.77-11.04.34-16.56-.58-7.76-2.89-15.1-8.72-20.52-1.32-1.27-2.8-2.37-4.4-3.26-.26-.12-.81.26-.49.43v-.05Z"/>
    <path class="cls-14" d="M227.64,66.21c-.15,2.95-.49,5.9-1.01,8.81-.96,5.48-2.41,11.26-5.3,16.11-1.5,2.77-3.86,4.97-6.72,6.28-.37.15-.28.43.1.29,5.11-2.05,7.99-7.2,9.83-12.11,1.83-5.17,3-10.55,3.5-16.01.13-1.17.24-2.34.29-3.52-.02-.23-.64-.06-.65.15h-.03Z"/>
    <path class="cls-14" d="M211.48,72.02c-.99,5.91-2.49,12.38-6.89,16.75-2.55,2.64-6.17,3.98-9.83,3.63-3.2-.3-6.33-1.1-9.28-2.37-.18-.06-.67.25-.61.27,5.73,2.3,12.51,3.94,18.02.24,6.13-4.11,8.08-11.85,9.23-18.7,0-.13-.6.04-.64.17h0Z"/>
    <path class="cls-14" d="M184.06,93.75c1.89-.06,3.74.49,5.29,1.57,1.7,1.29,3.31,2.69,4.83,4.19,2.66,2.38,5.74,5.52,9.63,4.23.38-.13.28-.41-.11-.28-2.28.75-4.52-.49-6.26-1.88-1.74-1.4-3.2-2.83-4.78-4.26-1.19-1.19-2.54-2.2-4-3.03-1.37-.65-2.88-.95-4.4-.89-.24.02-.69.37-.24.36h.03Z"/>
    <path class="cls-37" d="M191.63,67.08c-.6.43-1.28.73-2,.86-.37.09-.75.14-1.14.16-.26,0-.52-.05-.75-.17-.38-.17-.95-.43-1.14-.83-.15-.47-.19-.97-.11-1.45.04-.41.14-.83.18-1.26,0-.11-.31.02-.33.08-.03.41-.13.83-.18,1.25-.1.52-.06,1.06.12,1.56.31.41.74.71,1.22.86.62.2,1.29.21,1.91,0,.86-.15,1.67-.49,2.38-.99.17-.13-.12-.14-.21-.07h.05Z"/>
    <path class="cls-37" d="M194.3,64.36c.22-.02.4.18.49.32.13.22.22.46.26.71.07.23.04.47-.07.69-.2.3-.5.52-.84.63-.49.08-.98.09-1.47.01-.08,0-.16.03-.22.08v.06c.52.07,1.04.07,1.55,0,.42-.11.8-.33,1.11-.62.22-.22.32-.53.27-.83-.04-.29-.14-.58-.29-.83-.14-.28-.46-.41-.75-.31,0,0-.19.01-.19.1s.1,0,.13,0v.02Z"/>
    <path class="cls-14" d="M177.35,150.2c2.94.5,5.33,2.66,6.14,5.53.01.17.67-.05.61-.21-.83-2.93-3.27-5.12-6.26-5.63-.15-.02-.31.02-.44.11-.05,0-.2.18-.05.2Z"/>
    <path class="cls-14" d="M243.4,143.55c4.29-.34,8.42,1.72,10.73,5.35.12.2.71-.05.61-.21-2.4-3.75-6.68-5.87-11.13-5.5-.23.02-.64.39-.22.36h0Z"/>
    <path class="cls-5" d="M131.28,212.74c-.58-1-1.25-1.95-2-2.84-3.82-4.32-10.2-5.27-15.11-2.25-.97.63-1.89,1.36-2.73,2.16.16-.28.36-.52.59-.73.59-.63,1.26-1.18,1.99-1.64,5-3.3,11.68-2.3,15.5,2.31.56.66,1.04,1.38,1.42,2.16.14.26.26.54.33.83Z"/>
    <path class="cls-38" d="M180.13,185.49l-8.76,5.99c-1.47.87-2.77,1.99-3.87,3.29-1.41,2.12-2.08,4.64-1.91,7.18,0,2.63.65,5.4,2.54,7.26.45.48,1.04.82,1.68.97.74.07,1.48-.05,2.16-.35,13.08-4.32,34.48-12.54,47.29-17.64.79-.27,1.52-.68,2.16-1.22.73-.76,1.17-1.74,1.25-2.78.43-3.82-2.53-7.4-6.09-8.86s-16.02,2.16-19.84,2.67c-5.4.66-10.73,1.77-15.94,3.3"/>
    <path class="cls-34" d="M119.27,206.59c2.75-1.57,5.66-2.83,8.69-3.76,7.44-1.89,15.32.28,20.76,5.7-4.55,1.26-9.17,2.25-13.83,2.99-2.26.45-4.59.53-6.88.24-3.58-.64-6.64-2.89-9.55-5.08"/>
    <path class="cls-7" d="M141.34,216.42l12.66.58,18.13-2.36c-3.24-.84-4.94-3.53-7.94-4.94-5.18-2.44-10.89-4.46-16.51-3.48-3.67.64-20.57,6.71-23.49,9.03l9.05.72c3.24.32,8.11.44,8.11.44Z"/>
    <path class="cls-21" d="M98.06,213.72c3.1-1.67,5.25-4.64,8.28-6.48,1.8-.99,3.75-1.68,5.76-2.06,5.72-1.26,8.16-1.38,13.3,1.41.72.4,6.14,1.42,6.86,1.81,1.24.68,5.26.5,4.7,1.17s-5.09,1.9-5.88,2.27c-3.65,1.67-2.86,3.3-6.89,3.37,0,0-19.73-1.01-25.78-1.51"/>
    <rect class="cls-32" x="82.39" y="213.72" width="100.32" height="8.46" rx="3.71" ry="3.71"/>
    <path class="cls-32" d="M87.75,222.19l5.19,39.94c.45,3.43,3.37,5.99,6.83,5.99h66.92c3.46,0,6.39-2.58,6.83-6.01l5.16-39.94-90.94.02Z"/>
    <path class="cls-5" d="M178.47,222.42c0,.12-20.7.21-46.23.21s-46.23-.09-46.23-.21,20.69-.19,46.23-.19,46.23.09,46.23.19Z"/>
    <rect class="cls-21" x="94.73" y="228.42" width="5.2" height="10.6" rx="2.28" ry="2.28" transform="translate(-96.89 71.32) rotate(-27.49)"/>
    <rect class="cls-21" x="108.72" y="228.42" width="5.2" height="10.6" rx="2.28" ry="2.28" transform="translate(-95.32 77.77) rotate(-27.49)"/>
    <rect class="cls-21" x="121.74" y="228.43" width="5.2" height="10.6" rx="2.28" ry="2.28" transform="translate(-93.85 83.78) rotate(-27.49)"/>
    <rect class="cls-7" x="135.5" y="228.42" width="5.2" height="10.6" rx="2.28" ry="2.28" transform="translate(-92.29 90.14) rotate(-27.49)"/>
    <rect class="cls-7" x="149.02" y="228.55" width="5.2" height="10.6" rx="2.28" ry="2.28" transform="translate(-90.83 96.39) rotate(-27.49)"/>
    <rect class="cls-7" x="162.55" y="228.41" width="5.2" height="10.6" rx="2.28" ry="2.28" transform="translate(-89.25 102.67) rotate(-27.5)"/>
    <rect class="cls-21" x="105.9" y="240.53" width="5.2" height="10.6" rx="2.28" ry="2.28" transform="translate(-101.22 77.84) rotate(-27.49)"/>
    <rect class="cls-21" x="119.29" y="240.52" width="5.2" height="10.6" rx="2.28" ry="2.28" transform="translate(-99.73 84.06) rotate(-27.5)"/>
    <rect class="cls-28" x="132.66" y="240.54" width="5.2" height="10.6" rx="2.28" ry="2.28" transform="translate(-98.21 90.19) rotate(-27.49)"/>
    <rect class="cls-28" x="146.03" y="240.54" width="5.2" height="10.6" rx="2.28" ry="2.28" transform="translate(-96.7 96.36) rotate(-27.49)"/>
    <rect class="cls-7" x="159.41" y="240.54" width="5.2" height="10.6" rx="2.28" ry="2.28" transform="translate(-95.18 102.54) rotate(-27.49)"/>
    <rect class="cls-4" x="116.42" y="251.23" width="5.2" height="10.6" rx="2.28" ry="2.28" transform="translate(-105.03 83.98) rotate(-27.51)"/>
    <rect class="cls-4" x="102.46" y="251.23" width="5.2" height="10.6" rx="2.28" ry="2.28" transform="translate(-106.61 77.53) rotate(-27.51)"/>
    <rect class="cls-28" x="129.74" y="251.23" width="5.2" height="10.6" rx="2.28" ry="2.28" transform="translate(-103.53 90.13) rotate(-27.51)"/>
    <rect class="cls-28" x="143.04" y="251.26" width="5.2" height="10.6" rx="2.28" ry="2.28" transform="translate(-102.04 96.28) rotate(-27.51)"/>
    <rect class="cls-28" x="156.38" y="251.23" width="5.2" height="10.6" rx="2.28" ry="2.28" transform="translate(-100.51 102.44) rotate(-27.51)"/>
    <path class="cls-25" d="M118.52,214.27c-.13-.52-.18-1.06-.13-1.6v-.3c-1.25-1.19-3.32-1.27-5.02-1.15-2.22.1-4.37.78-6.24,1.98l-.1.06.18,2.3c.25,1.87.21,3.76-.11,5.61-.58,2.57-2.16,4.74-3.37,7.1-.62,1.12-.99,2.35-1.08,3.63-.06,1.29.48,2.53,1.48,3.36,1.65,1.23,4.02.59,5.8-.44,4.65-2.72,5.98-4.91,8.64-9.56.86-1.49,3.43-2.54,3.41-5.75.09-3.43-3-3.8-3.46-5.22Z"/>
    <path class="cls-9" d="M118.74,214.22c-.13-.55.09-1.49-.14-1.92s-1-.68-1.35-.81c-1.11-.36-2.27-.5-3.43-.4-2.45.11-4.82.85-6.9,2.16,0,0-.09.05-.08.11.22,2.72.69,5.61,0,8.29-.66,2.42-2.16,4.47-3.24,6.7-.9,1.83-1.55,4.09-.45,5.99.92,1.44,2.68,2.1,4.32,1.63,3.16-.59,6.27-3.14,8.24-5.6,1.13-1.51,2.16-3.1,3.08-4.75.74-1.26,2-2.07,2.8-3.29,1.03-1.52,1.11-3.48.22-5.08-.73-1.18-2.46-1.71-2.96-2.98,0-.13-.46,0-.42.11.42,1.08,1.72,1.55,2.47,2.35,1.38,1.63,1.48,3.98.24,5.72-.87,1.27-2.16,2.16-2.91,3.5-.91,1.67-1.97,3.27-3.15,4.76-1.36,1.56-2.97,2.88-4.76,3.92-1.33.95-2.97,1.36-4.59,1.14-1.35-.34-2.37-1.46-2.59-2.84-.52-2.58,1.14-5.06,2.34-7.2,1.31-2.08,2.08-4.46,2.22-6.92-.04-1.56-.16-3.12-.36-4.66-.04-.29-.04-.58,0-.87.1-.21.8-.5.98-.6.78-.4,1.61-.71,2.47-.91,1.52-.4,3.1-.54,4.66-.4.81.03,1.59.28,2.28.71.73.57.44,1.44.65,2.28-.02.1.39,0,.37-.13Z"/>
    <path class="cls-39" d="M175.33,174.49l-8.78,5.96c-1.46.88-2.77,2-3.86,3.3-1.42,2.11-2.09,4.63-1.92,7.17,0,2.63.65,5.4,2.54,7.26.45.49,1.04.83,1.68.97.74.07,1.48-.05,2.16-.33,13.08-4.37,33.72-11.57,46.53-16.68.79-.27,1.52-.68,2.16-1.22.73-.75,1.17-1.74,1.25-2.78.43-3.82-2.53-7.4-6.09-8.85s-15.17,1.22-19,1.68c-5.4.66-10.73,1.76-15.95,3.29"/>
    <path class="cls-8" d="M199.74,162.81l1.08,6.14,1.08,4.4s-6.41,4.26-8.73,4.75-7.62,2.27-7.62,2.27c.48.54.76,1.24.79,1.96-.05.84-.44,1.62-1.08,2.16l-3.52-2.73c-.12,1.81-1.98,1.08-1.98,1.08l-2.7-2.5c0,2.26-2.47,1.36-2.47,1.36l-2.39-3.97c-.31.88-.79,1.69-1.41,2.37-.84.79-1.74-.8-1.74-.8l1.58-7.9,9.19-6.31,17.63-1.4,2.3-.87Z"/>
    <path class="cls-31" d="M176.6,168.81c-1.76,1.17-3.32,2.6-4.64,4.24-.64.6-.99,1.45-.96,2.32.14,1,.51,1.95,1.08,2.78.14.19.71,0,.55-.25-.51-.77-.86-1.63-1.03-2.54-.23-1,.53-1.83,1.13-2.56,1.23-1.44,2.66-2.72,4.23-3.78.32-.23-.17-.38-.39-.23h.02Z"/>
    <path class="cls-31" d="M179.87,172.05c-.67.53-1.37,1-2.05,1.51-.81.52-1.53,1.16-2.16,1.89-.25.31-.39.69-.4,1.08-.05.46-.05.92,0,1.38.16.95.64,1.82,1.37,2.46.17.17.73-.05.55-.25-.3-.28-.57-.59-.81-.93-.26-.39-.43-.84-.5-1.31-.07-.45-.1-.9-.08-1.35.04-.48.26-.93.62-1.25,1.21-1.1,2.51-2.11,3.87-3.01.31-.25-.17-.4-.39-.24h-.03Z"/>
    <path class="cls-31" d="M183.21,176.26c-.82.29-1.61.66-2.37,1.08-.67.36-1.15,1-1.33,1.74-.1.73.17,1.46.73,1.94.31.28.65.51,1.03.69.16.09.35.13.54.11.06,0,.35-.06.35-.16s-.17-.08-.24-.06c.24,0,.17,0,.09,0l-.15-.05c-.16-.08-.32-.16-.46-.26-.4-.23-.74-.56-.99-.94-.49-.77-.39-1.77.24-2.43.87-.71,1.86-1.25,2.93-1.6.09,0,.17-.1.08-.16s-.32,0-.42.08v.03Z"/>
    <polyline class="cls-33" points="223.23 171.68 201.32 175.93 197.4 163.35 203.61 161.36"/>
    <path class="cls-14" d="M197.76,163.55l15.51-6.71,24.91-10.75,5.69-2.46c.14-.01.26-.16.22-.33-.96-5.34-1.78-10.69-2.53-16.05-1.44-9.12-2.26-18.33-2.45-27.56,0-3.45.18-8.29,2.88-10.77.3-.29-.21-.49-.44-.27-2.46,2.26-2.92,6.45-3.05,9.61-.09,4.09.08,8.17.51,12.24.75,9.01,2,17.98,3.44,26.9.33,2.05.66,4.11,1.03,6.16l.22-.33-15.53,6.67-24.87,10.75-5.69,2.46c-.37.16-.22.6.15.44h0Z"/>
    <path class="cls-8" d="M109.73,164.64c-.09-.12-.18-.25-.25-.38-1.08.67-2.08,1.33-2.27,1.17s.78-.93,1.91-1.87c-.32-.77-.58-1.57-.79-2.37-.86.72-1.77,1.37-2.73,1.95-.06-.1.6-.84,2.61-2.33,0-.06,0-.12,0-.17-.25-.73-.45-1.48-.6-2.23-1.73,1.35-3.51,2.98-3.68,3.16.14-.19,1.37-1.75,2.22-2.88.39-.52.92-1.15,1.35-1.76,0-.32.06-.64.14-.95.08-.32.23-.61.42-.87l-.06-.06c-.8-.53-2.03.7-3.43,1.91l-6.18,5.27c.25-1.17.55-2.32.92-3.45.52-2.06-2.55-.11-2.55-.11-1.23,1.54-2.13,3.31-2.67,5.2-.43,1.31-1.08,3.24-.87,3.98l-4.49,3.7c.36.35,5.22,5.93,5.65,6.1,0,0,3.24-3.93,4.79-4.32,2.3.49,9.23-5.74,11.56-7.77-.39-.23-.73-.54-.99-.91Z"/>
    <path class="cls-8" d="M20.45,227.98c0,6.07-1.94,19.12,15.97,20.51l-8.14-2.1-.41,14.74s47.49-1.54,49.06-1.52c3.02,0,11.61-.95,12.95-10.41,1.34-9.46-4.52-12.08-6.75-13.88s-27.13-10.88-36.7-12.66l-23.3,2-2.69,3.32Z"/>
    <path class="cls-8" d="M20.18,237.41c.36,6.06-.67,19.19,16.03,19.62l-7.67-1.65-1.42,6.72s35.38,6.39,44.09,5.48c7.18.1,13.15-5.53,13.46-12.7.71-9.52-3.71-11.87-5.87-13.56-2.16-1.68-25.81-9.37-34.78-10.63l-21.59,3.24-2.25,3.48Z"/>
    <path class="cls-31" d="M84.93,257.63c.75-2.62.96-5.36.6-8.06-.51-2.75-2.14-5.16-4.51-6.64-5-3.49-11.05-4.93-16.86-6.48-.18,0-.7.23-.37.31,5.65,1.51,11.53,2.91,16.43,6.23,2.46,1.48,4.18,3.94,4.72,6.77.34,2.67.14,5.39-.6,7.98,0,.22.55.13.59-.08v-.03Z"/>
    <path class="cls-20" d="M43.05,255.99l24.83,1.96s.09-12.43,13.14-14.94l-1.28-.66s3.31-5.53,5.71-6.33l.24-.38-24.83-15.25c-12.52,7.23-19.52,21.23-17.8,35.59Z"/>
    <path class="cls-3" d="M95.1,153.82l4.56,14.23c.69,1.82,1.1,3.73,1.21,5.68,0,2.72-1.08,5.29-1.71,7.94-.35,1.27-.42,2.6-.19,3.9.23,1.31,1.07,2.44,2.27,3.03,1.95.84,4.2-.36,5.74-1.81,4.04-3.83,4.86-6.35,6.48-11.68.52-1.69,2.87-3.36,2.09-6.6-.83-3.44-4.04-3.1-4.84-4.41-.25-.5-.42-1.03-.51-1.59l-2.16-10.79c-.01-.26-.13-.5-.32-.68-.17-.13-.38-.19-.59-.14-3.88,1.13-7.86,1.94-11.87,2.41"/>
    <path class="cls-8" d="M53.02,144.14c0-2.49-.26-4.96-.79-7.39-.06-.99-.15-2.16-.26-3.52,0-.4-.08-.78-.12-1.15-.04-.2-.07-.39-.08-.59-.87-6.69-3.43-9.98-3.43-9.98-3.26-4.18-8.5-6.3-13.75-5.57-5.74.89-10.82,4.22-13.93,9.13-1.26,2.02-1.74,4.43-1.34,6.78.42,2.17,1.02,4.3,1.79,6.37-2.16.12-4.21,1.08-3.03,5.01,1.63,5.4,5.34,6.76,6.86,5.07.39,0,1.32,1.63,1.52,2.76.39,2.16.68,6.1-.21,8.13l.12.62c5.4,7.07,10.12,7.81,25.66,1.79l-7.47-4.48-.17-1.46c.91-.03,1.81-.25,2.63-.65,4.86-1.76,5.96-8.33,5.99-10.86Z"/>
    <path class="cls-31" d="M44.36,155.67c-3.94.54-7.95-.13-11.51-1.92,0,0,.82,1.72,4.73,2.68,2.25.58,4.6.65,6.88.19l-.1-.95Z"/>
    <path class="cls-9" d="M19.8,143.35c-.37-.66-.43-1.45-.18-2.16l-.13.1h.06c.19.05.37.14.53.25.85.63,1.59,1.41,2.16,2.3l.28-.16c-.24-.15-.53-.21-.81-.16-.31.11-.5.42-.44.74,0,.86.86,1.24,1.64,1.25.06,0,.18,0,.22-.1s0-.12-.1-.12c-.63.08-1.23-.32-1.4-.93,0-.16-.06-.53.1-.64s.41.05.54.13.38,0,.28-.16c-.44-.64-.95-1.24-1.51-1.78-.28-.28-.61-.52-.96-.71-.16-.07-.33-.12-.51-.14-.21,0-.28.12-.33.29-.18.7-.1,1.44.24,2.08,0,.13.39,0,.33-.09h0Z"/>
    <path class="cls-19" d="M44.08,146.33c-1.9.18-4.99.26-4.99.26,0,0,.25,5.4,5.49,4.75,4.39-.49,4-5.56,4-5.56,0,0-2.61.37-4.51.55Z"/>
    <path class="cls-35" d="M44.1,146.33l-4.32.37c.66,1.78,2.43,2.89,4.32,2.73,1.93.02,3.57-1.38,3.86-3.28l-3.86.18Z"/>
    <path class="cls-16" d="M44.18,146.74c-.91.09-3.66.21-3.66.21,1.23.48,2.56.61,3.85.38,2.71-.26,3.4-1.08,3.4-1.08l-3.59.5Z"/>
    <path class="cls-19" d="M48.57,145.76c0-.1-.21-.13-.66-.12-.76,0-1.08-.24-1.57-.23-.64.09-1.28.24-1.89.46-.64-.11-1.29-.14-1.93-.1-.54.09-1.86.41-2.6.54-.36.03-.72.03-1.08,0-.13,0,.3,1.24,5.4.77s4.34-1.2,4.33-1.33Z"/>
    <path class="cls-37" d="M38.82,131.99s-.15,0-.15-.09c-1.67-.4-3.39-.49-5.09-.28-.54.14-1.04.37-1.5.68-.53.32-1.02.72-1.45,1.17-.15.31.81-.21.81-.21.18-.08.36-.15.55-.21,1.12-.36,2.29-.56,3.48-.57,1.17.2,2.31.53,3.41.98,0-.51-.1-.97-.05-1.48Z"/>
    <path class="cls-37" d="M44.6,131.82s.13-.08.12-.12c1.35-.65,2.82-1.01,4.32-1.08.49.05.97.2,1.4.43.52.24,1.01.55,1.45.92.18.29-.72-.06-.72-.06-.17-.05-.34-.09-.52-.12-1.02-.18-2.06-.18-3.08,0-.98.38-1.91.89-2.76,1.5-.08-.51-.08-.98-.21-1.47Z"/>
    <path class="cls-17" d="M23.66,142.19s0-.06,0-.1c-.33-.76-.85-1.42-1.5-1.93-.33-.25-.69-.45-1.08-.6-.39-.16-.81-.26-1.23-.29-.58-.08-1.17,0-1.71.22l-.28.15c-1.99-4.61-3.18-9.64-.32-15.86.82-1.79,3.24-3.94,4.02-4.62,4.52-4.1,8.89-4.84,14.35-4.88,6.34-.06,12.62,3.34,14.73,9.5.56,1.28.88,2.65.95,4.05,0,0-1.85-5.61-5.05-7.09s-3.48,1.23-7.74,1.78c-4.94.63-6.85-1.89-10.6.6-2.01,1.3-3.48,3.27-4.16,5.57-.32,2.16-1.15,3.76-.28,6.16.21.57.39,1.15.56,1.75.24,1.06.35,2.15.36,3.24,0,.55-.21,1.09-.6,1.48-.5.42.15,1-.41.87Z"/>
    <path class="cls-9" d="M24,142.11c-.74-2.43-4.09-3.95-6.34-2.68l.51.12c-1.69-3.49-2.3-7.4-1.78-11.24.32-2.24,1.2-4.37,2.56-6.17,1.01-1.2,2.12-2.3,3.32-3.29,3.17-2.63,7.13-4.12,11.25-4.24,3.89-.42,7.82.42,11.2,2.4,3.76,2.39,6.16,6.42,6.48,10.86l.7-.12c-.72-2.45-2.08-4.67-3.94-6.42-.98-.92-2.29-1.38-3.63-1.28-1.26.18-2.3,1.08-3.44,1.61-2.27.78-4.72.88-7.05.3-1.46-.36-3-.31-4.44.16-2.81,1.16-4.94,3.55-5.79,6.48-.65,1.89-.81,3.91-.46,5.87.51,1.46.88,2.97,1.08,4.5.04.82-.15,1.63-.56,2.33-.09.3-.16.61-.18.92l.39-.29h-.21c-.4,0-.54.52-.06.51h.21c.17,0,.33-.11.38-.28.16-.67.58-1.25.72-1.93.12-.94.06-1.89-.16-2.81-.23-1.06-.52-2.11-.86-3.14-.27-1.11-.27-2.28,0-3.39.6-2.99,1.47-5.46,4.11-7.36,1.53-1.13,3.48-1.52,5.33-1.08,1.61.34,3.26.47,4.91.38,1.52-.14,3-.6,4.32-1.37,1.44-.82,2.54-1.21,4.09-.3,2.32,1.33,3.77,4.32,4.59,6.77.1.28.71.17.7-.12-.27-4-2.19-7.72-5.31-10.24-3.07-2.35-6.84-3.59-10.7-3.53-4.11,0-8.21.6-11.75,2.81-3.29,2.05-6.48,5.07-7.73,8.79-1.65,4.8-.87,9.54,1.08,14.12.1.17.32.22.49.12,0,0,.01,0,.02-.01,1.9-1.08,4.71.45,5.32,2.45.03.33.73.14.64-.17Z"/>
    <path class="cls-37" d="M17.82,139.67s-5.63-3.65-3.24-13.92c.28-1.17.86-2.26,1.67-3.15l.76-.84c.37-2.11,1.38-4.05,2.89-5.56,2.48-2.44,9.23-3.59,12.07-5.79,1.44-.97,2.63-2.26,3.48-3.78.91,1.15,1.58,2.48,1.95,3.9,0,0,9.71-.44,13.17,12.95,0,0-10.41-10.5-20.88-5.14s-11.87,21.33-11.87,21.33Z"/>
    <path class="cls-37" d="M34.02,109.82s2.88.21,5.08-3.08c0,0,3.24,3.08,1.37,5.68"/>
    <path class="cls-37" d="M43.26,143.55c.5.16,1.03.22,1.55.17.52-.03,1.02-.14,1.5-.33.71-.27,1.08-1.06.81-1.78,0,0,0,0,0,0-.1-.2-.22-.39-.35-.57-.15-.28-.29-.56-.41-.85,0,0-.27,0-.26.06.22.48.47.95.73,1.4.2.38.17.84-.08,1.2-.29.4-.74.65-1.23.69-.67.16-1.37.13-2.03-.08-.05-.02-.11-.02-.16,0,0,0-.12.05-.09.06v.02Z"/>
    <path class="cls-37" d="M40.91,141.94c-.23,0-.45.13-.54.35-.05.24-.05.49,0,.73.01.23.11.46.27.63.24.2.54.32.85.33.21,0,.41-.05.6-.13.22-.1.41-.23.63-.3,0,0,.1,0,.08-.06s-.14,0-.16,0-.29.13-.43.19c-.13.09-.28.15-.44.18-.29.03-.58-.03-.84-.17-.31-.27-.46-.68-.39-1.08,0-.11.03-.21.08-.31.01-.05.03-.09.06-.13h0c.06.02.12.02.18,0h0l.05-.23Z"/>
    <path class="cls-8" d="M29.62,253.28c-.6-1.41-1.58-2.63-2.83-3.52-.81-.41-1.76-.41-2.57,0-2.55,1.08-3.94,3.24-5.99,5.03-1.56,1.39-3.29,2.59-5.14,3.56-1.88.97-3.89,1.41-5.77,2.29h0c-.95.45-1.71,1.21-2.16,2.16-.17.36-.36.7-.54,1.08s-.55.79-.31,1.35c.42,1.08,2.03.46,2.49.28.09-.03.19-.03.28,0,1.11.1,2.23.03,3.31-.22l.53-.06h0c.98-.13,5.3-.1,6.1-.14,1.26-.09,1.08,0,6.48-1.61,0,0,5.14-1.62,8.08-.59l3.16-6.69s-4.65-1.58-5.13-2.91Z"/>
    <path class="cls-8" d="M39.2,243.11c-.67-1.37-1.7-2.53-2.99-3.35-.84-.4-1.83-.36-2.63.11-2.5,1.08-3.8,3.37-5.76,5.29-1.5,1.46-3.18,2.72-4.99,3.77-1.82,1.08-3.82,1.59-5.67,2.54h0c-.94.49-1.67,1.29-2.08,2.27-.15.36-.31.71-.49,1.08s-.51.82-.26,1.37c.47,1.01,2.05.38,2.5.17.09-.03.19-.03.28,0,1.11.05,2.23-.07,3.3-.36.17-.04.35-.07.53-.09h0c.97-.17,5.29-.32,6.09-.41,2.2-.48,4.36-1.11,6.48-1.88,0,0,6.37-.95,8.45.42l2.46-8.19s-4.72-1.42-5.22-2.74Z"/>
    <path class="cls-20" d="M57.45,217.07l-.36-1.65c-5.61,1.01-9.49-4.22-15.11-3.58-4.3.6-8.62.98-12.95,1.14-2.07.07-4.15-.1-6.18-.51-1.28-.29-2.54-.66-3.81-.97l-3.04,5.4-2.05,6.02c-.66,2.62-.18,7.1-.33,9.8-1.83,30.62,34.36,22.99,34.36,22.99,0,0,2.57-10.89,3.39-12.95l1.88-4c.9,0,3.09-6.2,5.4-9.02,4.86-6.06,18.35,1.18,18.35,1.18l-19.53-13.84Z"/>
    <path class="cls-12" d="M14.93,193.64s1.82,13.18-.23,20.51c-1.41,5.71-2.36,11.53-2.84,17.4,0,0,13.91,4.32,35.09.66,11.65-2,17.75-9.53,16-14.24-.63-1.21-1.4-2.34-2.31-3.36l-1.66-24.74-44.05,3.77Z"/>
    <path class="cls-8" d="M33.5,169.18c2.22,2.94,5,5.42,8.18,7.28,7.79,4.57,20.95,17.84,29.75,17.76,10.28-.1,25.05-19.31,25.05-19.31l-4.32-5.92-19.56,10.26s-13.92-12.31-19.25-16.72c-2.16-1.82-2.54-2.23-8.08-3.03-.37-.05-2.72.14-2.95.13"/>
    <path class="cls-12" d="M22.41,211.05c2.07.49,4.19.71,6.31.66,4.25-.13,8.5-.49,12.72-1.08,5.7-.66,11.42-1.2,17.05-2.21l1.19-.68c1.08-2.94.35-14.95,0-22.54,6.48-3.3,7.81-13.54,7.81-13.54,0,0-9.5-8.82-12.66-11.29-3.16-2.47-10.31-3.24-10.31-3.24,4.43,3.4-1.08,6.14-1.08,6.14-5.15,1.94-14.63.09-16.94-6.53-3.02,1.6-5.84,3.56-8.39,5.84-7.31,7.22-6.75,16.8-6.09,21.06.6,3.87,6.48,19.43,7.1,26.61,1.09.24,2.18.53,3.27.8Z"/>
    <path class="cls-2" d="M59.94,185.17c0-1.96.08-3.93,0-5.9-.06-1.99-.26-3.98-.62-5.94,0-.15-.45-.05-.42.11.33,1.92.53,3.87.6,5.82,0,1.99-.06,3.98,0,5.97,0,.18.43.1.43-.05Z"/>
    <path class="cls-31" d="M72.39,179.26c-1.1.79-1.75,2.06-1.76,3.41,0,.29.58.22.58,0-.02-1.24.57-2.42,1.58-3.15.08-.05.1-.16.05-.24-.01-.02-.03-.04-.05-.05-.12-.08-.29-.08-.41,0v.03Z"/>
    <path class="cls-27" d="M79.84,242.12l-14.47-7.71-2.05-1.08c-.21-.11-.85.21-.72.27l14.52,7.7,2.06,1.08c.21.12.85-.19.72-.27h-.05Z"/>
    <path class="cls-31" d="M16.03,256.67c.98-.62,1.88-1.34,2.7-2.16.87-.74,1.65-1.59,2.31-2.53.08-.13-.08-.21-.17-.22-.15-.02-.31.05-.4.17-.64.89-1.39,1.71-2.22,2.43-.79.78-1.66,1.47-2.6,2.07-.07.04-.1.13-.07.2.01.03.04.05.07.07.12.09.31,0,.43,0l-.04-.04Z"/>
    <path class="cls-31" d="M98.94,173.13c-.49.06-.99-.08-1.36-.41-.39-.32-.63-.78-.67-1.27,0-.13-.62,0-.59.15.06.56.34,1.06.79,1.4.5.35,1.13.48,1.73.37.09,0,.32-.05.35-.16s-.19-.09-.24-.08Z"/>
    <g class="cls-23">
      <path class="cls-30" d="M97.16,181.76c1.48-.38,2.99.26,4.43.54,1.18.23,2.38.36,3.58.41,2.47.09,4.94-.22,7.31-.91.51-.14.39-.62-.13-.46-2.59.75-5.29,1.01-7.98.79-1.32-.14-2.64-.38-3.93-.7-1.11-.33-2.28-.37-3.41-.14-.51.14-.39.6.13.47h0Z"/>
      <path class="cls-30" d="M97.85,179.28c1.69-.59,3.62-.17,5.4-.12,1.54.06,3.09.02,4.63-.13,3.02-.26,5.93-1.28,8.45-2.96.47-.33-.23-.59-.56-.37-2.68,1.74-5.78,2.72-8.97,2.83-1.52.09-3.04.09-4.56,0-1.51-.23-3.04-.15-4.52.22-.5.17-.37.73.15.56l-.02-.03Z"/>
      <path class="cls-30" d="M98.57,176.02c6.17-1.42,14.32-.12,18.85-5.56.19-.22-.63-.12-.77,0-4.32,5.17-12.26,3.85-18.17,5.21-.5.12-.42.42.09.3v.04Z"/>
      <path class="cls-30" d="M99.7,172.14c6.02-.62,12.48-1.51,16.94-6.02.36-.37-.46-.43-.7-.19-4.24,4.32-10.42,5.08-16.19,5.67-.44,0-.68.6-.1.55h.05Z"/>
      <path class="cls-30" d="M97.74,168.81c1.66-.22,3.35-.32,5.01-.57,1.51-.23,3-.6,4.46-1.08,2.55-.64,4.92-1.86,6.94-3.55.35-.33-.49-.28-.67-.11-1.86,1.79-4.41,2.67-6.82,3.43-2.88.75-5.82,1.25-8.79,1.49-.39.05-.72.5-.13.42v-.03Z"/>
      <path class="cls-30" d="M96.54,165.14c5.21-.41,10.79-1.25,14.93-4.64.15-.13-.62,0-.77.09-3.89,3.15-8.95,3.87-13.78,4.24-.21,0-.93.36-.38.31h0Z"/>
      <path class="cls-30" d="M95.46,161.98c5.2-1.52,11.57-1.24,15.48-5.62.17-.18-.63-.09-.77.08-3.71,4.17-9.81,3.84-14.78,5.29-.49.14-.43.4.06.26Z"/>
      <path class="cls-30" d="M95.16,157.69c5.24-.45,10.63-1.2,15.11-4.12.47-.31-.24-.52-.55-.32-4.32,2.81-9.48,3.46-14.47,3.91-.44,0-.68.59-.1.54h.01Z"/>
      <path class="cls-30" d="M97.43,184.55c3.88,1.64,8.2,1.94,12.27.85.51-.14.39-.63-.13-.47-3.81,1-7.84.71-11.47-.82-.2-.07-.43-.05-.6.08-.1.08-.27.29-.06.37Z"/>
    </g>
    <path class="cls-8" d="M96.54,158.82c1.04-.62,2.26-.86,3.45-.68.5.05.98.19,1.42.41.44.25.79.63,1.01,1.08.21.32.25.72.13,1.08-.25.55-.98.64-1.59.66-.71-.03-1.41.11-2.06.39-.65.42-1.03,1.17-.98,1.94"/>
    <path class="cls-8" d="M109.26,154.5s-4.57,1.68-2.96,3.54c1.61,1.86,4.6-.8,4.39-1.63s-.73-2.2-1.44-1.91Z"/>
    <path class="cls-8" d="M110.89,161.48s-4.57,1.68-2.95,3.54,4.59-.8,4.39-1.63-.69-2.21-1.45-1.91Z"/>
    <path class="cls-8" d="M110.13,157.93s-4.76,1.76-3.08,3.69c1.68,1.93,4.78-.83,4.58-1.71s-.78-2.3-1.5-1.99Z"/>
    <path class="cls-31" d="M97.88,163.41c.42.93.78,1.88,1.08,2.86.23.71.71,2.16-.27,2.48-.12.04-.19.16-.15.28,0,.01,0,.02.01.03.1.13.28.1.41.05,1.08-.4,1-1.61.74-2.5-.33-1.15-.75-2.28-1.25-3.37-.13-.27-.71-.11-.59.16h.02Z"/>
    <path class="cls-13" d="M81.63,183.86l3.72,15.67c.59,2.02.87,4.11.83,6.21-.21,2.91-1.62,5.59-2.49,8.39-.48,1.34-.66,2.76-.53,4.18.14,1.42.94,2.7,2.16,3.44,2.02,1.08,4.53,0,6.3-1.48,4.66-3.78,4.32-5.34,6.48-10.93.7-1.78,5.4-4.32,3.59-8.39-.67-1.52-3.4-3.24-4.14-4.76-.24-.55-.38-1.14-.41-1.74l-1.42-11.81c0-.28-.11-.55-.29-.77-.19-.12-.41-.19-.64-.21-4.41-.44-8.85.11-13.02,1.62"/>
    <g class="cls-24">
      <circle class="cls-36" cx="85.67" cy="214.3" r="1.08"/>
      <circle class="cls-36" cx="86.76" cy="221.39" r="1.08"/>
      <circle class="cls-36" cx="88.69" cy="217.76" r="1.08"/>
      <circle class="cls-36" cx="83.63" cy="218.55" r="1.08"/>
      <circle class="cls-36" cx="90.77" cy="213.51" r="1.08"/>
      <circle class="cls-36" cx="91.87" cy="220.6" r="1.08"/>
      <circle class="cls-36" cx="93.8" cy="216.97" r="1.08"/>
      <circle class="cls-36" cx="89.66" cy="206.5" r="1.08"/>
      <circle class="cls-36" cx="92.7" cy="209.97" r="1.08"/>
      <circle class="cls-36" cx="87.63" cy="210.76" r="1.08"/>
      <circle class="cls-36" cx="94.78" cy="205.72" r="1.08"/>
      <circle class="cls-36" cx="95.87" cy="212.81" r="1.08"/>
      <circle class="cls-36" cx="97.8" cy="209.18" r="1.08"/>
      <circle class="cls-36" cx="93.64" cy="198.57" r="1.08"/>
      <circle class="cls-36" cx="96.67" cy="202.03" r="1.08"/>
      <circle class="cls-36" cx="91.62" cy="202.81" r="1.08"/>
      <circle class="cls-36" cx="98.75" cy="197.78" r="1.08"/>
      <circle class="cls-36" cx="99.85" cy="204.87" r="1.08"/>
      <circle class="cls-36" cx="101.78" cy="201.25" r="1.08"/>
      <circle class="cls-36" cx="86.5" cy="203.61" r="1.08"/>
      <circle class="cls-36" cx="88.58" cy="199.36" r="1.08"/>
      <circle class="cls-36" cx="89.68" cy="206.45" r="1.08"/>
      <circle class="cls-36" cx="87.48" cy="192.35" r="1.08"/>
      <circle class="cls-36" cx="90.5" cy="195.82" r="1.08"/>
      <circle class="cls-36" cx="85.45" cy="196.59" r="1.08"/>
      <circle class="cls-36" cx="92.59" cy="191.56" r="1.08"/>
      <circle class="cls-36" cx="95.62" cy="195.03" r="1.08"/>
      <circle class="cls-36" cx="91.45" cy="184.42" r="1.08"/>
      <circle class="cls-36" cx="94.49" cy="187.88" r="1.08"/>
      <circle class="cls-36" cx="89.42" cy="188.66" r="1.08"/>
      <circle class="cls-36" cx="96.57" cy="183.63" r="1.08"/>
      <circle class="cls-36" cx="84.19" cy="189.52" r="1.08"/>
      <circle class="cls-36" cx="82.16" cy="193.77" r="1.08"/>
      <circle class="cls-36" cx="88.16" cy="181.59" r="1.08"/>
      <circle class="cls-36" cx="81.81" cy="185.41" r="1.08"/>
      <circle class="cls-36" cx="83.7" cy="181.72" r="1.08"/>
      <circle class="cls-36" cx="86.13" cy="185.83" r="1.08"/>
      <circle class="cls-36" cx="93.28" cy="180.8" r="1.08"/>
      <circle class="cls-36" cx="97.66" cy="190.72" r="1.08"/>
      <circle class="cls-36" cx="99.59" cy="187.08" r="1.08"/>
    </g>
    <path class="cls-8" d="M19.73,189.58c5.4,7.45,20.51,22.86,24.83,23.52,10.09,1.57,32.38-9.37,32.38-9.37l-1.99-6.55-26.82,2.57s-17.32-21.33-19.2-24.7c0,0-3.46-6.66-9.85.31"/>
    <path class="cls-8" d="M95.83,194.86c.08-.05.15-.13.19-.22.47-.95-.83-1.79-1.73-1.19-1.21.88-2.5,1.64-3.85,2.26-.31,0-2.43,0-4.32.11-.66.07-1.3-.26-1.64-.83-.2-.2-.32-.46-.36-.73l-.1-.65c-.25-.61-.44-1.24-.57-1.88-1,.3-1.98.69-2.91,1.17-1.56,1.25-3.01,2.63-4.32,4.14l-5.02.76,1.32,7.56,4.76-1.3,4.79.67s8.98-.57,10.01-1.34c.88-.94,1.58-2.04,2.05-3.24,1.51-.8,1.5-2.97,1.5-2.97,2.08-2.1.19-2.32.19-2.32Z"/>
    <path class="cls-31" d="M86.57,198.34c.5.15,1.02.23,1.54.23,1.28.14,2.57,0,3.79-.4,1.15-.47,2.16-1.21,2.96-2.16.35-.35.64-.75.86-1.19-.4.3-.76.64-1.08,1.03-.82.87-1.81,1.56-2.9,2.03-1.17.37-2.4.53-3.63.47-.51-.06-1.03-.06-1.54-.01Z"/>
    <path class="cls-31" d="M87.16,200.25c.44.2.92.29,1.4.28.52.04,1.05.04,1.58,0,.65-.02,1.3-.17,1.9-.43.55-.3,1.06-.66,1.53-1.08l1.08-.95c.37-.27.7-.59.98-.95-.43.2-.82.45-1.18.76-.33.25-.74.55-1.19.9-.46.38-.95.71-1.48.99-.56.25-1.15.4-1.76.44-.51,0-1.01.09-1.51.1-.82,0-1.35-.05-1.36-.05Z"/>
    <path class="cls-31" d="M88.05,202.46c1.18.11,2.36.05,3.52-.18.26-.04.51-.14.72-.29.19-.11.37-.23.54-.37.29-.22.56-.46.81-.73.42-.46.57-.81.53-.83s-.28.26-.73.66c-.26.23-.54.44-.82.64-.17.13-.35.24-.53.35-.17.11-.35.18-.55.22-.98.11-1.83.24-2.47.33-.34.04-.68.11-1.01.22Z"/>
    <path class="cls-31" d="M48.03,199.64c-1.58.26-2.82,1.5-3.1,3.08,0,.29.53.23.58,0,.2-1.29,1.17-2.32,2.45-2.6.13,0,.3-.09.31-.24s-.14-.22-.26-.19v-.04Z"/>
    <path class="cls-12" d="M24.56,196.97c7.01-1.71,11.95-7.76,16.35-13.46.42-.48.74-1.04.95-1.65.43-1.63-.89-3.16-2.09-4.32-2.92-3.09-6.18-5.84-9.71-8.2-3.59-2.37-7.86-3.48-12.15-3.15-.81,0-1.53.49-1.82,1.24-1.98,3.69-1.41,8.2-.45,12.28,1.46,6.21,3.79,12.39,8.06,17.13"/>
    <path class="cls-2" d="M38.63,186.62c.8-.6,1.44-1.4,1.85-2.32.49-.87.7-1.08.15-2.05-.74-1.09-1.56-2.13-2.44-3.12-1.12-1.41-2.33-2.75-3.62-4.02-1.22-1.21-2.51-2.35-3.76-3.55-.93-1-2.03-1.82-3.24-2.45-2.54-1.18-5.49-1.12-7.99.15-.26.14.14.14.25.08,3.03-1.47,6.63-1.05,9.24,1.08,2.09,1.77,4.07,3.66,5.94,5.66.99,1.03,1.93,2.11,2.82,3.24.83.95,1.61,1.94,2.33,2.97.26.32.42.72.44,1.13-.1.29-.23.56-.41.8-.43.95-1.1,1.77-1.94,2.39-.18.11.25.08.33,0l.04.02Z"/>
    <path class="cls-2" d="M26.46,196.31c-.66.2-1.32.37-2,.5-.6.07-1.21-.15-1.63-.58l-.94-.8c-1.24-1.13-2.35-2.38-3.34-3.73-1.92-2.68-3.26-5.73-3.95-8.96,0-.19-.46-.09-.42.12.75,3.54,2.3,6.86,4.52,9.71,1.06,1.37,2.28,2.63,3.62,3.73.59.47,1.08.96,1.91.82s1.54-.37,2.3-.56c.27-.06.19-.35-.08-.28v.03Z"/>
    <path class="cls-25" d="M45.48,136.66s3.46.5,4.67.09,1.53-1.96,1.53-1.96c0,0,.07-.41-1.32-.7s-3.51-.45-4.88,2.58Z"/>
    <path class="cls-25" d="M31.08,138.08s2.44.65,4.85.23,3.65-1.05,3.65-1.05c0,0-2.12-1.99-3.84-1.83s-3.68.86-4.67,2.65Z"/>
    <ellipse class="cls-9" cx="49.49" cy="135.28" rx="1.33" ry="1.32" transform="translate(-91.41 165.26) rotate(-81.92)"/>
    <path class="cls-17" d="M50.93,134.02c-.88-.42-1.88-.51-2.83-.28-2.02.38-2.7,3.02-2.7,3.02.55-1.21,1.6-2.12,2.88-2.49,1.15-.09,2.31.09,3.39.52-.15-.33-.42-.6-.74-.77Z"/>
    <ellipse class="cls-11" cx="35.79" cy="136.75" rx="1.33" ry="1.32" transform="translate(-104.63 152.97) rotate(-81.92)"/>
    <path class="cls-17" d="M39.58,137.26s-2.25-2.48-4.48-2.08c-3.13.56-3.56,1.92-4.07,3,1.09-1.25,2.56-2.12,4.19-2.47,2.21-.36,4.36,1.55,4.36,1.55Z"/>
    <path class="cls-25" d="M204.21,53.37s-3.26,2.35-4.92,2.69-4.72.36-4.72.36c0,0,3.29-2.89,4.17-3.11s3.73-.04,5.47.06Z"/>
    <path class="cls-25" d="M185.17,58.63s-3.48,2.55-5.56,1.93c-1.25-.38-2.63-.67-2.63-.67,0,0,1.81-1.14,2.86-1.37,1.1-.24,2.9-.38,5.32.11Z"/>
    <path class="cls-37" d="M180.65,58.07c-.71-.19-1.44.24-1.62.94-.03.12-.05.25-.04.37,0,.47.25.91.64,1.16.47.29,1.08.24,1.51-.11.51-.44.64-1.19.31-1.78-.16-.3-.43-.53-.76-.61"/>
    <path class="cls-37" d="M185.27,58.63c-1.12-.46-2.3-.74-3.5-.82-2.73.13-4.49,1.04-4.95,2.13,1.46-.84,3.07-1.36,4.75-1.52,1.24,0,2.48.08,3.71.21Z"/>
    <path class="cls-37" d="M197.66,53.99c.49-.39,1.15-.49,1.73-.28.23.12.41.3.54.52.21.42.2.91-.03,1.31-.29.47-.85.71-1.4.59-.66-.17-1.11-.79-1.07-1.47,0-.11-.14-.28.23-.6"/>
    <path class="cls-37" d="M194.58,56.42c1.09-1.53,2.63-2.68,4.41-3.29,1.99-.49,4.09-.4,6.03.27-1.92-.05-3.85.06-5.75.34-1.64.75-3.21,1.64-4.68,2.69Z"/>
    <path class="cls-37" d="M204.23,53.5s.92.08,1.13-1.08c-.96.64-2.11.96-3.27.9l2.13.18Z"/>
    <path class="cls-37" d="M177.2,59.92c-.4.45-1.08.49-1.52.09-.01-.01-.03-.03-.04-.04,0,0,.94.36,2.16-1.07l-.6,1.02Z"/>
  </g>
</svg>