<svg xmlns="http://www.w3.org/2000/svg" xmlns:xlink="http://www.w3.org/1999/xlink" viewBox="0 0 292.89 301.99"><defs><style>.cls-1{fill:none;}.cls-2{clip-path:url(#clip-path);}.cls-3{fill:#f2ebd1;}.cls-4{fill:#715446;}.cls-5{fill:#9b9a9a;}.cls-6{fill:#c79e81;}.cls-7{fill:#4f2e25;}.cls-8{fill:#27153c;}.cls-9{fill:#a382ad;}.cls-10{fill:#e0e1e0;}.cls-11{fill:#273339;}.cls-12{fill:#774e80;}.cls-13{fill:#13110f;}.cls-14{fill:#975449;}.cls-15{fill:#31160e;}.cls-16{fill:#f1eef7;}.cls-17{fill:#fff;}.cls-18{fill:#263238;}.cls-19{fill:#17353a;}.cls-20{fill:#e79731;}.cls-21{fill:#6c256d;}.cls-22{fill:#db5434;}.cls-23{fill:#4454a5;}.cls-24{fill:#2b7d3d;}.cls-25{fill:#231f20;}.cls-26{fill:#1d6734;}.cls-27{fill:#0a2f44;}.cls-28{fill:#4696a3;}.cls-29{fill:#151210;}.cls-30{fill:#1d170f;}.cls-31{fill:#906143;}.cls-32{fill:#517568;}.cls-33{fill:#162916;}.cls-34{fill:#878787;}.cls-35{clip-path:url(#clip-path-2);}.cls-36{fill:#eaebf4;}.cls-37{fill:#d07ab2;}.cls-38{clip-path:url(#clip-path-3);}.cls-39{fill:#6b2557;}</style><clipPath id="clip-path"><path class="cls-1" d="M236,63.54a35.4,35.4,0,0,0-62-34.18,126.55,126.55,0,1,0,62,34.18Z"/></clipPath><clipPath id="clip-path-2"><path class="cls-1" d="M99.7,150.21l4.22,13.18a17.78,17.78,0,0,1,1.11,5.26c0,2.52-1,4.91-1.58,7.36a8.47,8.47,0,0,0-.18,3.61,3.92,3.92,0,0,0,2.11,2.81c1.8.79,3.88-.32,5.31-1.68,3.75-3.55,5-7.21,6.24-11.5.34-1.17,1.23-1.76,1.45-2.53a5,5,0,0,0-.47-4.55c-.9-1.56-3-1.21-3.74-2.44a4.39,4.39,0,0,1-.47-1.46l-2-10a1,1,0,0,0-.3-.64,1,1,0,0,0-.56-.13,25.18,25.18,0,0,0-11,2.24"/></clipPath><clipPath id="clip-path-3"><path class="cls-1" d="M87.19,177.94l3.45,14.52a19.4,19.4,0,0,1,.77,5.75c-.19,2.7-1.5,5.18-2.31,7.77a9.13,9.13,0,0,0-.49,3.87,4.22,4.22,0,0,0,2,3.19c1.87,1,4.2,0,5.84-1.37,4.32-3.5,4-4.95,6-10.13.65-1.65,5-4,3.33-7.77-.62-1.41-3.15-3-3.84-4.41a4.63,4.63,0,0,1-.38-1.61l-1.32-10.94a1.09,1.09,0,0,0-.27-.71,1.18,1.18,0,0,0-.59-.19,27.34,27.34,0,0,0-12.06,1.5"/></clipPath></defs><g id="Layer_6" data-name="Layer 6"><g class="cls-2"><circle class="cls-3" cx="146.28" cy="153.27" r="126.49" transform="translate(-65.54 148.33) rotate(-45)"/><polyline class="cls-4" points="-25.59 299.19 331.29 299.19 331.29 219.62 -25.59 219.62"/><ellipse class="cls-5" cx="217.58" cy="116.93" rx="7.23" ry="5.22"/><path d="M224.43,117c-.05,2.55-2.41,4.2-4.69,4.72a8.47,8.47,0,0,1-7.61-1.85,4.09,4.09,0,0,1-.42-5.64c1.76-2.14,4.92-2.7,7.52-2.19s5.14,2.19,5.2,5c0,.19.78.06.77-.2-.06-2.82-2.79-4.55-5.28-5.08a9.65,9.65,0,0,0-8.32,1.91,4.31,4.31,0,0,0-.44,6.27c2,2.18,5.36,2.75,8.14,2.24s5.84-2.25,5.9-5.34C225.21,116.65,224.44,116.77,224.43,117Z"/><ellipse class="cls-5" cx="217.58" cy="157.66" rx="7.23" ry="5.22"/><path d="M224.43,157.71c-.05,2.49-2.25,4.13-4.48,4.7a8.58,8.58,0,0,1-7.69-1.66,4.09,4.09,0,0,1-.6-5.68c1.71-2.16,4.88-2.75,7.46-2.27s5.25,2.15,5.31,5c0,.23.78.08.77-.2-.06-2.78-2.72-4.51-5.17-5.08a9.71,9.71,0,0,0-8.3,1.78,4.34,4.34,0,0,0-.68,6.27c1.9,2.24,5.27,2.87,8,2.43s6-2.21,6.11-5.35C225.21,157.31,224.44,157.47,224.43,157.71Z"/><path class="cls-6" d="M138.32,135.83l-5.19-2.19s-7.69,1.28-11.21.44a28.59,28.59,0,0,1-7.17-3.13l-8-1.78s-3.88,1.21-4.35,0,.87-2,2.16-2.82,22-5.4,22-5.4a38.29,38.29,0,0,0-5.76-3.15c-3.09-1.34-3.86-3.68-2.2-4.47,1-.49,5.85.39,6.91,2s5.56,1.18,8.49,3,4.26,6.27,4.26,6.27a25.68,25.68,0,0,0,3.78,2.3C142.24,130.21,138.32,135.83,138.32,135.83Z"/><path class="cls-7" d="M111.15,128.46a2.1,2.1,0,0,1,.87-1.15,6.76,6.76,0,0,1,4.57-.64,14.94,14.94,0,0,1,4.31,1.51,6.67,6.67,0,0,1,1.62,1,8.16,8.16,0,0,1-1.75-.65,18.77,18.77,0,0,0-4.25-1.35,7.13,7.13,0,0,0-4.3.45,2.11,2.11,0,0,0-.88.92c-.13.28-.16.45-.18.47S111.08,128.8,111.15,128.46Z"/><path class="cls-7" d="M120.65,125.8a10.24,10.24,0,0,1,3.08-.31,9.69,9.69,0,0,1-3,.79,10.22,10.22,0,0,1-3.08.31A10.39,10.39,0,0,1,120.65,125.8Z"/><path class="cls-7" d="M125.54,125.74a13.18,13.18,0,0,0-1.08,2.66,4.58,4.58,0,0,1,3-4.8A20,20,0,0,0,125.54,125.74Z"/><path class="cls-6" d="M262,225.81a12.7,12.7,0,0,1,4.87-5.06c1.68-1,3.72-.07,4.27.16,4.07,1.72,6.18,5.09,9.38,8a40.51,40.51,0,0,0,8.1,5.7c3,1.59,6.2,2.39,9.21,3.83l.07,0a7.11,7.11,0,0,1,3.38,3.42c.26.54.52,1.08.8,1.59.4.7.83,1.23.42,2.06-.77,1.53-3.33-.22-4.08-.54a1,1,0,0,0-.44-.07,18.38,18.38,0,0,1-5.38-.53c-.29-.06-.57-.11-.85-.14,0,0,0,0,0,0-1.59-.25-8.77-.58-10.05-.7-2.54-.25-10.31-1.9-10.31-1.9s-10.36-1.44-13.74.64l-4-12.37S261.19,227.79,262,225.81Z"/><path class="cls-8" d="M264.79,180.88c.57,9,4.8,28-22.7,31.86l12.35-3.9,2,21.71S174,243.76,171.6,244c-4.66.37-11.43-10.92-14.42-24.73s8.33-18.41,11.58-21.28,38.59-35.93,53.15-39.5l38.39,17.81Z"/><path class="cls-8" d="M270.91,196.35c-.8,8.93,12.57,24.86-15.19,24.49l3,4.35A26.44,26.44,0,0,1,262.83,246l-.76,3.41s-69.79,7.42-81.67,4.49c-4.65-.34-15.32-7-16.17-21.1s11.05-16.92,14.7-19.26,43.19-12.27,58.13-13.57L253,187.51Z"/><path class="cls-9" d="M279.31,187.51c0-.16-.05-.32-.07-.47-.76-4.64-2.84-9.16-4.81-13.39a59.83,59.83,0,0,0-6.5-11.65,40.34,40.34,0,0,0-8.93-7.91,4,4,0,0,1-1.67-1.78c-.25-.79.28-1.86,1.11-1.78a135.22,135.22,0,0,0-.16-15.2c-.29-4.48-2.07-8.1-3.79-12.26-.15-.38-.31-.76-.47-1.14l-.14-.32c-.18-.44-.37-.89-.56-1.33-.47-1.09-.95-2.16-1.43-3.23-1-2.33-2.06-4.66-3.18-6.94a63.36,63.36,0,0,0-3.58-6.45c-.66-1-1.36-2-2.09-3l-.42-.56-.74-1c-3.15-4-6.22-8.19-6.4-13.52a61.22,61.22,0,0,0-6.07-1.34c-.48,10.35-15.52,16.13-18.85,15.9,0,0-9.59.17-7.25-8.14,0,0-6.95,5-10.39,9.83s-9.57,33.55-9.57,33.55,4.86,13.68,16.11,13c-.61.28-.06.35.25,8.64l-2.12.77L199,171.06l-13,10.79c.86.25,13.48,6.66,14.3,7,2.87,1.05,5.73,2.26,8.49,3.58,5.25,2.52,9.43,6.69,14,10.18a66.12,66.12,0,0,1,12.41,12.49c3.49,4.54,6.57,9.36,9.75,14.12a7.63,7.63,0,0,0,1,1.21,39.09,39.09,0,0,0,8.5-1.52c11.69-3.44,18.63-11.48,22.84-23.18A38,38,0,0,0,279.31,187.51Z"/><path class="cls-9" d="M191.48,130.74l-12.82,14.38L139.4,124.87c-.2,3.44-3.12,8.48-5.74,12.2,0,0,31.86,25.3,36.3,27.63,19.9,10.41,23.57,2.2,27.7-4.12,2.38-3.63,10-16.42,8.18-20.14C205.43,139.59,191.3,130.79,191.48,130.74Z"/><path class="cls-9" d="M212.89,94.4a18.93,18.93,0,0,0-6.13-10.67l-3.67,2.33-5.46,2.88-11.56,5.29c-1.49,1.3-3.43,4.41-4.88,7.2-3.06,6.55-1.75,14.36-2,21.47-.08,2.34-2.1,26.56-.93,26.74,8,1.2,13.47-5.42,19.49.12a54.82,54.82,0,0,1,2.65-10.16c3.57-10.31,8.7-20.09,11.41-30.69C213,104.2,213.78,99.23,212.89,94.4Z"/><path class="cls-10" d="M220.56,87.78A40,40,0,0,1,217,92.51c-1.95,2.24-15.7,16.28-15.7,16.28l5.12,6.74,11.34-3.32Z"/><path class="cls-11" d="M206.38,115.57h0l-5.14-6.75h0c.13-.14,13.77-14.07,15.69-16.29a41.74,41.74,0,0,0,3.6-4.67l.07-.1v.13l-2.88,24.35h0Zm-5.07-6.78,5.09,6.7,11.3-3.3,2.82-24.28A40.3,40.3,0,0,1,217,92.52c-1.92,2.18-15.14,15.75-15.64,16.27Z"/><path class="cls-9" d="M192.14,116.55c.42,4.62-1.35,14.53.8,18.8,1.37,2.72,7.05,3.77,8.87,6.21,3.59,4.85,7.42,9.53,11.34,14.11l.84,1,8,5.84c33.47,16.62,56.82,22.62,56.82,22.62-4.76-14.16-16.44-33.77-16.44-33.77l-.1-18.51c-.35-6.63-.49-13.26-.84-19.88-.3-5.74-.12-12.38-1.91-17.89-2.66-8.19-11.86-11.69-19.42-13.78C239.21,81,222.87,79.59,222,87"/><path class="cls-8" d="M198.23,164.47c1.09,2.19,2.19,4.39,3.29,6.58,0,.07.17.1.24.09,9.54-1.48,19.13-2.66,28.71-3.92,5.13-.67,10.25-1.36,15.36-2.12,3.92-.58,7.51-1.27,10.83-3.57s5.87-5.72,5.94-9.85c0-.31-.58-.24-.59,0-.09,5.08-4,9-8.37,11a28.12,28.12,0,0,1-8,1.94c-3.11.46-6.22.89-9.33,1.32-5.66.76-11.33,1.48-17,2.22-2.83.37-5.66.74-8.49,1.14l-4.27.6-1.94.29a10.25,10.25,0,0,1-2.38.37c-.48-.06,0,.25-.35-.16a3.25,3.25,0,0,1-.34-.67c-.36-.73-.73-1.46-1.1-2.19-.56-1.14-1.13-2.27-1.7-3.4-.12-.25-.67,0-.52.26Z"/><path class="cls-8" d="M186.94,117.56c2.56,3,.92,6.6.37,10a36.33,36.33,0,0,0-.42,9.71,14.61,14.61,0,0,0,2.87,7.71,10,10,0,0,0,2.81,2.36c.93.51,2.43.71,3.05,1.62a11.28,11.28,0,0,1,1.15,3.14,16.91,16.91,0,0,1,.55,6.33s.56,0,.58-.16a17.25,17.25,0,0,0-1.55-9.14,2.62,2.62,0,0,0-1.73-1.29,10.13,10.13,0,0,1-3.34-2c-4.54-4.17-4.34-11.52-3.58-17.11.28-2.07.75-4.08,1.18-6.12a6,6,0,0,0-1.36-5.2c-.11-.13-.61.12-.58.15Z"/><path class="cls-12" d="M226.76,107.18c2.33-2,7.33-17.47,7.33-17.47,3.33-6.46,10.2-5.67,3.34-11.38l-5.94-7.72s4.29-48.68-28.74-46.56c0,0-21.07-.68-22.34,19.94,0,0-.17,13.15,1.82,21.43,1.84,7.67,7.11,21.45,7.11,21.45"/><path class="cls-12" d="M185.84,95.73s2.07.77,4.75,5.93c1.27,3.57,1.73,6.86,4.11,9.87,6.67,8.22,17.61,8.32,27.05,2.55C228.45,110,233.29,92,233.29,92l-2.66-27.71-9.42,4.14s-2,15.87-17.91,17.23-15.08-12.07-15.08-12.07l.51,11.24c.2,3.56-.07,3.7-1.17,5.43A10.14,10.14,0,0,0,186.13,94Z"/><path class="cls-6" d="M182.25,53.43c-.55-3,.06-9.72.06-9.72,0-.31.23-5,.32-5.31,4.34-2.66,10.48-6.37,15.5-5.94s16.07,1.7,17.17,7.62c.33,1.81.89,13.64,2.32,13.76a5.08,5.08,0,0,1,.12.62,37.81,37.81,0,0,0,1.11,4.82,16.31,16.31,0,0,0,1.3-2.7c.17-.61-.12-1.31.06-1.92.6-1.42,2.43-1.29,3.53-.63l.2.24c1.64,1.63,1,7.56.3,9.41.23,3.5-2.53,5.77-4.62,3.54l-.27,1.42L216,73.74c-3,4.07-8.45,10.83-13.95,11.59-3.74.51-5-.19-6.58-1.26-2.34-1.63-3.8-3.63-5.67-5.68a17,17,0,0,1-3.65-5.67,12.67,12.67,0,0,1-1.26-5.89,24.85,24.85,0,0,0-.47-4.09C184.14,61.45,182.81,56.42,182.25,53.43Z"/><path class="cls-13" d="M188.12,60.28a1.23,1.23,0,0,0-1.63,1.1A1.31,1.31,0,0,0,187,62.5a1.2,1.2,0,0,0,1.4,0,1.32,1.32,0,0,0,.41-1.62,1.12,1.12,0,0,0-.66-.62"/><path class="cls-13" d="M192.13,60.83a10.33,10.33,0,0,0-3.18-1c-2.53-.07-4.22.65-4.72,1.63a10.88,10.88,0,0,1,4.49-1.08A33.45,33.45,0,0,1,192.13,60.83Z"/><path class="cls-13" d="M204.26,57.39a1.67,1.67,0,0,1,1.62-.14,1.21,1.21,0,0,1,.46.52,1.29,1.29,0,0,1-.12,1.21,1.21,1.21,0,0,1-1.33.45A1.33,1.33,0,0,1,204,58c0-.1-.11-.27.25-.54"/><path class="cls-13" d="M200.89,59.42a8.36,8.36,0,0,1,4.3-2.74,9.9,9.9,0,0,1,5.55.66,30.6,30.6,0,0,0-5.34-.08A26.4,26.4,0,0,0,200.89,59.42Z"/><path class="cls-13" d="M209.81,53.29c-.34,0-.57-.07-.91-.06a23.2,23.2,0,0,0-10,2.5c-.08-.32-.15-.15-.23-.47s-.21-.86-.31-1.29a32.42,32.42,0,0,1,7.78-1.8,9.68,9.68,0,0,1,2.46.28,12.44,12.44,0,0,1,2.5.81C211.4,53.56,209.81,53.29,209.81,53.29Z"/><path class="cls-13" d="M183.06,57.22c0-.06,0-.12.05-.17h0a7.36,7.36,0,0,1,1.26-.63,25.39,25.39,0,0,1,6.68-.93c.13.6.25,1.2.38,1.81a19.77,19.77,0,0,0-4.21-.08,19.39,19.39,0,0,0-3.94.85c-.06-.12-.12-.24-.17-.37a2,2,0,0,1-.06-.26A1.62,1.62,0,0,1,183.06,57.22Z"/><path class="cls-14" d="M198.55,72.79c2.66-.46,7.13-1.57,7.13-1.57s.41,7.18-5.76,8.25S192,73.74,192,73.74,195.89,73.26,198.55,72.79Z"/><path class="cls-15" d="M198.53,72.8c1.26-.22,6.32-1.32,6.32-1.32s-.7,4.75-5.27,5.55a6.18,6.18,0,0,1-6.81-3.35Z"/><path class="cls-16" d="M198.5,73c1.27-.22,5.08-1.1,5.08-1.1s-1.14,1.66-4.93,2.32-5.24-.52-5.24-.52Z"/><path class="cls-14" d="M191.84,73.62a6.85,6.85,0,0,1,.87-.39,24.17,24.17,0,0,1,2.38-.86,11.61,11.61,0,0,1,2.75,0,10.81,10.81,0,0,1,2.61-.89c.76-.07,2.9-.15,4-.23a10.22,10.22,0,0,0,1.46-.43c.2,0-.13,1.52-7.2,2.75S191.66,73.7,191.84,73.62Z"/><path class="cls-17" d="M219.45,56.59s-6.81-16.08-24-14.19c-9.94,1.09-13.29,10.22-13.29,10.22s-1.34-9.2,2.12-13.32,16.37-6.44,22.76-4.54S219.45,56.59,219.45,56.59Z"/><path class="cls-12" d="M224.37,42.23s-7.82-18.29-24.29-16.58c-20.46,2.16-19.6,23.93-19.6,23.93L183,65.49c-.72-4.09-1.53-7.72-1-11.84-.17-2.34-1.92-8.36,4.08-13.3a18.43,18.43,0,0,1,11.73-3.73c3.82,0,8.26.79,11,3.71a26,26,0,0,1,5.29,8.46c1.72,4.13,2.64,10.34,2.87,14.81.13,4,.88,9.39-4.58,16.91,16.89-8.3,14.78-29,12.48-38.3Z"/><path class="cls-8" d="M211.36,28.1c3.89,2.36,6.89,6.61,8.51,10.77,2.62,6.74,2.07,14.55,1.22,21.59-.22,1.83-.47,3.66-.82,5.48-.06.3.56.22.61,0a78.33,78.33,0,0,0,1.45-15.28c0-7.21-1.63-14.15-6.65-19.56a19.26,19.26,0,0,0-3.84-3.31c-.23-.13-.77.18-.48.36Z"/><path class="cls-8" d="M230.76,70.74a65.24,65.24,0,0,1-1.54,8.07c-1.26,5-3,10.24-6,14.52a13.4,13.4,0,0,1-6.64,5.34c-.35.11-.29.38.07.27,4.86-1.54,7.88-6.1,9.91-10.51a61,61,0,0,0,4.33-14.55c.2-1.07.38-2.15.51-3.23,0-.21-.59-.1-.61.09Z"/><path class="cls-13" d="M210,57.39s.84.14,1.12-.92a5,5,0,0,1-3.08.61Z"/><path class="cls-13" d="M184.59,61.46a1,1,0,0,1-1.45-.06s.84.4,2.07-.84Z"/><path class="cls-8" d="M215.43,75c-1.32,5.39-3.15,11.27-7.52,15a11.21,11.21,0,0,1-9.33,2.68,28.5,28.5,0,0,1-8.41-2.83c-.16-.07-.64.18-.58.21,5.14,2.52,11.29,4.5,16.63,1.46,5.95-3.38,8.28-10.39,9.81-16.64,0-.12-.56,0-.6.11Z"/><path class="cls-8" d="M188.6,93.19A8.18,8.18,0,0,1,193.38,95a45.92,45.92,0,0,1,4.17,4.2c2.29,2.38,4.92,5.49,8.61,4.57.36-.09.29-.36-.08-.27-2.16.54-4.14-.76-5.65-2.17s-2.76-2.83-4.12-4.26A17.06,17.06,0,0,0,192.82,94a8.62,8.62,0,0,0-4-1.12c-.22,0-.66.29-.25.32Z"/><path class="cls-13" d="M197.43,69.07a4.63,4.63,0,0,1-1.91.66,6.23,6.23,0,0,1-1.06.07,1.39,1.39,0,0,1-.68-.21c-.34-.18-.85-.46-1-.85a2.94,2.94,0,0,1,0-1.35c.07-.38.19-.76.25-1.15,0-.1-.29,0-.31.05-.06.38-.18.76-.25,1.14a2.74,2.74,0,0,0,0,1.45,2.27,2.27,0,0,0,1.07.88,2.86,2.86,0,0,0,1.76.14,5.54,5.54,0,0,0,2.27-.75c.17-.11-.1-.14-.19-.08Z"/><path class="cls-13" d="M200.08,66.74c.2,0,.36.19.43.33a1.72,1.72,0,0,1,.19.67.87.87,0,0,1-.11.63,1.41,1.41,0,0,1-.82.52,4.17,4.17,0,0,1-1.36-.09.39.39,0,0,0-.21.06s0,.06,0,.06a5.31,5.31,0,0,0,1.43.1,2.46,2.46,0,0,0,1.07-.5.88.88,0,0,0,.31-.75,2,2,0,0,0-.21-.79.57.57,0,0,0-.67-.34s-.18,0-.18.08.09,0,.12,0Z"/><path class="cls-8" d="M178.52,144.88a7.16,7.16,0,0,1,5.29,5.53c0,.16.62,0,.58-.15a7.31,7.31,0,0,0-5.4-5.63.59.59,0,0,0-.41.07c-.05,0-.2.15-.06.18Z"/><path class="cls-8" d="M240,143.28a10.77,10.77,0,0,1,9.55,5.68c.1.19.66,0,.58-.15a11.14,11.14,0,0,0-9.9-5.85c-.21,0-.62.32-.23.32Z"/><path class="cls-18" d="M133.19,204.7a18.47,18.47,0,0,0-1.85-2.63,11,11,0,0,0-14-2.08,17.47,17.47,0,0,0-2.53,2,2.69,2.69,0,0,1,.55-.68,9.39,9.39,0,0,1,1.84-1.52,10.87,10.87,0,0,1,14.36,2.14,9.46,9.46,0,0,1,1.32,2A3.56,3.56,0,0,1,133.19,204.7Z"/><path class="cls-19" d="M178.44,179.45,170.32,185a14.25,14.25,0,0,0-3.59,3.05,10.72,10.72,0,0,0-1.77,6.65c0,2.44.6,5,2.35,6.73a3.13,3.13,0,0,0,1.56.9,4.06,4.06,0,0,0,2-.32c12.12-4,31.94-11.62,43.81-16.34a6.08,6.08,0,0,0,2-1.13,4.21,4.21,0,0,0,1.16-2.58c.4-3.54-2.34-6.86-5.64-8.21s-14.84,2-18.38,2.47a92,92,0,0,0-14.77,3.06"/><path class="cls-20" d="M122.06,199a39.49,39.49,0,0,1,8.05-3.48,20.2,20.2,0,0,1,19.23,5.28,116.37,116.37,0,0,1-12.81,2.77,19.78,19.78,0,0,1-6.37.22c-3.32-.59-6.15-2.68-8.85-4.71"/><path class="cls-21" d="M142.51,208.11l11.73.54,16.8-2.19c-3-.78-4.58-3.27-7.36-4.58-4.8-2.26-10.09-4.13-15.3-3.22-3.4.59-19.06,6.22-21.76,8.37l8.38.67C138,208,142.51,208.11,142.51,208.11Z"/><path class="cls-22" d="M102.41,205.61c2.87-1.55,4.86-4.3,7.67-6a18,18,0,0,1,5.34-1.91c5.3-1.17,7.56-1.28,12.32,1.31.67.37,5.69,1.32,6.36,1.68,1.15.63,4.87.46,4.35,1.08s-4.72,1.76-5.45,2.1c-3.38,1.55-2.65,3.06-6.38,3.12,0,0-18.28-.94-23.88-1.4"/><rect class="cls-5" x="87.89" y="205.61" width="92.94" height="7.84" rx="3.71"/><path class="cls-5" d="M92.86,213.45l4.81,37A6.38,6.38,0,0,0,104,256h62a6.39,6.39,0,0,0,6.33-5.57l4.78-37Z"/><path class="cls-18" d="M176.91,213.67c0,.11-19.18.19-42.83.19s-42.83-.08-42.83-.19,19.17-.18,42.83-.18S176.91,213.57,176.91,213.67Z"/><rect class="cls-22" x="99.34" y="219.22" width="4.82" height="9.82" rx="2.28" transform="translate(-91.98 72.28) rotate(-27.49)"/><rect class="cls-22" x="112.29" y="219.22" width="4.82" height="9.82" rx="2.28" transform="translate(-90.51 78.26) rotate(-27.49)"/><rect class="cls-22" x="124.35" y="219.22" width="4.82" height="9.82" rx="2.28" transform="translate(-89.15 83.83) rotate(-27.49)"/><rect class="cls-21" x="137.1" y="219.22" width="4.82" height="9.82" rx="2.28" transform="translate(-87.71 89.71) rotate(-27.49)"/><rect class="cls-21" x="149.63" y="219.34" width="4.82" height="9.82" rx="2.28" transform="translate(-86.35 95.51) rotate(-27.49)"/><rect class="cls-21" x="162.16" y="219.22" width="4.82" height="9.82" rx="2.28" transform="translate(-84.9 101.31) rotate(-27.5)"/><rect class="cls-22" x="109.68" y="230.44" width="4.82" height="9.82" rx="2.28" transform="translate(-95.99 78.32) rotate(-27.49)"/><rect class="cls-22" x="122.08" y="230.44" width="4.82" height="9.82" rx="2.28" transform="translate(-94.61 84.07) rotate(-27.5)"/><rect class="cls-23" x="134.47" y="230.44" width="4.82" height="9.82" rx="2.28" transform="translate(-93.19 89.77) rotate(-27.49)"/><rect class="cls-23" x="146.86" y="230.44" width="4.82" height="9.82" rx="2.28" transform="translate(-91.79 95.49) rotate(-27.49)"/><rect class="cls-21" x="159.26" y="230.44" width="4.82" height="9.82" rx="2.28" transform="translate(-90.39 101.21) rotate(-27.49)"/><rect class="cls-24" x="119.41" y="240.37" width="4.82" height="9.82" rx="2.28" transform="translate(-99.51 83.99) rotate(-27.51)"/><rect class="cls-24" x="106.48" y="240.37" width="4.82" height="9.82" rx="2.28" transform="translate(-100.98 78.02) rotate(-27.51)"/><rect class="cls-23" x="131.75" y="240.37" width="4.82" height="9.82" rx="2.28" transform="translate(-98.12 89.69) rotate(-27.51)"/><rect class="cls-23" x="144.09" y="240.37" width="4.82" height="9.82" rx="2.28" transform="translate(-96.74 95.42) rotate(-27.51)"/><rect class="cls-23" x="156.44" y="240.37" width="4.82" height="9.82" rx="2.28" transform="translate(-95.33 101.09) rotate(-27.51)"/><path class="cls-17" d="M121.37,206.12a4.35,4.35,0,0,1-.12-1.48v-.28c-1.16-1.1-3.08-1.18-4.65-1.07a11.76,11.76,0,0,0-5.78,1.83l-.09.06.17,2.13a17.41,17.41,0,0,1-.1,5.2c-.54,2.38-2,4.39-3.12,6.58a8.17,8.17,0,0,0-1,3.36,3.79,3.79,0,0,0,1.37,3.11c1.53,1.14,3.72.55,5.37-.41,4.31-2.52,5.54-4.55,8-8.86.8-1.38,3.18-2.35,3.16-5.33C124.66,207.78,121.8,207.44,121.37,206.12Z"/><path class="cls-25" d="M121.57,206.07c-.12-.51.08-1.38-.13-1.78s-.93-.63-1.25-.75a8,8,0,0,0-3.18-.37,13.12,13.12,0,0,0-6.39,2s-.08.05-.07.1c.2,2.52.64,5.2,0,7.68-.61,2.24-2,4.14-3,6.21-.83,1.7-1.44,3.79-.42,5.55a3.58,3.58,0,0,0,4,1.51c2.93-.55,5.81-2.91,7.63-5.19a38.45,38.45,0,0,0,2.85-4.4c.69-1.17,1.85-1.92,2.59-3.05a4.49,4.49,0,0,0,.2-4.71c-.68-1.09-2.28-1.58-2.74-2.76,0-.12-.43,0-.39.1.39,1,1.59,1.44,2.29,2.18a4.32,4.32,0,0,1,.22,5.3c-.81,1.18-2,2-2.7,3.24a30.9,30.9,0,0,1-2.92,4.41,17.35,17.35,0,0,1-4.41,3.63,5.94,5.94,0,0,1-4.25,1.06,3.23,3.23,0,0,1-2.4-2.63c-.48-2.39,1.06-4.69,2.17-6.67a13.48,13.48,0,0,0,2.06-6.41A41.16,41.16,0,0,0,111,206a3.26,3.26,0,0,1,0-.81c.09-.19.74-.46.91-.56a9.83,9.83,0,0,1,2.29-.84,12.57,12.57,0,0,1,4.32-.37,4.23,4.23,0,0,1,2.11.66c.68.53.41,1.33.6,2.11C121.21,206.28,121.59,206.19,121.57,206.07Z"/><path class="cls-26" d="M174,169.26l-8.13,5.52a14.27,14.27,0,0,0-3.58,3.06,10.63,10.63,0,0,0-1.78,6.64c0,2.44.6,5,2.35,6.73a3,3,0,0,0,1.56.9,4.15,4.15,0,0,0,2-.31c12.12-4.05,31.24-10.72,43.11-15.45a6.08,6.08,0,0,0,2-1.13,4.16,4.16,0,0,0,1.16-2.58c.4-3.54-2.34-6.86-5.64-8.2S193,165.57,189.45,166a91.88,91.88,0,0,0-14.78,3.05"/><path class="cls-6" d="M196.61,158.44l1,5.69,1,4.08s-5.94,3.95-8.09,4.4-7.06,2.1-7.06,2.1a2.88,2.88,0,0,1,.73,1.82,2.83,2.83,0,0,1-1,2L179.93,176c-.11,1.68-1.83,1-1.83,1l-2.5-2.32c0,2.09-2.29,1.26-2.29,1.26l-2.21-3.68a6.4,6.4,0,0,1-1.31,2.2c-.78.73-1.61-.74-1.61-.74l1.46-7.32,8.51-5.85,16.33-1.3Z"/><path class="cls-7" d="M175.17,164a18.92,18.92,0,0,0-4.3,3.93,2.83,2.83,0,0,0-.89,2.15,6.17,6.17,0,0,0,1,2.58c.13.18.66,0,.51-.23a6.2,6.2,0,0,1-.95-2.35c-.21-.93.49-1.7,1.05-2.37a19.5,19.5,0,0,1,3.92-3.5c.3-.21-.16-.35-.36-.21Z"/><path class="cls-7" d="M178.2,167c-.62.49-1.27.93-1.9,1.4a9.32,9.32,0,0,0-2,1.75,1.66,1.66,0,0,0-.37,1,6.1,6.1,0,0,0,0,1.28,3.9,3.9,0,0,0,1.27,2.28c.16.16.68-.05.51-.23a6.08,6.08,0,0,1-.75-.86,2.93,2.93,0,0,1-.46-1.21,5.8,5.8,0,0,1-.07-1.25A1.74,1.74,0,0,1,175,170a29.47,29.47,0,0,1,3.59-2.79c.29-.23-.16-.37-.36-.22Z"/><path class="cls-7" d="M181.3,170.9a14.79,14.79,0,0,0-2.2,1,2.49,2.49,0,0,0-1.23,1.61,2,2,0,0,0,.68,1.8,3.87,3.87,0,0,0,.95.64.8.8,0,0,0,.5.1c.06,0,.32-.06.32-.15s-.16-.07-.22-.06c.22,0,.16,0,.08,0l-.14-.05a3.62,3.62,0,0,1-.43-.24,2.83,2.83,0,0,1-.92-.87,1.83,1.83,0,0,1,.22-2.25,8.22,8.22,0,0,1,2.71-1.48c.08,0,.16-.09.07-.15s-.3,0-.39.07Z"/><polyline class="cls-9" points="219.43 167.88 198.9 170.3 196.14 158.41 202.02 157"/><path class="cls-8" d="M196.46,158.62l14.79-5.13L235,145.27l5.43-1.88c.13,0,.25-.13.23-.29-.52-5-.91-10-1.23-15a187.43,187.43,0,0,1-.37-25.63c.23-3.19.74-7.65,3.4-9.75.3-.25-.16-.47-.39-.28-2.43,1.92-3.14,5.76-3.48,8.67a89.47,89.47,0,0,0-.37,11.34c.07,8.38.61,16.75,1.33,25.09.16,1.92.33,3.84.53,5.76l.23-.29L225.5,148.1l-23.72,8.22-5.43,1.88c-.35.12-.24.54.11.42Z"/><path class="cls-6" d="M113.22,160.14a2.64,2.64,0,0,1-.23-.35c-1,.62-1.93,1.23-2.1,1.08s.72-.86,1.77-1.73a17.18,17.18,0,0,1-.73-2.2,21.54,21.54,0,0,1-2.53,1.81c-.06-.09.56-.78,2.42-2.16a1,1,0,0,0,0-.16,17,17,0,0,1-.56-2.07c-1.6,1.25-3.25,2.76-3.41,2.93.13-.18,1.27-1.62,2.06-2.67.36-.48.85-1.07,1.25-1.63a3.74,3.74,0,0,1,.13-.88,2.34,2.34,0,0,1,.39-.81l-.06-.06c-.74-.49-1.88.65-3.18,1.77l-5.73,4.88a31.62,31.62,0,0,1,.85-3.2c.48-1.91-2.36-.1-2.36-.1a13.7,13.7,0,0,0-2.47,4.82c-.4,1.21-1,3-.81,3.69l-4.16,3.43c.33.32,4.84,5.49,5.23,5.65,0,0,3-3.64,4.44-4,2.13.45,8.55-5.32,10.71-7.2A3.06,3.06,0,0,1,113.22,160.14Z"/><path class="cls-6" d="M30.51,218.82c0,5.62-1.8,17.71,14.8,19l-7.54-1.95-.38,13.66s44-1.43,45.45-1.41c2.8,0,10.76-.88,12-9.64s-4.19-11.19-6.25-12.86-25.13-10.08-34-11.73L33,215.74Z"/><path class="cls-6" d="M30.26,227.55c.33,5.61-.62,17.78,14.85,18.18L38,244.2l-1.32,6.23s32.78,5.92,40.85,5.08A12.31,12.31,0,0,0,90,243.74c.66-8.82-3.44-11-5.44-12.56s-23.91-8.68-32.22-9.85l-20,3Z"/><path class="cls-7" d="M90.25,246.29a18.33,18.33,0,0,0,.56-7.47,9.23,9.23,0,0,0-4.18-6.15c-4.63-3.23-10.24-4.57-15.62-6-.17,0-.65.21-.34.29,5.23,1.4,10.68,2.7,15.22,5.77A9.37,9.37,0,0,1,90.26,239a18.29,18.29,0,0,1-.56,7.39c0,.2.51.12.55-.07Z"/><path class="cls-27" d="M51.45,244.77l23,1.82s.08-11.52,12.17-13.84l-1.19-.61s3.07-5.12,5.29-5.86l.22-.35-23-14.13A33.46,33.46,0,0,0,51.45,244.77Z"/><path class="cls-28" d="M99.67,150.11l4.22,13.18a17.73,17.73,0,0,1,1.12,5.26c0,2.52-1,4.9-1.58,7.36a8.17,8.17,0,0,0-.18,3.61,3.91,3.91,0,0,0,2.1,2.81c1.81.78,3.89-.33,5.32-1.68,3.74-3.55,4.5-5.88,6-10.82.48-1.57,2.66-3.11,1.94-6.11-.77-3.19-3.74-2.87-4.48-4.09a5,5,0,0,1-.47-1.47l-2-10a.92.92,0,0,0-.3-.63.65.65,0,0,0-.55-.13,67.11,67.11,0,0,1-11,2.23"/><path class="cls-6" d="M60.68,141.14a32.42,32.42,0,0,0-.73-6.85c-.06-.92-.14-2-.24-3.26,0-.37-.07-.72-.11-1.07a3.31,3.31,0,0,1-.07-.55c-.81-6.2-3.18-9.25-3.18-9.25A13.77,13.77,0,0,0,43.61,115a18.67,18.67,0,0,0-12.91,8.46,9,9,0,0,0-1.24,6.28,37.61,37.61,0,0,0,1.66,5.9c-2,.11-3.9,1-2.81,4.64,1.51,5,4.95,6.26,6.36,4.7.36,0,1.22,1.51,1.41,2.56.36,2,.63,5.65-.19,7.53l.11.57c5,6.55,9.38,7.24,23.77,1.66l-6.92-4.15-.16-1.35a6.09,6.09,0,0,0,2.44-.6C59.63,149.57,60.65,143.48,60.68,141.14Z"/><path class="cls-7" d="M52.66,151.83A18.22,18.22,0,0,1,42,150.05s.76,1.59,4.38,2.48a14.24,14.24,0,0,0,6.37.18Z"/><ellipse class="cls-25" cx="57.4" cy="132.93" rx="1.23" ry="1.22" transform="translate(-82.27 171.08) rotate(-81.92)"/><path class="cls-29" d="M58.75,131.77a3.94,3.94,0,0,0-2.62-.26c-1.87.35-2.5,2.8-2.5,2.8A4.22,4.22,0,0,1,56.3,132a7,7,0,0,1,3.14.48A1.47,1.47,0,0,0,58.75,131.77Z"/><path class="cls-25" d="M29.91,140.41a2.44,2.44,0,0,1-.17-2l-.12.09h.06a1.69,1.69,0,0,1,.49.23,8,8,0,0,1,2,2.13l.26-.15a1.05,1.05,0,0,0-.75-.15.62.62,0,0,0-.41.69c0,.8.8,1.15,1.52,1.16.06,0,.17,0,.2-.09s0-.11-.09-.11a1.2,1.2,0,0,1-1.3-.86c0-.15-.06-.49.09-.59s.38.05.5.12.35,0,.26-.15a11,11,0,0,0-1.4-1.65,3.81,3.81,0,0,0-.89-.66,1.49,1.49,0,0,0-.47-.13c-.19,0-.26.11-.31.27a2.7,2.7,0,0,0,.22,1.93c0,.12.36,0,.31-.08Z"/><ellipse class="cls-30" cx="44.72" cy="134.29" rx="1.23" ry="1.22" transform="translate(-94.52 159.7) rotate(-81.92)"/><path class="cls-29" d="M48.23,134.77s-2.08-2.3-4.15-1.93c-2.9.52-3.3,1.78-3.77,2.78a7.17,7.17,0,0,1,3.88-2.29C46.24,133,48.23,134.77,48.23,134.77Z"/><path class="cls-31" d="M52.4,143.17c-1.76.17-4.62.24-4.62.24s.23,5,5.09,4.4c4.07-.45,3.71-5.15,3.71-5.15S54.16,143,52.4,143.17Z"/><path class="cls-15" d="M52.42,143.17l-4,.34a3.91,3.91,0,0,0,4,2.53A3.58,3.58,0,0,0,56,143Z"/><path class="cls-16" d="M52.49,143.55c-.84.08-3.39.19-3.39.19a6.65,6.65,0,0,0,3.57.35c2.51-.24,3.15-1,3.15-1Z"/><path class="cls-31" d="M56.56,142.64c0-.09-.19-.12-.61-.11-.7,0-1-.22-1.45-.21a8.24,8.24,0,0,0-1.75.43,7.71,7.71,0,0,0-1.79-.09c-.5.08-1.72.38-2.41.5a5.92,5.92,0,0,1-1,0c-.12,0,.28,1.15,5,.71S56.57,142.76,56.56,142.64Z"/><path class="cls-13" d="M47.53,129.89s-.14,0-.14-.08a13.22,13.22,0,0,0-4.72-.26,4.46,4.46,0,0,0-1.39.63,6.69,6.69,0,0,0-1.34,1.08c-.14.29.75-.19.75-.19a3.52,3.52,0,0,1,.51-.19,10.85,10.85,0,0,1,3.22-.53,15.31,15.31,0,0,1,3.16.91C47.58,130.79,47.49,130.36,47.53,129.89Z"/><path class="cls-13" d="M52.88,129.73s.12-.07.11-.11a10.31,10.31,0,0,1,4-1,3.5,3.5,0,0,1,1.3.4,6,6,0,0,1,1.34.85c.17.27-.67-.06-.67-.06a2.77,2.77,0,0,0-.48-.11,8.27,8.27,0,0,0-2.85,0,11.85,11.85,0,0,0-2.56,1.39C53,130.62,53,130.18,52.88,129.73Z"/><path class="cls-29" d="M33.48,139.34a.32.32,0,0,1,0-.09,4.6,4.6,0,0,0-1.39-1.79,4.14,4.14,0,0,0-1-.56,4,4,0,0,0-1.14-.27,3,3,0,0,0-1.58.2l-.26.14c-1.84-4.27-2.95-8.93-.3-14.69.76-1.66,3-3.65,3.72-4.28,4.19-3.8,8.24-4.48,13.29-4.52,5.87-.06,11.69,3.09,13.65,8.8a10.7,10.7,0,0,1,.88,3.75s-1.71-5.2-4.68-6.57-3.22,1.14-7.17,1.65c-4.58.58-6.35-1.75-9.82.56a9.23,9.23,0,0,0-3.85,5.16c-.3,2-1.07,3.48-.26,5.71.19.53.36,1.07.52,1.62a14,14,0,0,1,.33,3,1.89,1.89,0,0,1-.56,1.37C33.4,138.92,34,139.46,33.48,139.34Z"/><path class="cls-25" d="M33.8,139.26c-.69-2.25-3.79-3.66-5.87-2.48l.47.11a18.26,18.26,0,0,1-1.65-10.41,12.39,12.39,0,0,1,2.37-5.72,24,24,0,0,1,3.08-3.05,17.1,17.1,0,0,1,10.42-3.93A17,17,0,0,1,53,116a13,13,0,0,1,6,10.06l.65-.11A13.34,13.34,0,0,0,56,120a4.43,4.43,0,0,0-3.36-1.19c-1.17.17-2.13,1-3.19,1.49a11.52,11.52,0,0,1-6.53.28,7.46,7.46,0,0,0-4.11.15,9.26,9.26,0,0,0-5.36,6,10.85,10.85,0,0,0-.43,5.44,20.69,20.69,0,0,1,1,4.17,3.87,3.87,0,0,1-.52,2.16,4,4,0,0,0-.17.85l.36-.27h-.19c-.37,0-.5.48-.06.47h.19a.37.37,0,0,0,.35-.26c.15-.62.54-1.16.67-1.79a7.12,7.12,0,0,0-.15-2.6,29.11,29.11,0,0,0-.8-2.91,6.67,6.67,0,0,1,0-3.14c.56-2.77,1.36-5.06,3.81-6.82a6,6,0,0,1,4.94-1,17.35,17.35,0,0,0,4.55.35,9.66,9.66,0,0,0,4-1.27c1.33-.76,2.35-1.12,3.79-.28,2.15,1.23,3.49,4,4.25,6.27.09.26.66.16.65-.11a13.38,13.38,0,0,0-4.92-9.49,15.87,15.87,0,0,0-9.91-3.27c-3.81,0-7.61.56-10.89,2.6-3.05,1.9-6,4.7-7.16,8.14-1.53,4.45-.81,8.84,1,13.08a.33.33,0,0,0,.47.1c1.76-1,4.36.42,4.93,2.27C33.24,139.73,33.89,139.55,33.8,139.26Z"/><path class="cls-13" d="M28.07,137s-5.22-3.38-3-12.9a6.67,6.67,0,0,1,1.55-2.92l.7-.78A9.66,9.66,0,0,1,30,115.25c2.3-2.26,8.55-3.33,11.18-5.36a10.28,10.28,0,0,0,3.22-3.5A9.88,9.88,0,0,1,46.21,110s9-.41,12.2,12c0,0-9.64-9.73-19.34-4.76S28.07,137,28.07,137Z"/><path class="cls-13" d="M43.08,109.35s2.67.19,4.71-2.85c0,0,3,2.85,1.27,5.26"/><path class="cls-13" d="M51.64,140.6a3.52,3.52,0,0,0,1.44.16,4.19,4.19,0,0,0,1.39-.31,1.28,1.28,0,0,0,.75-1.65,5.74,5.74,0,0,0-.32-.53,8.17,8.17,0,0,1-.38-.79s-.25,0-.24.06a14.55,14.55,0,0,0,.68,1.3,1.08,1.08,0,0,1-.07,1.11,1.58,1.58,0,0,1-1.14.64,3.53,3.53,0,0,1-1.88-.07.2.2,0,0,0-.15,0s-.11.05-.08.06Z"/><path class="cls-13" d="M49.46,139.11a.52.52,0,0,0-.5.32,1.56,1.56,0,0,0,0,.68.9.9,0,0,0,.25.58A1.34,1.34,0,0,0,50,141a1.52,1.52,0,0,0,.56-.12c.2-.09.38-.21.58-.28,0,0,.09,0,.07-.06s-.13,0-.15,0-.27.12-.4.18a1.05,1.05,0,0,1-.41.17,1.39,1.39,0,0,1-.78-.16,1.09,1.09,0,0,1-.36-1,1,1,0,0,1,.07-.29.34.34,0,0,1,.06-.12s0,0,0,0,0,0,0,0a.35.35,0,0,0,.17,0s0,0,0,0Z"/><path class="cls-6" d="M39,242.26A7.61,7.61,0,0,0,36.38,239,2.62,2.62,0,0,0,34,239c-2.36,1-3.65,3-5.55,4.66a23.7,23.7,0,0,1-4.76,3.3c-1.74.9-3.6,1.31-5.35,2.12l0,0a4.22,4.22,0,0,0-2,2c-.16.33-.33.65-.5,1s-.51.73-.29,1.25c.39,1,1.88.43,2.31.26a.39.39,0,0,1,.26,0,10,10,0,0,0,3.07-.2l.49-.06v0c.91-.12,4.91-.09,5.65-.13,1.17-.08,1,0,6-1.49,0,0,4.76-1.5,7.49-.55l2.93-6.2S39.44,243.5,39,242.26Z"/><path class="cls-6" d="M47.88,232.83a7.68,7.68,0,0,0-2.77-3.1,2.62,2.62,0,0,0-2.44.1c-2.32,1-3.52,3.12-5.34,4.9a23.57,23.57,0,0,1-4.62,3.49c-1.69,1-3.54,1.47-5.25,2.35l0,0a4.21,4.21,0,0,0-1.93,2.1c-.14.33-.29.66-.45,1s-.47.76-.24,1.27c.44.94,1.9.35,2.32.16a.46.46,0,0,1,.26,0,10,10,0,0,0,3.06-.33,2.78,2.78,0,0,1,.49-.08v0c.9-.16,4.9-.3,5.64-.38a47.82,47.82,0,0,0,6-1.74s5.9-.88,7.83.39l2.28-7.59S48.35,234.05,47.88,232.83Z"/><path class="cls-27" d="M64.79,208.71l-.33-1.53c-5.2.94-8.79-3.91-14-3.32a117.9,117.9,0,0,1-12,1.06,25,25,0,0,1-5.73-.47c-1.19-.27-2.35-.61-3.53-.9l-2.82,5-1.9,5.58c-.61,2.43-.17,6.58-.31,9.08C22.47,251.58,56,244.51,56,244.51s2.38-10.09,3.14-12l1.74-3.71c.83,0,2.86-5.74,5-8.36,4.5-5.61,17,1.09,17,1.09Z"/><path class="cls-32" d="M25.39,187s1.69,12.21-.21,19a101.44,101.44,0,0,0-2.63,16.12s12.89,4,32.51.61c10.79-1.85,16.44-8.83,14.82-13.19a15.21,15.21,0,0,0-2.14-3.11L66.2,183.51Z"/><path class="cls-6" d="M42.6,164.34a25.81,25.81,0,0,0,7.58,6.74c7.22,4.23,19.41,16.53,27.56,16.45,9.52-.09,23.21-17.89,23.21-17.89l-4-5.48-18.12,9.51S65.93,162.27,61,158.18c-2-1.69-2.35-2.07-7.49-2.81-.34-.05-2.52.13-2.73.12"/><path class="cls-32" d="M32.32,203.13a22.6,22.6,0,0,0,5.85.61,110.73,110.73,0,0,0,11.78-1c5.28-.61,10.58-1.11,15.8-2.05l1.1-.63c1-2.72.32-13.85,0-20.88,6-3.06,7.24-12.54,7.24-12.54s-8.8-8.17-11.73-10.46-9.55-3-9.55-3c4.1,3.15-1,5.69-1,5.69-4.77,1.8-13.55.08-15.69-6.05a39.16,39.16,0,0,0-7.77,5.41c-6.77,6.69-6.25,15.56-5.64,19.51.56,3.59,6,18,6.58,24.65C30.3,202.61,31.31,202.88,32.32,203.13Z"/><path class="cls-33" d="M67.09,179.16c0-1.82.07-3.64,0-5.47a37.57,37.57,0,0,0-.57-5.5c0-.14-.42-.05-.39.1a40.7,40.7,0,0,1,.56,5.39c0,1.84-.06,3.69,0,5.53,0,.17.4.09.4-.05Z"/><path class="cls-7" d="M78.63,173.68A3.93,3.93,0,0,0,77,176.84c0,.27.54.2.54,0A3.53,3.53,0,0,1,79,173.92a.16.16,0,0,0,0-.27.35.35,0,0,0-.38,0Z"/><path class="cls-34" d="M85.53,231.92l-13.41-7.14-1.9-1c-.19-.1-.79.19-.67.25L83,231.16l1.91,1c.19.11.79-.18.67-.25Z"/><path class="cls-7" d="M26.41,245.4a14.53,14.53,0,0,0,2.5-2,12.83,12.83,0,0,0,2.14-2.34c.07-.12-.07-.19-.16-.2a.41.41,0,0,0-.37.16,12.93,12.93,0,0,1-2.06,2.25,14.83,14.83,0,0,1-2.41,1.92.14.14,0,0,0,0,.25c.11.08.29,0,.4,0Z"/><path class="cls-7" d="M103.23,168a1.6,1.6,0,0,1-1.26-.38,1.72,1.72,0,0,1-.62-1.18c0-.12-.57,0-.55.14a1.88,1.88,0,0,0,.73,1.3,2.11,2.11,0,0,0,1.6.34c.08,0,.3-.05.32-.15s-.18-.08-.22-.07Z"/><g class="cls-35"><path class="cls-36" d="M101.58,176c1.37-.35,2.77.24,4.1.5a21.92,21.92,0,0,0,3.32.38,21.52,21.52,0,0,0,6.77-.84c.47-.13.36-.57-.12-.43a20.49,20.49,0,0,1-7.39.73,26.43,26.43,0,0,1-3.64-.65,6.51,6.51,0,0,0-3.16-.13c-.47.13-.36.56.12.44Z"/><path class="cls-36" d="M102.22,173.7c1.57-.55,3.35-.16,5-.11a30.7,30.7,0,0,0,4.29-.12,16.74,16.74,0,0,0,7.83-2.74c.44-.31-.21-.55-.52-.34a16.21,16.21,0,0,1-8.31,2.62,35,35,0,0,1-4.22,0,10.74,10.74,0,0,0-4.19.2c-.46.16-.34.68.14.52Z"/><path class="cls-36" d="M102.88,170.68c5.72-1.32,13.27-.11,17.46-5.15.18-.2-.58-.11-.71,0-4,4.79-11.36,3.57-16.83,4.83-.46.11-.39.39.08.28Z"/><path class="cls-36" d="M103.93,167.08c5.58-.57,11.56-1.4,15.69-5.58.33-.34-.43-.4-.65-.18-3.93,4-9.65,4.71-15,5.25-.41,0-.63.56-.09.51Z"/><path class="cls-36" d="M102.11,164c1.54-.2,3.1-.3,4.64-.53a25.45,25.45,0,0,0,4.13-1,16.14,16.14,0,0,0,6.43-3.29c.32-.31-.45-.26-.62-.1-1.72,1.66-4.09,2.47-6.32,3.18a47.58,47.58,0,0,1-8.14,1.38c-.36.05-.67.46-.12.39Z"/><path class="cls-36" d="M101,160.6c4.83-.38,10-1.16,13.83-4.3.14-.12-.57,0-.71.08-3.6,2.92-8.29,3.59-12.77,3.93-.19,0-.86.33-.35.29Z"/><path class="cls-36" d="M100,157.67c4.82-1.41,10.72-1.15,14.34-5.21.16-.17-.58-.08-.71.07-3.44,3.86-9.09,3.56-13.69,4.9-.45.13-.4.37.06.24Z"/><path class="cls-36" d="M99.72,153.7c4.85-.42,9.85-1.11,14-3.82.44-.29-.22-.48-.51-.3-4,2.6-8.78,3.21-13.41,3.62-.41,0-.63.55-.09.5Z"/><path class="cls-36" d="M101.83,178.58a17.63,17.63,0,0,0,11.37.79c.47-.13.36-.58-.12-.44a16.52,16.52,0,0,1-10.63-.76.62.62,0,0,0-.56.07c-.09.07-.25.27-.06.34Z"/></g><path class="cls-6" d="M101,154.74a4.81,4.81,0,0,1,3.2-.63,3.72,3.72,0,0,1,1.32.38,2.35,2.35,0,0,1,.94,1,1.15,1.15,0,0,1,.12,1c-.23.51-.91.59-1.47.61a4.42,4.42,0,0,0-1.91.36,2,2,0,0,0-.91,1.8"/><path class="cls-6" d="M112.79,150.74s-4.23,1.56-2.74,3.28,4.26-.74,4.07-1.51S113.44,150.47,112.79,150.74Z"/><path class="cls-6" d="M114.3,157.21s-4.23,1.56-2.73,3.28,4.25-.74,4.07-1.51S115,156.93,114.3,157.21Z"/><path class="cls-6" d="M113.59,153.92s-4.41,1.63-2.85,3.42,4.43-.77,4.24-1.58S114.26,153.63,113.59,153.92Z"/><path class="cls-7" d="M102.24,159a21.29,21.29,0,0,1,1,2.65c.21.66.66,2-.25,2.3a.21.21,0,0,0-.13.29c.09.12.26.09.38.05,1-.37.93-1.49.69-2.32a21.65,21.65,0,0,0-1.16-3.12c-.12-.25-.66-.1-.55.15Z"/><path class="cls-37" d="M87.19,177.94l3.45,14.52a19.4,19.4,0,0,1,.77,5.75c-.19,2.7-1.5,5.18-2.31,7.77a9.13,9.13,0,0,0-.49,3.87,4.22,4.22,0,0,0,2,3.19c1.87,1,4.2,0,5.84-1.37,4.32-3.5,4-4.95,6-10.13.65-1.65,5-4,3.33-7.77-.62-1.41-3.15-3-3.84-4.41a4.63,4.63,0,0,1-.38-1.61l-1.32-10.94a1.09,1.09,0,0,0-.27-.71,1.18,1.18,0,0,0-.59-.19,27.34,27.34,0,0,0-12.06,1.5"/><g class="cls-38"><circle class="cls-39" cx="90.93" cy="206.14" r="1"/><circle class="cls-39" cx="91.94" cy="212.71" r="1"/><circle class="cls-39" cx="93.73" cy="209.35" r="1"/><circle class="cls-39" cx="89.04" cy="210.08" r="1"/><circle class="cls-39" cx="95.66" cy="205.41" r="1"/><circle class="cls-39" cx="96.68" cy="211.98" r="1"/><circle class="cls-39" cx="98.46" cy="208.62" r="1"/><circle class="cls-39" cx="94.63" cy="198.92" r="1"/><circle class="cls-39" cx="97.44" cy="202.13" r="1"/><circle class="cls-39" cx="92.75" cy="202.86" r="1"/><circle class="cls-39" cx="99.37" cy="198.19" r="1"/><circle class="cls-39" cx="100.38" cy="204.76" r="1"/><circle class="cls-39" cx="102.17" cy="201.4" r="1"/><circle class="cls-39" cx="98.32" cy="191.57" r="1"/><circle class="cls-39" cx="101.12" cy="194.78" r="1"/><circle class="cls-39" cx="96.44" cy="195.5" r="1"/><circle class="cls-39" cx="103.05" cy="190.84" r="1"/><circle class="cls-39" cx="104.07" cy="197.41" r="1"/><circle class="cls-39" cx="105.86" cy="194.05" r="1"/><circle class="cls-39" cx="91.7" cy="196.24" r="1"/><circle class="cls-39" cx="93.63" cy="192.3" r="1"/><circle class="cls-39" cx="94.65" cy="198.87" r="1"/><circle class="cls-39" cx="92.61" cy="185.81" r="1"/><circle class="cls-39" cx="95.41" cy="189.02" r="1"/><circle class="cls-39" cx="90.73" cy="189.74" r="1"/><circle class="cls-39" cx="97.34" cy="185.08" r="1"/><circle class="cls-39" cx="100.15" cy="188.29" r="1"/><circle class="cls-39" cx="96.29" cy="178.46" r="1"/><circle class="cls-39" cx="99.1" cy="181.67" r="1"/><circle class="cls-39" cx="94.41" cy="182.39" r="1"/><circle class="cls-39" cx="101.03" cy="177.73" r="1"/><circle class="cls-39" cx="89.56" cy="183.19" r="1"/><circle class="cls-39" cx="87.68" cy="187.12" r="1"/><circle class="cls-39" cx="93.24" cy="175.84" r="1"/><circle class="cls-39" cx="87.36" cy="179.38" r="1"/><circle class="cls-39" cx="89.11" cy="175.96" r="1"/><circle class="cls-39" cx="91.36" cy="179.77" r="1"/><circle class="cls-39" cx="97.98" cy="175.11" r="1"/><circle class="cls-39" cx="102.04" cy="184.3" r="1"/><circle class="cls-39" cx="103.83" cy="180.93" r="1"/></g><path class="cls-6" d="M29.84,183.24c5,6.9,19,21.18,23,21.79,9.35,1.45,30-8.68,30-8.68L81,190.28l-24.85,2.38S40.1,172.9,38.36,169.78c0,0-3.21-6.17-9.13.29"/><path class="cls-6" d="M100.34,188.13a.49.49,0,0,0,.18-.2c.44-.88-.77-1.66-1.6-1.1a20.58,20.58,0,0,1-3.57,2.09c-.29,0-2.25,0-4,.1a1.57,1.57,0,0,1-1.52-.77,1.18,1.18,0,0,1-.33-.68l-.09-.6a10.3,10.3,0,0,1-.53-1.74,16.18,16.18,0,0,0-2.7,1.08,30.47,30.47,0,0,0-4,3.84l-4.65.7,1.22,7,4.41-1.2,4.44.62s8.32-.53,9.27-1.24a9.51,9.51,0,0,0,1.9-3c1.4-.74,1.39-2.75,1.39-2.75C102.09,188.33,100.34,188.13,100.34,188.13Z"/><path class="cls-7" d="M91.77,191.36a4.9,4.9,0,0,0,1.43.21,8.36,8.36,0,0,0,3.51-.37,7,7,0,0,0,2.74-2,4.24,4.24,0,0,0,.8-1.1,6,6,0,0,0-1,.95,8.15,8.15,0,0,1-2.69,1.88,9.54,9.54,0,0,1-3.36.44A6.85,6.85,0,0,0,91.77,191.36Z"/><path class="cls-7" d="M92.31,193.13a3,3,0,0,0,1.3.26,10.16,10.16,0,0,0,1.46,0,4.86,4.86,0,0,0,1.76-.4,7.84,7.84,0,0,0,1.42-1l1-.88a4.47,4.47,0,0,0,.91-.88,4.61,4.61,0,0,0-1.09.7c-.31.23-.69.51-1.1.83a8,8,0,0,1-1.37.92,4.83,4.83,0,0,1-1.63.41c-.47,0-.94.08-1.4.09C92.81,193.18,92.32,193.13,92.31,193.13Z"/><path class="cls-7" d="M93.14,195.17A11.3,11.3,0,0,0,96.4,195a1.64,1.64,0,0,0,.67-.27,3.65,3.65,0,0,0,.5-.34,5.47,5.47,0,0,0,.75-.68c.39-.43.53-.75.49-.77s-.26.24-.68.61a8.59,8.59,0,0,1-.76.59,5.14,5.14,0,0,1-.49.32,1.27,1.27,0,0,1-.51.2c-.91.1-1.7.22-2.29.31A4.9,4.9,0,0,0,93.14,195.17Z"/><path class="cls-7" d="M56.06,192.56a3.5,3.5,0,0,0-2.87,2.85c0,.27.49.21.54,0A2.93,2.93,0,0,1,56,193c.12,0,.28-.08.29-.22s-.13-.2-.24-.18Z"/><path class="cls-32" d="M34.32,190.09c6.49-1.58,11.07-7.19,15.15-12.47a4.52,4.52,0,0,0,.88-1.53c.4-1.51-.82-2.93-1.94-4a52.49,52.49,0,0,0-9-7.6,17.92,17.92,0,0,0-11.26-2.92,1.8,1.8,0,0,0-1.69,1.15c-1.83,3.42-1.31,7.6-.42,11.38,1.35,5.75,3.51,11.48,7.47,15.87"/><path class="cls-33" d="M47.35,180.5a5.48,5.48,0,0,0,1.71-2.15c.45-.81.65-1,.14-1.9a28.15,28.15,0,0,0-2.26-2.89,40.61,40.61,0,0,0-3.35-3.72c-1.13-1.12-2.33-2.18-3.48-3.29a11.08,11.08,0,0,0-3-2.27,8.47,8.47,0,0,0-7.4.14c-.24.13.13.13.23.07a8,8,0,0,1,8.56,1A64.54,64.54,0,0,1,44,170.73a38.76,38.76,0,0,1,2.61,3,33.47,33.47,0,0,1,2.16,2.75,1.84,1.84,0,0,1,.41,1.05,2.73,2.73,0,0,1-.38.74A5.6,5.6,0,0,1,47,180.48c-.17.1.23.07.31,0Z"/><path class="cls-33" d="M36.08,189.48a16.66,16.66,0,0,1-1.85.46,1.81,1.81,0,0,1-1.51-.54l-.87-.74a22.55,22.55,0,0,1-3.09-3.46,22.2,22.2,0,0,1-3.66-8.3c0-.18-.43-.08-.39.11a22.19,22.19,0,0,0,4.19,9,21.92,21.92,0,0,0,3.35,3.46c.55.44,1,.89,1.77.76s1.43-.34,2.13-.52c.25-.06.18-.32-.07-.26Z"/></g></g></svg>