<?xml version="1.0" encoding="UTF-8"?>
<svg id="Layer_6" data-name="Layer 6" xmlns="http://www.w3.org/2000/svg" xmlns:xlink="http://www.w3.org/1999/xlink" viewBox="0 0 292.89 301.99">
  <defs>
    <style>
      .cls-1 {
        fill: none;
      }

      .cls-2 {
        fill: #87664e;
      }

      .cls-3 {
        fill: #151312;
      }

      .cls-4 {
        fill: #2f1644;
      }

      .cls-5 {
        fill: #603b8a;
      }

      .cls-6 {
        fill: #010101;
      }

      .cls-7 {
        fill: #638e9f;
      }

      .cls-8 {
        fill: #231f20;
      }

      .cls-9 {
        fill: #1e1811;
      }

      .cls-10 {
        fill: #27153c;
      }

      .cls-11 {
        fill: #070808;
      }

      .cls-12 {
        fill: url(#linear-gradient);
      }

      .cls-13 {
        fill: #f1eef7;
      }

      .cls-14 {
        fill: #7c4c2a;
      }

      .cls-15 {
        fill: #51626a;
      }

      .cls-16 {
        fill: #060606;
      }

      .cls-17 {
        fill: #662817;
      }

      .cls-18 {
        clip-path: url(#clippath-1);
      }

      .cls-19 {
        fill: #a76328;
      }

      .cls-20 {
        fill: #c7c6c5;
      }

      .cls-21 {
        fill: #fff;
      }

      .cls-22 {
        fill: #f79325;
      }

      .cls-23 {
        fill: #4f2f26;
      }

      .cls-24 {
        fill: #14162a;
      }

      .cls-25 {
        fill: #b98354;
      }

      .cls-26 {
        fill: #311811;
      }

      .cls-27 {
        fill: #523936;
      }

      .cls-28 {
        fill: #a38166;
      }

      .cls-29 {
        fill: #161412;
      }

      .cls-30 {
        fill: #6d3918;
      }

      .cls-31 {
        fill: #453b1c;
      }

      .cls-32 {
        fill: #814a41;
      }

      .cls-33 {
        clip-path: url(#clippath);
      }
    </style>
    <clipPath id="clippath">
      <path class="cls-1" d="M198.03,32c-2.89-18.99-19.29-33.53-39.09-33.53-16.94,0-31.39,10.66-37.02,25.63C58.93,35.68,11.2,90.87,11.2,157.21c0,74.76,60.6,135.36,135.36,135.36s135.36-60.6,135.36-135.36c0-56.53-34.66-104.96-83.88-125.21Z"/>
    </clipPath>
    <linearGradient id="linear-gradient" x1="98.3" y1="270.38" x2="204.61" y2="21.33" gradientUnits="userSpaceOnUse">
      <stop offset=".06" stop-color="#d3c293"/>
      <stop offset=".66" stop-color="#f2ebd1"/>
      <stop offset=".91" stop-color="#f2ebd1"/>
    </linearGradient>
    <clipPath id="clippath-1">
      <path class="cls-1" d="M-87.11,61.91c-13.28-13.28-28.63-23.21-45.01-29.82C-142.11,13.14-161.99.22-184.9.22s-44.41,14-53.95,34.22c-14.33,6.53-27.77,15.68-39.56,27.47-52.82,52.82-52.82,138.47,0,191.29,52.82,52.82,138.47,52.82,191.29,0,52.82-52.82,52.82-138.47,0-191.29Z"/>
    </clipPath>
  </defs>
  <path class="cls-29" d="M215.54,82.54c-.84.4-1.76.61-2.69.59-.71.07-1.43-.07-2.07-.41-.58-.33-.87-1-.73-1.64.09-.28.2-.56.33-.83.17-.42.3-.85.4-1.29.03-.16-.31-.04-.33.09-.17.66-.39,1.3-.66,1.92-.17.43-.12.91.12,1.3.68,1.14,2.19,1.14,3.35,1.05.83-.06,1.65-.28,2.4-.66.22-.06.1-.27-.05-.18l-.07.05Z"/>
  <path class="cls-29" d="M218.77,80.07c.59-.07.73.84.74,1.25.04.27-.03.54-.19.76-.29.29-.69.46-1.1.48-.52-.03-1.03-.12-1.53-.27-.08,0-.16.02-.23.06,0,0-.15.12-.09.12.5.15,1.01.25,1.53.28.49-.04.97-.21,1.38-.49.31-.2.52-.53.55-.9.02-.33-.02-.66-.12-.97-.09-.32-.32-.61-.7-.56-.09,0-.17.03-.25.07,0,0-.1.11.02.08l-.02.07Z"/>
  <g class="cls-33">
    <circle class="cls-12" cx="146.61" cy="157.21" r="135.36"/>
    <path class="cls-25" d="M160.84,233.08c2.57,3.32,1.28,3.42,3.32,7.06.43.75,3,.75,3.42,1.5l3.53,1.82c3.53-2.46,9.63-9.63,17.12-18.73l8.45-11.66c9.95-11.88,10.49-12.2,10.06-18.4s-1.71-6.74-1.71-6.74c-4.49-.11-18.4,4.92-22.79,10.81l-4.39,4.49-19.26,27.18c.64.75,1.71,1.82,2.25,2.68Z"/>
    <path class="cls-25" d="M161.68,237.48c1.88-2,1.31-4.3,2.88-6.42l-5.72-4.97c-8.19-7.53-37.31-28.46-37.31-28.46l-7.81,7.64s20.94,27.88,36.82,38.51c8.43,1.97,8.9-3.9,11.14-6.29Z"/>
    <path class="cls-25" d="M180.85,232.76s-3.1,10.59-9.74,13.27-15.3-2.25-15.3-2.25l8.56-17.01,16.48,5.99Z"/>
    <path class="cls-25" d="M149.99,197.46c5.79.15,13.75,7.87,19.54,7.91l5.63-48.5c-15.46-1.25-21.62-.78-34.01-2.96-1.5,9.33-2.85,34.01-2.7,38.75,3.96.11,7.57,4.69,11.53,4.8Z"/>
    <path class="cls-25" d="M160,206.43c-4.78,4.66-5.08,13.76-9.96,18.3,17.3,14.39,42.33,15.55,67.55,30.25l6.12-15.93-57.07-41.75c-1.52,1.49-5.13,7.64-6.64,9.13Z"/>
    <path class="cls-25" d="M138.48,181.82s-5.68,15.86-3.5,26.02c1.79,8.41,16.67,18.2,16.67,18.2l14.16-25.16-27.34-19.06Z"/>
    <path class="cls-4" d="M176.89,197.23l-10.91,18.83s8.67,7.7,13.16,15.41c0,0,10.81-11.24,18.62-10.59,6.31.54-1.28-23.65-7.81-30.39-1.28-1.39-8.56,1.07-13.05,6.74Z"/>
    <path class="cls-5" d="M181.92,228.37c-.96-1.28-1.82-2.68-2.35-4.17-.86-1.5-1.93-2.89-3.1-4.07-2.25-2.57-4.6-5.03-7.06-7.28-.32-.32-1.93.32-1.71.64,2.46,2.25,4.92,4.71,7.06,7.28,1.28,1.28,2.25,2.68,3.1,4.28.54,1.39,1.28,2.78,2.25,3.96.54.32,2.14-.32,1.82-.64h0Z"/>
    <path class="cls-27" d="M191.55,217.78h0l.11-.11-.11.11Z"/>
    <path class="cls-27" d="M205.89,269.03h0l-.11-.21.11.21Z"/>
    <path class="cls-27" d="M185.99,225.69h0l.11-.21-.11.21Z"/>
    <path class="cls-31" d="M235.21,179.9l-5.35-.86-.96,5.24,9.1,2.46c-1.39-2.03-2.35-4.39-2.78-6.85Z"/>
    <path class="cls-31" d="M235.1,171.76l-2.78-.64-.43-.11c-.21,0-.43,0-.54.11s-.11.21,0,.32c0,0,.11,0,.11.11l2.78.64.43.11c.21,0,.43,0,.54-.11.11-.21.11-.32-.11-.43.11,0,0,0,0,0Z"/>
    <path class="cls-19" d="M234.78,169.95l-2.03-.54-.32-.11c-.21-.11-.43,0-.54.11s-.11.21,0,.32h.11l2.03.54.32.11c.21.11.43,0,.54-.11.11,0,.11-.11-.11-.32.11.11,0,.11,0,0Z"/>
    <path class="cls-31" d="M236.06,168.88l-2.78-.64-.43-.11c-.21,0-.32,0-.54.11-.11,0-.21.11-.11.21l2.78.64.43.11c.21,0,.32,0,.54-.11.11,0,.21-.21.11-.21h0Z"/>
    <path class="cls-19" d="M235.63,167.06l-2.03-.54-.32-.11c-.21-.11-.43,0-.54.11s-.11.21,0,.32c0,0,.11,0,.11.11l2.03.54.32.11c.21.11.43,0,.54-.11.11-.11.11-.32-.11-.43.11,0,0,0,0,0Z"/>
    <path class="cls-19" d="M230.82,174.76c.32-.11.64-.11.96-.21.11,0,0,0,0,0h.21c.11,0,.21.11.43.21.21.21.43.43.54.64.21.64.11,1.28-.32,1.71-.21.21-.43.32-.64.32h-.11l-.21-.11-1.07-.32h-.21s-.11.11,0,.11l1.07.32c.11.11.32.11.43.11.96,0,1.71-.86,1.71-1.71v-.32c-.11-.64-.64-1.18-1.28-1.28-.21,0-.43,0-.64.11l-.54.11c-.11,0-.21.11-.21.11,0,0-.11.11-.11.21h0Z"/>
    <path class="cls-31" d="M230.93,176.04c0,.21.11.54.43.54h.54c.21,0,.32-.11.43-.21.21-.21.21-.54.11-.75-.21-.21-.43-.32-.75-.21-.21,0-.43.11-.54.21-.21.11-.21.32-.21.43h.21q.11,0,.21-.11s.11,0,.11-.11,0-.21.11-.32l.11-.11h-.11.11c.11,0,.11.11.21.21.11.21.11.43,0,.54,0,0,0,.11-.11.11h0c-.21-.11-.32-.32-.32-.54h-.32q-.11,0-.21.11c.11.11,0,.21,0,.21Z"/>
    <path class="cls-30" d="M231.78,173.16c1.61.11,2.78,1.5,2.68,3.1v.11c-.11.75-.54,1.5-1.18,1.93-.54.43-1.18.54-1.82.43l-1.28-.43c-.11,0-.43.21-.21.21l1.39.43c.75.11,1.39,0,2.03-.43,1.5-.86,2.03-2.68,1.18-4.17,0-.11-.11-.11-.11-.21-.54-.75-1.5-1.28-2.46-1.28-.32.11-.53.32-.21.32h0Z"/>
    <path class="cls-31" d="M243.87,139.77c-.21,2.89-.75,5.78-1.71,8.56-1.18,3.85-2.57,7.6-4.07,11.34-1.18,2.89-2.14,5.89-2.89,8.88-.64,3.42-.86,6.96-.43,10.38.11,2.57,1.07,5.03,2.57,7.17.11.21.86-.11.75-.21-1.5-1.93-2.35-4.28-2.57-6.63-.43-3.42-.32-6.96.32-10.38,1.61-6.85,4.92-13.16,6.96-19.9.86-2.89,1.93-6.1,1.93-9.2-.11-.32-.86-.11-.86,0h0Z"/>
    <path class="cls-11" d="M201.72,165.34c-2.14.86-4.49,1.18-6.63,2.03-2.35.75-4.17,2.57-4.92,4.92-.32,1.28-.32,2.57-.11,3.85.32,2.14.75,4.17,1.39,6.21.11.43.32.75.64,1.07.64.54,1.61.11,2.25-.21,1.61-.86,3.1-1.82,4.6-2.78,2.25-1.5,4.6-3.42,5.35-6.21.64-2.46-.11-5.03-.86-7.38"/>
    <path class="cls-11" d="M226,183.43c0-.54.96-1.28.21-1.5-6.74-1.93-12.31-6.1-17.44-10.59-3.53-3-7.6-5.78-10.27-9.63s-2.46-8.88-1.5-13.16c1.5-6.53,4.82-12.52,9.52-17.33,5.14-4.82,10.49-5.78,18.62-5.03,11.02.96,23.97,9.1,26.22,20.33,1.07,5.46.64,11.24-.11,16.69-.75,6.53-1.61,14.55-7.28,18.83-5.14,3.64-12.09,2.68-17.98,1.39Z"/>
    <path class="cls-25" d="M197.76,154.54c.21-.11.32-.54.43-.75.32-.96.54-2.03.64-3.1.32-1.5,1.18-4.28,1.61-5.78l.64-1.71c3-6.96,5.89-8.56,5.89-8.56,5.67-4.71,13.38-6.1,20.33-3.64,8.24,2.78,14.12,10.17,16.37,16.48,1.18,3.1,1.07,6.53-.11,9.63-1.18,2.89-2.68,5.56-4.28,8.13,2.89.75,5.03,2.35,2.25,7.38-3.75,6.85-9.1,6.85-10.17,3.53-1.5.32-3.32,3.64-3.96,5.14-1.18,2.89-2.57,7.81-1.93,10.81l2.57,4.71c-3.85,3.32-17.87,19.58-23.54,20.97-5.24,1.28-6.21-.64-10.27-5.56-2.25-2.78-.11-18.08-1.5-23.65l8.67-2.89,1.07-3.32c-.86-.32-1.82-.64-2.57-1.18-6.1-3.85-5.78-13.27-5.14-16.8.64-3,1.5-7.49,3-9.84h0Z"/>
    <path class="cls-5" d="M247.41,247.31c-.32-1.07.11-11.02-1.61-19.69,0,0,2.03.43,2.14.43,0-2.78-4.71-2.57-4.49-5.24.21-2.57.43-5.14.75-7.6s.64-5.24,1.28-7.7c.75-3.21.86-4.39,1.5-7.6-1.61-1.39-8.24-6.63-10.49-7.81-4.6-2.35-6.31-4.17-10.38-5.78,0,0-7.49,9.74-16.37,10.91l-2.03,12.95h-1.61l.32-12.84c-3.32-.43-5.24-3.42-6.42-6.63-.32-1.5-.21-3.1.43-4.49-4.39.54-8.67,1.82-12.73,3.85-8.45,13.59-8.67,33.71-8.67,49.22v8.24c-.96,18.51-6.63,141.88-6.85,147.56,4.39-.21,5.03,3.21,12.41,3s7.28-2.89,11.45-2.68,9.84,3.32,17.01.43,11.77-3.85,17.23-.96,6.53,2.68,14.66,0,8.77,3.32,14.34-.96c-1.82-17.55-11.56-145.42-11.88-146.59Z"/>
    <path class="cls-23" d="M202.57,182.36c5.24,1.93,10.91,2.14,16.26.75,0,0-1.61,2.03-7.17,2.25-3.21.11-6.42-.43-9.42-1.71l.32-1.28Z"/>
    <path class="cls-11" d="M235.42,169.2s0-.11.11-.11c.64-.96,1.5-1.61,2.57-2.14.54-.21,1.07-.43,1.61-.54s1.18-.11,1.71,0c.75,0,1.61.32,2.25.75l.32.32c3.96-5.67,7.06-11.98,4.92-21.19-.64-2.68-3.32-6.21-4.07-7.38-4.92-6.85-10.59-8.99-17.87-10.7-8.45-1.93-17.87.86-22.47,8.56-1.07,1.82-3.32,4.39-3.85,6.42,0,0,5.46-8.35,10.17-9.42s4.28,2.68,9.84,4.6c6.42,2.25,9.74-.64,14.12,3.85,2.35,2.35,3.75,5.35,3.96,8.67-.21,3.1.43,5.35-1.39,8.35-.43.75-.86,1.39-1.28,2.14-.64,1.39-1.07,2.78-1.39,4.28-.11.75,0,1.5.43,2.14.64.86-.43,1.5.32,1.39Z"/>
    <path class="cls-8" d="M240.02,172.3c.64-.75.96-1.61.96-2.57,0-.21,0-.43-.21-.54s-.54-.11-.75,0c-.54.11-.96.32-1.5.64-.96.64-1.93,1.28-2.78,2.14-.11.11.11.21.21.21.21-.11.43-.11.64-.11.32.11.32.54.21.86-.32.86-1.18,1.28-2.03.96h0c-.11,0-.21,0-.32.11s-.11.11,0,.21c1.07.43,2.35-.21,2.78-1.28.11-.43.11-.96-.32-1.07-.32-.11-.75-.11-1.07,0l.21.21c.75-.64,1.5-1.28,2.35-1.82.43-.32.86-.54,1.39-.64.21-.11.43-.11.64-.11h.11c-.11-.21,0,.11,0,.21,0,.96-.32,1.93-.96,2.57-.11.11.11.11.11.11.11,0,.21-.11.32-.11h0Z"/>
    <circle class="cls-9" cx="219.71" cy="159.01" r="1.82"/>
    <path class="cls-11" d="M241.95,159.89c1.07-2.25,1.82-4.71,2.25-7.17.43-3.32-.11-6.74-1.71-9.74-1.28-2.57-3.1-4.82-5.24-6.63-3.21-2.25-4.71-3.85-11.88-5.03-3-.54-3.32-1.07-6.42-.86l-4.92,1.39c-.21,5.78,15.19,20.76,20.33,25.04-.54,2.25-.96,4.6-1.28,6.96-.21,1.07-.21,2.14.11,3.21.32,1.5,1.07,2.57,2.14,2.35s2.78-2.78,3.42-3.53c1.28-1.82,2.46-3.85,3.21-5.99Z"/>
    <path class="cls-29" d="M217.51,151.74c0-.11.23,0,.23-.11,2.56.21,5.13.86,7.46,1.82.7.43,1.28.96,1.87,1.5.58.64,1.17,1.39,1.52,2.14.12.43-1.05-.64-1.05-.64-.23-.21-.47-.32-.7-.54-1.4-.96-3.03-1.71-4.78-2.25-1.75-.21-3.61-.32-5.36-.11.23-.53.58-1.18.82-1.82Z"/>
    <path class="cls-29" d="M208.67,148.54c0-.11-.21-.11-.11-.21-1.82-1.07-3.75-1.82-5.89-2.14-.64,0-1.39.11-2.03.43-.75.21-1.5.64-2.14,1.07-.32.43.96,0,.96,0,.21,0,.54-.11.75-.11,1.39-.11,2.89,0,4.28.43,1.28.64,2.57,1.5,3.64,2.46.21-.64.32-1.28.54-1.93Z"/>
    <ellipse class="cls-22" cx="236.61" cy="155.19" rx="4.28" ry="1.6" transform="translate(-43.69 116.49) rotate(-25.4)"/>
    <path class="cls-11" d="M239.38,177.11c-2.14.86-4.49,1.18-6.63,2.03-2.35.75-4.17,2.57-4.92,4.92-.32,1.28-.43,2.57-.11,3.85.32,2.14.75,4.17,1.39,6.21.11.43.32.75.64,1.07.64.54,1.61.11,2.35-.21,1.61-.86,3.1-1.82,4.6-2.78,2.25-1.5,4.6-3.42,5.35-6.21.64-2.46-.11-5.03-.86-7.38"/>
    <path class="cls-11" d="M197.65,180.65c.21,1.93-.11,3.85-.75,5.67-.75,2.35-2.57,4.28-4.82,5.24-1.61.64-3.42.64-5.03,0-.21,0-.43-.11-.54-.32-.11-.11-.21-.32-.21-.54-.86-3.42-1.82-5.35-.54-8.67.43-.96,1.07-1.93,1.71-2.78,1.07-1.07,3.21-1.18,4.71-1.5"/>
    <path class="cls-11" d="M190.8,190.38c.11,1.93-.11,3.85-.64,5.67-.64,1.93-2.03,3.42-3.85,4.07-1.39.43-2.78.43-4.17-.11-.11,0-.32-.11-.43-.21s-.11-.21-.21-.43c-.75-2.78-1.61-4.28-.54-6.85.21-.54.54-.96.86-1.28,1.28-.96,2.78-1.61,4.39-1.93"/>
    <path class="cls-11" d="M184.27,200.33c-.11,1.71-.32,5.03-1.93,5.56s-3.21.75-4.71,1.61c-.96.64-1.93,1.5-2.68,2.46.21-2.57.75-5.14,1.39-7.7.54-1.28,1.39-2.46,2.35-3.42,1.07-.64,2.35-.96,3.64-1.18.64,0-.54.32,0,.54s.43.64.32,1.28"/>
    <path class="cls-29" d="M204.18,161.06c-.21.32-.54.64-.86.96-.32.43-.64.86-.75,1.39,0,.54.21,1.07.54,1.5.11.21.32.43.54.54.32.21.75.43,1.07.54.86.32,1.71.54,2.68.43.21,0,.21-.21,0-.21-.75,0-1.5-.11-2.25-.32-.64-.11-1.28-.54-1.71-.96-.21-.21-.32-.54-.43-.75-.11-.21-.11-.43-.11-.64.11-.54.32-.96.64-1.28.21-.32.64-.64.86-1.07.11-.21-.21-.21-.21-.11h0Z"/>
    <path class="cls-29" d="M211.02,165.34c.54.11.32.96.21,1.39-.11.21-.21.43-.43.64h-.54c-.21,0-.43,0-.64-.11-.43-.21-.75-.43-1.18-.75h-.21c-.11,0-.11.11-.11.11.32.32.75.54,1.18.75.43.11.86.21,1.39.11.32-.11.64-.32.86-.64.11-.32.21-.54.21-.86s0-.64-.43-.75h-.21s-.11.11,0,.11h-.11Z"/>
    <ellipse class="cls-17" cx="212.5" cy="151.21" rx=".86" ry=".64" transform="translate(-1.97 299.61) rotate(-70.12)"/>
    <path class="cls-7" d="M154.59,173.78c2.89.13-1.55-3.35,1.34-3.33.24-.3-2.99,13.07-2.45,13.11,4.79.49,8.09,3.55,25.47.98,2.06-17.55,3.03-49.46,1.58-58.16-2.37-14.47-28.34-29.23-30.2-30.14,0,0-1.32,52.28,3.58,72.64.19,1.63.49,3.26.68,4.89Z"/>
    <path class="cls-15" d="M27.52,249.45c-1.18,7.7-1.82,15.41-1.71,23.11.21,14.34,3.53,27.07,7.81,40.55l10.06,62.6s0,27.18-3.1,49.65c-2.68,19.47,4.17,54.46,4.17,54.46l7.49,1.28c6.85,1.18,13.7,1.39,20.54.64l14.77-1.5,13.91-115.24,10.17-70.62,13.91-42.37-94.05-21.61c-1.61,6.21-3,12.63-3.96,19.05Z"/>
    <path class="cls-15" d="M137.19,247.95l-9.63,126.26c0,5.46-2.46,10.38-5.24,36.59l-5.35,44.73-1.93,19.47-4.28.64c-5.89,1.07-11.88,1.39-17.87.96l-12.95-.32,14.55-224.38,42.69-3.96Z"/>
    <path class="cls-25" d="M130.43,52.78s-3.53,11.85-6.6,17.93c-2.56,5.16-6.95,8.99-12.47,10.8l27.64,39.27,19.89-16.32s-4.94-9.31-4.46-11.2,5.37-12.02,5.37-12.02"/>
    <path class="cls-7" d="M152.77,210.89l.85-2.51c-.11,0,.31-1.16.2-1.16l20.71-62.31,1.44-21.78s-3.74-9.53-3.94-11.05l-16.22-15.8s-.91.68-5.59,6.74c-2.04,2.63-3.09,12.95-6.69,12.34-.11-6.66-2.38-13.07-6.47-18.24,0,0-18.26-14.46-17.93-18.52-8.2.52-34.68,2.78-41.55,6.74-8.1,4.61,4.16,26.96,9.34,39.83l-22.87-5.28s-6.16,29.78-14.28,50.59c-.27.73-3.23,9.4-3.62,10.23-.95,2.5-1.64,5.66-2.42,7.32.21.02-3.22,9.29-4.17,11.79-4.66,15.19-12.2,26.07-13.3,33.06-1.46,8.79,53.2,29.85,73.89,34.09,20.38,4.22,33.03,5.6,39.29,3.01l7.18-25.6c3.59-13.88,1.11-14.9,6.15-33.49Z"/>
    <path class="cls-24" d="M177.76,139.37c-7.19,14.56-10.94,30.46-16.57,45.68-.13.31.62.26.76-.05,5.52-15.23,9.38-31.02,16.46-45.58.24-.3-.51-.36-.64-.05h0Z"/>
    <path class="cls-6" d="M113.22,284.44c-5.78,4.07-8.77,10.81-9.84,17.66-.75,4.71-.54,9.42-.75,14.12l-.86,15.09-2.57,47.19c-.32,6.42-1.07,12.84-1.82,19.26l-5.35,48.26-3.75,34.24-.11.54c-.11.64,1.82.32,1.93-.21l3.1-28.57,5.46-49.54c.75-6.96,1.82-13.91,2.14-20.87l2.35-44.19,1.07-19.26c.43-8.67-.21-17.76,3.75-25.79,1.5-3.1,3.85-5.89,6.63-7.92.32-.21.11-.54-.21-.64-.43.11-.86.32-1.18.64h0Z"/>
    <path class="cls-23" d="M155.42,91.62c-3.64-1.47-7.02-3.47-10.15-5.87-7.04-5.83-13.1-19.95-13.1-19.95-.24,4.27.39,8.51,1.78,12.49,2.34,6.95,4.21,9.04,8.98,11.14,2.29.94,7.54,3.62,11.35,4.35l1.14-2.16Z"/>
    <path class="cls-25" d="M39.02,183.54c5.57,1.77,11.07,11.23,16.67,12.79l18.31-45.26c-14.64-5.31-20.63-6.5-31.99-11.92-3.99,8.57-11.83,32.12-12.89,36.61,3.8,1.27,6.08,6.63,9.9,7.79Z"/>
    <path class="cls-7" d="M74.65,162.71l12.59-30.97,6.89-49.47s-24.99-.3-35.35,14.97c-5.49,8.14-17.03,34.05-23.67,51.23,20.64,11.65,29.59,13.77,39.53,14.25Z"/>
    <path class="cls-10" d="M86.83,90.27c4.77,2.1,6.39,8.57,6.65,13.31.1,4.09-.33,8.13-1.3,12.13-2.27,10.77-5.48,21.35-9.32,31.67-1.93,5.32-4.09,10.73-6.44,15.9l.56-.28c-1.4,0-2.89-.13-4.26-.45-.43-.03-1.11.45-.37.61,1.48.33,2.97.45,4.47.47.21.02.44-.07.56-.28,4.47-10.16,8.32-20.58,11.54-31.27,1.6-5.24,3-10.6,4.18-15.87.97-4,1.41-8.15,1.43-12.34-.24-5.06-2.06-11.76-7.14-14-.3-.24-1.09.23-.57.38h0Z"/>
    <path class="cls-25" d="M139.08,12.15s6.62-7.52,18.94-5.88c9.24,1.28,25.28,8.7,30.31,14.15,4.34,4.75,6.39,11.25,5.66,17.63l-54.91-25.9Z"/>
    <path class="cls-25" d="M143.61,85.08l11.57,4.26,6.25,1.04c.62.26,5.52-4.6,6.22-5.19,2.52-1.94,4.73-4.13,6.85-6.42,1.91-2.42,4.62-4.03,6.37-7.11,1.26-2.26,2.03-3.92,2.29-8.4.09-1.07.5-2.21,1.22-3.12,1.45-2.03,2.73-4.61,4.57-7.36.36-.51.73-1.01.88-1.54,0,0,5.4-11.05,4.03-18.03-.96-5.34-1.57-8.5-4.51-10.67s-12.76-5.54-12.76-5.54l-12.5-7.45-13.6.94-11.45,11.53-5.84,16.49-4.23,15.12"/>
    <path class="cls-20" d="M136.41,19.99l.27-.73c.81-2.08,3.25-4.35,6.76-6.65.91.72,1.83,1.33,2.86,1.84-.37.61-.65,1.34-.81,2.08l-8.14,22.32c-.42,1.25-1.52,8.14-1.83,9.41l-6.33-2.77c-.13-5.06-.4-10.98-.6-12.5-.36-2.18,6.59-9.77,7.81-13Z"/>
    <path class="cls-25" d="M160.84,88.41c-.11,0-.1-.12-.2-.12-.86-1.36-.82-1.78-1.32-2.25l-.61-.37c-1.64-.99-2.55-1.6-8.43-.57-.11,0-5.86-3.26-5.96-3.27l-2.46-2.78c-.38-.57-7.89-15.24-7.89-15.24-.07-.44-1.1-3.63-1.08-3.95l-.1-.12h-.11c-.12.09-.13.3-.14.41-.26.62-.32,1.26-.37,1.9-.08.96-.26,1.91-.45,2.86l-.09,1.07c.96,1.37,4.96,15.64,8.8,20.03,1.11.84,2.34,1.58,3.68,2.23,4.62,2.63,9.63,4.32,14.94,5.07,1.39.11,2.82-.31,3.86-1.3,2.8-2.78,9.21-9.03,12.06-13.73-2.55,2.37-8.01,7.51-11.73,10.97-.74-.17-1.48-.33-2.21-.61"/>
    <path class="cls-25" d="M129.65,55.83c-7.22,2.96-4.66-6.07-4.66-6.07-1.68-5.82.31-10.5,1.74-13.6s4.85-1.54,4.85-1.54c2.77,1.62,3.46,3.71,1.6,14.73"/>
    <path class="cls-20" d="M145.95,16.14c-1.01,4.53-1.86,11.12-7.83,17.19-3.04,3.08-2.55-4.29-5.37-2.58s-4.05,2.36-4.05,2.36c2.94-11.14,2.82-10.94,9.36-20.18l7.9,3.21Z"/>
    <path class="cls-32" d="M131.61,46.22c.04-1.82-.25-3.56-.54-5.3-.14-.87-.51-1.65-.88-2.43-.19-.34-.38-.57-.69-.81-.31-.13-.76.15-1,.46-1.16,1.09-1.82,2.54-2.04,4.02-.02.21.52.15.54-.06.21-1.27.62-2.42,1.46-3.42.25-.41.59-.7.93-.89l-.44.07c.3.24.5.47.69.7.66,1.13.99,2.33,1.1,3.63.21,1.41.32,2.71.42,4.11-.02.21.52.15.44-.07h0Z"/>
    <path class="cls-32" d="M130.31,46.33c-1.86-.9-2.12,2.3-2.63,3.33,0,.11-.23.2-.24.3s.11,0,.11,0c0,0-.11,0-.1-.12s-.09-.22-.08-.33c-.05-.76,0-1.4.17-2.13.18-.95.47-1.79.86-2.61.5-.93,1.36-2.25,2.44-2.27.32.03.46-.39.03-.43-1.08.13-2,.8-2.51,1.84-.49.71-.87,1.43-1.03,2.17-.28.84-.47,1.79-.54,2.75-.03.32-.09,1.07.21,1.41s.75.06.88-.25c.24-.3.38-.72.41-1.15.15-.52.31-1.16.56-1.67.25-.41.39-.83.9-.57.41.25.87-.14.56-.28h0Z"/>
    <path class="cls-20" d="M170.35,39.69c-.28.84-.45,1.57-.73,2.41-.16.63-.59,1.99-.75,2.62-1.74-1.11-3.14-2.29-4.27-2.92-2.27-1.15-4.52-2.51-7.07-2.83-1.16-.2-2.35-.19-3.45.15-.33.08-1.45.63-1.85.28-.2-.12.41-1.04.52-1.14,1.21-1.73,3.07-2.11,5.2-1.94,4.27.34,8.46,1.54,12.4,3.36"/>
    <path class="cls-20" d="M190.6,50.88l-1.11-.84c-3.13-2.4-6.75-4.19-10.63-5.26-.38.72-.65,1.45-1.04,2.28-.26.52-.77,1.55-1.03,2.17,1.8.25,3.51.39,4.68.59,2.33.4,4.62,1.23,6.67,2.47l1.11.84c1.14-.87,1.55-1.91,1.36-2.25Z"/>
    <path class="cls-20" d="M129.95,22.9c-.4-.35.89-.36.61-.92s-.12-1.19.24-1.59c.46-.39.82-.9.88-1.54.26-.52,1.31-.22,1.14-.87-.23-1.09,1.01-1.85,2-2.2-.29-.45.25-.41.18-.95-.17-.55.09-1.17.65-1.45.33-.08.66-.16.99-.24.99-.35,1.29-1.4,1.27-2.47l.96.08c.43.03.84.18,1.25.42l.21.02-11.39,22.7c-.52-.15-.93-.5-1.33-.86-.39-.46-.35-.99.01-1.5.58-.6,1.95-.16,2.23-1-.35-.99-2.04-1.35-1.95-2.41-.04-.86,1.06-1.2,1.93-1.35-.27-.67-.31-.13-.92-.61s-.25-2.17.31-2.55.63.16.7-.69Z"/>
    <path class="cls-20" d="M145.75,14.62h0l.2.12h0c.2.12.41.25.61.48.2.12.4.35.61.48h0l.1.12.29.35.19.34.1.12.1.12c.1.12.09.22.19.34v.11c-.24.2-.47.39-.6.7-.27.73-.54,1.35-.91,1.97-.47.5-1.37.96-1.2,1.62.08.33.49.58.57.9.46.9-1,1.74-1.08,2.7-.04.53.45,1.11.51,1.65.01,1.18-1.63,1.59-2.15,2.72-.52,1.14.03,2.26-.57,3.07-.35.4-.91.68-1.26.97-.82.9-.42,2.54-1.35,3.43-.35.29-.79.47-1.13.66-1.37,1.07-.94,3.68-2.2,4.65l2.48-18.69,6.52-8.92Z"/>
    <path class="cls-20" d="M134.05,47.92l1.03.51c.1.12.2.12.31.13.33-.08.26-.52.27-.73.17-.74.64-1.24,1.21-1.73.57-.38.84-1.11.79-1.87-.08-.33-.48-.68-.35-.99s.79-.47,1.14-.77c.57-.38.73-1.12.34-1.58-.1-.12-.09-.22-.2-.23.8-.58,1.4-1.39,1.48-2.35.36-1.8.52-3.82.52-3.82l-1.95-2.41-4.61,15.84Z"/>
    <path class="cls-16" d="M149.13,41.95l-.11,2.67c-.21,2.56-.09,5.15.35,7.65.29,1.74,10.01,6.28,12.4,5.94s5.71-5.55,6.76-6.65l3.83,1.81c-.36,1.8-1.26,7.63-.7,8.64s5.04,2.77,5.56,2.92,1.04.41,1.67.56c1.78.57,3.98,1.18,4.88.72,1.33-.54,3.84-3.66,6.02-6.71l.36-.51.12-.2h0l.36-.51c-4.64-4.99-12.26-7.65-18.08-6.08v.11s-3.73-1.8-3.73-1.8c-3.17-4.66-10.09-9.3-16.31-9.37h0l-16.7-1.89-.65,1.45,13.96,1.23ZM172.21,61.84c-.27-.67.28-4.81.74-7.88,5.04-1.2,11.93,1.18,16.2,5.39v.11c-1.21,1.62-4.45,5.87-5.68,6.41-1.65.51-10.71-3.01-11.27-4.02h0ZM150.65,52.37c-.59-3.27-.75-6.72-.27-10.01,5.6-.19,13.91,4.56,17.09,9-1.67,2.01-4.12,5.79-5.86,6.08-2.5.44-10.74-3.87-10.97-5.07h0Z"/>
    <path class="cls-20" d="M152.1,67.63c.22-.09,0,0,0,0h0c.31.13.62.26.84.28.43.03.86-.04,1.31-.22.12-.1.23-.2.34-.19l.12-.1h0s-.42-.14-.44.07.2.23.2.23c.2.23.29.35.5.47.52.26,1.16.31,1.71.14.11,0,.44-.07,0-.11s-.32-.03-.12.2c.09.22.4.35.61.48.63.16,1.27.21,1.95-.16-.11,0,.44-.18.44-.18l-.54.06.1.12c.2.23.4.35.71.49.62.26,1.38.22,2.05-.16.34-.19.69-.59.29-.94-.52-.26-1.06-.19-1.51.09.57-.38,1.07.09.67-.27-.1-.12-.2-.23-.3-.24-.2-.23-.52-.26-.84-.28-.43-.03-.86.04-1.3.11-.21-.02-.33.08-.44.18l-.12.1.53.04c0-.11-.39-.46-.38-.57-.3-.24-.61-.37-.93-.4s-.54.06-.86.04c-.11,0-.22.09-.33.08l.21.02q.11,0,0,0c-.11,0-.39-.46-.5-.47-.2-.12-.52-.26-.72-.38-.63-.16-1.4,0-1.96.38-.12.1-.23.2-.35.29-.23.2-.12.2.32.03.53.04.65-.05.34-.19-.2-.12-.52-.15-.84-.18-.75-.06-1.51.09-2.08.48-.34.19-.69.59-.18.95.42.14.96.08,1.53-.31h0Z"/>
    <path class="cls-20" d="M165.57,70.97l-.43-.03s.11,0,.1.12c-.1-.12.1.12.1.12,0,0,.2.23.39.46.29.35.6.58,1.01.73.11,0,.21.02.2.12s0,0,0,0c.09.22.18.44.28.56.51.36,1.14.52,1.8.36q.21.02,0,0c.21.02.11,0-.2-.12,0,0,.02-.21,0,0s.08.33.06.54c.18.44.47.79,1,.94.21.02.43.03.42.14l-.03.32c-.03.32.06.54.26.77l.2.12h.11c-.11,0-.1-.11-.09-.21-.18.84,1.98.7,2.15-.04.03-.32-.06-.54-.27-.67-.11,0-.1-.12-.2-.12-.1-.12,0,.11,0,0l.03-.43c0-.11-.09-.22-.19-.34-.2-.23-.4-.35-.71-.49l-.31-.13s-.2-.12-.21-.02c-.1-.12-.09-.22-.18-.44.04-.53-.35-.99-.88-1.04l-.64-.05-.44.07-.21-.02h.11q.11.02.2.13s-.11,0-.1-.12c-.08-.33-.17-.55-.47-.79-.2-.12-.41-.25-.73-.27.11,0-.1-.12-.11,0l.24-.3c-.1-.12-.29-.35-.39-.46-.39-.46-.92-.61-1.45-.65-.43-.03-1.09.23-1.23.65s.49.58.81.6h0Z"/>
    <path class="cls-20" d="M147.71,18.32c.13-.31.27-.73.3-1.05s-.15-.76-.46-.9c-.11,0-.31-.13-.41-.25-.09-.22-.06-.54.06-.75.23-.2.26-.52.38-.72-.06-.54-.59-.69-1.12-.73-.54.06-.97.03-1.48-.23-.61-.37-.43-1.32-.93-1.79s-1.57-.45-2.41-.73c-.31-.13-.73-.27-1.04-.41-.53-.04-.98.14-1.33.54-.35.4-.6.81-.75,1.33l-.04.53c.09.22.29.35.61.48l7.96,3.76"/>
    <path class="cls-14" d="M161.65,73.02c-3.84-1.6-9.93-4.67-9.93-4.67,0,0-2.71,9.66,6.23,13.28s12.12-5.14,12.12-5.14c0,0-4.57-1.87-8.42-3.47Z"/>
    <path class="cls-26" d="M161.65,73.02c-1.87-.79-8.08-3.66-8.08-3.66,0,0-.91,5.94,5.74,8.62,7.17,2.94,10.02-1.77,10.02-1.77l-7.69-3.2Z"/>
    <path class="cls-13" d="M161.62,73.34c-1.87-.79-7.24-3.38-7.24-3.38,0,0,1.15,2.99,6.66,5.26s8.08.97,8.08.97l-7.5-2.86Z"/>
    <path class="cls-14" d="M172.54,76.36c-.74-.17-1.58-.34-2.31-.62-1.44-.76-2.23-1.58-3.27-2.09-1.86-.9-3.39-.6-4.11-.98s-1.69-1.64-3.68-2.23c-1.15-.41-3.99-1.07-5.67-1.53-.73-.27-1.45-.65-2.06-1.13-.32-.03-.62,2.31,9.57,6.46s11.84,2.24,11.53,2.11Z"/>
    <path class="cls-20" d="M162.71,69.24l-.88,1.65c-.12.2-.46.39-.67.37-1.9-.37-9.09-1.81-10.65-2.36,0,0-.06.75-.17.74l-.42-.14c-.61-.37.61-2.21,1.26-2.26,1.62-.08,3.23-.06,4.83.07,2.13.17,4.36.57,6.45,1.17.31.13.5.47.36.89-.09-.22-.1-.12-.1-.12Z"/>
    <path class="cls-20" d="M164.75,70.47l-.56,1.57c-.02.21.06.54.27.67,1.32.97,5.8,4.01,7.14,4.66h.11s.43.04.43.04c.52.15.74-1.23.35-1.69-.78-.92-1.68-1.85-2.68-2.69-1.3-1.18-2.72-2.15-4.26-3.03-.41-.25-.76.05-.79.47Z"/>
    <path class="cls-20" d="M172.02,76.21c.14.98-.16,1.92-.86,2.72q-.12.1-.23.2c-.12.1-.32-.03-.42-.14-.1-.12-.2-.23-.19-.34-.26-.77.13-1.6-.02-2.36-.09-.22-.07-.44.05-.64s.33-.08.44-.07l.84.28"/>
    <path class="cls-20" d="M153.55,68.28c-.77.26-1.45.63-1.93,1.24-.46.39-.83,1.01-1.48,1.06l-.53-.04c-.11,0-.21-.02-.31-.13s-.09-.22-.08-.33c.03-.43.18-.95.53-1.25,0,0,.12-.1.12-.2l.02-.21c-.08-.33.05-.64.18-.84.46-.39,1-.46,1.53-.31s1.05.3,1.58.34"/>
    <path class="cls-7" d="M145.54,117.02c-.27-.67-10.34-16.83-10.34-16.83l-9.57,5.45-3.27-3.38c-8.62-8.96-14.46-24.36-14.46-24.36l11.74-5.81c1.75,6.26,18.61,24.8,18.61,24.8l7.38,17.56,6.05-15.08c1.85-1.68,3.17-5.97,3.17-5.97l2.54.42,5.77,7.01c-1.81,7.8-4.7,8.96-4.7,8.96l-6.09-5.64c-2.14,3.91-4.49,7.8-6.43,11.83-3.6,7.33-3.95,16.96-5.88,24.97-4.24,17.91-5.98,36.87-13.15,53.79,0,0-11.05,29.17-13.85,37.21"/>
    <path class="cls-10" d="M163.2,100.41c-1.46-1.84-3.03-3.68-4.49-5.52-.29-.35-.67-1.02-1.08-1.27-.84-.28-1.79-.47-2.76-.44-.32-.03-.65.05-.78.37-.3,1.05-.7,1.98-1.21,3.02-.52,1.14-1.34,1.93-1.96,3.06-.65,1.34-1.19,2.8-1.74,4.26l-3.8,9.45c-2.26-5.31-4.35-10.68-6.73-15.99-.63-1.45-2.15-2.64-3.23-3.91-2.95-3.35-5.78-6.8-8.51-10.24-1.55-2.06-3.11-4.01-4.44-6.16-1.06-1.48-1.89-3.16-2.62-4.83-.08-.33-.62-.26-.84-.18l-11.63,5.72c-.12.1-.23.2-.24.3,1.78,4.55,3.89,9.01,6.34,13.18,2.07,3.6,4.37,7.01,7.13,10.13,1.37,1.61,2.87,3.02,4.36,4.54.2.23.53.04.76-.05l8.97-5.11c1.63,2.58,3.25,5.16,4.78,7.73,1.13,1.92,2.38,3.73,3.52,5.65.68.91,1.24,1.93,1.8,2.94.03.03.06.05.09.07-1.33,3.13-2.26,6.45-2.82,9.8-.75,4.02-1.29,7.95-2.15,11.96-.88,4.22-1.85,8.33-2.73,12.55-1.66,8.56-3.1,17.14-5.18,25.56-1.58,6.31-3.58,12.38-6,18.41-3.01,8.02-6.02,16.05-9.04,24.18-2.89,7.82-5.56,15.65-8.13,23.6-2.53,8.04-5.15,16.07-7.49,24.13h.75c.12,0,.21.04.3.1,2.07-6.77,4.16-13.62,6.33-20.37,2.47-7.96,5.04-15.91,7.93-23.73,3.18-8.76,6.58-17.61,9.86-26.36,1.64-4.38,3.38-8.64,4.7-13.04,2.29-8.4,4.26-16.83,5.7-25.41,1.53-8.25,3.58-16.46,5-24.72.53-3.93,1.28-7.84,2.24-11.74.53-1.69,1.14-3.32,1.8-4.93.04-.04.06-.09.06-.15.97-2.33,2.08-4.59,3.39-6.74,1-1.74,1.99-3.48,2.92-5.22l5.57,5.16c.2.12.42.14.64.05,1.01-.56,1.84-1.46,2.46-2.49.75-1.33,1.4-2.68,1.84-4.15.3-1.05,1.04-2.28.37-3.19ZM108.34,78.01c-.05-.15.08-.1,0,0h0ZM162.19,102.26c-.46,1.68-1.01,3.25-1.89,4.79-.38.72-.87,1.43-1.56,2.02-.05.04-.17.13-.29.22l-5.74-5.32c-.31-.13-.75-.06-.87.14-2.1,3.92-4.49,7.72-6.42,11.76-.39-.68-.79-1.34-1.25-1.96-1.13-1.92-2.37-3.84-3.52-5.65-1.71-2.71-3.43-5.43-5.03-8.14-.2-.23-.63-.16-.85-.07l-9.04,5.06c-2.1-2.14-4.19-4.38-6.07-6.71-2.91-3.88-5.48-7.96-7.59-12.31-.83-1.68-1.55-3.35-2.39-4.92-.35-.99-.7-1.99-1.26-3-.03-.05-.05-.09-.06-.12.18-.07.37-.14.52-.27l3.58-1.75,6.72-3.36c1.1,3.31,3.58,6.26,5.61,8.97,2.82,3.66,5.75,7.23,8.69,10.69,1.08,1.27,2.17,2.43,3.14,3.69.4.35.69.7.98,1.15.46.9.92,1.9,1.27,2.89l2.35,5.45,3.77,8.85-.1.25.19-.03.02.04c.18.44.96.08.98-.14l4.32-10.92c.44-1.47.98-2.82,1.62-4.16.24-.3.7-.69.95-1.1.49-.71.88-1.54,1.26-2.26.33-.7.58-1.42.82-2.19.61.06,1.22.14,1.82.32.05.03.11.08.17.16.2.23.49.58.69.81l4.1,5.05c.2.23.5.47.59.69.09.22-.18.95-.22,1.38Z"/>
    <path class="cls-10" d="M37.12,143.47c9.2,5.68,19.27,9.93,29.78,12.71,4,.97,8.04,1.51,12.12,1.52.53.04.9-.57.16-.63-7.53.14-14.86-2.06-21.84-4.66-5.62-2.17-11.11-4.65-16.34-7.65-1.03-.51-2.06-1.13-3.08-1.75-.31-.13-1.2.23-.79.47h0Z"/>
    <path class="cls-7" d="M101.07,123.94s12.94,5.98,23.11,7.66c-.41,1.15-.52,3.82-2.26,4-1.72-.03-3.31-.27-4.98-.83-1.68-.46-3.25-1.01-4.92-1.58-3.86-1.39-7.61-2.76-11.46-4.36-1.15-.41-1.03-.51-.74-1.46l.58-1.89c.11,0,.66-1.56.66-1.56Z"/>
    <path class="cls-10" d="M100.73,124.24c7.34,3.49,15.18,6.06,23.21,7.67l-.3-.24c-.27.73-.34,1.58-.62,2.31s-.65,1.34-1.61,1.37c-.75-.06-1.49-.12-2.23-.29-3.05-.78-6.08-1.78-9.11-2.88-2.92-1.09-5.83-2.19-8.75-3.28-.52-.26-1.16-.31-1.1-.95.17-.74.33-1.48.71-2.09.26-.62.42-1.25.58-1.89.03-.43-.84-.28-.86.04-.19,1.06-.61,2.21-1.01,3.25-.29.94-.43,1.36.49,1.86,3.62,1.69,7.49,2.97,11.25,4.24,1.88.69,3.75,1.38,5.65,1.85,1.46.55,2.94.77,4.45.79,2.37-.13,2.56-2.48,3.13-4.26,0-.11-.2-.23-.3-.24-7.92-1.61-15.66-4.16-23-7.65-.3-.24-.98.14-.57.38Z"/>
    <path class="cls-25" d="M214.34,261c3.32,2.57,2.03,3,4.82,6.1.54.64,3.1,0,3.64.64l3.85.96c2.89-3.21,7.17-11.56,12.31-22.26l5.56-13.27c6.96-13.91,7.38-14.23,5.56-20.22-1.28-3.85-3.53-7.17-6.74-9.74-4.39.86-13.38,12.63-16.16,19.37l-3.21,5.46-12.41,30.92c.64.53,2.03,1.39,2.78,2.03Z"/>
    <path class="cls-25" d="M217.87,261.54c.86-2.57-.64-4.39,0-7.06l-7.28-2.14c-10.59-3.53-45.69-10.49-45.69-10.49l-3.96,10.27s30.6,16.8,49.43,19.8c8.45-1.71,6.42-7.28,7.49-10.38Z"/>
    <path class="cls-4" d="M246.55,199.37s8.03,4.82,4.82,22.68c-3.21,17.87-4.82,16.59-4.82,16.59,0,0-16.91-.86-24.72-5.89-2.68-1.71,1.93-16.59,5.99-23.33,2.35-3.96,6.21-6.53,9.84-9.31,1.71-1.07,4.6-1.39,8.88-.75Z"/>
    <path class="cls-14" d="M206.53,170.48c2.57.86,6.85,1.82,6.85,1.82,0,0-2.46,5.89-8.45,4.07s-5.14-8.24-5.14-8.24c0,0,4.17,1.5,6.74,2.35Z"/>
    <path class="cls-26" d="M206.42,170.48c1.18.43,6.21,1.71,6.21,1.71-1.93,1.93-4.82,2.57-7.38,1.71-4.82-1.5-4.92-5.56-4.92-5.56l6.1,2.14Z"/>
    <path class="cls-13" d="M206.32,170.59c1.18.43,5.03,1.28,5.03,1.28,0,0-1.71.86-5.46-.21s-4.49-2.78-4.49-2.78l4.92,1.71Z"/>
    <path class="cls-14" d="M199.68,167.59c.43.21.96.43,1.39.64,1.07.21,1.71.21,2.57.32.86.32,1.71.75,2.46,1.18.96,0,1.82.21,2.68.43.75.32,2.46,1.07,3.42,1.5.54.11.96.21,1.5.32.21.11-.54,1.28-7.49-.86s-6.74-3.53-6.53-3.53Z"/>
    <path class="cls-24" d="M162.81,180.89c1.36.43,2.85.66,4.23.77,4.18.12,8.4-.29,12.36-1.47.44-.07.38-.72-.06-.54-3.95,1.08-7.97,1.61-12.04,1.5-1.07-.09-2.03-.16-3.08-.36l-.74-.17c-.11,0-.42-.14-.21-.02-.4-.35-.98.14-.45.29h0Z"/>
    <path class="cls-25" d="M50.51,198.2c-4.84,4.42-7.02,11.87-11.97,16.27,16.79,14.11,54.82,20.19,65.25,24.05l5.65-13.39-52.32-35.61c-1.51,1.27-5.09,7.3-6.61,8.68Z"/>
    <path class="cls-25" d="M29.73,174.01s-5.74,15.33-3.77,25.19c1.7,8.19,14.58,17.01,14.58,17.01l15.72-23.35-26.53-18.84Z"/>
    <path class="cls-25" d="M231.35,255.12s-.64,11.02-6.42,15.19-15.41,1.28-15.41,1.28l4.39-18.51,17.44,2.03Z"/>
    <path class="cls-11" d="M228.47,202.05c.11,1.93-.11,3.85-.64,5.67-.64,1.93-2.03,3.42-3.85,4.07-1.39.43-2.78.43-4.17-.11-.11,0-.32-.11-.43-.21s-.21-.21-.21-.43c-.75-2.78-1.61-4.28-.54-6.85.21-.54.54-.96.86-1.28,1.28-.96,2.78-1.61,4.39-1.93"/>
    <path class="cls-11" d="M222.05,211.68c-.11,1.71-.32,5.03-1.93,5.67-1.61.43-3.21.96-4.71,1.61-.96.64-1.93,1.5-2.68,2.46.21-2.57.75-5.14,1.39-7.7.54-1.28,1.39-2.46,2.35-3.42,1.07-.64,2.35-.96,3.64-1.18.64,0-.54.32,0,.54s.43.64.32,1.28"/>
    <path class="cls-5" d="M220.98,227.83c1.61,1.07,3.32,1.93,5.14,2.46,2.57.86,5.14,1.61,7.81,2.25,4.49,1.28,9.1,2.03,13.8,2.46.32,0,1.07,0,1.28-.32s.32-.43-.11-.54c-4.6-.32-9.1-1.18-13.48-2.35-2.46-.64-5.03-1.28-7.38-2.14-1.93-.54-3.64-1.39-5.24-2.46-.54-.32-2.14.43-1.82.64h0Z"/>
    <path class="cls-11" d="M235.53,190.92c.11,2.46-.21,4.82-.96,7.17s-2.57,4.28-4.82,5.24c-1.61.64-3.42.64-5.03,0-.21-.11-.43-.21-.54-.32s-.21-.32-.21-.54c-.86-3.42-1.93-5.35-.54-8.67.54-.96,1.07-1.93,1.71-2.78,1.07-1.07,3.21-1.18,4.71-1.5"/>
    <path class="cls-29" d="M170.82,64.52c-.05.64,0,1.29-.05,1.93-.03.43-.18.84-.32,1.26-.25.41-.6.81-1.05.99-.99.35-2.06.26-2.99-.24-1.05-.3-1.97-.8-2.88-1.52-.1-.12-.54.06-.44.07.7.59,1.53.98,2.46,1.38.83.39,1.78.57,2.74.65.76-.05,1.52-.2,2.1-.69.47-.5.84-1.11.79-1.87.06-.75.11-1.39.07-2.14,0,0-.44.07-.44.18h0Z"/>
    <path class="cls-29" d="M160.41,63.15c-.42-.14-.75-.06-1.09.23-.24.3-.48.61-.51,1.03-.13.31-.17.74.02,1.08.29.45.69.81,1.21.96.31.13.62.26.94.29.43.03.76-.05,1.18-.01.11,0,.21.02.33-.08.11,0,.12-.1,0-.11-.54.06-1.18.01-1.72-.03-.42-.14-.83-.39-1.23-.74-.3-.24-.37-.67-.35-.99s.16-.63.29-.94c.12-.2.13-.31.35-.4l.12-.1h.11c.11.02.21.03.32.03-.1-.12.02-.21.02-.21h0Z"/>
    <path class="cls-23" d="M58.55,189.43c-4.6-1.07-9.32,0-12.95,2.99-.25.18.49.3.74.12,3.26-2.72,7.65-3.74,11.83-2.74.32.05.91-.29.39-.37h0Z"/>
    <path class="cls-23" d="M170.12,199.41c-3.55.14-6.89,1.59-9.35,4.08-.12.2.63.16.75.06,2.22-2.29,5.23-3.66,8.47-3.82.31.13.67-.27.13-.31h0Z"/>
    <path class="cls-23" d="M162.23,225.16c1.39,1.61,2.25,3.42,2.68,5.46,0,.11.43,0,.43-.11-.32-2.03-1.28-3.96-2.68-5.56-.11-.11-.53,0-.43.21h0Z"/>
    <path class="cls-23" d="M213.7,253.19c2.03,1.07,3.21,3.42,2.68,5.67,0,.21.32.11.43,0,.54-2.35-.64-4.71-2.78-5.89-.21,0-.53.11-.32.21h0Z"/>
    <path class="cls-25" d="M96.98,218.06l-1.5,9.42,1,9.03s24.77,7.01,28.34,7.01,11.65.95,11.65.95c-.48.95-.71,2.02-.48,3.09.36,1.19,1.07,2.26,2.14,2.85l4.16-4.99c.71,2.61,3.21.95,3.21.95l3.09-4.52c.71,3.33,4.04,1.19,4.04,1.19l2.26-6.54c.71,1.19,1.66,2.26,2.73,3.09,1.43.95,2.26-1.66,2.26-1.66l-4.75-11.05-15.21-6.42-25.91,3.33-17.02-5.73Z"/>
    <path class="cls-23" d="M142.01,238.32c.75.54,1.5,1.18,2.25,1.82.75.75,1.61,1.5,2.46,2.46.86.86,1.5,1.82,2.14,2.78.32.54.43,1.07.32,1.61-.11.43-.21.86-.43,1.28-.21.86-.64,1.71-1.18,2.35.21-.86.43-1.61.64-2.46.11-.43.21-.86.32-1.28s0-.86-.32-1.28c-.64-.96-1.28-1.82-2.03-2.68-.86-.86-1.61-1.71-2.35-2.46s-1.39-1.39-2.03-1.93c-.64-.54-1.39-.86-2.25-1.18.86.11,1.82.32,2.46.96Z"/>
    <path class="cls-23" d="M142.54,243.78c.32-.54.54-1.07.54-1.71,0-.75-.43-1.39-1.07-1.71-.64-.43-1.39-.64-2.14-.86l-1.93-.54c-.43-.11-.96-.32-1.18-.43h-.43s.11-.21.43-.21c.43,0,.86.11,1.28.21l1.93.43c.86.11,1.61.43,2.35.86.75.54,1.28,1.28,1.28,2.25,0,.75-.32,1.39-.75,2.03-.32.54-.86.96-1.39,1.18.11,0,.64-.53,1.07-1.5Z"/>
    <path class="cls-25" d="M162.87,252.23c1.61-3.1,2.57-6.53,3-10.06-2.03-1.93-6.63-6.1-7.49-7.06-1.93-2.35-8.24-4.6-8.24-4.6,0,0-3.53-3.85-4.07-3.85-.96,0-1.61.75-1.71,1.61,0,.21,0,.43.11.64.54,1.82,1.28,3.64,2.14,5.35l-14.55,1.39c-.86.11-1.71.54-2.35,1.18-.32.43-.43.96.21,1.28,1.71.43,3.32.75,5.03,1.07h0s-.43,2.46,1.39,3.53c.75.32,1.39.75,1.93,1.18.11,1.18.43,2.25,1.07,3.21.86.86,9.31,4.17,9.31,4.17,0,0,5.35,1.07,8.03.75,1.82-.11,3.75-.11,5.56.11l.64.11Z"/>
    <path class="cls-23" d="M134.95,238.85h0c.11,0,.43-.11.21-.21-.96-.21-2.03-.32-3-.54-.54,0-1.07-.21-1.5-.32-2.03-1.18.75-2.14,1.5-2.25.21,0,.54-.11.86-.11l4.92-.43,8.88-.86.21-.11c-.54-.96-.96-1.93-1.39-2.89-.32-.86-1.07-2.25-.86-3.21.11-.64.75-.96,1.39-.86.11,0,.32.11.43.21.43.32.96.75,1.39,1.18,1.28,1.18,2.25,2.46,3.96,3,.96.21,1.93.54,2.89.96,1.18.54,2.25,1.28,3.1,2.14,1.82,1.5,3.53,3.21,5.14,5.03.54.86,1.18,1.61,1.82,2.35.32.11.64.21.96.21.64.21,1.28.43,2.03.54,2.03.32,4.17.64,6.31.86.11,0,.43-.11.21-.21l-5.35-.75c-.54-.11-.96-.11-1.5-.21s-.96-.21-1.5-.43c-.64-.11-1.18-.43-1.5-.96-1.39-1.82-2.89-3.42-4.49-4.92-1.39-1.39-3-2.68-4.71-3.64-2.03-1.07-4.17-1.18-5.78-2.78-.86-.86-1.71-1.61-2.57-2.35-.43-.32-.64-.54-1.18-.43-3.1.54-.54,4.82.21,6.31,0,.11.64,1.07.75.86h-.11s-.54,0-.64.11l-2.57.21-6.85.64c-1.61.11-3.1.21-4.71.43-.75.11-2.35.86-2.46,1.82,0,.75,1.07.86,1.61.96s1.18.21,1.71.32c.32.11.64.11.96.21.54.11.96,0,1.5,0-.21-.21-.53,0-.32.11h0Z"/>
    <path class="cls-23" d="M141.58,239.5c-1.82-.11-3.42-.21-4.6-.43-.64,0-1.28-.21-1.93-.43.64-.11.39-.03,1.04.08,1.18.11,3.51.32,5.33.43,2.14,0,4.55.03,6.69.67,0,.32-2.89-.11-6.53-.32Z"/>
    <path class="cls-23" d="M143.19,244.74c-1.71-.11-3.42-.54-5.03-1.18.11-.11,2.25.43,5.03.75s5.14.21,5.14.43c-1.71.32-3.42.32-5.14,0Z"/>
    <path class="cls-23" d="M146.61,234.04c2.35-.11,4.71.21,6.96.96.21,0,.54-.21.21-.32-2.25-.75-4.71-1.18-7.17-.96-.21,0-.32.32,0,.32h0Z"/>
    <path class="cls-23" d="M167.26,217.56l-4.92,7.38.32-.11-11.76-4.92c-.11,0-.43.11-.32.21l11.76,4.92c.11,0,.21,0,.32-.11l4.92-7.38c.11-.11-.21,0-.32,0h0Z"/>
    <path class="cls-23" d="M158.3,234.21l-2.23-5.55-.59-1.43c-.12-.12-.12-.48-.24-.59-.12-.12-.36-.12-.48-.24l-1.19-.48-3.09-1.31-.51-.21c-.12,0-.48.12-.36.24l3.24,1.4c.71.24,1.31.59,2.02.83.12,0,0,0,0,0,0,.12.12.24.12.36l.59,1.31,2.35,5.9s.75.58.63.46l-.27-.69Z"/>
    <path class="cls-23" d="M134.95,238.64c-.32.54-.54,1.28-.43,1.93.21,1.71,2.03,2.57,3.53,3.1l-.11-.11c-.11,1.39.32,2.68,1.39,3.64.11.11.43-.11.32-.21-.96-.86-1.5-2.14-1.28-3.42,0,0,0-.11-.11-.11-1.39-.43-3.21-1.28-3.32-3,0-.64.11-1.18.43-1.71,0-.21-.32-.21-.43-.11h0Z"/>
    <path class="cls-32" d="M165.62,31.84c3.03.16,6.05,1.28,8.84,2.39,2.96,1.18,5.91,2.54,8.58,4.29.82.53,1.84,1.15,2.34,2.02.15.27.85,0,.66-.31-.44-.76-1.28-1.33-1.99-1.81-1.21-.84-2.5-1.55-3.81-2.22-3.08-1.58-6.3-2.94-9.62-3.92-1.54-.45-3.14-.85-4.75-.94-.34-.02-.74.49-.25.51h0Z"/>
    <path class="cls-21" d="M151.94,45.49s4.83,3.87,7.77,4.84,5.76,1,5.76,1c0,0-3.45-4.95-4.98-5.52s-6.7-1.7-8.55-.33Z"/>
    <path class="cls-21" d="M174.52,56.41s2.81,2.5,5.74,3.46,4.4-.41,4.4-.41c0,0-1.47-2.63-3-3.21s-4.8-.49-7.14.15Z"/>
    <path class="cls-6" d="M165.48,51.28s-2.96-4.54-4.98-5.52c-2.95-1.43-7.3-1.25-8.92-.24,0,0,6.62.14,8.66,1.2,1.96,1.01,5.23,4.56,5.23,4.56Z"/>
    <path class="cls-6" d="M158.3,49.82c.36.13.7.28,1.07.4.51.18,1.02.35,1.54.5.5-.34.84-.88.92-1.42.02-.15.1-.81-.32-1.36-.53-.67-1.48-.73-2.11-.53-.15.05-.56.19-.9.59-.4.47-.48,1.16-.35,1.71.05.03.1.07.15.1Z"/>
    <path class="cls-6" d="M174.51,56.35s4.05-1.55,6.17-.82c3.09,1.07,3.55,2.09,3.98,3.94,0,0-1.29-2.32-3.5-3.01-2.1-.66-6.66-.11-6.66-.11Z"/>
    <path class="cls-6" d="M180.68,60.08c.66.17,1.37.17,2.06.21.31-.28.55-.65.61-1.08.07-.52-.09-.92-.15-1.06-.27-.61-.94-1.29-1.79-1.24-.69.04-1.13.54-1.23.65-.46.55-.66,1.44-.33,2.17.27.13.54.27.83.34Z"/>
    <path class="cls-32" d="M164.31,52.19c-1.05,1.29-2.78,1.63-4.36,1.48-.86-.08-1.72-.26-2.54-.52-.75-.24-1.48-.59-2.03-1.16-.13-.13-.33-.14-.49-.06-.11.06-.3.25-.17.38,1.01,1.03,2.42,1.45,3.8,1.72,1.51.3,3.09.34,4.53-.25.72-.3,1.37-.76,1.87-1.36.29-.36-.39-.49-.61-.22h0Z"/>
    <path class="cls-32" d="M174.05,57.55c-.05,1.33.29,2.65.97,3.79s1.66,1.98,2.82,2.55c.65.32,1.35.53,2.07.63.17.02.4-.06.47-.22s-.07-.29-.22-.32c-2.4-.34-4.41-2.09-5.1-4.41-.2-.68-.3-1.38-.27-2.08.02-.39-.72-.29-.74.05h0Z"/>
    <path class="cls-32" d="M150.36,70.83c-1.39,1.18-2.46,2.71-3.1,4.42-.18.48-.32.97-.43,1.47-.06.27.67.16.72-.09.37-1.72,1.18-3.32,2.33-4.64.32-.37.68-.72,1.06-1.04.12-.1.07-.23-.07-.26-.17-.04-.38.03-.51.14h0Z"/>
    <path class="cls-32" d="M169.43,78.7c-.13,1.53-.65,3.02-1.51,4.29-.25.37-.53.71-.83,1.03-.11.12-.06.29.09.34.17.06.39,0,.51-.14,1.1-1.19,1.88-2.66,2.25-4.23.11-.44.18-.9.21-1.35.03-.37-.71-.26-.73.06h0Z"/>
    <path class="cls-21" d="M214.32,158.27s3.9-2.16,6.42-1.17c2.52.99,4.57,4.69,4.57,4.69,0,0-1.93.66-6.34-.92-4.42-1.58-4.64-2.6-4.64-2.6Z"/>
    <ellipse class="cls-6" cx="219.4" cy="158.76" rx="1.8" ry="1.79" transform="translate(43.5 364.67) rotate(-85.38)"/>
    <path class="cls-6" d="M214.24,158.31s3.71-2.62,6.54-1.42c3.99,1.68,4.16,3.33,4.52,4.9,0,0-1.72-3.02-4.83-4.24-2.82-1.11-6.23.76-6.23.76Z"/>
    <path class="cls-3" d="M225.3,161.79s.87.69,1.85-.34c0,0-1.69-.14-3.41-1.75l1.56,2.09Z"/>
    <path class="cls-21" d="M206.62,155.77s-5.74-1.17-6.91-2.41-.25-2.15-.25-2.15c0,0,1.76-.99,3.86.12,2.1,1.11,3.44,3.03,3.3,4.44Z"/>
    <ellipse class="cls-11" cx="202.1" cy="152.43" rx="1.8" ry="1.79" transform="translate(33.89 341.6) rotate(-85.38)"/>
    <path class="cls-6" d="M200.17,150.63c.99-.25,2.22-.22,3.82.47,2.57,1.1,2.68,4.82,2.68,4.82,0,0-.57-3-3.08-4.15-1.21-.56-3.52-.5-4.64-.33.11-.24.62-.63,1.22-.81Z"/>
    <path class="cls-6" d="M198.21,151.97s-.91.12-.99-1.26c0,0,.79.79,3.08.33l-2.09.92Z"/>
  </g>
  <g class="cls-18">
    <rect class="cls-2" x="-380.96" y="250.03" width="479.05" height="67.85"/>
    <rect class="cls-28" x="-324.12" y="241.8" width="339.61" height="16.45"/>
  </g>
</svg>