<svg xmlns="http://www.w3.org/2000/svg" xmlns:xlink="http://www.w3.org/1999/xlink" viewBox="0 0 292.89 301.99"><defs><style>.cls-1,.cls-31{fill:none;}.cls-2{clip-path:url(#clip-path);}.cls-3{fill:#f2ebd1;}.cls-4{fill:#a382ad;}.cls-5{fill:#c79e81;}.cls-6{fill:#8b79ac;}.cls-7{fill:#44266a;}.cls-8{fill:#4a729f;}.cls-9{fill:#262828;}.cls-10,.cls-12,.cls-16{fill:#151210;}.cls-10,.cls-16{stroke:#231f20;}.cls-10,.cls-16,.cls-31{stroke-miterlimit:10;}.cls-10{stroke-width:0.22px;}.cls-11{fill:#4f2e25;}.cls-13{fill:#231f20;}.cls-14{fill:#1d170f;}.cls-15{fill:#24180f;}.cls-16{stroke-width:0.26px;}.cls-17{fill:#82a1c9;}.cls-18{fill:#141b41;}.cls-19{fill:#e3bcd9;}.cls-20{fill:#13110f;}.cls-21{fill:#975449;}.cls-22{fill:#0f0a09;}.cls-23{fill:#f1eef7;}.cls-24{fill:#dfc68e;}.cls-25{fill:#87654d;}.cls-26{fill:#27153c;}.cls-27{fill:#8e6528;}.cls-28{fill:#774e80;}.cls-29{fill:#fff;}.cls-30{fill:#31160e;}.cls-31{stroke:#4f2e25;stroke-width:0.35px;}.cls-32{clip-path:url(#clip-path-2);}.cls-33{fill:#0d1335;}</style><clipPath id="clip-path"><path class="cls-1" d="M167,28.67C164,13.24,146.71,11,146.71,11,128.78,6.9,119,18.66,113.65,31.2A126.52,126.52,0,1,0,167,28.67Z"/></clipPath><clipPath id="clip-path-2"><path class="cls-1" d="M543.07,28.87a48.86,48.86,0,0,0-95.61,20.07,126.49,126.49,0,1,0,95.61-20.07Z"/></clipPath></defs><g id="Layer_13" data-name="Layer 13"><g class="cls-2"><circle class="cls-3" cx="146.28" cy="153.27" r="126.49" transform="translate(-65.54 148.33) rotate(-45)"/><path class="cls-4" d="M150.74,86.2c6.91,5.77,7.45,13.85,7.56,20.73.09,5.81,1.95,34.83,1.61,40.13l22.67,17.55s-6.55,4.57-12.06,15.23c0,0-30.23-12.14-32.81-20.54,0,0-1.88-2.14-1.73-3.55-5-10.25-2.08-32.34-2.08-32.34C127.16,56.86,150.74,86.2,150.74,86.2Z"/><path class="cls-5" d="M135.61,160.59c.68-2,1.58-1.44,2.76-3.24.79-1.41.52-1.22.52-1.22s8.75,1.8,12.92,2.57l.16-.06.83-.62s5.27-2.76,5.28-2.74l4.4-2.61,5.91,9.66s-9,5.18-13,6.19c0,0-.34,0-.34,0-5.62.46-12-3-19-7.18C136,161.36,135.93,160.58,135.61,160.59Z"/><path class="cls-5" d="M129.77,158.45s-3.77-2.14-3.49-3.19,1.11.52,3.81.84c0,0-4.43-2.64-3.14-4.46.34-.48,1.39,1.54,2.35,2a3.8,3.8,0,0,0,2,.24s-3.33-2.5-2.69-3.53c.32-.5,1.5.54,2.49,1a3.87,3.87,0,0,0,1.87.39s-2-1.09-1.48-2.08,2.46,0,3.85.89A20.65,20.65,0,0,1,139,155c.25.11,2.1,1.94,2.42,2a3.87,3.87,0,0,1-.13.77c-.58,1.73-2.3,2.65-3.56,3.95-.28.29-1.65-.24-1.95,0a16.23,16.23,0,0,1-6.19-1.41c-1.59-.38-2.85-1.54-2.72-2.2C126.92,157.85,129.77,158.45,129.77,158.45Z"/><path class="cls-6" d="M228.69,222.38c-24.78.57-44.16-.65-44.69-9.78-.34-6,.09-13.09,11.38-17.35l.48-.17a85.64,85.64,0,0,1,20.6-4.5c24.1-2.44,36.89,1.45,42.89,7.14h0s0,.05.07.09c2.37,2.25,0,7.64.53,10.18C261.68,216.64,260.19,221.64,228.69,222.38Z"/><path class="cls-7" d="M228.69,222.68c-24.78.58-48.11-1.34-48.77-4.25-1.31-5.8,4.17-18.62,15.46-22.87-2.52,1-15.93,9.41-7,16.23,5.4,4.1,18,.23,35.63-7.26,23-9.78,36.25-5.43,35.41-6.41,2.37,2.25,4.09,16.75,4.6,19.29C265.75,226.05,260.19,221.94,228.69,222.68Z"/><path class="cls-8" d="M205.7,187.09c2.66,5.32,5.37,10.8,5.85,16.73.35,4.16-1.41,11.11-4.94,13.34a13,13,0,0,1-6.38,1.78c-13.61,1.16-27.15-.63-40.82-.86a3,3,0,0,1-1.84-.44,2.69,2.69,0,0,1-.73-1.11c-1.9-4.61-.67-10.06,2.1-14.2s6.89-7.19,11.1-9.84"/><path class="cls-9" d="M176.77,124.21S178,127,176.35,128l9.22,2.1a3.76,3.76,0,0,0,1.21-3.55C186.2,124.52,176.77,124.21,176.77,124.21Z"/><path class="cls-10" d="M198.69,140.13c-6.81.45-13.46-4.23-17.58-9.28a17.74,17.74,0,0,1-4.42-10.44,22.91,22.91,0,0,1,2.27-9.74,14.2,14.2,0,0,1,5.21-6.72,16,16,0,0,1,8.27-2.46c.86,0,1.73,0,2.6.05,7.68.34,17.13,5.09,19.4,12a19.56,19.56,0,0,1,.51,2,14.36,14.36,0,0,1,.18,1.93c-.78,8.6-2.79,22.81-14.95,21.09A1.35,1.35,0,0,0,198.69,140.13Z"/><path class="cls-5" d="M175.24,128.51a16.4,16.4,0,0,1,2-6c.17-.93.37-2,.61-3.3.08-.37.15-.73.23-1.09a2.5,2.5,0,0,0,.13-.54c1.54-6.24,4.31-9.09,4.31-9.09a14.21,14.21,0,0,1,13.62-3.82,19.25,19.25,0,0,1,12.27,10.07,9.17,9.17,0,0,1,.56,6.55,37.3,37.3,0,0,1-2.37,5.84c2.06.33,4.51,1.44,3,5-2.1,4.93-6,4.57-7.52,3.11a11.78,11.78,0,0,0-2.64,4.83c-.45,1.45-1,3.93-.46,5.33l2.13,1.67c-5.87,6.13-22,9.47-22.87-3.72l3.9-.82.34-1.43c-1.12-.32-.35,0-2.35-1.15C174.16,136.16,175,130.91,175.24,128.51Z"/><path class="cls-11" d="M182.16,142.18l.26-1.08s6,2,11-.46c0,0-3.67,2.56-7.11,2.33S182.16,142.18,182.16,142.18Z"/><path class="cls-12" d="M203.82,128.43a.72.72,0,0,0-.13.48.48.48,0,0,0,.54.32,1.53,1.53,0,0,0,.63-.27c1.27-.77,3.1-2,4.45-1.36a16.15,16.15,0,0,0,1.23-15.82c-.76-1.69-3-3.72-3.74-4.37-4.21-3.88-8.31-4.6-13.45-4.69-7.68-.12-8.66,1.31-12.37,7.23,0,0,5.49,4.1,16.46,1.34-.26,0,1.05,3.14,1.11,3.24a13.17,13.17,0,0,0,2.17,2.89c.91.81,2.31,1.35,3.1,2.29a4.37,4.37,0,0,1,.75,3Z"/><path class="cls-13" d="M203.51,128.4c-.3.66,0,1.13.77,1,1.76-.25,2.8-2.39,4.83-1.63a.48.48,0,0,0,.5-.18A16.71,16.71,0,0,0,212,115a12.09,12.09,0,0,0-2.44-5.27,27.39,27.39,0,0,0-3.61-3.45,18.26,18.26,0,0,0-10.53-3.69c-2.91-.17-6.34-.38-9.06.88s-4.18,4.09-5.67,6.47c0,.07,0,.14.05.19a12.27,12.27,0,0,0,4.42,1.79,26.6,26.6,0,0,0,12.35-.43l-.32-.27c-.49.47.75,2.79,1,3.3a11.35,11.35,0,0,0,1.78,2.57,28,28,0,0,0,3.1,2.31c1.54,1.32,1.2,3.24,1,5l-.53,4.06c0,.3.63.19.66-.07l.5-3.83a7.87,7.87,0,0,0-.06-4.17,4.53,4.53,0,0,0-2-2,9.69,9.69,0,0,1-2.95-2.75,10.57,10.57,0,0,1-1.2-2.25,8.72,8.72,0,0,1-.71-2c.23-.22-.16-.31-.32-.27-4.5,1.1-9.41,1.46-13.83-.17-.42-.15-2-.61-2.24-1.09a10.56,10.56,0,0,1,.86-1.27A27.67,27.67,0,0,1,184,106c2.69-3.28,6.86-3.16,10.78-3a19.41,19.41,0,0,1,7.55,1.68,20.69,20.69,0,0,1,5.89,4.55c4.77,5,4.24,12.81.78,18.35l.5-.17a3.2,3.2,0,0,0-2.24.06,7.76,7.76,0,0,0-1.37.64l-.66.38-.3.18c-.28.29-.55.22-.8-.21C204.27,128.13,203.62,128.17,203.51,128.4Z"/><circle class="cls-13" cx="179.09" cy="121.2" r="1.3"/><path class="cls-12" d="M177.8,119.82a4.36,4.36,0,0,1,2.8,0c1.94.59,2.32,3.25,2.32,3.25a4.52,4.52,0,0,0-2.56-2.74,4.65,4.65,0,0,0-2.67,0A2.87,2.87,0,0,0,177.8,119.82Z"/><path class="cls-14" d="M191.91,119.36s5,1.42,5.69,2.74c0,0-.29-1.62-4.43-3.17C193.17,118.93,191.05,118.5,191.91,119.36Z"/><path class="cls-14" d="M178,117v-.13a12,12,0,0,1,3.66-.5s2.13.32,1,.84a26.12,26.12,0,0,0-4.66.07A2.64,2.64,0,0,1,178,117Z"/><path class="cls-15" d="M187.09,133.41c-.06-.39-1.35-.32-4.21-1.06-2-.51-3.1-1.66-3.32-1.38s.33,2.25,1.54,2.91a6.63,6.63,0,0,0,2.37.86c1.91.15,3.77-1.15,3.69-1.59"/><path class="cls-13" d="M207.83,131.88a2.93,2.93,0,0,0,.47-1.84c0-.16,0-.35-.22-.37a2.38,2.38,0,0,0-1.45.58,11.13,11.13,0,0,0-1.78,1.65c-.13.15.13.17.22.13a.63.63,0,0,1,.45-.06c.21.08.18.4.15.58-.13.64-.74.82-1.32.76-.16,0-.38.2-.13.23a1.52,1.52,0,0,0,1.81-1.06c.06-.29,0-.64-.31-.74a1.3,1.3,0,0,0-.8.11l.22.13a8.16,8.16,0,0,1,2.26-1.92,1.46,1.46,0,0,1,.28-.11l.12,0h0s.1,0,0,0h.05s0,0,0,0h0l-.07-.06a2.47,2.47,0,0,1-.38,2c-.1.16.27.14.34,0Z"/><circle class="cls-14" cx="191.62" cy="123.96" r="1.3"/><path class="cls-12" d="M187.86,124.05s2.46-2.18,4.6-1.55c3,.88,3.13,3,3.52,4.13,0,0-1.35-3-3.69-3.63C190.16,122.44,187.86,124.05,187.86,124.05Z"/><path class="cls-16" d="M214.33,115.29s4.69-6.42,10-3.06,3.46,12.74-1.54,15.41c0,0,2.32-5.26,1.09-6.11,0,0-1.45,2.3-2.89,2.59,0,0,2.43-5.68-1.48-6.46a15.14,15.14,0,0,0-5.14,0"/><path class="cls-17" d="M205.12,168.82l1.74-.6a26.64,26.64,0,0,1,2.55-9.1,11.81,11.81,0,0,0-1.68-8,26,26,0,0,0-3.68-4.09c-1-.89-2.67-1.49-3.69-2.28-.79-.62-1.16-.77-1.58-1.12-1.43,2.24-5.51,7.65-13,7.43-8.36-.26-3.7-8.58-3.7-8.58s-7.36.25-11.21,3.09-11.58,6.32-11.58,6.32l1.47,14.48,7.32-.37s1.41,20.58,1.41,25.31,3.39,6.83,14.94,6.83a122.23,122.23,0,0,0,22.23-2.25l3.91-2.07-5.34-22.53Z"/><path class="cls-18" d="M168.37,166c0-.43-.05-.87-.08-1.3-.06-.89-.12-1.78-.15-2.67a36.89,36.89,0,0,1,.19-6.73c0-.29-.54-.22-.58,0a37.81,37.81,0,0,0-.19,6.73q.06,1.34.15,2.67a11.34,11.34,0,0,1,.08,1.3c0,.31.56.23.58,0Z"/><path class="cls-19" d="M205.46,119.51c.15.78,1.66,1,2.39.86s.82-.87.67-1.64-.49-1.35-1.22-1.17S205.31,118.74,205.46,119.51Z"/><path class="cls-19" d="M205.56,119.49c.15.77-1.11,1.76-1.84,2s-1.07-.39-1.22-1.16-.06-1.46.67-1.65S205.41,118.71,205.56,119.49Z"/><path class="cls-20" d="M184.38,129.37a3.19,3.19,0,0,1-1.65-.08,2.56,2.56,0,0,1-1.2-.62,1.67,1.67,0,0,1-.36-1.31,1.38,1.38,0,0,1,.65-1c.12-.1-.07-.16-.16-.09a1.88,1.88,0,0,0-.66.77,1.86,1.86,0,0,0,0,1.19,2.32,2.32,0,0,0,1.85,1.26,3.57,3.57,0,0,0,1.56,0c.14,0,.1-.18,0-.15Z"/><path class="cls-20" d="M186.86,128.76c.37.08.28.62.2.87a.55.55,0,0,1-.29.37.87.87,0,0,1-.36.05,1.84,1.84,0,0,1-.4-.06,5.4,5.4,0,0,1-.82-.44.26.26,0,0,0-.15,0s-.11.05-.08.07a6.78,6.78,0,0,0,.84.45,1.83,1.83,0,0,0,.9,0,.8.8,0,0,0,.55-.39,1.39,1.39,0,0,0,.12-.57.41.41,0,0,0-.31-.46.21.21,0,0,0-.17,0s-.08,0,0,0Z"/><path class="cls-21" d="M183,132c1.58.4,4.19.87,4.19.87s-.92,4.49-5.29,3.31c-3.65-1-2.65-5.25-2.65-5.25S181.45,131.59,183,132Z"/><path class="cls-22" d="M183,132l3.56.88a3.63,3.63,0,0,1-4,1.74,3.32,3.32,0,0,1-2.79-3.28Z"/><path class="cls-23" d="M182.9,132.33c.75.19,3.07.65,3.07.65a6.15,6.15,0,0,1-3.31-.18c-2.26-.58-2.75-1.34-2.75-1.34Z"/><path class="cls-21" d="M179.31,130.91c0-.08.19-.07.57,0,.64.11.9-.06,1.36,0a7.47,7.47,0,0,1,1.53.64,7.7,7.7,0,0,1,1.66.17c.44.15,1.52.6,2.13.81a7,7,0,0,0,.91.13c.11.06-.41,1-4.62-.06S179.28,131,179.31,130.91Z"/><path class="cls-5" d="M174.36,183.44c-.28-2.26-.79-4.22-.47-6.49,0-.26,1.77-.42,1.77-.42s6.67-1.07,11-2.22l1.26-.21,1.85-2.15s3-5.08,3-5.07l3-4.49,10.88,7.23s-7.63,9.59-11.05,12.4c0,0-.27.11,0,0-5.16,3-11.8,2.23-20.34,1.37A2.06,2.06,0,0,0,174.36,183.44Z"/><path class="cls-17" d="M206.21,148.35c-1.76-1.29-3.77-2.3-5.6-3.44a2.33,2.33,0,0,0-1-.41c-1.1-.1-2.82,2.17-3.4,3a26,26,0,0,0-2.71,5.5c-2.67,6.79-2.34,7.12-2.34,7.12l-.34.74c1.19,1.36.92,2.59,2.49,3.4l4.89,3.18c2.51,1.1,4.64,4,6.91,4.63,0,0,2-3.29,2.84-4.8a79.88,79.88,0,0,0,2.93-8.51c.8-3-.47-6.08-2.42-8.34A14.53,14.53,0,0,0,206.21,148.35Z"/><path class="cls-18" d="M194,164.41c-.21-.18-.73-.46-.86-.7s.34-.83.51-1.08l1.36-2.07,2.74-4.13c1.53-2.31,4-5.68,7.19-4.21.13.06.66-.15.46-.25-2.62-1.19-5.33.64-6.9,2.66-1.06,1.36-2,2.86-2.91,4.3l-3.15,4.75s0,.07,0,.09l1,.85c.13.11.65-.11.53-.21Z"/><path class="cls-24" d="M281,227.68v14a8,8,0,0,1-8,8l-383.61-1.94a8,8,0,0,1-7.94-8l.15-16.83a8,8,0,0,1,8.07-7.9l383.47,4.73A8,8,0,0,1,281,227.68Z"/><polygon class="cls-25" points="283.99 249.4 283.99 270.97 -120.41 267.72 -120.41 246.15 283.99 249.4"/><path class="cls-7" d="M-207.21,286.93a1651,1651,0,0,0,170,10.8c87.1,1,112.17-15.38,241.34-2.09.6-22.39,9.35-54.28-7.45-69.08-10.65-9.39-15.84-36.19-29.18-41-7.87-2.86-39.81,5.64-48.13,4.62-59.55-7.29-69.05-2.57-116.19.47-15.91,1-47.13-4.42-72.21-3.78-28.71.73-62.2,5.7-110.45,4.82-10.38-.2-22.31,7.74-28.26,16.26-2.9,4.15-3.78,9.36-4.38,14.39A191.13,191.13,0,0,0-210,281.1"/><path class="cls-26" d="M170.72,211.6c-2,31.06-4.08,78.1-9.54,109.68,0,0-28.61,7-31.46-.07,0,0-.32-62.42-9.24-100.9-7.86-33.89-62.78-38.43-55.69-41.22,11.17-4.39,74.31-5.19,91.11,2C164.88,185,172.06,191,170.72,211.6Z"/><path class="cls-26" d="M151,185a38.89,38.89,0,0,0-9.3,1.4,34.94,34.94,0,0,0,.65-5.42c-.61-.61-1.26-1.24-1.92-1.88a58.69,58.69,0,0,0-8.49,5.9,78.11,78.11,0,0,0-8.92,8.65,76.56,76.56,0,0,0-7.45,9.93c-.63,1-9.25,1.75-9.83,2.81.1,0-.21,6.19-.11,6.2-8.37,16.52,2.94,41.8,1.1,71.64-1.61,26.2-1.51,21.8-3.24,35.68,3.43,6.44,32,4.51,32,4.51C140.48,284.05,151,185,151,185Z"/><path class="cls-26" d="M142.32,178.87c-34.39-5.68-75.56-.53-75.56-.53s-31.66,11-18.43,31c11.54,17.45,84.7,10.57,110.32,1.19l.36-.14c.15-1.75.39-3.49.69-5.21a75.45,75.45,0,0,1,3-11.42"/><path class="cls-4" d="M63.29,146.29s-28.37,30.38-19.43,56.54c6,17.55,38.62,17,38.62,17s13.53-25.72,26.4-33c15.15-8.54,34-8.88,34-8.88s-3.78-15-10.82-16.34S63.29,146.29,63.29,146.29Z"/><path class="cls-4" d="M133.8,160c1-2.22,1.89-8.8,2.49-11.19.13-.51,4.8-3.69,5.93-4.83,1.71-2.36,4.81-4.7,5.62-7.52,1.68-5.89.74-11.62,2.51-17.49a24.47,24.47,0,0,1,4.28-8.16,34.22,34.22,0,0,1,2.66-3,.08.08,0,0,1,0,0,6.71,6.71,0,0,0,.33-3.47,21.52,21.52,0,0,0-1.92-6.16,33.79,33.79,0,0,0-2.63-4.55L145.6,90l-5.33-4.39L127.25,73,111.54,59.93s-21.66,8.18-25.35,9.36c-4.51,1.42-8.93,56.91-8.93,56.91S76,140.74,57.18,156.3c-.12.1-6.89,7.6-7,7.73-.3.4,1.93,1.36,2.23,1.74.91,1.15,2.8,2,3.95,2.95,2.35,1.86,4.65,2.43,7.3,3.8a121.51,121.51,0,0,0,11.06,5.1c3.52,1.39,7.47,2,10.89,3.56l29.14-3.74,13.44-3.76c.25-2.22.26-4.44.6-6.66s9,7.83,9.66,5.58c.33-1.1,0-9.54.45-10.61C139,161.85,133.74,160.11,133.8,160Z"/><line class="cls-27" x1="128.63" y1="127.79" x2="128.48" y2="128.21"/><path class="cls-26" d="M152.9,111.35a16.65,16.65,0,0,0-2.4,3.37,8.91,8.91,0,0,0-.89,3.8c-.23,3.62-.36,7.24-.71,10.85-.37,3.92-1.17,7.51-3.46,10.8a25.9,25.9,0,0,1-7.39,6.91,12.87,12.87,0,0,0-1.78,1c-.62.57-.62,2.05-.8,2.88-.07.3.7.18.76-.09l.31-1.45a4.26,4.26,0,0,0,.21-1c0-.29-.05-.1-.14,0a15.07,15.07,0,0,1,1.62-.92,27.78,27.78,0,0,0,6.78-5.82,19.38,19.38,0,0,0,4.36-9.84c.53-3.8.68-7.66.89-11.49a23.28,23.28,0,0,1,.34-4.09,11.9,11.9,0,0,1,2.91-4.78c.3-.33-.43-.34-.61-.14Z"/><path class="cls-28" d="M106,98.62c-2.16-2.51-10.67-24.53-10.67-24.53-2.46-7.55-5.22-7.18,3.18-12.13l9-5.78S111.46,2.94,146.71,11c0,0,22.83,2.95,20.59,25.4,0,0-2.11,14.22-5.7,22.8-3.33,8-11.42,21.89-11.42,21.89"/><path class="cls-28" d="M153.27,90.33s-1.72,1.94-5.52,7a36.3,36.3,0,0,1-7.66,9.39c-8.64,7.69-20.45,5.89-29.62-2C104,99.16,99.33,79.89,99.33,79.89L109.6,49.54,119,55.65s-.59,17.47,16.31,21.71S153.71,67,153.71,67l-2.52,12c-.06,2.78.38,3.24,1.91,7.77Z"/><path class="cls-5" d="M163.67,46.26c1.13-3.13,1.64-10.49,1.64-10.49,0-.34.64-5.47.59-5.78-4.22-3.63-10.2-8.7-15.69-9.12-5.32-.4-17.62-1-19.84,5.22-.68,1.89-3.34,14.55-4.91,14.43a3.43,3.43,0,0,0-.23.65,42.57,42.57,0,0,1-2,5,17.25,17.25,0,0,1-.94-3.13c-.08-.69.35-1.4.27-2.09-.39-1.64-2.39-1.81-3.69-1.29l-.26.22c-2,1.47-2.45,8-2,10.1-.87,3.72,1.71,6.66,4.36,4.62l0,1.58,2.72,6.08c2.47,4.91,7.22,13.16,13,14.94,3.93,1.21,5.46.68,7.31-.21,2.81-1.35,4.74-3.24,7.1-5.13a18.47,18.47,0,0,0,4.94-5.48,14,14,0,0,0,2.38-6.13,27.66,27.66,0,0,1,1.22-4.33C160.23,54.58,162.55,49.39,163.67,46.26Z"/><path class="cls-20" d="M134,41.3a8.28,8.28,0,0,1,1,.09,28.44,28.44,0,0,1,5.76,1.78,28,28,0,0,1,4.59,2.67c.15-.34.19-.14.34-.48l.56-1.32a35.3,35.3,0,0,0-8.08-3.31,9.78,9.78,0,0,0-2.7-.12,13.62,13.62,0,0,0-2.84.43C132.22,41.3,134,41.3,134,41.3Z"/><path class="cls-20" d="M162.13,50.2a1.1,1.1,0,0,0,0-.18h0a8.18,8.18,0,0,0-1.24-.89A27.34,27.34,0,0,0,153.82,47l-.72,1.88a22.39,22.39,0,0,1,4.55.65,22,22,0,0,1,4.1,1.6,2.9,2.9,0,0,0,.25-.36c0-.09.08-.18.11-.27A2,2,0,0,0,162.13,50.2Z"/><path class="cls-29" d="M123,43.17S133.16,27,151.39,32.06c10.53,2.92,12.54,13.35,12.54,13.35s3.06-9.69,0-14.73-16.53-9.82-23.75-8.88S123,43.17,123,43.17Z"/><path class="cls-28" d="M120.21,26.82s11.63-18.36,29.1-13.64c21.68,5.91,16.95,29.24,16.95,29.24L160.8,59.14c1.49-4.28,3-8.06,3.14-12.59.6-2.49,3.53-8.68-2.08-15.06-3-3.45-7.53-5.35-12-6.07-4.12-.66-9-.6-12.53,2.08a28.33,28.33,0,0,0-7.19,8.19c-2.57,4.16-4.65,10.69-5.68,15.47-.85,4.33-2.59,10,2,19-16.76-11.91-10.87-33.81-6.75-43.49Z"/><path class="cls-26" d="M136.27,13.34c-4.61,1.87-8.61,5.9-11.17,10.06-4.18,6.82-5,15.45-5.35,23.27-.1,2.13-.15,4.27-.09,6.39,0,.51,1,.35,1-.08a88,88,0,0,1,.92-15.55,40.64,40.64,0,0,1,3.18-11.58,25.65,25.65,0,0,1,7.17-9,20.41,20.41,0,0,1,4.77-3c.62-.25.07-.76-.43-.56Z"/><path class="cls-26" d="M107.52,56.39a72.82,72.82,0,0,0,.3,9.57c.52,5.81,1.57,11.87,4.35,17.06a14.64,14.64,0,0,0,6.16,6.44c.35.18,1.22-.3.76-.54-5.09-2.56-7.41-8.43-8.73-13.64a68.33,68.33,0,0,1-1.88-15.67c0-1.1,0-2.21,0-3.31,0-.48-1-.32-1,.09Z"/><path class="cls-26" d="M123.32,63.75c.53,6.75,1.72,14.33,7,19.12s12.58,3.7,18.83,1.79c.59-.18.43-.82-.17-.63a30.08,30.08,0,0,1-10.56,1.52,12,12,0,0,1-8-3.93c-4.55-4.8-5.57-11.82-6.07-18.13,0-.42-1-.19-1,.26Z"/><path class="cls-26" d="M150.07,87.59c-3.38-.35-6,.92-8.65,2.91-1.69,1.28-3.37,2.58-5.08,3.82-2,1.44-4.34,2.73-6.8,1.69-.26-.11-1.16.29-.78.45,3.35,1.42,6.61-.7,9.22-2.66,3.43-2.58,6.85-6.19,11.48-5.72.28,0,1.14-.44.61-.49Z"/><path class="cls-20" d="M144.3,60.56a5.57,5.57,0,0,0,2,1.1,4.79,4.79,0,0,0,2,.31,2.14,2.14,0,0,0,1.51-.83,2.64,2.64,0,0,0,.31-1.47c0-.49,0-1,0-1.47,0-.06-.34,0-.34.09,0,.47.05.94,0,1.41a2.28,2.28,0,0,1-.51,1.72,2.31,2.31,0,0,1-2.29.23,5.71,5.71,0,0,1-2.39-1.21c-.06-.06-.37.07-.31.12Z"/><path class="cls-20" d="M142.25,57.39a.83.83,0,0,0-.82.18,1.79,1.79,0,0,0-.46.77,1.14,1.14,0,0,0,0,.85,1.9,1.9,0,0,0,.92.78,1.87,1.87,0,0,0,.74.18,8.61,8.61,0,0,1,.88,0,.49.49,0,0,0,.24,0s.12-.07,0-.08c-.42-.06-.86,0-1.27-.06a2.19,2.19,0,0,1-1-.56,1,1,0,0,1-.32-.8,1.94,1.94,0,0,1,.24-.7,1.27,1.27,0,0,1,.25-.37.94.94,0,0,1,.12-.09s0,0,0,0a.29.29,0,0,1,.1,0,.33.33,0,0,0,.22,0s.15-.06.1-.08Z"/><path class="cls-26" d="M72.25,142.91a7.7,7.7,0,0,0-4.21-.7c-.7,0-1.41.13-2.12.24a4.44,4.44,0,0,0-2,.73.3.3,0,0,0,0,.5.64.64,0,0,0,.7-.06,3.35,3.35,0,0,1,1.61-.5c.6-.08,1.2-.16,1.81-.2a6.61,6.61,0,0,1,3.54.55.64.64,0,0,0,.7-.06c.14-.11.28-.38,0-.5Z"/><path class="cls-20" d="M156.46,52.59a1.53,1.53,0,0,1,1.44.74,1.44,1.44,0,0,1,.13.73,1.39,1.39,0,0,1-.71,1.11,1.3,1.3,0,0,1-1.51-.2,1.45,1.45,0,0,1-.16-1.82,1.27,1.27,0,0,1,.81-.56"/><path class="cls-20" d="M151.72,52.47A11.09,11.09,0,0,1,155.3,52c2.74.35,4.43,1.41,4.79,2.55a11.69,11.69,0,0,0-4.64-1.92A36.74,36.74,0,0,0,151.72,52.47Z"/><path class="cls-20" d="M139.25,46.72a1.83,1.83,0,0,0-1.71-.43,1.32,1.32,0,0,0-.59.48,1.41,1.41,0,0,0-.07,1.32,1.29,1.29,0,0,0,1.35.71,1.44,1.44,0,0,0,1.19-1.38c0-.11.17-.27-.18-.62"/><path class="cls-20" d="M142.54,49.47a9.1,9.1,0,0,0-4.17-3.67,10.83,10.83,0,0,0-6.08-.24,32.71,32.71,0,0,1,5.76.83A28.28,28.28,0,0,1,142.54,49.47Z"/><path class="cls-21" d="M142.79,64.25c-2.78-1-7.41-2.9-7.41-2.9s-1.74,7.88,4.7,10.07,9.55-5,9.55-5S145.57,65.19,142.79,64.25Z"/><path class="cls-30" d="M142.81,64.26c-1.32-.45-6.57-2.5-6.57-2.5s-.15,5.46,4.63,7.09a6.89,6.89,0,0,0,8-2.67Z"/><path class="cls-23" d="M142.8,64.48c-1.32-.45-5.26-2.05-5.26-2.05s.94,2,4.91,3.33,5.71.33,5.71.33Z"/><path class="cls-21" d="M149.86,66.27a6.82,6.82,0,0,0-.86-.56,26.64,26.64,0,0,0-2.42-1.33,12,12,0,0,0-3-.51,12.45,12.45,0,0,0-2.65-1.4c-.82-.21-3.1-.65-4.23-.92a9.74,9.74,0,0,1-1.51-.71c-.21,0-.11,1.66,7.29,4.17S150,66.39,149.86,66.27Z"/><path class="cls-20" d="M133.1,45.75s-.93,0-1-1.18a5.46,5.46,0,0,0,3.22,1.18Z"/><path class="cls-20" d="M159.74,54.43a1.09,1.09,0,0,0,1.51.17s-.94.28-2-1.2Z"/><path class="cls-4" d="M70,141.82c-2.72.22-5.41.61-8.1,1-.14-1.79-.2-3.48-.17-5.15.1-7.08,4.82-41,8.77-51.69C74.58,70.2,87.88,68.88,87.88,68.88l3.17,38.81-2.69,32.4C83.76,141.06,74.67,141.43,70,141.82Z"/><path class="cls-26" d="M86,141.84l17.35,6.71,27.7,10.71,6.4,2.47c.25.1.82-.26.42-.42l-17.36-6.7L92.84,143.9l-6.4-2.48c-.26-.09-.82.27-.42.42Z"/><path class="cls-26" d="M87.9,81c4.48,1.25,6.25,6.46,6.12,10.62-.1,3.44-.5,6.87-.92,10.28-1.14,9.21-2.68,18.39-4.48,27.49-.82,4.13-1.68,8.26-2.77,12.32-.09.32.68.22.76-.07,2.25-8.33,3.73-16.89,5.14-25.39,1.35-8.19,2.83-16.56,3-24.88.11-4.31-1.86-9.56-6.44-10.84-.29-.08-.89.34-.45.47Z"/><path class="cls-4" d="M63.2,125.75s-1.66,8.93-1.64,9.78c.12,4-2,10.58,2.18,19.16,3.57,7.38,14.37,9.55,24.18,3.91s-8.78-21.89-8.78-21.89Z"/><path class="cls-26" d="M86.48,141.34c-4.55-.54-10.71.49-13.21,4.82-.08.13.63.08.75-.12,2.29-4,7.81-4.85,12-4.35.19,0,.88-.3.48-.35Z"/><path class="cls-26" d="M61.35,148.4a5.77,5.77,0,0,1,.86,2.19,25.09,25.09,0,0,0,1.26,3.56,20.59,20.59,0,0,0,8.3,8.67c6,3.6,12.94,5.34,19.68,6.8,7.39,1.59,14.88,2.66,22.38,3.54,7.93.93,15.88,1.61,23.82,2.39.14,0,.68,0,.69-.24l.14-3.23c0-.1-.74,0-.75.2l-.15,3.23.69-.24c-14.44-1.43-29-2.53-43.21-5.33-7-1.37-14.31-3-20.71-6.33-4-2.07-7.69-4.94-9.79-9A22,22,0,0,1,63,150.55a6.36,6.36,0,0,0-1-2.4c-.12-.14-.82.13-.72.25Z"/><path class="cls-26" d="M159.64,146.87a7.1,7.1,0,0,0-8.73,4.16c-.14.37.55.38.66.08a6.23,6.23,0,0,1,7.68-3.77c.31.11.81-.33.39-.47Z"/><path class="cls-5" d="M137.81,161.31l-.19,6.48-.18,6s7.82,3.1,10.26,3.3,8.07,1.36,8.07,1.36a3.29,3.29,0,0,0-.54,2.13,3.19,3.19,0,0,0,1.34,2.11l3.2-3.26c.35,1.86,2.16.86,2.16.86l2.43-2.94c.33,2.33,2.7,1.09,2.7,1.09L169,174a7.46,7.46,0,0,0,1.76,2.27c1,.71,1.67-1.05,1.67-1.05l-2.64-8-10.2-5.33-18.2.32Z"/><path class="cls-31" d="M159.61,162.08l-19.14.89-2.68-.55"/><path class="cls-11" d="M169.18,170.06a13,13,0,0,0-1.94-1.91c-.75-.62-1.51-1.13-2.19-1.59a17.37,17.37,0,0,0-1.9-1.14,2.65,2.65,0,0,0-1.58-.35l-.06.16a5.53,5.53,0,0,1,1.47.54,21.07,21.07,0,0,1,1.8,1.21c.67.48,1.4,1,2.13,1.58a15.55,15.55,0,0,1,1.9,1.82,1.26,1.26,0,0,1,.36.92c0,.33,0,.69-.08,1-.14,1.24-.3,2-.24,2a4.78,4.78,0,0,0,.6-1.94,9.13,9.13,0,0,0,.15-1A1.68,1.68,0,0,0,169.18,170.06Z"/><path class="cls-11" d="M165.78,173.71a4.74,4.74,0,0,0-.24-1.29,3.32,3.32,0,0,0-1-1c-1.51-1-3-1.74-4-2.35-.37-.26-.74-.49-1.13-.72l-.1.17a4.88,4.88,0,0,0,1,.82c1,.7,2.43,1.47,3.88,2.47a3.07,3.07,0,0,1,.89.79,4.47,4.47,0,0,1,.21,1.09,4.23,4.23,0,0,1-.13,2,8.14,8.14,0,0,1-.62,1.23,1.72,1.72,0,0,0-.16.5,3.72,3.72,0,0,0,.33-.4,8.43,8.43,0,0,0,.77-1.2A4.31,4.31,0,0,0,165.78,173.71Z"/><path class="cls-11" d="M160.6,175.2a5.25,5.25,0,0,0-1.77-.84l-1.47-.44a6.7,6.7,0,0,0-.91-.21l-.09.19c.21.07.51.22.85.35l1.44.54a5.5,5.5,0,0,1,1.59.79A1.72,1.72,0,0,1,161,177a2.34,2.34,0,0,1-.5,1.28c-.46.68-.89,1-.83,1.1a2.88,2.88,0,0,0,1.16-.86,2.54,2.54,0,0,0,.68-1.48A2.11,2.11,0,0,0,160.6,175.2Z"/><path class="cls-5" d="M157,174.94a20.25,20.25,0,0,0,3.9,1.84c.29-.08,2.29-.3,4-.48a1.62,1.62,0,0,0,1.53-1.72c0-.23-4.23-1.07-3.78-3l3.68-.05a14.08,14.08,0,0,1,3.48.92,31.07,31.07,0,0,1,4.56,3.74l4.69-.18,1.06,8-5.92-.33L169.76,185s-8.53.63-9.59,0-2.32-3.13-2.32-3.13c-1.52-.63-1.76-2.9-1.76-2.9-2.17-1.87-.42-2.35-.42-2.35a.45.45,0,0,1-.21-.2A1.11,1.11,0,0,1,157,174.94Z"/><path class="cls-11" d="M158.14,181.77a2.85,2.85,0,0,1-1.42-1.61c-.15-.38-.15-.89-.33-1.24-.27-.56-1.07-.85-1.09-1.58a.78.78,0,0,1,.21-.52c.05,0,.3-.16.18-.13s.36-.11.27-.17a.89.89,0,0,1-.25-1.12c.36-.75,1-.35,1.53-.07.78.42,1.55.83,2.35,1.19a2.45,2.45,0,0,0,1.13.35c.62,0,1.27-.18,1.9-.25,1.23-.14,3.27,0,3.93-1.31.17-.34.31-.74,0-1a7,7,0,0,0-1.21-.45c-1-.39-2.62-1.08-2.37-2.38l-.5.19,2.66,0a11.48,11.48,0,0,1,4.42.89.82.82,0,0,0,.56-.2,11.37,11.37,0,0,0-4.34-.92l-2.91,0c-.11,0-.46.05-.49.2-.21,1.09.95,1.76,1.79,2.15.48.23,1,.4,1.46.58s.68.26.41.94c-.43,1.07-2,.93-3,1-.67.08-1.34.19-2,.26-.24,0,.09,0-.08,0l-.4-.14c-.35-.15-.7-.32-1.05-.49a19.81,19.81,0,0,0-2.42-1.25c-1-.34-3,1.05-1.66,2l.26-.17c-1.09.31-1.12,1.17-.4,2,.22.26.47.4.57.71s.12.56.21.83a3.06,3.06,0,0,0,1.54,1.9c.15.07.61-.17.57-.19Z"/><path class="cls-11" d="M155.55,176.66c.71.47,1.27,1.1,2,1.58a6.36,6.36,0,0,0,4.52,1.25c.9-.05,1.77-.32,2.67-.34.2,0,.56-.3.21-.29-.82,0-1.59.23-2.4.31a6.42,6.42,0,0,1-2.79-.24,7.46,7.46,0,0,1-2-1.09c-.61-.46-1.12-1-1.76-1.43-.14-.09-.62.12-.41.25Z"/><path class="cls-11" d="M155.87,179.1c1.57.59,2.77,2,4.44,2.39a7.7,7.7,0,0,0,2.49,0,10.93,10.93,0,0,0,1.71-.3c.31-.09.25-.35-.07-.26a10.19,10.19,0,0,1-1.56.28,6,6,0,0,1-2.66-.13c-1.43-.53-2.51-1.72-3.94-2.25-.15,0-.62.17-.41.25Z"/><path class="cls-11" d="M157.8,182c-.06,0-.15,0-.12,0s.08.05.1.07l.23.19c.23.19.48.37.73.54a4,4,0,0,0,1.5.75,6.46,6.46,0,0,0,.88,0H162a11.4,11.4,0,0,1,1.75.09c.13,0,.6-.19.33-.24a11.61,11.61,0,0,0-1.67-.08h-.9a3.81,3.81,0,0,1-1.07,0,6.35,6.35,0,0,1-1.66-1c-.24-.18-.55-.59-.88-.54-.07,0-.29.07-.3.16s.15.08.21.07Z"/></g></g><g id="Layer_14" data-name="Layer 14"><g class="cls-32"><path class="cls-33" d="M239.61,270.93l15,0,40.39-.06,60.12-.1,72.85-.12,80.34-.13,80.54-.13,75.62-.12,63.46-.11,46-.07c7.21,0,14.42,0,21.63,0h.94c.41,0,.95-.61.34-.61l-15,0-40.39.06-60.13.1-72.85.12-80.33.13-80.55.13-75.61.12-63.47.11-46,.07c-7.21,0-14.42,0-21.63,0h-.95c-.4,0-.95.61-.33.61Z"/><path class="cls-33" d="M287.06,188.81c4.87-.17,10.1.31,14.57,2.38a10.8,10.8,0,0,1,4.92,4.11,25.34,25.34,0,0,1,2.87,9,124.35,124.35,0,0,1,.9,15.56l1.05,38.86.31,11.51c0,.47.94.33.93-.08l-.83-30.71-.52-19.19c-.14-5-.12-10-.75-14.92a29.14,29.14,0,0,0-2.78-9.8,11.08,11.08,0,0,0-5.2-4.76c-4.68-2.28-10.24-2.78-15.38-2.6-.52,0-.71.68-.09.66Z"/></g></g></svg>