<?xml version="1.0" encoding="UTF-8"?>
<svg id="Layer_1" data-name="Layer 1" xmlns="http://www.w3.org/2000/svg" xmlns:xlink="http://www.w3.org/1999/xlink" viewBox="0 0 292.89 301.99">
  <defs>
    <style>
      .cls-1 {
        fill: #272828;
      }

      .cls-2, .cls-3 {
        fill: none;
      }

      .cls-4 {
        fill: #87664e;
      }

      .cls-3 {
        stroke: #4f2f26;
        stroke-miterlimit: 10;
        stroke-width: .35px;
      }

      .cls-5 {
        fill: #131b41;
      }

      .cls-6 {
        fill: #c9c8df;
      }

      .cls-7 {
        fill: #010101;
      }

      .cls-8 {
        fill: #c69e81;
      }

      .cls-9 {
        fill: #231f20;
      }

      .cls-10 {
        fill: #98554a;
      }

      .cls-11 {
        fill: #1e1811;
      }

      .cls-12 {
        fill: #27153c;
      }

      .cls-13 {
        fill: url(#linear-gradient);
      }

      .cls-14 {
        fill: #f1eef7;
      }

      .cls-15 {
        fill: #171413;
      }

      .cls-16 {
        fill: #784f81;
      }

      .cls-17 {
        fill: #82a1c8;
      }

      .cls-18 {
        fill: #c59d7f;
      }

      .cls-19 {
        fill: #fff;
      }

      .cls-20 {
        fill: #4a729f;
      }

      .cls-21 {
        fill: #e3bcd9;
      }

      .cls-22 {
        fill: #4f2f26;
      }

      .cls-23 {
        fill: #292b67;
      }

      .cls-24 {
        fill: #a382ad;
      }

      .cls-25 {
        fill: #120f0e;
      }

      .cls-26 {
        fill: #311811;
      }

      .cls-27 {
        fill: #2e3172;
      }

      .cls-28 {
        fill: #161412;
      }

      .cls-29 {
        fill: #81a0c8;
      }

      .cls-30 {
        clip-path: url(#clippath);
      }
    </style>
    <clipPath id="clippath">
      <path class="cls-2" d="M242.54,60.28c-15.83-15.83-34.6-26.94-54.55-33.33-4.18-20.52-22.34-35.97-44.1-35.97S102.89,7.38,99.46,28.83c-17.91,6.59-34.72,17.06-49.11,31.45C-2.72,113.35-2.72,199.39,50.35,252.46c53.07,53.07,139.12,53.07,192.19,0,53.07-53.07,53.07-139.12,0-192.19Z"/>
    </clipPath>
    <linearGradient id="linear-gradient" x1="141.95" y1="270.45" x2="152.87" y2="-1.12" gradientUnits="userSpaceOnUse">
      <stop offset="0" stop-color="#232938"/>
      <stop offset=".78" stop-color="#434860"/>
    </linearGradient>
  </defs>
  <g class="cls-30">
    <path class="cls-2" d="M168.81,22.44c-3.22-16.58-21.8-18.98-21.8-18.98-19.26-4.4-29.77,8.23-35.52,21.7C38.95,44.46-4.22,118.92,15.09,191.47c19.3,72.55,93.76,115.71,166.31,96.41,72.55-19.3,115.71-93.76,96.41-166.31-13.72-51.57-56.35-90.34-108.99-99.12Z"/>
    <circle class="cls-13" cx="146.54" cy="156.31" r="135.9"/>
    <path class="cls-24" d="M151.34,84.25c7.42,6.2,8,14.88,8.12,22.27.1,6.24,2.1,37.42,1.73,43.11l24.36,18.86s-7.04,4.91-12.96,16.36c0,0-32.48-13.04-35.25-22.07,0,0-2.02-2.3-1.86-3.81-5.37-11.01-2.23-34.74-2.23-34.74-7.24-71.5,18.09-39.98,18.09-39.98Z"/>
    <path class="cls-8" d="M130.38,161.48c.94-2.06,1.85-1.37,3.3-3.16,1-1.42.69-1.25.69-1.25,0,0,9.16,2.88,13.53,4.15l.18-.05,13.4-3.2s1.85-1.44,1.86-1.42l.9-.18,1,10.53s-10.18,4.56-14.57,5.2l-.36-.04c-6.06-.12-12.5-4.51-19.53-9.74-.06.02-.05-.83-.39-.85Z"/>
    <path class="cls-27" d="M235.09,230.55c-26.62.61-47.44-.7-48.01-10.51-.37-6.45.1-14.06,12.23-18.64l.52-.18c7.15-2.52,14.58-4.14,22.13-4.83,25.89-2.62,39.63,1.56,46.08,7.67h0s0,.05.08.1c2.55,2.42,0,8.21.57,10.94,1.86,9.29.26,14.67-33.58,15.46Z"/>
    <path class="cls-23" d="M235.09,230.88c-26.62.62-51.69-1.44-52.4-4.57-1.41-6.23,4.48-20,16.61-24.57-2.71,1.07-17.11,10.11-7.52,17.44,5.8,4.4,19.34.25,38.28-7.8,24.71-10.51,38.95-5.83,38.04-6.89,2.55,2.42,4.39,18,4.94,20.72,1.86,9.28-4.11,4.87-37.96,5.66Z"/>
    <path class="cls-20" d="M210.39,192.64c2.86,5.72,5.77,11.6,6.29,17.97.38,4.47-1.51,11.94-5.31,14.33-2.08,1.22-4.44,1.88-6.85,1.91-14.62,1.25-29.17-.68-43.86-.92-.69.06-1.39-.11-1.98-.47-.36-.33-.63-.74-.78-1.19-2.04-4.95-.72-10.81,2.26-15.26s7.4-7.72,11.93-10.57"/>
    <path class="cls-1" d="M182.18,124.44s.86,3.16-1.05,3.96l9.46,3.7c1.21-.78,1.91-2.14,1.85-3.58-.29-2.25-10.26-4.08-10.26-4.08Z"/>
    <path class="cls-7" d="M202.95,144.84c-7.31-.6-13.63-6.63-17.21-12.65-2.28-3.49-3.34-7.64-3.04-11.8.57-3.58,1.92-6.99,3.96-9.99,1.5-2.73,3.81-4.93,6.6-6.31,2.88-1.27,6.06-1.72,9.18-1.3.91.14,1.84.27,2.75.47,8.11,1.58,17.39,8.13,18.71,15.83.11.73.19,1.47.22,2.21,0,.69-.03,1.39-.12,2.08-2.19,9.01-6.59,23.79-19.23,20.03-.77-.21-1.57.24-1.78,1.02-.04.14-.05.27-.05.42Z"/>
    <path class="cls-8" d="M179.87,128.77c.62-2.2,1.67-4.26,3.08-6.06.33-.96.71-2.07,1.17-3.41.14-.38.28-.75.42-1.12.09-.18.17-.36.22-.55,2.63-6.39,6.02-8.97,6.02-8.97,4.33-3.27,10.07-3.99,15.08-1.9,5.45,2.37,9.62,6.98,11.44,12.65.73,2.32.57,4.83-.45,7.05-.98,2.04-2.13,3.99-3.45,5.83,2.14.68,4.56,2.25,2.39,5.79-3.01,4.9-7.1,3.9-8.48,2.11-1.55,1.27-2.77,2.88-3.57,4.71-.71,1.47-1.69,4.02-1.34,5.59l2,2.11c-7.21,5.58-24.93,7.45-23.76-6.71l4.32-1.13.59-1.47c-1.14-.52-.37-.06-2.31-1.6-5.74-4.98-4.02-10.42-3.38-12.93Z"/>
    <path class="cls-22" d="M185.06,144.39l.45-1.11s6.06,3.08,11.76,1.26c0,0-4.31,2.14-7.92,1.35s-4.28-1.5-4.28-1.5Z"/>
    <path class="cls-7" d="M210.26,133.22c-.13.13-.2.31-.21.49.04.25.27.43.52.43.25,0,.49-.07.71-.19,1.47-.62,3.61-1.63,4.94-.74,4.09-4.49,5.54-10.79,3.82-16.61-.54-1.92-2.6-4.43-3.28-5.24-3.86-4.79-8.1-6.21-13.55-7.12-8.14-1.35-9.41.02-14.29,5.72,0,0,5.18,5.23,17.28,4.04-.28-.04.62,3.5.66,3.62.46,1.22,1.08,2.37,1.85,3.42.84,1.01,2.24,1.8,2.93,2.93.51,1.03.62,2.2.32,3.31l-1.71,5.96Z"/>
    <path class="cls-11" d="M199.04,121.69s5.09,2.3,5.61,3.82c0,0-.05-1.77-4.2-4.07,0,0-2.18-.79-1.41.26Z"/>
    <path class="cls-11" d="M184.64,116.98l.02-.14c1.32-.19,2.66-.17,3.97.05,0,0,2.21.68.93,1.05-1.63-.37-3.29-.59-4.96-.67,0-.1.02-.2.04-.3Z"/>
    <path class="cls-9" d="M213.97,137.53c.47-.52.74-1.18.79-1.88.03-.17.06-.37-.18-.43-.57-.06-1.15.08-1.63.39-.77.41-1.49.9-2.15,1.47-.16.14.11.2.21.17.16-.06.33-.06.49,0,.21.12.13.45.07.64-.24.66-.92.75-1.52.6-.17-.03-.44.15-.17.22.81.32,1.73-.05,2.09-.84.11-.3.1-.68-.21-.84-.28-.1-.58-.1-.87-.01l.21.17c.79-.72,1.71-1.29,2.71-1.68.1-.03.21-.06.31-.07l.13.02h0s.11.02,0,0h.05s-.06-.07-.06-.07c.07.76-.2,1.51-.72,2.06-.13.15.26.19.36.05h.1Z"/>
    <path class="cls-7" d="M223.51,120.93s6-6.08,11.11-1.66c5.11,4.41,1.65,14.09-4.08,16.13,0,0,3.3-5.22,2.13-6.32,0,0-1.91,2.21-3.48,2.29,0,0,3.48-5.65-.55-7.1-1.76-.58-3.61-.86-5.46-.82"/>
    <path class="cls-17" d="M209.76,173.01l-.42-4.04c.32-3.4,3.54-3.31,5.03-6.38.44-2.99-.2-6.04-1.8-8.59-1.16-1.6-2.48-3.07-3.95-4.39-1.07-.96-2.87-1.6-3.96-2.45-.85-.67-.96-.71-1.41-1.08-1.54,2.41-6.2,8.1-14.25,7.86-8.98-.28-3.98-9.22-3.98-9.22,0,0-7.91.27-12.04,3.32s-15.59,10.25-15.59,10.25l4.73,12.1,7.86-.4s1.51,22.11,1.51,27.19,3.64,7.34,16.05,7.34c8.02-.07,16.01-.88,23.88-2.42l4.2-2.22-5.74-24.21-.12-2.65Z"/>
    <path class="cls-5" d="M170.28,169.98c0-.46-.05-.93-.09-1.4-.06-.96-.13-1.91-.16-2.87-.15-2.41-.08-4.83.2-7.23,0-.31-.58-.24-.62,0-.28,2.4-.35,4.82-.2,7.23.04.96.1,1.92.16,2.87.06.46.08.93.09,1.4,0,.33.6.25.62,0Z"/>
    <path class="cls-21" d="M213.41,124.01c.04.85,1.61,1.33,2.4,1.29s1.01-.79.97-1.64-.31-1.51-1.11-1.44-2.3.94-2.26,1.78Z"/>
    <path class="cls-21" d="M213.52,124c.04.84-1.46,1.69-2.27,1.83s-1.08-.58-1.11-1.43.17-1.56.97-1.65,2.38.39,2.41,1.24Z"/>
    <path class="cls-28" d="M189.45,131.13c-.6.04-1.2-.08-1.74-.35-.46-.17-.87-.47-1.18-.85-.26-.44-.32-.96-.17-1.45.12-.43.44-.78.85-.96.14-.09-.05-.18-.16-.12-.33.16-.62.4-.82.71-.2.39-.27.83-.19,1.26.27.81.94,1.43,1.77,1.63.53.2,1.09.29,1.66.25.15.02.13-.18.02-.16l-.04.03Z"/>
    <path class="cls-28" d="M192.18,130.88c.38.14.2.7.07.96-.06.16-.2.29-.37.35-.13.03-.26.02-.39,0-.14-.03-.28-.07-.42-.13-.28-.18-.55-.38-.8-.6-.05-.02-.11-.03-.16-.02,0,0-.12.04-.1.06.26.22.53.43.82.61.3.13.63.18.96.14.25,0,.49-.13.65-.33.11-.18.19-.38.22-.59.07-.22-.04-.45-.26-.54-.05-.03-.12-.04-.18-.03,0,0-.09-.01,0,0l-.05.11Z"/>
    <path class="cls-10" d="M187.79,133.74c1.62.68,4.12,1.52,4.12,1.52,0,0-1.5,4.69-5.95,2.74-3.72-1.64-1.98-6-1.98-6,0,0,2.23,1.05,3.81,1.73Z"/>
    <path class="cls-25" d="M187.79,133.74l3.35,1.46c-1.07,1.37-2.62,1.9-4.23,1.26-1.67-.53-2.7-2.2-2.44-3.93l3.33,1.21Z"/>
    <path class="cls-14" d="M187.41,134.04c.77.32,3.16,1.18,3.16,1.18-1.21.08-2.41-.16-3.49-.72-2.31-.98-2.71-1.86-2.71-1.86l3.04,1.4Z"/>
    <path class="cls-10" d="M183.82,131.97c.01-.09.21-.04.61.09.66.22.97.08,1.45.22.54.25,1.05.56,1.52.92.59.08,1.18.23,1.74.44.44.23,1.52.88,2.13,1.2.31.11.62.21.95.28.11.08-.59,1-4.9-.8-4.31-1.79-3.54-2.27-3.49-2.36Z"/>
    <path class="cls-6" d="M291.29,236.25v15.04c0,4.75-3.85,8.59-8.59,8.59l-412.14-2.08c-4.72-.04-8.53-3.87-8.53-8.59l.16-18.08c.06-4.73,3.94-8.53,8.67-8.49l411.99,5.08c4.66.08,8.41,3.87,8.44,8.53Z"/>
    <polygon class="cls-4" points="294.5 259.58 294.5 282.76 -139.97 279.26 -139.97 256.09 294.5 259.58"/>
    <path class="cls-23" d="M-233.23,299.9c60.64,7.01,121.6,10.88,182.64,11.6,93.58,1.07,120.51-16.52,259.29-2.25.64-24.05,10.05-58.32-8-74.22-11.44-10.09-17.02-38.88-31.35-44.05-8.46-3.07-42.77,6.06-51.71,4.96-63.98-7.83-74.18-2.76-124.83.5-17.09,1.07-50.63-4.75-77.58-4.06-30.84.78-66.83,6.12-118.66,5.18-11.15-.21-23.97,8.32-30.36,17.47-3.12,4.46-4.06,10.06-4.71,15.46-2.5,21.03-1.73,42.33,2.28,63.13"/>
    <path class="cls-12" d="M172.81,218.97c-2.15,33.37-4.38,83.91-10.25,117.84,0,0-30.74,7.52-33.8-.08,0,0-.34-67.06-9.93-108.4-8.44-36.41-67.45-41.29-59.83-44.29,12-4.72,79.84-5.58,97.89,2.15,9.65,4.2,17.36,10.65,15.92,32.78Z"/>
    <path class="cls-12" d="M151.62,190.39c-3.38.1-6.73.6-9.99,1.5.38-1.92.62-3.87.7-5.82-.66-.66-1.35-1.33-2.06-2.02-3.22,1.84-6.27,3.96-9.12,6.34-3.44,2.84-6.64,5.95-9.58,9.29-2.95,3.33-5.63,6.9-8,10.67-.68,1.07-9.94,1.88-10.56,3.02.11,0-.23,6.65-.12,6.66-8.99,17.75,3.16,44.91,1.18,76.97-1.73,28.15-1.62,23.42-3.48,38.33,3.69,6.92,34.38,4.85,34.38,4.85,5.36-43.37,16.66-149.79,16.66-149.79Z"/>
    <path class="cls-12" d="M142.29,183.81c-36.95-6.1-81.18-.57-81.18-.57,0,0-34.01,11.82-19.8,33.31,12.4,18.75,91,11.36,118.52,1.28l.39-.15c.16-1.88.42-3.75.74-5.6.75-4.17,1.83-8.27,3.22-12.27"/>
    <path class="cls-24" d="M57.39,148.8s-30.48,32.64-20.87,60.74c6.45,18.86,41.49,18.26,41.49,18.26,0,0,14.54-27.63,28.36-35.45,16.28-9.18,36.53-9.54,36.53-9.54,0,0-4.06-16.12-11.62-17.56s-73.88-16.46-73.88-16.46Z"/>
    <path class="cls-24" d="M133.14,163.53c1.07-2.39,2.03-9.45,2.68-12.02.14-.55,5.16-3.96,6.37-5.19,1.84-2.54,5.17-5.05,6.04-8.08,1.8-6.33.8-12.48,2.7-18.79.96-3.19,2.52-6.16,4.6-8.77.89-1.13,1.84-2.21,2.86-3.22h0c.44-1.19.57-2.48.35-3.73-.35-2.3-1.05-4.53-2.06-6.62-.81-1.7-1.76-3.33-2.83-4.89l-8.03-3.9-5.73-4.72-13.99-13.55-16.88-14.04s-23.27,8.79-27.24,10.06c-4.85,1.53-9.59,61.14-9.59,61.14,0,0-1.35,15.62-21.57,32.34-.13.11-7.4,8.17-7.52,8.3-.32.43,2.07,1.46,2.4,1.87.98,1.24,3.01,2.15,4.24,3.17,2.52,2,5,2.61,7.84,4.08,3.87,2.02,7.83,3.85,11.88,5.48,3.78,1.49,8.03,2.15,11.7,3.82l31.31-4.02,14.44-4.04c.27-2.39.28-4.77.64-7.16.37-2.39,9.67,8.41,10.38,5.99.35-1.18,0-10.25.48-11.4.11-.15-5.54-2.02-5.48-2.14Z"/>
    <line class="cls-2" x1="127.59" y1="128.93" x2="127.43" y2="129.38"/>
    <path class="cls-12" d="M153.66,111.27c-1.01,1.09-1.87,2.31-2.58,3.62-.62,1.27-.94,2.67-.96,4.08-.25,3.89-.39,7.78-.76,11.66-.4,4.21-1.26,8.07-3.72,11.6-2.13,2.97-4.83,5.5-7.94,7.42-.66.31-1.3.67-1.91,1.07-.67.61-1.02,5.45-1.22,6.34-.08.32.75.19.82-.1l.69-4.8c.12-.35.19-.71.23-1.07,0-.31-.05-.11-.15,0,.56-.37,1.14-.7,1.74-.99,2.75-1.68,5.21-3.79,7.28-6.25,2.53-3.01,4.15-6.68,4.68-10.57.57-4.08.73-8.23.96-12.34,0-1.47.11-2.94.37-4.39.62-1.94,1.69-3.7,3.13-5.14.32-.35-.46-.37-.66-.15h0Z"/>
    <path class="cls-16" d="M103.27,97.59c-2.32-2.7-11.46-26.35-11.46-26.35-2.64-8.11-5.61-7.71,3.42-13.03l9.67-6.21S109.14-5.21,147.01,3.45c0,0,24.53,3.17,22.12,27.29,0,0-2.27,15.28-6.12,24.5-3.58,8.59-12.27,23.52-12.27,23.52"/>
    <path class="cls-16" d="M154.06,88.68s-1.85,2.08-5.93,7.52c-2.16,3.8-4.94,7.21-8.23,10.09-9.28,8.26-21.97,6.33-31.82-2.15-6.95-5.97-11.97-26.68-11.97-26.68l11.03-32.61,10.1,6.56s-.63,18.77,17.52,23.32c18.16,4.56,19.77-11.13,19.77-11.13l-2.71,12.89c-.06,2.99.41,3.48,2.05,8.35l.18,3.82Z"/>
    <path class="cls-8" d="M165.23,41.34c1.21-3.36,1.76-11.27,1.76-11.27,0-.37.69-5.88.63-6.21-4.53-3.9-10.96-9.35-16.86-9.8-5.72-.43-18.93-1.07-21.32,5.61-.73,2.03-3.59,15.63-5.28,15.5-.11.22-.19.46-.25.7-.6,1.83-1.32,3.63-2.15,5.37-.44-1.09-.78-2.21-1.01-3.36-.09-.74.38-1.5.29-2.25-.42-1.76-2.57-1.94-3.96-1.39l-.28.24c-2.15,1.58-2.63,8.59-2.15,10.85-.93,4,1.84,7.16,4.68,4.96v1.7l2.92,6.53c2.65,5.28,7.76,14.14,13.97,16.05,4.22,1.3,5.87.73,7.85-.23,3.02-1.45,5.09-3.48,7.63-5.51,2.15-1.59,3.95-3.59,5.31-5.89,1.36-1.96,2.24-4.22,2.56-6.59.31-1.58.75-3.14,1.31-4.65.63-1.44,3.13-7.02,4.33-10.38Z"/>
    <path class="cls-28" d="M133.36,36.01c.36.01.72.04,1.07.1,2.12.42,4.2,1.06,6.19,1.91,1.73.8,3.38,1.76,4.93,2.87.16-.37.2-.15.37-.52l.6-1.42c-2.74-1.54-5.65-2.73-8.68-3.56-.96-.18-1.93-.22-2.9-.13-1.03.05-2.05.2-3.05.46-.44.28,1.47.28,1.47.28Z"/>
    <path class="cls-28" d="M163.58,45.57c0-.06,0-.13,0-.19h0c-.41-.36-.86-.68-1.33-.96-2.42-1.1-4.97-1.87-7.6-2.29l-.77,2.02c1.65.06,3.29.3,4.89.7,1.52.42,3,1,4.4,1.72.1-.12.19-.25.27-.39,0-.1.09-.19.12-.29.02-.11.02-.21.02-.32Z"/>
    <path class="cls-19" d="M121.54,38.02s10.92-17.37,30.5-11.94c11.31,3.14,13.47,14.34,13.47,14.34,0,0,3.29-10.41,0-15.83-3.29-5.41-17.76-10.55-25.52-9.54-7.76,1.01-18.46,22.96-18.46,22.96Z"/>
    <path class="cls-16" d="M118.54,20.45s12.49-19.73,31.26-14.65c23.29,6.35,18.21,31.41,18.21,31.41l-5.87,17.96c1.6-4.6,3.22-8.66,3.37-13.53.64-2.68,3.79-9.33-2.23-16.18-3.22-3.71-8.09-5.75-12.89-6.52-4.43-.71-9.67-.64-13.46,2.23-3.12,2.41-5.74,5.39-7.72,8.8-2.76,4.47-5,11.48-6.1,16.62-.91,4.65-2.78,10.74,2.15,20.41-18.01-12.8-11.68-36.32-7.25-46.72l.54.16Z"/>
    <path class="cls-12" d="M135.79,5.97c-4.95,2.01-9.25,6.34-12,10.81-4.49,7.33-5.37,16.6-5.75,25-.11,2.29-.16,4.59-.1,6.87,0,.55,1.07.38,1.07-.09-.17-5.59.17-11.18.99-16.71.52-4.29,1.67-8.49,3.42-12.44,1.8-3.76,4.44-7.07,7.7-9.67,1.55-1.31,3.28-2.39,5.12-3.22.67-.27.08-.82-.46-.6v.05Z"/>
    <path class="cls-12" d="M104.91,52.22c-.12,3.43-.01,6.87.32,10.28.56,6.24,1.69,12.75,4.67,18.33,1.43,2.94,3.75,5.36,6.62,6.92.38.19,1.31-.32.82-.58-5.47-2.75-7.96-9.06-9.38-14.65-1.32-5.51-2-11.16-2.02-16.84v-3.56c0-.52-1.07-.34-1.07.1h.04Z"/>
    <path class="cls-12" d="M121.88,60.13c.57,7.25,1.85,15.4,7.52,20.54,5.67,5.15,13.52,3.98,20.23,1.92.63-.19.46-.88-.18-.68-3.65,1.22-7.5,1.77-11.35,1.63-3.3-.25-6.38-1.76-8.59-4.22-4.89-5.16-5.98-12.7-6.52-19.48,0-.45-1.07-.2-1.07.28h-.03Z"/>
    <path class="cls-12" d="M150.62,85.74c-3.63-.38-6.45.99-9.29,3.13-1.82,1.38-3.62,2.77-5.46,4.1-2.15,1.55-4.66,2.93-7.31,1.82-.28-.12-1.25.31-.84.48,3.6,1.53,7.1-.75,9.91-2.86,3.69-2.77,7.36-6.65,12.33-6.15.3,0,1.22-.47.66-.53Z"/>
    <path class="cls-28" d="M144.42,56.7c.63.54,1.36.94,2.15,1.18.68.26,1.42.38,2.15.33.64-.06,1.23-.38,1.62-.89.26-.48.38-1.03.33-1.58v-1.58c0-.06-.37,0-.37.1,0,.5.05,1.01,0,1.51.08.66-.12,1.33-.55,1.85-.72.51-1.65.61-2.46.25-.95-.22-1.83-.67-2.57-1.3-.06-.06-.4.08-.33.13h.02Z"/>
    <path class="cls-28" d="M142.22,53.29c-.31-.1-.64-.03-.88.19-.23.23-.4.51-.49.83-.12.29-.12.62,0,.91.23.38.58.67.99.84.25.12.52.18.8.19.31-.02.63-.02.95,0,.08.02.17.02.26,0,0,0,.13-.08,0-.09-.45-.06-.92,0-1.36-.06-.41-.1-.78-.31-1.07-.6-.24-.22-.36-.54-.34-.86.04-.26.12-.52.26-.75.07-.15.16-.28.27-.4.04-.04.08-.07.13-.1h0s.07,0,.11,0c.08.03.16.03.24,0,0,0,.16-.06.11-.09l.06-.02Z"/>
    <path class="cls-12" d="M67.01,145.17c-1.41-.67-2.97-.93-4.52-.75-.75,0-1.51.14-2.28.26-.77.08-1.51.35-2.15.78-.15.1-.19.3-.09.45.02.04.05.07.09.09.24.13.54.11.75-.06.52-.32,1.12-.51,1.73-.54.64-.09,1.29-.17,1.94-.21,1.3-.16,2.61.05,3.8.59.24.13.54.11.75-.06.15-.12.3-.41,0-.54h-.03Z"/>
    <path class="cls-10" d="M142.8,60.66c-2.99-1.07-7.96-3.12-7.96-3.12,0,0-1.87,8.47,5.05,10.82s10.26-5.37,10.26-5.37c0,0-4.36-1.32-7.35-2.33Z"/>
    <path class="cls-26" d="M142.82,60.67c-1.42-.48-7.06-2.69-7.06-2.69,0,0-.16,5.87,4.97,7.62,3.18,1.11,6.72-.07,8.59-2.87l-6.51-2.06Z"/>
    <path class="cls-14" d="M142.81,60.91c-1.42-.48-5.65-2.2-5.65-2.2,0,0,1.01,2.15,5.28,3.58s6.13.35,6.13.35l-5.76-1.73Z"/>
    <path class="cls-10" d="M150.4,62.83c-.29-.22-.6-.42-.92-.6-.84-.52-1.71-1-2.6-1.43-1.05-.32-2.13-.5-3.22-.55-.88-.61-1.84-1.12-2.85-1.5-.88-.23-3.33-.7-4.54-.99-.56-.21-1.1-.46-1.62-.76-.23,0-.12,1.78,7.83,4.48,7.95,2.7,8.08,1.48,7.93,1.35Z"/>
    <path class="cls-24" d="M64.6,144c-2.92.24-5.81.66-8.7,1.07-.15-1.92-.21-3.74-.18-5.53.11-7.61,5.18-44.05,9.42-55.53,4.38-16.95,18.67-18.37,18.67-18.37l3.41,41.7-2.89,34.81c-4.94,1.04-14.71,1.44-19.73,1.86Z"/>
    <path class="cls-12" d="M81.79,144.02l18.64,7.21,29.76,11.51,6.88,2.65c.27.11.88-.28.45-.45l-18.65-7.2-29.73-11.51-6.88-2.66c-.28-.1-.88.29-.45.45h-.02Z"/>
    <path class="cls-12" d="M83.83,78.66c4.81,1.34,6.71,6.94,6.58,11.41-.11,3.7-.54,7.38-.99,11.04-1.22,9.89-2.88,19.76-4.81,29.53-.88,4.44-1.8,8.87-2.98,13.24-.1.34.73.24.82-.08,2.42-8.95,4.01-18.15,5.52-27.28,1.45-8.8,3.04-17.79,3.22-26.73.12-4.63-2-10.27-6.92-11.65-.31-.09-.96.37-.48.5h.04Z"/>
    <path class="cls-24" d="M57.29,126.74s-1.78,9.59-1.76,10.51c.13,4.3-2.15,11.37,2.34,20.58,3.84,7.93,15.44,10.26,25.98,4.2s-9.43-23.52-9.43-23.52l-17.13-11.78Z"/>
    <path class="cls-12" d="M82.3,143.49c-4.89-.58-11.51.53-14.19,5.18-.09.14.68.09.81-.13,2.46-4.3,8.39-5.21,12.89-4.67.2,0,.95-.32.52-.38h-.02Z"/>
    <path class="cls-12" d="M55.3,151.07c.47.71.78,1.51.92,2.35.35,1.31.81,2.59,1.35,3.82,1.98,3.92,5.09,7.16,8.92,9.31,6.45,3.87,13.9,5.74,21.14,7.31,7.94,1.71,15.99,2.86,24.04,3.8,8.52,1,17.06,1.73,25.59,2.57.15,0,.73,0,.74-.26l.15-3.47c0-.11-.8,0-.81.21l-.16,3.47.74-.26c-15.51-1.54-31.16-2.72-46.42-5.73-7.52-1.47-15.37-3.22-22.25-6.8-4.3-2.22-8.26-5.31-10.52-9.67-.7-1.4-1.26-2.86-1.68-4.36-.18-.92-.54-1.8-1.07-2.58-.13-.15-.88.14-.77.27h.08Z"/>
    <path class="cls-12" d="M160.9,149.43c-3.81-1.2-7.91.75-9.38,4.47-.15.4.59.41.71.09,1.24-3.32,4.86-5.1,8.25-4.05.33.12.87-.35.42-.5Z"/>
    <path class="cls-8" d="M137.45,164.94l-.2,6.96-.19,6.45s8.4,3.33,11.02,3.55,8.67,1.46,8.67,1.46c-.45.67-.65,1.48-.58,2.29.15.92.67,1.74,1.44,2.27l3.44-3.5c.38,2,2.32.92,2.32.92l2.61-3.16c.35,2.5,2.9,1.17,2.9,1.17l2.08-4.77c.47.93,1.11,1.76,1.89,2.44,1.07.76,1.79-1.13,1.79-1.13l-2.84-8.59-10.96-5.73-19.55.34-3.85-.97Z"/>
    <path class="cls-3" d="M160.87,165.77l-20.56.96-2.88-.59"/>
    <path class="cls-22" d="M171.15,174.34c-.62-.76-1.32-1.44-2.08-2.05-.81-.67-1.62-1.21-2.35-1.71-.65-.45-1.34-.86-2.04-1.22-.51-.3-1.11-.43-1.7-.38l-.06.17c.55.12,1.08.31,1.58.58.67.4,1.31.83,1.93,1.3.72.52,1.5,1.07,2.29,1.7.73.59,1.42,1.25,2.04,1.96.26.26.4.62.39.99,0,.35,0,.74-.09,1.07-.15,1.33-.32,2.15-.26,2.15.36-.64.58-1.35.64-2.08.07-.35.13-.71.16-1.07.05-.51-.11-1.02-.45-1.4Z"/>
    <path class="cls-22" d="M167.5,178.26c-.02-.47-.11-.94-.26-1.39-.28-.43-.64-.8-1.07-1.07-1.62-1.07-3.22-1.87-4.3-2.52-.4-.28-.8-.53-1.21-.77l-.11.18c.32.34.68.64,1.07.88,1.07.75,2.61,1.58,4.17,2.65.37.22.7.51.96.85.12.38.2.77.23,1.17.13.72.08,1.45-.14,2.15-.18.46-.41.9-.67,1.32-.08.17-.14.35-.17.54.13-.13.25-.28.35-.43.31-.41.59-.84.83-1.29.3-.72.41-1.5.32-2.27Z"/>
    <path class="cls-22" d="M161.93,179.86c-.57-.42-1.22-.72-1.9-.9l-1.58-.47c-.32-.1-.65-.17-.98-.23l-.1.2c.23.08.55.24.91.38l1.55.58c.61.19,1.19.48,1.71.85.51.34.81.91.82,1.53-.04.5-.22.98-.54,1.38-.49.73-.96,1.07-.89,1.18.49-.2.92-.52,1.25-.92.41-.44.67-.99.73-1.59.04-.78-.33-1.53-.98-1.98Z"/>
    <path class="cls-19" d="M188.89,124.21s-3.55-.47-4.61-1.21-.5-2.54-.5-2.54c0,0-.37-.21,1.08-.11s3.59.53,4.03,3.85Z"/>
    <path class="cls-19" d="M202.13,129.82s-2.81-.7-4.96-1.86-3.18-1.93-3.18-1.93c0,0,3.05-1.45,4.62-.75,1.57.7,3.15,2.54,3.52,4.54Z"/>
    <path class="cls-19" d="M132.29,40.72s3.35,2.74,4.95,3.28,5.29.78,5.29.78c0,0-3.09-3.13-3.93-3.45s-4.58-.49-6.32-.61Z"/>
    <path class="cls-19" d="M152.56,47.92s3.42,3.48,5.79,3.16c1.42-.19,3.1-.86,3.1-.86,0,0-1.86-1.33-2.99-1.69-1.18-.38-3.17-.75-5.9-.6Z"/>
    <circle class="cls-9" cx="185.13" cy="121.61" r="1.4"/>
    <path class="cls-15" d="M183.98,119.94c1.01-.18,2.06-.03,2.98.44,1.97.94,1.95,3.82,1.95,3.82-.25-1.38-1.08-2.6-2.28-3.32-.88-.42-1.87-.56-2.84-.42.08-.17.15-.34.2-.52Z"/>
    <circle class="cls-11" cx="198" cy="126.54" r="1.4"/>
    <path class="cls-15" d="M193.99,126.03s2.96-1.93,5.13-.92c3.05,1.41,2.85,3.68,3.08,4.95,0,0-.96-3.4-3.34-4.44-2.17-.93-4.87.41-4.87.41Z"/>
    <path class="cls-28" d="M139.19,44.42c.12,0,.19-.15.27-.24.17-.22.26-.49.28-.77,0-.5-.25-.97-.67-1.25-.51-.33-1.17-.29-1.64.1-.55.48-.7,1.2-.45,1.66,0,0,1.36.51,2.2.5Z"/>
    <path class="cls-28" d="M142.53,44.78c-1.05-1.75-2.61-3.13-4.48-3.94-2.11-.71-4.37-.8-6.53-.26,2.09.11,4.16.41,6.19.89,1.71.95,3.33,2.05,4.82,3.31Z"/>
    <path class="cls-28" d="M131.95,40.72s-1,0-1.07-1.27c.99.78,2.2,1.23,3.46,1.27h-2.39Z"/>
    <path class="cls-28" d="M157.3,48.44c.63-.05,1.23.26,1.55.8.11.24.16.52.14.78-.04.5-.2.81-.64,1.06-.65.01-1.22.03-1.95-.34-.51-.53-.38-1.09.03-1.7.2-.31.51-.53.87-.6"/>
    <path class="cls-28" d="M152.39,48.01c1.25-.38,2.55-.55,3.85-.5,2.94.38,4.76,1.51,5.15,2.74-1.49-1.04-3.19-1.74-4.99-2.06-1.33-.13-2.67-.18-4.01-.17Z"/>
    <path class="cls-28" d="M161.01,50.11c.4.49,1.12.57,1.62.18,0,0-1.01.3-2.15-1.29l.53,1.11Z"/>
    <path class="cls-18" d="M162.13,179.63s.3-.27-.47,1.52c-1.19,2.32-2.34,1.71-2.9,4.25.38-.05.8.29.8.29,8.87,4.15,22.76,8.28,28.21,5.62,0,.04,0-.04,0,0,4.74-1.74,15.81-11.33,15.81-11.33l-9.19-11.48-5.25,5.66s-6,5.79-6.02,5.77l-20.98-.31Z"/>
    <path class="cls-18" d="M151.47,183.58s-4.81-2.08-4.6-3.38c.21-1.3,1.4.48,4.68.52,0,0-5.66-2.59-4.34-4.95.35-.62,2.34,1.44,3.55,1.84,1.24.41,1.99.26,1.99.26,0,0-4.32-2.57-3.68-3.9.32-.65,1.87.46,3.12.89,1.3.45,3.52.79,3.52.79,0,0-2.87-1.77-3.28-2.87-.47-1.28,2.96-.3,4.74.58,1.13.56,3.69,3.28,4.92,4.84.31.1,2.77,2.06,3.17,2.14-.03.43.03.51-.06.94-.47,2.15-2.42,3.48-3.77,5.2-.3.38-2.01-.08-2.34.28-3.87.48-6.64-.79-7.61-.91-1.97-.24-3.63-1.48-3.56-2.29.03-.35,3.53,0,3.53,0Z"/>
    <path class="cls-22" d="M174.88,179.73c-3.34-.04-6.68-.07-10.03-.11-.12,0-.32.04-.43,0-.25-.09-.64-.5-.87-.68-.3-.22-.6-.43-.9-.64-.51-.35-.88-.95-1.29-1.41-.53-.6-1.08-1.18-1.65-1.74-.92-.91-1.82-1.69-3.03-2.18-1.1-.45-2.45-.97-3.66-.83-.32.04-.86.15-.97.52-.12.43.4.93.67,1.2.78.79,1.72,1.45,2.66,2.03l.57-.28c-1.44-.22-2.93-.5-4.26-1.11-.61-.28-2.69-1.48-3.02-.21-.24.9,1.03,1.86,1.61,2.34.67.55,1.39,1.05,2.13,1.49l.4-.27c-1.24.22-2.43-.57-3.38-1.25-.6-.43-1.54-1.33-2.35-.85-.73.43-.39,1.57-.03,2.12.57.87,1.45,1.51,2.31,2.07.59.38,1.22.74,1.86,1.03l.57-.28c-.92-.02-1.82-.17-2.69-.47-.46-.16-.93-.42-1.41-.5-.65-.11-1.4.32-1.12,1.07.36.93,1.66,1.56,2.47,2.01.7.39,1.41.75,2.14,1.06.17.07.82-.19.59-.29-1.41-.61-3.05-1.35-4.13-2.48-.23-.24-.46-.54-.39-.9,0,0,.07-.19.06-.2-.01-.03-.21-.04-.16.03.04.06.39.13.47.15,1.21.46,2.39.8,3.7.82.07,0,.74-.21.57-.28-.66-.3-1.3-.67-1.91-1.06-.95-.62-2.15-1.44-2.52-2.58-.08-.25-.12-.51-.07-.77.02-.11.13-.28.13-.38.12-.17.05-.16-.22.03.05.01.1.03.15.06.21.2.57.34.81.5.31.22.61.44.92.65,1,.69,2.25,1.19,3.5.98.04,0,.56-.18.4-.27-.56-.34-1.11-.71-1.64-1.11-.72-.54-1.81-1.29-2.05-2.22-.03-.12-.09-.4.02-.5-.09.08.07.07.19.11.2.06.39.15.58.24.68.31,1.34.65,2.07.87,1.05.31,2.14.52,3.22.68.09.01.73-.18.57-.28-.71-.44-1.41-.93-2.05-1.47-.41-.35-.91-.75-1.15-1.25-.07-.15-.13-.31-.06-.47.03-.06-.02-.02-.05,0,.03-.02.13-.01.16-.01.18,0,.35.02.52.04,1.21.17,2.61.61,3.65,1.26,1.11.69,2.04,1.74,2.92,2.68.5.53.98,1.08,1.44,1.64.36.43.79.68,1.25,1.01.36.26.83.76,1.27.85.15.03.34,0,.49,0l5.33.06,4.61.05c.17,0,.82-.31.47-.31h0Z"/>
    <path class="cls-29" d="M212.72,152.9c-1.62-1.75-3.28-2.36-5-3.96-.28-.26-1.57-.35-1.94-.45-1.16-.33-2.77.67-3.57,1.43-1.61,1.55-2.85,3.47-4.04,5.34-4.28,6.73-3.99,7.16-3.99,7.16l-.52.72c1,1.71.45,2.97,1.97,4.17,0,0-3.42.79-3.43.79-.56,1.73,12.79,15.79,15.81,14.33,0,0,3.61-5.25,4.77-6.7,1.24-1.55,2.98-6.68,3.5-7.64,1.67-3.12.16-9.68-1.54-12.48-.58-.97-1.26-1.86-2.03-2.7Z"/>
    <path class="cls-5" d="M193.65,169.28c-.43-.51-.9-1.13-.92-1.83-.01-.33.26-.51.47-.74.24-.26.47-.52.71-.79,1.02-1.17,2.01-2.37,2.99-3.56.98-1.18,1.95-2.36,2.98-3.49,1.12-1.22,2.31-2.47,3.72-3.35,1.62-1.02,3.76-1.38,5.39-.19.2.15.87-.15.57-.36-1.4-1.02-3.28-1-4.86-.45-1.83.64-3.27,2.02-4.6,3.37-2.36,2.41-4.38,5.13-6.59,7.67-.28.33-.57.65-.86.97-.23.25-.62.52-.65.88-.06.82.48,1.56.98,2.16.17.2.87-.06.67-.29h0Z"/>
    <path class="cls-5" d="M203.25,180.14c.46.64,1.05,1.26,1.71,1.7.45.3.99.53,1.55.48.39-.04.73-.22,1.04-.44.76-.55,1.41-1.27,2.04-1.97.7-.77,1.36-1.58,2.01-2.39.37-.46.73-.92,1.08-1.38.27-.36-.42-.43-.6-.18-.84,1.11-1.72,2.2-2.64,3.25-.63.72-1.27,1.44-1.99,2.08-.1.08-.26.21-.39.31-.06.04-.12.08-.17.12-.01,0-.11.06-.06.04.04-.02-.05.02-.06.03-.03.01-.05.02-.08.03-.04.02.11-.02-.02,0-.06,0-.14.02-.23.02-.22-.02-.44-.11-.63-.21-.76-.41-1.4-1.1-1.9-1.79-.18-.24-.87.02-.67.31h0Z"/>
    <path class="cls-22" d="M182.79,180.1c1.12.6,1.93,1.7,2.19,2.94.08.35.11.72.09,1.08,0,.12.71.03.72-.19.06-1.29-.5-2.58-1.44-3.45-.27-.25-.56-.46-.88-.62-.13-.07-.34-.02-.47.03-.03.01-.33.15-.21.22h0Z"/>
  </g>
</svg>