<svg xmlns="http://www.w3.org/2000/svg" xmlns:xlink="http://www.w3.org/1999/xlink" viewBox="0 0 292.89 301.99"><defs><style>.cls-1{fill:none;}.cls-2{isolation:isolate;}.cls-3{clip-path:url(#clip-path);}.cls-4{fill:#f2ebd1;}.cls-5{fill:#c79e81;}.cls-6{fill:#a382ad;}.cls-7{fill:#283e1b;}.cls-8{fill:#565656;}.cls-10,.cls-9{fill:#cfcfcf;}.cls-10{mix-blend-mode:multiply;opacity:0.27;}.cls-11{fill:#52656c;}.cls-12,.cls-15{fill:#151210;}.cls-12{stroke:#231f20;stroke-miterlimit:10;stroke-width:0.33px;}.cls-13{fill:#ccb631;}.cls-14{fill:#4f2e25;}.cls-16{fill:#231f20;}.cls-17{fill:#1d170f;}.cls-18{fill:#975449;}.cls-19{fill:#31160e;}.cls-20{fill:#f1eef7;}.cls-21{fill:#13110f;}.cls-22{fill:#f79224;}.cls-23{fill:#e2e2e2;}.cls-24{fill:#95c5d5;}.cls-25{fill:#fff;}.cls-26{fill:#f17f29;}.cls-27{fill:#1e572b;}.cls-28{fill:#23803f;}.cls-29{fill:#27153c;}.cls-30{fill:#f58235;opacity:0.67;}.cls-31{fill:#774e80;}.cls-32{fill:#87654d;}.cls-33{fill:#a38166;}.cls-34{fill:#b3b1b1;}</style><clipPath id="clip-path"><path class="cls-1" d="M244.49,73.7C246,54.6,243,26.16,213.34,23.13c0,0-18.87-3.75-29.23,9.55A126.64,126.64,0,0,0,40.9,83.43c-5.73,2-10.79,5.48-13.51,10.51-3.72,6.87-5.16,17.51-6.31,25.35Q19.9,127,18.8,134.81a6,6,0,0,0,.2,3.52,5.09,5.09,0,0,0,1.51,1.52,126.49,126.49,0,1,0,224-66.15Z"/></clipPath></defs><g class="cls-2"><g id="Layer_10" data-name="Layer 10"><g class="cls-3"><circle class="cls-4" cx="146.28" cy="153.27" r="126.49" transform="translate(-65.54 148.33) rotate(-45)"/><path class="cls-5" d="M127.16,137.85l-2.86-5s-1-5.73-2-7.48-6.38-7.5-6.72-7.67-3.18-9.67-5-9.62-3.28,1.18-3.09,3.68,3.61,7.88,2.39,8.53a8.22,8.22,0,0,1-3.08.73s-.14-2.87-1.55-4-3.33,0-3.33,0l-.23,1.42-1.34-1.59s-.87-5.82-3.29-6.1a10,10,0,0,0-2-3.52,2.1,2.1,0,0,0-3,0,1.9,1.9,0,0,0-.35.49h0L94.46,121l10.23,14.67s6.72,3.26,8.06,4.11l2.12,4Z"/><path class="cls-6" d="M157.67,197.34c1-6.33,1.75-9.24.26-15.45-.09,0-1-2.93-1-2.93l-31.74-46.43c-1.32,4.17-6.63,8.88-13.92,9.49,8.06,20.2,15.43,47.31,27.85,65.26,4.77,6.89,12.52,12.55,21.29,13C163,216,156.89,202.37,157.67,197.34Z"/><path class="cls-6" d="M166.33,272.28s2.45-45,12-56.79h85.11S281,262.32,282,272.13Z"/><path class="cls-6" d="M261.82,238.16c-.49-2.74-1.51-4.67-2.44-7.29A31.79,31.79,0,0,1,258.1,224c-1.31-11.89-1.31-21.64-.53-27.41.55-4.07,6.34-6.52,8.69-14.33,2.06-6.84-11.22-65-11.22-65l-14.54-6.7-6.84,1.25-.4-.24a3.38,3.38,0,0,0,0,.94l.06.49a17.48,17.48,0,0,1-13.69,8.83,42.82,42.82,0,0,1-6,.06c-6.52-.4-11.44-3.56-15.23-8.89l-.13-2.14-12.23,3.52-10.72,7.77-12.23,51.12c.53,9.6-3.59,7.05.4,15.79l7.42,5.37.34,29.58s-2.16,8-6.24,20.56H262.9C262.48,242.58,262.18,240.2,261.82,238.16Z"/><path class="cls-5" d="M60.77,244.76a.6.6,0,0,1-.05.35c-.41.95-2.54,4.89-2.6,8.64,0,3.37-.12,8.28-.15,10a.68.68,0,0,0,.77.67c.57-.09,1.31-.47,1.76-1.81a25.62,25.62,0,0,0,.82-4.5.69.69,0,0,1,1.11-.46h0a.65.65,0,0,1,.24.56l-.3,4.72a.67.67,0,0,1-.43.58c-.9.35-3.06,1.32-3.68,2.78a.67.67,0,0,0,.67.9L62,267l.13,0,3.06-.69a.56.56,0,0,0,.32-.17l2.77-2.63a.59.59,0,0,0,.18-.29l2.34-8.31a4.45,4.45,0,0,0,0-2.32,64.33,64.33,0,0,1-1.3-6.61c-.5-4.35-.78-7.16-.9-8.46a.68.68,0,0,0-.9-.56l-7.2,2.41a.65.65,0,0,0-.45.72Z"/><path class="cls-7" d="M55.61,233.36a98.94,98.94,0,0,0-3.56-27.6c-.08-.32-.85-.11-.88.17a165.32,165.32,0,0,0,.08,34.31c0,.32.93.12.89-.24a164.66,164.66,0,0,1-.08-34.17l-.89.17a98.32,98.32,0,0,1,3.55,27.46c0,.39.89.21.89-.1Z"/><path class="cls-8" d="M27.05,228.14Z"/><path class="cls-9" d="M55.76,240.78l-.13.09Z"/><path class="cls-9" d="M55.46,241l-.3.2Z"/><path class="cls-9" d="M55.6,240.89l-.11.08Z"/><path class="cls-9" d="M55.13,241.21l-.14.09Z"/><path class="cls-9" d="M56.16,240.45l-.1.09Z"/><path class="cls-9" d="M56.41,240.22l-.23.21Z"/><path class="cls-9" d="M56,240.56l-.1.09Z"/><path class="cls-9" d="M55.91,240.66l-.14.11Z"/><path class="cls-9" d="M55,241.32l-.15.09Z"/><path class="cls-9" d="M5.17,241.21,5,241.12Z"/><path class="cls-9" d="M5.35,241.31l-.13-.08Z"/><path class="cls-9" d="M54.41,241.63l-.15.08Z"/><path class="cls-9" d="M54.79,241.42l-.35.19Z"/><path class="cls-9" d="M57.11,239.29a.35.35,0,0,1,0,.08A.35.35,0,0,0,57.11,239.29Z"/><path class="cls-9" d="M57.39,238.44s0,.05,0,.08S57.39,238.46,57.39,238.44Z"/><path class="cls-9" d="M57.23,239a1.17,1.17,0,0,0,0,.11A1.17,1.17,0,0,1,57.23,239Z"/><path class="cls-9" d="M56.72,239.87l-.09.11Z"/><path class="cls-9" d="M57,239.52a.86.86,0,0,0-.07.1A.86.86,0,0,1,57,239.52Z"/><path class="cls-9" d="M56.62,240l-.08.09Z"/><path class="cls-9" d="M56.81,239.76l-.08.09Z"/><path class="cls-9" d="M57.37,238.55a.43.43,0,0,1,0,.11A.43.43,0,0,0,57.37,238.55Z"/><path class="cls-9" d="M57.4,238.31s0,.06,0,.09S57.4,238.34,57.4,238.31Z"/><path class="cls-9" d="M57.31,238.81a.24.24,0,0,0,0,.08A.24.24,0,0,1,57.31,238.81Z"/><path class="cls-9" d="M57.27,238.92l0,.1Z"/><path class="cls-9" d="M56.89,239.65l-.06.08Z"/><path class="cls-9" d="M57.34,238.68s0,.06,0,.09S57.33,238.71,57.34,238.68Z"/><path class="cls-9" d="M57.05,239.4l-.07.11Z"/><path class="cls-9" d="M57.17,239.17l0,.08Z"/><path class="cls-9" d="M56.51,240.11l-.08.08Z"/><path class="cls-10" d="M54.26,241.71l0,0Z"/><path class="cls-10" d="M5.4,241.33l-.05,0Z"/><path class="cls-10" d="M57,239.51h0Z"/><path class="cls-10" d="M5.22,241.23l0,0Z"/><path class="cls-10" d="M56.91,239.62l0,0Z"/><path class="cls-10" d="M56.43,240.19l0,0Z"/><path class="cls-10" d="M55.77,240.77h0Z"/><path class="cls-10" d="M55.93,240.65h0Z"/><path class="cls-10" d="M56.54,240.08l0,0Z"/><path class="cls-10" d="M57.06,239.37a0,0,0,0,1,0,0A0,0,0,0,0,57.06,239.37Z"/><path class="cls-10" d="M56.06,240.54l0,0Z"/><path class="cls-10" d="M55.63,240.87l0,0Z"/><path class="cls-10" d="M56.18,240.43l0,0Z"/><path class="cls-10" d="M56.83,239.73l0,0Z"/><path class="cls-10" d="M54.81,241.41h0Z"/><path class="cls-10" d="M54.44,241.61l0,0Z"/><path class="cls-10" d="M56.73,239.85a0,0,0,0,1,0,0A0,0,0,0,0,56.73,239.85Z"/><path class="cls-10" d="M55,241.3l0,0Z"/><path class="cls-10" d="M56.63,240h0Z"/><path class="cls-10" d="M55.49,241l0,0Z"/><path class="cls-10" d="M57.24,239s0,0,0,0S57.23,239,57.24,239Z"/><path class="cls-10" d="M57.39,238.4v0Z"/><path class="cls-10" d="M57.38,238.52a0,0,0,0,0,0,0A0,0,0,0,1,57.38,238.52Z"/><path class="cls-10" d="M57.35,238.66v0Z"/><path class="cls-10" d="M57.18,239.15v0Z"/><path class="cls-10" d="M57.13,239.25l0,0Z"/><path class="cls-10" d="M57.32,238.77s0,0,0,0S57.32,238.79,57.32,238.77Z"/><path class="cls-10" d="M57.29,238.89l0,0Z"/><path d="M52.67,209l.07,0v-.19Z"/><path d="M53.15,210.12l.08,0V210Z"/><path class="cls-11" d="M80.71,210.3a.18.18,0,0,0-.3,0Z"/><path class="cls-5" d="M78.66,247.26a.79.79,0,0,1,0,.4c-.48,1.07-2.9,5.55-3,9.81-.05,3.84-.14,9.42-.17,11.35a.76.76,0,0,0,.87.76c.65-.09,1.5-.53,2-2.06a28.54,28.54,0,0,0,.93-5.11.78.78,0,0,1,1.26-.52h0a.72.72,0,0,1,.28.63l-.34,5.38a.76.76,0,0,1-.49.65c-1,.39-3.48,1.5-4.18,3.17a.75.75,0,0,0,.76,1l3.54-.15.14,0,3.48-.79a.73.73,0,0,0,.37-.19l3.15-3a.66.66,0,0,0,.2-.34l2.66-9.45a5.1,5.1,0,0,0,0-2.63,71.18,71.18,0,0,1-1.48-7.51c-.57-4.95-.89-8.15-1-9.62a.77.77,0,0,0-1-.64l-8.19,2.74a.75.75,0,0,0-.51.81Z"/><path class="cls-5" d="M74.08,151.83c1.13.38,11,11.49,13.27,18.74s2.5,22.78,3.56,29.14c1.21,6.57,2,13.92,2.74,22.14a43.5,43.5,0,0,1,.12,6.46l-1,17.67-7.15-1.38s-5.45-45.07-9.55-55.22S74.08,151.83,74.08,151.83Z"/><path class="cls-12" d="M77.22,97.47c-3.63-10-8.73-13.24-18.63-15.27-10.89-2.35-25.73,1.65-31.2,11.74-3.72,6.87-5.16,17.51-6.31,25.35Q19.9,127,18.8,134.81a6,6,0,0,0,.2,3.52,5.09,5.09,0,0,0,3.24,2.26,31.11,31.11,0,0,0,16.79.73l12.57,3.34,21.71-4a6.92,6.92,0,0,0,4.13-1.79,7.68,7.68,0,0,0,1.37-4.22C80,124.06,80.85,107.47,77.22,97.47Z"/><path class="cls-5" d="M77,127.9c.3-3,.42-8.67,0-10.47,0-1.39.06-3,.08-4.93,0-.57,0-1.11,0-1.64a4.61,4.61,0,0,1,0-.83c-.4-9.45-3.57-14.37-3.57-14.37A20.78,20.78,0,0,0,55,86.22c-8.72.26-16.54,5.63-20.59,11a13.54,13.54,0,0,0-2.7,9.29,56.44,56.44,0,0,0,1.71,9.11c-3-.11-6,1-4.86,6.62,1.6,7.73,6.27,10.08,9,7.82,1.34.78,1.66,2.85,1.81,4.46.27,3.1.12,8.29-1.38,11l.09.88c6.68,10.54,10.61,16.63,33,10.15l-7.28-10.23-.09-3.48a18.94,18.94,0,0,0,3.8-.58C74.53,140.4,76.63,131.42,77,127.9Z"/><path class="cls-5" d="M77,242.74a.74.74,0,0,1,0,.36c-.44,1-2.64,5.07-2.7,9,0,3.5-.13,8.58-.15,10.34a.69.69,0,0,0,.79.69c.59-.08,1.36-.48,1.82-1.87a25.63,25.63,0,0,0,.85-4.66.71.71,0,0,1,1.15-.47h0a.67.67,0,0,1,.26.57l-.32,4.9a.67.67,0,0,1-.44.59c-.93.36-3.18,1.37-3.82,2.89a.69.69,0,0,0,.7.93l3.22-.13.13,0,3.18-.72a.84.84,0,0,0,.34-.17l2.87-2.73a.61.61,0,0,0,.18-.31l2.42-8.61a4.65,4.65,0,0,0,0-2.4A66.85,66.85,0,0,1,86.1,244c-.52-4.52-.81-7.43-.93-8.78a.71.71,0,0,0-.94-.58l-7.46,2.5a.68.68,0,0,0-.47.74Z"/><path class="cls-13" d="M93.84,184.31c-3-8.42-4-24.45-17.85-32.42-2-1.12-8.8-5-11.87-5.13a10.31,10.31,0,0,1,.87,5.13c-.63,2.62-1,3.17-3.14,4.41-1.85,1.09-7.23,1.35-9.37.88-6.7-1.47-11.77-8.27-14.13-12.52A64.94,64.94,0,0,0,25,150.16c-19.41,9.89-14.86,30.9-14.86,30.9A32.12,32.12,0,0,1,15.24,185c-1.63,8.33,1.78,18.47,1.48,19.55S3.43,304.24,1.65,321.36c5.42,4.17,6.09-1.62,13.89.93s10.18,2.77,15.53,0,9.8-1.85,16.71.92,12.48-.23,16.49-.46,9.36,2.31,16.49,2.54,7.81-3.08,12-2.85C92.58,316.89,86.43,214.58,82,203c-.22-7.41.3-13.84.3-13.84S91.39,189.63,93.84,184.31Z"/><path class="cls-7" d="M81.51,202.28c-4.34.61-8.42,2.35-12.87,1.92-2.17-.21-4.3-.66-6.48-.71-1.78,0-3.57.09-5.35.22-2.09.15-4.18.32-6.28.42s-4.13,0-6.22-.15c-4.64-.23-9.3.23-14,.1-4.2-.11-8.4-.37-12.61-.38-.45,0-1,.68-.36.68,3.74,0,7.48.22,11.21.34,4.56.15,9.09-.17,13.64-.11,2.12,0,4.21.29,6.33.26s4.12-.19,6.18-.34,4-.31,5.93-.35a44.5,44.5,0,0,1,6.62.59,21.44,21.44,0,0,0,6.92-.24c2.41-.46,4.75-1.23,7.18-1.57.53-.07.79-.78.11-.68Z"/><path class="cls-14" d="M63.69,142.88a27.65,27.65,0,0,1-15.82-4.11s.93,2.49,6.26,4.32a21.52,21.52,0,0,0,9.57,1.13Z"/><path class="cls-15" d="M35.93,120.55a.61.61,0,0,0,0-.13,6.8,6.8,0,0,0-1.83-2.85,6.15,6.15,0,0,0-1.42-1,6,6,0,0,0-1.65-.54,4.48,4.48,0,0,0-2.38.08l-.4.18c-2.17-6.58-3.2-13.64,1.49-21.85,1.36-2.37,5-5,6.1-5.86,6.72-5.09,12.81-5.56,20.32-5,8.71.7,16.94,6.13,19.1,14.87.52,2.11,1.92,5.15,1.75,7.32,0,0-2.79-9.59-7-12S65,95.1,59.1,95.34c-6.87.25-9.2-3.44-14.66-.47A13.79,13.79,0,0,0,38.05,102c-.71,3-2,5-1.15,8.45.22.81.4,1.63.56,2.46a20.81,20.81,0,0,1,.1,4.53,2.92,2.92,0,0,1-1,2C35.87,119.92,36.67,120.79,35.93,120.55Z"/><path class="cls-16" d="M36.41,120.43c-.74-3.47-5.17-5.87-8.4-4.39l.69.15c-1.79-5.5-2.55-11.23-.7-16.83a17.65,17.65,0,0,1,4.77-7.81A36.78,36.78,0,0,1,38.92,87c5.13-3,10.83-3.42,16.64-3a22.83,22.83,0,0,1,13.9,5.79A18.16,18.16,0,0,1,74.23,97c.47,1.33.8,2.71,1.24,4.06a14,14,0,0,1,1,4.86l1-.16A30.76,30.76,0,0,0,73,96.11a7.81,7.81,0,0,0-5-3.42c-1.79-.24-3.3.78-4.88,1.43a15.09,15.09,0,0,1-9.51.2c-2.13-.55-4.23-1.24-6.44-.83a13.68,13.68,0,0,0-9.57,8.35c-.91,2.62-1.9,5.53-1.31,8.32a24.89,24.89,0,0,1,.84,6.43,6.14,6.14,0,0,1-.16,1.28c-.18.71-.75,1-1,1.61a2,2,0,0,0-.18.4,1.48,1.48,0,0,0,0,.42c0,.29.07.25.32-.1-.48-.09-1,.58-.34.71.88.16.79-.3,1-.88s.73-.94,1-1.42a5.83,5.83,0,0,0,.44-2.54,20.08,20.08,0,0,0-.46-4.51,11.73,11.73,0,0,1-.44-5c.81-4.38,2.61-8.31,6.45-10.84a9.06,9.06,0,0,1,7.95-1.15,24.45,24.45,0,0,0,7.4,1.11,18.22,18.22,0,0,0,6.53-1.91c2.13-.9,4.17.07,5.66,1.69,2.61,2.83,4.19,6.84,5.26,10.49.12.41,1,.23,1-.16a11.8,11.8,0,0,0-.68-4c-.46-1.5-.91-3-1.37-4.49a18.48,18.48,0,0,0-4-6.89,22.87,22.87,0,0,0-13.78-7c-5.67-.78-11.79-.57-17,1.83a32.41,32.41,0,0,0-6.92,4.48,18.33,18.33,0,0,0-5.37,6.37c-3.21,6.59-2.83,13.5-.61,20.32.09.28.49.25.7.16,2.76-1.27,6.41,1.29,7,4.07C35.55,121.13,36.51,120.88,36.41,120.43Z"/><ellipse class="cls-16" cx="73.37" cy="115.04" rx="1.86" ry="1.85" transform="translate(-55.36 160.28) rotate(-76.84)"/><path class="cls-15" d="M75.54,113.47a6.05,6.05,0,0,0-3.9-.74c-2.87.27-4.15,3.89-4.15,3.89a6.43,6.43,0,0,1,4.34-3.11,10.58,10.58,0,0,1,4.66,1.14A2.23,2.23,0,0,0,75.54,113.47Z"/><path class="cls-16" d="M30.38,122.6a3.7,3.7,0,0,1,0-3l-.24.13s0,0,0,0,0,0,0,0l.11,0a2.65,2.65,0,0,1,.69.4,12.07,12.07,0,0,1,2.74,3.49l.38-.21A1.5,1.5,0,0,0,33,123.1a1,1,0,0,0-.68,1c0,1.21,1.06,1.81,2.13,1.91.2,0,.47-.26.17-.29a1.83,1.83,0,0,1-1.84-1.45c0-.23,0-.75.21-.88s.59.12.77.25.49,0,.39-.21a17.76,17.76,0,0,0-1.91-2.7A5.24,5.24,0,0,0,31,119.65a1.66,1.66,0,0,0-.67-.25c-.27,0-.39.15-.48.38a4.19,4.19,0,0,0,.07,2.94c.07.18.51.06.45-.12Z"/><ellipse class="cls-17" cx="54.08" cy="115.4" rx="1.86" ry="1.85" transform="translate(-70.6 141.78) rotate(-76.84)"/><path class="cls-15" d="M59.29,116.58s-2.82-3.74-6-3.46c-4.45.39-5.21,2.25-6.06,3.68a10.89,10.89,0,0,1,6.16-2.93C56.54,113.67,59.29,116.58,59.29,116.58Z"/><path class="cls-18" d="M64.36,129.89c-2.57,0-6.74-.24-6.74-.24s-.31,6.8,6.83,6.65c6-.13,6-6.6,6-6.6S66.93,129.88,64.36,129.89Z"/><path class="cls-19" d="M64.39,129.89c-1.23,0-5.78,0-5.78,0s1.38,4.29,5.81,4.26c4.79,0,5.2-4,5.2-4Z"/><path class="cls-20" d="M64.44,130.16c-1.22,0-4.95-.17-4.95-.17s1.35,1.28,5,1.26S69.34,130,69.34,130Z"/><path class="cls-18" d="M70.47,129.66c0-.13-.27-.19-.87-.24-1-.07-1.35-.43-2.08-.48a10.58,10.58,0,0,0-2.59.4,11.24,11.24,0,0,0-2.6-.37c-.73.06-2.55.33-3.56.41a9.14,9.14,0,0,1-1.45-.13c-.18,0,.25,1.4,7.1,1.36S70.47,129.84,70.47,129.66Z"/><path class="cls-12" d="M32.47,109.62a27.13,27.13,0,0,1,0-7.53A16.28,16.28,0,0,1,37,93.22a21.47,21.47,0,0,1,7.05-4.83C47.83,87.21,49.72,86,57,87c3.07.4,3.52-.09,6.39,1.12l4.35,2.76c-1.51,5.66-20.78,15.49-26.87,18-.1,1.86-.46,5.21-.79,7.06A6.26,6.26,0,0,1,39,119.08c-.73,1.33-1.79,2.21-2.78,1.67s-1.89-3.45-2.2-4.37A18.35,18.35,0,0,1,32.47,109.62Z"/><path class="cls-21" d="M58.9,109.15c0-.07-.21-.09-.21-.15a20.27,20.27,0,0,0-7.07-1,6.72,6.72,0,0,0-2.17.77,10.15,10.15,0,0,0-2.17,1.44c-.25.43,1.15-.17,1.15-.17a5.74,5.74,0,0,1,.81-.23,16.32,16.32,0,0,1,4.91-.36,22.29,22.29,0,0,1,4.63,1.8C58.86,110.51,58.77,109.84,58.9,109.15Z"/><path class="cls-21" d="M67,109.61c0-.06.18-.08.18-.14a15.78,15.78,0,0,1,6.17-1,5.54,5.54,0,0,1,1.9.78,9.12,9.12,0,0,1,1.9,1.46c.22.43-1-.18-1-.18a4.52,4.52,0,0,0-.71-.23,12.29,12.29,0,0,0-4.29-.39,17.85,17.85,0,0,0-4,1.75C67,111,67.1,110.31,67,109.61Z"/><ellipse class="cls-22" cx="38.98" cy="106.63" rx="1.61" ry="4.28" transform="translate(-65.98 63.35) rotate(-47.51)"/><path class="cls-7" d="M82.78,189q.06-4.44.09-8.88c0-4,.15-8-.17-12,0-.27-1-.07-1,.27.32,4,.19,8,.17,12,0,3,0,5.92-.09,8.88,0,.24,1,.08,1-.27Z"/><path class="cls-7" d="M77.25,234.21a112.18,112.18,0,0,0-4-31.3c-.06-.23-1,0-1,.27a187,187,0,0,0,.1,38.94c0,.18,1,0,1-.27a187,187,0,0,1-.1-38.94l-1,.27a112.19,112.19,0,0,1,4,31.3c0,.15,1,0,1-.27Z"/><path class="cls-7" d="M39.75,236a154.68,154.68,0,0,0-2-33.77c-.08-.44-.87-.23-1,.07-2.4,6-2.12,12.81-2.25,19.19q-.23,10.61-.1,21.22c0,.54,1,.4,1-.07q-.1-10.37.09-20.72c.12-6.45-.22-13.39,2.21-19.48l-1,.06a153.47,153.47,0,0,1,2,33.57c0,.54,1,.41,1-.07Z"/><path class="cls-21" d="M63.65,125.85a5.22,5.22,0,0,0,2.1.42,5.78,5.78,0,0,0,2-.28,1.91,1.91,0,0,0,1.28-2.37,20.79,20.79,0,0,1-.84-2c0-.13-.39,0-.35.1a19.53,19.53,0,0,0,.81,2,1.54,1.54,0,0,1-.33,1.7,2.61,2.61,0,0,1-1.8.67,5.17,5.17,0,0,1-2.61-.36c-.11,0-.43.11-.28.18Z"/><path class="cls-21" d="M60.62,123.34a.78.78,0,0,0-.75.42,2.25,2.25,0,0,0-.15,1,1.37,1.37,0,0,0,.27.88,1.84,1.84,0,0,0,1.19.5A2,2,0,0,0,62,126c.3-.09.58-.25.89-.33,0,0,.18-.05.17-.1s-.17,0-.19,0a4.54,4.54,0,0,0-.65.23,1.5,1.5,0,0,1-.65.17,2,2,0,0,1-1.08-.34,1.58,1.58,0,0,1-.39-1.56,1.36,1.36,0,0,1,.14-.43.53.53,0,0,1,.11-.15l0,0s-.1,0,0,0a.42.42,0,0,0,.25-.06s0-.07,0-.07Z"/><path class="cls-5" d="M28.22,274.49a48,48,0,0,0-5.76-3.64l-2.58-5,.61-2.72,1.68-.23s1.25,6.73,2.79,7.71a4,4,0,0,0,2.25.89l1-1.7-3.05-9.79s-2.13-4.07-2.78-5a20.52,20.52,0,0,0-2.59-2.41l-1-5-9.56,1.83c.54,1.33,1.16,3.61,1.89,5.11l.49,10.77,3.49,4.22,4.24,3.62,9.56,3.44S30.13,276.05,28.22,274.49Z"/><polygon class="cls-23" points="102.72 198.39 127.53 198.39 124.58 228.64 105.5 228.42 102.72 198.39"/><path class="cls-16" d="M102.5,198.44h23.6c.21,0,1-.13,1.17,0-.11-.08-.08.19-.11.42-.23,1.42-.28,2.88-.42,4.31L125.29,218l-1,10.6.55-.23-9.54-.11-6.61-.07-2.1,0a4,4,0,0,1-.6,0c-.24-.06-.17,0-.12,0a6.7,6.7,0,0,1-.2-2.2l-.48-5.18-1.28-13.81-.82-8.83c0-.13-.68,0-.67.17l2.44,26.28.35,3.75s.09.05.11.05l19.09.22c.13,0,.53-.05.55-.23L127.5,202l.37-3.78s-.11-.05-.12-.05H102.93C102.79,198.17,102.18,198.44,102.5,198.44Z"/><path class="cls-24" d="M122.34,210.87a17.71,17.71,0,0,1-3.93-1.28c-2.44-.88-4.65,1.17-7.15.71-1.27-.23-2.39-.92-3.64-1.21a3.43,3.43,0,0,0-1.92.09l1.59,17.21,15.53.18,1.54-15.75A7.18,7.18,0,0,1,122.34,210.87Z"/><path class="cls-5" d="M49,232.43C59.67,226.14,82.87,199,82.87,199l-5.45-9.46s-30.77,15.7-38.17,24.34C41.53,219.26,46.77,227,49,232.43Z"/><path class="cls-5" d="M30.61,228.78c1.15-.48,2.5-1.17,3.65-1.63,4.21-1.71,8.46-3.34,12.62-5.18-.31-.5-3.84-4-4.13-4.45L35.54,189.2l-2.41-5.64c-1.84-6.84-6.42-25.1-10.55-26.49,0,0-7.86,8.83-10.44,14.42s-2.55,8,2.25,22.17l2.57,12c3.54,10.9,5.59,18.63,8.1,19.81C25.17,225.56,30.56,228.67,30.61,228.78Z"/><path class="cls-5" d="M23.87,217.57s2.38,8.09,9.26,10,15.18-3.3,15.18-3.3L39,211.43Z"/><path class="cls-13" d="M20.32,154.19s-12.67,5-12.15,26.94c.45,19.12,5.09,17.61,5.09,17.61s18.54-2.13,25.29-6.42S23.48,156,23.48,156"/><path class="cls-7" d="M37.78,193.09l2.6-1.43a.31.31,0,0,0,.18-.29,105,105,0,0,0-2.42-12.08c-1.5-5.76-3.59-12.29-8.79-15.8-1-.69-2.5-1.38-3.75-.89-.63.25-.06.63.4.45-.16.06,0,0,0,0a2.76,2.76,0,0,1,.64,0,6.31,6.31,0,0,1,2.68,1.47,19.36,19.36,0,0,1,5.25,7.24,71.45,71.45,0,0,1,4.32,15.76c.25,1.35.48,2.7.67,4.06l.18-.3-2.6,1.43c-.58.32.27.52.62.33Z"/><path class="cls-5" d="M79.19,201l4.21-3.33s11.42-1.42,14.4-3a25.9,25.9,0,0,0,5.78-4.71l2.82-.53a5.61,5.61,0,0,0,3.35-2.12l.66-.87s3.7.4,3.88-.9-1.16-1.86-2.47-2.41-23.68-.25-23.68-.25c1.4-1.62,4.7-2.82,6.32-4.14,2.5-2,2.8-3.82,1.16-4.27a5.44,5.44,0,0,0-4.61,2c-1.16,1.54-9,3.47-11.3,5.9s-2.59,7.27-2.59,7.27a24.85,24.85,0,0,1-2.91,3.14C74.6,196.11,79.19,201,79.19,201Z"/><path class="cls-14" d="M111.25,186.33a46,46,0,0,0-5.62.51,37,37,0,0,1-5.75.46c-.24,0-.66.34-.24.36a36.37,36.37,0,0,0,5.61-.44,48.4,48.4,0,0,1,5.75-.54c.24,0,.67-.35.25-.35Z"/><path class="cls-14" d="M104.14,189.87l-6.69,1.29-1,.19c-.08,0-.35.07-.36.18s.18.11.26.1l6.69-1.29,1-.19c.08,0,.35-.07.36-.18s-.18-.11-.26-.1Z"/><polygon class="cls-25" points="102.06 228.1 28.59 228.1 26.07 223.13 104.59 223.13 102.06 228.1"/><path class="cls-16" d="M102.3,227.94H33.93c-1.56,0-3.14-.08-4.7,0a.87.87,0,0,1-.36,0c-.12-.05.19.13.08.05s-.26-.53-.35-.69L26.43,223l-.6.25h78c.63,0,.52-.14.21.32a44.36,44.36,0,0,0-2.32,4.56c-.06.11.63.06.72-.13l2.53-5c0-.07-.09-.09-.13-.09H26.3c-.07,0-.68.1-.6.25l2.53,5c0,.05.08.06.13.06h73.46C102,228.25,102.65,227.94,102.3,227.94Z"/><path class="cls-26" d="M74.56,220.71c-.15-1.61-.26-3.37.52-4.71a5.29,5.29,0,0,1,3.81-2.21,25.77,25.77,0,0,1,2.89-.41c2.12-.18,4.46,0,6,1.69a5.76,5.76,0,0,1,1.35,4.55,2.11,2.11,0,0,1-.28.9,1.87,1.87,0,0,1-1.09.69,18.22,18.22,0,0,1-5.75.53l-5-.06c-.72,0-1.61-.16-1.84-1"/><path class="cls-27" d="M48.2,218.59a11.9,11.9,0,0,1-4.72,0,10.83,10.83,0,0,1-2.7-1.3c-1.14-.7-2.26-1.44-3.35-2.22-.1-.08-.22-.18-.21-.31s.16-.21.29-.25c2.9-1.05,6.17-.19,8.86,1.32.77.44,1.59,1.05,1.68,1.93"/><path class="cls-28" d="M46.54,219.9a12,12,0,0,1-4.36,1.83,11.11,11.11,0,0,1-3-.12q-2-.29-4-.72c-.12,0-.27-.07-.31-.2s.06-.25.16-.35c2.25-2.1,5.6-2.61,8.66-2.29a2.86,2.86,0,0,1,2.31,1.11"/><path class="cls-28" d="M85.63,218.07a12.27,12.27,0,0,1,4.67-.72,10.88,10.88,0,0,1,2.87.85c1.24.51,2.46,1.06,3.66,1.66.12,0,.25.14.26.26s-.12.24-.24.3c-2.69,1.5-6.06,1.18-9,.12-.83-.31-1.74-.78-2-1.64"/><path class="cls-27" d="M87.06,216.51a12.12,12.12,0,0,1,4-2.5,10.56,10.56,0,0,1,3-.36c1.34,0,2.68,0,4,.07a.28.28,0,0,1,.24.51c-1.88,2.44-5.1,3.48-8.18,3.66a2.9,2.9,0,0,1-2.46-.72"/><path class="cls-27" d="M69.54,220.68a12.09,12.09,0,0,1,2.32-4.11,10.89,10.89,0,0,1,2.45-1.74c1.16-.66,2.35-1.28,3.56-1.85.12-.06.27-.11.37,0s.11.25.09.38c-.49,3-2.83,5.49-5.45,7.11a2.83,2.83,0,0,1-2.5.54"/><path class="cls-28" d="M70.11,218.33a11.91,11.91,0,0,1,.69-4.68,10.57,10.57,0,0,1,1.65-2.49c.85-1,1.74-2,2.66-3,.09-.09.21-.19.34-.16s.18.18.21.32c.64,3-.66,6.14-2.53,8.59a2.8,2.8,0,0,1-2.14,1.4"/><path class="cls-28" d="M56,220.94a12.07,12.07,0,0,1,.68-4.67,10.87,10.87,0,0,1,1.66-2.5c.85-1,1.74-2,2.66-3,.09-.09.21-.2.33-.16s.19.18.22.32c.63,3-.67,6.13-2.53,8.59a2.81,2.81,0,0,1-2.14,1.4"/><path class="cls-26" d="M58.37,220.71c-.14-1.61-.26-3.37.53-4.71a5.27,5.27,0,0,1,3.8-2.21,25.94,25.94,0,0,1,2.9-.41c2.11-.18,4.45,0,6,1.69A5.76,5.76,0,0,1,73,219.62a2.11,2.11,0,0,1-.28.9,1.88,1.88,0,0,1-1.08.69,18.31,18.31,0,0,1-5.76.53l-5-.06c-.72,0-1.61-.16-1.84-1"/><path class="cls-26" d="M42.83,220.71c-.14-1.61-.26-3.37.52-4.71a5.29,5.29,0,0,1,3.81-2.21,25.94,25.94,0,0,1,2.9-.41c2.11-.18,4.45,0,6,1.69a5.76,5.76,0,0,1,1.35,4.55,2.11,2.11,0,0,1-.28.9,1.88,1.88,0,0,1-1.08.69,18.31,18.31,0,0,1-5.76.53l-5-.06c-.72,0-1.61-.16-1.84-1"/><rect class="cls-25" x="19.69" y="219.64" width="89.91" height="3.49" rx="1.74"/><path class="cls-16" d="M108.09,223H24.33a26.22,26.22,0,0,1-2.66,0c-1.82-.2-2.28-2.81-.3-3.18a7.45,7.45,0,0,1,1.25,0H96.16c3.71,0,7.53-.26,11.23,0,.08,0,.15,0,.22,0a1.75,1.75,0,0,1,1.45.94,1.53,1.53,0,0,1-1,2.24c-.2,0-.79.35-.31.31a2.4,2.4,0,0,0,2.09-1.22,1.81,1.81,0,0,0-1-2.46,3.35,3.35,0,0,0-1.18-.12H33.39c-3.85,0-7.72-.1-11.58,0a2.52,2.52,0,0,0-2.25,1.08,1.86,1.86,0,0,0,1.73,2.72c1.15.06,2.32,0,3.47,0h82.86C107.78,223.29,108.45,223,108.09,223Z"/><path class="cls-25" d="M189.13,226.35v-3.22h-68l2.53,5h65.44Z"/><path class="cls-16" d="M189.5,226.25V223c0-.09-.17-.1-.22-.1h-68c-.09,0-.61.1-.51.29l2.52,5a.25.25,0,0,0,.23.1H189c.17,0,.51-.08.51-.3,0-.58,0-1.16,0-1.74,0-.21-.73-.08-.73.2,0,.58,0,1.16,0,1.74l.51-.3H128c-1.29,0-2.65-.12-3.93,0a.65.65,0,0,1-.24,0c.38.15.14.06.09-.14a3.45,3.45,0,0,0-.4-.79l-2-3.93-.51.3h67.05c.2,0,.71-.1.89,0s-.2-.21-.19,0c0,.35,0,.7,0,1.05v2.09C188.77,226.66,189.5,226.52,189.5,226.25Z"/><path class="cls-25" d="M189.13,219.64h-72.6a1.75,1.75,0,0,0-1.75,1.74h0a1.76,1.76,0,0,0,1.75,1.75h72.6Z"/><path class="cls-16" d="M189.27,219.42H118.39a8.17,8.17,0,0,0-2.52.13,1.94,1.94,0,0,0-.24,3.65,3.09,3.09,0,0,0,1.12.15c1.21,0,2.42,0,3.63,0H189c.13,0,.51-.07.51-.27V219.6c0-.33-.73-.18-.73.08v3.49l.5-.27h-70a24.86,24.86,0,0,1-2.59,0c-1.71-.17-2.29-2.72-.26-3a6.46,6.46,0,0,1,.88,0h41.82c9.78,0,19.56,0,29.35,0H189C189.29,219.86,189.77,219.42,189.27,219.42Z"/><path class="cls-14" d="M110.75,119.58s0,0,0,0,0,0,0,0l0,0,.26-.17a3.81,3.81,0,0,1,1-.34,3.94,3.94,0,0,1,1.19,0,1.66,1.66,0,0,1,.37.09l.1,0h0s0,0,0,0c0,.27.61.16.62-.07s-.45-.36-.65-.4a4.64,4.64,0,0,0-1.62,0,4.59,4.59,0,0,0-1.44.51c-.14.08-.58.33-.49.56s.71,0,.62-.17Z"/><path class="cls-14" d="M100.56,123.85c.25-.11.25-.37.27-.61.07-.65.08-1.32.09-2a28.68,28.68,0,0,0-.25-5.48,7.64,7.64,0,0,0-2.13-4.65,2.57,2.57,0,0,0-1.73-.76A6.75,6.75,0,0,0,95,111c-.12,0-.27.11-.26.26.11,1.66.2,3.32.31,5a32.9,32.9,0,0,0,.54,5.06c.06.24.68.08.62-.17a32.9,32.9,0,0,1-.54-5.06c-.12-1.66-.2-3.32-.31-5l-.27.26a5.59,5.59,0,0,1,1.7-.53,3.1,3.1,0,0,1,1.92,1.34,9.07,9.07,0,0,1,1.45,4.27,29.9,29.9,0,0,1,.19,4.73c0,.59,0,1.17-.07,1.75a5.65,5.65,0,0,0,0,.58c0,.25-.17.23.11.11-.4.17,0,.42.25.3Z"/><path class="cls-14" d="M110.43,134a7.12,7.12,0,0,0-.8-3.4,20.62,20.62,0,0,0-2.07-3.7c-.12-.17-.69,0-.6.2l.06.13c.1.22.66.08.62-.17-.49-2.61.09-5.25-.84-7.8-.34-.94-1-2.41-1.93-2.88a4.1,4.1,0,0,0-3,.25,1.26,1.26,0,0,0-.6.38c-.12.21,0,.67,0,.89v1.36c0,1.51,0,3,0,4.52a24.83,24.83,0,0,0,.09,3.66c.08.5.4,2.3,1.08,2.31.26,0,.65-.37.24-.38.15,0-.11-.29-.17-.42a8,8,0,0,1-.32-.81,6.75,6.75,0,0,1-.27-2c0-.9,0-1.8,0-2.7,0-1.2,0-2.4,0-3.59,0-.62,0-1.23,0-1.84a3.53,3.53,0,0,1,0-.92c0-.08-.14,0,.12-.11a3.43,3.43,0,0,1,2.26-.34c.57.17.9.74,1.19,1.21a9.61,9.61,0,0,1,1.24,3.44c.31,2,0,4,.36,5.94l.62-.17-.06-.12-.6.21a19.11,19.11,0,0,1,2,3.61,7.12,7.12,0,0,1,.8,3.31c0,.27.6.17.62-.07Z"/><path class="cls-14" d="M118.31,136.16a9.07,9.07,0,0,0,4.88-1.68,5,5,0,0,0,1.4-1.64c.17-.32-.46-.33-.59-.08-1,1.83-3.17,2.62-5.11,2.88l-.53.05c-.35,0-.47.49,0,.47Z"/><path class="cls-6" d="M146.94,187.85c5.09,5.54-.34,17.64,2.26,24.73,1.81,4.91,16.41,2.43,18.23,1.41,3.33-2.44,5-7.37,7.16-10.67,3.26-4.9,11.39-21.42,9-26.48-.54-1.15-19.58-13.23-19.33-13.3"/><path class="cls-6" d="M210.09,122.92a25.66,25.66,0,0,0-3.26-16.34l-5.72,1.4-11.22-.67-11.74,4.32c-2.47,1-8.73,3.65-11.81,6.61-6.75,7.08-8.46,17.68-11.84,26.7-1.11,3-11.65,35.71-10.24,36.44,9.78,5,17.12-3.64,22.44,6.06a75.38,75.38,0,0,1,7.81-11.88c9-11.7,19.85-22,27.92-34.47C206,135.57,209.14,129.51,210.09,122.92Z"/><path class="cls-29" d="M158.92,195.68c1.43-2.42,1.34-5.61,1-8.31a19.77,19.77,0,0,0-3-8.62c-2.12-3.06-4.08-6.24-6.1-9.37l-2.55-3.95c-.11-.17-.68,0-.6.16l5.84,9c.79,1.23,1.56,2.48,2.38,3.69a20,20,0,0,1,3.14,7.37c.67,3.18,1.06,7.16-.67,10.08-.07.12.5.08.6-.09Z"/><path class="cls-30" d="M203.51,26.94a15.9,15.9,0,0,0-2.32-.62c-1.47-.17-2.76,1.16-4.19,1.44a6,6,0,0,1-2.94-.3,9.89,9.89,0,0,0-2-.64,1.84,1.84,0,0,0-1.28.3c-.23.17-.17,0-.24.29.08-.34.11.43.12.47a2.07,2.07,0,0,1-1.08,2.1l.27,2.53a2.06,2.06,0,0,0,2.26,1.83l12.1-1.28A2.06,2.06,0,0,0,206,30.8l-.38-3.63A7.36,7.36,0,0,1,203.51,26.94Z"/><path class="cls-6" d="M233.58,226.55s22.77,1.28,27.66,1.54c4.71.25,11.7.46,17.7-9,5.82-9.13,3.07-17.51,1.66-26.85-2.48-16.33-3.77-47.29-8-63.92-4.85-19.18-37.14-22.54-37.14-22.54Z"/><path class="cls-29" d="M249.58,125.8A22.91,22.91,0,0,0,244,139.74a30.12,30.12,0,0,0,.33,5.11l1.48,11.57,4.56,35.71,1.16,9.06c0,.21.68.06.65-.18l-3-23.77-4-31.47c-.13-1.05-.29-2.1-.39-3.15a22.63,22.63,0,0,1,5.45-16.82c.18-.2-.47-.16-.6,0Z"/><path d="M136,126.56l.08,0,0-.22Z"/><path class="cls-31" d="M227.25,138.25c3.58-2.06,20.06-23,20.06-23,5.93-7.78,8.77-3.57.78-12.64L241.78,91s16.64-63.29-28.44-67.9c0,0-28.3-5.63-34.6,21.3,0,0-3.16,17.32-2.33,28.69.78,10.55,4.83,29.92,4.83,29.92"/><path class="cls-31" d="M182.22,89.13l.29-2.37A15.61,15.61,0,0,0,182.22,89.13Z"/><path class="cls-31" d="M228.24,82.9s-6.33,21-28.1,19.21c-16.83-1.36-18.17-12.4-17.92-17.34l-1.56,12.92c-.68,6.23,1,6.64-2.69,11.4l-4.56,4.65c2.93.84,4.22,8.41,5.71,10.82,7.44,12,16.26,24.24,39.52,20.08,10.59-1.9,23.22-25,23.22-25l0-40.15Z"/><path class="cls-5" d="M179,58.16c-.07-4.17,2.28-13.1,2.28-13.1.1-.43,1.45-6.76,1.63-7.11,6.46-2.61,15.6-6.22,22.28-4.51,6.48,1.66,21.31,5.92,21.45,14.17.05,2.52-1.88,18.62,0,19.11a6.3,6.3,0,0,1,0,.86,53.68,53.68,0,0,0,.41,6.76A20.58,20.58,0,0,0,229.48,71c.38-.78.15-1.8.52-2.58,1.13-1.79,3.57-1.19,4.9,0l.23.37c1.84,2.56-.31,10.44-1.73,12.77-.47,4.77-4.72,7.23-7,3.74l-.69,1.86L220,93.22c-4.91,4.83-13.86,12.72-21.46,12.5-5.16-.15-6.75-1.39-8.6-3.19-2.79-2.74-4.31-5.76-6.37-9a23.49,23.49,0,0,1-3.65-8.49,17.42,17.42,0,0,1-.36-8.23,35.9,35.9,0,0,0,.29-5.64C179.76,69.42,179.09,62.32,179,58.16Z"/><path class="cls-21" d="M185.4,68.73a1.92,1.92,0,0,0-2,.31,1.9,1.9,0,0,0-.44.82,1.72,1.72,0,0,0,.4,1.61,1.64,1.64,0,0,0,1.88.36,1.82,1.82,0,0,0,.92-2.11,1.64,1.64,0,0,0-.75-1"/><path class="cls-21" d="M190.68,70.39a14,14,0,0,0-4.07-2c-3.4-.67-5.84-.08-6.73,1.14a14.76,14.76,0,0,1,6.3-.45C187.82,69.39,190.68,70.39,190.68,70.39Z"/><path class="cls-21" d="M207.84,68.49a2.32,2.32,0,0,1,2.22.17,1.68,1.68,0,0,1,.51.81,1.79,1.79,0,0,1-.44,1.61,1.64,1.64,0,0,1-1.89.31,1.82,1.82,0,0,1-.87-2.13c0-.13-.09-.39.46-.67"/><path class="cls-21" d="M202.83,70.47a11.44,11.44,0,0,1,6.44-2.72,13.65,13.65,0,0,1,7.34,2.13s-5.31-1.39-7.2-1.3S202.83,70.47,202.83,70.47Z"/><path class="cls-21" d="M217,63.82c-.45-.1-.75-.22-1.21-.28a31.76,31.76,0,0,0-14.07,1.18c0-.45-.18-.23-.22-.69s-.09-1.2-.14-1.8a44.27,44.27,0,0,1,10.92-.73,13,13,0,0,1,3.25.92,16.84,16.84,0,0,1,3.21,1.64C219.13,64.53,217,63.82,217,63.82Z"/><path class="cls-21" d="M179.23,63.77a1.45,1.45,0,0,1,.09-.22h0a10.1,10.1,0,0,1,1.8-.67,34.58,34.58,0,0,1,9.24-.33c.08.83.16,1.67.25,2.5a27.59,27.59,0,0,0-5.72-.68,26.13,26.13,0,0,0-5.48.6,5.44,5.44,0,0,1-.19-.52c0-.12,0-.24,0-.36S179.21,63.87,179.23,63.77Z"/><path class="cls-25" d="M228.54,70.84S223,47.59,199.31,46.25c-13.67-.78-20.26,10.8-20.26,10.8s.27-12.74,5.88-17.51,23.56-5,31.76-1S228.54,70.84,228.54,70.84Z"/><path class="cls-31" d="M238.43,52.57S232,26.1,209.38,24.68C181.27,23,177.5,52.57,177.5,52.57l-.24,22c-.06-5.68-.32-10.77,1.33-16.2.29-3.2-.7-11.73,8.52-17,5-2.86,11.09-3.32,16.69-2.37,5.15.87,11,2.93,14,7.5a35.62,35.62,0,0,1,5.23,12.62c1.39,6,1.23,14.56.53,20.64-.74,5.49-.94,12.89-10,21.81,24.69-7.39,26.5-35.76,25.51-48.91Z"/><path class="cls-29" d="M224,30.52c4.8,4.15,7.92,10.71,9.13,16.81,1.92,9.6-.57,19.92-3.27,29.15-.72,2.43-1.48,4.87-2.37,7.25-.12.32.72.22.84-.09a109,109,0,0,0,5.28-19.53,49.46,49.46,0,0,0,.69-15.06,33.13,33.13,0,0,0-4.9-13.24,26.08,26.08,0,0,0-4.63-5.63c-.25-.21-1,.12-.77.34Z"/><path class="cls-29" d="M240.61,92.55a89.22,89.22,0,0,1-4,10.73c-2.86,6.52-6.38,13.11-11.49,18.15-2.73,2.69-6.09,4.93-10,5.47-.46.06-.64.68-.07.61,7.11-1,12.35-6.84,16.11-12.52a85.14,85.14,0,0,0,8.87-18.32c.49-1.38,1-2.78,1.38-4.19.11-.39-.74-.29-.84.07Z"/><path class="cls-21" d="M215.57,69.79s1.11.38,1.72-1a6.82,6.82,0,0,1-4.3.13Z"/><path class="cls-21" d="M180.36,69.53a1.42,1.42,0,0,1-2-.41s1.06.74,3-.66Z"/><path class="cls-29" d="M219,94.86c-3.1,7.24-7.11,15.13-14.36,19a15.29,15.29,0,0,1-12.46,1,39.18,39.18,0,0,1-10.69-5.71c-.2-.15-.94.18-.78.3,5.14,3.69,11.67,7.52,18.25,6.66s11.75-5.48,15.37-10.79a62.34,62.34,0,0,0,5.5-10.53c.08-.19-.73-.1-.83.13Z"/><path class="cls-29" d="M180.21,115.37a11.42,11.42,0,0,1,5.66,3,44.17,44.17,0,0,1,4.76,6.51c2.57,3.77,5.5,9.18,10.84,8.75.24,0,.9-.42.35-.37-2.83.23-5.17-1.59-6.87-3.67s-3.27-4.61-4.85-6.93a25.57,25.57,0,0,0-4-5.06,11.49,11.49,0,0,0-5.25-2.59c-.21,0-.94.29-.68.34Z"/><path class="cls-21" d="M196,82.72a5.83,5.83,0,0,1-4.9,0,2.35,2.35,0,0,1-1.33-2.25,13.94,13.94,0,0,1,.93-2.58c0-.12-.37-.07-.41.06a9.74,9.74,0,0,0-1,2.89A2.56,2.56,0,0,0,190.94,83a6.55,6.55,0,0,0,5.24-.11c.27-.12,0-.21-.16-.14Z"/><path class="cls-21" d="M200.12,80.24c.26,0,.42.31.48.52a2.53,2.53,0,0,1,.11.95,1.1,1.1,0,0,1-.34.8,2,2,0,0,1-1.24.43,5.59,5.59,0,0,1-1.78-.43.36.36,0,0,0-.3.08c-.06.07-.05.15,0,.17a7.36,7.36,0,0,0,1.88.45,3.12,3.12,0,0,0,1.58-.48,1.34,1.34,0,0,0,.57-1,2.87,2.87,0,0,0-.1-1.13.84.84,0,0,0-.85-.65c-.22,0-.34.27,0,.26Z"/><path class="cls-29" d="M191.79,214.05v-2.5l-.38.3q12.78-2.65,25.6-5c6.77-1.27,13.55-2.49,20.35-3.57a123.22,123.22,0,0,1,15.19-1.83c5.31-.17,11.67,2.46,13.1,8.12.07.26.94,0,.87-.24-1.32-5.21-7-8.05-12-8.31-4.49-.24-9.16.66-13.59,1.31-13.31,2-26.52,4.55-39.71,7.18-3.31.66-6.63,1.33-9.94,2-.14,0-.38.13-.38.3v2.5c0,.22.86.07.86-.23Z"/><path class="cls-18" d="M196.11,87.68c3.55-.07,9.6-.58,9.6-.58s-.9,9.09-9.14,9.24-9.13-8.73-9.13-8.73S192.55,87.74,196.11,87.68Z"/><path class="cls-19" d="M196.07,87.68c1.69,0,8.5-.43,8.5-.43s-1.84,5.93-8,6a8.15,8.15,0,0,1-8.21-5.61Z"/><path class="cls-20" d="M196,87.92c1.69,0,6.83-.39,6.83-.39s-1.82,1.8-6.89,1.9-6.71-1.61-6.71-1.61Z"/><path class="cls-18" d="M187.21,87.43a7.92,7.92,0,0,1,1.2-.31,33.3,33.3,0,0,1,3.28-.6c1.73-.16,2.84.47,3.59.46s1.84-.69,3.57-.59c1,0,3.81.36,5.21.45a11.76,11.76,0,0,0,2-.24c.25.06-.48,1.83-9.94,2S187,87.49,187.21,87.43Z"/><path class="cls-29" d="M165.11,146.82a25.38,25.38,0,0,1,.44,9.35,90.8,90.8,0,0,1-2.27,9.2c-1.39,5.29-2.51,10.7-2.05,16.2.37,4.35,1.69,8.86,4.74,12.1a13.55,13.55,0,0,0,2.15,1.85,13.33,13.33,0,0,0,1.36.83c.25.13,1,.34,1.13.54a3.54,3.54,0,0,1,0,1l.06,2.07.29,8.87c0,.21.66.08.65-.18l-.39-12a.11.11,0,0,0-.06-.07c-5.9-2.51-8.59-8.49-9.24-14.55-.84-7.82,1.74-15.22,3.59-22.71a27.35,27.35,0,0,0,.22-12.69c0-.23-.7-.06-.65.18Z"/><path class="cls-5" d="M191.52,213.75l.68,14.87-1.29-.06s-9.63.54-12.49.15-9.66-.46-9.66-.46a3.46,3.46,0,0,1-2,4.68l-2.86-4.56c-.87,2.06-2.7.45-2.7.45l-2.06-4c-1,2.6-3.39.57-3.39.57l-1.11-5.57a8.63,8.63,0,0,1-2.59,2.18c-1.3.57-1.67-1.64-1.67-1.64l5.05-8.51,13.1-3.57,20.77,5.55Z"/><path class="cls-14" d="M165.23,211.36a3.08,3.08,0,0,0-1.7.07,20,20,0,0,0-2.48.83c-.9.36-1.91.76-2.92,1.28a14.52,14.52,0,0,0-2.72,1.72,2,2,0,0,0-.79,1.3,8.48,8.48,0,0,0-.09,1.23,5.68,5.68,0,0,0,.2,2.39,21.51,21.51,0,0,0,.22-2.33c.05-.36.08-.78.16-1.17a1.5,1.5,0,0,1,.65-1,17.08,17.08,0,0,1,2.65-1.62c1-.5,2-.9,2.85-1.29s1.7-.73,2.38-.94a6.83,6.83,0,0,1,1.62-.25Z"/><path class="cls-14" d="M166.4,216l-.77.31c-1.31.45-3.18.88-5.18,1.71a3.74,3.74,0,0,0-1.44.87,4.91,4.91,0,0,0-.59,1.42,5,5,0,0,0-.25,2.52,9.56,9.56,0,0,0,.59,1.57,4.73,4.73,0,0,0,.28.55,2.39,2.39,0,0,0-.06-.62,10.18,10.18,0,0,1-.4-1.56,4.92,4.92,0,0,1,.34-2.34,5.69,5.69,0,0,1,.53-1.21,3.6,3.6,0,0,1,1.22-.69c1.93-.79,3.81-1.3,5.09-1.87a5.16,5.16,0,0,0,.77-.31C166.49,216.24,166.44,216.13,166.4,216Z"/><path class="cls-14" d="M168.66,222.65l-.6,0-1.81.13a6.21,6.21,0,0,0-2.24.52,2.51,2.51,0,0,0-1.47,1.88,3.08,3.08,0,0,0,.42,1.88,3.61,3.61,0,0,0,1.12,1.29,14.59,14.59,0,0,0-.68-1.48,2.71,2.71,0,0,1-.25-1.61,2,2,0,0,1,1.18-1.43,6.45,6.45,0,0,1,2-.51l1.79-.26.59-.11A3.38,3.38,0,0,1,168.66,222.65Z"/><rect class="cls-32" x="-94.55" y="238.06" width="447.98" height="63.45" transform="translate(258.88 539.57) rotate(180)"/><rect class="cls-33" x="-147.32" y="228.42" width="533.08" height="15.8"/><path class="cls-34" d="M161.25,210.39c.75-.19,1.3-.38,1.78-.49l-4.25-13.27c2.53-1.61,2.45-4.4.94-9.15l-5-12.23-1,.33,4,12.67a.57.57,0,0,1-.38.73.58.58,0,0,1-.73-.37l-4-12.68-1,.31,4,12.68a.58.58,0,1,1-1.11.35l-4-12.68-1,.31,4,12.68a.58.58,0,0,1-.38.73.57.57,0,0,1-.73-.38l-4-12.67-1,.32,2.95,12.89c1.52,4.75,3.07,7.08,6.06,6.92l4.21,13.18S161.22,210.4,161.25,210.39Z"/><path class="cls-14" d="M81.87,200l1.26-1.18a1.53,1.53,0,0,1,.66-.43c.56-.15,1.13-.24,1.7-.35a42.35,42.35,0,0,0,5.1-1.18c.38-.12.27-.56-.11-.44a44.21,44.21,0,0,1-5.33,1.22,14,14,0,0,0-1.59.34,1.94,1.94,0,0,0-.74.45c-.47.41-.91.85-1.37,1.27s.18.52.42.3Z"/></g></g></g></svg>