<svg xmlns="http://www.w3.org/2000/svg" xmlns:xlink="http://www.w3.org/1999/xlink" viewBox="0 0 292.89 301.99"><defs><style>.cls-1,.cls-36,.cls-37,.cls-38{fill:none;}.cls-2{clip-path:url(#clip-path);}.cls-3{fill:#f2ebd1;}.cls-4{fill:#d8aa29;}.cls-5{clip-path:url(#clip-path-2);}.cls-6{fill:#4454a5;}.cls-7{fill:#715446;}.cls-8{fill:#c79e81;}.cls-11,.cls-9{fill:#151210;}.cls-9{stroke:#231f20;stroke-width:0.21px;}.cls-36,.cls-37,.cls-38,.cls-9{stroke-miterlimit:10;}.cls-10{fill:#4f2e25;}.cls-12{fill:#231f20;}.cls-13{fill:#1d170f;}.cls-14{fill:#975449;}.cls-15{fill:#31160e;}.cls-16{fill:#f1eef7;}.cls-17{fill:#13110f;}.cls-18{fill:#f79224;}.cls-19{fill:#070808;}.cls-20{fill:#ccb631;}.cls-21{fill:#283e1b;}.cls-22{fill:#562619;}.cls-23{fill:#1e0f0d;}.cls-24{fill:#a382ad;}.cls-25{fill:#aa6333;}.cls-26{fill:#9b5524;}.cls-27{fill:#e79731;}.cls-28{fill:#d67d28;}.cls-29{fill:#6c256d;}.cls-30{fill:#db5434;}.cls-31{fill:#ecbf2c;}.cls-32{clip-path:url(#clip-path-3);}.cls-33{fill:#e1b9d7;}.cls-34{fill:#9b3f97;}.cls-35{fill:#c69bbd;}.cls-36,.cls-37,.cls-38{stroke:#9b3f97;stroke-width:0.19px;}.cls-37{stroke-dasharray:1.57 1.57;}.cls-38{stroke-dasharray:1.6 1.6;}.cls-39{fill:#27153c;}.cls-40{fill:#e0e1e0;}.cls-41{fill:#273339;}.cls-42{fill:#774e80;}.cls-43{fill:#fff;}.cls-44{fill:#709199;}.cls-45{fill:#2d4a4f;}.cls-46{fill:#eae536;}</style><clipPath id="clip-path"><path class="cls-1" d="M205.43,41.92c-4.46-7.82-11.78-13.64-23.8-12a24.39,24.39,0,0,0-5.15.93,126.48,126.48,0,1,0,29,11.05Z"/></clipPath><clipPath id="clip-path-2"><path class="cls-1" d="M138.23,147.11a28.16,28.16,0,0,1,4.55,12.78c.38,3.8,4,38.42,8.1,40.44-2.9,1.78-15.1-.91-17.84-2.92-1-.76-3.42-19.46-3.87-19.68s1.42-3.82,1.21-4.43c-1.22-3.67-.41-7.39-1-11.21a22,22,0,0,1,1-11.41"/></clipPath><clipPath id="clip-path-3"><path class="cls-1" d="M135,153.38a45.05,45.05,0,0,0-3,26.29c.06.39.15.86.22,1.26.27,1.55.8,3.68,1.07,4.75,1.32,5.1-16,2.64-17-1.33-1.66-8.24-2.59-15.7-2.19-21.77.15-2.37.57-4.84,2.08-6.67s5.84-9.61,8-10.24c4.24-1.26,10.18-.94,14.09,1.13"/></clipPath></defs><g id="Layer_6" data-name="Layer 6"><g class="cls-2"><circle class="cls-3" cx="146.28" cy="153.27" r="126.49" transform="translate(-65.54 148.33) rotate(-45)"/><path class="cls-4" d="M138.1,146.38a28.28,28.28,0,0,1,4.55,12.77c.38,3.81,3.4,35.1,8,41.72-3.09,4.17-14.24-4.12-17.58-3.46-.5.09-5.27-22-5.73-22.22s3.28-3.72,3.07-4.33c-1.22-3.66-.55-5.68-1.11-9.5a22,22,0,0,1,1-11.41"/><g class="cls-5"><path class="cls-6" d="M129.32,168.12s13.79-2.84,19.32-6.91l1.24,3s-14.21,7.36-19.1,6.35Z"/><path class="cls-6" d="M127.09,173.54s14-1,20.08-4.27l.81,3.18s-15.06,5.39-19.77,3.73Z"/><path class="cls-6" d="M126.66,180s14-1,20.08-4.28l.81,3.19s-15.06,5.39-19.77,3.73Z"/><path class="cls-6" d="M126.66,186.39s14-1,20.08-4.27l.81,3.18s-15.06,5.39-19.77,3.74Z"/><path class="cls-6" d="M127.85,191.57s14.07.32,20.38-2.41l.52,3.24s-15.49,4-20,1.91Z"/><path class="cls-6" d="M128.11,197.57s14.07.32,20.38-2.41l1.32,3.17s-16.29,4.06-20.83,2Z"/><path class="cls-6" d="M128.08,161.47s13.79-2.85,19.33-6.92l1.23,3s-14.2,7.36-19.09,6.35Z"/><path class="cls-6" d="M126.91,155.15s13.79-2.85,19.33-6.92l1.23,3s-14.21,7.36-19.1,6.35Z"/></g><polyline class="cls-7" points="-24.99 282.55 314.04 282.55 314.04 204.76 -24.99 204.76"/><path class="cls-8" d="M66.7,140.47A25.4,25.4,0,0,0,73,148.2c6.43,5.35,16.56,18,24.71,19.56C107.24,169.58,124,157,124,157l-3-5.86-19.62,4s-11-12-15.22-16.72c-1.73-2-2-2.38-7-4.09-.34-.11-2.55-.39-2.75-.44"/><path class="cls-8" d="M137.52,149.26a.45.45,0,0,0,.15-.19.91.91,0,0,0-1.41-1,15.92,15.92,0,0,1-2.95,2c-.24,0-1.9.06-3.35.14a1.37,1.37,0,0,1-1.31-.68,35.41,35.41,0,0,1-4.7.36l-.54,0c-.66.8-1.19,1.51-1.19,1.51l-3.84.47,1.26,6.77,3.69-1.18,3.8.53s7-.59,7.81-1.27a8.8,8.8,0,0,0,1.49-2.86c1.16-.71,1.06-2.59,1.06-2.59C139,149.42,137.52,149.26,137.52,149.26Z"/><path class="cls-9" d="M87.48,97.66c-2-6.45-5.06-8.69-11.25-10.33-6.81-1.87-16.35.13-20.17,6.33-2.6,4.21-3.89,10.89-4.9,15.81q-1,4.86-2,9.74a3.88,3.88,0,0,0,0,2.24,3.26,3.26,0,0,0,2,1.54,19.57,19.57,0,0,0,10.6,1.06l7.84,2.57,13.88-1.79a4.49,4.49,0,0,0,2.68-1,5,5,0,0,0,1-2.63C88.3,114.59,89.42,104.12,87.48,97.66Z"/><path class="cls-8" d="M86.25,116.91a32.61,32.61,0,0,0,.38-6.62c.07-.88.14-1.89.23-3.12,0-.36,0-.7,0-1a3,3,0,0,1,0-.52c.08-6-1.75-9.23-1.75-9.23A13.18,13.18,0,0,0,73.8,89.75,17.9,17.9,0,0,0,60.38,96a8.56,8.56,0,0,0-2,5.79,34.43,34.43,0,0,0,.76,5.83c-1.93-.18-3.85.42-3.32,4,.74,5,3.62,6.61,5.42,5.27.82.55.95,1.86,1,2.89.06,2-.22,5.25-1.26,6.92l0,.56c3.85,6.91,6.12,10.9,20.54,7.6l-4.24-6.73.07-2.21a11.91,11.91,0,0,0,2.42-.23C84.24,124.74,85.89,119.13,86.25,116.91Z"/><path class="cls-10" d="M77.29,125.92a17.49,17.49,0,0,1-9.87-3.16s.5,1.61,3.81,2.95a13.67,13.67,0,0,0,6,1.06Z"/><path class="cls-11" d="M60.52,110.8s0-.06,0-.09a4.31,4.31,0,0,0-1-1.86,4.11,4.11,0,0,0-.87-.67,3.86,3.86,0,0,0-1-.4,2.77,2.77,0,0,0-1.51,0l-.26.1c-1.14-4.25-1.54-8.75,1.72-13.78a15.93,15.93,0,0,1,4.07-3.49c4.43-3,8.3-3.07,13-2.42,5.48.76,10.5,4.49,11.55,10.1.26,1.35,1.15,3.34,1,4.71,0,0-1.54-6.19-4.14-7.87s-3.16.63-6.92.57c-4.36-.09-5.7-2.51-9.26-.82a8.77,8.77,0,0,0-4.31,4.3c-.55,1.87-1.47,3.11-1,5.3.11.52.2,1,.27,1.58a13.74,13.74,0,0,1-.1,2.87,1.83,1.83,0,0,1-.71,1.21C60.5,110.4,61,111,60.52,110.8Z"/><path class="cls-12" d="M60.82,110.72a4.08,4.08,0,0,0-5.17-3l.44.1c-.92-3.52-1.21-7.13.13-10.59a11.26,11.26,0,0,1,3.33-4.86,23.63,23.63,0,0,1,3.9-2.6c3.47-1.81,7.26-1.88,11.06-1.33a14.2,14.2,0,0,1,8.6,4.42,11.45,11.45,0,0,1,2.56,4.67c.46,1.7,1.3,3.74,1.16,5.51l.62-.1a20.41,20.41,0,0,0-2.54-6.16,5.08,5.08,0,0,0-3-2.4,4.89,4.89,0,0,0-2.84.57,9.77,9.77,0,0,1-6.51-.11,9.27,9.27,0,0,0-4-.72,8.73,8.73,0,0,0-6.31,4.86,11.18,11.18,0,0,0-1.23,4.71c.07,1.38.44,2.69.4,4.09a4.26,4.26,0,0,1-.78,2.29,5.84,5.84,0,0,0-.29.77l.4-.19-.18,0c-.3,0-.62.39-.21.44l.18,0a.4.4,0,0,0,.4-.19,14.21,14.21,0,0,1,.72-1.24,5.93,5.93,0,0,0,.37-2.89,22,22,0,0,0-.32-2.57,6.49,6.49,0,0,1,.43-3.26c1-2.63,2.19-4.75,4.94-6,1.74-.76,3.22-.35,4.94.2a12.75,12.75,0,0,0,4.58.73,15.18,15.18,0,0,0,3.69-1c1.48-.46,2.74.43,3.62,1.57a18.38,18.38,0,0,1,2.88,6.61c.06.27.59.14.61-.11.13-1.72-.66-3.45-1-5.11a12,12,0,0,0-2.2-4.65,14.41,14.41,0,0,0-8.3-5,19.83,19.83,0,0,0-11,.45c-3.06,1.16-6.5,3.38-8.16,6.27-2.37,4.11-2.41,8.57-1.23,13.06.05.19.32.15.44.1,1.81-.71,4,1.1,4.29,2.85C60.25,111.17,60.87,111,60.82,110.72Z"/><ellipse class="cls-12" cx="84.41" cy="108.65" rx="1.18" ry="1.17" transform="translate(-43.64 158.98) rotate(-73.62)"/><path class="cls-11" d="M85.84,107.73a3.84,3.84,0,0,0-2.44-.61c-1.83.07-2.77,2.32-2.77,2.32a4.09,4.09,0,0,1,2.86-1.82,6.71,6.71,0,0,1,2.91.89A1.43,1.43,0,0,0,85.84,107.73Z"/><path class="cls-12" d="M56.93,111.89a2.3,2.3,0,0,1,.13-1.92l-.15.08c-.08,0,0,0,0,0s.06,0,.09,0a1.62,1.62,0,0,1,.42.28A7.84,7.84,0,0,1,59,112.65l.25-.11a.92.92,0,0,0-.7-.23.64.64,0,0,0-.46.62c-.06.77.62,1.18,1.29,1.29.13,0,.3-.16.11-.19a1.16,1.16,0,0,1-1.11-1c0-.14,0-.47.15-.54s.39.11.5.19.3,0,.25-.11a10.7,10.7,0,0,0-1.1-1.77,3.47,3.47,0,0,0-.77-.76,1.16,1.16,0,0,0-.43-.18c-.17,0-.25.1-.31.24a2.65,2.65,0,0,0-.06,1.86c0,.11.32,0,.29-.08Z"/><ellipse class="cls-13" cx="72.19" cy="108.19" rx="1.18" ry="1.17" transform="translate(-51.97 146.93) rotate(-73.62)"/><path class="cls-11" d="M75.45,109.12s-1.66-2.47-3.67-2.41c-2.83.1-3.38,1.24-4,2.12a7,7,0,0,1,4-1.64C73.8,107.18,75.45,109.12,75.45,109.12Z"/><path class="cls-14" d="M78.18,117.73c-1.63-.08-4.26-.4-4.26-.4s-.49,4.79,4,4.94c3.78.13,4.12-4.45,4.12-4.45S79.81,117.81,78.18,117.73Z"/><path class="cls-15" d="M78.19,117.73l-3.65-.22s.68,3,3.48,3.11a3.18,3.18,0,0,0,3.48-2.56Z"/><path class="cls-16" d="M78.22,117.9c-.78,0-3.13-.28-3.13-.28s.81.85,3.14,1,3.1-.64,3.1-.64Z"/><path class="cls-14" d="M82.05,117.79c0-.08-.16-.12-.54-.17-.64-.09-.84-.33-1.3-.39a7.17,7.17,0,0,0-1.65.16,7.78,7.78,0,0,0-1.63-.32c-.47,0-1.63.11-2.27.14a7.72,7.72,0,0,1-.92-.14c-.11,0,.11.89,4.45,1.11S82.05,117.91,82.05,117.79Z"/><path class="cls-9" d="M58.72,103.76A16.59,16.59,0,0,1,59,99a10.28,10.28,0,0,1,3.2-5.45,13.72,13.72,0,0,1,4.64-2.81,14,14,0,0,1,8.23-.4c1.93.36,2.23.07,4,.93l2.66,1.91C80.56,96.7,68,102.23,64.07,103.62c-.13,1.18-.48,3.29-.75,4.44a4,4,0,0,1-.8,1.92c-.51.82-1.21,1.34-1.81,1s-1.08-2.25-1.24-2.84A11.51,11.51,0,0,1,58.72,103.76Z"/><path class="cls-17" d="M75.46,104.4s-.13-.06-.12-.1a12.77,12.77,0,0,0-4.45-.9,4.28,4.28,0,0,0-1.4.4,6.53,6.53,0,0,0-1.42.84c-.17.26.73-.07.73-.07a3.21,3.21,0,0,1,.52-.11,10.22,10.22,0,0,1,3.12,0,13.41,13.41,0,0,1,2.87,1.3C75.39,105.26,75.36,104.84,75.46,104.4Z"/><path class="cls-17" d="M80.56,105s.12,0,.12-.08a9.87,9.87,0,0,1,3.94-.4,3.55,3.55,0,0,1,1.18.56,5.65,5.65,0,0,1,1.15,1c.13.28-.63-.15-.63-.15a3.34,3.34,0,0,0-.44-.17,7.87,7.87,0,0,0-2.7-.4,11.09,11.09,0,0,0-2.62,1C80.54,105.85,80.61,105.43,80.56,105Z"/><ellipse class="cls-18" cx="62.94" cy="102.1" rx="1.02" ry="2.71" transform="translate(-53.41 72.96) rotate(-44.29)"/><path class="cls-17" d="M77.88,115.15a3.3,3.3,0,0,0,1.31.34,3.67,3.67,0,0,0,1.28-.11,1.23,1.23,0,0,0,.9-1.47,11.79,11.79,0,0,1-.46-1.3c0-.08-.24,0-.22.06a10.56,10.56,0,0,0,.44,1.27,1,1,0,0,1-.27,1.06,1.71,1.71,0,0,1-1.18.35,3.27,3.27,0,0,1-1.63-.32c-.07,0-.27.06-.17.12Z"/><path class="cls-17" d="M76.06,113.44a.49.49,0,0,0-.49.24,1.13,1.13,0,0,0-.14.6.82.82,0,0,0,.12.55,1.07,1.07,0,0,0,.7.38,1.35,1.35,0,0,0,.53,0c.2,0,.39-.15.6-.19,0,0,.13,0,.13-.05s-.07,0-.09,0a2.21,2.21,0,0,0-.42.12.88.88,0,0,1-.45.08,1.25,1.25,0,0,1-.67-.25,1,1,0,0,1-.19-1,.82.82,0,0,1,.1-.26.36.36,0,0,1,.07-.1l0,0s0,0,0,0a.2.2,0,0,0,.15,0s.08,0,0,0Z"/><path class="cls-8" d="M32.51,228.6a7.35,7.35,0,0,0-2.81-2.93,2.85,2.85,0,0,0-2.47.1c-2.35,1-3.56,2.94-5.41,4.61a23.78,23.78,0,0,1-4.68,3.29c-1.72.92-3.58,1.38-5.32,2.21l0,0a4.1,4.1,0,0,0-1.95,2c-.15.32-.3.63-.47.92s-.47.71-.23,1.19c.44.89,1.92.34,2.35.15a.54.54,0,0,1,.25,0,11.1,11.1,0,0,0,3.11-.31,4.53,4.53,0,0,1,.49-.08v0c.92-.15,5-.28,5.72-.36a50.94,50.94,0,0,0,6-1.64s6.4-.44,8.35.76l1.9-7.53S33,229.74,32.51,228.6Z"/><path class="cls-19" d="M70,234.46s-5.62-.38-12.54-1-12.55-1.09-12.54-1.13,5.62.38,12.55.95S70,234.4,70,234.46Z"/><path class="cls-12" d="M70,234.26c.43-.12.14,0-.06,0a7.72,7.72,0,0,0-.83-.06l-2.73-.2q-4.39-.33-8.79-.71-4.23-.35-8.46-.73l-2.66-.25a5,5,0,0,1-1.08-.12l-.37.43c-.43.11-.12,0,.07.05a7.7,7.7,0,0,0,.83,0l2.73.21c2.85.21,5.69.45,8.54.68l8.37.72,2.79.26,1.22.11c.27.16,1.17-.26,1-.38a2.4,2.4,0,0,0-.88-.15L67,233.87c-3.14-.28-6.28-.54-9.43-.81s-6.06-.5-9.09-.73a11.73,11.73,0,0,0-3.59-.16c-.13,0-.7.27-.37.42a3.56,3.56,0,0,0,1,.12l2.78.27c3.12.28,6.24.54,9.36.8s6,.5,9,.72a11.07,11.07,0,0,0,3.44.16C70.69,234.49,70.59,234.09,70,234.26Z"/><line class="cls-20" x1="78" y1="130.49" x2="80.27" y2="129.93"/><path class="cls-20" d="M44.58,177.64l0,.05c2.91,1.21,5.62,2.89,8.61,3.88,3.89,1.29,8.14,1.45,12.2,1.64,6.69.33,11.83,8.49,18.38,7.11l-.9-12.43-.21-4c1.37-2.37,3.12-12.16,3.92-18.73,6.63-.48,10-7.08,10-7.08s-7.65-12.22-10-14.79-9-4.79-9-4.79c2,4.69-3.09,4.38-3.09,4.38-1.93.39-12.11-2-13.47-6.19,0,0-.38,0-5.18,2.41-8,4.06-8.42,16.22-8.45,20s2.2,17.75,1.05,23Z"/><path class="cls-21" d="M86.89,155.11a45.5,45.5,0,0,0,.58-5.83c.06-2,0-4,0-6,0-.14-.67,0-.67.18,0,1.95,0,3.89,0,5.84a46.92,46.92,0,0,1-.58,5.91c0,.2.63.09.66-.1Z"/><path class="cls-8" d="M56.77,154.24c5.26,6.34,19.85,17,23.87,17.45C90.18,172.76,111,165,111,165l-2-5.66-25.24.65S66.89,144.19,65,141.32c0,0-7.59-12-13.42-5.71"/><path class="cls-10" d="M83.8,159.83A3.39,3.39,0,0,0,81,162.54c0,.06.25,0,.28,0s.22,0,.23-.14A2.93,2.93,0,0,1,83.7,160c.07,0,.28-.05.3-.13s-.17,0-.2,0Z"/><path class="cls-10" d="M101.25,155A3.66,3.66,0,0,0,99,157.67c0,.22.48.14.52,0a3.18,3.18,0,0,1,1.92-2.34c.08,0,.2-.13.13-.22s-.26-.05-.34,0Z"/><path class="cls-22" d="M35.91,230.71l-2.61,9.76s26.59,8.1,36.57,4.62C83.11,240.47,72.66,196,72.66,196l-25.57-6.74s-1.9,8.34.27,14.16,11.26,27.44,11.26,27.44Z"/><path class="cls-8" d="M42,221.36a7.37,7.37,0,0,0-2.82-2.93,2.83,2.83,0,0,0-2.46.1c-2.35,1-3.57,2.94-5.42,4.61a23.21,23.21,0,0,1-4.68,3.29c-1.71.92-3.58,1.38-5.31,2.21l0,0a4.16,4.16,0,0,0-2,2,8.77,8.77,0,0,1-.46.92c-.23.41-.48.71-.24,1.19.44.89,1.92.34,2.36.15a.69.69,0,0,1,.25,0,10.51,10.51,0,0,0,3.11-.3,4.17,4.17,0,0,1,.49-.08v0c.92-.15,5-.28,5.71-.36a50.67,50.67,0,0,0,6-1.64s6-.83,7.93.37l2.31-7.14S42.5,222.5,42,221.36Z"/><path class="cls-10" d="M35,230a4,4,0,0,1-1.67-.73,4.32,4.32,0,0,1-.91-1.32,6.6,6.6,0,0,0-1.09-1.27,4.23,4.23,0,0,0-2.48-1.39,4.74,4.74,0,0,0-2.42.71c-2,1.06-3.16,2.93-4.83,4.34-.83.71-1.73,1.35-2.59,2-.27.21.15.35.33.2.84-.65,1.69-1.29,2.51-2,1.45-1.18,2.52-2.77,4.05-3.87.9-.64,2.24-1.41,3.37-1a6.33,6.33,0,0,1,2.55,2.21c.52.74.7,1.39,1.53,1.84a5,5,0,0,0,1.35.5c.19,0,.6-.26.3-.32Z"/><path class="cls-22" d="M44.26,222.82l-2.51,9.66s26.91,9,36.57,4.61c13.77-6.3,2.79-49.11,2.79-49.11l-25.58-6.74s-1.89,8.34.27,14.17S67,221.54,67,221.54Z"/><path class="cls-23" d="M76,237.91c1.88-6.44,1.31-13.57.51-20.14a154.07,154.07,0,0,0-3.42-18.06c-.31-1.24-.63-2.47-1-3.7a.09.09,0,0,0-.06-.06l-26.48-6.51a3,3,0,0,1-.67-.16l-.19-.07c.24.09-.27-1-.22-.1,0,.06.23.27.25.33.16.44.41.86.58,1.3,1.05,2.76,1.76,5.66,2.55,8.5.59,2.13,1.32,4.19,2,6.3,1,3.06,1.82,6.18,2.63,9.29q2.13,8.22,4,16.49l.48-.26-17.64-.37c-.22,0-.72.32-.27.33l17.63.37c.1,0,.51-.08.47-.25-1.44-6.25-3-12.49-4.61-18.68-.86-3.21-1.78-6.37-2.89-9.49s-1.85-6.56-2.84-9.81c-.38-1.23-.69-3.1-1.57-4.1a.71.71,0,0,0-1.27.35.1.1,0,0,0,.06.1l24.26,6,2.16.53a3.13,3.13,0,0,1,1,.24c-.09-.07.08.38.12.54.18.65.35,1.31.52,2a157.82,157.82,0,0,1,3.36,16.54c1.06,7.35,2,15.48-.15,22.73-.06.19.61.1.67-.1Z"/><path class="cls-20" d="M71,222.39c1.69,0,2.85.92,4.42,1.25s2.69-.95,4.07-1.34c1.58-.44,2.79.45,4.32.37a3.44,3.44,0,0,0,1.38-.36c.17-10.16-1.54-22.46-1.4-32,0-3.34-.58-3.23-2.12-6.19A11.42,11.42,0,0,0,75.38,179a33.31,33.31,0,0,0-8.06-1.61l-18.74-6.12C38,185.14,38.5,205.1,46.41,220.59a2,2,0,0,0,.57.76c1,.63,1.28-.48,2.42-.64,1.54-.22,1.21,1.55,2.76,1.35a13.47,13.47,0,0,0,1.78-.71c1.83-.52,3.51,1.49,5.41,1.39,1.53-.08,2.79-1.53,4.33-1.43,1.89.13,3.29,2.58,5.11,2.09a10.25,10.25,0,0,0,1.44-.73A1.12,1.12,0,0,1,71,222.39Z"/><path class="cls-20" d="M59,158.45c6.09-1.56,10.34-6.89,14.13-11.91a4.07,4.07,0,0,0,.81-1.45c.36-1.42-.8-2.74-1.87-3.76a49.67,49.67,0,0,0-8.61-7.05,13.83,13.83,0,0,0-9.71-1.91,2.11,2.11,0,0,0-.93.28,2.18,2.18,0,0,0-.65.82,13.59,13.59,0,0,0-1.19,10c1.34,5.4,3.44,10.77,7.21,14.86"/><path class="cls-21" d="M71.24,149.37A7.15,7.15,0,0,0,73,147.64a6.71,6.71,0,0,0,1.35-1.77c.24-.87-1.2-2-1.66-2.62-1.09-1.36-2.18-2.68-3.39-3.93s-2.3-2.2-3.48-3.26a17.5,17.5,0,0,0-3.54-2.69,8.07,8.07,0,0,0-7.52,0c-.4.22.2.31.41.19,2.78-1.55,6-.6,8.33,1.25a52,52,0,0,1,5.76,5.34c.92,1,1.79,2,2.61,3.05.46.59,2,1.85,1.84,2.64-.07.42-.81,1.09-1.06,1.41a7.67,7.67,0,0,1-1.8,1.88c-.39.23.2.31.41.19Z"/><path class="cls-21" d="M60.66,157.78a12.07,12.07,0,0,1-1.74.46,1.71,1.71,0,0,1-1.36-.54c-.31-.25-.62-.51-.91-.78a21.45,21.45,0,0,1-2.79-3.08,20.91,20.91,0,0,1-3.51-7.74c-.06-.27-.73-.09-.67.18A20.74,20.74,0,0,0,57,158a2.14,2.14,0,0,0,1.76.71c.69-.12,1.37-.35,2-.52.41-.11.31-.5-.1-.4Z"/><path class="cls-21" d="M48.71,171.68c4.16,3.32,9.64,3.62,14.75,3.7,6.25.09,12.58.14,18.66-1.51.42-.11.29-.6-.13-.49-5.75,1.57-11.73,1.56-17.65,1.49-5.2-.06-10.86-.19-15.12-3.59-.25-.19-.82.16-.51.4Z"/><path class="cls-8" d="M247.92,205.21a12.24,12.24,0,0,1,4.68-4.86c1.61-.93,3.57-.06,4.09.16,3.91,1.65,5.93,4.88,9,7.66a39.38,39.38,0,0,0,7.78,5.47c2.85,1.53,5.95,2.3,8.84,3.68l.06,0a6.81,6.81,0,0,1,3.25,3.28c.24.52.49,1,.77,1.53.38.67.79,1.18.39,2-.73,1.47-3.19.56-3.91.25a1,1,0,0,0-.42-.06,18.09,18.09,0,0,1-5.16-.51,8.19,8.19,0,0,0-.82-.13.43.43,0,0,0,0,0c-1.53-.25-8.27-.47-9.5-.59-2.44-.24-10-2.73-10-2.73S247,219,243.75,221l-3.85-11.87S247.13,207.11,247.92,205.21Z"/><path class="cls-8" d="M263.43,217.74A12,12,0,0,1,268,213c1.58-.92,3.51-.06,4,.15,3.84,1.63,5.82,4.81,8.85,7.54a38.09,38.09,0,0,0,7.65,5.38c2.8,1.5,5.85,2.26,8.69,3.62l.06,0a6.7,6.7,0,0,1,3.2,3.23c.24.51.48,1,.75,1.5.38.66.78,1.16.39,1.94-.72,1.45-3.14-.2-3.85-.51a1,1,0,0,0-.41-.06,17.66,17.66,0,0,1-5.07-.5c-.28-.06-.55-.1-.81-.13h0c-1.5-.24-8.27-.55-9.49-.67-2.4-.23-9.73-1.79-9.73-1.79s-9.77-1.35-13,.61l-3.78-11.68S262.65,219.61,263.43,217.74Z"/><path class="cls-10" d="M263.7,217.67a10.38,10.38,0,0,1,2.9-3.58,4.89,4.89,0,0,1,3.31-1.53,5.75,5.75,0,0,1,1.9.5c2.73,1.12,4.74,3.22,6.73,5.32a56.69,56.69,0,0,0,7.28,6.1c.12.09.61-.13.53-.19l-4-3c-2.12-1.6-3.74-3.7-5.68-5.5s-4.62-3.76-7.34-3.37a6.49,6.49,0,0,0-3.09,1.66,10.59,10.59,0,0,0-3.07,3.74c0,.08.48,0,.55-.1Z"/><path class="cls-24" d="M170.43,128.84l2.84,17.64-29.73,19.27c.64,4.25-.17,5,1.05,9.21,0,0,34-7.7,38.39-9.64,19.73-8.66,15.78-16.34,13.52-23.22-1.3-4-6.33-17.32-10.19-18.21C185.43,123.69,170.36,129,170.43,128.84Z"/><polygon class="cls-25" points="110.64 202.62 80.85 200.87 80.85 247.16 109.2 244.01 110.64 202.62"/><polygon class="cls-26" points="109.2 197.72 162.95 200.33 162.95 247.16 80.85 200.87 109.2 197.72"/><polygon class="cls-27" points="134.6 251.4 80.85 247.16 80.85 200.87 134.6 204.02 134.6 251.4"/><polygon class="cls-28" points="134.6 251.4 162.95 247.16 162.95 200.33 134.6 204.02 134.6 251.4"/><path class="cls-6" d="M117,187.3a19.48,19.48,0,0,1,.06,3,7,7,0,0,0,.67,2.63c.09.2.63,0,.55-.14a6.73,6.73,0,0,1-.67-2.64,19.35,19.35,0,0,0-.07-3c0-.2-.58-.06-.54.14Z"/><path class="cls-6" d="M119.51,193.49c-.24-1-.5-2.09-.66-3.15a4.08,4.08,0,0,1,.07-1.52,2.58,2.58,0,0,0,0-1.35c0-.14-.59,0-.55.15a2.84,2.84,0,0,1-.06,1.5,4.14,4.14,0,0,0,0,1.36c.17,1.06.42,2.11.67,3.16,0,.13.58,0,.54-.15Z"/><path class="cls-6" d="M120.78,193.5a8.48,8.48,0,0,1-.81-2.68c-.07-1,0-2,0-3,0-.18-.55-.07-.55.14,0,1,0,2,0,3a8.34,8.34,0,0,0,.81,2.67c.08.2.62,0,.55-.14Z"/><path class="cls-6" d="M134.25,193.38a8.63,8.63,0,0,1-1.15-2.73,6.11,6.11,0,0,1,0-1.54,6.78,6.78,0,0,0,0-1.56c0-.2-.58-.07-.55.14a8,8,0,0,1,0,1.76,4.64,4.64,0,0,0,0,1.44,9.08,9.08,0,0,0,1.18,2.71c.09.16.62,0,.5-.22Z"/><path class="cls-6" d="M122.39,193.92c-.15-.89-.89-1.51-1.14-2.36a5.5,5.5,0,0,1-.15-1.51v-1.73c0-.13-.55,0-.54.15v1.67a5.44,5.44,0,0,0,.14,1.56c.25.85,1,1.47,1.14,2.37,0,.15.57,0,.55-.15Z"/><path class="cls-6" d="M123.48,193.41a8.26,8.26,0,0,1-1.11-2.32c-.16-.94.3-1.85.08-2.79,0-.15-.58,0-.54.15.21.93-.24,1.85-.09,2.78a8.7,8.7,0,0,0,1.11,2.32c.09.17.62,0,.55-.14Z"/><path class="cls-6" d="M124.55,193.69l-.88-2.58a2.51,2.51,0,0,1-.14-1.27,7.34,7.34,0,0,0,.2-1.23c0-.27-.55-.18-.55,0a6.46,6.46,0,0,1-.21,1.23,2.54,2.54,0,0,0,.13,1.28c.29.89.6,1.77.91,2.66.08.23.62.08.54-.14Z"/><path class="cls-6" d="M126.24,194.15c-.22-.85-.65-1.63-.82-2.48a15.19,15.19,0,0,1-.11-2.78c0-.27-.55-.18-.55.05a17.15,17.15,0,0,0,.1,2.78c.16.9.6,1.7.83,2.57.06.24.61.1.55-.14Z"/><path class="cls-6" d="M127.66,193.91c-.66-1.61-1.32-3.31-.87-5.06,0-.19-.5-.11-.54.07-.46,1.78.2,3.51.86,5.13.08.18.61,0,.55-.14Z"/><path class="cls-6" d="M129.42,193.78l-.63-1.3a4.71,4.71,0,0,1-.51-1.2,5.3,5.3,0,0,1,0-1.32l.05-1.45c0-.28-.54-.2-.55,0l-.06,1.45a7.5,7.5,0,0,0,0,1.34,4.66,4.66,0,0,0,.52,1.29l.63,1.3c.12.24.66.08.55-.15Z"/><path class="cls-6" d="M130.79,193.57A10.65,10.65,0,0,0,130,192a6.66,6.66,0,0,1-.41-1.45,10.76,10.76,0,0,1-.17-3.1c0-.29-.52-.22-.55,0a10.53,10.53,0,0,0,.16,3.12,6.89,6.89,0,0,0,.4,1.48,12.55,12.55,0,0,1,.82,1.64c.06.26.61.12.55-.15Z"/><path class="cls-6" d="M132.51,193.57a20.47,20.47,0,0,1-1.39-3.44c-.09-.4-.18-.8-.25-1.2a2.57,2.57,0,0,1,0-1.17c.06-.19-.49-.12-.55.07a2.41,2.41,0,0,0,0,1.1,11.84,11.84,0,0,0,.27,1.29,20.25,20.25,0,0,0,1.39,3.5c.09.2.63,0,.55-.15Z"/><path class="cls-6" d="M120.2,173.33a23.08,23.08,0,0,1,.07,3,7,7,0,0,0,.66,2.59c.11.23.65.07.55-.15a6.75,6.75,0,0,1-.67-2.68,18.86,18.86,0,0,0-.06-2.91c0-.25-.6-.11-.55.15Z"/><path class="cls-6" d="M122.72,179.46c-.24-1-.5-2.09-.66-3.15a4.26,4.26,0,0,1,.06-1.51,2.62,2.62,0,0,0,0-1.36c-.06-.18-.61,0-.55.15a3,3,0,0,1-.06,1.49,3.94,3.94,0,0,0,0,1.37c.16,1.06.42,2.11.66,3.16,0,.17.59,0,.55-.15Z"/><path class="cls-6" d="M124.05,179.43a8.42,8.42,0,0,1-.81-2.67c-.07-1,0-2,0-3,0-.17-.55-.07-.55.15,0,1,0,2,0,3a8.74,8.74,0,0,0,.81,2.68c.08.19.62,0,.55-.15Z"/><path class="cls-29" d="M125.27,203.59l9.33.43L148,202.28c-2.37-.62-3.64-2.61-5.86-3.65-3.82-1.8-8-3.29-12.18-2.56-2.71.47-15.17,5-17.32,6.66l6.67.53C121.67,203.47,125.27,203.59,125.27,203.59Z"/><path class="cls-30" d="M93.34,201.6c2.29-1.23,3.88-3.42,6.11-4.75a14.55,14.55,0,0,1,4.26-1.52c4.21-.93,6-1,9.8,1,.54.29,4.53,1.05,5.07,1.34.91.5,3.87.36,3.46.85s-3.76,1.41-4.34,1.68c-2.69,1.23-2.11,2.43-5.08,2.48,0,0-14.55-.75-19-1.11"/><path class="cls-31" d="M138.51,146.64c-4.42-2.78-8.81-2.87-13.4-1.54-2.3.67-8.27,10.08-9.73,12.12s-1.28,4.93-1.31,7.85c-.1,7.52,1.5,15.21,2.92,22.72a51.67,51.67,0,0,0,15.92,1.12,1.08,1.08,0,0,0,.76-.25,1.52,1.52,0,0,0,.1-1.39c-3.51-12.05-3.16-22.48.29-32.53"/><g class="cls-32"><path class="cls-6" d="M113.28,173.68s13.87,2.41,20.52.65l0,3.29s-15.92,1.63-20.09-1.1Z"/><path class="cls-6" d="M113.45,180s13.88,2.41,20.52.65l0,3.29s-15.91,1.63-20.09-1.1Z"/><path class="cls-6" d="M112.5,166.93s13.87,2.41,20.52.66l0,3.28s-15.91,1.63-20.09-1.1Z"/><path class="cls-6" d="M113.06,160s13.87,2.42,20.52.66l0,3.28s-15.92,1.64-20.09-1.1Z"/><path class="cls-6" d="M135.36,159s-13.56-3.77-20.35-2.68l.29-3.27s16-.06,19.89,3.08Z"/><path class="cls-6" d="M139.11,153.55s-13.56-3.77-20.35-2.68l.29-3.27s16-.06,19.89,3.08Z"/></g><path class="cls-33" d="M113.39,256.23l5.12-17.91s14.88,3.13,27.11.06l5.78,17.85S138.09,262.61,113.39,256.23Z"/><path class="cls-34" d="M113.66,256.19l5.12-17.91-.44.18a71.26,71.26,0,0,0,9.2,1.2,58,58,0,0,0,18.11-1.16l-.31-.05,2.47,7.63,1.9,5.84c.41,1.29.74,2.66,1.26,3.91.12.27.06.6.31.3-.06.08-.3.14-.39.17-.82.29-1.62.6-2.45.84a48.81,48.81,0,0,1-11.83,1.74,81.89,81.89,0,0,1-23.05-2.79c-.17,0-.64.2-.34.28,11.54,2.95,24.71,4.48,36.29.71a16.68,16.68,0,0,0,2-.75c.05,0,.19-.09.16-.17l-5.78-17.86c0-.1-.24-.07-.31-.05a57.67,57.67,0,0,1-18.3,1.08,69.11,69.11,0,0,1-8.6-1.15c-.13,0-.4,0-.44.18l-5.13,17.91C113.06,256.44,113.61,256.37,113.66,256.19Z"/><ellipse class="cls-35" cx="131.95" cy="238.32" rx="13.55" ry="1.74"/><path class="cls-34" d="M145.23,238.34c-.1.71-2.89.92-3.35,1-2,.27-3.95.4-5.93.48a78.56,78.56,0,0,1-13.8-.48c-.62-.09-3-.18-3.37-.89s2.27-1,2.65-1a72.54,72.54,0,0,1,13.5-.59,62,62,0,0,1,6.82.5c.56.08,3.37.25,3.48,1.07,0,.24.58.11.55-.14-.1-.76-1.77-.95-2.31-1.06a46.91,46.91,0,0,0-7-.71,67.79,67.79,0,0,0-15.85.7c-.53.11-2.29.31-2.46,1s1.2,1,1.65,1.08c4.78,1.18,10.09,1,15,.9a54.64,54.64,0,0,0,8.28-.7c.62-.12,2.61-.31,2.73-1.21C145.82,238,145.26,238.11,145.23,238.34Z"/><path class="cls-33" d="M115.23,249.78l-9,6.75s8.7,7.49,28.42,6.11,24.67-8.6,24.67-8.6l-10-5.35S132.72,255.8,115.23,249.78Z"/><path class="cls-34" d="M115.05,249.66,106,256.41c-.1.08-.13.19,0,.28a18.37,18.37,0,0,0,4.25,2.51,41.84,41.84,0,0,0,13.19,3.47,66.48,66.48,0,0,0,20-1,37.57,37.57,0,0,0,12.2-4.39,12.59,12.59,0,0,0,3.85-3.18c.05-.08.08-.19,0-.24L154.05,251l-3.39-1.81c-.38-.2-.94-.67-1.39-.66a4.36,4.36,0,0,0-1.09.41c-1.05.39-2.11.72-3.18,1a54.88,54.88,0,0,1-11.38,2,47.36,47.36,0,0,1-18.23-2.29c-.23-.08-.64.26-.32.37a51.09,51.09,0,0,0,33-.59,7.73,7.73,0,0,0,1.08-.4,1.28,1.28,0,0,1,.27-.11c-.3.11-.31-.16-.15.06s.94.5,1.25.67l2.5,1.34,4.85,2.59a10.25,10.25,0,0,1,1.18.63c-.09-.06.17-.29-.07,0-4.82,4.67-11.4,6.6-17.92,7.62-10.36,1.64-22.17,1.52-31.68-3.49-.9-.47-1.7-1.09-2.58-1.58a3.17,3.17,0,0,1-.36-.28c.4.31-.33.27.17.13.21-.06.48-.37.66-.5l8.19-6.1C115.71,249.69,115.27,249.5,115.05,249.66Z"/><path class="cls-36" d="M112.35,251.93s.24.15.71.4"/><path class="cls-37" d="M114.48,253A45.1,45.1,0,0,0,132,256.32c9.58.08,15.69-3.26,18.18-5"/><path class="cls-36" d="M150.77,250.89c.42-.32.63-.51.63-.51"/><path class="cls-36" d="M109.43,254.11s.25.14.72.36"/><path class="cls-38" d="M111.6,255.13A54.26,54.26,0,0,0,132,259.45c10.09.09,18.49-4.75,21.63-6.83"/><path class="cls-36" d="M154.24,252.17l.66-.47"/><path class="cls-39" d="M265.63,175.54c.93,8.55,5.79,26.63-20.4,31.51l11.67-4.27,2.85,20.73S181.29,239.68,179,240c-4.44.56-11.42-10-14.87-23.09s7.2-18,10.2-20.9,35.46-36.08,49.27-40.12l37.56,15.44Z"/><path class="cls-39" d="M272.57,192.27c-.67,8.58-6.08,18.15-13.76,20l1.14,1.79A32.83,32.83,0,0,1,265.07,233l-.4,10.37s-66.88,7.9-78.31,5.22c-4.47-.28-14.78-6.54-15.75-20.07S181,212.12,184.5,209.83s41.31-12.26,55.63-13.67L255.24,184Z"/><path class="cls-24" d="M271.12,175.88c-.7-3.77-5-11.4-7.44-14.41l-5-7.28-3-.71c-.14-.27-.84.44-1,.13-1.69-.64-8.26-8.42-8.53-10.22-.07-.49.49-.9,1.23-1.28l-9-5.64c-1.25-2.49-1.52-11.33-2.43-16.61a1.14,1.14,0,0,1-.35-.86v-.8a6.45,6.45,0,0,0-.64-1.77c-.2-.34-4.27-.29-4.47-.63,0,0,2.73-.18,5.13-.32,0-.68,0-1.36,0-2a34,34,0,0,1-1-5.47c-.64-1-1.29-2-2-3a61.38,61.38,0,0,0-4.27-5.64c-.77-.9-1.57-1.76-2.39-2.61l-.48-.48-.83-.8c-3.54-3.4-7-7-7.9-12a58.08,58.08,0,0,0-5.95-.46c.94,9.9-12.57,17.42-15.77,17.65,0,0-9.08,1.45-8-6.76,0,0-5.93,5.68-8.54,10.74S172,147.86,172,147.86s-24.61,20.82-14,18.7c-.54.34,6.29,12.37,6.22,11.63l26.6-7.33-6,14.12c.84.12,11.69,1.12,12.5,1.3,2.87.61,5.76,1.37,8.56,2.26,5.32,1.68,9.86,5.08,14.69,7.78A63.34,63.34,0,0,1,234,206.51c3.93,3.85,7.5,8,11.17,12.1a6,6,0,0,0,1.14,1A36.11,36.11,0,0,0,254.2,217c6.83-3.1,10.8-7.44,15.19-13.49a13.92,13.92,0,0,0,1.79-3.39C273.68,193.14,272.74,184.65,271.12,175.88Z"/><path class="cls-24" d="M200.77,95a18.18,18.18,0,0,0-6.38-9.94L191,87.51l-5.1,3-10.82,5.63c-1.36,1.32-3.08,4.39-4.34,7.14-2.61,6.41-1,13.84-.88,20.67,0,2.24-.74,25.55.38,25.66,7.75.78,12.66-5.82,18.69-.81A53.68,53.68,0,0,1,191,139c2.93-10,7.38-19.67,9.46-30C201.36,104.42,201.85,99.61,200.77,95Z"/><path class="cls-40" d="M205.46,87.56a37.78,37.78,0,0,1-2.78,5c-1.55,2.4-12.73,17.59-12.73,17.59l5.78,5.71,10.32-4.68Z"/><path class="cls-41" d="M195.72,115.87h0l-5.79-5.72h0c.11-.15,11.19-15.22,12.72-17.59a40.41,40.41,0,0,0,2.79-4.92l.05-.11v.12l.55,23.53h0ZM190,110.12l5.74,5.68L206,111.13l-.6-23.45a39.85,39.85,0,0,1-2.71,4.86c-1.53,2.33-12.26,17-12.67,17.57Z"/><path class="cls-24" d="M176.91,124.56c1.57,4.16,2.48,13.78,5.55,17.17,2,2.17,7.49,1.69,9.79,3.49,4.57,3.56,9.31,6.9,14.1,10.14l1,.7,8.93,3.34c35.21,6.81,57.31,16.48,57.31,16.48-4.91-17.55-19.12-27.54-19.12-27.54l-9-10.32L236.25,97.8c-1-4.88-5.94-9.68-9.92-12.68s-8.55-4.3-14.27-4c-.92.06-14.92,8.37-15.08,8.44"/><path class="cls-24" d="M252.28,151l-34.07-.14s26.77,6,28.52,28.16,16.85,31,16.85,31,13.09-6.22,11-28.65-26.52-40.47-26.52-40.47"/><path class="cls-39" d="M160.24,166.17l13.21-6.92,22.08-11.57,6.34-3.32a1.62,1.62,0,0,0,.75-.51,8.21,8.21,0,0,0,.32-2.22c1.45-9.9,3.14-19.8,5.53-29.51.89-3.65,2.22-7.19,3-10.85s1.95-8.33,5-10.68a4.2,4.2,0,0,1,2.85-.91c.27,0,.55-.39.18-.41-3.89-.23-6,3.88-7.17,7-1.07,2.87-1.55,5.9-2.47,8.81-3.28,10.36-5.08,21.24-6.78,32-.27,1.69-.52,3.38-.77,5.07-.07.46-.17.94-.2,1.41,0,.29-.18.47.09.22a5.71,5.71,0,0,1-1.25.65l-3,1.59-21.55,11.29-10.44,5.47c-1.88,1-3.85,1.88-5.67,3l-.27.14c-.33.17,0,.48.24.34Z"/><path class="cls-39" d="M233.48,105.73c-.32,7-2,13.94-3.64,20.7-1.68,7-3.61,13.89-5.65,20.77-1.11,3.73-2,8.2-4.4,11.34-3.28,4.26-8.39,6.29-13.37,7.78l-15.24,4.56c-.34.1-.24.48.1.38l14-4.19c4.59-1.37,9.13-2.85,12.82-6.07a15.34,15.34,0,0,0,4.66-7.26c.43-1.42.88-2.83,1.31-4.24,2-6.5,3.82-13,5.49-19.63,2-7.88,4.13-16,4.51-24.19,0-.28-.55-.2-.56,0Z"/><path class="cls-42" d="M202.88,110.83c2.09-2,8.34-19.64,8.34-19.64,2.73-6.42,14.46-6.75,7.49-11.73l-6.23-7s.7-46.88-30.77-42.54c0,0-20.21.82-20,20.65,0,0,.75,12.59,3.23,20.38,2.3,7.21,8.31,20,8.31,20"/><path class="cls-42" d="M171.37,101.93s1.22-1.61,4.15,3.13c1.46,3.33,2.13,6.45,4.62,9.17,7,7.4,10.43,7.2,19.06,1,6.12-4.4,11.94-24.73,11.94-24.73l.08-24-8.72,4.62s-.83,15.33-15.94,17.74-15.28-10.49-15.28-10.49l1.28,10.72c.44,3.39.19,3.55-.74,5.28-.61,1.14-.35,3.16-.47,4.45Z"/><path class="cls-8" d="M164.15,59.49c-.74-2.83-.62-9.3-.62-9.3,0-.31-.13-4.84-.07-5.11,4-2.85,9.59-6.83,14.43-6.77s15.49.5,17,6.09c.44,1.71,1.8,13,3.19,13a5,5,0,0,1,.15.58,36.09,36.09,0,0,0,1.4,4.54,15.24,15.24,0,0,0,1.06-2.68c.12-.59-.2-1.24-.08-1.84.47-1.4,2.23-1.41,3.33-.85l.21.22c1.69,1.44,1.53,7.16.95,9,.47,3.33-2,5.7-4.17,3.71l-.16,1.38-2.85,5.11c-2.54,4.1-7.32,11-12.54,12.07-3.53.76-4.82.18-6.38-.74-2.35-1.4-3.89-3.21-5.82-5a16.28,16.28,0,0,1-3.89-5.17,12.28,12.28,0,0,1-1.62-5.55,24.2,24.2,0,0,0-.73-3.88C166.53,67,164.9,62.31,164.15,59.49Z"/><path class="cls-17" d="M169.53,65.63a1.35,1.35,0,0,0-1.32.54,1.33,1.33,0,0,0-.17.63,1.27,1.27,0,0,0,.54,1,1.17,1.17,0,0,0,1.35-.07,1.28,1.28,0,0,0,.27-1.59,1.11,1.11,0,0,0-.67-.55"/><path class="cls-17" d="M174.12,65.88a10,10,0,0,0-3.1-.71c-2.43.12-4,.92-4.4,1.9a10.28,10.28,0,0,1,4.22-1.35C172,65.68,174.12,65.88,174.12,65.88Z"/><path class="cls-17" d="M185.5,61.74a1.63,1.63,0,0,1,1.54-.25,1.24,1.24,0,0,1,.48.47,1.22,1.22,0,0,1,0,1.16,1.13,1.13,0,0,1-1.23.53,1.29,1.29,0,0,1-.95-1.31c0-.09-.13-.25.2-.53"/><path class="cls-17" d="M182.41,63.92A8.08,8.08,0,0,1,186.34,61a9.45,9.45,0,0,1,5.35.24,28.62,28.62,0,0,0-5.11.3A24.66,24.66,0,0,0,182.41,63.92Z"/><path class="cls-17" d="M190.52,57.43a6.32,6.32,0,0,0-.87,0,25.44,25.44,0,0,0-5.18,1.11,24.67,24.67,0,0,0-4.23,2c-.1-.31-.15-.13-.25-.44l-.39-1.2a31,31,0,0,1,7.32-2.28,9.38,9.38,0,0,1,2.37.1,12,12,0,0,1,2.46.6C192.06,57.57,190.52,57.43,190.52,57.43Z"/><path class="cls-17" d="M165.2,63.06l0-.16h0a7,7,0,0,1,1.16-.68,23.85,23.85,0,0,1,6.34-1.36c.15.57.32,1.13.48,1.7a19.36,19.36,0,0,0-4,.22,18.76,18.76,0,0,0-3.71,1.09,3.79,3.79,0,0,1-.2-.34c0-.08-.05-.16-.07-.24Z"/><path class="cls-14" d="M181.11,76.88c2.51-.63,6.72-2,6.72-2s.89,6.84-4.94,8.3S175,78.25,175,78.25,178.6,77.51,181.11,76.88Z"/><path class="cls-15" d="M181.09,76.89c1.19-.3,5.95-1.71,5.95-1.71s-.33,4.6-4.65,5.68a5.94,5.94,0,0,1-6.75-2.72Z"/><path class="cls-16" d="M181.08,77.09c1.2-.3,4.78-1.42,4.78-1.42s-1,1.67-4.56,2.57-5-.13-5-.13Z"/><path class="cls-14" d="M174.75,78.14a7.48,7.48,0,0,1,.8-.43c.93-.42,1.52-.75,2.22-1a10.65,10.65,0,0,1,2.63-.23,10.35,10.35,0,0,1,2.43-1c.73-.13,2.77-.35,3.78-.51a8.29,8.29,0,0,0,1.38-.51c.19,0,0,1.47-6.71,3.14S174.59,78.23,174.75,78.14Z"/><path class="cls-43" d="M200,59.91S192.33,45,176,48c-9.44,1.74-12,10.72-12,10.72s-1.93-8.72,1.1-12.9,15.21-7.32,21.46-5.94S200,59.91,200,59.91Z"/><path class="cls-42" d="M203.68,45.83s-8.76-17-24.41-14.18c-19.43,3.51-17.08,24.28-17.08,24.28L165.68,71c-1-3.86-2-7.28-1.78-11.26-.33-2.22-2.42-7.87,3-13a17.68,17.68,0,0,1,11-4.38c3.66-.27,8,.17,10.81,2.78a24.78,24.78,0,0,1,5.66,7.72c1.93,3.83,3.25,9.71,3.78,14,.41,3.86,1.5,8.93-3.2,16.51,15.58-9.13,12.11-28.75,9.26-37.54Z"/><path class="cls-39" d="M190.22,33.16c3.91,2,7.1,5.91,8.94,9.8,3,6.24,3,13.72,2.67,20.48-.09,1.79-.2,3.58-.41,5.35,0,.23.56.13.58-.07a75.74,75.74,0,0,0,.35-14.28c-.48-7-2.46-13.75-7.76-18.68a17.73,17.73,0,0,0-3.9-2.88c-.17-.09-.71.16-.47.28Z"/><path class="cls-39" d="M211.78,72.62a61,61,0,0,1-.91,7.86c-.86,4.94-2.15,10-4.79,14.34a12.92,12.92,0,0,1-6,5.52c-.37.15,0,.47.26.35,4.61-1.85,7.19-6.66,8.79-11.09a59.37,59.37,0,0,0,3-13.89c.11-1,.21-2.09.26-3.14,0-.3-.58-.22-.6.05Z"/><path class="cls-17" d="M191,61.34s.82.08,1-1a4.82,4.82,0,0,1-2.91.8Z"/><path class="cls-17" d="M167,67a1,1,0,0,1-1.39,0s.84.32,1.93-1Z"/><path class="cls-39" d="M197.41,77.82c-.89,5.33-2.27,11.17-6.31,15.05a10.62,10.62,0,0,1-8.19,3.1,27.07,27.07,0,0,1-8.62-2.13.73.73,0,0,0-.55.19c5.14,2.08,11.27,3.56,16.18.18,5.36-3.69,7.06-10.5,8.08-16.54,0-.06-.56,0-.59.15Z"/><path class="cls-39" d="M173,97.09a7.9,7.9,0,0,1,4.81,1.46,49.45,49.45,0,0,1,4.36,3.82c2.3,2.06,5,4.73,8.37,3.63.34-.11.28-.37-.07-.26-2,.66-4-.4-5.56-1.66s-2.8-2.48-4.18-3.72a17.1,17.1,0,0,0-3.58-2.76,8.43,8.43,0,0,0-3.92-.82c-.2,0-.62.32-.23.31Z"/><path class="cls-17" d="M179.78,73.38a3.84,3.84,0,0,1-3.71.68c-1.22-.61-.74-2-.66-3,0-.13-.29-.07-.3,0-.06.87-.45,2,.17,2.73s2.07.78,3,.51a5.18,5.18,0,0,0,1.67-.81c.16-.12-.09-.18-.19-.1Z"/><path class="cls-17" d="M182.19,71h.08a.31.31,0,0,1,.13.06,1,1,0,0,1,.2.24,2,2,0,0,1,.22.62.89.89,0,0,1-.08.62,1.44,1.44,0,0,1-.74.54,4,4,0,0,1-1.29,0,.37.37,0,0,0-.21.06s-.05.06,0,0a5.47,5.47,0,0,0,1.4,0,2.27,2.27,0,0,0,1-.55.85.85,0,0,0,.24-.73,1.93,1.93,0,0,0-.26-.74.58.58,0,0,0-.7-.28s-.15,0-.14.08.14,0,.16,0Z"/><path class="cls-44" d="M196.57,262.29c-3.95.42-7.81.43-11.58,2.17-2.84,1.3-5,3.83-8,4.93s-4.07-1.67-4.73-3.65a29.4,29.4,0,0,0-2-5.25c-.9-1.62-2.69-2.55-3.81-4-1.64-2.14-2.44-3.89-5.26-5.2a20.58,20.58,0,0,0-6.35-1.36c-1.08-.12-4.39-.08-4.85-.91a7.39,7.39,0,0,1-.21-2.46c0-2-.36-1.52.27-3.45l12.07-8.39c1.17-.48,5-2.56,6.24-2.89.21.08,2.45-.36,2.73-.35a39,39,0,0,1,9.79,1.24,10.19,10.19,0,0,1,6.31,4.12c1.74,2.5,4,4.21,6.45,6.09,2.74,2.13,3.78,5.11,4.82,8.24a21.2,21.2,0,0,0,4.93,8.12l.13.13a.92.92,0,0,1,.07.52,1.42,1.42,0,0,1-.66.74l-.42.28a8.67,8.67,0,0,1-5.38,1.33A4.16,4.16,0,0,0,196.57,262.29Z"/><path class="cls-45" d="M202.27,258.39c-4.42,3.05-10,1.49-15,2.63a24.19,24.19,0,0,0-6,2.29,27.13,27.13,0,0,0-3,1.93c-1.26.9-3.12,2.38-4.76,1.63-.2-.1-.78.19-.51.32,1.82.84,3.89-.47,5.33-1.49a25.76,25.76,0,0,1,8.28-4.14c5.31-1.43,11.28.34,16.06-3,.36-.24-.19-.35-.4-.21Z"/><path class="cls-45" d="M201.21,257c-4.66,2.59-9.69.94-14.63,2s-9.63,4.15-14.07,6.64c-.38.21,0,.56.29.38,4.67-2.61,9.65-6.14,15.09-6.77,2.39-.27,4.8.05,7.19-.09a14.8,14.8,0,0,0,6.42-1.74c.38-.21,0-.56-.29-.38Z"/><path class="cls-45" d="M199.77,255c-2.61.66-5-1-3.39-3.59l-.62.16c1.36,1.29,1.4,5-1.36,4.29-1.66-.4-3.18-2-2-3.64l-.62.17c1.28,1.49-.12,4.76-2.22,3.49-.87-.52-3.1-2.64-1.37-3.52l-.48.07c1.86.9-.29,3.63-1.46,4.19-1.94.93-3.42-1.48-3.63-3.09l-.53.21c2.51.07,1.65,3.14.17,4.06a2.3,2.3,0,0,1-2.12.18,3.6,3.6,0,0,1-.71-.58c-.33-.34-1.24-1.32-.87-1.8s.86.66.92,1a2.66,2.66,0,0,1-.44,1.83,2.14,2.14,0,0,1-1.16,1c-.62.24-.73.13-1.1-.39a1.62,1.62,0,0,1,.05-2.29l-.59.14a2.17,2.17,0,0,1,.27,2.6c-.28.58-.92,1.56-1.7,1.46a2.48,2.48,0,0,1-1.1-.83,2.17,2.17,0,0,1-.67-1.11c0-1,.68-.47.91.13.59,1.52-1.17,2.87-2.35,3.33-.43.17,0,.23.21.13,1.38-.54,4.12-2.53,2.42-4.19-.69-.67-2-.29-1.83.77.2,1.34,2,2.52,3.2,1.87,1.48-.77,2.57-3,1.25-4.38-.11-.1-.51.05-.6.14a1.91,1.91,0,0,0,.51,3c.75.39,1.67-.16,2.21-.66a3,3,0,0,0,1.05-3.1,1.33,1.33,0,0,0-1.76-.83c-1,.51-.08,1.7.44,2.26a2.68,2.68,0,0,0,2.94,1c2-.71,4.36-4.9.87-5-.09,0-.55.06-.53.21.26,2,2.34,4.44,4.48,3.13a5.91,5.91,0,0,0,2.59-3.07c.16-.75-.23-1.7-1.11-1.52-2.71.55.67,4.19,2.2,4.26,2.15.09,3.69-2.65,2.25-4.33-.1-.12-.54.07-.62.17-1.61,2.08,1.34,4.21,3.39,3.85,2.35-.42,2.78-3.31,1.17-4.83-.11-.11-.56.05-.62.16-.73,1.22-.86,2.78.56,3.54a5,5,0,0,0,3.51.13c.37-.1.33-.28,0-.19Z"/><ellipse class="cls-34" cx="121.29" cy="245.98" rx="0.89" ry="2.2"/><ellipse class="cls-34" cx="121.29" cy="251.64" rx="0.89" ry="2.2"/><ellipse class="cls-34" cx="124.13" cy="248.86" rx="2.2" ry="0.89"/><ellipse class="cls-34" cx="118.46" cy="248.86" rx="2.2" ry="0.89"/><ellipse class="cls-34" cx="123.28" cy="246.83" rx="2.2" ry="0.89" transform="translate(-139.86 163.88) rotate(-45.96)"/><ellipse class="cls-34" cx="119.35" cy="250.9" rx="2.2" ry="0.89" transform="translate(-143.99 162.29) rotate(-45.96)"/><ellipse class="cls-34" cx="123.32" cy="250.87" rx="0.89" ry="2.2" transform="translate(-142.75 165.14) rotate(-45.96)"/><ellipse class="cls-34" cx="119.25" cy="246.94" rx="0.89" ry="2.2" transform="translate(-141.16 161.01) rotate(-45.96)"/><circle class="cls-46" cx="121.37" cy="248.86" r="1.34"/><ellipse class="cls-34" cx="131.95" cy="246.92" rx="0.89" ry="2.2"/><ellipse class="cls-34" cx="131.95" cy="252.58" rx="0.89" ry="2.2"/><ellipse class="cls-34" cx="134.78" cy="249.8" rx="2.2" ry="0.89"/><ellipse class="cls-34" cx="129.12" cy="249.8" rx="2.2" ry="0.89"/><ellipse class="cls-34" cx="133.94" cy="247.77" rx="2.2" ry="0.89" transform="translate(-137.29 171.83) rotate(-45.96)"/><ellipse class="cls-34" cx="130" cy="251.84" rx="2.2" ry="0.89" transform="translate(-141.41 170.24) rotate(-45.96)"/><ellipse class="cls-34" cx="133.97" cy="251.81" rx="0.89" ry="2.2" transform="translate(-140.18 173.08) rotate(-45.96)"/><ellipse class="cls-34" cx="129.9" cy="247.88" rx="0.89" ry="2.2" transform="translate(-138.59 168.96) rotate(-45.96)"/><circle class="cls-46" cx="132.03" cy="249.8" r="1.34"/><ellipse class="cls-34" cx="142.45" cy="245.35" rx="0.89" ry="2.2"/><ellipse class="cls-34" cx="142.45" cy="251.01" rx="0.89" ry="2.2"/><ellipse class="cls-34" cx="145.29" cy="248.23" rx="2.2" ry="0.89"/><ellipse class="cls-34" cx="139.62" cy="248.23" rx="2.2" ry="0.89"/><ellipse class="cls-34" cx="144.45" cy="246.2" rx="2.2" ry="0.89" transform="translate(-132.95 178.9) rotate(-45.96)"/><ellipse class="cls-34" cx="140.51" cy="250.27" rx="2.2" ry="0.89" transform="translate(-137.08 177.31) rotate(-45.96)"/><ellipse class="cls-34" cx="144.48" cy="250.24" rx="0.89" ry="2.2" transform="translate(-135.85 180.16) rotate(-45.96)"/><ellipse class="cls-34" cx="140.41" cy="246.3" rx="0.89" ry="2.2" transform="translate(-134.26 176.03) rotate(-45.96)"/><circle class="cls-46" cx="142.53" cy="248.23" r="1.34"/><path class="cls-39" d="M202.14,143.47a10.31,10.31,0,0,1,7.51,7.59c.06.26.61.11.55-.15a10.68,10.68,0,0,0-7.75-7.82c-.24-.05-.65.3-.31.38Z"/><path class="cls-8" d="M160.31,166.23l1.36,5.37,1.23,3.83s-5.38,4.23-7.4,4.83-6.58,2.56-6.58,2.56a2.75,2.75,0,0,1,.83,1.68,2.71,2.71,0,0,1-.77,2l-3.27-2.16c0,1.62-1.67,1.1-1.67,1.1l-2.57-2c.13,2-2.09,1.38-2.09,1.38l-2.4-3.35a6.32,6.32,0,0,1-1.08,2.21c-.7.76-1.6-.58-1.6-.58l.83-7.12,7.69-6.25,15.52-2.5Z"/><path class="cls-10" d="M140.2,173.22a18.44,18.44,0,0,0-3.72,4,2.77,2.77,0,0,0-.73,2.25,6.07,6.07,0,0,0,1.14,2.32c.12.14.63,0,.5-.21a5.89,5.89,0,0,1-1.09-2.18c-.28-.89.34-1.7.84-2.41a18.81,18.81,0,0,1,3.48-3.65c.23-.19-.29-.19-.42-.09Z"/><path class="cls-10" d="M143.32,175.88c-.56.52-1.15,1-1.72,1.5a8.84,8.84,0,0,0-1.73,1.78,3,3,0,0,0-.1,2.32,3.9,3.9,0,0,0,1.4,2c.17.15.64-.1.41-.3a3.53,3.53,0,0,1-1.31-2,5.39,5.39,0,0,1-.14-1.2,1.69,1.69,0,0,1,.51-1.15c1-1,2.09-1.88,3.13-2.84.09-.09,0-.2-.07-.25a.39.39,0,0,0-.38.1Z"/><path class="cls-10" d="M146.63,179.32a13.65,13.65,0,0,0-2,1.15,2.39,2.39,0,0,0-1.09,1.65,2,2,0,0,0,.82,1.69,4.1,4.1,0,0,0,.94.52.87.87,0,0,0,.55,0c.05,0,.26-.07.24-.15s-.25,0-.29,0c.27-.08.22,0,.11,0l-.15-.05a3.42,3.42,0,0,1-.43-.21,2.49,2.49,0,0,1-.94-.79,1.73,1.73,0,0,1,.13-2.16,8.16,8.16,0,0,1,2.42-1.58c.31-.16-.18-.14-.31-.07Z"/><path class="cls-39" d="M174.58,119.75c2.11,2.26,1.49,5.47,1.39,8.28a62.38,62.38,0,0,0,.11,7.49c.35,4.35,1.32,9.87,5.37,12.37,1.74,1.07,4,1.56,5.89,2.29.24.1.64-.26.31-.38-1.67-.65-3.48-1.11-5.09-1.87a9.35,9.35,0,0,1-4.48-5.35c-1.79-4.65-1.73-9.93-1.54-14.84.1-2.82.65-6-1.46-8.23-.17-.19-.69,0-.5.24Z"/><path class="cls-39" d="M169.61,148.65a6.35,6.35,0,0,1,4.91,3.06c.1.16.62,0,.55-.15a6.6,6.6,0,0,0-5.12-3.17.51.51,0,0,0-.38.1c-.07.07-.08.15,0,.16Z"/><path class="cls-3" d="M97.57,201.86c.33,4.81-1.27,9.55-.63,14.36a26.42,26.42,0,0,0,2,6.66,14.92,14.92,0,0,0,3.18,5.17,6.66,6.66,0,0,0,4.93,2,5.53,5.53,0,0,0,4.11-2.61,20.68,20.68,0,0,0,2.45-5.81,45.28,45.28,0,0,0,1.43-6.83c.56-4.2,1.37-10.45-3.11-12.9-.14-.08-.27.14-.12.21,4,2.19,3.55,7.48,3.14,11.31a37.44,37.44,0,0,1-3.22,12.53c-.81,1.64-2,3.26-3.88,3.73a6.12,6.12,0,0,1-5.47-1.7,14.66,14.66,0,0,1-3.24-5.22,27.1,27.1,0,0,1-1.85-6.09c-.79-4.94.91-9.82.56-14.77,0-.16-.27-.16-.25,0Z"/><circle class="cls-3" cx="97.53" cy="206.77" r="1.46"/><circle class="cls-3" cx="96.91" cy="211.75" r="0.78"/><circle class="cls-3" cx="97.13" cy="216.39" r="1.46"/><circle class="cls-3" cx="98.48" cy="221.37" r="0.78"/><circle class="cls-3" cx="100.6" cy="225.21" r="1.46"/><circle class="cls-3" cx="103.11" cy="228.87" r="0.78"/><circle class="cls-3" cx="107.62" cy="229.66" r="1.46"/><circle class="cls-3" cx="111.54" cy="226.47" r="0.78"/><circle class="cls-3" cx="113.44" cy="221.75" r="1.46"/><circle class="cls-3" cx="114.65" cy="217.17" r="0.78"/><circle class="cls-3" cx="115.22" cy="212.91" r="1.46"/><circle class="cls-3" cx="113.74" cy="204.02" r="1.46"/><circle class="cls-3" cx="115.17" cy="208.34" r="0.78"/><path class="cls-8" d="M125.2,157.16a.49.49,0,0,0,.16-.19c.36-.83-.8-1.55-1.53-1a18.53,18.53,0,0,1-3.19,2c-.27,0-2.07,0-3.64.13a1.43,1.43,0,0,1-1.6-1.2c0-.06-.28-.17.2-.42-.09-.48.47-1,.41-1.48a4.07,4.07,0,0,1-.2-.68l-.74.1a13.14,13.14,0,0,0-2.95,1.2,26.82,26.82,0,0,0-3.51,3.65l-4.17.47,1.37,6.77,4-1.18,4.12.53s7.63-.59,8.47-1.27a8.6,8.6,0,0,0,1.61-2.85c1.26-.72,1.15-2.6,1.15-2.6C126.82,157.32,125.2,157.16,125.2,157.16Z"/><path class="cls-10" d="M117.11,154.2a25.24,25.24,0,0,0-2.89.07,7.26,7.26,0,0,0-4.09,2.32c-.48.52-.94,1.07-1.38,1.63-.19.24-.42.48-.58.73a1.66,1.66,0,0,1-.16.21c-.22.2.31-.09,0,0a6.65,6.65,0,0,1-1.26.06l-15.59.4-5.11.13c-.2,0-.52.32-.19.32l12.45-.32,7.42-.19c.75,0,2.14.17,2.74-.36a20.77,20.77,0,0,0,1.49-1.85,7.43,7.43,0,0,1,2.47-2.09,5.8,5.8,0,0,1,2.67-.69l1.8,0c.2,0,.53-.32.19-.31Z"/><path class="cls-10" d="M117.46,160.29a5,5,0,0,0,1.33.18,7.55,7.55,0,0,0,3.2-.39,6.12,6.12,0,0,0,2.43-1.94,4.09,4.09,0,0,0,.69-1,5.29,5.29,0,0,0-.88.89,6.83,6.83,0,0,1-2.38,1.79,8.44,8.44,0,0,1-3.08.46A6.39,6.39,0,0,0,117.46,160.29Z"/><path class="cls-10" d="M118,161.94a2.9,2.9,0,0,0,1.21.23,10,10,0,0,0,1.34,0,4.23,4.23,0,0,0,1.6-.39,7.38,7.38,0,0,0,1.26-.94l.93-.85a3.88,3.88,0,0,0,.79-.83,4,4,0,0,0-1,.67c-.29.22-.62.48-1,.79a7.74,7.74,0,0,1-1.22.88,4.4,4.4,0,0,1-1.48.41q-.65.08-1.29.09C118.5,162,118,161.94,118,161.94Z"/><path class="cls-10" d="M118.89,163.85a10,10,0,0,0,3-.2,1.36,1.36,0,0,0,.62-.25,4.59,4.59,0,0,0,.44-.33,5.07,5.07,0,0,0,.66-.65c.33-.4.45-.7.41-.72s-.23.23-.6.57a7.45,7.45,0,0,1-.67.57,4.15,4.15,0,0,1-.43.3,1.16,1.16,0,0,1-.47.2c-.83.1-1.55.23-2.09.32A3.68,3.68,0,0,0,118.89,163.85Z"/></g></g></svg>