<?xml version="1.0" encoding="utf-8"?>
<!-- Generator: Adobe Illustrator 26.0.1, SVG Export Plug-In . SVG Version: 6.00 Build 0)  -->
<svg version="1.1" id="Layer_1" xmlns="http://www.w3.org/2000/svg" xmlns:xlink="http://www.w3.org/1999/xlink" x="0px" y="0px"
	 viewBox="0 0 292.9 302" style="enable-background:new 0 0 292.9 302;" xml:space="preserve">
<style type="text/css">
	.st0{clip-path:url(#SVGID_00000003796185419085015290000013971129138095768720_);}
	.st1{fill:#F2EBD1;}
	.st2{fill:#B98354;}
	.st3{fill:#2F1644;}
	.st4{fill:#5F3A89;}
	.st5{fill:#513835;}
	.st6{fill:#443A1A;}
	.st7{fill:#A76227;}
	.st8{fill:#6C3716;}
	.st9{fill:#050606;}
	.st10{fill:#151210;stroke:#231F20;stroke-width:0.31;stroke-miterlimit:10;}
	.st11{fill:#4F2E25;}
	.st12{fill:#151210;}
	.st13{fill:#231F20;}
	.st14{fill:#1D170F;}
	.st15{fill:#13110F;}
	.st16{fill:#F79224;}
	.st17{fill:#662616;}
	.st18{fill:#825639;}
	.st19{fill:#628E9F;}
	.st20{fill:#506169;}
	.st21{fill:#131429;}
	.st22{fill:#27153C;}
	.st23{fill:#C6C6C5;}
	.st24{fill:#653C2A;}
	.st25{fill:#040404;}
	.st26{fill:#7B4B29;}
	.st27{fill:#31160E;}
	.st28{fill:#F1EEF7;}
</style>
<g id="Layer_12">
	<g>
		<defs>
			<path id="SVGID_1_" d="M192.7,35.2c-6.6-27-33.8-43.6-60.8-37C112.7,2.9,98,18.3,94.3,37.7C30.6,66.4,2.4,141.4,31.2,205.1
				s103.7,91.9,167.4,63.1s91.9-103.7,63.1-167.4C248.1,70.8,223.3,47.2,192.7,35.2z"/>
		</defs>
		<clipPath id="SVGID_00000078036266273754018500000008180954536368229526_">
			<use xlink:href="#SVGID_1_"  style="overflow:visible;"/>
		</clipPath>
		<g style="clip-path:url(#SVGID_00000078036266273754018500000008180954536368229526_);">
			<circle class="st1" cx="146.3" cy="153.3" r="126.5"/>
			<path class="st2" d="M159.6,224.2c2.4,3.1,1.2,3.2,3.1,6.6c0.4,0.7,2.8,0.7,3.2,1.4c0,0,3.3,1.7,3.3,1.7c3.3-2.3,9-9,16-17.5
				l7.9-10.9c9.3-11.1,9.8-11.4,9.4-17.2s-1.6-6.3-1.6-6.3c-4.2-0.1-17.2,4.6-21.3,10.1l-4.1,4.2l-18,25.4
				C158.1,222.4,159.1,223.4,159.6,224.2z"/>
			<path class="st2" d="M160.8,223.7c1.6-2,0.9-4.1,2.2-6.2l-5.7-4.2c-8.2-6.4-36.9-23.7-36.9-23.7l-6.7,7.7
				c0,0,21.6,24.4,37.2,33.1C158.9,231.6,158.9,226.1,160.8,223.7z"/>
			<path class="st2" d="M178.3,223.9c0,0-2.9,9.9-9.1,12.4s-14.3-2.1-14.3-2.1l8-15.9L178.3,223.9z"/>
			<path class="st2" d="M146.9,187.3c5.4-0.3,13.4,6.3,18.8,5.9l1.6-45.6c-14.5,0-20.2,0.9-31.9-0.2c-0.7,8.8-0.1,31.9,0.4,36.3
				C139.5,183.5,143.2,187.5,146.9,187.3z"/>
			<path class="st2" d="M156.9,194.9c-4.1,4.7-3.7,13.2-7.9,17.8c17.2,12.1,40.6,11.3,65.2,23.1l4.5-15.3l-56.3-34.6
				C161.1,187.4,158.2,193.4,156.9,194.9z"/>
			<path class="st2" d="M135,173.6c0,0-4.1,15.2-1.3,24.5c2.3,7.7,16.9,15.7,16.9,15.7l11.3-24.5L135,173.6z"/>
			<path class="st3" d="M174.6,190.7l-10.2,17.6c0,0,8.1,7.2,12.3,14.4c0,0,10.1-10.5,17.4-9.9c5.9,0.5-1.2-22.1-7.3-28.4
				C185.6,183.1,178.8,185.4,174.6,190.7z"/>
			<path class="st4" d="M179.3,219.8c-0.9-1.2-1.7-2.5-2.2-3.9c-0.8-1.4-1.8-2.7-2.9-3.8c-2.1-2.4-4.3-4.7-6.6-6.8
				c-0.3-0.3-1.8,0.3-1.6,0.6c2.3,2.1,4.6,4.4,6.6,6.8c1.2,1.2,2.1,2.5,2.9,4c0.5,1.3,1.2,2.6,2.1,3.7
				C178.1,220.7,179.6,220.1,179.3,219.8L179.3,219.8z"/>
			<path class="st5" d="M188.3,209.9L188.3,209.9l0.1-0.1L188.3,209.9z"/>
			<path class="st5" d="M201.7,257.8L201.7,257.8l-0.1-0.2L201.7,257.8z"/>
			<path class="st5" d="M183.1,217.3L183.1,217.3l0.1-0.2L183.1,217.3z"/>
			<path class="st6" d="M229.1,174.5l-5-0.8l-0.9,4.9l8.5,2.3C230.4,179,229.5,176.8,229.1,174.5z"/>
			<path class="st6" d="M229,166.9l-2.6-0.6l-0.4-0.1c-0.2,0-0.4,0-0.5,0.1c-0.1,0.1-0.1,0.2,0,0.3c0,0,0.1,0,0.1,0.1l2.6,0.6
				l0.4,0.1c0.2,0,0.4,0,0.5-0.1C229.2,167.1,229.2,167,229,166.9C229.1,166.9,229,166.9,229,166.9z"/>
			<path class="st7" d="M228.7,165.2l-1.9-0.5l-0.3-0.1c-0.2-0.1-0.4,0-0.5,0.1c-0.1,0.1-0.1,0.2,0,0.3c0,0,0.1,0,0.1,0l1.9,0.5
				l0.3,0.1c0.2,0.1,0.4,0,0.5-0.1C228.9,165.5,228.9,165.4,228.7,165.2C228.8,165.3,228.7,165.3,228.7,165.2z"/>
			<path class="st6" d="M229.9,164.2l-2.6-0.6l-0.4-0.1c-0.2,0-0.3,0-0.5,0.1c-0.1,0-0.2,0.1-0.1,0.2l2.6,0.6l0.4,0.1
				c0.2,0,0.3,0,0.5-0.1C229.9,164.4,230,164.2,229.9,164.2L229.9,164.2z"/>
			<path class="st7" d="M229.5,162.5l-1.9-0.5l-0.3-0.1c-0.2-0.1-0.4,0-0.5,0.1c-0.1,0.1-0.1,0.2,0,0.3c0,0,0.1,0,0.1,0.1l1.9,0.5
				l0.3,0.1c0.2,0.1,0.4,0,0.5-0.1C229.7,162.8,229.7,162.6,229.5,162.5C229.6,162.5,229.5,162.5,229.5,162.5z"/>
			<path class="st7" d="M225,169.7c0.3-0.1,0.6-0.1,0.9-0.2c0.1,0,0,0,0,0h0.2c0.1,0,0.2,0.1,0.4,0.2c0.2,0.2,0.4,0.4,0.5,0.6
				c0.2,0.6,0.1,1.2-0.3,1.6c-0.2,0.2-0.4,0.3-0.6,0.3c0,0-0.1,0-0.1,0l0,0l0,0l-0.2-0.1l-1-0.3c-0.1,0-0.2,0-0.2,0
				c0,0-0.1,0.1,0,0.1l1,0.3c0.1,0.1,0.3,0.1,0.4,0.1c0.9,0,1.6-0.8,1.6-1.6c0-0.1,0-0.2,0-0.3c-0.1-0.6-0.6-1.1-1.2-1.2
				c-0.2,0-0.4,0-0.6,0.1l-0.5,0.1c-0.1,0-0.2,0.1-0.2,0.1S225,169.6,225,169.7L225,169.7z"/>
			<path class="st6" d="M225.1,170.9c0,0.2,0.1,0.5,0.4,0.5c0.2,0,0.3,0,0.5,0c0.2,0,0.3-0.1,0.4-0.2c0.2-0.2,0.2-0.5,0.1-0.7
				c-0.2-0.2-0.4-0.3-0.7-0.2c-0.2,0-0.4,0.1-0.5,0.2C225.1,170.6,225.1,170.8,225.1,170.9C225.1,170.9,225.1,170.9,225.1,170.9
				c0.1,0,0.2,0,0.2,0c0.1,0,0.1,0,0.2-0.1c0,0,0.1,0,0.1-0.1c0-0.1,0-0.2,0.1-0.3l0.1-0.1l0,0l0,0l0,0h-0.1l0,0l0,0l0,0
				c0,0,0.1,0,0.1,0c0.1,0,0.1,0.1,0.2,0.2c0.1,0.2,0.1,0.4,0,0.5c0,0,0,0.1-0.1,0.1l0,0l0,0c-0.2-0.1-0.3-0.3-0.3-0.5
				c0,0-0.1,0-0.1,0c-0.1,0-0.1,0-0.2,0c-0.1,0-0.1,0-0.2,0.1C225.2,170.8,225.1,170.9,225.1,170.9z"/>
			<path class="st8" d="M225.9,168.2c1.5,0.1,2.6,1.4,2.5,2.9c0,0,0,0.1,0,0.1c-0.1,0.7-0.5,1.4-1.1,1.8c-0.5,0.4-1.1,0.5-1.7,0.4
				l-1.2-0.4c-0.1,0-0.4,0.2-0.2,0.2l1.3,0.4c0.7,0.1,1.3,0,1.9-0.4c1.4-0.8,1.9-2.5,1.1-3.9c0-0.1-0.1-0.1-0.1-0.2
				c-0.5-0.7-1.4-1.2-2.3-1.2C225.8,168,225.6,168.2,225.9,168.2L225.9,168.2z"/>
			<path class="st6" d="M237.2,137c-0.2,2.7-0.7,5.4-1.6,8c-1.1,3.6-2.4,7.1-3.8,10.6c-1.1,2.7-2,5.5-2.7,8.3
				c-0.6,3.2-0.8,6.5-0.4,9.7c0.1,2.4,1,4.7,2.4,6.7c0.1,0.2,0.8-0.1,0.7-0.2c-1.4-1.8-2.2-4-2.4-6.2c-0.4-3.2-0.3-6.5,0.3-9.7
				c1.5-6.4,4.6-12.3,6.5-18.6c0.8-2.7,1.8-5.7,1.8-8.6C237.9,136.7,237.2,136.9,237.2,137L237.2,137z"/>
			<path class="st9" d="M197.8,160.9c-2,0.8-4.2,1.1-6.2,1.9c-2.2,0.7-3.9,2.4-4.6,4.6c-0.3,1.2-0.3,2.4-0.1,3.6
				c0.3,2,0.7,3.9,1.3,5.8c0.1,0.4,0.3,0.7,0.6,1c0.6,0.5,1.5,0.1,2.1-0.2c1.5-0.8,2.9-1.7,4.3-2.6c2.1-1.4,4.3-3.2,5-5.8
				c0.6-2.3-0.1-4.7-0.8-6.9"/>
			<path class="st10" d="M220.5,177.8c0-0.5,0.9-1.2,0.2-1.4c-6.3-1.8-11.5-5.7-16.3-9.9c-3.3-2.8-7.1-5.4-9.6-9s-2.3-8.3-1.4-12.3
				c1.4-6.1,4.5-11.7,8.9-16.2c4.8-4.5,9.8-5.4,17.4-4.7c10.3,0.9,22.4,8.5,24.5,19c1,5.1,0.6,10.5-0.1,15.6
				c-0.7,6.1-1.5,13.6-6.8,17.6C232.5,179.9,226,179,220.5,177.8z"/>
			<path class="st2" d="M194.1,150.6c0.2-0.1,0.3-0.3,0.4-0.5c0.3-0.9,0.5-1.9,0.6-2.9c0.3-1.4,1.1-4,1.5-5.4c0,0,0.6-1.6,0.6-1.6
				c2.8-6.5,5.5-8,5.5-8c5.3-4.4,12.5-5.7,19-3.4c7.7,2.6,13.2,9.5,15.3,15.4c1.1,2.9,1,6.1-0.1,9c-1.1,2.7-2.5,5.2-4,7.6
				c2.7,0.7,4.7,2.2,2.1,6.9c-3.5,6.4-8.5,6.4-9.5,3.3c-1.4,0.3-3.1,3.4-3.7,4.8c-1.1,2.7-2.4,7.3-1.8,10.1l2.4,4.4
				c-3.6,3.1-16.7,18.3-22,19.6c-4.9,1.2-5.8-0.6-9.6-5.2c-2.1-2.6-0.1-16.9-1.4-22.1l8.1-2.7l1-3.1c-0.8-0.3-1.7-0.6-2.4-1.1
				c-5.7-3.6-5.4-12.4-4.8-15.7c0.6-2.8,1.4-7,2.8-9.2L194.1,150.6z"/>
			<path class="st4" d="M240.5,237.5c-0.3-1,0.1-10.3-1.5-18.4c0,0,1.9,0.4,2,0.4c0-2.6-4.4-2.4-4.2-4.9c0.2-2.4,0.4-4.8,0.7-7.1
				s0.6-4.9,1.2-7.2c0.7-3,0.8-4.1,1.4-7.1c-1.5-1.3-7.7-6.2-9.8-7.3c-4.3-2.2-5.9-3.9-9.7-5.4c0,0-7,9.1-15.3,10.2l-1.9,12.1h-1.5
				l0.3-12c-3.1-0.4-4.9-3.2-6-6.2c-0.3-1.4-0.2-2.9,0.4-4.2c-4.1,0.5-8.1,1.7-11.9,3.6c-7.9,12.7-8.1,31.5-8.1,46
				c0,0.1,0,0.2,0,0.2c0,2.4,0,5,0,7.5c-0.9,17.3-6.2,132.6-6.4,137.9c4.1-0.2,4.7,3,11.6,2.8s6.8-2.7,10.7-2.5s9.2,3.1,15.9,0.4
				s11-3.6,16.1-0.9s6.1,2.5,13.7,0s8.2,3.1,13.4-0.9C249.9,358.1,240.8,238.6,240.5,237.5z"/>
			<path class="st11" d="M198.6,176.8c4.9,1.8,10.2,2,15.2,0.7c0,0-1.5,1.9-6.7,2.1c-3,0.1-6-0.4-8.8-1.6L198.6,176.8z"/>
			<path class="st12" d="M229.3,164.5c0,0,0-0.1,0.1-0.1c0.6-0.9,1.4-1.5,2.4-2c0.5-0.2,1-0.4,1.5-0.5c0.5-0.1,1.1-0.1,1.6,0
				c0.7,0,1.5,0.3,2.1,0.7l0.3,0.3c3.7-5.3,6.6-11.2,4.6-19.8c-0.6-2.5-3.1-5.8-3.8-6.9c-4.6-6.4-9.9-8.4-16.7-10
				c-7.9-1.8-16.7,0.8-21,8c-1,1.7-3.1,4.1-3.6,6c0,0,5.1-7.8,9.5-8.8s4,2.5,9.2,4.3c6,2.1,9.1-0.6,13.2,3.6c2.2,2.2,3.5,5,3.7,8.1
				c-0.2,2.9,0.4,5-1.3,7.8c-0.4,0.7-0.8,1.3-1.2,2c-0.6,1.3-1,2.6-1.3,4c-0.1,0.7,0,1.4,0.4,2C229.6,164,228.6,164.6,229.3,164.5z"
				/>
			<path class="st13" d="M229.8,164.6c1.3-2.4,5.2-3.3,7.2-1.4c0.2,0.1,0.5,0.1,0.7-0.1c3.2-4.5,5.5-9.5,5.3-15.1
				c0-2.8-0.7-5.6-2-8.1c-1.3-2.2-2.8-4.3-4.5-6.2c-3.6-4-8.4-6.1-13.5-7.3s-10.3-1.2-15.1,0.9c-2.6,1.2-4.9,2.9-6.7,5.1
				c-1,1.2-1.8,2.6-2.7,3.9c-1,1.2-1.7,2.6-2.2,4.1c-0.1,0.4,0.7,0.3,0.8,0.1c1.7-2.7,3.9-5.2,6.4-7.2c1.7-1.2,4.1-2.2,6-0.9
				c1.6,1.1,2.8,2.5,4.6,3.4c2.3,1,4.7,1.5,7.1,1.5c2.2,0.1,4.2,0.2,6,1.6c2.1,1.7,3.6,4.1,4.3,6.7c0.3,1.5,0.4,3,0.3,4.5
				c0.1,1.6-0.2,3.2-0.8,4.6c-0.9,1.6-1.7,3.1-2.4,4.8c-0.6,1.2-0.7,2.6-0.4,3.9c0.1,0.3,0.3,0.1,0.3,0.7c0,0.2-0.2,0.4-0.2,0.6
				s0.3,0.3,0.6,0.3c0.4,0,0.9-0.6,0.3-0.7c0.4,0,0.1-0.9,0-1c-0.3-0.6-0.4-1.3-0.4-1.9c0.3-1.8,1-3.6,2-5.1
				c0.7-1.1,1.3-2.4,1.6-3.7c0.2-1.4,0.2-2.8,0.2-4.2c0-4-1.9-7.8-5.2-10.2c-1.6-1-3.6-1.6-5.5-1.5c-2.9-0.1-5.8-0.4-8.4-1.9
				c-1.6-0.9-2.7-2.6-4.4-3.3c-1.7-0.5-3.5-0.3-5,0.6c-3.3,1.8-6,5.1-8,8.2l0.8,0.1c0.4-1.4,1.1-2.6,2-3.8c0.8-1.1,1.5-2.2,2.2-3.3
				c1.5-2.1,3.5-3.8,5.8-5c4.8-2.5,10.1-2.6,15.2-1.3c4.7,1.2,9.2,3,12.7,6.6c1.5,1.6,2.9,3.4,4.1,5.3c1.5,2.2,2.4,4.8,2.7,7.5
				c0.6,6.1-1.6,11.6-5.1,16.5l0.7-0.1c-2.5-2.2-7.2-1-8.8,1.9C228.7,164.9,229.6,164.9,229.8,164.6z"/>
			
				<ellipse transform="matrix(6.836351e-02 -0.9977 0.9977 6.836351e-02 35.0044 336.278)" class="st13" cx="197.6" cy="149.4" rx="1.7" ry="1.7"/>
			<path class="st12" d="M196.1,147.4c1.2-0.3,2.5-0.1,3.7,0.4c2.5,1,2.6,4.6,2.6,4.6c-0.4-1.7-1.5-3.1-3-3.9
				c-1.4-0.4-3-0.5-4.4-0.3C195.2,147.8,195.6,147.5,196.1,147.4z"/>
			<path class="st13" d="M233.6,167.4c0.6-0.7,0.9-1.5,0.9-2.4c0-0.2,0-0.4-0.2-0.5c-0.2-0.1-0.5-0.1-0.7,0
				c-0.5,0.1-0.9,0.3-1.4,0.6c-0.9,0.6-1.8,1.2-2.6,2c-0.1,0.1,0.1,0.2,0.2,0.2c0.2-0.1,0.4-0.1,0.6-0.1c0.3,0.1,0.3,0.5,0.2,0.8
				c-0.3,0.8-1.1,1.2-1.9,0.9c0,0,0,0,0,0c-0.1,0-0.2,0-0.3,0.1c-0.1,0.1-0.1,0.1,0,0.2c1,0.4,2.2-0.2,2.6-1.2
				c0.1-0.4,0.1-0.9-0.3-1c-0.3-0.1-0.7-0.1-1,0l0.2,0.2c0.7-0.6,1.4-1.2,2.2-1.7c0.4-0.3,0.8-0.5,1.3-0.6c0.2-0.1,0.4-0.1,0.6-0.1
				c0,0,0,0,0.1,0c-0.1-0.2,0,0.1,0,0.2c0,0.9-0.3,1.8-0.9,2.4c-0.1,0.1,0.1,0.1,0.1,0.1C233.4,167.5,233.5,167.4,233.6,167.4
				L233.6,167.4z"/>
			
				<ellipse transform="matrix(6.836351e-02 -0.9977 0.9977 6.836351e-02 45.3023 358.4897)" class="st14" cx="214.6" cy="155" rx="1.7" ry="1.7"/>
			<path class="st12" d="M209.6,154.6c0,0,3.5-2.6,6.3-1.4c3.8,1.6,4,3.1,4.4,4.7c-1.1-1.8-2.8-3.2-4.7-4
				C212.9,152.8,209.6,154.6,209.6,154.6z"/>
			<path class="st10" d="M235.4,155.8c1-2.1,1.7-4.4,2.1-6.7c0.4-3.1-0.1-6.3-1.6-9.1c-1.2-2.4-2.9-4.5-4.9-6.2
				c-3-2.1-4.4-3.6-11.1-4.7c-2.8-0.5-3.1-1-6-0.8l-4.6,1.3c-0.2,5.4,14.2,19.4,19,23.4c-0.5,2.1-0.9,4.3-1.2,6.5
				c-0.2,1-0.2,2,0.1,3c0.3,1.4,1,2.4,2,2.2s2.6-2.6,3.2-3.3C233.6,159.7,234.7,157.8,235.4,155.8z"/>
			<path class="st15" d="M212.5,147.7c0-0.1,0.2,0,0.2-0.1c2.2,0.2,4.4,0.8,6.4,1.7c0.6,0.4,1.1,0.9,1.6,1.4c0.5,0.6,1,1.3,1.3,2
				c0.1,0.4-0.9-0.6-0.9-0.6c-0.2-0.2-0.4-0.3-0.6-0.5c-1.2-0.9-2.6-1.6-4.1-2.1c-1.5-0.2-3.1-0.3-4.6-0.1
				C212,148.9,212.3,148.3,212.5,147.7z"/>
			<path class="st15" d="M204.3,145.2c0-0.1-0.2-0.1-0.1-0.2c-1.7-1-3.5-1.7-5.5-2c-0.6,0-1.3,0.1-1.9,0.4c-0.7,0.2-1.4,0.6-2,1
				c-0.3,0.4,0.9,0,0.9,0c0.2,0,0.5-0.1,0.7-0.1c1.3-0.1,2.7,0,4,0.4c1.2,0.6,2.4,1.4,3.4,2.3C204,146.4,204.1,145.8,204.3,145.2z"
				/>
			
				<ellipse transform="matrix(0.9033 -0.4289 0.4289 0.9033 -42.6454 113.4701)" class="st16" cx="230.4" cy="151.4" rx="4" ry="1.5"/>
			<path class="st9" d="M233,171.9c-2,0.8-4.2,1.1-6.2,1.9c-2.2,0.7-3.9,2.4-4.6,4.6c-0.3,1.2-0.4,2.4-0.1,3.6
				c0.3,2,0.7,3.9,1.3,5.8c0.1,0.4,0.3,0.7,0.6,1c0.6,0.5,1.5,0.1,2.2-0.2c1.5-0.8,2.9-1.7,4.3-2.6c2.1-1.4,4.3-3.2,5-5.8
				c0.6-2.3-0.1-4.7-0.8-6.9"/>
			<path class="st9" d="M194,175.2c0.2,1.8-0.1,3.6-0.7,5.3c-0.7,2.2-2.4,4-4.5,4.9c-1.5,0.6-3.2,0.6-4.7,0c-0.2,0-0.4-0.1-0.5-0.3
				c-0.1-0.1-0.2-0.3-0.2-0.5c-0.8-3.2-1.7-5-0.5-8.1c0.4-0.9,1-1.8,1.6-2.6c1-1,3-1.1,4.4-1.4"/>
			<path class="st9" d="M187.6,184.3c0.1,1.8-0.1,3.6-0.6,5.3c-0.6,1.8-1.9,3.2-3.6,3.8c-1.3,0.4-2.6,0.4-3.9-0.1
				c-0.1,0-0.3-0.1-0.4-0.2c-0.1-0.1-0.1-0.2-0.2-0.4c-0.7-2.6-1.5-4-0.5-6.4c0.2-0.5,0.5-0.9,0.8-1.2c1.2-0.9,2.6-1.5,4.1-1.8"/>
			<path class="st9" d="M181.5,193.6c-0.1,1.6-0.3,4.7-1.8,5.2s-3,0.7-4.4,1.5c-0.9,0.6-1.8,1.4-2.5,2.3c0.2-2.4,0.7-4.8,1.3-7.2
				c0.5-1.2,1.3-2.3,2.2-3.2c1-0.6,2.2-0.9,3.4-1.1c0.6,0-0.5,0.3,0,0.5s0.4,0.6,0.3,1.2"/>
			<path class="st15" d="M200.1,156.9c-0.2,0.3-0.5,0.6-0.8,0.9c-0.3,0.4-0.6,0.8-0.7,1.3c0,0.5,0.2,1,0.5,1.4
				c0.1,0.2,0.3,0.4,0.5,0.5c0.3,0.2,0.7,0.4,1,0.5c0.8,0.3,1.6,0.5,2.5,0.4c0.2,0,0.2-0.2,0-0.2c-0.7,0-1.4-0.1-2.1-0.3
				c-0.6-0.1-1.2-0.5-1.6-0.9c-0.2-0.2-0.3-0.5-0.4-0.7c-0.1-0.2-0.1-0.4-0.1-0.6c0.1-0.5,0.3-0.9,0.6-1.2c0.2-0.3,0.6-0.6,0.8-1
				C200.4,156.8,200.1,156.8,200.1,156.9L200.1,156.9z"/>
			<path class="st15" d="M206.5,160.9c0.5,0.1,0.3,0.9,0.2,1.3c-0.1,0.2-0.2,0.4-0.4,0.6c-0.2,0-0.4,0-0.5,0c-0.2,0-0.4,0-0.6-0.1
				c-0.4-0.2-0.7-0.4-1.1-0.7c0,0-0.1,0-0.2,0s-0.1,0.1-0.1,0.1c0.3,0.3,0.7,0.5,1.1,0.7c0.4,0.1,0.8,0.2,1.3,0.1
				c0.3-0.1,0.6-0.3,0.8-0.6c0.1-0.3,0.2-0.5,0.2-0.8c0-0.3,0-0.6-0.4-0.7c-0.1,0-0.2,0-0.2,0c0,0-0.1,0.1,0,0.1L206.5,160.9z"/>
			<path class="st15" d="M220.3,157.8c0.6,0.4,1.4,0.2,1.8-0.4c-1.2-0.2-2.4-0.8-3.3-1.6L220.3,157.8z"/>
			<path class="st15" d="M194.1,148.3c0,0-0.9,0.1-1-1.2c0,0,0.8,0.8,3,0.3L194.1,148.3z"/>
			
				<ellipse transform="matrix(0.3401 -0.9404 0.9404 0.3401 -1.7275 292.9653)" class="st17" cx="207.9" cy="147.7" rx="0.8" ry="0.6"/>
			<path class="st18" d="M133.5,48.8C133.5,48.8,133.5,48.8,133.5,48.8C133.5,48.8,133.5,48.8,133.5,48.8z"/>
			<path class="st19" d="M149.4,164.9c2.7-0.1-1.7-3,1-3.2c0.2-0.3-1.8,12.4-1.3,12.4c4.5,0.1,7.8,2.7,23.8-1
				c0.6-16.5-0.9-46.3-2.9-54.3c-3.3-13.3-28.6-25.1-30.4-25.8c0,0,2.7,48.8,8.8,67.4C148.7,161.9,149.1,163.4,149.4,164.9z"/>
			<path class="st20" d="M35,239.5c-1.1,7.2-1.7,14.4-1.6,21.6c0.2,13.4,3.3,25.3,7.3,37.9l9.4,58.5c0,0,0,25.4-2.9,46.4
				c-2.5,18.2,3.9,50.9,3.9,50.9l7,1.2c6.4,1.1,12.8,1.3,19.2,0.6l13.8-1.4l13-107.7l9.5-66l13-39.6l-87.9-20.2
				C37.2,227.5,35.9,233.5,35,239.5z"/>
			<path class="st20" d="M137.5,238.1l-9,118c0,5.1-2.3,9.7-4.9,34.2l-5,41.8l-1.8,18.2l-4,0.6c-5.5,1-11.1,1.3-16.7,0.9L84,451.5
				l13.6-209.7L137.5,238.1z"/>
			<path class="st2" d="M117.8,54c0,0-2.4,11.3-4.8,17.2c-2,5-5.8,8.9-10.8,11l28.7,34.5l17.3-16.7c0,0-5.3-8.3-5-10.1
				s4.1-11.6,4.1-11.6"/>
			<path class="st19" d="M150.5,199.6l0.6-2.4c-0.1,0,0.2-1.1,0.1-1.1l14.6-59.6l-0.3-20.4c0,0-4.2-8.6-4.5-10l-16.3-13.5
				c0,0-0.8,0.7-4.7,6.7c-1.7,2.6-1.9,12.3-5.3,12c-0.6-6.2-3.2-12-7.4-16.5c0,0-18.1-12.1-18.1-15.9c-7.6,1.1-32.1,5.2-38.2,9.4
				c-7.2,4.9,5.9,24.8,11.7,36.4l-21.7-3.2c0,0-3.5,28.2-9.5,48.2c-0.2,0.7-2.3,9-2.6,9.8c-0.7,2.4-1.1,5.4-1.7,7
				c0.2,0-2.3,8.9-3,11.3c-3.2,14.5-9.4,25.2-9.9,31.8c-0.7,8.3,51.8,23.8,71.4,26.2c19.3,2.4,32.9,6.2,38.5-24.3h0.1
				C146.6,218.3,147.2,217.3,150.5,199.6z"/>
			<path class="st21" d="M168.4,131.1c-5.6,14.1-7.9,29.2-12,43.8c-0.1,0.3,0.6,0.2,0.7-0.1c4-14.6,6.4-29.6,11.9-43.7
				C169.2,130.8,168.5,130.8,168.4,131.1L168.4,131.1z"/>
			<path d="M115.1,272.2c-5.4,3.8-8.2,10.1-9.2,16.5c-0.7,4.4-0.5,8.8-0.7,13.2l-0.8,14.1l-2.4,44.1c-0.3,6-1,12-1.7,18l-5,45.1
				l-3.5,32l-0.1,0.5c-0.1,0.6,1.7,0.3,1.8-0.2l2.9-26.7l5.1-46.3c0.7-6.5,1.7-13,2-19.5l2.2-41.3l1-18c0.4-8.1-0.2-16.6,3.5-24.1
				c1.4-2.9,3.6-5.5,6.2-7.4c0.3-0.2,0.1-0.5-0.2-0.6C115.8,271.7,115.4,271.9,115.1,272.2L115.1,272.2z"/>
			<path class="st11" d="M144,88.3c-3.5-1.1-6.8-2.7-9.9-4.7c-7-4.9-13.7-17.6-13.7-17.6c0.1,4,1,7.9,2.6,11.5
				c2.7,6.3,4.6,8.1,9.2,9.7c2.2,0.7,7.3,2.8,10.9,3.2L144,88.3z"/>
			<path class="st2" d="M46.4,190.1c5.4,0.8,11.9,8.7,17.3,9.3l10.1-44.5c-14.3-2.7-20-2.9-31.3-6.2c-2.4,8.5-6.1,31.4-6.4,35.7
				C39.8,185,42.7,189.6,46.4,190.1z"/>
			<path class="st19" d="M74.1,160.6l9.4-29.8l2.7-46.6c0,0-21.3,0.6-29.8,15.6c-4.5,8-15.3,34-20.2,50.5
				C56.3,159.6,64.8,160.9,74.1,160.6z"/>
			<path class="st22" d="M80,92.2c4.6,1.6,6.6,7.5,7.2,11.9c0.4,3.8,0.3,7.6-0.3,11.4c-1.3,10.2-3.5,20.3-6.3,30.2
				c-1.4,5.1-3,10.3-4.8,15.3l0.5-0.3c-1.3,0.1-2.7,0.1-4-0.1c-0.4,0-1,0.5-0.3,0.6c1.4,0.2,2.8,0.2,4.2,0.1c0.2,0,0.4-0.1,0.5-0.3
				c3.4-9.8,6.2-19.8,8.4-30c1.1-5,2-10.1,2.7-15.1c0.6-3.8,0.7-7.7,0.4-11.6c-0.6-4.7-2.8-10.8-7.7-12.5
				C80.2,91.6,79.5,92.1,80,92.2L80,92.2z"/>
			<path class="st2" d="M122.8,15.5c0,0,5.6-7.5,17.2-6.9c8.7,0.5,24.2,6.2,29.3,10.9c4.4,4.1,6.8,10,6.6,16L122.8,15.5z"/>
			<path class="st18" d="M115.8,56.1C115.8,56.1,115.8,56.1,115.8,56.1C115.8,56.1,115.8,56.1,115.8,56.1z"/>
			<path class="st2" d="M132.5,83.1l11.1,3.1l5.9,0.5c0.6,0.2,4.8-4.7,5.4-5.3c2.2-2,4.1-4.2,5.9-6.5c1.6-2.4,4-4.1,5.4-7.1
				c1-2.2,1.6-3.8,1.5-8c0-1,0.3-2.1,0.9-3c1.2-2,2.2-4.5,3.7-7.2c0.3-0.5,0.6-1,0.7-1.5c0,0,4.2-10.7,2.4-17.1
				c-1.3-4.9-2.1-7.8-5-9.6s-12.3-4.2-12.3-4.2l-12.2-6l-12.6,1.9l-9.8,11.6l-4.2,15.8l-2.8,14.4"/>
			<path class="st23" d="M120.9,23l0.2-0.7c0.6-2,2.7-4.3,5.8-6.7c0.9,0.6,1.8,1.1,2.8,1.5c-0.3,0.6-0.5,1.3-0.6,2l-5.9,21.4
				c-0.3,1.2-0.8,7.7-1,8.9l-6.1-2.1c-0.5-4.7-1.2-10.2-1.5-11.6C114.1,33.7,120,26.1,120.9,23z"/>
			<path class="st2" d="M148.8,84.9c-0.1,0-0.1-0.1-0.2-0.1c-0.9-1.2-0.9-1.6-1.4-2c-0.2-0.1-0.4-0.2-0.6-0.3
				c-1.6-0.8-2.5-1.3-7.9,0.1c-0.1,0-5.7-2.6-5.8-2.6l-2.5-2.4c-0.4-0.5-8.5-13.6-8.5-13.6c-0.1-0.4-1.3-3.3-1.3-3.6l-0.1-0.1h-0.1
				l0,0c-0.1,0.1-0.1,0.3-0.1,0.4c-0.2,0.6-0.2,1.2-0.2,1.8c0,0.9-0.1,1.8-0.2,2.7c0,0.3,0,0.7,0,1c1,1.2,5.8,14.2,9.7,18
				c1.1,0.7,2.3,1.3,3.6,1.8c4.5,2.1,9.3,3.3,14.3,3.6c1.3,0,2.6-0.5,3.5-1.5c2.4-2.8,7.9-9.1,10.2-13.7c-2.2,2.4-6.9,7.6-10.1,11.1
				c-0.7-0.1-1.4-0.2-2.1-0.4"/>
			<path class="st2" d="M117.3,56.9c-6.5,3.3-4.8-5.3-4.8-5.3c-2-5.3-0.5-9.8,0.6-12.8s4.4-1.8,4.4-1.8c2.7,1.3,3.5,3.2,2.6,13.6"/>
			<path class="st23" d="M129.5,18.7c-0.6,4.3-0.9,10.5-6,16.6c-2.6,3.1-2.7-3.8-5.2-2s-3.6,2.5-3.6,2.5c1.9-10.6,1.8-10.4,7.2-19.5
				L129.5,18.7z"/>
			<path class="st13" d="M118.4,47.8c-0.1-1.7-0.5-3.3-0.9-4.9c-0.2-0.8-0.6-1.5-1-2.2c-0.2-0.3-0.4-0.5-0.7-0.7
				c-0.3-0.1-0.7,0.2-0.9,0.5c-1,1.1-1.5,2.5-1.6,3.9c0,0.2,0.5,0.1,0.5-0.1c0.1-1.2,0.4-2.3,1.1-3.3c0.2-0.4,0.5-0.7,0.8-0.9
				l-0.4,0.1c0.3,0.2,0.5,0.4,0.7,0.6c0.7,1,1.1,2.1,1.3,3.3c0.3,1.3,0.5,2.5,0.7,3.8C118,48.1,118.5,48,118.4,47.8L118.4,47.8z"/>
			<path class="st13" d="M117.2,48c-1.8-0.7-1.8,2.3-2.2,3.3c0,0.1-0.2,0.2-0.2,0.3s0.1,0,0.1,0s-0.1,0-0.1-0.1s-0.1-0.2-0.1-0.3
				c-0.1-0.7-0.1-1.3,0-2c0.1-0.9,0.3-1.7,0.6-2.5c0.4-0.9,1.1-2.2,2.1-2.3c0.3,0,0.4-0.4,0-0.4c-1,0.2-1.8,0.9-2.2,1.9
				c-0.4,0.7-0.7,1.4-0.8,2.1c-0.2,0.8-0.3,1.7-0.3,2.6c0,0.3,0,1,0.3,1.3s0.7,0,0.8-0.3c0.2-0.3,0.3-0.7,0.3-1.1
				c0.1-0.5,0.2-1.1,0.4-1.6c0.2-0.4,0.3-0.8,0.8-0.6C117.1,48.5,117.5,48.1,117.2,48L117.2,48z"/>
			<path class="st12" d="M145.5,46.6c-0.6-0.5-1.4-0.6-2.1-0.3c-0.3,0.1-0.6,0.4-0.8,0.7c-0.3,0.5-0.4,1.2-0.1,1.8
				c0.3,0.7,1.1,1.1,1.8,1c0.9-0.1,1.6-0.9,1.7-1.9C146,47.4,145.9,46.9,145.5,46.6"/>
			<path class="st12" d="M165.6,53.7c1.1-0.1,2,0.8,2.1,1.9c0,0.1,0,0.1,0,0.2c-0.1,0.6-0.4,1.2-1,1.5c-0.7,0.4-1.5,0.2-2.1-0.3
				c-0.6-0.7-0.7-1.7-0.2-2.5C164.8,54,165.2,53.7,165.6,53.7"/>
			<path class="st12" d="M158.9,54.3c0,0,3.8-1.9,5.9-1.4c3.1,0.8,3.6,1.7,4.2,3.5c-0.9-1.3-2.2-2.2-3.7-2.6
				C163.3,53.4,158.9,54.3,158.9,54.3z"/>
			<path class="st12" d="M149.4,50.2c0,0-3.3-4.1-5.3-4.9c-3-1.1-7.2-0.5-8.7,0.6c0,0,5.6-1,7.7-0.2S149.4,50.2,149.4,50.2z"/>
			<path class="st23" d="M154,38.8c-0.2,0.8-0.3,1.5-0.5,2.3c-0.1,0.6-0.4,1.9-0.5,2.5c-1.7-0.9-3.1-1.9-4.2-2.4
				c-2.2-0.9-4.4-2-6.8-2.1c-1.1-0.1-2.2,0-3.2,0.4c-0.3,0.1-1.3,0.7-1.7,0.4c-0.2-0.1,0.3-1,0.4-1.1c1-1.7,2.7-2.2,4.7-2.2
				C146.2,36.6,150.2,37.4,154,38.8"/>
			<path class="st23" d="M173.7,47.7l-1.1-0.7c-3.1-2-6.6-3.4-10.3-4.1c-0.3,0.7-0.5,1.4-0.8,2.2c-0.2,0.5-0.6,1.5-0.8,2.1
				c1.7,0.1,3.3,0.1,4.4,0.2c2.2,0.2,4.4,0.8,6.4,1.8l1.1,0.7C173.6,49,173.9,48,173.7,47.7z"/>
			<path class="st23" d="M115.1,26.2c-0.4-0.3,0.8-0.4,0.5-0.9c-0.3-0.5-0.2-1.1,0.1-1.5c0.4-0.4,0.7-0.9,0.7-1.5
				c0.2-0.5,1.2-0.3,1-0.9c-0.3-1,0.8-1.8,1.7-2.2c-0.3-0.4,0.2-0.4,0.1-0.9c-0.2-0.5,0-1.1,0.5-1.4c0.3-0.1,0.6-0.2,0.9-0.3
				c0.9-0.4,1.1-1.4,1-2.4c0.3,0,0.6,0,0.9,0c0.4,0,0.8,0.1,1.2,0.3c0.1,0,0.1,0,0.2,0l-8.9,22c-0.5-0.1-0.9-0.4-1.3-0.7
				c-0.4-0.4-0.4-0.9-0.1-1.4c0.5-0.6,1.8-0.3,2-1.1c-0.4-0.9-2-1.1-2-2.1c-0.1-0.8,0.9-1.2,1.7-1.4c-0.3-0.6-0.3-0.1-0.9-0.5
				s-0.4-2,0.1-2.4S115.1,27,115.1,26.2z"/>
			<path class="st24" d="M147.9,31.1c0,0,12.5,2.3,20.1,6.7"/>
			<path class="st23" d="M129.2,17.3L129.2,17.3l0.2,0.1l0,0c0.2,0.1,0.4,0.2,0.6,0.4c0.2,0.1,0.4,0.3,0.6,0.4l0,0l0,0l0.1,0.1
				l0.3,0.3l0.2,0.3l0.1,0.1l0.1,0.1c0.1,0.1,0.1,0.2,0.2,0.3v0.1c-0.2,0.2-0.4,0.4-0.5,0.7c-0.2,0.7-0.4,1.3-0.7,1.9
				c-0.4,0.5-1.2,1-1,1.6c0.1,0.3,0.5,0.5,0.6,0.8c0.5,0.8-0.8,1.7-0.8,2.6c0,0.5,0.5,1,0.6,1.5c0.1,1.1-1.4,1.6-1.8,2.7
				s0.2,2.1-0.3,2.9c-0.3,0.4-0.8,0.7-1.1,1c-0.7,0.9-0.2,2.4-1,3.3c-0.3,0.3-0.7,0.5-1,0.7c-1.2,1.1-0.6,3.5-1.7,4.5l0.9-17.6
				L129.2,17.3z"/>
			<path class="st23" d="M120.8,49.2l1,0.4c0.1,0.1,0.2,0.1,0.3,0.1c0.3-0.1,0.2-0.5,0.2-0.7c0.1-0.7,0.5-1.2,1-1.7
				c0.5-0.4,0.7-1.1,0.6-1.8c-0.1-0.3-0.5-0.6-0.4-0.9s0.7-0.5,1-0.8c0.5-0.4,0.6-1.1,0.2-1.5c-0.1-0.1-0.1-0.2-0.2-0.2
				c0.7-0.6,1.2-1.4,1.2-2.3c0.2-1.7,0.2-3.6,0.2-3.6l-2-2.1L120.8,49.2z"/>
			<path class="st25" d="M134.4,42.5l0.1,2.5c0,2.4,0.3,4.8,0.9,7.1c0.4,1.6,9.8,5.1,12,4.6s4.9-5.6,5.8-6.7l3.7,1.4
				c-0.2,1.7-0.6,7.2,0,8.1s4.9,2.2,5.4,2.3s1,0.3,1.6,0.4c1.7,0.4,3.8,0.8,4.6,0.3c1.2-0.6,3.3-3.7,5.1-6.7l0.3-0.5l0.1-0.2l0,0
				l0.3-0.5c-4.7-4.3-12-6.2-17.3-4.3v0.1l-3.6-1.4c-3.3-4.1-10.1-7.9-15.9-7.5l0,0l-15.7-0.5l-0.5,1.4L134.4,42.5z M157.4,59.3
				c-0.3-0.6-0.1-4.5,0.1-7.4c4.6-1.5,11.2,0.2,15.5,3.8v0.1c-1,1.6-3.7,5.8-4.8,6.4C166.7,62.8,158,60.2,157.4,59.3L157.4,59.3z
				 M136.6,52.1c-0.8-3-1.2-6.2-1-9.3c5.2-0.6,13.3,3.2,16.6,7.1c-1.4,2-3.4,5.7-5,6.1C144.9,56.6,136.9,53.2,136.6,52.1L136.6,52.1
				z"/>
			<path class="st23" d="M139.1,66.2C139.3,66.1,139.1,66.2,139.1,66.2L139.1,66.2c0.3,0.1,0.6,0.2,0.8,0.2c0.4,0,0.8-0.1,1.2-0.3
				c0.1-0.1,0.2-0.2,0.3-0.2l0.1-0.1l0,0c0,0-0.4-0.1-0.4,0.1s0.2,0.2,0.2,0.2c0.2,0.2,0.3,0.3,0.5,0.4c0.5,0.2,1.1,0.2,1.6,0
				c0.1,0,0.4-0.1,0-0.1s-0.3,0-0.1,0.2c0.1,0.2,0.4,0.3,0.6,0.4c0.6,0.1,1.2,0.1,1.8-0.3c-0.1,0,0.4-0.2,0.4-0.2l-0.5,0.1l0.1,0.1
				c0.2,0.2,0.4,0.3,0.7,0.4c0.6,0.2,1.3,0.1,1.9-0.3c0.3-0.2,0.6-0.6,0.2-0.9c-0.5-0.2-1-0.1-1.4,0.2c0.5-0.4,1,0,0.6-0.3
				c-0.1-0.1-0.2-0.2-0.3-0.2c-0.2-0.2-0.5-0.2-0.8-0.2c-0.4,0-0.8,0.1-1.2,0.2c-0.2,0-0.3,0.1-0.4,0.2l-0.1,0.1h0.5
				c0-0.1-0.4-0.4-0.4-0.5c-0.3-0.2-0.6-0.3-0.9-0.3c-0.3,0-0.5,0.1-0.8,0.1c-0.1,0-0.2,0.1-0.3,0.1c0.1,0,0.2,0,0.2,0
				c0.1,0,0.1,0,0,0s-0.4-0.4-0.5-0.4c-0.2-0.1-0.5-0.2-0.7-0.3c-0.6-0.1-1.3,0.1-1.8,0.5c-0.1,0.1-0.2,0.2-0.3,0.3
				c-0.2,0.2-0.1,0.2,0.3,0c0.5,0,0.6-0.1,0.3-0.2c-0.2-0.1-0.5-0.1-0.8-0.1c-0.7,0-1.4,0.2-1.9,0.6c-0.3,0.2-0.6,0.6-0.1,0.9
				C138.1,66.7,138.6,66.6,139.1,66.2L139.1,66.2z"/>
			<path class="st23" d="M151.9,68.3c-0.1,0-0.2,0-0.4,0c0,0,0.1,0,0.1,0.1c-0.1-0.1,0.1,0.1,0.1,0.1s0.2,0.2,0.4,0.4
				c0.3,0.3,0.6,0.5,1,0.6c0.1,0,0.2,0,0.2,0.1s0,0,0,0c0.1,0.2,0.2,0.4,0.3,0.5c0.5,0.3,1.1,0.4,1.7,0.2c0.2,0,0.2,0,0,0
				c0.2,0,0.1,0-0.2-0.1c0,0,0-0.2,0,0c0,0.2,0.1,0.3,0.1,0.5c0.2,0.4,0.5,0.7,1,0.8c0.2,0,0.4,0,0.4,0.1s0,0.1,0,0.3
				c0,0.3,0.1,0.5,0.3,0.7l0.2,0.1h0.1c-0.1,0-0.1-0.1-0.1-0.2c-0.1,0.8,1.9,0.5,2-0.2c0-0.3-0.1-0.5-0.3-0.6
				c-0.1,0-0.1-0.1-0.2-0.1c-0.1-0.1,0,0.1,0,0c0-0.1,0-0.3,0-0.4c0-0.1-0.1-0.2-0.2-0.3c-0.2-0.2-0.4-0.3-0.7-0.4l-0.3-0.1
				c0,0-0.2-0.1-0.2,0c-0.1-0.1-0.1-0.2-0.2-0.4c0-0.5-0.4-0.9-0.9-0.9c-0.2,0-0.4,0-0.6,0l-0.4,0.1h-0.2h0.1c0.1,0,0.1,0,0.2,0.1
				c0,0-0.1,0-0.1-0.1c-0.1-0.3-0.2-0.5-0.5-0.7c-0.2-0.1-0.4-0.2-0.7-0.2c0.1,0-0.1-0.1-0.1,0L154,68c-0.1-0.1-0.3-0.3-0.4-0.4
				c-0.4-0.4-0.9-0.5-1.4-0.5c-0.4,0-1,0.3-1.1,0.7S151.6,68.3,151.9,68.3L151.9,68.3z"/>
			<path class="st23" d="M131.3,20.6c0.1-0.3,0.2-0.7,0.2-1c0-0.3-0.2-0.7-0.5-0.8c-0.1,0-0.3-0.1-0.4-0.2c-0.1-0.2-0.1-0.5,0-0.7
				c0.2-0.2,0.2-0.5,0.3-0.7c-0.1-0.5-0.6-0.6-1.1-0.6c-0.5,0.1-0.9,0.1-1.4-0.1c-0.6-0.3-0.5-1.2-1-1.6s-1.5-0.3-2.3-0.5
				c-0.3-0.1-0.7-0.2-1-0.3c-0.5,0-0.9,0.2-1.2,0.6c-0.3,0.4-0.5,0.8-0.6,1.3c0,0.2,0,0.3,0,0.5c0.1,0.2,0.3,0.3,0.6,0.4l7.7,2.9"/>
			<path class="st26" d="M148.4,70.5c-3.7-1.2-9.6-3.6-9.6-3.6s-1.8,9.2,6.8,11.9s10.9-5.7,10.9-5.7S152.1,71.7,148.4,70.5z"/>
			<path class="st27" d="M148.4,70.5c-1.8-0.6-7.8-2.8-7.8-2.8s-0.4,5.6,6,7.6c6.9,2.2,9.2-2.4,9.2-2.4L148.4,70.5z"/>
			<path class="st28" d="M148.4,70.8c-1.8-0.6-7-2.6-7-2.6s1.3,2.7,6.6,4.4s7.6,0.3,7.6,0.3L148.4,70.8z"/>
			<path class="st26" d="M158.8,72.8c-0.7-0.1-1.5-0.2-2.2-0.4c-1.4-0.6-2.2-1.3-3.2-1.7c-1.8-0.7-3.2-0.3-3.9-0.6s-1.7-1.4-3.6-1.8
				c-1.1-0.3-3.8-0.7-5.4-1c-0.7-0.2-1.4-0.5-2-0.9c-0.3,0-0.4,2.2,9.4,5.3S159.1,72.9,158.8,72.8z"/>
			<path class="st23" d="M149.1,66.9l-0.7,1.6c-0.1,0.2-0.4,0.4-0.6,0.4c-1.8-0.2-8.6-1-10.1-1.4c0,0,0,0.7-0.1,0.7l-0.4-0.1
				c-0.6-0.3,0.4-2.1,1-2.2c1.5-0.2,3-0.3,4.5-0.3c2,0,4.1,0.2,6.1,0.6c0.3,0.1,0.5,0.4,0.4,0.8C149.1,66.8,149.1,66.9,149.1,66.9z"
				/>
			<path class="st23" d="M151.1,67.9l-0.4,1.5c0,0.2,0.1,0.5,0.3,0.6c1.3,0.8,5.7,3.3,7,3.8h0.1h0.4c0.5,0.1,0.6-1.2,0.2-1.6
				c-0.8-0.8-1.7-1.6-2.7-2.3c-1.3-1-2.7-1.8-4.2-2.5C151.4,67.2,151.1,67.5,151.1,67.9z"/>
			<path class="st23" d="M158.3,72.7c0.2,0.9,0,1.8-0.6,2.6c-0.1,0.1-0.1,0.1-0.2,0.2c-0.1,0.1-0.3,0-0.4-0.1
				c-0.1-0.1-0.2-0.2-0.2-0.3c-0.3-0.7,0-1.5-0.2-2.2c-0.1-0.2-0.1-0.4,0-0.6s0.3-0.1,0.4-0.1l0.8,0.2"/>
			<path class="st23" d="M140.5,66.7c-0.7,0.3-1.3,0.7-1.7,1.3c-0.4,0.4-0.7,1-1.3,1.1c-0.2,0-0.3,0-0.5,0c-0.1,0-0.2,0-0.3-0.1
				c-0.1-0.1-0.1-0.2-0.1-0.3c0-0.4,0.1-0.9,0.4-1.2c0,0,0.1-0.1,0.1-0.2c0-0.1,0-0.1,0-0.2c-0.1-0.3,0-0.6,0.1-0.8
				c0.4-0.4,0.9-0.5,1.4-0.4c0.5,0.1,1,0.2,1.5,0.2"/>
			<path class="st19" d="M136.7,112.7c-0.3-0.6-10.9-14.9-10.9-14.9l-8.5,5.8l-3.3-2.9c-8.7-7.7-15.3-21.6-15.3-21.6l10.5-6.3
				c2.1,5.7,19.2,21.7,19.2,21.7l8.2,15.8l4.5-14.5c1.6-1.7,2.5-5.8,2.5-5.8l2.4,0.2l5.9,6.1c-1.1,7.4-3.7,8.7-3.7,8.7l-6.1-4.8
				c-1.7,3.8-3.6,7.6-5.1,11.5c-2.8,7.1-2.4,16.1-3.6,23.7c-2.6,17-2.8,34.8-8.2,51.1c0,0-8.1,28-10.1,35.7s-7.9,34.9-7.9,34.9"/>
			<path class="st22" d="M137.1,112.5c-0.6-0.9-1.2-1.8-1.9-2.6c-1.2-1.7-2.5-3.4-3.7-5c-1.8-2.4-3.6-4.8-5.3-7.2
				c-0.2-0.2-0.6-0.1-0.8,0l-8.5,5.7l0.7-0.1c-2.2-1.9-4.4-3.9-6.4-6c-3-3.4-5.7-7-8-10.9c-0.9-1.5-1.7-3-2.6-4.4
				c-0.4-0.9-0.8-1.8-1.4-2.7c-0.3-0.4,0.2-0.2-0.3,0c0.2-0.1,0.5-0.2,0.7-0.4l3.2-1.9l6.6-4l-0.8-0.1c1.2,3.2,3.9,5.9,6.1,8.4
				c2.9,3.2,5.9,6.3,8.9,9.3c1.1,1.1,2.2,2.1,3.2,3.2c0.4,0.3,0.7,0.6,1,1c0.5,0.8,1,1.7,1.4,2.6l2.6,4.9l4.3,8.2
				c0.2,0.4,0.9,0,0.9-0.2l3.2-10.5c0.3-1.4,0.7-2.7,1.2-4c0.2-0.3,0.6-0.7,0.8-1.1c0.4-0.7,0.7-1.5,1-2.2c0.3-0.8,0.5-1.6,0.7-2.5
				l-0.6,0.4c0.8,0,1.6,0,2.4,0.2c-0.4-0.1-0.2-0.1,0,0.1s0.5,0.5,0.7,0.7l4.2,4.4c0.2,0.2,0.5,0.4,0.6,0.6s-0.1,0.9-0.1,1.3
				c-0.3,1.6-0.7,3.1-1.4,4.6c-0.3,0.7-0.7,1.4-1.3,2c-0.1,0.1-0.6,0.5-0.5,0.5h0.6l-6.1-4.8c-0.3-0.1-0.7,0-0.8,0.2
				c-1.7,3.9-3.7,7.7-5.2,11.7c-1.2,3.3-1.9,6.8-2.2,10.3c-0.4,3.8-0.6,7.5-1.1,11.3c-0.5,4-1.1,7.9-1.6,11.9
				c-0.9,8.1-1.6,16.2-2.9,24.2c-1,6-2.4,11.8-4.2,17.6c-2.2,7.7-4.4,15.4-6.6,23.2c-2.1,7.5-4,15-5.8,22.6
				c-1.8,7.9-3.7,15.8-5.3,23.7c0,0.2-0.1,0.3-0.1,0.5c-0.1,0.5,0.9,0.3,1-0.1c1.5-6.8,3-13.7,4.6-20.5c1.7-7.6,3.5-15.2,5.6-22.7
				c2.3-8.4,4.8-16.9,7.2-25.3c1.2-4.2,2.5-8.3,3.4-12.5c1.5-8,2.7-16,3.4-24.1c0.8-7.8,2.1-15.6,2.8-23.4c0.2-3.7,0.6-7.4,1.2-11.1
				c0.9-4,2.2-7.8,4-11.4c0.9-1.9,1.8-3.8,2.6-5.7l-0.8,0.2l6.1,4.8c0.2,0.1,0.4,0.1,0.6,0c0.9-0.6,1.6-1.5,2.1-2.5
				c0.6-1.3,1.1-2.6,1.4-4c0.2-1,0.8-2.2,0.1-3c-1.5-1.6-3.1-3.2-4.6-4.8c-0.3-0.3-0.7-0.9-1.1-1.1c-0.8-0.2-1.7-0.3-2.6-0.2
				c-0.3,0-0.6,0.1-0.7,0.4c-0.2,1-0.5,1.9-0.9,2.9c-0.4,1.1-1.1,1.9-1.6,3c-0.5,1.3-0.9,2.7-1.3,4.1l-3.2,10.3l0.9-0.2
				c-2.7-5.1-5.2-10.3-8-15.4c-0.7-1.3-2.2-2.3-3.3-3.4c-3-2.9-5.9-5.9-8.7-8.9c-1.6-1.8-3.2-3.5-4.6-5.4c-1.1-1.3-2-2.8-2.8-4.3
				c-0.1-0.3-0.6-0.2-0.8-0.1l-10.4,6.2c-0.1,0.1-0.2,0.2-0.2,0.3c2,4.1,4.3,8.1,6.9,11.8c2.2,3.2,4.6,6.2,7.4,8.9
				c1.4,1.4,2.9,2.6,4.4,3.9c0.2,0.2,0.5,0,0.7-0.1l8.5-5.8h-0.8c1.8,2.4,3.6,4.8,5.3,7.2c1.2,1.7,2.5,3.3,3.7,5
				c0.7,0.8,1.3,1.7,1.9,2.6C136.4,113.2,137.4,112.9,137.1,112.5L137.1,112.5z"/>
			<path class="st22" d="M37.7,145.5c9,4.6,18.7,7.8,28.7,9.6c3.8,0.6,7.6,0.8,11.4,0.5c0.5,0,0.8-0.6,0.1-0.6
				c-7,0.7-14-0.8-20.7-2.7c-5.4-1.6-10.7-3.5-15.8-5.9c-1-0.4-2-0.9-3-1.4C38.1,144.9,37.3,145.3,37.7,145.5L37.7,145.5z"/>
			<path class="st19" d="M95.8,122.5c0,0,12.5,4.6,22.1,5.4c-0.3,1.1-0.2,3.6-1.8,3.9c-1.6,0.1-3.1,0-4.7-0.4
				c-1.6-0.3-3.1-0.7-4.7-1.1c-3.7-1-7.3-2-11-3.2c-1.1-0.3-1-0.4-0.8-1.3l0.4-1.8C95.4,124,95.8,122.5,95.8,122.5z"/>
			<path class="st22" d="M95.5,122.8c7.1,2.7,14.6,4.5,22.2,5.4l-0.3-0.2c-0.2,0.7-0.2,1.5-0.4,2.2s-0.5,1.3-1.4,1.4
				c-0.7,0-1.4,0-2.1-0.1c-2.9-0.5-5.8-1.2-8.7-2c-2.8-0.8-5.6-1.6-8.4-2.4c-0.5-0.2-1.1-0.2-1.1-0.8c0.1-0.7,0.2-1.4,0.5-2
				c0.2-0.6,0.3-1.2,0.4-1.8c0-0.4-0.8-0.2-0.8,0.1c-0.1,1-0.4,2.1-0.7,3.1c-0.2,0.9-0.3,1.3,0.6,1.7c3.5,1.3,7.2,2.2,10.8,3.1
				c1.8,0.5,3.6,1,5.4,1.3c1.4,0.4,2.8,0.5,4.2,0.4c2.2-0.3,2.2-2.5,2.6-4.2c0-0.1-0.2-0.2-0.3-0.2c-7.5-0.9-14.9-2.7-22-5.4
				C95.7,122.2,95.1,122.6,95.5,122.8z"/>
			<path class="st2" d="M209.6,250.3c3.1,2.4,1.9,2.8,4.5,5.7c0.5,0.6,2.9,0,3.4,0.6c0,0,3.6,0.9,3.6,0.9c2.7-3,6.7-10.8,11.5-20.8
				l5.2-12.4c6.5-13,6.9-13.3,5.2-18.9c-1.2-3.6-3.3-6.7-6.3-9.1c-4.1,0.8-12.5,11.8-15.1,18.1l-3,5.1l-11.6,28.9
				C207.6,248.9,208.9,249.7,209.6,250.3z"/>
			<path class="st2" d="M212.9,250.8c0.8-2.4-0.6-4.1,0-6.6l-6.8-2c-9.9-3.3-42.7-9.8-42.7-9.8l-3.7,9.6c0,0,28.6,15.7,46.2,18.5
				C213.8,258.9,211.9,253.7,212.9,250.8z"/>
			<path class="st3" d="M239.7,192.7c0,0,7.5,4.5,4.5,21.2s-4.5,15.5-4.5,15.5s-15.8-0.8-23.1-5.5c-2.5-1.6,1.8-15.5,5.6-21.8
				c2.2-3.7,5.8-6.1,9.2-8.7C233,192.4,235.7,192.1,239.7,192.7z"/>
			<path class="st26" d="M202.3,165.7c2.4,0.8,6.4,1.7,6.4,1.7s-2.3,5.5-7.9,3.8s-4.8-7.7-4.8-7.7S199.9,164.9,202.3,165.7z"/>
			<path class="st27" d="M202.2,165.7c1.1,0.4,5.8,1.6,5.8,1.6c-1.8,1.8-4.5,2.4-6.9,1.6c-4.5-1.4-4.6-5.2-4.6-5.2L202.2,165.7z"/>
			<path class="st28" d="M202.1,165.8c1.1,0.4,4.7,1.2,4.7,1.2s-1.6,0.8-5.1-0.2s-4.2-2.6-4.2-2.6L202.1,165.8z"/>
			<path class="st26" d="M195.9,163c0.4,0.2,0.9,0.4,1.3,0.6c1,0.2,1.6,0.2,2.4,0.3c0.8,0.3,1.6,0.7,2.3,1.1c0.9,0,1.7,0.2,2.5,0.4
				c0.7,0.3,2.3,1,3.2,1.4c0.5,0.1,0.9,0.2,1.4,0.3c0.2,0.1-0.5,1.2-7-0.8S195.7,163,195.9,163z"/>
			<path class="st21" d="M157.6,170.9c1.3,0.3,2.7,0.4,4,0.4c3.9-0.2,7.8-0.9,11.4-2.3c0.4-0.1,0.3-0.7-0.1-0.5
				c-3.6,1.3-7.3,2.1-11.1,2.3c-1,0-1.9,0-2.9-0.1l-0.7-0.1c-0.1,0-0.4-0.1-0.2,0C157.6,170.3,157.1,170.8,157.6,170.9L157.6,170.9z
				"/>
			<path class="st2" d="M59.2,201.9c-3.8,4.8-4.7,12-8.6,16.8c17.6,10.5,53.6,10.4,63.8,12.4l3.2-13.2l-53.6-25
				C62.8,194.3,60.4,200.4,59.2,201.9z"/>
			<path class="st2" d="M36.4,182.7c0,0-3,15,0.3,23.8c2.8,7.3,16,13.5,16,13.5l11-23.9L36.4,182.7z"/>
			<path class="st2" d="M225.5,244.8c0,0-0.6,10.3-6,14.2s-14.4,1.2-14.4,1.2l4.1-17.3L225.5,244.8z"/>
			<path class="st9" d="M222.8,195.2c0.1,1.8-0.1,3.6-0.6,5.3c-0.6,1.8-1.9,3.2-3.6,3.8c-1.3,0.4-2.6,0.4-3.9-0.1
				c-0.1,0-0.3-0.1-0.4-0.2c-0.1-0.1-0.2-0.2-0.2-0.4c-0.7-2.6-1.5-4-0.5-6.4c0.2-0.5,0.5-0.9,0.8-1.2c1.2-0.9,2.6-1.5,4.1-1.8"/>
			<path class="st9" d="M216.8,204.2c-0.1,1.6-0.3,4.7-1.8,5.3c-1.5,0.4-3,0.9-4.4,1.5c-0.9,0.6-1.8,1.4-2.5,2.3
				c0.2-2.4,0.7-4.8,1.3-7.2c0.5-1.2,1.3-2.3,2.2-3.2c1-0.6,2.2-0.9,3.4-1.1c0.6,0-0.5,0.3,0,0.5s0.4,0.6,0.3,1.2"/>
			<path class="st4" d="M215.8,219.3c1.5,1,3.1,1.8,4.8,2.3c2.4,0.8,4.8,1.5,7.3,2.1c4.2,1.2,8.5,1.9,12.9,2.3c0.3,0,1,0,1.2-0.3
				s0.3-0.4-0.1-0.5c-4.3-0.3-8.5-1.1-12.6-2.2c-2.3-0.6-4.7-1.2-6.9-2c-1.8-0.5-3.4-1.3-4.9-2.3C217,218.4,215.5,219.1,215.8,219.3
				L215.8,219.3z"/>
			<path class="st9" d="M229.4,184.8c0.1,2.3-0.2,4.5-0.9,6.7c-0.7,2.2-2.4,4-4.5,4.9c-1.5,0.6-3.2,0.6-4.7,0
				c-0.2-0.1-0.4-0.2-0.5-0.3c-0.1-0.1-0.2-0.3-0.2-0.5c-0.8-3.2-1.8-5-0.5-8.1c0.5-0.9,1-1.8,1.6-2.6c1-1,3-1.1,4.4-1.4"/>
			<path class="st15" d="M156.3,61.9c0,0.6,0.1,1.2,0.1,1.8c0,0.4-0.1,0.8-0.2,1.2c-0.2,0.4-0.5,0.8-0.9,1c-0.9,0.4-1.9,0.4-2.8,0
				c-1-0.2-1.9-0.6-2.8-1.2c-0.1-0.1-0.5,0.1-0.4,0.1c0.7,0.5,1.5,0.8,2.4,1.1c0.8,0.3,1.7,0.4,2.6,0.4c0.7-0.1,1.4-0.3,1.9-0.8
				c0.4-0.5,0.7-1.1,0.6-1.8c0-0.7,0-1.3-0.1-2C156.7,61.7,156.3,61.8,156.3,61.9L156.3,61.9z"/>
			<path class="st15" d="M146.5,61.4c-0.4-0.1-0.7,0-1,0.3c-0.2,0.3-0.4,0.6-0.4,1c-0.1,0.3-0.1,0.7,0.1,1c0.3,0.4,0.7,0.7,1.2,0.8
				c0.3,0.1,0.6,0.2,0.9,0.2c0.4,0,0.7-0.1,1.1-0.1c0.1,0,0.2,0,0.3-0.1c0.1,0,0.1-0.1,0-0.1c-0.5,0.1-1.1,0.1-1.6,0.1
				c-0.4-0.1-0.8-0.3-1.2-0.6c-0.3-0.2-0.4-0.6-0.4-0.9c0-0.3,0.1-0.6,0.2-0.9c0.1-0.2,0.1-0.3,0.3-0.4l0.1-0.1l0,0h0.1
				c0.1,0,0.2,0,0.3,0C146.4,61.5,146.5,61.4,146.5,61.4L146.5,61.4z"/>
			<path class="st11" d="M65.3,192.6c-4.4-0.3-8.6,1.4-11.5,4.7c-0.2,0.2,0.5,0.2,0.7,0c2.6-3,6.5-4.6,10.5-4.3
				C65.3,193,65.8,192.6,65.3,192.6L65.3,192.6z"/>
			<path class="st11" d="M165.8,187.6c-3.3,0.4-6.3,2-8.4,4.5c-0.1,0.2,0.6,0.1,0.7,0c1.9-2.3,4.6-3.8,7.6-4.2
				C166,188,166.3,187.6,165.8,187.6L165.8,187.6z"/>
			<path class="st11" d="M160.9,216.8c1.3,1.5,2.1,3.2,2.5,5.1c0,0.1,0.4,0,0.4-0.1c-0.3-1.9-1.2-3.7-2.5-5.2
				C161.2,216.5,160.8,216.6,160.9,216.8L160.9,216.8z"/>
			<path class="st11" d="M209,243c1.9,1,3,3.2,2.5,5.3c0,0.2,0.3,0.1,0.4,0c0.5-2.2-0.6-4.4-2.6-5.5
				C209.1,242.8,208.8,242.9,209,243L209,243z"/>
			<path class="st2" d="M113.7,216.7l0.4,7.2l0.4,7.2c0,0,9.7,3,12.7,3c3,0,9.8,0.8,9.8,0.8c-0.4,0.8-0.6,1.7-0.4,2.6
				c0.3,1,0.9,1.9,1.8,2.4l3.5-4.2c0.6,2.2,2.7,0.8,2.7,0.8l2.6-3.8c0.6,2.8,3.4,1,3.4,1l1.9-5.5c0.6,1,1.4,1.9,2.3,2.6
				c1.2,0.8,1.9-1.4,1.9-1.4l-4-9.3l-12.8-5.4l-21.8,2.8L113.7,216.7z"/>
			<path class="st11" d="M142,229.1c0.7,0.5,1.4,1.1,2.1,1.7c0.7,0.7,1.5,1.4,2.3,2.3c0.8,0.8,1.4,1.7,2,2.6c0.3,0.5,0.4,1,0.3,1.5
				c-0.1,0.4-0.2,0.8-0.4,1.2c-0.2,0.8-0.6,1.6-1.1,2.2c0.2-0.8,0.4-1.5,0.6-2.3c0.1-0.4,0.2-0.8,0.3-1.2c0.1-0.4,0-0.8-0.3-1.2
				c-0.6-0.9-1.2-1.7-1.9-2.5c-0.8-0.8-1.5-1.6-2.2-2.3s-1.3-1.3-1.9-1.8c-0.6-0.5-1.3-0.8-2.1-1.1
				C140.5,228.3,141.4,228.5,142,229.1z"/>
			<path class="st11" d="M142.5,234.2c0.3-0.5,0.5-1,0.5-1.6c0-0.7-0.4-1.3-1-1.6c-0.6-0.4-1.3-0.6-2-0.8l-1.8-0.5
				c-0.4-0.1-0.9-0.3-1.1-0.4c-0.1,0-0.3,0-0.4,0c0,0,0.1-0.2,0.4-0.2c0.4,0,0.8,0.1,1.2,0.2l1.8,0.4c0.8,0.1,1.5,0.4,2.2,0.8
				c0.7,0.5,1.2,1.2,1.2,2.1c0,0.7-0.3,1.3-0.7,1.9c-0.3,0.5-0.8,0.9-1.3,1.1C141.6,235.6,142.1,235.1,142.5,234.2z"/>
			<path class="st2" d="M161.5,242.1c1.5-2.9,2.4-6.1,2.8-9.4c-1.9-1.8-6.2-5.7-7-6.6c-1.8-2.2-7.7-4.3-7.7-4.3s-3.3-3.6-3.8-3.6
				c-0.9,0-1.5,0.7-1.6,1.5c0,0.2,0,0.4,0.1,0.6c0.5,1.7,1.2,3.4,2,5l-13.6,1.3c-0.8,0.1-1.6,0.5-2.2,1.1c-0.3,0.4-0.4,0.9,0.2,1.2
				c1.6,0.4,3.1,0.7,4.7,1l0,0c0,0-0.4,2.3,1.3,3.3c0.7,0.3,1.3,0.7,1.8,1.1c0.1,1.1,0.4,2.1,1,3c0.8,0.8,8.7,3.9,8.7,3.9
				s5,1,7.5,0.7c1.7-0.1,3.5-0.1,5.2,0.1L161.5,242.1z"/>
			<path class="st11" d="M135.4,229.6L135.4,229.6c0.1,0,0.4-0.1,0.2-0.2c-0.9-0.2-1.9-0.3-2.8-0.5c-0.5,0-1-0.2-1.4-0.3
				c-1.9-1.1,0.7-2,1.4-2.1c0.2,0,0.5-0.1,0.8-0.1l4.6-0.4l8.3-0.8c0,0,0.2-0.1,0.2-0.1c-0.5-0.9-0.9-1.8-1.3-2.7
				c-0.3-0.8-1-2.1-0.8-3c0.1-0.6,0.7-0.9,1.3-0.8c0.1,0,0.3,0.1,0.4,0.2c0.4,0.3,0.9,0.7,1.3,1.1c1.2,1.1,2.1,2.3,3.7,2.8
				c0.9,0.2,1.8,0.5,2.7,0.9c1.1,0.5,2.1,1.2,2.9,2c1.7,1.4,3.3,3,4.8,4.7c0.5,0.8,1.1,1.5,1.7,2.2c0.3,0.1,0.6,0.2,0.9,0.2
				c0.6,0.2,1.2,0.4,1.9,0.5c1.9,0.3,3.9,0.6,5.9,0.8c0.1,0,0.4-0.1,0.2-0.2l-5-0.7c-0.5-0.1-0.9-0.1-1.4-0.2s-0.9-0.2-1.4-0.4
				c-0.6-0.1-1.1-0.4-1.4-0.9c-1.3-1.7-2.7-3.2-4.2-4.6c-1.3-1.3-2.8-2.5-4.4-3.4c-1.9-1-3.9-1.1-5.4-2.6c-0.8-0.8-1.6-1.5-2.4-2.2
				c-0.4-0.3-0.6-0.5-1.1-0.4c-2.9,0.5-0.5,4.5,0.2,5.9c0,0.1,0.6,1,0.7,0.8c0,0-0.1,0-0.1,0s-0.5,0-0.6,0.1l-2.4,0.2l-6.4,0.6
				c-1.5,0.1-2.9,0.2-4.4,0.4c-0.7,0.1-2.2,0.8-2.3,1.7c0,0.7,1,0.8,1.5,0.9s1.1,0.2,1.6,0.3c0.3,0.1,0.6,0.1,0.9,0.2
				c0.5,0.1,0.9,0,1.4,0C135.5,229.3,135.2,229.5,135.4,229.6L135.4,229.6z"/>
			<path class="st11" d="M141.6,230.2c-1.7-0.1-3.2-0.2-4.3-0.4c-0.6,0-1.2-0.2-1.8-0.4c0.6-0.1,1.2-0.1,1.8,0
				c1.1,0.1,2.6,0.1,4.3,0.2c2,0,4.1,0.3,6.1,0.9C147.7,230.8,145,230.4,141.6,230.2z"/>
			<path class="st11" d="M143.1,235.1c-1.6-0.1-3.2-0.5-4.7-1.1c0.1-0.1,2.1,0.4,4.7,0.7s4.8,0.2,4.8,0.4
				C146.3,235.4,144.7,235.4,143.1,235.1z"/>
			<path class="st11" d="M146.3,225.1c2.2-0.1,4.4,0.2,6.5,0.9c0.2,0,0.5-0.2,0.2-0.3c-2.1-0.7-4.4-1.1-6.7-0.9
				C146.1,224.8,146,225.1,146.3,225.1L146.3,225.1z"/>
			<path class="st11" d="M165.6,209.7l-4.6,6.9l0.3-0.1l-12.9-5.4c-0.1,0-0.4,0.1-0.3,0.2l12.9,5.4c0.1,0,0.2,0,0.3-0.1l4.6-6.9
				C166,209.6,165.7,209.7,165.6,209.7L165.6,209.7z"/>
			<path class="st11" d="M154.3,223.5l-0.8-1.9l-0.5-1.2c-0.1-0.1-0.1-0.4-0.2-0.5c-0.1-0.1-0.3-0.1-0.4-0.2l-1-0.4l-2.6-1.1
				l-1.7-0.7c-0.1,0-0.4,0.1-0.3,0.2l4,1.7c0.6,0.2,1.1,0.5,1.7,0.7c0.1,0,0,0,0,0c0,0.1,0.1,0.2,0.1,0.3l0.5,1.1l0.9,2.2
				C154,223.7,154.4,223.6,154.3,223.5L154.3,223.5z"/>
			<path class="st11" d="M135.4,229.4c-0.3,0.5-0.5,1.2-0.4,1.8c0.2,1.6,1.9,2.4,3.3,2.9l-0.1-0.1c-0.1,1.3,0.3,2.5,1.3,3.4
				c0.1,0.1,0.4-0.1,0.3-0.2c-0.9-0.8-1.4-2-1.2-3.2c0,0,0-0.1-0.1-0.1c-1.3-0.4-3-1.2-3.1-2.8c0-0.6,0.1-1.1,0.4-1.6
				C135.8,229.3,135.5,229.3,135.4,229.4L135.4,229.4z"/>
		</g>
	</g>
</g>
</svg>
