<?xml version="1.0" encoding="UTF-8"?>
<svg xmlns="http://www.w3.org/2000/svg" xmlns:xlink="http://www.w3.org/1999/xlink" viewBox="0 0 292.89 301.99">
  <defs>
    <style>
      .cls-1, .cls-2, .cls-3 {
        fill: none;
      }

      .cls-4 {
        fill: #192a19;
      }

      .cls-5 {
        fill: #87664e;
      }

      .cls-6 {
        fill: #8f8f8f;
      }

      .cls-7 {
        fill: #c39d66;
      }

      .cls-8 {
        fill: #cfd0d0;
      }

      .cls-9 {
        fill: #010101;
      }

      .cls-10 {
        fill: #c69e81;
      }

      .cls-11 {
        fill: url(#linear-gradient-2);
      }

      .cls-12 {
        fill: #aa844f;
      }

      .cls-2 {
        stroke-width: 1.93px;
      }

      .cls-2, .cls-3 {
        stroke: #282b2b;
        stroke-miterlimit: 10;
      }

      .cls-13 {
        fill: #282b2b;
      }

      .cls-14 {
        fill: #231f20;
      }

      .cls-15 {
        fill: #98554a;
      }

      .cls-16 {
        fill: #1e1811;
      }

      .cls-17 {
        fill: #527569;
      }

      .cls-18 {
        fill: #27153c;
      }

      .cls-19 {
        fill: url(#linear-gradient);
      }

      .cls-20 {
        fill: #f1eef7;
      }

      .cls-21 {
        fill: #171413;
      }

      .cls-22 {
        fill: #784f81;
      }

      .cls-23 {
        fill: #906244;
      }

      .cls-24 {
        fill: #62696d;
      }

      .cls-25 {
        fill: #f58233;
        isolation: isolate;
        opacity: .67;
      }

      .cls-26 {
        fill: #0a2f44;
      }

      .cls-27 {
        fill: #486d34;
      }

      .cls-28 {
        clip-path: url(#clippath-1);
      }

      .cls-29 {
        fill: #60401b;
      }

      .cls-30 {
        fill: #6f6f6f;
      }

      .cls-31 {
        fill: #fff;
      }

      .cls-32 {
        fill: #f47a20;
      }

      .cls-33 {
        fill: #4d311f;
      }

      .cls-34 {
        fill: #53666d;
      }

      .cls-35 {
        fill: #383938;
      }

      .cls-36 {
        fill: #b8b8b8;
      }

      .cls-37 {
        fill: #848484;
      }

      .cls-38 {
        fill: #ae3825;
      }

      .cls-39 {
        fill: #f79325;
      }

      .cls-40 {
        fill: #4f2f26;
      }

      .cls-41 {
        fill: #a382ad;
      }

      .cls-42 {
        fill: #cdb731;
      }

      .cls-3 {
        stroke-width: 2.02px;
      }

      .cls-43 {
        fill: #311811;
      }

      .cls-44 {
        fill: #2a3f1e;
      }

      .cls-45 {
        fill: #161412;
      }

      .cls-46 {
        fill: #0c0d0d;
      }

      .cls-47 {
        fill: #e3ba8f;
      }

      .cls-48 {
        fill: #b5b6b6;
      }

      .cls-49 {
        clip-path: url(#clippath);
      }

      .cls-50 {
        fill: #7a5a32;
      }
    </style>
    <clipPath id="clippath">
      <path class="cls-1" d="M609.49,61.61c-29.04-29.04-67.99-42.13-105.97-39.28-3.02-16.99-17.85-29.89-35.7-29.89-20.03,0-36.27,16.24-36.27,36.27,0,6.4,1.67,12.42,4.58,17.64-6.38,4.47-12.47,9.56-18.17,15.26-52.89,52.89-52.89,138.65,0,191.54s138.65,52.89,191.54,0c52.89-52.89,52.89-138.65,0-191.54Z"/>
    </clipPath>
    <linearGradient id="linear-gradient" x1="515.88" y1="311.37" x2="522.73" y2="148.73" gradientUnits="userSpaceOnUse">
      <stop offset=".01" stop-color="#75983e"/>
      <stop offset=".98" stop-color="#496c34"/>
    </linearGradient>
    <clipPath id="clippath-1">
      <path class="cls-1" d="M264.51,90.83c4.11-7.12,6.48-15.37,6.48-24.18,0-26.73-21.67-48.39-48.39-48.39-11.83,0-22.67,4.25-31.08,11.31-14.07-4.95-29.2-7.66-44.96-7.66C71.8,21.91,11.2,82.51,11.2,157.26s60.6,135.36,135.36,135.36,135.36-60.6,135.36-135.36c0-24.14-6.33-46.81-17.41-66.43Z"/>
    </clipPath>
    <linearGradient id="linear-gradient-2" x1="149.31" y1="280.61" x2="143.27" y2="9.96" gradientUnits="userSpaceOnUse">
      <stop offset=".06" stop-color="#d3c293"/>
      <stop offset=".66" stop-color="#f2ebd1"/>
      <stop offset=".91" stop-color="#f2ebd1"/>
    </linearGradient>
  </defs>
  <g id="Layer_1" data-name="Layer 1">
    <g class="cls-49">
      <path class="cls-27" d="M419.96,181.09c2.59-2.83,5.34-6.03,5.41-9.86s-4.37-7.65-7.56-5.52c.92-2.31.04-5.2-2.01-6.61-2.05-1.41-5.06-1.18-6.89.51-1.06-5.56-9.57-7.73-13.16-3.35.33-2.17-2.75-3.62-4.65-2.53s-2.55,3.58-2.39,5.78c-1.26-2.56-4.2-4.19-7.04-3.9s-5.39,2.48-6.11,5.25c-.28-2.43-.69-5.1-2.57-6.67-1.88-1.56-5.61-.66-5.55,1.78.55-3.46-1.39-7.16-4.54-8.68s-7.26-.73-9.62,1.85c-.47-3.38-1.75-6.91-4.57-8.84-2.82-1.93-7.41-1.41-8.83,1.7-1.63-2.64-4.23-5.05-7.33-5.04-3.1.01-5.97,3.7-4.28,6.3-2.31-3.82-9.45-2.28-9.98,2.14-1.66-2.55-5.1-3.78-8-2.86-2.9.92-5,3.91-4.89,6.95-2.89-1.77-6.9-1.47-9.5.71-2.6,2.18-3.59,6.07-2.36,9.23-8.68.72-14.98,11.17-11.57,19.18"/>
      <path class="cls-19" d="M769.42,295.85h-500.89v-115.9l155.25-1.59c19.94-.87,173.16-.52,193.1.32l152.54,1.26v115.9Z"/>
    </g>
  </g>
  <g id="Layer_6" data-name="Layer 6">
    <g class="cls-28">
      <circle class="cls-11" cx="146.56" cy="157.26" r="135.36"/>
      <path class="cls-26" d="M8.84,282.88c2.25.21,4.18,1.39,10.28,2.36,3.21.54,6.43.96,9.64,1.07,1.82.11,3.53,0,5.35-.43.86-.21,2.57-.75,3.43-.96l.54-3.53.86-35.34,5.68-17.99-38.12-.86-.86,6c-.75,5.03-.75,10.07.11,15.1l3.32,17.78c.11,0-.11,14.35-.21,16.81Z"/>
      <path class="cls-26" d="M51.14,288.02c3.53-.21,8.03-.75,10.49-2.89l1.07-52.69-25.7-5.25,2.36,59.22c3.86,0,7.82,1.82,11.78,1.61Z"/>
      <path class="cls-41" d="M268.08,104.99c5.95,2.43,11.67,6.3,15.32,11.63,10.93,15.91-.03,34.59,1.08,51.41.43,6.32,1.37,21.1,3.28,25.6s15.15,26.25,18.28,37.28,1.53,17.52,1.53,17.52l-36.57-73.8-7.49-66.64,4.56-3Z"/>
      <path class="cls-41" d="M237.74,117.08c-.44-5.56-2.77-10.75-6.47-14.9l-5.16,2.54-10.79,1.69-12.62,6.48c-2.17,1.49-4.8,2.82-7.13,6.38-4.94,8.13-4.7,20.96-6.03,30.22-.44,3.09-3.69,36.28-2.22,36.73,10.31,2.7,15.47-6.98,22.53,1.14,1.22-4.49,2.92-8.72,4.94-12.89,6.12-12.94,14.31-24.98,19.38-38.53,2.32-5.94,4.04-12.33,3.58-18.86Z"/>
      <path class="cls-41" d="M221.1,190.16c2.14-4.94-5.95-2.43-5.6-7.77.31-4.04-.03-8.1-.78-12l-.19,1-32.61-10.03-11.92-4.21c-1.41,7.11-4.29,8.91-8.32,15.08,14.38,9.49,29.31,18.37,44.56,26.33,2.15.68,4.54.78,6.74.27,3.2-1.09,5.97-2.98,8.09-5.65.73-.96-.14-2.58.02-3.03Z"/>
      <path class="cls-10" d="M122.46,228.58v.32c-.32.86-2.25,4.39-2.36,7.71,0,3-.11,7.39-.11,8.89,0,.32.21.64.64.64h.11c.54-.11,1.18-.43,1.61-1.61.32-1.29.64-2.68.75-4.07,0-.32.32-.54.64-.54.11,0,.21.11.32.11h0c.11.11.21.32.21.54l-.32,4.18c0,.21-.11.43-.32.54-.86.32-2.78,1.18-3.32,2.46-.11.32,0,.64.32.75h.21l2.78-.11h.11l2.78-.64c.11,0,.21-.11.32-.11l2.46-2.36c.11-.11.11-.21.21-.21l2.03-7.39c.21-.64.21-1.39,0-2.03-.54-1.93-.86-3.96-1.18-5.89-.43-3.86-.64-6.43-.86-7.6,0-.32-.32-.54-.64-.54h-.11l-6.43,2.14c-.32.11-.43.32-.43.64l.54,4.18Z"/>
      <path class="cls-10" d="M115.39,153.52c.86.32,8.67,9,10.49,14.78s1.93,17.88,2.78,22.92c.96,5.14,1.61,10.92,2.14,17.46.11,1.71.21,3.43.11,5.03l-.75,13.92-5.68-1.07s-4.28-35.45-7.5-43.48c-3.21-8.03-1.61-29.56-1.61-29.56Z"/>
      <path class="cls-9" d="M110.26,109.5c-3.58-7.52-7.76-9.73-15.69-10.62-8.7-1.04-20.04,3.11-23.59,11.38-2.4,5.59-2.81,14.13-3.11,20.28-.27,4.11-.44,8.21-.71,12.32-.13.98-.04,1.94.46,2.75.72.8,1.63,1.36,2.71,1.47,4.39,1,8.89.81,13.17-.65l10.05,1.78,16.67-4.74c1.16-.21,2.29-.85,3.07-1.68.55-1.02.87-2.23.77-3.4.22-8.3-.32-21.37-3.8-28.9Z"/>
      <path class="cls-10" d="M112.2,133.3c.07-2.8-.17-5.47-.74-8.21-.1-1.07-.21-2.35-.24-3.85l-.12-1.28-.06-.64c-.99-7.33-3.8-11.05-3.8-11.05-3.64-4.62-9.44-6.89-15.17-6.05-6.81.83-12.62,5.55-15.32,10.1-1.41,2.28-1.92,4.91-1.48,7.45.44,2.43,1.18,4.73,2.03,7.02-2.36.11-4.62,1.28-3.37,5.57,1.83,5.96,5.62,7.45,7.59,5.44,1.12.54,1.48,2.12,1.71,3.39.44,2.43.7,6.5-.28,8.74l.16.63c5.97,7.74,9.5,12.26,26.63,5.55l-6.38-7.49-.36-2.76c.96-.09,2.01-.4,2.95-.7,5.21-1.87,6.17-9.05,6.24-11.86Z"/>
      <path class="cls-10" d="M115.93,156.51c.86.21,7.82,3.53,9.42,8.67,1.61,5.25.64,21.1,1.39,25.59.75,4.6,1.39,9.96,1.93,15.85.11,1.5.21,3.11.11,4.6l-.64,12.64-5.14-.96s-3.96-32.34-6.85-39.62-.21-26.77-.21-26.77Z"/>
      <path class="cls-42" d="M128.92,173.08c-2.95-6.4-4.32-15.63-15.76-20.83-1.57-.72-7.29-3.32-9.65-3.21.65,1.23,1.09,2.59,1.01,3.99-.35,2.07-.63,2.53-2.14,3.63-1.42.99-5.56,1.58-7.3,1.31-5.33-.7-9.76-5.68-11.98-8.81-3.53,1.39-6.92,3.1-10.07,5.21-14.44,9.16-8.14,25.25-8.14,25.25,1.53,5.02,5.02,15.03,5.02,15.03-.69,6.62-.81,8.89-.94,9.76s-1.85,72.21-2.02,85.77c4.57,2.92,4.68-1.71,10.95-.24s8.19,1.41,12.16-1.1c3.97-2.51,7.54-2.19,13.19-.44s9.79-1.1,12.88-1.49,7.52,1.15,13.09.86c5.57-.29,5.86-3,9.18-3.09-.61-4.35-11.92-84.08-16.26-92.83-.73-5.74-.92-12.5-.92-12.5,0,0,6.17-1.96,7.71-6.29Z"/>
      <path class="cls-44" d="M121.22,191.3c-3.7-.52-7.35.77-10.96,1.31-4.02.69-8.18,1.06-12.24,1.43-4.06.26-8.14.31-12.14.13-4.08.05-8.34.54-12.5.92-.32.03-.81.5-.28.46,3.95-.36,7.99-.83,11.96-.87s8.09.24,12.14-.13c3.73-.34,7.47-.68,11.29-1.24,4.03-.58,8.19-2.14,12.33-1.55.22.09.82-.4.39-.47Z"/>
      <path class="cls-40" d="M102.81,145.98c-4.35.61-8.73-.18-12.66-2.08,0,0,.92,1.85,5.22,2.97,2.42.64,5.01.73,7.54.18l-.1-1.07Z"/>
      <path class="cls-9" d="M79.47,130.46s0-.11,0,0c-.41-.93-.9-1.64-1.6-2.22-.35-.29-.69-.48-1.13-.65s-.88-.24-1.32-.31c-.65-.05-1.29,0-1.8.27l-.31.14c-2.17-4.96-3.42-10.44-.37-17.17.9-1.91,3.59-4.3,4.38-5.02,4.87-4.42,9.63-5.28,15.54-5.28,6.87-.08,13.66,3.6,15.98,10.27.58,1.67,1.86,3.92,1.91,5.63,0,0-2.92-7.26-6.4-8.88s-3.75,1.31-8.43,1.95c-5.31.7-7.49-2.01-11.55.72-2.13,1.38-3.76,3.57-4.51,6-.32,2.39-1.24,4.09-.25,6.69.27.62.44,1.25.6,1.88.21,1.16.43,2.33.43,3.51.06.64-.21,1.2-.61,1.56-.61.38.1,1.07-.56.91Z"/>
      <circle class="cls-14" cx="108.47" cy="123.54" r="1.5"/>
      <path class="cls-14" d="M75.35,132.45c-.39-.72-.46-1.57-.21-2.35l-.2.13h.11c.22.08.45.17.56.26.92.67,1.72,1.35,2.35,2.37l.33-.03c-.23-.19-.56-.27-.87-.14-.31.14-.49.47-.47.79.09.96.98,1.31,1.84,1.34.21-.02.3-.24.09-.22-.75.07-1.32-.31-1.49-1.05-.02-.21-.05-.53.16-.66s.44.07.66.16.32-.03.3-.24c-.49-.71-1.1-1.41-1.69-2-.35-.29-.7-.58-1.04-.77-.12-.1-.34-.18-.55-.17s-.31.14-.29.35c-.25.78-.07,1.62.32,2.34.14-.19.25-.23.1-.12h0Z"/>
      <circle class="cls-16" cx="93.33" cy="125.1" r="1.5"/>
      <path class="cls-15" d="M102.43,135.8c-2.03.18-5.35.27-5.35.27,0,0,.22,4.82,5.76,4.21,2.56-.23,4.51-2.45,4.28-5.01h0c.1-.12-2.66.35-4.68.53Z"/>
      <path class="cls-43" d="M102.43,135.8l-4.48.41c1.1,1.51,2.9,2.32,4.81,2.04,3.73-.34,3.85-2.61,3.85-2.61l-4.18.16Z"/>
      <path class="cls-20" d="M102.55,136c-.96.09-3.85.24-3.85.24,0,0,1.15.86,4.03.6s3.75-1.31,3.75-1.31l-3.94.46Z"/>
      <path class="cls-15" d="M107.21,135.15c0-.11-.22-.09-.77-.15-.76-.04-1.1-.22-1.64-.28-.64.06-1.38.23-2,.5-.66-.16-1.42-.19-2.06-.14-.53.05-2.01.4-2.74.57-.43.04-.75.07-1.18,0-.11,0,.31,1.05,5.64.56,5.33-.48,4.75-.97,4.74-1.07Z"/>
      <path class="cls-9" d="M76.03,122.17c-.49-1.89-.68-3.92-.53-5.87.19-2.7,1.25-5.17,2.89-7.25,1.45-1.74,3.15-3.19,5.21-4.24,2.9-1.23,4.21-2.21,10.04-1.98,2.48.1,2.76-.36,5.09.4l3.61,1.82c-.77,4.59-15.22,13.64-19.74,15.98.03,1.5.05,4.08-.14,5.6-.03.86-.17,1.74-.63,2.53-.44,1.11-1.23,1.83-2.02,1.47s-1.73-2.53-2.02-3.26c-.9-1.64-1.49-3.41-1.76-5.22Z"/>
      <ellipse class="cls-39" cx="80.93" cy="119.33" rx="1.29" ry="3.32" transform="translate(-63.03 111.35) rotate(-52.68)"/>
      <path class="cls-44" d="M121.63,180.41c-.18-2.03-.26-4.06-.44-6.09-.26-2.88-.41-5.77-.88-8.52-.02-.21-.86-.03-.73.28.46,2.75.62,5.64.88,8.52.18,2.03.26,4.06.44,6.09.02.21.76.04.73-.28h0Z"/>
      <path class="cls-44" d="M119.97,216.69c-.65-8.33-2.46-16.44-5.43-24.35-.14-.31-.76-.04-.74.17-.15,10.23.88,20.46,2.88,30.6.03.32.86.03.73-.28-1.98-10.04-2.9-20.17-2.86-30.39l-.74.17c2.96,7.8,4.77,15.91,5.41,24.13-.07.44.78.25.75-.07Z"/>
      <path class="cls-44" d="M90.65,220.63c-.38-8.89-1.71-17.69-4-26.3-.14-.31-.66-.16-.74.17-1.39,4.86-.81,10.07-.46,15.1.4,5.56.9,11.1,1.4,16.65.04.43.88.24.84-.18-.59-5.32-.98-10.77-1.36-16.22-.36-5.13-1.17-10.54.32-15.51l-.74.17c2.28,8.5,3.61,17.31,3.99,26.2.04.43.78.25.75-.07h0Z"/>
      <path class="cls-45" d="M101.61,132.65c.55.17,1.1.22,1.63.18s1.06-.2,1.58-.36c.73-.28,1.19-1.08.9-1.91h0c-.13-.2-.25-.41-.38-.61-.14-.31-.38-.61-.41-.93,0,0-.32.03-.31.14.26.51.52,1.03.78,1.44.25.41.19.95-.1,1.3-.39.47-.9.73-1.44.78-.63.16-1.39.13-2.06-.14,0,0-.11,0-.2.13h0Z"/>
      <path class="cls-45" d="M99.09,130.94c-.21.02-.42.15-.61.38-.09.22-.06.54-.04.76s.15.52.27.62c.23.19.57.38,1,.34.21-.02.43-.04.63-.16s.41-.25.73-.28c0,0,.11,0,.1-.12s-.11,0-.11,0c-.21.02-.31.14-.51.26-.1.12-.31.14-.52.15-.32.03-.65-.05-.87-.14-.35-.29-.49-.71-.43-1.14,0-.11-.02-.21.08-.33,0,0,0-.11.1-.12h0s-.11,0,0,0l.21-.02h0l-.02-.21h0Z"/>
      <path class="cls-25" d="M215.68,33.51c-.7-.16-1.37-.22-2.05-.28-1.32-.01-2.22,1.3-3.44,1.71-.83.2-1.69.3-2.62.08-.6-.19-1.17-.27-1.84-.33-.44,0-.73.18-1.12.38-.18.15-.1.03-.16.26.03-.34.2.39.2.39.18.73-.09,1.45-.74,1.94l.53,2.19c.23.94,1.15,1.59,2.2,1.34h0l10.31-2.48c.94-.23,1.59-1.15,1.34-2.2l-.75-3.12c-.52.13-1.17.17-1.85.11Z"/>
      <path class="cls-41" d="M290.51,214.55c-.82-2.05-1.85-4.07-2.98-5.97-.79-1.84-1.49-3.8-1.87-5.8-2.57-10.13-3.72-18.51-3.66-23.6-.05-3.56-3.34-26.02-2.25-33.09.99-6.19-9.33-35.04-9.33-35.04l-13.3-4.02-5.8,1.87-.35-.17.12.85.16.41c-1.85,4.68-5.91,8.16-10.84,9.26-1.68.34-3.37.68-5.18.82-5.67.45-10.29-1.73-14.2-5.84l-.35-1.79-10.08,4.51-8.32,7.95-4.47,45.57c1.56,8.22.27,5.91,4.69,12.98l4.49,4.36,2.77,15.51s.06,17.07-1.96,28.37l84.46-11.54c-.58-1.87-1.17-3.84-1.74-5.6Z"/>
      <path class="cls-41" d="M201.74,255.89s3.77-40.1,8.43-53.38l73.95-6.97s19.16,51.98,21.17,60.35h-103.55Z"/>
      <rect class="cls-37" x="-72.22" y="252.57" width="416.89" height="16.71"/>
      <path class="cls-8" d="M117.96,225.05l-.11.11.11-.11Z"/>
      <path class="cls-8" d="M117.64,225.16l-.21.21.21-.21Z"/>
      <path class="cls-8" d="M117.43,225.37l-.11.11.11-.11Z"/>
      <path class="cls-8" d="M118.61,224.52l-.21.21.21-.21Z"/>
      <path class="cls-8" d="M118.07,224.94l-.11.11.11-.11Z"/>
      <path class="cls-8" d="M117.21,225.48l-.11.11.11-.11Z"/>
      <path class="cls-8" d="M72.67,225.37l-.11-.11.11.11Z"/>
      <path class="cls-8" d="M72.88,225.48l-.11-.11.11.11Z"/>
      <path class="cls-8" d="M116.79,225.8l-.11.11.11-.11Z"/>
      <path class="cls-8" d="M117.11,225.59l-.32.21.32-.21Z"/>
      <path class="cls-8" d="M118.82,224.19l-.11.11.11-.11Z"/>
      <path class="cls-8" d="M119.14,223.77s0,.11-.11.11l.11-.11Z"/>
      <path class="cls-18" d="M198.23,141.99c.55,4.03.57,8.14-.06,12.22-.34,3.07-.85,5.46-1.08,8.51-.08.23.51.75.47.43.23-3.06.79-6.05,1.13-9.13.63-4.09.61-8.19.06-12.22-.03-.21-.55-.03-.52.18h0Z"/>
      <path class="cls-9" d="M115.18,196.57h0l.11-.21-.11.21Z"/>
      <path class="cls-9" d="M115.61,197.53h0l.11-.21-.11.21Z"/>
      <path class="cls-22" d="M248.83,129.18c2.88-2.23,17.45-20.52,17.45-20.52,2.91-1.12,4.4-6.32-3.59-13.43l-6.77-9.38s7.14-57.78-32.25-56.68c0,0-25.08-1.68-27.45,22.79,0,0-.74,15.71,1.3,25.57,1.89,9.24,7.54,25.83,7.54,25.83"/>
      <path class="cls-22" d="M200.07,116.02s2.77,2.85,4.66,6.58c1.36,4.3,3.03,6.65,5.67,10.31,7.6,10.07,20.63,10.68,32.07,4.18,8.14-4.6,17.2-24.18,17.2-24.18l-4.47-34.61-11.36,4.5s-3.08,18.8-22.02,19.73-17.48-14.96-17.48-14.96l.14,13.4c.11,5.48-.2,8.2-2.73,12.77l-1.68,2.28Z"/>
      <path class="cls-10" d="M198.06,63.3c-.54-3.62.52-11.58.52-11.58.03-.34.55-5.97.58-6.31,5.22-3.02,12.71-7.13,18.73-6.38,5.79.7,19.04,2.69,20.09,9.82.29,2.13.5,16.29,2.19,16.43.05.21.13.52.07.75.24,1.92.61,3.93,1.17,5.78.63-1.03,1.27-2.07,1.66-3.15.27-.72-.04-1.53.12-2.23.82-1.63,2.95-1.48,4.26-.59l.18.29c1.9,1.96.96,9.02-.05,11.25.12,4.16-3.23,6.72-5.65,4l-.38,1.63-4.31,5.88c-3.7,4.75-10.53,12.56-17.08,13.25-4.42.4-5.94-.44-7.8-1.76-2.68-2-4.38-4.45-6.53-7.02-1.8-1.99-3.26-4.39-4.09-6.95-.97-2.19-1.44-4.61-1.26-7.08.04-1.66-.13-3.27-.4-4.86-.06-1.64-1.41-7.7-2.03-11.19Z"/>
      <path class="cls-45" d="M224.19,68.91c.57-.36,1.33-.43,1.95-.14.26.16.41.34.49.65.23.5.12.96-.19,1.48s-1.05.69-1.64.5c-.72-.27-1.11-.94-.97-1.75.08-.13-.1-.42.37-.75"/>
      <path class="cls-15" d="M216.66,87.03c3.2-.44,8.53-1.61,8.53-1.61,0,0,.03,8.81-7.33,9.8-7.36,1-9.05-7.41-9.05-7.41,0,0,4.76-.37,7.85-.79Z"/>
      <path class="cls-43" d="M216.66,87.03c1.48-.25,7.62-1.28,7.62-1.28,0,0-1.12,5.89-6.55,6.64-3.41.49-6.61-1.38-7.91-4.49l6.84-.87Z"/>
      <path class="cls-20" d="M216.6,87.26c1.48-.25,6.11-1.14,6.11-1.14,0,0-1.42,1.88-6,2.54-4.58.66-6.25-.81-6.25-.81l6.14-.59Z"/>
      <path class="cls-15" d="M208.68,87.73c.29-.18.7-.28.99-.46.91-.33,1.93-.68,2.87-.91,1.56-.38,2.57.15,3.32.08s1.57-.82,3.18-.98c.88,0,3.51-.07,4.7-.14l1.77-.43c.23.05-.22,1.82-8.65,2.96-8.43,1.15-8.39-.07-8.18-.12Z"/>
      <path class="cls-31" d="M242.3,68.63s-7.44-19.47-28-17.94c-11.9.88-16.26,11.62-16.26,11.62,0,0-1.23-11.05,3.05-15.71s19.8-6.97,27.34-4.48,13.87,26.51,13.87,26.51Z"/>
      <path class="cls-22" d="M248.68,51.68s-8.5-22.08-28.23-20.74c-24.48,1.7-24.3,27.65-24.3,27.65l2.27,19.06c-.74-4.89-1.45-9.23-.65-14.16-.13-2.83-1.96-9.99,5.49-15.64,4-3.06,9.15-4.07,14.14-3.95,4.54.12,9.78,1.28,12.97,4.92,2.6,3.01,4.64,6.48,5.99,10.23,1.85,4.95,2.77,12.44,2.83,17.71-.04,4.86.6,11.2-6.2,20,20.47-9.22,18.85-33.83,16.48-45.05l-.78-.03Z"/>
      <path class="cls-18" d="M233.83,34.32c4.7,3.05,8.23,8.59,9.95,13.91,2.6,8.08,1.59,17.13.37,25.35-.36,2.18-.74,4.25-1.23,6.35.03.1.62-.15.7-.28,1.27-5.7,2.08-11.51,2.23-17.28.3-4.26-.08-8.57-.98-12.76-1.13-4.24-3.15-8.05-5.95-11.46-1.26-1.57-2.8-2.96-4.53-4.2-.13-.08-.7.28-.57.36h0Z"/>
      <path class="cls-18" d="M255.16,85.91c-.55,3.22-1.2,6.46-2.22,9.56-1.74,6.04-4,12.2-7.97,17.23-2,2.68-4.8,4.79-7.97,5.77-.42.1-.4.65.02.55,5.99-1.66,9.73-7.19,12.32-12.44,2.57-5.35,4.41-10.97,5.63-16.88.25-1.27.59-2.57.74-3.81.21-.49-.52-.32-.55.02h0Z"/>
      <path class="cls-18" d="M236.73,90.35c-1.83,6.61-4.46,13.96-10.32,18.01-3.11,2.18-6.88,2.98-10.59,2.22-3.47-.71-6.76-2.01-9.92-3.67-.26-.16-.91.33-.55.46,3.31,1.85,6.83,3.2,10.51,3.86,3.45.6,7.14-.07,10.1-1.99,6.61-4.12,9.38-11.84,11.42-18.94.11-.47-.6-.19-.65.05h0Z"/>
      <path class="cls-18" d="M203.9,110.91c1.92.2,3.73.86,5.33,2.02,1.8,1.55,3.43,3.25,4.86,5.11,2.57,2.91,5.7,7.22,10.2,6.25.21-.05.65-.49.21-.49-2.32.45-4.59-.77-6.27-2.24s-3.29-3.61-4.94-5.42c-1.23-1.47-2.57-2.91-4.17-4.06-1.45-.97-3.1-1.46-4.79-1.6-.13-.08-.68.38-.45.44h0Z"/>
      <path class="cls-34" d="M141.74,198.06c0-.11-.11-.11-.21,0h.21Z"/>
      <path class="cls-33" d="M149.34,203.2c.96-.64,2.25-.64,3.32-.21,1.29.43,2.46,1.18,3.53,2.14,2.46,2.03,4.07,4.82,4.5,7.92.21,1.07-.11,2.25-.64,3.11-.75.75-2.03,1.07-3.11.64-2.89-.75-5.25-3.11-6.85-5.57-1.29-1.93-3.11-6.1-.75-8.03.32-.32-.43-.32-.64-.11-2.36,2.03-.96,5.78.32,7.92,1.61,2.78,4.39,5.68,7.71,6.32,2.46.54,4.71-.75,4.82-3.43.11-3.43-2.14-6.85-4.6-9-2.03-1.82-5.68-3.86-8.25-1.82-.32.32.43.32.64.11Z"/>
      <path class="cls-5" d="M137.3,194.36c-3.32-14.11-12.8-26.15-17.27-39.94-.54-1.24-.67-2.63-.57-3.93.19-1.42,1.17-2.47,2.55-2.7,1.18,0,2.31.54,2.94,1.56s.94,2.07,1.15,3.23c3.45,14.31,9.3,27.87,15.25,41.31"/>
      <path class="cls-18" d="M283.65,166.74c-3.19,8.33-5.21,17.25-9.44,25.07-3.46,6.31-8.22,12.58-15.82,13.94-4.14.57-8.27.37-12.29-.59-4.34-.92-8.51-2.19-12.53-3.91-8.02-3.34-15.54-7.71-23.13-11.86l-15.05-8.1-7.47-4.06c-.35-.17-1.03-.4-1.06-.61s.25-.57.32-.8l.57-1.37c.06-.33-.47-.26-.55-.03l-.97,2.4q.01.11.14.2c8.98,4.83,17.95,9.54,26.84,14.49,7.59,4.15,15.09,8.42,23.16,11.32,3.99,1.51,8.13,2.56,12.32,3.18,3.43.61,7.01.66,10.39.09,6.52-1.32,11.02-6.37,14.49-11.82,5.22-8.49,7.34-18.3,10.83-27.53-.04-.32-.57-.25-.76,0h0Z"/>
      <path class="cls-18" d="M248.42,176.31c4.58,1.1,8.13,5.7,9.07,10.22.03.21.65.02.52-.18-1.06-4.61-4.71-9.19-9.42-10.39-.14-.2-.52.18-.17.35Z"/>
      <path class="cls-10" d="M187.43,174.48l-13.42-1.73-8.09-4.62c-2.72-.93-5.35-1.97-7.99-3.12-.57-.25-.9-1.07-.55-1.65.09-.12.08-.23.18-.24.37-.48,6.68.6,6.68.6,0,0-8.36-2.64-9.41-4.01-.75-.76-.61-2.08.17-2.73.09-.12.2-.14.3-.15.68-.53,13.83,4.7,13.83,4.7l-5.2-3.29s-7.78-1.53-9.28-3.06-.05-3.56-.05-3.56l9.28,2.3,6.42,1.93-6.36-3.02s-6.71-1.68-7.81-3.36,1.02-2.84,1.02-2.84l9.88,1.89,10.11,4.35c.48-1.25-2.51-2.57-2.73-4.17-.04-1.08.69-1.28.69-1.28l8.82,4.42,6.18,9.64.94.52-3.59,12.49Z"/>
      <path class="cls-10" d="M143.77,159.46l6.63,2.38-3.58.62c-1.56-.37-3.14-.51-4.73-.4-.88.38-.68,1.93-.68,1.93l12.16,2.2,5.89,2c2.21.79,4.74.16,6.36-1.47l6.71-6.87-2.72-6.29-2.26-6.84-1.77-3.55-4.04-4.2s-1.76.53-.69,2.98c1.06,2.46,1.9,3.85,1.9,3.85l.83,4.07-1.53.78-11.14-3.34-3.27-2.43s-2.38-3.87-5.16-3.83l-.29.13c-.25.23-.32.61-.1.86l4.43,6.72,3.66,2.26-4.39-1.25s-4.66-4.28-6.94-4.7-1.46,1.22-1.46,1.22l5.26,6.48,6.1,3.31-4.59-1.16-5.45-2.89s-1.73-.77-2.23.5c-.12.52,0,1.05.36,1.36l6.74,5.6Z"/>
      <path class="cls-40" d="M177.01,152.78h0s-.3.15-.2.14c2.95.25,5.56,1.94,6.7,4.71.01.11.42-.06.3-.15-1.12-2.66-3.74-4.46-6.8-4.69l-.2.14h0c.23.08.52-.18.2-.14h0Z"/>
      <path class="cls-18" d="M191.18,161.54l19.72,5.09,31.38,8.14,7.17,1.83c.23.08.32-.04.52-.18,2.28-4.64,3.41-9.87,4.45-14.88,1.22-6.11,2.22-12.19,3.78-18.24.82-3.46,2.1-6.77,2.92-10.24.84-3.36,1.92-6.53,3.33-9.64,1.41-3.11,3.91-8.53,8.05-8.34.21-.03.61-.3.27-.36-3.16-.22-5.39,2.47-6.91,4.83-2.02,3.41-3.48,6.96-4.58,10.79-.82,2.71-1.55,5.29-2.37,8-1.73,6.29-3.26,12.55-4.33,18.97-1.28,6.44-2.41,13.19-5.37,19.22l.52-.18-19.72-5.09-31.38-8.14-7.17-1.83c-.14-.2-.62.19-.29.26h0Z"/>
      <path class="cls-7" d="M140.58,135.77c-2.4-3.35-4.52-6.95-6.33-10.7,2.4,3.35,4.52,6.95,6.33,10.7Z"/>
      <path class="cls-7" d="M137.04,138.97s-8.65-2.73-14.53-6.33c.1-.02,6.71,2.41,14.53,6.33Z"/>
      <path class="cls-7" d="M134.77,142.1c-4.32.33-8.73.25-13.03-.3,0,0,5.8-.12,13.03.3Z"/>
      <path class="cls-7" d="M149.04,136.01c1.99-3.62,4.22-7.06,6.59-10.3-1.88,3.61-4.01,7.03-6.59,10.3Z"/>
      <path class="cls-7" d="M151.81,138.88c3.85-2.69,7.75-4.95,11.89-7.14-3.73,2.78-7.62,5.15-11.89,7.14Z"/>
      <path class="cls-7" d="M144.78,134.87s-.93-9.17.1-15.9c.41,5.35.37,10.65-.1,15.9Z"/>
      <path class="cls-18" d="M207.65,188.8l.62,4.56.59,4.35c.03.21.55.03.52-.18-.1-1.5-.41-2.97-.59-4.35l-.62-4.56c-.03-.21-.55-.03-.52.18h0Z"/>
      <path class="cls-40" d="M161.89,166.3c-.68-.23-1.36-.46-1.93-.71-.69-.34-1.83-.72-2.23-1.32-.27-.4-.33-.82-.05-1.18q.09-.12.41-.16c.55.03,1.09.07,1.76.19,2.32.33,4.64.77,6.87,1.22.11-.01.41-.16.41-.16-1.59-.54-3.16-.97-4.64-1.53-2.36-.65-4.53-1.54-6.74-2.65l-.72-.55c-.53-.68-.76-2.38.27-2.74.41-.16,1.44.24,1.89.39,2.36.65,4.64,1.53,6.92,2.4,1.6.65,3.31,1.28,4.9,1.82.11-.01.41-.16.41-.16l-3.79-2.4c-.48-.37-.95-.63-1.42-.89-.35-.17-.79-.22-1.23-.26-2-.38-4.02-.96-6.06-1.66-.89-.2-1.72-.74-2.35-1.41-.57-1-.52-2.2.23-3.06l-.41.16c5.37,1.32,10.54,2.77,15.83,4.32.11-.01.41-.16.41-.16l-5.45-2.71c-1.6-.65-3.19-1.19-4.76-1.62-1.24-.37-2.4-.97-3.49-1.79-.5-.47-.81-1.19-.58-1.87.17-.35.34-.69.63-.95.11-.01.2-.14.3-.15.08-.23.12.09-.11.01,1.8.51,3.46.82,5.25,1.23l6.03,1.45c.12.09.41-.16.41-.16l-5.81-1.37-3.8-.89c-.57-.25-1.13-.39-1.68-.42-.62.19-1.2.7-1.55,1.29-.58,1.27.52,2.2,1.57,2.81,2.1,1.12,4.31,1.46,6.47,2.25s4.17,2.02,6.25,3.04l.41-.16c-5.19-1.56-10.46-3-15.83-4.32-.11.01-.32.04-.41.16-.44.71-.77,1.51-.65,2.36.24.94.99,1.7,1.9,2.01,2.05.8,4.2,1.48,6.32,1.95.55.03,1.1.17,1.66.31.45.15.82.43,1.18.7l4.03,2.58.41-.16c-4.02-1.72-8.11-3.21-12.27-4.38-.47-.26-1.12-.28-1.66-.31-.93.34-1.43,1.38-1.2,2.33.25,1.05,1.17,1.46,2.09,1.88,1.27.58,2.52,1.06,3.78,1.54,2.16.79,4.43,1.56,6.68,2.22l.41-.16c-2.78-.59-5.55-1.08-8.31-1.46-.88-.1-1.73.02-1.69,1.1s1.51,1.52,2.31,1.85c.69.34,1.37.57,2.16.79.06-.33.37-.48.26-.47h0Z"/>
      <path class="cls-10" d="M103.96,204.91c7.67-4.35,23.59-22.14,23.59-22.14l-5.27-5.97s-20.37,10.12-25.74,16.2c1.64,3.83,5.89,8.07,7.42,11.91Z"/>
      <path class="cls-10" d="M99.77,203.78c.48-.69,1.04-1.6,1.61-2.4,1.91-2.65,3.83-5.19,5.64-7.82-.34-.18-4.36-.68-4.69-.76l-14.44-14.61-3.56-2.47c-3.64-3.43-13.3-12.67-16.25-11.97,0,0-1.4,8.3-.8,12.55s1.49,5.78,9.62,12.46l6.05,6.23c6.17,5.25,10.39,9.06,12.3,8.78,0,.11,4.4-.08,4.52.02Z"/>
      <path class="cls-10" d="M91.46,201.1s3.91,5.13,9.34,4.64,9.95-6.49,9.95-6.49l-10.17-6.61-9.13,8.46Z"/>
      <path class="cls-42" d="M68.53,158.01s-8.98,10.06-2.57,21.52c6.41,11.46,7.27,10.2,7.27,10.2,0,0,12.28-6.92,15.92-11.76s-18.12-19.65-18.12-19.65"/>
      <path class="cls-44" d="M89.46,177.84l1.45-1.74v-.11c-1.43-2.67-3.18-5.3-5.01-7.72-1.24-1.82-2.78-3.4-4.52-4.75-1.64-1.46-3.65-2.36-5.85-2.8-.77-.15-1.61.04-2.32.53-.3.24.45.17.65.05,0,0,.2-.13.42-.15.75-.07,1.62.07,2.29.33,2.34.86,4.4,2.29,6.08,4.18,2.74,2.98,5.09,6.31,7.13,9.89.13.2.25.41.26.51.13.2.11,0,0,.11-.08.33-.58.7-.78.93l-.69.71c.03.32.78.25.86.03h0Z"/>
      <path class="cls-44" d="M76.6,187.82c-1.11.85-2.22,1.6-3.45,2.25l.53-.05c-1.98-2.83-3.95-5.66-6.03-8.38-.13-.2-.84.18-.73.28,2.08,2.82,4.05,5.55,6.04,8.49.12.1.43-.04.53-.05,1.34-.66,2.56-1.41,3.75-2.49.18-.34-.55-.16-.65-.05h0Z"/>
      <path class="cls-40" d="M99.3,190.28c-1.81,1.35-2.67,3.79-2.04,5.99.02.21.65.05.52-.15-.62-2.09.15-4.31,1.85-5.65q.1-.12-.02-.21c-.12-.1-.22-.09-.32.03h0Z"/>
      <rect class="cls-5" x="-73.72" y="268.85" width="419.78" height="64.15"/>
      <path class="cls-10" d="M117.85,180.21c1.19-1.08,2.27-2.25,3.23-3.52.17-.55,1.65-7.89,2.05-8.25s4.5-3.74,4.5-3.74l2.87.82s3.07-.49,3.77.09c.59.59.57,1.56-.01,2.26-.29.35-.48.69-.54,1.12.54.06,1,.34,1.37.84.27.62-.59,1.77-.59,1.77.47.39.93.78,1.19,1.29.27.62-.3,1.43-.3,1.43,0,0,1.58.82,1.73,1.35s-.93,2.77-3.05,4.36c-.79.82-1.59,1.43-2.5,2.05-1.33.77-8.44,5.39-8.44,5.39l-4.21-4.89"/>
      <path class="cls-32" d="M164.33,235.22c0,2.14,1.18,1.71,2.78,1.71s2.68.43,2.68-1.71-2.68-5.89-2.68-5.89c0,0-2.78,3.75-2.78,5.89Z"/>
      <path class="cls-32" d="M158.44,235.22c0,2.14,1.18,1.71,2.78,1.71s2.68.43,2.68-1.71-2.68-5.89-2.68-5.89c0,0-2.78,3.75-2.78,5.89Z"/>
      <path class="cls-32" d="M152.23,235.22c0,2.14,1.18,1.71,2.68,1.71s2.78.43,2.78-1.71-2.78-5.89-2.78-5.89c0,0-2.68,3.75-2.68,5.89Z"/>
      <path class="cls-32" d="M143.45,235.22c0,2.14,1.18,1.71,2.68,1.71s2.68.43,2.68-1.71-2.68-5.89-2.68-5.89c0,0-2.68,3.75-2.68,5.89Z"/>
      <path class="cls-32" d="M137.13,235.22c0,2.14,1.18,1.71,2.78,1.71s2.68.43,2.68-1.71-2.68-5.89-2.68-5.89c0,0-2.78,3.75-2.78,5.89Z"/>
      <path class="cls-32" d="M130.92,235.22c0,2.14,1.18,1.71,2.68,1.71s2.68.43,2.68-1.71-2.68-5.89-2.68-5.89c0,0-2.68,3.75-2.68,5.89Z"/>
      <path class="cls-38" d="M165.3,235.87c0,1.39.86,1.07,1.82,1.07s1.82.21,1.82-1.07-1.82-3.86-1.82-3.86c0,0-1.82,2.57-1.82,3.86Z"/>
      <path class="cls-38" d="M159.3,236.08c0,1.39.86,1.07,1.82,1.07s1.82.21,1.82-1.07-1.82-3.86-1.82-3.86c0,0-1.82,2.46-1.82,3.86Z"/>
      <path class="cls-38" d="M153.2,235.87c0,1.39.75,1.07,1.82,1.07s1.82.21,1.82-1.07-1.82-3.86-1.82-3.86c0,0-1.82,2.57-1.82,3.86Z"/>
      <path class="cls-38" d="M144.31,235.87c0,1.39.86,1.07,1.82,1.07s1.82.21,1.82-1.07-1.82-3.86-1.82-3.86c0,0-1.82,2.57-1.82,3.86Z"/>
      <path class="cls-38" d="M138.1,235.87c0,1.39.86,1.07,1.82,1.07s1.82.21,1.82-1.07-1.82-3.86-1.82-3.86c0,0-1.82,2.57-1.82,3.86Z"/>
      <path class="cls-38" d="M131.78,235.87c0,1.39.86,1.07,1.82,1.07s1.82.21,1.82-1.07-1.82-3.86-1.82-3.86c0,0-1.82,2.57-1.82,3.86Z"/>
      <polyline class="cls-2" points="171.83 236.83 171.83 232.33 129.1 232.33 129.1 236.83"/>
      <rect class="cls-24" x="111" y="236.83" width="77.85" height="12.96"/>
      <ellipse class="cls-13" cx="150.84" cy="243.36" rx="4.6" ry="4.39"/>
      <path class="cls-6" d="M183.5,192.39c0-.54.21-.96.64-1.39-.32-.11-.75-.21-1.07-.32h0c.21-1.71.43-3.32-2.46-3.32-19.06.11-38.12.11-57.18.11q-4.5-.21-4.82,3.53h0l.11,7.39c0,8.03,0,16.06.11,24.09,0,4.28,2.25,6.53,6.64,7.07h51.29c3.86-.64,5.35-1.93,6.1-5.68.96-7.39.11-18.31.43-25.81"/>
      <path class="cls-6" d="M115.07,229.66c-.11,0-.21.11-.32.11.11-.11.21-.11.32-.11Z"/>
      <path class="cls-35" d="M118.82,190.78c-.32-.11-.64-.11-.96-.11h-6c-2.46,0-4.5,1.5-4.5,3.32s2.03,3.32,4.5,3.32h6c.32,0,.64,0,.96-.11v-6.43Z"/>
      <rect class="cls-13" x="111" y="249.79" width="7.6" height="2.68"/>
      <rect class="cls-13" x="181.25" y="249.79" width="7.6" height="2.68"/>
      <path class="cls-35" d="M183.07,190.78c.32-.11.64-.11.96-.11h6c2.46,0,4.5,1.5,4.5,3.32s-2.03,3.32-4.5,3.32h-6c-.32,0-.64,0-.96-.11v-6.43Z"/>
      <line class="cls-3" x1="150.52" y1="232.23" x2="150.52" y2="236.83"/>
      <path class="cls-10" d="M90.44,210.06l-19.06-12.74s-4.5-11.57-7.71-20.24c-4.93,1.93-10.07,3.11-15.31,3.64,4.18,10.17,11.89,26.13,16.38,29.66,4.82,3.75,22.81,5.46,22.81,5.46l2.89-5.78Z"/>
      <path class="cls-40" d="M71.17,197.1c-1.39.21-2.57,1.07-3.11,2.36-.11.11,0,.21.21.21.11,0,.32,0,.32-.21.54-1.07,1.39-1.71,2.57-1.93.11,0,.32-.11.32-.21s-.21-.21-.32-.21Z"/>
      <path class="cls-10" d="M92.26,220.55c.96.32,1.93.64,3,.75,2.14-1.18,3.32-3.21,4.6-5.35l-.32-.11.32.11.11-.11c.43-.86,1.07-1.71,1.93-2.36-2.14-.96-4.6-2.03-4.6-2.03.75-.21.64.54,2.36.32,2.03-.43,2.03-1.82,2.03-1.82,0,0-6.53-1.93-8.35-1.82-1.39.11-3.75.43-4.28.96l-2.03-.75c-1.29,1.18-.86,3.21-1.5,4.82-.32.86-1.18.75-1.61,1.5,1.18.32,2.14.96,3,1.82.21.96,1.71,2.14,3.53,3.21.54.32,1.18.54,1.82.86Z"/>
      <path class="cls-40" d="M86.8,216.27c-.32-.86-.11-1.93.43-2.68.11-.11-.11-.11-.11-.11-.11,0-.21.11-.32.11-.64.75-.75,1.82-.43,2.78-.11.11.54,0,.43-.11Z"/>
      <path class="cls-10" d="M55,146.13c.21-2.68.21-5.25-.11-7.92,0-1.07,0-2.25.11-3.75v-1.93c-.32-7.17-2.68-10.92-2.68-10.92-3.11-4.71-8.46-7.39-14.03-7.07-6.64.21-12.53,4.28-15.63,8.35-1.5,2.03-2.25,4.5-2.03,7.07.21,2.36.64,4.6,1.29,6.85-2.36-.11-4.6.75-3.64,5.03,1.18,5.89,5.03,7.6,6.75,6,.43.11,1.29,1.82,1.39,3.11.21,2.36.11,6.53-.96,8.57l.11.64c5.03,8.03,8.03,12.64,25.06,7.71l-5.57-7.71-.11-2.68c.96.11,1.93-.11,2.89-.43,5.14-1.39,6.96-8.25,7.17-10.92Z"/>
      <path class="cls-40" d="M44.82,157.59c-4.18.21-8.35-.86-11.99-3.11,0,0,.75,1.93,4.71,3.32,2.36.86,4.82,1.18,7.28.86v-1.07Z"/>
      <circle class="cls-14" cx="52.16" cy="136.48" r="1.39"/>
      <path class="cls-14" d="M19.98,142.17c-.32-.75-.32-1.61,0-2.25l-.21.11h.11c.21.11.32.21.54.32.86.75,1.61,1.61,2.03,2.68l.32-.21c-.21-.21-.54-.32-.86-.21s-.54.43-.54.75c0,.96.86,1.39,1.61,1.5.11,0,.32-.21.11-.21-.64,0-1.29-.43-1.39-1.07,0-.21,0-.54.11-.64s.43.11.54.21.43,0,.32-.21c-.43-.75-.86-1.39-1.5-2.03-.32-.32-.64-.64-.96-.86-.11-.11-.32-.11-.54-.21-.21,0-.32.11-.32.32-.21.75-.21,1.5,0,2.25.32,0,.64-.11.64-.21h0Z"/>
      <circle class="cls-16" cx="37.48" cy="136.67" r="1.39"/>
      <path class="cls-21" d="M41.4,137.67s-2.14-2.78-4.5-2.57c-3.43.32-3.96,1.71-4.6,2.78,1.29-1.18,2.89-2.03,4.71-2.25,2.36-.21,4.39,2.03,4.39,2.03Z"/>
      <path class="cls-23" d="M45.36,147.63c-2.03,0-5.35-.21-5.35-.21,0,0-.21,5.68,5.35,5.57,4.71-.11,4.71-5.57,4.71-5.57,0,0-2.68.21-4.71.21Z"/>
      <path class="cls-43" d="M45.36,147.63h-4.5c.54,1.93,2.36,3.32,4.28,3.32,2.03.11,3.86-1.18,4.28-3.11l-4.07-.21Z"/>
      <path class="cls-20" d="M45.47,148.05c-.96,0-3.86-.11-3.86-.11,1.29.64,2.68.86,4.07.75,2.89,0,3.75-.75,3.75-.75l-3.96.11Z"/>
      <path class="cls-23" d="M50.18,147.41c0-.11-.21-.11-.75-.21-.75-.11-1.07-.32-1.61-.43-.64,0-1.39.11-2.03.32-.64-.21-1.39-.32-2.03-.32-.54,0-2.03.21-2.78.32-.43,0-.75,0-1.18-.11-.11,0,.21,1.39,5.57,1.29s4.82-.64,4.82-.86Z"/>
      <path class="cls-9" d="M24.15,141.31v-.11c-.32-.86-.75-1.61-1.39-2.14-.32-.32-.64-.54-1.07-.75s-.86-.32-1.29-.43c-.64-.11-1.29-.11-1.82.11l-.32.11c-1.71-5.03-2.46-10.49,1.18-16.81,1.07-1.82,3.86-3.86,4.71-4.5,5.14-3.96,9.85-4.28,15.63-3.86,6.75.54,13.06,4.71,14.67,11.46.43,1.39.21,3.26.21,4.76,0,0-.96-6.47-4.28-8.4s-3.75.96-8.35,1.18c-5.25.21-7.07-2.68-11.24-.32-2.25,1.18-3.96,3.11-4.93,5.46-.54,2.36-1.61,3.86-.86,6.53.21.64.32,1.29.43,1.93.11,1.18.21,2.36.11,3.53,0,.54-.32,1.18-.75,1.5-.75.32-.11.96-.64.75Z"/>
      <path class="cls-9" d="M18.16,138.1s-5.57-4.39-2.14-15.1c.43-1.18,1.07-2.36,2.03-3.21l.86-.86c.64-2.14,1.82-4.18,3.53-5.57,2.89-2.36,10.07-2.89,13.28-5.03s4.07-3.64,4.07-3.64c.86,1.29,1.5,2.78,1.71,4.28,0,0,10.49.96,12.96,15.42,0,0-10.17-12.64-21.85-7.92-11.67,4.71-14.46,21.63-14.46,21.63Z"/>
      <path class="cls-9" d="M39.11,109.29s2.89.43,5.35-2.57c0,0,2.89,3.32.86,5.78"/>
      <path class="cls-45" d="M44.82,144.74c.54.21,1.07.32,1.61.32s1.07-.11,1.61-.21c.75-.21,1.29-1.07.96-1.82h0c-.21-.54-.54-.96-.64-1.61,0-.11-.32,0-.32.11.21.54.43,1.07.64,1.5.21.43.11.96-.21,1.29-.43.32-.86.54-1.39.54-.64.11-1.39,0-2.03-.32-.11,0-.43.11-.21.21Z"/>
      <path class="cls-45" d="M42.47,142.7c-.21,0-.43.11-.54.32s-.11.54-.11.75.11.54.21.64c.21.21.54.43.96.43.21,0,.43,0,.64-.11.21-.11.43-.21.75-.21,0,0,.11,0,.11-.11s-.11,0-.11,0c-.21,0-.32.11-.54.21-.11.11-.32.11-.54.11-.32,0-.64-.11-.86-.21-.32-.32-.43-.75-.32-1.18,0-.11.11-.21.11-.32l.11-.11h0s-.11,0,0,0q0-.11.11-.21h0Z"/>
      <path class="cls-17" d="M50.07,186.18l6,8.67c0,.32,14.56-7.71,14.56-7.71,0,0-8.46-18.53-10.92-20.99-2.89-3-14.46-6.85-14.46-6.85l4.82,26.88Z"/>
      <path class="cls-17" d="M53.71,162.94l-8.57-3.43c0,4.5-1.93,6-5.78,6.43-6.75.96-13.92-7.39-13.92-7.39l-11.24,5.89s-1.29,20.24-1.71,29.77c-.21,7.71-3.21,35.02-3.21,35.02,0,0,6.64,5.78,23.56,8.14,10.6,1.29,21.42-.21,31.27-4.28l-3.86-59.54-6.53-10.6Z"/>
      <path class="cls-4" d="M62.06,192.07c-.43-5.25-.54-10.6-.75-15.85,0-.11-.43-.11-.43.11.11,5.25.32,10.6.75,15.85,0,.21.43,0,.43-.11Z"/>
      <path class="cls-10" d="M24.69,209.52c1.07-1.93,2.46-.43,3.53-2.36l-6.85-26.66-1.18-2.03c-3.75-6.32-13.39-2.57-11.99,4.6,0,.11-.75,4.5-.75,4.6,1.39,6.32,1.71,9.96,2.68,12.74s3.21,11.99,5.89,13.49c.32.21,1.61.11,1.93.21.32-2.68,5.35-2.14,6.75-4.6Z"/>
      <path class="cls-10" d="M52.32,211.99l-24.95-7.92c-.86.32.32.96-.54,1.29-2.68.75-5.35,1.71-7.92,3-1.07.64-4.07,2.14-4.92,3,1.29,5.03,9.14,6.58,9.14,6.58,4.5,1.39,16.21.98,16.21.98l11.16-.6,1.82-6.32Z"/>
      <path class="cls-17" d="M5.52,196.89l20.35-4.07-5.89-31.06s-10.49,2.78-13.49,12.42-.96,22.7-.96,22.7Z"/>
      <path class="cls-4" d="M24.37,193.25c.96-.11,1.93-.21,2.89-.43,0,0,.32-.11.32-.21-.54-4.82-1.29-9.64-2.36-14.35-.75-3.64-1.61-7.6-5.25-9.42-.11-.11-.54.11-.54.21,3.75,1.82,4.5,6.1,5.25,9.85.96,4.6,1.71,9.21,2.25,13.92l.32-.11c-.96.11-1.93.21-2.89.43-.11-.11-.32.11,0,.11h0Z"/>
      <path class="cls-40" d="M27.69,204.06c-.96.21-1.93.54-2.78.96-.75.43-1.29,1.18-1.39,2.03,0,.21.64.11.64-.11.11-.75.54-1.5,1.29-1.93.75-.43,1.61-.75,2.46-.86.11,0,.32-.11.32-.21s-.43.11-.54.11h0Z"/>
      <path class="cls-29" d="M2.09,244.54h93.06c1.93,0,3.53,1.61,3.53,3.53v.86c0,1.93-1.61,3.53-3.53,3.53H2.09c-1.93,0-3.53-1.61-3.53-3.53v-.86c0-1.93,1.61-3.53,3.53-3.53Z"/>
      <path class="cls-47" d="M61.1,234.9c2.89.86,5.89,1.18,9,1.18,1.61-.21,3.21-.32,4.82-.21s3.21.86,4.18,2.14c1.29,1.93.64,4.5-1.29,5.78-.11,0-.11.11-.21.11-.96.43-1.93.64-2.89.64-2.46.32-4.93.43-7.39.32-2.46,0-4.93-.64-7.07-1.82-2.14-1.18-3.53-3.53-3.75-6,0-.86.21-1.71.75-2.36.54-.64,1.39-.96,2.25-.86.64.21,1.18.54,1.61,1.07"/>
      <path class="cls-12" d="M102.22,211.77c-3-1.82-6.75-.43-9.96,1.07-.86.32-1.5.86-2.14,1.39-1.71,1.82-1.93,4.5-.75,6.75,1.29,2.14,3.53,3.43,6,3.43s4.82-1.07,6.53-2.78c.64-.75,1.29-1.5,2.03-2.14.75-.64,1.71-1.07,2.46-1.82.96-.86,1.61-2.14,1.61-3.43,0-1.39-.86-2.57-2.14-3.11-1.39-.43-3.11-.54-3.64.64"/>
      <path class="cls-46" d="M70.2,201.28c.21,0,.11-.21.21-.21s.11-.32.32-.21.54.11.54.43c-.21,1.29-.64,2.46-1.39,3.64-1.18,1.82-3,3.11-5.14,3.64-.96.21-1.61.96-1.82,1.82-.64,2.25-1.07,4.6-1.61,6.85-.54,2.14-1.29,4.07-2.46,5.89-.43.75-1.18,1.18-2.03,1.39-1.39.21-2.68-.75-2.89-2.14h0c-.11-.96,0-1.93.32-2.78.54-2.03,1.39-4.07,2.46-5.89.86-1.61,1.71-3.11,2.57-4.71.54-.75.43-1.82-.11-2.57-1.07-1.61-1.61-3.43-1.5-5.35.11-1.5.64-3,1.39-4.28.11-.21.43-.21.75,0s.11.32,0,.43-.21.21,0,.21c.11.11.11.32.21.43-.11.11-.11.21-.11.32-.11.11-.32.11-.43.21-.21-.11-.21.11-.21.21-.32,1.07-.32,2.25.11,3.32.54,1.71,1.93,3,3.64,3.53,2.68.96,5.57-.11,6.85-2.57,0-.11.21-.21.11-.32s-.21-.32-.21-.54c.11-.11.11-.21.11-.32,0-.32.21-.32.32-.43ZM56.82,218.95c-.64.43-1.18.96-1.39,1.71-.11.32-.21.75-.11,1.18.11.64.64,1.07,1.29.96.21,0,.43-.11.54-.21.86-.86,1.18-2.03.75-3.21-.11-.43-.54-.54-.96-.43,0,0-.11,0-.11,0Z"/>
      <path class="cls-48" d="M59.92,197.74c0-.11-.11-.32-.21-.43.32-.32.75-.32,1.07-.21l8.78,3.32c.43.11.64.43.64.86-.11,0-.32.11-.43.21-.21-.11-.43-.21-.75-.32.11-.21-.11-.21-.21-.32l-2.25-.86-5.57-2.14c-.11-.11-.32-.11-.43.11-.21-.11-.43-.21-.64-.21Z"/>
      <path class="cls-36" d="M69.88,202.24c-.43.32-.96.32-1.39.11l-8.25-3.21c-.43-.11-.75-.54-.86-.96.21,0,.32-.11.43-.21.11.21.43.11.64.32,0,.11.11.21.32.32l7.82,3c.11.11.32.11.43,0,.21,0,.43.21.64.11,0,.21.11.43.21.54Z"/>
      <path class="cls-30" d="M60.46,198.39c-.21-.21-.43-.11-.64-.32,0-.11,0-.21.11-.32.21.11.54.11.75.21-.11.21-.11.32-.21.43Z"/>
      <path class="cls-30" d="M69.67,201.81c-.21,0-.43-.21-.64-.11,0-.11,0-.32.11-.43.21.11.43.21.75.32-.11,0-.21.11-.21.21Z"/>
      <path class="cls-10" d="M98.26,222.69c-.32-.21-.64-.32-1.07-.32s-.75.43-.86.86c0,.32.21.54.43.75.43.43,2.89,1.71,2.89.43-.21-.64-.75-1.39-1.39-1.71Z"/>
      <path class="cls-10" d="M104.26,221.3c.64-.43.43-1.29.21-1.93-.11-.43-.64-1.82-1.18-1.82-.21,0-.54,0-.75.11-.86.43-.43,1.5-.11,2.25s1.07,1.93,1.82,1.39Z"/>
      <path class="cls-10" d="M101.69,223.44c0-.11,0-.21-.11-.32-.11-.32-.21-.54-.43-.75-.43-.54-.86-1.07-1.29-1.61-.54-.54-1.18,0-1.39.64-.11.54,0,1.18.32,1.71.54.64,3.11,1.93,2.89.32Z"/>
      <path class="cls-10" d="M103.08,222.05c-.21-.86-.54-1.61-.86-2.36-.32-.54-.96-.64-1.5-.32-.54.43-.21,1.07-.11,1.61.11.32.21.64.32.96.21.54.54.86,1.07,1.07.64.21,1.29-.11,1.07-.96Z"/>
      <path class="cls-10" d="M49,211.56c1.29.21,2.46.21,3.75.21.43-.11,5.57-2.89,6.1-2.78s4.5.86,4.5.86l.86,2.14s1.82,1.61,1.82,2.36-.86,1.18-1.39,1.07c-.32,0-.64.11-.96.21.21.32.32.86.21,1.18-.21.54-1.39.54-1.39.54,0,.43-.11.86-.21,1.29-.21.54-.96.54-.96.54,0,0,.32,1.39.11,1.71s-2.14.86-4.18.21c-.86-.11-1.71-.21-2.46-.43-1.07-.43-7.39-2.46-7.39-2.46l.86-4.93"/>
      <path class="cls-50" d="M101.26,214.34h0l-.11.11h-.32.11-.11.11l.11.11h0v.11h0v.11-.11.11-.11h.32-.11.11-.11.11-.11s-.11,0-.11-.11h0v-.11c0-.11-.11-.11-.11-.11h-.21c-.11,0-.21.11-.21.11l-.11.11c0,.21.21.32.32.32.32,0,.54,0,.86-.21q.11-.11.11-.21v-.21c0-.11-.11-.11-.21-.11s-.21-.11-.32-.11-.32,0-.43.11-.21.21-.32.32c0,0,0,.11.11.11h.21c.11,0,.21,0,.21-.11.11.11.21,0,.21-.11h0Z"/>
      <path class="cls-50" d="M92.91,220.98l.21-.21v-.11h-.54c-.32.11-.54.32-.75.54v.11h.21c.11,0,.21,0,.32-.11.11,0,.11-.11.21-.11l.11-.11h0l.21-.11h-.11l.11-.11h0l-.43-.11-.21.21v.11h.43c.11,0,.21,0,.21,0h0Z"/>
      <path class="cls-50" d="M94.73,216.59c.11-.11.32-.21.43-.32s.21-.21.21-.43v-.11c-.11-.11-.32-.11-.54-.11-.11,0-.21.11-.32.11s-.11.11-.21.11v.11h.21c.11,0,.21,0,.21-.11.11,0,.11-.11.21-.11h0-.32.11v-.11.11h0c-.11.11-.11.21-.21.32h0q-.11.11-.21.11h.11l-.11.11s0,.11.11.11h.21c0,.32.11.21.11.21h0Z"/>
      <path class="cls-12" d="M33.9,243.04c.21.64.64,1.18,1.29,1.39,1.07.43,2.25.54,3.32.54.96,0,1.93-.11,2.89-.43.54-.21,1.18-.64,1.07-1.29,0-.21-.11-.32-.32-.54-.64-.64-1.61-.96-2.57-.96-.96.11-1.93.32-2.78.54-.75.11-1.39.11-2.14,0,0,.11-.96-.11-.75.75Z"/>
      <path class="cls-12" d="M47.82,241.86l2.68-.11c.64-.11,1.39,0,2.03.11.64.21,1.29.64,1.5,1.29.11.32.11.64-.11.86-.21.21-.43.32-.75.43-2.03.54-4.18.64-6.21.32-.43,0-.96-.21-1.29-.43-.43-.32-.54-.75-.43-1.18.11-.21.32-.43.43-.54.11-.21,1.39-.32,1.29-.43"/>
      <path class="cls-12" d="M64.31,242.29c-.75.43-1.61.64-2.57.86-.86.11-1.71.11-2.57-.11-.64-.21-1.39-.32-2.03-.32h0c-.21.21-.32.32-.43.54-.11.43,0,.96.43,1.18.43.21.86.43,1.29.43,2.03.32,4.18.21,6.21-.32.32,0,.54-.21.75-.43.21-.32.21-.64.11-.86-.32-.32-.75-.75-1.18-.96Z"/>
      <path class="cls-12" d="M31.22,242.18c-2.46-.32-4.93-.21-7.39-.54-.21-.11-.54-.11-.75,0-.54.21-.64.75-.75,1.29-.21.54-.11,1.18.11,1.71.54.64,5.35.21,6.21.11l3.11-.54c.21,0,.32,0,.54-.11.43-.32.54-.86.21-1.29h0c-.32-.43-.86-.64-1.29-.64"/>
      <path class="cls-12" d="M19.23,242.93c-1.93-.43-4.07-.43-6,.21-.32,0-.64.21-.96.43s-.43.64-.21.96c.21.32.64.43,1.07.43,2.46.21,4.82.11,7.28-.11.32,0,.54-.11.75-.32.21-.32-.11-.75-.43-.96s-.75-.21-1.07-.43"/>
      <path class="cls-9" d="M231,64.12c-.4-.01-.68-.07-1.08-.04-2.21.15-4.36.48-6.5,1.09-1.88.53-3.62,1.36-5.35,2.22-.11-.38-.19-.17-.3-.56-.14-.51-.28-1.01-.41-1.52,4.43-1.64,7.91-2.34,9.22-2.41.99-.05,1.98.05,2.94.26,0,0,2.64.54,3.02.88s-1.53.08-1.53.08Z"/>
      <path class="cls-9" d="M198.79,68.09c.02-.06.03-.13.06-.19,0,0,0,0,0,0,.4-.24.9-.51,1.5-.74,1.05-.4,3.99-.97,7.98-1.08.14.72.29,1.44.43,2.15-1.67-.16-3.34-.29-5.01-.11-1.57.17-3.18.49-4.7.99-.07-.14-.15-.28-.21-.43-.03-.1-.05-.21-.06-.31,0-.09,0-.18.02-.27Z"/>
      <path class="cls-31" d="M219.25,71.44s3.03,1.03,6.51.31c4.02-.84,5.22-2.76,5.22-2.76,0,0-2.54-.69-4.57-.59s-5.67,1.12-7.16,3.04Z"/>
      <path class="cls-31" d="M209.1,72.19s-2.47,1.78-4.94,2.14c-3.21.47-4.03-1.7-4.03-1.7,0,0,1.22-1.23,2.77-1.63s4.51.23,6.2,1.19Z"/>
      <path class="cls-9" d="M219.17,71.44s2.46-2.87,5.82-3.42c2.56-.41,4.76-.04,5.99.97,0,0-3.94-.51-5.74-.19s-6.07,2.64-6.07,2.64Z"/>
      <path class="cls-9" d="M230.86,69.14s1.11.22,1.52-1.17c0,0-1.84,1.07-4.1.66l2.58.51Z"/>
      <path class="cls-9" d="M209.26,72.25s-2.27-1.35-3.74-1.47c-3-.24-4.88.3-5.51,2.06,0,0,2.65-1.58,5.22-1.35,1.45.13,4.03.75,4.03.75Z"/>
      <path class="cls-9" d="M200.2,72.73s-.81.8-1.92-.14c0,0,1.1.57,2.78-1.01l-.86,1.15Z"/>
      <path class="cls-9" d="M203.65,70.9c-.75-.19-1.45.3-1.8.79-.08.12-.29.44-.31.92-.03.6.35,1.19.79,1.5.59.41,1.4.31,1.93-.12.72-.58.75-1.63.37-2.3-.07-.12-.38-.64-.98-.79"/>
      <path class="cls-9" d="M223.34,68.85c.58-.51,1.43-.39,1.96-.11.12.07.46.26.7.67.3.53.23,1.22-.03,1.69-.34.63-1.1.91-1.77.77-.91-.19-1.41-1.11-1.38-1.88,0-.14.05-.74.52-1.15"/>
      <path class="cls-9" d="M112.34,120.32s0-.01,0-.02c0,0,0,0,0-.03,0-.04,0-.08-.02-.12-.01-.07-.02-.14-.04-.21,0,0,0-.01,0-.02-.06-.04-.1-.07-.1-.07-.57-.39-1.19-.68-1.82-.84-.83-.21-3.13-.25-6.15.36,0,.06-.19.06-.19.11.07.62-.05,1.2-.02,1.82,1.19-.43,2.87-1.11,4.1-1.22,1.44-.13,2.79.38,4.21.69.02,0,.03,0,.05.01,0-.16.01-.32,0-.49Z"/>
      <path class="cls-9" d="M97.84,119.49c0-.06-.22-.05-.22-.11-3.49-.48-6.1-.32-7.05-.07-.72.19-1.4.52-2.04.94,0,0-1.77,1.13-1.96,1.54-.2.41,1.11-.29,1.11-.29.28-.11.47-.22.76-.29,1.61-.38,3.12-.97,4.77-.91,1.41.05,3.36.66,4.74,1.04,0-.64-.16-1.22-.11-1.85Z"/>
      <path class="cls-31" d="M88.1,125.6s3.24,1.88,5.66,1.37c2.43-.51,3.97-1.44,3.97-1.44,0,0-1.86-1.93-3.61-2.06s-5.29.33-6.03,2.14Z"/>
      <ellipse class="cls-9" cx="93.65" cy="125.05" rx="1.77" ry="1.66" transform="translate(-31.83 218.13) rotate(-89.74)"/>
      <path class="cls-9" d="M97.76,125.46s-3.03-3.26-5.76-2.41c-3.09.97-3.53,1.7-3.9,2.54,0,0,1.06-1.15,4.08-1.85,2.74-.63,5.57,1.71,5.57,1.71Z"/>
      <path class="cls-31" d="M104.34,125.3s3.93.74,5.18.07,1.84-1.78,1.84-1.78c0,0-.47-1.27-2.01-1.32s-3.16-.31-5.01,3.04Z"/>
      <path class="cls-9" d="M110.24,123.67c-.05.97-.85,1.72-1.78,1.66-.93-.05-1.64-.89-1.59-1.86.05-.97,1.13-1.56,2.06-1.5.93.05,1.36.73,1.31,1.7Z"/>
      <path class="cls-9" d="M110.5,122.45c-.8-.41-1.25-.67-2.82-.52-2.51.24-3.34,3.37-3.34,3.37,0,0,1.04-2.35,3.51-2.65,1.19-.14,2.58.45,3.5.94-.03-.25-.38-.79-.85-1.13Z"/>
      <path class="cls-9" d="M55.11,132.81s.05-.09.08-.14c0,0,0,0,0,0,0-.01.01-.03.01-.04.01-.04.02-.08.03-.12,0,0,0-.01,0-.02,0-.04,0-.09,0-.13,0,0,0,0,0-.02,0-.04-.02-.08-.03-.12-.01-.05-.03-.1-.04-.14,0-.02-.03-.08-.04-.09,0-.02-.02-.04-.02-.05-.02-.04-.04-.09-.06-.13-.04-.08-.09-.16-.13-.24-.28-.12-.56-.23-.85-.3-.83-.21-3.13-.25-6.15.36,0,.06-.19.06-.19.11.07.62-.05,1.2-.02,1.82,1.19-.43,2.87-1.11,4.1-1.22,1.13-.1,2.21.19,3.3.47,0,0,0,0,0,0Z"/>
      <path class="cls-9" d="M41.55,131.74c0-.06-.22-.05-.22-.11-3.49-.48-6.1-.32-7.05-.07-.72.19-1.4.52-2.04.94,0,0-1.77,1.13-1.96,1.54-.2.41,1.11-.29,1.11-.29.28-.11.47-.22.76-.29,1.61-.38,3.12-.97,4.77-.91,1.41.05,3.36.66,4.74,1.04,0-.64-.16-1.22-.11-1.85Z"/>
      <path class="cls-31" d="M31.81,137.84s3.24,1.88,5.66,1.37c2.43-.51,3.97-1.44,3.97-1.44,0,0-1.86-1.93-3.61-2.06s-5.29.33-6.03,2.14Z"/>
      <ellipse class="cls-9" cx="37.36" cy="137.29" rx="1.77" ry="1.66" transform="translate(-100.1 174.03) rotate(-89.74)"/>
      <path class="cls-9" d="M41.47,137.71s-3.03-3.26-5.76-2.41c-3.09.97-3.53,1.7-3.9,2.54,0,0,1.06-1.15,4.08-1.85,2.74-.63,5.57,1.71,5.57,1.71Z"/>
      <path class="cls-31" d="M47.88,137.54s3.93.74,5.18.07,1.84-1.78,1.84-1.78c0,0-.47-1.27-2.01-1.32s-3.16-.31-5.01,3.04Z"/>
      <path class="cls-9" d="M53.78,135.91c-.05.97-.85,1.72-1.78,1.66-.93-.05-1.64-.89-1.59-1.86.05-.97,1.13-1.56,2.06-1.5.93.05,1.36.73,1.31,1.7Z"/>
      <path class="cls-9" d="M54.04,134.7c-.8-.41-1.25-.67-2.82-.52-2.51.24-3.34,3.37-3.34,3.37,0,0,1.04-2.35,3.51-2.65,1.19-.14,2.58.45,3.5.94-.03-.25-.38-.79-.85-1.13Z"/>
    </g>
    <path class="cls-45" d="M215.54,82.54c-.84.4-1.76.61-2.69.59-.71.07-1.43-.07-2.07-.41-.58-.33-.87-1-.73-1.64.09-.28.2-.56.33-.83.17-.42.3-.85.4-1.29.03-.16-.31-.04-.33.09-.17.66-.39,1.3-.66,1.92-.17.43-.12.91.12,1.3.68,1.14,2.19,1.14,3.35,1.05.83-.06,1.65-.28,2.4-.66.22-.06.1-.27-.05-.18l-.07.05Z"/>
    <path class="cls-45" d="M218.77,80.07c.59-.07.73.84.74,1.25.04.27-.03.54-.19.76-.29.29-.69.46-1.1.48-.52-.03-1.03-.12-1.53-.27-.08,0-.16.02-.23.06,0,0-.15.12-.09.12.5.15,1.01.25,1.53.28.49-.04.97-.21,1.38-.49.31-.2.52-.53.55-.9.02-.33-.02-.66-.12-.97-.09-.32-.32-.61-.7-.56-.09,0-.17.03-.25.07,0,0-.1.11.02.08l-.02.07Z"/>
  </g>
</svg>