<?xml version="1.0" encoding="utf-8"?>
<!-- Generator: Adobe Illustrator 26.0.1, SVG Export Plug-In . SVG Version: 6.00 Build 0)  -->
<svg version="1.1" id="Layer_1" xmlns="http://www.w3.org/2000/svg" xmlns:xlink="http://www.w3.org/1999/xlink" x="0px" y="0px"
	 viewBox="0 0 292.9 302" style="enable-background:new 0 0 292.9 302;" xml:space="preserve">
<style type="text/css">
	.st0{clip-path:url(#SVGID_00000059269081532731844830000013110425817528381880_);}
	.st1{fill:#C3E6F7;}
	.st2{fill:#0A2F44;}
	.st3{fill:#A382AD;}
	.st4{fill:#C79E81;}
	.st5{fill:#151210;stroke:#231F20;stroke-width:0.24;stroke-miterlimit:10;}
	.st6{fill:#CCB631;}
	.st7{fill:#283E1B;}
	.st8{fill:#4F2E25;}
	.st9{fill:#151210;}
	.st10{fill:#231F20;}
	.st11{fill:#1D170F;}
	.st12{fill:#975449;}
	.st13{fill:#31160E;}
	.st14{fill:#F1EEF7;}
	.st15{fill:#13110F;}
	.st16{fill:#F79224;}
	.st17{opacity:0.67;fill:#F58235;enable-background:new    ;}
	.st18{fill:#565656;}
	.st19{fill:#848484;}
	.st20{fill:#CFCFCF;}
	.st21{opacity:0.27;fill:#CFCFCF;enable-background:new    ;}
	.st22{fill:#27153C;}
	.st23{fill:#774E80;}
	.st24{fill:#FFFFFF;}
	.st25{fill:#52656C;}
	.st26{opacity:0.35;}
	.st27{fill:#4C301E;}
	.st28{fill:#87654D;}
	.st29{fill:#B7AC8A;}
	.st30{fill:#F47920;}
	.st31{fill:#AD3624;}
	.st32{fill:none;stroke:#282B2B;stroke-width:1.93;stroke-miterlimit:10;}
	.st33{fill:#61686C;}
	.st34{fill:#282B2B;}
	.st35{fill:#8E8E8E;}
	.st36{fill:#383838;}
	.st37{fill:none;stroke:#282B2B;stroke-width:2.02;stroke-miterlimit:10;}
	.st38{fill:#513835;}
	.st39{fill:#906143;}
	.st40{fill:#517568;}
	.st41{fill:#162916;}
	.st42{fill:#603F1A;}
	.st43{fill:#E3BB8F;}
	.st44{fill:#AA834F;}
	.st45{fill:#0A0B0B;}
	.st46{fill:#B5B5B5;}
	.st47{fill:#B7B7B8;}
	.st48{fill:#6E6E6E;}
	.st49{fill:#717170;}
	.st50{fill:#747474;}
	.st51{fill:#7A5931;}
</style>
<g>
	<g id="Layer_1_00000183951848779900435790000004732320492619976584_">
		<g>
			<defs>
				<path id="SVGID_1_" d="M283.5,125.2c-0.9-7.6-13.5-13.9-15.9-15c0.7-1.3,0-2.9-2.8-6.8l-4.3-10.1c0,0,19.4-50.8-17.8-58.7
					c0,0-19.1-5.9-28.3,9.3C155.3,6.9,77.2,24.7,40.1,83.8c-5.1,8.2-9.3,16.9-12.4,26c-0.7,0.3-1.3,0.6-1.9,1.1
					c-1.6,1.4-2.8,3.2-3.3,5.2l-0.8,0.8c-0.9,0.8-1.6,1.9-1.9,3c-3.3,9.9,2,14,2,14s-0.5,2.7,0,0.7c-1.1,6.6-0.9,9.4-0.9,16.3
					c0,2,0.1,3.9,0.1,5.9c-3.1,1.4-8.4,4.6-10.3,10.7c-2.8,9-0.8,21.2-0.8,21.2l3.3,0.2c0.3,1.6,6.6,3.4,7,4.6c0.7,2.5,2,7,4.5,10.6
					c1.6,2.1,3.7,2.4,5,2.9s3,0.7,5.1,1.3c21,40.7,63.6,69,112.6,69c58.9,0,108.5-39.8,122.5-94.4c0,0,0.8-3.7,1.4-6.3
					c0.2-1.5,0.5-3,1-4.5c0.6-1.1,8.4-21.4,9.4-26.6S284.5,133.7,283.5,125.2z"/>
			</defs>
			<clipPath id="SVGID_00000170270128007320404360000010398144666441499787_">
				<use xlink:href="#SVGID_1_"  style="overflow:visible;"/>
			</clipPath>
			<g style="clip-path:url(#SVGID_00000170270128007320404360000010398144666441499787_);">
				<circle class="st1" cx="147.2" cy="151.8" r="126.4"/>
				<path class="st2" d="M18.6,269.1c2.1,0.2,3.9,1.3,9.6,2.2c3,0.5,6,0.9,9,1c1.7,0.1,3.3,0,5-0.4c0.8-0.2,2.4-0.7,3.2-0.9l0.5-3.3
					l0.8-33l5.3-16.8l-35.6-0.8l-0.8,5.6c-0.7,4.7-0.7,9.4,0.1,14.1l3.1,16.6C18.9,253.4,18.7,266.8,18.6,269.1z"/>
				<path class="st2" d="M58.1,273.9c3.3-0.2,7.5-0.7,9.8-2.7l1-49.2l-24-4.9l2.2,55.3C50.7,272.4,54.4,274.1,58.1,273.9z"/>
				<path class="st3" d="M266.4,110.9c5.2,3,10,7.3,12.7,12.7c8.1,16.1-4.4,32-5.5,47.7c-0.4,5.9-1.4,19.7-0.2,24.1
					s10.7,26.2,12.2,36.8s-0.8,16.4-0.8,16.4l-24.5-72.9l1.5-62.6L266.4,110.9z"/>
				<path class="st3" d="M237.6,119.3c0.3-5.2-1.2-10.3-4.1-14.6l-5.1,1.7l-10.2,0.2l-12.5,4.4c-2.2,1.1-4.8,2-7.4,5
					c-5.6,6.9-7,18.8-9.4,27.2c-0.8,2.8-8,33.1-6.7,33.7c9.2,3.8,15.2-4.5,20.7,3.9c1.7-4,3.8-7.7,6.2-11.3
					c7.3-11.2,16.4-21.3,22.8-33.2C234.8,131.1,237.2,125.4,237.6,119.3z"/>
				<path class="st3" d="M206.9,182.5c2.6-4.3-5.2-3-4.2-7.9c0.8-3.7,1-7.5,0.8-11.2l-0.3,0.9l-28.9-13.4l-10.5-5.4
					c-2.2,6.4-5.1,7.7-9.6,12.9c12.1,10.6,24.8,20.7,37.9,30c1.9,0.9,4.1,1.3,6.2,1.1c3.1-0.6,5.9-2,8.2-4.2
					C207.3,184.5,206.7,182.9,206.9,182.5z"/>
				<path class="st4" d="M124.7,218.4c0,0.1,0,0.2,0,0.3c-0.3,0.8-2.1,4.1-2.2,7.2c0,2.8-0.1,6.9-0.1,8.3c0,0.3,0.2,0.6,0.6,0.6
					c0,0,0.1,0,0.1,0c0.5-0.1,1.1-0.4,1.5-1.5c0.3-1.2,0.6-2.5,0.7-3.8c0-0.3,0.3-0.5,0.6-0.5c0.1,0,0.2,0.1,0.3,0.1l0,0
					c0.1,0.1,0.2,0.3,0.2,0.5l-0.3,3.9c0,0.2-0.1,0.4-0.3,0.5c-0.8,0.3-2.6,1.1-3.1,2.3c-0.1,0.3,0,0.6,0.3,0.7c0.1,0,0.1,0,0.2,0
					l2.6-0.1h0.1l2.6-0.6c0.1,0,0.2-0.1,0.3-0.1l2.3-2.2c0.1-0.1,0.1-0.2,0.2-0.2l1.9-6.9c0.2-0.6,0.2-1.3,0-1.9
					c-0.5-1.8-0.8-3.7-1.1-5.5c-0.4-3.6-0.6-6-0.8-7.1c0-0.3-0.3-0.5-0.6-0.5c0,0-0.1,0-0.1,0l-6,2c-0.3,0.1-0.4,0.3-0.4,0.6
					L124.7,218.4z"/>
				<path class="st4" d="M118.1,148.3c0.8,0.3,8.1,8.4,9.8,13.8s1.8,16.7,2.6,21.4c0.9,4.8,1.5,10.2,2,16.3c0.1,1.6,0.2,3.2,0.1,4.7
					l-0.7,13l-5.3-1c0,0-4-33.1-7-40.6S118.1,148.3,118.1,148.3z"/>
				<path class="st5" d="M120.4,108.4c-2.7-7.3-6.4-9.7-13.7-11.2c-8-1.7-18.9,1.2-22.9,8.6c-2.7,5-3.8,12.9-4.6,18.6
					c-0.6,3.8-1.1,7.6-1.7,11.4c-0.2,0.9-0.2,1.8,0.2,2.6c0.6,0.8,1.4,1.4,2.4,1.6c4,1.3,8.2,1.5,12.3,0.5l9.2,2.5l15.9-3
					c1.1-0.1,2.2-0.6,3-1.3c0.6-0.9,1-2,1-3.1C122.4,127.9,123,115.7,120.4,108.4z"/>
				<path class="st4" d="M120.2,130.7c0.3-2.6,0.3-5.1,0-7.7c0-1,0-2.2,0.1-3.6c0-0.4,0-0.8,0-1.2c0-0.2,0-0.4,0-0.6
					c-0.3-6.9-2.6-10.6-2.6-10.6c-3-4.6-8.2-7.2-13.6-6.9c-6.4,0.2-12.2,4.1-15.1,8.1c-1.5,2-2.2,4.4-2,6.8c0.2,2.3,0.7,4.5,1.3,6.7
					c-2.2-0.1-4.4,0.8-3.6,4.9c1.2,5.7,4.6,7.4,6.6,5.7c1,0.6,1.2,2.1,1.3,3.3c0.2,2.3,0.1,6.1-1,8.1l0.1,0.6
					c4.9,7.7,7.8,12.2,24.3,7.4l-5.3-7.5l-0.1-2.6c0.9,0,1.9-0.2,2.8-0.4C118.4,139.9,119.9,133.3,120.2,130.7z"/>
				<path class="st4" d="M118.6,151.1c0.8,0.2,7.3,3.3,8.8,8.1c1.5,4.9,0.6,19.7,1.3,23.9c0.7,4.3,1.3,9.3,1.8,14.8
					c0.1,1.4,0.2,2.9,0.1,4.3l-0.6,11.8l-4.8-0.9c0,0-3.7-30.2-6.4-37S118.6,151.1,118.6,151.1z"/>
				<path class="st6" d="M132.4,169.1c-2.2-6.2-2.7-14.9-12.9-20.7c-1.4-0.8-6.5-3.7-8.7-3.8c0.5,1.2,0.8,2.5,0.6,3.8
					c-0.5,1.9-0.8,2.3-2.3,3.2c-1.4,0.8-5.3,1-6.9,0.6c-4.9-1.1-8.6-6.1-10.4-9.2c-3.4,1-6.7,2.3-9.8,4c-14.2,7.3-9.7,22.8-9.7,22.8
					c1,4.8,3.4,14.4,3.4,14.4c-1.2,6.1-1.5,8.2-1.7,9s-7.8,67-9.1,79.6c4,3.1,4.5-1.2,10.2,0.7s7.5,2,11.4,0s7.2-1.4,12.3,0.7
					s9.2-0.2,12.1-0.3s6.9,1.7,12.1,1.9s5.7-2.3,8.8-2.1c-0.2-4.1-4-79.2-7.3-87.7c-0.2-5.4,0.2-11.7,0.2-11.7
					S130.6,173,132.4,169.1z"/>
				<path class="st7" d="M123.7,185.4c-3.4-0.8-6.9,0.1-10.3,0.3c-3.8,0.3-7.7,0.3-11.5,0.3c-3.8-0.1-7.6-0.4-11.3-0.9
					c-3.8-0.3-7.8-0.2-11.7-0.2c-0.3,0-0.8,0.4-0.3,0.4c3.7,0,7.5-0.1,11.2,0.2s7.5,0.9,11.3,0.9c3.5,0,7,0,10.6-0.2
					c3.8-0.2,7.8-1.3,11.6-0.4C123.5,185.9,124.1,185.5,123.7,185.4z"/>
				<path class="st8" d="M110.4,141.7c-4.1,0.2-8.1-0.9-11.6-3c0,0,0.7,1.8,4.6,3.2c2.2,0.8,4.6,1.1,7,0.8L110.4,141.7z"/>
				<path class="st9" d="M90,125.3C90,125.3,90,125.2,90,125.3c-0.3-0.9-0.7-1.6-1.3-2.2c-0.3-0.3-0.6-0.5-1-0.7
					c-0.4-0.2-0.8-0.3-1.2-0.4c-0.6-0.1-1.2-0.1-1.7,0.1l-0.3,0.1c-1.6-4.8-2.3-10,1.1-16c1-1.7,3.7-3.7,4.5-4.3
					c4.9-3.7,9.4-4.1,14.9-3.6c6.4,0.5,12.4,4.5,14,10.9c0.4,1.6,1.4,3.8,1.3,5.4c0,0-2.1-7-5.2-8.8s-3.6,0.9-8,1.1
					c-5,0.2-6.8-2.5-10.8-0.3c-2.1,1.1-3.8,3-4.7,5.2c-0.5,2.2-1.5,3.7-0.8,6.2c0.2,0.6,0.3,1.2,0.4,1.8c0.1,1.1,0.2,2.2,0.1,3.3
					c0,0.6-0.3,1.1-0.7,1.4C90,124.8,90.6,125.5,90,125.3z"/>
				<path class="st10" d="M90.4,125.2c-0.5-2.5-3.8-4.3-6.2-3.2l0.5,0.1c-1.3-4-1.9-8.1-0.6-12.2c0.6-2.2,1.8-4.2,3.4-5.8
					c1.3-1.2,2.7-2.3,4.1-3.2c3.9-2.4,8.2-2.9,12.7-2.6c3.8,0.2,7.4,1.7,10.3,4.2c1.6,1.4,2.8,3.2,3.5,5.2c0.4,1,0.6,2.1,0.9,3.1
					c0.5,1.1,0.7,2.3,0.8,3.6l0.7-0.1c-0.7-2.5-1.8-4.9-3.3-7c-0.8-1.2-2-2.1-3.4-2.5c-1.3-0.3-2.4,0.4-3.6,0.9
					c-2.3,0.9-4.9,0.9-7.2,0.2c-1.5-0.5-3.1-0.7-4.6-0.6c-3.2,0.7-5.9,3-7.1,6.1c-0.8,1.8-1.2,3.7-1.1,5.7c0.4,1.6,0.6,3.3,0.7,5
					c0,0.3,0,0.6-0.1,0.9c-0.1,0.6-0.3,0.8-0.7,1.3c0,0-0.2,0.2-0.2,0.3c0,0.4-0.2,0.3,0.2,0.4c-0.3,0-0.7,0.4-0.2,0.5h0.2
					c0.2,0,0.3,0,0.4-0.2c0.1-0.1,0-0.2,0.1-0.4c0.2-0.3,0.4-0.6,0.6-1c0.4-0.9,0.6-2,0.4-3c-0.2-2.4-1.1-4.6-0.4-7
					c0.9-3.2,2.2-5.9,5.4-7.6c1.8-1,3.5-0.7,5.4-0.2c1.7,0.5,3.6,0.8,5.4,0.7c1.5-0.2,3-0.7,4.3-1.4c1.7-0.7,3.3,0.1,4.4,1.5
					c1.7,2.2,2.9,4.7,3.6,7.4c0.1,0.3,0.7,0.2,0.7-0.1c0.1-2.1-0.9-4.2-1.5-6.1c-0.6-1.9-1.6-3.6-2.9-5.1c-2.7-2.8-6.3-4.6-10.1-5.1
					c-4.2-0.7-8.6-0.3-12.6,1.4c-3.5,1.6-7.3,4.4-9,8c-2.3,4.8-2.1,9.9-0.4,14.9c0.1,0.2,0.4,0.2,0.5,0.1c2-0.9,4.7,1,5.2,3
					C89.7,125.7,90.4,125.6,90.4,125.2z"/>
				
					<ellipse transform="matrix(0.2277 -0.9737 0.9737 0.2277 -27.3164 208.092)" class="st10" cx="117.5" cy="121.3" rx="1.4" ry="1.4"/>
				<path class="st9" d="M119.1,120.1c-0.9-0.5-1.9-0.7-2.9-0.5c-2.1,0.2-3,2.9-3,2.9c0.7-1.2,1.8-2,3.2-2.3c1.2,0,2.4,0.3,3.4,0.8
					C119.7,120.6,119.5,120.3,119.1,120.1z"/>
				<path class="st10" d="M86,126.8c-0.3-0.7-0.3-1.5,0-2.2l-0.2,0.1l0,0l0,0h0.1c0.2,0.1,0.4,0.2,0.5,0.3c0.8,0.7,1.5,1.6,2,2.6
					l0.3-0.2c-0.2-0.2-0.5-0.3-0.8-0.2c-0.3,0.1-0.5,0.4-0.5,0.7c0,0.9,0.8,1.3,1.6,1.4c0.2,0,0.3-0.2,0.1-0.2
					c-0.7,0-1.2-0.4-1.3-1.1c0-0.2,0-0.5,0.2-0.6s0.4,0.1,0.6,0.2s0.3,0,0.3-0.2c-0.4-0.7-0.9-1.4-1.4-2c-0.3-0.3-0.6-0.6-0.9-0.8
					c-0.1-0.1-0.3-0.2-0.5-0.2c-0.2,0-0.3,0.1-0.3,0.3c-0.3,0.7-0.2,1.5,0.1,2.2C85.6,127,86,126.8,86,126.8L86,126.8z"/>
				
					<ellipse transform="matrix(0.2277 -0.9737 0.9737 0.2277 -38.5113 194.4922)" class="st11" cx="103.4" cy="121.5" rx="1.4" ry="1.4"/>
				<path class="st9" d="M107.2,122.4c0,0-2.1-2.8-4.4-2.5c-3.3,0.3-3.8,1.7-4.4,2.7c1.2-1.2,2.8-1.9,4.5-2.2
					C105.2,120.3,107.2,122.4,107.2,122.4z"/>
				<path class="st12" d="M110.9,132.2c-1.9,0-5-0.2-5-0.2s-0.2,4.5,5,4.4c2.4,0,4.4-1.9,4.4-4.3c0,0,0,0,0,0
					C115.4,132,112.8,132.2,110.9,132.2z"/>
				<path class="st13" d="M110.9,132.2h-4.2c0.9,1.5,2.5,2.4,4.3,2.3c3.5,0,3.8-2.1,3.8-2.1L110.9,132.2z"/>
				<path class="st14" d="M111,132.4c-0.9,0-3.6-0.1-3.6-0.1s1,0.9,3.7,0.9s3.6-0.9,3.6-0.9L111,132.4z"/>
				<path class="st12" d="M115.4,132c0-0.1-0.2-0.1-0.7-0.2c-0.7-0.1-1-0.3-1.5-0.4c-0.6,0-1.3,0.1-1.9,0.3
					c-0.6-0.2-1.3-0.3-1.9-0.3c-0.5,0-1.9,0.2-2.6,0.3c-0.4,0-0.7,0-1.1-0.1c-0.1,0,0.2,1,5.2,1S115.4,132.1,115.4,132z"/>
				<path class="st5" d="M87.5,117.3c-0.3-1.8-0.3-3.7,0-5.5c0.4-2.5,1.6-4.7,3.3-6.5c1.5-1.5,3.2-2.7,5.2-3.5
					c2.8-0.9,4.1-1.7,9.5-1c2.3,0.3,2.6-0.1,4.7,0.8l3.2,2c-1.1,4.2-15.3,11.4-19.7,13.2c-0.1,1.4-0.3,3.8-0.6,5.2
					c-0.1,0.8-0.3,1.6-0.8,2.3c-0.5,1-1.3,1.6-2,1.2s-1.4-2.5-1.6-3.2C88,120.7,87.6,119,87.5,117.3z"/>
				<path class="st15" d="M106.9,116.9c0,0-0.2-0.1-0.2-0.1c-1.7-0.6-3.4-0.8-5.2-0.8c-0.6,0.1-1.1,0.3-1.6,0.6
					c-0.6,0.3-1.1,0.6-1.6,1.1c-0.2,0.3,0.8-0.1,0.8-0.1c0.2-0.1,0.4-0.1,0.6-0.2c1.2-0.3,2.4-0.4,3.6-0.3c1.2,0.3,2.3,0.8,3.4,1.3
					C106.9,117.9,106.8,117.4,106.9,116.9z"/>
				<path class="st15" d="M112.8,117.3c0,0,0.1-0.1,0.1-0.1c1.4-0.5,3-0.8,4.5-0.7c0.5,0.1,1,0.3,1.4,0.6c0.5,0.3,1,0.7,1.4,1.1
					c0.2,0.3-0.7-0.1-0.7-0.1c-0.2-0.1-0.3-0.1-0.5-0.2c-1-0.3-2.1-0.4-3.2-0.3c-1,0.3-2.1,0.7-3,1.3
					C112.9,118.3,112.9,117.8,112.8,117.3z"/>
				
					<ellipse transform="matrix(0.6755 -0.7374 0.7374 0.6755 -54.9316 105.3817)" class="st16" cx="92.3" cy="115.1" rx="1.2" ry="3.1"/>
				<path class="st7" d="M125,175.3c0-1.9,0.1-3.8,0.1-5.7c0-2.7,0.1-5.4-0.1-8c0-0.2-0.8-0.1-0.7,0.2c0.2,2.6,0.1,5.3,0.1,8
					c0,1.9-0.1,3.8-0.1,5.7C124.3,175.7,125,175.6,125,175.3L125,175.3z"/>
				<path class="st7" d="M120.4,208.9c0.1-7.8-0.9-15.5-3-23.1c-0.1-0.3-0.7-0.1-0.7,0.1c-1,9.5-0.9,19.1,0.1,28.7
					c0,0.3,0.8,0.1,0.7-0.2c-1-9.5-1-19-0.1-28.5l-0.7,0.1c2.1,7.5,3.1,15.2,3,22.9C119.6,209.3,120.4,209.2,120.4,208.9z"/>
				<path class="st7" d="M92.8,210.1c0.4-8.3-0.1-16.6-1.5-24.8c-0.1-0.3-0.6-0.2-0.7,0.1c-1.7,4.4-1.6,9.3-1.7,14
					c-0.1,5.2-0.1,10.4-0.1,15.6c0,0.4,0.8,0.3,0.8-0.1c-0.1-5,0-10.1,0.1-15.2c0.1-4.8-0.2-9.9,1.6-14.4l-0.7,0.1
					c1.4,8.1,1.9,16.4,1.5,24.7C92.1,210.5,92.8,210.4,92.8,210.1L92.8,210.1z"/>
				<path class="st15" d="M110.4,129.2c0.5,0.2,1,0.3,1.5,0.3c0.5,0,1-0.1,1.5-0.2c0.7-0.2,1.2-0.9,1-1.7c0,0,0,0,0,0
					c-0.1-0.2-0.2-0.4-0.3-0.6c-0.1-0.3-0.3-0.6-0.3-0.9c0,0-0.3,0-0.3,0.1c0.2,0.5,0.4,1,0.6,1.4c0.2,0.4,0.1,0.9-0.2,1.2
					c-0.4,0.4-0.9,0.6-1.4,0.6c-0.6,0.1-1.3,0-1.9-0.3C110.6,129.1,110.5,129.1,110.4,129.2L110.4,129.2z"/>
				<path class="st15" d="M108.2,127.4c-0.2,0-0.4,0.1-0.6,0.3c-0.1,0.2-0.1,0.5-0.1,0.7c0,0.2,0.1,0.5,0.2,0.6
					c0.2,0.2,0.5,0.4,0.9,0.4c0.2,0,0.4,0,0.6-0.1c0.2-0.1,0.4-0.2,0.7-0.2c0,0,0.1,0,0.1-0.1s-0.1,0-0.1,0c-0.2,0-0.3,0.1-0.5,0.2
					c-0.1,0.1-0.3,0.1-0.5,0.1c-0.3,0-0.6-0.1-0.8-0.2c-0.3-0.3-0.4-0.7-0.3-1.1c0-0.1,0-0.2,0.1-0.3c0,0,0-0.1,0.1-0.1l0,0
					c0,0-0.1,0,0,0c0.1,0,0.1,0,0.2,0l0,0V127.4z"/>
				<path class="st17" d="M234.9,38c-0.6-0.3-1.2-0.5-1.8-0.7c-1.2-0.3-2.3,0.7-3.5,0.8c-0.8,0-1.6-0.1-2.4-0.5
					c-0.5-0.3-1-0.5-1.6-0.7c-0.4-0.1-0.7,0-1.1,0.1c-0.2,0.1-0.1,0-0.2,0.2c0.1-0.3,0.1,0.4,0.1,0.4c0,0.7-0.4,1.3-1.1,1.6v2.1
					c0,0.9,0.7,1.7,1.7,1.7l0,0h9.9c0.9,0,1.7-0.7,1.7-1.7v-3C236.1,38.3,235.5,38.2,234.9,38z"/>
				<path class="st3" d="M273.3,215.1c-0.5-2-1.2-4-2-5.9c-0.5-1.8-0.9-3.7-1-5.6c-1.1-9.7-1.1-17.6-0.4-22.3
					c0.4-3.3,0.2-24.5,2.1-30.9c1.7-5.6-4.2-33.6-4.2-33.6l-11.8-5.4l-5.6,1l-0.3-0.2c0,0.3,0,0.5,0,0.8l0.1,0.4
					c-2.3,4.1-6.5,6.8-11.2,7.2c-1.6,0.1-3.2,0.2-4.9,0.1c-5.3-0.3-9.3-2.9-12.4-7.2l-0.1-1.7l-9.9,2.9l-8.7,6.3l-9.9,41.6
					c0.4,7.8-0.5,5.5,2.7,12.6l3.6,4.6l0.6,14.7c0,0-2.1,15.8-5.4,26h79.6C273.9,218.7,273.6,216.8,273.3,215.1z"/>
				<path class="st3" d="M190.9,242.8c0,0,3.6-37.3,9.6-49l69.3,2.9c0,0,14.3,38,15.1,46L190.9,242.8z"/>
				<path class="st18" d="M96.5,204.5"/>
				<rect x="-57.1" y="240.8" class="st19" width="389.3" height="15.6"/>
				<path class="st20" d="M120.5,215.1l-0.1,0.1L120.5,215.1z"/>
				<path class="st20" d="M120.2,215.2l-0.2,0.2L120.2,215.2z"/>
				<path class="st20" d="M120.4,215.1L120.4,215.1L120.4,215.1z"/>
				<path class="st20" d="M120,215.4l-0.1,0.1L120,215.4z"/>
				<path class="st20" d="M120.8,214.8L120.8,214.8L120.8,214.8z"/>
				<path class="st20" d="M121.1,214.6l-0.2,0.2L121.1,214.6z"/>
				<path class="st20" d="M120.7,214.9L120.7,214.9L120.7,214.9z"/>
				<path class="st20" d="M120.6,215l-0.1,0.1L120.6,215z"/>
				<path class="st20" d="M119.8,215.5l-0.1,0.1L119.8,215.5z"/>
				<path class="st20" d="M78.2,215.4l-0.1-0.1L78.2,215.4z"/>
				<path class="st20" d="M78.4,215.5l-0.1-0.1L78.4,215.5z"/>
				<path class="st20" d="M119.4,215.8l-0.1,0.1L119.4,215.8z"/>
				<path class="st20" d="M119.7,215.6l-0.3,0.2L119.7,215.6z"/>
				<path class="st20" d="M121.6,213.8C121.6,213.8,121.6,213.9,121.6,213.8C121.6,213.9,121.6,213.8,121.6,213.8z"/>
				<path class="st20" d="M121.9,213.1C121.9,213.1,121.9,213.1,121.9,213.1C121.9,213.1,121.9,213.1,121.9,213.1z"/>
				<path class="st20" d="M121.7,213.6C121.7,213.6,121.7,213.7,121.7,213.6C121.7,213.7,121.7,213.6,121.7,213.6z"/>
				<path class="st20" d="M121.3,214.3l-0.1,0.1L121.3,214.3z"/>
				<path class="st20" d="M121.5,214C121.5,214,121.5,214.1,121.5,214C121.5,214.1,121.5,214,121.5,214z"/>
				<path class="st20" d="M121.2,214.4C121.2,214.4,121.2,214.4,121.2,214.4C121.2,214.4,121.2,214.4,121.2,214.4z"/>
				<path class="st20" d="M121.4,214.2L121.4,214.2L121.4,214.2z"/>
				<path class="st20" d="M121.8,213.2c0,0,0,0.1,0,0.1S121.8,213.2,121.8,213.2z"/>
				<path class="st20" d="M121.9,213C121.9,213,121.9,213,121.9,213C121.9,213,121.9,213,121.9,213z"/>
				<path class="st20" d="M121.8,213.4C121.8,213.4,121.8,213.5,121.8,213.4C121.8,213.5,121.8,213.4,121.8,213.4z"/>
				<path class="st20" d="M121.8,213.5L121.8,213.5L121.8,213.5z"/>
				<path class="st20" d="M121.4,214.1L121.4,214.1L121.4,214.1z"/>
				<path class="st20" d="M121.8,213.3C121.8,213.3,121.8,213.4,121.8,213.3C121.8,213.4,121.8,213.3,121.8,213.3z"/>
				<path class="st20" d="M121.6,213.9c0,0,0,0.1-0.1,0.1C121.5,214,121.6,213.9,121.6,213.9z"/>
				<path class="st20" d="M121.7,213.7L121.7,213.7L121.7,213.7z"/>
				<path class="st20" d="M121.1,214.5L121.1,214.5L121.1,214.5z"/>
				<path class="st21" d="M119.2,215.8L119.2,215.8z"/>
				<path class="st21" d="M78.4,215.5L78.4,215.5z"/>
				<path class="st21" d="M121.5,214"/>
				<path class="st21" d="M78.3,215.4L78.3,215.4z"/>
				<path class="st21" d="M121.5,214.1L121.5,214.1L121.5,214.1z"/>
				<path class="st21" d="M121.1,214.6L121.1,214.6C121.1,214.6,121.1,214.6,121.1,214.6z"/>
				<path class="st21" d="M120.5,215.1"/>
				<path class="st21" d="M120.6,215L120.6,215z"/>
				<path class="st21" d="M121.2,214.5L121.2,214.5z"/>
				<path class="st21" d="M121.6,213.9L121.6,213.9C121.6,213.9,121.6,213.9,121.6,213.9z"/>
				<path class="st21" d="M120.4,215.1L120.4,215.1z"/>
				<path class="st21" d="M120.9,214.8L120.9,214.8z"/>
				<path class="st21" d="M121.4,214.2L121.4,214.2z"/>
				<path class="st21" d="M119.7,215.6L119.7,215.6z"/>
				<path class="st21" d="M119.4,215.8L119.4,215.8z"/>
				<path class="st21" d="M121.3,214.3L121.3,214.3z"/>
				<path class="st21" d="M119.9,215.5L119.9,215.5z"/>
				<path class="st21" d="M121.2,214.4L121.2,214.4z"/>
				<path class="st21" d="M120.3,215.2L120.3,215.2z"/>
				<path class="st21" d="M121.7,213.6L121.7,213.6z"/>
				<path class="st21" d="M121.9,213.1L121.9,213.1L121.9,213.1z"/>
				<path class="st21" d="M121.8,213.2L121.8,213.2z"/>
				<path class="st21" d="M121.8,213.3L121.8,213.3z"/>
				<path class="st21" d="M121.7,213.7L121.7,213.7z"/>
				<path class="st21" d="M121.7,213.8L121.7,213.8z"/>
				<path class="st21" d="M121.8,213.4L121.8,213.4L121.8,213.4z"/>
				<path class="st21" d="M121.8,213.5L121.8,213.5z"/>
				<path class="st22" d="M197.1,136.3c0,3.8-0.5,7.6-1.6,11.3c-0.7,2.8-1.6,5.5-2.2,8.3c-0.1,0.2,0.5,0.2,0.5-0.1
					c0.6-2.8,1.5-5.5,2.2-8.3c1.1-3.7,1.6-7.5,1.6-11.3C197.6,136,197.1,136.1,197.1,136.3L197.1,136.3z"/>
				<path d="M117.9,188.5L117.9,188.5l0.1-0.2L117.9,188.5z"/>
				<path d="M118.3,189.4L118.3,189.4l0.1-0.2L118.3,189.4z"/>
				<path class="st23" d="M244.1,132.1c3.1-1.4,16.8-15.5,16.8-15.5c5.5-5.9,8.9-4.1,3.2-12.3l-4.1-10c0,0,19.1-50.9-16.9-58.5
					c0,0-22.4-7-29.9,14.7c0,0-4.1,14.1-4.4,23.5c-0.3,8.8,1.2,25.1,1.2,25.1"/>
				<path class="st23" d="M202.2,113c0,0,2.4-0.3,3.3,3.5c0.3,4.2,1.3,6.7,2.9,10.6c4.7,10.8,16.4,14.2,28.2,10.8
					c8.4-2.4,20.9-18.2,20.9-18.2l3.5-32.4l-11.3,1.6c0,0-6.9,16.4-24.3,13.1s-12.6-17.4-12.6-17.4L210,96.8c-1.1,5-2.7,10.1-6,13.7
					L202.2,113z"/>
				<path class="st4" d="M212.4,61.2c0.3-3.4,3-10.4,3-10.4c0.1-0.3,1.8-5.3,1.9-5.6c5.4-1.6,13.1-3.7,18.4-1.7
					c5.1,1.9,16.7,6.6,16.1,13.3c-0.2,2-3.1,14.9-1.6,15.4c0,0.2,0,0.5-0.1,0.7c-0.2,1.8-0.3,3.7-0.2,5.5c0.8-0.8,1.6-1.6,2.2-2.5
					c0.4-0.6,0.3-1.4,0.6-2c1.1-1.3,3-0.7,4,0.4l0.1,0.3c1.3,2.2-1.1,8.4-2.5,10.2c-0.8,3.8-4.4,5.4-6,2.4l-0.7,1.4l-5.2,4.4
					c-4.4,3.5-12.3,9.1-18.4,8.3c-4.1-0.6-5.3-1.7-6.7-3.3c-2-2.4-3-5-4.4-7.8c-1.2-2.2-2-4.7-2.2-7.2c-0.4-2.2-0.3-4.5,0.4-6.7
					c0.4-1.5,0.6-3,0.7-4.5C212.1,70.3,212.2,64.5,212.4,61.2z"/>
				<path class="st15" d="M216.7,70.3c-0.5-0.3-1.2-0.3-1.6,0.1c-0.2,0.2-0.3,0.4-0.4,0.6c-0.2,0.4-0.1,1,0.2,1.3
					c0.3,0.5,0.9,0.6,1.5,0.4c0.7-0.2,1-0.9,0.9-1.6C217.2,70.8,217,70.5,216.7,70.3"/>
				<path class="st15" d="M220.8,72.1c-0.9-0.8-2-1.5-3.1-2c-2.7-0.8-4.7-0.6-5.5,0.3c1.7-0.3,3.5-0.3,5.1,0.2
					C218.6,71,220.8,72.1,220.8,72.1z"/>
				<path class="st15" d="M234.9,72c0.6-0.2,1.3-0.1,1.8,0.3c0.2,0.2,0.3,0.4,0.3,0.7c0.1,0.5-0.1,0.9-0.5,1.3
					c-0.4,0.4-1.1,0.4-1.6,0.1c-0.6-0.4-0.8-1.1-0.5-1.8C234.5,72.5,234.4,72.2,234.9,72"/>
				<path class="st15" d="M230.6,73.2c1.6-1.1,3.5-1.7,5.4-1.6c2.1,0.2,4.1,1,5.8,2.3c-1.8-0.7-3.8-1.3-5.7-1.7
					C234.3,72.3,232.4,72.7,230.6,73.2z"/>
				<path class="st15" d="M242,69.2c-0.4-0.1-0.6-0.2-0.9-0.3c-2-0.5-4-0.8-6.1-0.8c-1.8,0-3.6,0.2-5.4,0.5c0-0.4-0.1-0.2-0.1-0.6
					s0-1,0-1.5c3-0.2,5.9-0.1,8.9,0.4c0.9,0.2,1.8,0.6,2.6,1.1c0.9,0.4,1.7,1,2.4,1.6C243.7,70,242,69.2,242,69.2z"/>
				<path class="st15" d="M212.2,65.5l0.1-0.2l0,0c0.5-0.1,1-0.2,1.5-0.3c2.5,0,5,0.3,7.4,1c0,0.7-0.1,1.4-0.1,2
					c-1.4-0.6-2.9-1-4.5-1.3c-1.5-0.3-3-0.3-4.5-0.3c0-0.1-0.1-0.3-0.1-0.4c0-0.1,0-0.2,0-0.3C212.1,65.6,212.2,65.5,212.2,65.5z"/>
				<path class="st12" d="M224.1,86.8c3,0.3,8.1,0.4,8.1,0.4s-1.9,8-8.8,7.3s-6.6-8.7-6.6-8.7S221.2,86.5,224.1,86.8z"/>
				<path class="st13" d="M224.1,86.8c1.4,0.1,7.2,0.5,7.2,0.5s-2.3,5.1-7.4,4.6c-3.2-0.3-5.7-2.7-6.2-5.8L224.1,86.8z"/>
				<path class="st14" d="M224,87c1.4,0.1,5.8,0.3,5.8,0.3s-1.7,1.4-6,1s-5.5-2.1-5.5-2.1L224,87z"/>
				<path class="st12" d="M216.7,85.7c0.3-0.1,0.7-0.1,1-0.2c0.9-0.1,1.9-0.2,2.8-0.2c1.5,0,2.3,0.7,3,0.8s1.6-0.4,3.1-0.2
					c0.8,0.2,3.2,0.7,4.3,0.9c0.6,0,1.1,0,1.7,0c0.2,0.1-0.6,1.6-8.5,0.8S216.5,85.7,216.7,85.7z"/>
				<path class="st24" d="M251.4,75.7c0,0-2.5-19.3-21.5-22.4c-11-1.8-17.3,7-17.3,7s1.3-10.3,6.2-13.6s19.5-2,25.8,1.9
					S251.4,75.7,251.4,75.7z"/>
				<path class="st23" d="M260.9,61.7c0,0-2.9-21.9-21.1-25c-22.6-3.8-28.1,19.8-28.1,19.8l-2.1,17.8c0.4-4.6,0.7-8.7,2.5-13
					c0.5-2.6,0.4-9.5,8.4-13c4.3-1.9,9.2-1.7,13.7-0.5c4.1,1.1,8.6,3.3,10.7,7.3c1.7,3.3,2.8,6.9,3.2,10.6
					c0.6,4.9-0.2,11.9-1.3,16.7c-1.1,4.4-1.9,10.3-10,16.8c20.6-3.9,24.5-26.6,24.8-37.3L260.9,61.7z"/>
				<path class="st22" d="M251.2,42.7c3.6,3.8,5.6,9.6,6,14.8c0.6,7.9-2.3,15.9-5.2,23.1c-0.8,1.9-1.6,3.7-2.5,5.5
					c0,0.1,0.6,0,0.7-0.1c2.4-4.9,4.4-10,5.8-15.2c1.2-3.8,1.8-7.8,1.9-11.8c-0.1-4.1-1.1-8-2.9-11.7c-0.8-1.7-1.9-3.3-3.2-4.8
					C251.7,42.4,251.1,42.6,251.2,42.7L251.2,42.7z"/>
				<path class="st22" d="M259.3,94.2c-1.2,2.8-2.5,5.6-4.1,8.2c-2.9,5.1-6.3,10.2-11,13.9c-2.4,2-5.4,3.3-8.5,3.5
					c-0.4,0-0.5,0.5-0.1,0.5c5.8-0.2,10.4-4.4,13.9-8.6c3.5-4.3,6.4-9,8.8-14.1c0.5-1.1,1.1-2.2,1.5-3.3
					C260.1,93.9,259.4,93.9,259.3,94.2L259.3,94.2z"/>
				<path class="st15" d="M241,73.7c0.6,0.2,1.2-0.1,1.5-0.7c-1.2,0.3-2.4,0.2-3.5-0.3L241,73.7z"/>
				<path class="st15" d="M212.6,70.5c-0.6,0.3-1.3,0.1-1.6-0.5c0,0,0.8,0.7,2.5-0.3L212.6,70.5z"/>
				<path class="st22" d="M241.6,94.2c-3.1,5.6-7.1,11.7-13.3,14.1c-3.3,1.3-6.9,1.2-10.1-0.3c-3-1.4-5.7-3.3-8.2-5.5
					c-0.2-0.2-0.9,0.1-0.6,0.3c2.6,2.4,5.5,4.4,8.7,5.8c3,1.3,6.5,1.5,9.6,0.4c6.9-2.3,11.1-8.7,14.5-14.7
					C242.4,93.9,241.7,94,241.6,94.2L241.6,94.2z"/>
				<path class="st22" d="M207.3,105.7c1.7,0.6,3.2,1.6,4.4,3c1.3,1.8,2.4,3.7,3.3,5.7c1.7,3.2,3.6,7.8,7.9,7.9
					c0.2,0,0.7-0.3,0.3-0.4c-2.2-0.1-4-1.7-5.2-3.4s-2.2-4-3.3-6c-0.8-1.6-1.7-3.2-2.9-4.6c-1.1-1.2-2.5-2-4-2.5
					C207.7,105.3,207.1,105.6,207.3,105.7L207.3,105.7z"/>
				<path class="st15" d="M224.1,82.5c-0.8,0.2-1.6,0.3-2.3,0.1c-0.4,0-0.8-0.1-1.2-0.2c-0.3-0.1-0.5-0.2-0.7-0.4
					c-0.4-0.3-0.7-0.7-0.8-1.2c0-0.5,0.2-1,0.4-1.5c0.2-0.4,0.4-0.8,0.6-1.2c0.1-0.1-0.3-0.1-0.3,0c-0.2,0.4-0.4,0.7-0.6,1.1
					c-0.3,0.5-0.4,1-0.4,1.5c0,0.5,0.5,1,0.9,1.3c0.2,0.2,0.4,0.3,0.6,0.4c0.4,0.1,0.8,0.2,1.3,0.3c0.9,0.2,1.8,0.1,2.6-0.1
					C224.4,82.5,224.3,82.3,224.1,82.5L224.1,82.5z"/>
				<path class="st15" d="M227.5,80.8c0.5,0,0.5,0.9,0.4,1.3c0,0.3-0.1,0.5-0.3,0.7c-0.3,0.2-0.7,0.3-1.1,0.2
					c-0.5-0.1-0.9-0.3-1.4-0.5c-0.1,0-0.2,0-0.2,0c0,0-0.1,0.1,0,0.1c0.4,0.2,0.9,0.4,1.4,0.5c0.5,0,0.9,0,1.3-0.2
					c0.3-0.1,0.5-0.4,0.6-0.7c0.1-0.3,0.1-0.6,0-0.9c-0.1-0.3-0.2-0.6-0.6-0.6C227.7,80.6,227.6,80.6,227.5,80.8
					C227.5,80.7,227.5,80.7,227.5,80.8L227.5,80.8z"/>
				<path class="st25" d="M142.7,189.9c0-0.1-0.1-0.1-0.2,0c0,0,0,0,0,0H142.7z"/>
				<g class="st26">
					<path class="st27" d="M149.8,194.7c0.9-0.6,2.1-0.6,3.1-0.2c1.2,0.4,2.3,1.1,3.3,2c2.3,1.9,3.8,4.5,4.2,7.4
						c0.2,1-0.1,2.1-0.6,2.9c-0.7,0.7-1.9,1-2.9,0.6c-2.7-0.7-4.9-2.9-6.4-5.2C149.3,200.4,147.6,196.5,149.8,194.7
						c0.3-0.3-0.4-0.3-0.6-0.1c-2.2,1.9-0.9,5.4,0.3,7.4c1.5,2.6,4.1,5.3,7.2,5.9c2.3,0.5,4.4-0.7,4.5-3.2c0.1-3.2-2-6.4-4.3-8.4
						c-1.9-1.7-5.3-3.6-7.7-1.7C148.9,194.9,149.6,194.9,149.8,194.7z"/>
				</g>
				<path class="st28" d="M138.4,189.6c-1.9-13.4-9.7-25.4-12.7-38.6c-0.4-1.2-0.4-2.5-0.2-3.7c0.3-1.3,1.3-2.2,2.6-2.3
					c1.1,0.1,2.1,0.7,2.6,1.7c0.5,1,0.7,2,0.8,3.1c2,13.6,6.3,26.7,10.7,39.7"/>
				<path class="st22" d="M273,170c-4,7.3-7,15.3-11.9,22c-4,5.4-9.2,10.6-16.4,10.9c-3.9,0-7.7-0.7-11.3-2.1
					c-3.9-1.4-7.6-3.1-11.1-5.2c-7-4.1-13.4-9.1-19.9-13.9l-12.9-9.4l-6.4-4.7c-0.3-0.2-0.9-0.5-0.9-0.7s0.3-0.5,0.4-0.7l0.7-1.2
					c0.1-0.3-0.4-0.3-0.5-0.1l-1.2,2.1c0,0.1,0,0.1,0.1,0.2c7.7,5.6,15.4,11.1,23,16.8c6.5,4.8,12.9,9.7,20,13.4
					c3.5,1.9,7.2,3.4,11,4.5c3.1,1,6.4,1.5,9.6,1.4c6.2-0.4,11-4.5,14.9-9.1c5.9-7.2,9.1-16,13.5-24.1
					C273.7,169.8,273.2,169.8,273,170L273,170z"/>
				<path class="st22" d="M239.2,174.4c4.1,1.6,6.8,6.3,7.1,10.6c0,0.2,0.6,0.1,0.5-0.1c-0.4-4.4-3.2-9.1-7.4-10.8
					C239.3,173.9,238.9,174.2,239.2,174.4z"/>
				<path class="st4" d="M183,165l-12.2-3.3l-6.9-5.3c-2.4-1.2-4.7-2.5-7-3.9c-0.5-0.3-0.7-1.1-0.3-1.6c0.1-0.1,0.1-0.2,0.2-0.2
					c0.4-0.4,6.1,1.4,6.1,1.4s-7.4-3.5-8.2-4.9c-0.6-0.8-0.3-2,0.5-2.5c0.1-0.1,0.2-0.1,0.3-0.1c0.7-0.4,12.2,6.1,12.2,6.1l-4.4-3.7
					c0,0-7-2.4-8.2-4s0.4-3.3,0.4-3.3l8.3,3.3l5.7,2.6l-5.5-3.6c0,0-6-2.4-6.8-4.1s1.3-2.5,1.3-2.5l8.9,3l8.8,5.3
					c0.6-1.1-2-2.7-2-4.2c0.1-1,0.8-1.1,0.8-1.1l7.6,5.2l4.5,9.7l0.8,0.6L183,165z"/>
				<path class="st4" d="M141.4,140.5l4.8,4.5l-3.3-0.8c-1.2-0.9-2.5-1.6-3.9-2.1c-0.9,0-1.3,1.4-1.3,1.4l9.6,6.4l4.3,3.9
					c1.6,1.5,4,1.9,6,1.1l8.3-3.4v-6.4l0.6-6.7l-0.2-3.7l-1.9-5.1c0,0-1.7-0.2-1.7,2.3s0.2,4,0.2,4l-0.8,3.8l-1.6,0.1l-8.3-7
					l-1.9-3.3c0,0-0.6-4.2-3-5.2c-0.1,0-0.2,0-0.3,0c-0.3,0.1-0.5,0.4-0.4,0.7l1.3,7.4l2.3,3.3l-3.3-2.7c0,0-2.4-5.4-4.2-6.6
					s-1.7,0.5-1.7,0.5l2.1,7.5l4,5.1l-3.5-2.7l-3.6-4.5c0,0-1.2-1.3-2.1-0.4c-0.3,0.4-0.4,0.9-0.2,1.3L141.4,140.5z"/>
				<path class="st8" d="M176.1,143.6L176.1,143.6c0,0-0.3,0.1-0.2,0.1c2.7,0.6,4.9,2.5,5.6,5.2c0,0.1,0.4,0,0.3-0.1
					C181.1,146.2,178.9,144.2,176.1,143.6l-0.2,0.1l0,0C176.1,143.8,176.4,143.6,176.1,143.6L176.1,143.6z"/>
				<path class="st22" d="M188.1,153.5l17.6,7.2l28,11.5l6.4,2.6c0.2,0.1,0.3,0,0.5-0.1c2.7-4,4.4-8.7,6-13.2
					c1.9-5.5,3.6-11,5.8-16.4c1.2-3.1,2.8-6,4-9.1c1.2-3,2.6-5.8,4.3-8.5c1.7-2.7,4.7-7.4,8.5-6.7c0.2,0,0.6-0.2,0.3-0.3
					c-2.9-0.6-5.3,1.6-7,3.6c-2.3,2.9-4.1,6-5.6,9.4c-1.1,2.4-2.1,4.7-3.2,7.1c-2.4,5.6-4.6,11.2-6.4,17c-2,5.8-3.9,11.9-7.4,17.1
					l0.5-0.1l-17.6-7.2l-28-11.5l-6.4-2.6C188.3,153.1,187.8,153.4,188.1,153.5L188.1,153.5z"/>
				<path class="st29" d="M143.2,119.3c-1.8-3.4-3.3-7-4.5-10.7C140.5,112,142,115.6,143.2,119.3z"/>
				<path class="st29" d="M139.1,121.3c0,0-7.3-4.3-11.9-8.8C127.3,112.5,132.8,116.1,139.1,121.3z"/>
				<path class="st29" d="M137.4,125.4c-4-0.6-8-1.6-11.8-3C125.6,122.4,130.9,123.5,137.4,125.4z"/>
				<path class="st29" d="M151,120.6c2.3-3.1,4.8-6,7.4-8.7C156.2,115,153.8,117.9,151,120.6z"/>
				<path class="st29" d="M153.2,123.6c3.9-2,7.8-3.6,11.9-5.1C161.3,120.6,157.4,122.3,153.2,123.6z"/>
				<path class="st29" d="M147.2,119c0,0,0.3-8.6,2.1-14.7C149,109.3,148.3,114.2,147.2,119z"/>
				<path class="st22" d="M199.9,180.8v4.3c0,1.4,0,2.8,0,4.1c0,0.2,0.5,0.1,0.5-0.1c0.1-1.4,0-2.8,0-4.1v-4.3
					C200.4,180.5,199.9,180.6,199.9,180.8L199.9,180.8z"/>
				<path class="st8" d="M160.4,154.2c-0.6-0.3-1.2-0.6-1.7-0.9c-0.6-0.4-1.6-0.9-1.9-1.5c-0.2-0.4-0.2-0.8,0.1-1.1
					c0.1-0.1,0.1-0.1,0.4-0.1c0.5,0.1,1,0.2,1.6,0.4c2.1,0.6,4.2,1.3,6.2,2c0.1,0,0.4-0.1,0.4-0.1c-1.4-0.7-2.8-1.3-4.1-2
					c-2.1-0.9-4-2-5.9-3.3c-0.2-0.2-0.4-0.4-0.6-0.6c-0.4-0.7-0.4-2.3,0.6-2.5c0.4-0.1,1.3,0.4,1.7,0.6c2.1,0.9,4.1,2,6.1,3.1
					c1.4,0.8,2.9,1.6,4.3,2.3c0.1,0,0.4-0.1,0.4-0.1l-3.2-2.7c-0.4-0.4-0.8-0.7-1.2-1c-0.3-0.2-0.7-0.3-1.1-0.4
					c-1.8-0.6-3.6-1.4-5.4-2.3c-0.8-0.3-1.5-0.9-2-1.6c-0.4-1-0.2-2.1,0.6-2.8l-0.4,0.1c4.8,1.9,9.4,3.9,14.1,6
					c0.1,0,0.4-0.1,0.4-0.1l-4.7-3.2c-1.4-0.8-2.8-1.5-4.2-2.1c-1.1-0.5-2.1-1.2-3-2.1c-0.4-0.5-0.6-1.2-0.3-1.8
					c0.2-0.3,0.4-0.6,0.7-0.8c0.1,0,0.2-0.1,0.3-0.1c0.1-0.2,0.1,0.1-0.1,0c1.6,0.7,3.1,1.2,4.7,1.8l5.4,2.1
					c0.1,0.1,0.4-0.1,0.4-0.1l-5.2-2l-3.4-1.3c-0.5-0.3-1-0.5-1.5-0.6c-0.6,0.1-1.2,0.5-1.6,1c-0.7,1.1,0.2,2.1,1.1,2.8
					c1.8,1.3,3.8,1.9,5.7,2.9s3.6,2.4,5.4,3.6l0.4-0.1c-4.6-2.1-9.3-4.1-14.1-6c-0.1,0-0.3,0-0.4,0.1c-0.5,0.6-0.9,1.3-0.9,2.1
					c0.1,0.9,0.7,1.7,1.5,2.1c1.8,1,3.7,1.9,5.6,2.6c0.5,0.1,1,0.3,1.5,0.5c0.4,0.2,0.7,0.5,1,0.8l3.4,2.9l0.4-0.1
					c-3.5-2.1-7.1-4-10.8-5.6c-0.4-0.3-1-0.4-1.5-0.5c-0.9,0.2-1.5,1.1-1.4,2c0.1,1,0.9,1.5,1.7,2c1.1,0.7,2.2,1.3,3.3,1.9
					c1.9,1,3.9,2,5.9,2.9l0.4-0.1c-2.5-0.9-5-1.7-7.5-2.4c-0.8-0.2-1.6-0.2-1.7,0.8s1.2,1.6,1.9,2c0.6,0.4,1.2,0.7,1.9,1
					C160.2,154.3,160.5,154.2,160.4,154.2L160.4,154.2z"/>
				<path class="st4" d="M106.5,196.6c7.5-3.4,23.8-18.6,23.8-18.6l-4.4-6c0,0-19.8,7.7-25.3,12.9
					C101.8,188.6,105.4,192.9,106.5,196.6z"/>
				<path class="st4" d="M102.7,195.2c0.5-0.6,1.1-1.4,1.7-2.1c2-2.3,4-4.5,5.9-6.8c-0.3-0.2-4-1-4.3-1.1l-12.2-14.8l-3.1-2.6
					c-3.1-3.5-11.3-12.9-14.1-12.5c0,0-2,7.6-1.8,11.6s0.9,5.5,7.9,12.4l5.1,6.3c5.3,5.4,8.9,9.3,10.7,9.2
					C98.5,194.9,102.6,195.1,102.7,195.2z"/>
				<path class="st4" d="M95.2,192c0,0,3.2,5.1,8.3,5.1s9.8-5.2,9.8-5.2l-8.9-7L95.2,192z"/>
				<path class="st6" d="M77.5,150c0,0-9.2,8.6-4.2,19.8s5.9,10.1,5.9,10.1s12-5.4,15.8-9.6s-15.2-19.8-15.2-19.8"/>
				<path class="st7" d="M95.3,170.2l1.5-1.5c0,0,0-0.1,0-0.1c-1.1-2.6-2.5-5.2-4-7.6c-1-1.8-2.3-3.4-3.8-4.8
					c-1.4-1.5-3.2-2.5-5.2-3.1c-0.7-0.2-1.5-0.1-2.2,0.3c-0.3,0.2,0.4,0.2,0.6,0.1c0,0,0.2-0.1,0.4-0.1c0.7,0,1.5,0.2,2.1,0.5
					c2.1,1,3.9,2.5,5.3,4.4c2.3,3,4.2,6.3,5.8,9.8c0.1,0.2,0.2,0.4,0.2,0.5c0.1,0.2,0.1,0,0,0.1c-0.1,0.3-0.6,0.6-0.8,0.8l-0.7,0.6
					C94.5,170.4,95.2,170.4,95.3,170.2L95.3,170.2z"/>
				<path class="st7" d="M82.5,178.4c-1.1,0.7-2.2,1.3-3.4,1.8h0.5c-1.6-2.8-3.2-5.6-4.9-8.3c-0.1-0.2-0.8,0.1-0.7,0.2
					c1.7,2.8,3.3,5.5,4.9,8.4c0.1,0.1,0.4,0,0.5,0c1.3-0.5,2.5-1.1,3.7-2C83.3,178.2,82.6,178.3,82.5,178.4L82.5,178.4z"/>
				<path class="st8" d="M103.4,182.6c-1.8,1.1-2.8,3.3-2.4,5.4c0,0.2,0.6,0.1,0.5-0.1c-0.4-2,0.5-4,2.2-5.1c0.1-0.1,0.1-0.1,0-0.2
					S103.5,182.5,103.4,182.6L103.4,182.6z"/>
				<rect x="-58.5" y="256" class="st28" width="392" height="59.9"/>
				<path class="st4" d="M121.5,174.8c1.2-0.9,2.3-1.9,3.3-3c0.2-0.5,2.2-7.2,2.6-7.5s4.5-3.1,4.5-3.1l2.6,1c0,0,2.9-0.2,3.5,0.4
					c0.5,0.6,0.4,1.5-0.2,2.1c-0.3,0.3-0.5,0.6-0.6,1c0.5,0.1,0.9,0.4,1.2,0.9c0.2,0.6-0.7,1.6-0.7,1.6c0.4,0.4,0.8,0.8,1,1.3
					c0.2,0.6-0.4,1.3-0.4,1.3s1.4,0.9,1.5,1.4s-1.1,2.5-3.2,3.8c-0.8,0.7-1.6,1.2-2.5,1.7c-1.3,0.6-8.3,4.3-8.3,4.3l-3.5-4.9"/>
				<path class="st30" d="M163.8,224.6c0,2,1.1,1.6,2.6,1.6s2.5,0.4,2.5-1.6s-2.5-5.5-2.5-5.5S163.8,222.6,163.8,224.6z"/>
				<path class="st30" d="M158.3,224.6c0,2,1.1,1.6,2.6,1.6s2.5,0.4,2.5-1.6s-2.5-5.5-2.5-5.5S158.3,222.6,158.3,224.6z"/>
				<path class="st30" d="M152.5,224.6c0,2,1.1,1.6,2.5,1.6s2.6,0.4,2.6-1.6s-2.6-5.5-2.6-5.5S152.5,222.6,152.5,224.6z"/>
				<path class="st30" d="M144.3,224.6c0,2,1.1,1.6,2.5,1.6s2.5,0.4,2.5-1.6s-2.5-5.5-2.5-5.5S144.3,222.6,144.3,224.6z"/>
				<path class="st30" d="M138.4,224.6c0,2,1.1,1.6,2.6,1.6s2.5,0.4,2.5-1.6s-2.5-5.5-2.5-5.5S138.4,222.6,138.4,224.6z"/>
				<path class="st30" d="M132.6,224.6c0,2,1.1,1.6,2.5,1.6s2.5,0.4,2.5-1.6s-2.5-5.5-2.5-5.5S132.6,222.6,132.6,224.6z"/>
				<path class="st31" d="M164.7,225.2c0,1.3,0.8,1,1.7,1s1.7,0.2,1.7-1s-1.7-3.6-1.7-3.6S164.7,224,164.7,225.2z"/>
				<path class="st31" d="M159.1,225.4c0,1.3,0.8,1,1.7,1s1.7,0.2,1.7-1s-1.7-3.6-1.7-3.6S159.1,224.1,159.1,225.4z"/>
				<path class="st31" d="M153.4,225.2c0,1.3,0.7,1,1.7,1s1.7,0.2,1.7-1s-1.7-3.6-1.7-3.6S153.4,224,153.4,225.2z"/>
				<path class="st31" d="M145.1,225.2c0,1.3,0.8,1,1.7,1s1.7,0.2,1.7-1s-1.7-3.6-1.7-3.6S145.1,224,145.1,225.2z"/>
				<path class="st31" d="M139.3,225.2c0,1.3,0.8,1,1.7,1s1.7,0.2,1.7-1s-1.7-3.6-1.7-3.6S139.3,224,139.3,225.2z"/>
				<path class="st31" d="M133.4,225.2c0,1.3,0.8,1,1.7,1s1.7,0.2,1.7-1s-1.7-3.6-1.7-3.6S133.4,224,133.4,225.2z"/>
				<polyline class="st32" points="170.8,226.1 170.8,221.9 130.9,221.9 130.9,226.1 				"/>
				<rect x="114" y="226.1" class="st33" width="72.7" height="12.1"/>
				<ellipse class="st34" cx="151.2" cy="232.2" rx="4.3" ry="4.1"/>
				<path class="st35" d="M181.7,184.6c0-0.5,0.2-0.9,0.6-1.3c-0.3-0.1-0.7-0.2-1-0.3l0,0c0.2-1.6,0.4-3.1-2.3-3.1
					c-17.8,0.1-35.6,0.1-53.4,0.1c-4.2-0.2-4.2-0.2-4.5,3.3l0,0l0.1,6.9c0,7.5,0,15,0.1,22.5c0,4,2.1,6.1,6.2,6.6h47.9
					c3.6-0.6,5-1.8,5.7-5.3c0.9-6.9,0.1-17.1,0.4-24.1"/>
				<path class="st35" d="M117.8,219.4c-0.1,0-0.2,0.1-0.3,0.1C117.6,219.4,117.7,219.4,117.8,219.4z"/>
				<path class="st36" d="M121.3,183.1c-0.3-0.1-0.6-0.1-0.9-0.1h-5.6c-2.3,0-4.2,1.4-4.2,3.1s1.9,3.1,4.2,3.1h5.6
					c0.3,0,0.6,0,0.9-0.1V183.1z"/>
				<rect x="114" y="238.2" class="st34" width="7.1" height="2.5"/>
				<rect x="179.6" y="238.2" class="st34" width="7.1" height="2.5"/>
				<path class="st36" d="M181.3,183.1c0.3-0.1,0.6-0.1,0.9-0.1h5.6c2.3,0,4.2,1.4,4.2,3.1s-1.9,3.1-4.2,3.1h-5.6
					c-0.3,0-0.6,0-0.9-0.1V183.1z"/>
				<line class="st37" x1="150.9" y1="221.8" x2="150.9" y2="226.1"/>
				<path class="st4" d="M94.8,201.1l-17.8-11.9c0,0-4.2-10.8-7.2-18.9c-4.6,1.8-9.4,2.9-14.3,3.4c3.9,9.5,11.1,24.4,15.3,27.7
					c4.5,3.5,21.3,5.1,21.3,5.1L94.8,201.1z"/>
				<path class="st8" d="M76.8,189c-1.3,0.2-2.4,1-2.9,2.2c-0.1,0.1,0,0.2,0.2,0.2c0.1,0,0.3,0,0.3-0.2c0.5-1,1.3-1.6,2.4-1.8
					c0.1,0,0.3-0.1,0.3-0.2S76.9,189,76.8,189z"/>
				<path class="st4" d="M96.5,210.9c0.9,0.3,1.8,0.6,2.8,0.7c2-1.1,3.1-3,4.3-5l-0.3-0.1l0.3,0.1l0.1-0.1c0.4-0.8,1-1.6,1.8-2.2
					c-2-0.9-4.3-1.9-4.3-1.9c0.7-0.2,0.6,0.5,2.2,0.3c1.9-0.4,1.9-1.7,1.9-1.7s-6.1-1.8-7.8-1.7c-1.3,0.1-3.5,0.4-4,0.9l-1.9-0.7
					c-1.2,1.1-0.8,3-1.4,4.5c-0.3,0.8-1.1,0.7-1.5,1.4c1.1,0.3,2,0.9,2.8,1.7c0.2,0.9,1.6,2,3.3,3C95.3,210.4,95.9,210.6,96.5,210.9
					z"/>
				<path class="st8" d="M91.4,206.9c-0.3-0.8-0.1-1.8,0.4-2.5c0.1-0.1-0.1-0.1-0.1-0.1c-0.1,0-0.2,0.1-0.3,0.1
					c-0.6,0.7-0.7,1.7-0.4,2.6C90.9,207.1,91.5,207,91.4,206.9z"/>
				<path class="st4" d="M61.7,141.4c0.2-2.5,0.2-4.9-0.1-7.4c0-1,0-2.1,0.1-3.5c0-0.4,0-0.8,0-1.2c0-0.2,0-0.4,0-0.6
					c-0.3-6.7-2.5-10.2-2.5-10.2c-2.9-4.4-7.9-6.9-13.1-6.6c-6.2,0.2-11.7,4-14.6,7.8c-1.4,1.9-2.1,4.2-1.9,6.6
					c0.2,2.2,0.6,4.3,1.2,6.4c-2.2-0.1-4.3,0.7-3.4,4.7c1.1,5.5,4.7,7.1,6.3,5.6c0.4,0.1,1.2,1.7,1.3,2.9c0.2,2.2,0.1,6.1-0.9,8
					l0.1,0.6c4.7,7.5,7.5,11.8,23.4,7.2l-5.2-7.2l-0.1-2.5c0.9,0.1,1.8-0.1,2.7-0.4C59.8,150.3,61.5,143.9,61.7,141.4z"/>
				<path class="st38" d="M4.8,182.4C4.8,182.4,4.8,182.4,4.8,182.4l0.2-0.1L4.8,182.4z"/>
				<path class="st8" d="M52.2,152.1c-3.9,0.2-7.8-0.8-11.2-2.9c0,0,0.7,1.8,4.4,3.1c2.2,0.8,4.5,1.1,6.8,0.8L52.2,152.1z"/>
				
					<ellipse transform="matrix(0.2277 -0.9737 0.9737 0.2277 -83.2974 159.6938)" class="st10" cx="59" cy="132.4" rx="1.3" ry="1.3"/>
				<path class="st9" d="M60.6,131.3c-0.8-0.5-1.8-0.7-2.8-0.5c-2,0.2-2.9,2.8-2.9,2.8c0.7-1.1,1.8-1.9,3.1-2.2
					c1.1,0,2.3,0.3,3.3,0.8C61.1,131.7,60.9,131.4,60.6,131.3z"/>
				<path class="st10" d="M29,137.7c-0.3-0.7-0.3-1.5,0-2.1l-0.2,0.1l0,0l0,0h0.1c0.2,0.1,0.3,0.2,0.5,0.3c0.8,0.7,1.5,1.5,1.9,2.5
					l0.3-0.2c-0.2-0.2-0.5-0.3-0.8-0.2c-0.3,0.1-0.5,0.4-0.5,0.7c0,0.9,0.8,1.3,1.5,1.4c0.1,0,0.3-0.2,0.1-0.2c-0.6,0-1.2-0.4-1.3-1
					c0-0.2,0-0.5,0.1-0.6s0.4,0.1,0.5,0.2s0.4,0,0.3-0.2c-0.4-0.7-0.8-1.3-1.4-1.9c-0.3-0.3-0.6-0.6-0.9-0.8
					c-0.1-0.1-0.3-0.1-0.5-0.2c-0.2,0-0.3,0.1-0.3,0.3c-0.2,0.7-0.2,1.4,0,2.1C28.7,137.9,29,137.8,29,137.7L29,137.7z"/>
				
					<ellipse transform="matrix(0.2277 -0.9737 0.9737 0.2277 -94.1038 146.5856)" class="st11" cx="45.4" cy="132.6" rx="1.3" ry="1.3"/>
				<path class="st9" d="M49,133.5c0,0-2-2.6-4.2-2.4c-3.2,0.3-3.7,1.6-4.3,2.6c1.2-1.1,2.7-1.9,4.4-2.1
					C47.1,131.4,49,133.5,49,133.5z"/>
				<path class="st39" d="M52.7,142.8c-1.9,0-5-0.2-5-0.2s-0.2,5.3,5,5.2c4.4-0.1,4.4-5.2,4.4-5.2S54.6,142.8,52.7,142.8z"/>
				<path class="st13" d="M52.7,142.8c-0.9,0-4.2,0-4.2,0c0.5,1.8,2.2,3.1,4,3.1c1.9,0.1,3.6-1.1,4-2.9L52.7,142.8z"/>
				<path class="st14" d="M52.8,143.2c-0.9,0-3.6-0.1-3.6-0.1c1.2,0.6,2.5,0.8,3.8,0.7c2.7,0,3.5-0.7,3.5-0.7L52.8,143.2z"/>
				<path class="st39" d="M57.2,142.6c0-0.1-0.2-0.1-0.7-0.2c-0.7-0.1-1-0.3-1.5-0.4c-0.6,0-1.3,0.1-1.9,0.3
					c-0.6-0.2-1.3-0.3-1.9-0.3c-0.5,0-1.9,0.2-2.6,0.3c-0.4,0-0.7,0-1.1-0.1c-0.1,0,0.2,1.3,5.2,1.2S57.2,142.8,57.2,142.6z"/>
				<path class="st15" d="M48.8,128.2c0,0-0.2-0.1-0.1-0.1c-1.6-0.5-3.3-0.8-5-0.7c-0.5,0.1-1.1,0.3-1.5,0.5c-0.6,0.3-1.1,0.6-1.5,1
					c-0.2,0.3,0.8-0.1,0.8-0.1c0.2-0.1,0.4-0.1,0.6-0.1c1.1-0.3,2.3-0.4,3.5-0.3c1.1,0.3,2.2,0.7,3.3,1.3
					C48.7,129.2,48.7,128.7,48.8,128.2z"/>
				<path class="st15" d="M54.5,128.5c0-0.1,0.1-0.1,0.1-0.1c1.4-0.5,2.9-0.8,4.4-0.7c0.5,0.1,0.9,0.3,1.3,0.6
					c0.5,0.3,0.9,0.6,1.3,1c0.2,0.3-0.7-0.1-0.7-0.1c-0.2-0.1-0.3-0.1-0.5-0.2c-1-0.3-2-0.4-3-0.3c-1,0.3-2,0.7-2.9,1.3
					C54.5,129.5,54.6,129,54.5,128.5z"/>
				<path class="st9" d="M32.9,136.9c0,0,0-0.1,0-0.1c-0.3-0.8-0.7-1.5-1.3-2c-0.3-0.3-0.6-0.5-1-0.7c-0.4-0.2-0.8-0.3-1.2-0.4
					c-0.6-0.1-1.2-0.1-1.7,0.1l-0.3,0.1c-1.6-4.7-2.3-9.8,1.1-15.7c1-1.7,3.6-3.6,4.4-4.2c4.8-3.7,9.2-4,14.6-3.6
					c6.3,0.5,12.2,4.4,13.7,10.7c0.4,1.3,0.6,2.7,0.6,4.1c0,0-1.3-5.7-4.4-7.5s-3.5,0.9-7.8,1.1c-4.9,0.2-6.6-2.5-10.5-0.3
					c-2.1,1.1-3.7,2.9-4.6,5.1c-0.5,2.2-1.5,3.6-0.8,6.1c0.2,0.6,0.3,1.2,0.4,1.8c0.1,1.1,0.2,2.2,0.1,3.3c0,0.5-0.3,1.1-0.7,1.4
					C32.8,136.5,33.4,137.1,32.9,136.9z"/>
				<path class="st10" d="M33.2,136.9c-0.7-2.5-3.2-3.9-5.7-3.2c-0.1,0-0.2,0.1-0.3,0.1l0.5,0.1c-1.2-3.7-1.8-7.5-0.8-11.3
					c0.5-2.2,1.6-4.3,3.1-5.9c1.1-1.1,2.4-2.1,3.7-3c3.5-2.3,7.7-3.4,12-3c3.6,0,7.2,1.2,10.2,3.3c3.5,2.7,5.5,6.9,5.5,11.3l0.7-0.1
					c-0.5-2.5-1.6-4.8-3.3-6.7c-0.9-1-2.2-1.6-3.5-1.5c-1.3,0.1-2.4,1-3.6,1.3c-2.3,0.7-4.7,0.2-6.9-0.4c-1.3-0.4-2.7-0.5-4.1-0.2
					c-2.9,0.9-5.3,3-6.4,5.9c-0.6,1.8-1.3,3.9-1,5.9c0.4,1.6,0.7,3.3,0.6,4.9c-0.1,0.7-0.4,1.3-0.8,1.9c0,0.1-0.1,0.1-0.1,0.2
					c0,0.4-0.2,0.3,0.2,0.3c-0.3,0-0.7,0.4-0.2,0.5h0.2c0.1,0,0.3,0,0.4-0.1c0.1-0.1,0-0.2,0.1-0.4s0.4-0.6,0.6-1
					c0.4-0.8,0.5-1.6,0.4-2.4c-0.1-2.2-1.1-4.4-0.6-6.6c0.6-3,1.8-5.6,4.3-7.4c1.7-1.2,3.8-1.6,5.8-1c1.5,0.5,3.1,0.7,4.7,0.8
					c1.6,0.1,3.1-0.3,4.6-0.9c1.5-0.7,2.6-1.1,4.1-0.1c2.3,1.5,3.5,4.7,4.1,7.2c0.1,0.3,0.7,0.2,0.7-0.1c0.1-4-1.5-7.9-4.5-10.7
					c-2.8-2.6-6.5-4.1-10.3-4.3c-4.1-0.3-8.2-0.1-11.8,1.8c-3.4,1.7-6.7,4.4-8.3,7.9c-2.1,4.6-1.8,9.4-0.2,14.1
					c0.1,0.2,0.4,0.2,0.5,0.1c2-0.9,4.6,0.9,5.1,2.9C32.6,137.4,33.3,137.2,33.2,136.9z"/>
				<path class="st15" d="M27.3,133.9c0,0-5.2-4.1-2-14.1c0.4-1.1,1-2.2,1.9-3l0.8-0.8c0.6-2,1.7-3.9,3.3-5.2
					c2.7-2.2,9.4-2.7,12.4-4.7s3.8-3.4,3.8-3.4c0.8,1.2,1.4,2.6,1.6,4c0,0,10.2,0.4,12.5,13.9c0,0-9.9-11.3-20.8-6.9
					S27.3,133.9,27.3,133.9z"/>
				<path class="st15" d="M40.8,107c0,0,2.7,0.4,5-2.4c0,0,2.7,3.1,0.8,5.4"/>
				<path class="st15" d="M52.2,140.1c0.5,0.2,1,0.3,1.5,0.3c0.5,0,1-0.1,1.5-0.2c0.7-0.2,1.2-1,0.9-1.7c0,0,0,0,0,0
					c-0.2-0.5-0.5-0.9-0.6-1.5c0-0.1-0.3,0-0.3,0.1c0.2,0.5,0.4,1,0.6,1.4c0.2,0.4,0.1,0.9-0.2,1.2c-0.4,0.3-0.8,0.5-1.3,0.5
					c-0.6,0.1-1.3,0-1.9-0.3C52.3,139.9,52,140,52.2,140.1z"/>
				<path class="st15" d="M50,138.2c-0.2,0-0.4,0.1-0.5,0.3c-0.1,0.2-0.1,0.5-0.1,0.7c0,0.2,0.1,0.5,0.2,0.6
					c0.2,0.2,0.5,0.4,0.9,0.4c0.2,0,0.4,0,0.6-0.1c0.2-0.1,0.4-0.2,0.7-0.2c0,0,0.1,0,0.1-0.1s-0.1,0-0.1,0c-0.2,0-0.3,0.1-0.5,0.2
					c-0.1,0.1-0.3,0.1-0.5,0.1c-0.3,0-0.6-0.1-0.8-0.2c-0.3-0.3-0.4-0.7-0.3-1.1c0-0.1,0.1-0.2,0.1-0.3c0,0,0.1-0.1,0.1-0.1l0,0
					c0,0-0.1,0,0,0C49.9,138.3,49.9,138.3,50,138.2L50,138.2L50,138.2z"/>
				<path class="st40" d="M57.1,178.8l5.6,8.1c0,0.3,13.6-7.2,13.6-7.2s-7.9-17.3-10.2-19.6c-2.7-2.8-13.5-6.4-13.5-6.4L57.1,178.8z
					"/>
				<path class="st40" d="M60.5,157.1l-8-3.2c0,4.2-1.8,5.6-5.4,6c-6.3,0.9-13-6.9-13-6.9l-10.5,5.5c0,0-1.2,18.9-1.6,27.8
					C21.8,193.5,19,219,19,219s6.2,5.4,22,7.6c9.9,1.2,20-0.2,29.2-4L66.6,167L60.5,157.1z"/>
				<path class="st41" d="M68.3,184.3c-0.4-4.9-0.5-9.9-0.7-14.8c0-0.1-0.4-0.1-0.4,0.1c0.1,4.9,0.3,9.9,0.7,14.8
					C67.9,184.6,68.3,184.4,68.3,184.3z"/>
				<path class="st4" d="M33.4,200.6c1-1.8,2.3-0.4,3.3-2.2l-6.4-24.9l-1.1-1.9c-3.5-5.9-12.5-2.4-11.2,4.3c0,0.1-0.7,4.2-0.7,4.3
					c1.3,5.9,1.6,9.3,2.5,11.9s3,11.2,5.5,12.6c0.3,0.2,1.5,0.1,1.8,0.2C27.4,202.4,32.1,202.9,33.4,200.6z"/>
				<path class="st4" d="M59.2,202.9l-23.3-7.4c-0.8,0.3,0.3,0.9-0.5,1.2c-2.5,0.7-5,1.6-7.4,2.8c-1,0.6-2.7,3.9-3.5,4.7
					c1.2,4.7,4.9,2.8,8,3.7c4.2,1.3,12.3,0.8,12.3,0.8l12.7,0.1L59.2,202.9z"/>
				<path class="st40" d="M15.5,188.8l19-3.8L29,156c0,0-9.8,2.6-12.6,11.6S15.5,188.8,15.5,188.8z"/>
				<path class="st41" d="M33.1,185.4c0.9-0.1,1.8-0.2,2.7-0.4c0,0,0.3-0.1,0.3-0.2c-0.5-4.5-1.2-9-2.2-13.4
					c-0.7-3.4-1.5-7.1-4.9-8.8c-0.1-0.1-0.5,0.1-0.5,0.2c3.5,1.7,4.2,5.7,4.9,9.2c0.9,4.3,1.6,8.6,2.1,13l0.3-0.1
					c-0.9,0.1-1.8,0.2-2.7,0.4C33,185.2,32.8,185.4,33.1,185.4L33.1,185.4z"/>
				<path class="st8" d="M36.2,195.5c-0.9,0.2-1.8,0.5-2.6,0.9c-0.7,0.4-1.2,1.1-1.3,1.9c0,0.2,0.6,0.1,0.6-0.1
					c0.1-0.7,0.5-1.4,1.2-1.8c0.7-0.4,1.5-0.7,2.3-0.8c0.1,0,0.3-0.1,0.3-0.2S36.3,195.5,36.2,195.5L36.2,195.5z"/>
				<path class="st42" d="M12.3,233.3h86.9c1.8,0,3.3,1.5,3.3,3.3v0.8c0,1.8-1.5,3.3-3.3,3.3H12.3c-1.8,0-3.3-1.5-3.3-3.3v-0.8
					C9,234.8,10.5,233.3,12.3,233.3z"/>
				<path class="st43" d="M67.4,224.3c2.7,0.8,5.5,1.1,8.4,1.1c1.5-0.2,3-0.3,4.5-0.2c1.5,0.1,3,0.8,3.9,2c1.2,1.8,0.6,4.2-1.2,5.4
					c-0.1,0-0.1,0.1-0.2,0.1c-0.9,0.4-1.8,0.6-2.7,0.6c-2.3,0.3-4.6,0.4-6.9,0.3c-2.3,0-4.6-0.6-6.6-1.7c-2-1.1-3.3-3.3-3.5-5.6
					c0-0.8,0.2-1.6,0.7-2.2c0.5-0.6,1.3-0.9,2.1-0.8C66.5,223.5,67,223.8,67.4,224.3"/>
				<path class="st44" d="M105.8,202.7c-2.8-1.7-6.3-0.4-9.3,1c-0.8,0.3-1.4,0.8-2,1.3c-1.6,1.7-1.8,4.2-0.7,6.3
					c1.2,2,3.3,3.2,5.6,3.2c2.3,0,4.5-1,6.1-2.6c0.6-0.7,1.2-1.4,1.9-2c0.7-0.6,1.6-1,2.3-1.7c0.9-0.8,1.5-2,1.5-3.2
					c0-1.3-0.8-2.4-2-2.9C107.9,201.7,106.3,201.6,105.8,202.7"/>
				<g id="va8vd5.tif">
					<path class="st45" d="M75.9,192.9c0.2,0,0.1-0.2,0.2-0.2s0.1-0.3,0.3-0.2s0.5,0.1,0.5,0.4c-0.2,1.2-0.6,2.3-1.3,3.4
						c-1.1,1.7-2.8,2.9-4.8,3.4c-0.9,0.2-1.5,0.9-1.7,1.7c-0.6,2.1-1,4.3-1.5,6.4c-0.5,2-1.2,3.8-2.3,5.5c-0.4,0.7-1.1,1.1-1.9,1.3
						c-1.3,0.2-2.5-0.7-2.7-2c0,0,0,0,0,0c-0.1-0.9,0-1.8,0.3-2.6c0.5-1.9,1.3-3.8,2.3-5.5c0.8-1.5,1.6-2.9,2.4-4.4
						c0.5-0.7,0.4-1.7-0.1-2.4c-1-1.5-1.5-3.2-1.4-5c0.1-1.4,0.6-2.8,1.3-4c0.1-0.2,0.4-0.2,0.7,0s0.1,0.3,0,0.4s-0.2,0.2,0,0.2
						c0.1,0.1,0.1,0.3,0.2,0.4c-0.1,0.1-0.1,0.2-0.1,0.3c-0.1,0.1-0.3,0.1-0.4,0.2c-0.2-0.1-0.2,0.1-0.2,0.2c-0.3,1-0.3,2.1,0.1,3.1
						c0.5,1.6,1.8,2.8,3.4,3.3c2.5,0.9,5.2-0.1,6.4-2.4c0-0.1,0.2-0.2,0.1-0.3s-0.2-0.3-0.2-0.5c0.1-0.1,0.1-0.2,0.1-0.3
						C75.6,193,75.8,193,75.9,192.9z M63.4,209.4c-0.6,0.4-1.1,0.9-1.3,1.6c-0.1,0.3-0.2,0.7-0.1,1.1c0.1,0.6,0.6,1,1.2,0.9
						c0.2,0,0.4-0.1,0.5-0.2c0.8-0.8,1.1-1.9,0.7-3c-0.1-0.4-0.5-0.5-0.9-0.4C63.5,209.4,63.4,209.4,63.4,209.4z"/>
					<path class="st46" d="M66.3,189.6c0-0.1-0.1-0.3-0.2-0.4c0.3-0.3,0.7-0.3,1-0.2l8.2,3.1c0.4,0.1,0.6,0.4,0.6,0.8
						c-0.1,0-0.3,0.1-0.4,0.2c-0.2-0.1-0.4-0.2-0.7-0.3c0.1-0.2-0.1-0.2-0.2-0.3l-2.1-0.8l-5.2-2c-0.1-0.1-0.3-0.1-0.4,0.1
						C66.7,189.7,66.5,189.6,66.3,189.6z"/>
					<path class="st47" d="M75.6,193.8c-0.4,0.3-0.9,0.3-1.3,0.1l-7.7-3c-0.4-0.1-0.7-0.5-0.8-0.9c0.2,0,0.3-0.1,0.4-0.2
						c0.1,0.2,0.4,0.1,0.6,0.3c0,0.1,0.1,0.2,0.3,0.3l7.3,2.8c0.1,0.1,0.3,0.1,0.4,0c0.2,0,0.4,0.2,0.6,0.1
						C75.4,193.5,75.5,193.7,75.6,193.8z"/>
					<path class="st48" d="M66.8,190.2c-0.2-0.2-0.4-0.1-0.6-0.3c0-0.1,0-0.2,0.1-0.3c0.2,0.1,0.5,0.1,0.7,0.2
						C66.9,190,66.9,190.1,66.8,190.2z"/>
					<path class="st48" d="M75.4,193.4c-0.2,0-0.4-0.2-0.6-0.1c0-0.1,0-0.3,0.1-0.4c0.2,0.1,0.4,0.2,0.7,0.3
						C75.5,193.2,75.4,193.3,75.4,193.4z"/>
					<path class="st49" d="M59.4,193.1L59.4,193.1L59.4,193.1z"/>
					<path class="st50" d="M60,205L60,205L60,205z"/>
					<polygon class="st45" points="59.4,193.1 59.3,193.1 59.4,193.1 					"/>
					<polygon class="st45" points="60,205 60,205 60,205 					"/>
				</g>
				<path class="st4" d="M102.1,212.9c-0.3-0.2-0.6-0.3-1-0.3c-0.4,0-0.7,0.4-0.8,0.8c0,0.3,0.2,0.5,0.4,0.7
					c0.4,0.4,2.7,1.6,2.7,0.4C103.2,213.9,102.7,213.2,102.1,212.9z"/>
				<path class="st4" d="M107.7,211.6c0.6-0.4,0.4-1.2,0.2-1.8c-0.1-0.4-0.6-1.7-1.1-1.7c-0.2,0-0.5,0-0.7,0.1
					c-0.8,0.4-0.4,1.4-0.1,2.1S107,212.1,107.7,211.6z"/>
				<path class="st4" d="M105.3,213.6c0-0.1,0-0.2-0.1-0.3c-0.1-0.3-0.2-0.5-0.4-0.7c-0.4-0.5-0.8-1-1.2-1.5c-0.5-0.5-1.1,0-1.3,0.6
					c-0.1,0.5,0,1.1,0.3,1.6C103.1,213.9,105.5,215.1,105.3,213.6z"/>
				<path class="st4" d="M106.6,212.3c-0.2-0.8-0.5-1.5-0.8-2.2c-0.3-0.5-0.9-0.6-1.4-0.3c-0.5,0.4-0.2,1-0.1,1.5
					c0.1,0.3,0.2,0.6,0.3,0.9c0.2,0.5,0.5,0.8,1,1C106.2,213.4,106.8,213.1,106.6,212.3z"/>
				<path class="st4" d="M56.1,202.5c1.2,0.2,2.3,0.2,3.5,0.2c0.4-0.1,5.2-2.7,5.7-2.6s4.2,0.8,4.2,0.8l0.8,2c0,0,1.7,1.5,1.7,2.2
					s-0.8,1.1-1.3,1c-0.3,0-0.6,0.1-0.9,0.2c0.2,0.3,0.3,0.8,0.2,1.1c-0.2,0.5-1.3,0.5-1.3,0.5c0,0.4-0.1,0.8-0.2,1.2
					c-0.2,0.5-0.9,0.5-0.9,0.5s0.3,1.3,0.1,1.6s-2,0.8-3.9,0.2c-0.8-0.1-1.6-0.2-2.3-0.4c-1-0.4-6.9-2.3-6.9-2.3l0.8-4.6"/>
				<path class="st51" d="M104.9,205.1L104.9,205.1L104.9,205.1L104.9,205.1L104.9,205.1L104.9,205.1l-0.1,0.1l0,0h-0.1l0,0h-0.1
					l0,0h-0.1l0,0h0.1h-0.1c0,0,0.1,0,0.1,0l0,0c0,0,0.1,0.1,0.1,0.1l0,0c0,0,0,0.1,0,0.1l0,0c0,0,0,0.1,0,0.1v-0.1v0.1v-0.1l0,0
					h0.1l0,0h0.1l0,0h0.1h-0.1h0.1l0,0h-0.1h0.1h-0.1l0,0c0,0-0.1,0-0.1-0.1l0,0c0,0,0,0,0-0.1c0-0.1-0.1-0.1-0.1-0.1
					c-0.1,0-0.2,0-0.2,0c-0.1,0-0.2,0.1-0.2,0.1c0,0-0.1,0.1-0.1,0.1c0,0.2,0.2,0.3,0.3,0.3c0.3,0,0.5,0,0.8-0.2
					c0.1-0.1,0.1-0.1,0.1-0.2v-0.1c0,0,0-0.1,0-0.1c0-0.1-0.1-0.1-0.2-0.1c-0.1,0-0.2-0.1-0.3-0.1c-0.1,0-0.3,0-0.4,0.1
					c-0.1,0.1-0.2,0.2-0.3,0.3c0,0,0,0.1,0.1,0.1c0.1,0,0.1,0,0.2,0c0.1,0,0.2,0,0.2-0.1C104.8,205.3,104.9,205.2,104.9,205.1
					L104.9,205.1z"/>
				<path class="st51" d="M97.1,211.3l0.2-0.2c0,0,0-0.1,0-0.1l0,0c0,0,0,0-0.1,0c-0.1,0-0.2,0-0.4,0c-0.3,0.1-0.5,0.3-0.7,0.5
					c0,0,0,0.1,0,0.1c0.1,0,0.1,0,0.2,0c0.1,0,0.2,0,0.3-0.1c0.1,0,0.1-0.1,0.2-0.1l0.1-0.1l0,0l0.2-0.1H97l0.1-0.1l0,0l0,0l0,0
					l-0.4-0.1l-0.2,0.2c0,0,0,0.1,0,0.1c0,0,0,0,0,0c0.1,0,0.1,0,0.2,0c0.1,0,0.2,0,0.2,0C97,211.3,97.1,211.3,97.1,211.3
					L97.1,211.3z"/>
				<path class="st51" d="M98.8,207.2c0.1-0.1,0.3-0.2,0.4-0.3c0.1-0.1,0.2-0.2,0.2-0.4c0,0,0,0,0-0.1c-0.1-0.1-0.3-0.1-0.5-0.1
					c-0.1,0-0.2,0.1-0.3,0.1c-0.1,0-0.1,0.1-0.2,0.1c0,0,0,0.1,0,0.1c0,0,0,0,0,0c0.1,0,0.1,0,0.2,0c0.1,0,0.2,0,0.2-0.1
					c0.1,0,0.1-0.1,0.2-0.1l0,0l0,0l0,0H99l0,0H99l0,0h-0.1h-0.1h-0.1h0.1l0,0l0,0v-0.1c0,0,0,0.1,0,0.1l0,0
					c-0.1,0.1-0.1,0.2-0.2,0.3l0,0c-0.1,0.1-0.1,0.1-0.2,0.1h0.1l0,0c0,0-0.1,0.1-0.1,0.1c0,0,0,0.1,0.1,0.1c0.1,0,0.1,0,0.2,0
					C98.7,207.3,98.8,207.2,98.8,207.2L98.8,207.2z"/>
				<path class="st44" d="M42,231.9c0.2,0.6,0.6,1.1,1.2,1.3c1,0.4,2.1,0.5,3.1,0.5c0.9,0,1.8-0.1,2.7-0.4c0.5-0.2,1.1-0.6,1-1.2
					c0-0.2-0.1-0.3-0.3-0.5c-0.6-0.6-1.5-0.9-2.4-0.9c-0.9,0.1-1.8,0.3-2.6,0.5c-0.7,0.1-1.3,0.1-2,0
					C42.7,231.3,41.8,231.1,42,231.9z"/>
				<path class="st44" d="M55,230.8l2.5-0.1c0.6-0.1,1.3,0,1.9,0.1c0.6,0.2,1.2,0.6,1.4,1.2c0.1,0.3,0.1,0.6-0.1,0.8
					c-0.2,0.2-0.4,0.3-0.7,0.4c-1.9,0.5-3.9,0.6-5.8,0.3c-0.4,0-0.9-0.2-1.2-0.4c-0.4-0.3-0.5-0.7-0.4-1.1c0.1-0.2,0.3-0.4,0.4-0.5
					c0.1-0.2,1.3-0.3,1.2-0.4"/>
				<path class="st44" d="M70.4,231.2c-0.7,0.4-1.5,0.6-2.4,0.8c-0.8,0.1-1.6,0.1-2.4-0.1c-0.6-0.2-1.3-0.3-1.9-0.3h0l0,0
					c-0.2,0.2-0.3,0.3-0.4,0.5c-0.1,0.4,0,0.9,0.4,1.1c0.4,0.2,0.8,0.4,1.2,0.4c1.9,0.3,3.9,0.2,5.8-0.3c0.3,0,0.5-0.2,0.7-0.4
					c0.2-0.3,0.2-0.6,0.1-0.8C71.2,231.8,70.8,231.4,70.4,231.2z"/>
				<path class="st44" d="M39.5,231.1c-2.3-0.3-4.6-0.2-6.9-0.5c-0.2-0.1-0.5-0.1-0.7,0c-0.5,0.2-0.6,0.7-0.7,1.2
					c-0.2,0.5-0.1,1.1,0.1,1.6c0.5,0.6,5,0.2,5.8,0.1L40,233c0.2,0,0.3,0,0.5-0.1c0.4-0.3,0.5-0.8,0.2-1.2c0,0,0,0,0,0
					C40.4,231.3,39.9,231.1,39.5,231.1"/>
				<path class="st44" d="M28.3,231.8c-1.8-0.4-3.8-0.4-5.6,0.2c-0.3,0-0.6,0.2-0.9,0.4c-0.3,0.2-0.4,0.6-0.2,0.9
					c0.2,0.3,0.6,0.4,1,0.4c2.3,0.2,4.5,0.1,6.8-0.1c0.3,0,0.5-0.1,0.7-0.3c0.2-0.3-0.1-0.7-0.4-0.9s-0.7-0.2-1-0.4"/>
			</g>
		</g>
	</g>
</g>
</svg>
