<?xml version="1.0" encoding="UTF-8"?>
<svg id="Layer_6" data-name="Layer 6" xmlns="http://www.w3.org/2000/svg" xmlns:xlink="http://www.w3.org/1999/xlink" viewBox="0 0 292.89 301.99">
  <defs>
    <style>
      .cls-1 {
        fill: none;
      }

      .cls-2 {
        fill: #87664e;
      }

      .cls-3 {
        fill: #cfd0d0;
      }

      .cls-4 {
        fill: #010101;
      }

      .cls-5 {
        fill: #c69e81;
      }

      .cls-6 {
        fill: #231f20;
      }

      .cls-7 {
        fill: #98554a;
      }

      .cls-8 {
        fill: #27153c;
      }

      .cls-9 {
        fill: url(#linear-gradient);
      }

      .cls-10 {
        fill: #f1eef7;
      }

      .cls-11 {
        fill: #784f81;
      }

      .cls-12 {
        fill: #b4b2b2;
      }

      .cls-13 {
        fill: #f58233;
        isolation: isolate;
        opacity: .67;
      }

      .cls-14 {
        fill: #248140;
      }

      .cls-15 {
        fill: #96c5d5;
      }

      .cls-16 {
        fill: #fff;
      }

      .cls-17 {
        fill: #53666d;
      }

      .cls-18 {
        fill: #22582c;
      }

      .cls-19 {
        fill: #f79325;
      }

      .cls-20 {
        fill: #4f2f26;
      }

      .cls-21 {
        fill: #a382ad;
      }

      .cls-22 {
        fill: #e2e2e2;
      }

      .cls-23 {
        fill: #cdb731;
      }

      .cls-24 {
        fill: #311811;
      }

      .cls-25 {
        fill: #2a3f1e;
      }

      .cls-26 {
        fill: #a38166;
      }

      .cls-27 {
        fill: #161412;
      }

      .cls-28 {
        fill: #f07f29;
      }

      .cls-29 {
        clip-path: url(#clippath);
      }
    </style>
    <clipPath id="clippath">
      <path class="cls-1" d="M258.52,76.36c3.24-6.38,5.07-13.6,5.07-21.24,0-26-21.07-47.07-47.07-47.07-14.37,0-27.22,6.44-35.85,16.59-44.44-10.62-93.19,1.4-127.87,36.08C-.3,113.81-.3,199.9,52.79,252.99c53.1,53.1,139.18,53.1,192.28,0,48.15-48.15,52.63-123.43,13.45-176.63Z"/>
    </clipPath>
    <linearGradient id="linear-gradient" x1="147.44" y1="266.69" x2="152.66" y2="-5.18" gradientUnits="userSpaceOnUse">
      <stop offset=".06" stop-color="#d3c293"/>
      <stop offset=".68" stop-color="#f2ebd1"/>
    </linearGradient>
  </defs>
  <path class="cls-4" d="M68.32,95.77c-4.55-10.51-10.24-13.66-21.01-15.19-11.85-1.82-27.53,3.44-32.76,14.64-3.55,7.62-4.41,19.15-5.13,27.64-.51,5.57-.99,11.18-1.44,16.82-.23,1.27-.08,2.59.44,3.77.86,1.2,2.17,2,3.63,2.22,5.94,1.56,12.2,1.45,18.08-.31l13.72,2.77,23.06-5.71c1.64-.23,3.16-1,4.32-2.19.85-1.39,1.26-3,1.2-4.62.59-11.45.43-29.33-4.12-39.84Z"/>
  <g class="cls-29">
    <circle class="cls-9" cx="149.55" cy="156.86" r="135.96"/>
    <path class="cls-5" d="M135.28,147.2l-3.79-5.33s-1.76-6.36-3.09-8.23-8.04-7.77-8.44-7.92-4.66-10.58-6.71-10.32-3.58,1.7-3.08,4.5,4.95,8.51,3.64,9.37c-1.05.61-2.2,1-3.4,1.17,0,0-.48-3.23-2.19-4.35s-3.76.37-3.76.37l-.1,1.63-1.69-1.65s-1.63-6.48-4.39-6.53c-.62-1.42-1.52-2.7-2.65-3.76-1.01-.85-2.51-.71-3.36.29-.01.01-.02.02-.03.04-.14.18-.26.38-.34.59h0l4.58,14.7,13.18,15.45s7.95,2.94,9.56,3.75l2.84,4.29,13.23-8.06Z"/>
    <path class="cls-21" d="M174,206.98c.41-6.88.9-10.07-1.34-16.55-.1,0-1.38-3.03-1.38-3.03l-38.82-46.34c-.98,4.6-6.16,10.19-13.9,11.61,10.74,20.76,21.46,48.99,36.63,66.89,5.82,6.87,14.71,12.11,24.14,11.68,2.32-4.85-5.64-18.79-5.33-24.25Z"/>
    <path class="cls-21" d="M171.11,284.77s2.63-48.37,12.9-61.04h91.48s18.87,50.34,19.95,60.88l-124.33.16Z"/>
    <path class="cls-21" d="M289.69,239.74c-.81-2.88-2.1-4.84-3.37-7.54-.96-2.32-1.66-4.74-2.09-7.22-2.65-12.58-3.67-23.01-3.44-29.27.16-4.41,6.1-7.64,7.8-16.24,1.49-7.53-18.81-68.36-18.81-68.36l-16.26-5.64-7.19,2.05-.45-.21c-.01.34.02.68.1,1.01l.12.52c-2.5,5.67-7.63,9.74-13.72,10.88-2.12.38-4.26.61-6.41.69-7.02.26-12.61-2.61-17.22-7.91l-.36-2.28-12.71,5.05-10.65,9.43-7.73,55.97c1.57,10.21-3.1,7.92,2.08,16.85l8.5,4.97,3.46,31.61s-1.47,8.78-4.52,22.65l104.72-10.25c-.66-2.08-1.23-4.6-1.83-6.74Z"/>
    <path class="cls-25" d="M52.1,242.94c.13-10.02-1.16-20.01-3.83-29.67-.09-.34-.91-.12-.95.18-1.25,12.26-1.22,24.62.09,36.88,0,.34,1,.13.96-.26-1.3-12.21-1.33-24.52-.09-36.73l-.96.18c2.66,9.61,3.94,19.55,3.82,29.52,0,.42.96.23.96-.11h0Z"/>
    <path class="cls-3" d="M52.26,250.91l-.14.1.14-.1Z"/>
    <path class="cls-3" d="M51.94,251.15l-.32.21.32-.21Z"/>
    <path class="cls-3" d="M52.09,251.03l-.12.09.12-.09Z"/>
    <path class="cls-3" d="M51.59,251.38l-.15.1.15-.1Z"/>
    <path class="cls-3" d="M52.69,250.56l-.11.1.11-.1Z"/>
    <path class="cls-3" d="M52.96,250.31l-.25.23.25-.23Z"/>
    <path class="cls-3" d="M52.52,250.68l-.11.1.11-.1Z"/>
    <path class="cls-3" d="M52.42,250.79l-.15.12.15-.12Z"/>
    <path class="cls-3" d="M51.45,251.5l-.16.1.16-.1Z"/>
    <path class="cls-3" d="M50.81,251.83l-.16.09.16-.09Z"/>
    <path class="cls-3" d="M51.22,251.6l-.38.2.38-.2Z"/>
    <path class="cls-3" d="M53.71,249.31s0,.06,0,.09c0-.03,0-.06,0-.09Z"/>
    <path class="cls-3" d="M53.84,249s0,.08,0,.12c0-.04,0-.08,0-.12Z"/>
    <path class="cls-3" d="M53.29,249.94l-.1.12.1-.12Z"/>
    <path class="cls-3" d="M53.6,249.56s-.05.07-.08.11c.02-.04.05-.07.08-.11Z"/>
    <path class="cls-3" d="M53.19,250.08l-.09.1.09-.1Z"/>
    <path class="cls-3" d="M53.39,249.82l-.09.1.09-.1Z"/>
    <path class="cls-3" d="M53.99,248.52s0,.08,0,.12c0-.04,0-.08,0-.12Z"/>
    <path class="cls-3" d="M53.93,248.8s0,.06,0,.09c0-.03,0-.06,0-.09Z"/>
    <path class="cls-3" d="M53.48,249.7l-.06.09.06-.09Z"/>
    <path class="cls-3" d="M53.96,248.66v.1s-.01-.06,0-.1Z"/>
    <path class="cls-3" d="M53.65,249.43l-.08.12.08-.12Z"/>
    <path class="cls-3" d="M53.07,250.19l-.09.09.09-.09Z"/>
    <path class="cls-4" d="M48.94,216.76h.08v-.2l-.08.2Z"/>
    <path class="cls-4" d="M49.46,217.96h.09v-.13l-.09.13Z"/>
    <path class="cls-17" d="M79.08,218.15c-.06-.09-.18-.11-.27-.05-.02.01-.04.03-.05.05h.32Z"/>
    <path class="cls-5" d="M68.58,154.36c1.24.33,12.55,11.61,15.45,19.25,2.91,7.63,4.16,24.28,5.71,31.03,1.72,6.97,3.05,14.81,4.38,23.58.35,2.29.54,4.61.55,6.92l.07,19.02-7.76-1.02s-8.77-48-13.83-58.63c-5.06-10.62-4.57-40.16-4.57-40.16Z"/>
    <path class="cls-4" d="M68.42,95.84c-4.54-10.49-10.23-13.64-20.98-15.18-11.84-1.82-27.5,3.44-32.71,14.62-3.55,7.61-4.4,19.12-5.13,27.61-.51,5.57-.99,11.17-1.44,16.8-.23,1.27-.08,2.58.44,3.76.86,1.2,2.17,1.99,3.62,2.21,5.93,1.56,12.18,1.45,18.06-.31l13.7,2.77,23.03-5.7c1.64-.23,3.16-1,4.32-2.19.84-1.39,1.26-2.99,1.2-4.62.59-11.44.43-29.29-4.12-39.79Z"/>
    <path class="cls-5" d="M70.16,128.5c.13-3.24-.11-9.33-.68-11.23-.09-1.49-.13-3.22-.23-5.29l-.11-1.76c-.04-.29-.06-.59-.05-.89-1.04-10.11-4.76-15.19-4.76-15.19-4.74-6.42-12.54-9.82-20.47-8.93-9.34.84-17.38,7.11-21.38,13.14-1.99,2.98-2.8,6.59-2.29,10.14.54,3.28,1.35,6.51,2.43,9.66-3.23.08-6.37,1.46-4.79,7.42,2.22,8.19,7.38,10.41,10.16,7.81,1.49.75,1.97,2.95,2.23,4.67.49,3.31.67,8.89-.77,11.89l.15.94c7.85,10.88,12.46,17.15,36.06,8.75l-8.47-10.5-.32-3.73c1.37-.15,2.73-.44,4.04-.87,7.41-2.45,9.08-12.22,9.25-16.02Z"/>
    <path class="cls-23" d="M91.88,187.93c-3.76-8.84-5.88-25.97-21.25-33.63-2.22-1.07-9.77-4.79-13.07-4.73.88,1.68,1.32,3.55,1.27,5.45-.51,2.85-.87,3.47-3.08,4.94-1.91,1.29-7.67,1.92-10,1.55-7.28-1.14-13.16-8.11-15.97-12.52-4.89,1.73-9.58,4-13.97,6.77-20.18,11.87-13.94,34.12-13.94,34.12,2.03,1.1,3.95,2.41,5.73,3.9-1.21,9.04,3.11,19.7,2.86,20.88s-7.79,107.82-8.59,126.3c6.09,4.12,6.43-2.13,14.96.1,8.53,2.23,11.1,2.31,16.66-1.01,5.56-3.32,10.39-2.62,17.99-.1,7.59,2.52,13.37-1.06,17.66-1.56,4.29-.51,10.19,1.87,17.86,1.66s8.18-3.81,12.69-3.84c-.55-5.94-13.79-115.31-19.29-127.45-.72-7.94-.58-14.87-.58-14.87,0,0,9.78-.09,12.07-5.95Z"/>
    <path class="cls-25" d="M79.82,208.01c-4.62.94-8.88,3.07-13.68,2.89-2.34-.08-4.66-.43-7-.34-1.91.12-3.82.33-5.73.58-2.23.3-4.46.61-6.71.86s-4.43.27-6.68.24c-4.99.05-9.96.85-15.01,1.02-4.51.15-9.04.15-13.55.41-.48.03-1.03.79-.34.75,4.01-.24,8.04-.25,12.05-.36,4.9-.13,9.74-.77,14.63-1,2.27-.14,4.54.04,6.81-.13s4.41-.47,6.61-.77,4.27-.59,6.34-.76c2.38-.11,4.77-.04,7.14.2,2.49.17,4.99-.07,7.41-.71,2.56-.65,5.02-1.63,7.6-2.15.56-.11.8-.89.07-.74h.05Z"/>
    <path class="cls-20" d="M56.85,145.43c-5.96.64-11.97-.54-17.24-3.38,0,0,1.16,2.61,7,4.23,3.36.98,6.89,1.18,10.34.59l-.1-1.44Z"/>
    <path class="cls-4" d="M25.62,123.28s0-.09,0-.14c-.46-1.15-1.2-2.16-2.15-2.94-.48-.4-1.02-.73-1.59-.98-.58-.24-1.18-.4-1.81-.47-.86-.15-1.74-.07-2.55.24l-.42.22c-2.75-6.92-4.32-14.43.18-23.54,1.31-2.63,5.04-5.69,6.16-6.68,6.88-5.9,13.38-6.8,21.48-6.68,9.39.19,18.57,5.48,21.46,14.72.69,2.23,2.39,5.4,2.35,7.74,0,0-3.62-10.11-8.29-12.42-4.67-2.31-5.29,1.75-11.6,2.39-7.35.71-10.09-3.09-15.76.45-3.03,1.84-5.29,4.7-6.39,8.06-.57,3.26-1.82,5.49-.69,9.14.29.85.53,1.72.76,2.6.31,1.6.44,3.23.4,4.85,0,.83-.35,1.63-.94,2.21-.71.56.21,1.44-.6,1.23Z"/>
    <ellipse class="cls-6" cx="65.42" cy="114.92" rx="2" ry="1.99" transform="translate(-58.88 160.04) rotate(-80.3)"/>
    <path class="cls-6" d="M19.8,125.84c-.52-1-.59-2.17-.19-3.22l-.25.16h.12c.27.08.53.21.77.38,1.27.98,2.34,2.19,3.17,3.57l.39-.25c-.34-.23-.75-.33-1.16-.26-.45.18-.72.64-.66,1.12.08,1.3,1.25,1.87,2.41,1.91.21-.01.49-.31.16-.32-.95.08-1.82-.52-2.07-1.44-.01-.25-.05-.8.17-.96s.64.09.84.22.53-.03.4-.25c-.65-.99-1.4-1.92-2.22-2.77-.41-.43-.88-.79-1.4-1.08-.23-.13-.48-.2-.74-.22-.29.02-.41.19-.49.44-.29,1.05-.2,2.17.27,3.15.09.19.55.03.48-.16h.01Z"/>
    <path class="cls-7" d="M56.73,131.45c-2.76.17-7.25.18-7.25.18,0,0,.11,7.32,7.76,6.69,6.43-.53,6.01-7.47,6.01-7.47,0,0-3.76.42-6.52.6Z"/>
    <path class="cls-24" d="M56.76,131.45l-6.2.37s1.76,4.51,6.51,4.19c5.14-.31,5.32-4.63,5.32-4.63l-5.63.06Z"/>
    <path class="cls-10" d="M56.83,131.74c-1.31.08-5.32.14-5.32.14,0,0,1.53,1.29,5.45,1.03,3.91-.26,5.12-1.66,5.12-1.66l-5.25.49Z"/>
    <path class="cls-7" d="M63.27,130.81c0-.14-.3-.19-.95-.2-1.08-.01-1.48-.37-2.26-.38-.94.08-1.86.28-2.75.6-.93-.19-1.87-.26-2.81-.23-.78.11-2.71.52-3.79.67-.52.03-1.04.01-1.56-.05-.19.01.36,1.49,7.71,1s6.44-1.22,6.43-1.41Z"/>
    <path class="cls-4" d="M21.2,111.77c-.54-2.66-.7-5.38-.49-8.08.37-3.64,1.87-7.07,4.29-9.81,2.01-2.35,4.48-4.26,7.25-5.64,3.98-1.51,5.93-2.93,13.8-2.33,3.32.23,3.77-.32,6.93.79l4.85,2.68c-1.25,6.17-21.29,17.97-27.66,21.05.01,2-.16,5.62-.39,7.63,0,1.21-.33,2.4-.96,3.44-.7,1.47-1.78,2.49-2.87,1.97s-2.25-3.58-2.64-4.55c-1.15-2.23-1.86-4.66-2.1-7.15Z"/>
    <ellipse class="cls-19" cx="27.98" cy="108.14" rx="1.73" ry="4.6" transform="translate(-73.65 61.78) rotate(-50.97)"/>
    <path class="cls-25" d="M80.32,193.68c-.15-3.18-.31-6.36-.48-9.53-.26-4.29-.36-8.59-.96-12.86-.02-.29-1.08-.01-1.06.35.6,4.27.72,8.57.96,12.86.19,3.22.38,6.35.48,9.53.02.26,1.08.02,1.06-.35Z"/>
    <path class="cls-25" d="M75.36,243.85c.16-11.36-1.29-22.69-4.3-33.64-.06-.25-1.07,0-1.07.29-1.42,13.92-1.38,27.95.11,41.86,0,.19,1.07,0,1.07-.29-1.49-13.91-1.53-27.94-.11-41.86l-1.07.29c3.01,10.96,4.46,22.28,4.3,33.64,0,.16,1.07,0,1.07-.29Z"/>
    <path class="cls-25" d="M35.05,245.78c.61-12.14-.11-24.31-2.15-36.3-.09-.47-.94-.25-1.07.08-2.58,6.45-2.28,13.77-2.42,20.63-.16,7.6-.2,15.21-.11,22.81,0,.58,1.07.43,1.07-.08-.07-7.43-.04-14.85.1-22.27.13-6.93-.24-14.39,2.38-20.94l-1.07.06c2.04,11.91,2.76,24.01,2.15,36.08,0,.58,1.07.44,1.07-.08h.05Z"/>
    <path class="cls-27" d="M55.7,127.17c.73.26,1.51.37,2.28.31.73-.02,1.45-.16,2.13-.43,1.06-.39,1.6-1.56,1.22-2.63-.38-.68-.72-1.38-1.03-2.09,0-.14-.42.03-.37.13.29.72.63,1.41,1,2.09.31.61.21,1.34-.24,1.85-.5.51-1.18.81-1.89.84-.94.17-1.92.1-2.82-.22-.12,0-.45.15-.29.21l.02-.07Z"/>
    <path class="cls-27" d="M52.29,124.67c-.34,0-.64.19-.78.5-.11.35-.15.72-.1,1.08,0,.34.13.67.35.93.37.31.83.47,1.31.46.3,0,.6-.08.87-.2.32-.12.61-.31.93-.41,0,0,.19-.07.18-.12s-.18.01-.2.01c-.23.08-.46.18-.68.29-.21.13-.44.2-.69.22-.41.02-.82-.08-1.18-.29-.46-.41-.66-1.05-.52-1.65.01-.16.06-.32.12-.47.03-.06.06-.12.11-.17h0s-.11,0,0,0c.09,0,.19-.03.26-.08v-.08s.02-.02.02-.02Z"/>
    <polygon class="cls-22" points="102.74 205.35 129.41 205.35 126.23 237.87 105.73 237.63 102.74 205.35"/>
    <path class="cls-6" d="M102.5,205.41h25.37c.23,0,1.07-.14,1.26,0-.12-.09-.09.2-.12.45-.25,1.53-.3,3.1-.45,4.63l-1.56,15.94-1.07,11.39.59-.25-10.25-.12-7.1-.08h-2.26c-.21.02-.43.02-.64,0-.26-.06-.18,0-.13,0-.2-.77-.27-1.57-.21-2.36l-.52-5.57-1.38-14.84-.88-9.49c0-.14-.73,0-.72.18l2.62,28.25.38,4.03s.1.05.12.05l20.52.24c.14,0,.57-.05.59-.25l2.73-28.39.4-4.06s-.12-.05-.13-.05h-26.68c-.15,0-.81.29-.46.29Z"/>
    <path class="cls-15" d="M123.83,218.77c-1.46-.29-2.87-.75-4.22-1.38-2.62-.95-5,1.26-7.69.76-1.37-.25-2.57-.99-3.91-1.3-.68-.17-1.4-.13-2.06.1l1.71,18.5,16.69.19,1.66-16.93c-.72.12-1.45.14-2.17.05Z"/>
    <path class="cls-5" d="M46.89,242.47c11.04-7.44,34.17-38.06,34.17-38.06l-6.46-9.8s-32,18.84-39.37,28.59c2.8,5.62,8.92,13.59,11.66,19.27Z"/>
    <path class="cls-5" d="M26.93,239.74c1.2-.59,2.61-1.42,3.81-1.99,4.41-2.11,8.86-4.13,13.2-6.38-.37-.52-4.38-4.04-4.72-4.51l-9.57-29.92-2.95-5.89c-2.42-7.22-8.52-26.51-13.04-27.74,0,0-7.86,9.98-10.27,16.15-2.41,6.16-2.22,8.75,3.85,23.64l3.54,12.71c4.5,11.47,7.21,19.63,9.98,20.73.12.09,6.11,3.08,6.17,3.19Z"/>
    <path class="cls-5" d="M17.98,225.97s2.56,8.7,9.95,10.75c7.4,2.05,16.32-3.55,16.32-3.55l-10.01-13.8-16.26,6.6Z"/>
    <path class="cls-23" d="M11.05,160.38s-13.27,6.19-11.29,29.69c1.72,20.48,6.6,18.56,6.6,18.56,0,0,19.75-3.49,26.72-8.53,6.96-5.04-18.52-37.99-18.52-37.99"/>
    <path class="cls-25" d="M32.31,200.98l2.7-1.7c.12-.06.19-.19.17-.32-.88-4.33-2-8.61-3.38-12.8-1.98-6.08-4.65-12.95-10.46-16.38-1.12-.68-2.77-1.32-4.08-.71-.66.31-.02.68.46.46-.17.07,0,0,0,0,.23-.04.46-.05.69-.04,1.09.22,2.11.7,2.97,1.4,2.59,1.97,4.68,4.51,6.1,7.43,2.52,5.31,4.41,10.89,5.66,16.63.36,1.43.69,2.87.98,4.31l.17-.33-2.7,1.7c-.6.38.32.54.69.31l.02.05Z"/>
    <path class="cls-5" d="M77.25,206.79l4.3-3.85s12.16-2.26,15.26-4.15c2.22-1.52,4.2-3.34,5.9-5.43l2.99-.75c1.42-.38,2.65-1.27,3.46-2.49l.65-.98s4,.19,4.1-1.22c.11-1.41-1.37-1.92-2.81-2.43s-25.42,1.27-25.42,1.27c1.4-1.83,4.86-3.33,6.51-4.85,2.55-2.31,2.76-4.28.97-4.66-1.91-.02-3.71.89-4.82,2.44-1.14,1.73-9.43,4.31-11.74,7.06s-2.31,7.97-2.31,7.97c-.87,1.27-1.85,2.46-2.92,3.56.63,3.55,5.88,8.5,5.88,8.5Z"/>
    <path class="cls-20" d="M110.69,188.97c-2.02.18-4.02.49-6,.91-2.02.45-4.07.74-6.14.87-.26.02-.69.41-.23.4,2.02-.12,4.02-.4,5.99-.84,2.02-.44,4.07-.76,6.13-.95.26-.02.7-.42.25-.39Z"/>
    <path class="cls-20" d="M103.29,193.23l-7.09,1.82-1.06.27c-.09,0-.37.1-.37.22s.2.11.29.09l7.09-1.82,1.06-.27c.09,0,.37-.1.37-.22s-.2-.11-.29-.09Z"/>
    <polygon class="cls-16" points="102.03 237.29 23.06 237.29 20.35 231.94 104.75 231.94 102.03 237.29"/>
    <path class="cls-6" d="M102.29,237.11H28.8c-1.68,0-3.38-.09-5.05,0-.13.03-.26.03-.39,0-.13-.05.2.14.09.05s-.28-.57-.38-.74l-2.33-4.62-.64.27h83.84c.68,0,.56-.15.23.34-.92,1.58-1.76,3.22-2.49,4.9-.06.12.68.06.77-.14l2.72-5.37c0-.08-.1-.1-.14-.1H20.6c-.08,0-.73.11-.64.27l2.72,5.37c0,.05.09.06.14.06h78.96c.19.03.89-.3.52-.3Z"/>
    <path class="cls-28" d="M72.47,229.34c-.16-1.73-.28-3.62.56-5.06.95-1.35,2.45-2.22,4.1-2.38,1.03-.21,2.06-.35,3.11-.44,2.28-.19,4.79,0,6.45,1.82,1.16,1.35,1.69,3.13,1.45,4.89-.03.34-.13.67-.3.97-.29.38-.71.64-1.17.74-2.02.52-4.1.71-6.18.57l-5.37-.06c-.77,0-1.73-.17-1.98-1.07"/>
    <path class="cls-18" d="M44.14,227.06c-1.67.34-3.4.34-5.07,0-1.03-.33-2-.8-2.9-1.4-1.23-.75-2.43-1.55-3.6-2.39-.11-.09-.24-.19-.23-.33s.17-.23.31-.27c3.12-1.13,6.63-.2,9.52,1.42.83.47,1.71,1.13,1.81,2.07"/>
    <path class="cls-14" d="M42.35,228.47c-1.42.96-3.01,1.63-4.69,1.97-1.08.1-2.16.06-3.22-.13-1.43-.21-2.87-.47-4.3-.77-.13,0-.29-.08-.33-.21s.06-.27.17-.38c2.42-2.26,6.02-2.81,9.31-2.46.97-.02,1.89.43,2.48,1.19"/>
    <path class="cls-14" d="M84.37,226.5c1.61-.58,3.31-.84,5.02-.77,1.07.16,2.1.47,3.08.91,1.33.55,2.64,1.14,3.93,1.78.13,0,.27.15.28.28s-.13.26-.26.32c-2.89,1.61-6.51,1.27-9.67.13-.89-.33-1.87-.84-2.15-1.76"/>
    <path class="cls-18" d="M85.91,224.83c1.24-1.17,2.7-2.08,4.3-2.69,1.05-.28,2.14-.41,3.22-.39,1.44,0,2.88,0,4.3.08.15-.07.33,0,.4.15.07.15,0,.33-.15.4-2.02,2.62-5.48,3.74-8.79,3.93-.95.17-1.93-.12-2.64-.77"/>
    <path class="cls-18" d="M67.07,229.31c.53-1.62,1.38-3.12,2.49-4.42.79-.74,1.67-1.37,2.63-1.87,1.25-.71,2.53-1.38,3.83-1.99.13-.06.29-.12.4,0s.12.27.1.41c-.53,3.22-3.04,5.9-5.86,7.64-.75.61-1.75.83-2.69.58"/>
    <path class="cls-14" d="M67.69,226.78c-.09-1.71.16-3.42.74-5.03.46-.97,1.06-1.87,1.77-2.68.91-1.07,1.87-2.15,2.86-3.22.1-.1.23-.2.37-.17s.19.19.23.34c.69,3.22-.71,6.6-2.72,9.23-.48.84-1.34,1.4-2.3,1.5"/>
    <path class="cls-14" d="M52.52,229.59c-.09-1.7.16-3.41.73-5.02.47-.97,1.07-1.88,1.78-2.69.91-1.07,1.87-2.15,2.86-3.22.1-.1.23-.21.35-.17s.2.19.24.34c.68,3.22-.72,6.59-2.72,9.23-.48.84-1.34,1.4-2.3,1.5"/>
    <path class="cls-28" d="M55.07,229.34c-.15-1.73-.28-3.62.57-5.06.95-1.35,2.44-2.22,4.08-2.38,1.03-.21,2.07-.35,3.12-.44,2.27-.19,4.78,0,6.45,1.82,1.18,1.34,1.73,3.12,1.5,4.89-.03.34-.13.67-.3.97-.29.38-.7.64-1.16.74-2.02.52-4.11.71-6.19.57l-5.37-.06c-.77,0-1.73-.17-1.98-1.07"/>
    <path class="cls-28" d="M38.36,229.34c-.15-1.73-.28-3.62.56-5.06.95-1.35,2.45-2.22,4.1-2.38,1.03-.21,2.07-.35,3.12-.44,2.27-.19,4.78,0,6.45,1.82,1.16,1.35,1.69,3.13,1.45,4.89-.03.34-.13.67-.3.97-.29.38-.7.64-1.16.74-2.02.52-4.11.71-6.19.57l-5.37-.06c-.77,0-1.73-.17-1.98-1.07"/>
    <rect class="cls-16" x="13.49" y="228.19" width="96.64" height="3.75" rx="1.74" ry="1.74"/>
    <path class="cls-6" d="M108.51,231.8H18.48c-.95.05-1.91.05-2.86,0-1.96-.21-2.45-3.02-.32-3.42.45-.04.9-.04,1.34,0h79.05c3.99,0,8.09-.28,12.07,0h.24c.66.04,1.25.42,1.56,1.01.44.79.16,1.79-.63,2.24-.14.08-.29.13-.44.17-.21,0-.85.38-.33.33.93,0,1.79-.5,2.25-1.31.46-.97.04-2.13-.94-2.59-.04-.02-.09-.04-.14-.06-.41-.12-.84-.16-1.27-.13H28.22c-4.14,0-8.3-.11-12.45,0-.95-.07-1.87.37-2.42,1.16-.51.98-.13,2.19.85,2.7.31.16.66.24,1.01.23,1.24.06,2.49,0,3.73,0h89.06c.17-.02.89-.33.51-.33Z"/>
    <path class="cls-16" d="M195.62,235.4v-3.46h-73.09l2.72,5.37h70.34l.03-1.91Z"/>
    <path class="cls-6" d="M196.01,235.3v-3.49c0-.1-.18-.11-.24-.11h-73.09c-.1,0-.66.11-.55.31l2.71,5.37c.06.08.15.12.25.11h70.38c.18,0,.55-.09.55-.32v-1.87c0-.23-.78-.09-.78.21v1.87l.55-.32h-65.88c-1.39,0-2.85-.13-4.22,0-.09.02-.17.02-.26,0,.41.16.15.06.1-.15-.11-.3-.25-.59-.43-.85l-2.15-4.22-.55.32h72.07c.21,0,.76-.11.96,0s-.21-.23-.2,0v3.38c.01.2.8.05.8-.24Z"/>
    <path class="cls-16" d="M195.62,228.19h-78.03c-1.03,0-1.88.84-1.88,1.87h0c0,1.04.84,1.88,1.88,1.88h78.03v-3.75Z"/>
    <path class="cls-6" d="M195.77,227.96h-76.19c-.9-.09-1.82-.05-2.71.14-1.11.31-1.75,1.46-1.44,2.57.17.61.61,1.1,1.18,1.35.39.13.8.18,1.2.16h77.66c.14,0,.55-.08.55-.29v-3.74c0-.35-.78-.19-.78.09v3.75l.54-.29h-75.24c-.93.05-1.86.05-2.78,0-1.84-.18-2.46-2.92-.28-3.22.31-.02.63-.02.95,0h77.06c.31-.04.83-.52.29-.52Z"/>
    <path class="cls-20" d="M114.71,128.36h0l.28-.22c.34-.21.71-.38,1.09-.49.44-.11.89-.16,1.34-.13.14,0,.29.02.43.06h.11c.03.29.71.1.69-.16s-.55-.36-.78-.38c-.62-.05-1.24.01-1.83.18-.56.16-1.09.4-1.57.74-.15.11-.62.44-.49.69s.8-.08.68-.26l.04-.02Z"/>
    <path class="cls-20" d="M103.67,134.32c.27-.15.24-.45.24-.72,0-.74-.06-1.5-.12-2.27-.1-2.08-.4-4.14-.89-6.17-.37-1.96-1.4-3.73-2.92-5.02-.57-.47-1.3-.71-2.04-.67-.7.22-1.36.53-1.97.93-.14.01-.29.15-.27.32.31,1.86.59,3.73.9,5.62.24,1.91.63,3.81,1.17,5.66.09.26.78.02.68-.26-.54-1.85-.93-3.74-1.17-5.66-.32-1.86-.59-3.73-.9-5.62l-.28.32c.57-.36,1.2-.63,1.86-.79.91.11,1.75.58,2.32,1.3,1.09,1.35,1.81,2.96,2.11,4.66.39,1.75.63,3.53.74,5.32.07.67.13,1.32.11,1.99.01.22.03.44.06.66.03.28-.17.28.14.11-.43.24.05.47.32.31l-.1-.05Z"/>
    <path class="cls-20" d="M115.95,144.7c-.11-1.34-.55-2.63-1.28-3.75-.78-1.41-1.7-2.73-2.75-3.95-.15-.18-.78.08-.66.29l.08.14c.14.24.75.02.68-.26-.84-2.9-.48-5.94-1.81-8.72-.49-1.02-1.4-2.61-2.5-3.04-1.16-.23-2.36,0-3.36.61-.26.1-.48.27-.64.5-.11.25.07.76.1,1.01l.15,1.54c.17,1.71.33,3.39.5,5.11.07,1.39.24,2.77.51,4.13.15.56.71,2.55,1.48,2.49.29-.03.69-.49.23-.46.17-.02-.16-.32-.24-.46-.17-.28-.32-.58-.45-.88-.29-.71-.46-1.46-.53-2.23l-.3-3.05c-.13-1.36-.27-2.71-.4-4.06-.07-.7-.14-1.39-.2-2.08-.08-.34-.11-.69-.1-1.04,0-.09-.16.02.12-.14.74-.49,1.63-.72,2.52-.63.66.13,1.1.74,1.48,1.24.83,1.12,1.43,2.4,1.78,3.75.57,2.23.44,4.52,1.06,6.67l.68-.26-.08-.13-.65.3c1.02,1.19,1.91,2.48,2.66,3.86.71,1.1,1.15,2.35,1.27,3.65.03.31.7.13.69-.15h-.05Z"/>
    <path class="cls-20" d="M125.09,146.26c1.97-.28,3.83-1.13,5.33-2.44.61-.56,1.09-1.24,1.4-2.01.16-.38-.56-.32-.68-.03-.93,2.18-3.29,3.31-5.46,3.82l-.59.12c-.4.04-.48.61.05.53h-.06Z"/>
    <path class="cls-21" d="M161.53,197.95c6.03,5.39,1.48,18.91,5.01,26.22,2.45,5.06,17.81.88,19.65-.4,3.31-2.96,4.58-8.41,6.54-12.16,2.97-5.58,9.94-24.11,6.85-29.27-.7-1.17-22.33-12.1-22.07-12.2"/>
    <path class="cls-21" d="M222.28,121.88c.22-6.13-1.61-12.16-5.2-17.14l-5.97,2.1-12.07.46-12.11,5.85c-2.54,1.33-8.96,4.82-11.94,8.31-6.48,8.28-7.2,19.8-9.87,29.8-.87,3.33-8.72,39.42-7.14,40.05,10.99,4.32,17.93-5.69,24.64,4.13,1.94-4.72,4.32-9.25,7.11-13.53,8.4-13.46,18.93-25.61,26.26-39.8,3.24-6.28,5.97-13.09,6.29-20.24Z"/>
    <path class="cls-8" d="M175.17,205.07c1.28-2.74.85-6.14.2-8.99-.66-3.25-2.07-6.3-4.11-8.91-2.59-3.05-5.02-6.25-7.51-9.38l-3.14-3.96c-.14-.17-.73.07-.63.23l7.19,9.02c.97,1.23,1.93,2.49,2.93,3.7,1.87,2.21,3.28,4.78,4.13,7.56,1.05,3.33,1.88,7.55.34,10.85-.06.14.54.03.63-.16l-.04.05Z"/>
    <path class="cls-13" d="M205.19,19.89c-.84-.2-1.69-.34-2.55-.42-1.59-.03-2.83,1.53-4.33,1.98-1.04.26-2.14.26-3.18-.01-.72-.24-1.46-.4-2.21-.48-.49-.02-.96.14-1.34.45-.23.21-.18.02-.23.34.05-.37.16.45.18.49.21.9-.16,1.85-.94,2.36l.55,2.68c.25,1.19,1.41,1.96,2.61,1.72l12.81-2.64c1.18-.27,1.92-1.42,1.68-2.61l-.79-3.84c-.76.1-1.53.09-2.28-.03Z"/>
    <path class="cls-21" d="M258.27,230.28s24.49-1.02,29.75-1.25c5.06-.23,12.56-.73,17.99-11.48,5.27-10.38,1.45-19.05-1.04-28.9-4.36-17.21-8.99-50.19-15.25-67.54-7.2-20.01-42.09-20.22-42.09-20.22l10.64,129.39Z"/>
    <path class="cls-8" d="M264.83,120.82c-3.2,4.51-4.79,9.97-4.51,15.5.14,1.83.44,3.65.89,5.43l2.8,12.22,8.62,37.72,2.19,9.57c.02.22.73,0,.68-.26l-5.7-25.11-7.58-33.25c-.25-1.11-.53-2.22-.75-3.33-1.22-6.48.25-13.18,4.07-18.56.17-.23-.52-.12-.64.06h-.06Z"/>
    <path class="cls-4" d="M143.41,133.53h.09s-.02-.24-.02-.24l-.06.24Z"/>
    <path class="cls-11" d="M242.25,136.48c3.61-2.58,19.05-26.71,19.05-26.71,5.53-8.94,9.01-4.74-.49-13.6l-7.97-11.76s11.17-69.45-37.54-69.66c0,0-30.86-3.06-34.78,26.41,0,0-1.57,18.86.51,30.94,1.94,11.2,8.3,31.5,8.3,31.5"/>
    <path class="cls-11" d="M188.93,88.65l.06-2.57c-.09.85-.11,1.71-.06,2.57Z"/>
    <path class="cls-11" d="M237.51,77.17s-4.57,23.13-28.05,23.49c-18.15.31-20.74-11.36-20.99-16.67l-.32,13.98c-.07,6.74,1.77,7-1.68,12.48l-4.39,5.45c3.22.59,5.4,8.55,7.24,10.98,9.22,12.06,19.93,24.23,44.38,17.34,11.13-3.14,22.22-29.18,22.22-29.18l-4.21-42.95-14.21,5.07Z"/>
    <path class="cls-5" d="M182.24,55.86c-.51-4.45,1.07-14.25,1.07-14.25.06-.47.84-7.38,1-7.78,6.64-3.47,16.04-8.29,23.36-7.16,7.11,1.1,23.42,4.1,24.43,12.91.32,2.69-.06,20.12,2,20.44.05.3.08.61.09.92.23,2.42.61,4.82,1.15,7.19.88-1.2,1.63-2.48,2.25-3.83.32-.87-.03-1.94.29-2.81,1.02-2.03,3.69-1.65,5.24-.51l.28.37c2.24,2.55.76,11.2-.51,13.84,0,5.15-4.29,8.23-7.1,4.73l-.54,2.06-5.47,7.08c-4.75,5.68-13.49,15.06-21.65,15.62-5.54.38-7.37-.78-9.53-2.51-3.27-2.64-5.21-5.71-7.76-8.96-2.16-2.55-3.79-5.51-4.79-8.7-1.11-2.78-1.54-5.79-1.25-8.77.07-2.03-.03-4.05-.28-6.06-.28-1.86-1.74-9.39-2.27-13.83Z"/>
    <path class="cls-27" d="M190.2,66.5c-.75-.23-1.56-.02-2.11.54-.2.27-.34.59-.38.92-.1.63.12,1.26.6,1.68.57.5,1.4.57,2.05.19.78-.5,1.1-1.49.76-2.35-.16-.44-.49-.79-.91-.99"/>
    <path class="cls-27" d="M214.18,63.89c.74-.42,1.64-.44,2.39-.05.28.2.5.49.63.81.2.6.08,1.26-.3,1.77-.48.59-1.28.8-1.99.53-.86-.36-1.34-1.28-1.15-2.19-.01-.14-.14-.41.42-.76"/>
    <path class="cls-16" d="M236.57,64.23s-8.36-24.29-33.84-23.24c-14.71.6-20.54,13.68-20.54,13.68,0,0-1.05-13.66,4.46-19.35,5.5-5.69,24.68-7.82,33.87-4.4,9.19,3.42,16.06,33.31,16.06,33.31Z"/>
    <path class="cls-11" d="M245.23,43.65s-9.65-27.64-34-26.79c-30.25,1.15-31.18,33.17-31.18,33.17l2.05,23.56c-.66-6.07-1.47-11.49-.27-17.47-.02-3.45-1.98-12.47,7.33-19.08,5.05-3.58,11.52-4.71,17.61-4.28,5.6.39,12.07,1.98,15.76,6.56,3.12,3.83,5.47,8.23,6.92,12.95,2.12,6.27,2.84,15.45,2.73,22.02-.22,5.95.34,13.89-8.41,24.38,25.64-10.49,24.6-41.03,22.17-54.99l-.69-.03Z"/>
    <path class="cls-8" d="M227.49,21.58c5.57,3.94,9.59,10.63,11.53,17.03,3.06,10.07,1.48,21.37-.44,31.53-.52,2.67-1.07,5.36-1.78,8-.09.35.79.16.89-.18,1.86-7.02,3.07-14.2,3.6-21.45.55-5.41.27-10.86-.84-16.18-1.2-4.97-3.46-9.63-6.63-13.65-1.58-2.1-3.44-3.96-5.54-5.54-.29-.2-1.06.23-.79.44Z"/>
    <path class="cls-8" d="M251.75,86.19c-.8,4.03-1.85,8-3.16,11.9-2.38,7.27-5.45,14.69-10.39,20.62-2.64,3.16-6,5.91-10.12,6.9-.49.11-.61.79-.01.66,7.5-1.81,12.49-8.61,15.92-15.08,3.33-6.51,5.88-13.41,7.57-20.53.38-1.53.78-3.08,1.04-4.63.08-.43-.82-.23-.89.16h.04Z"/>
    <path class="cls-8" d="M228.88,90.93c-2.56,8.07-6.02,16.93-13.37,21.83-3.87,2.64-8.68,3.5-13.22,2.37-4.25-1.03-8.31-2.71-12.03-4.99-.23-.14-.99.29-.8.4,5.89,3.41,13.27,6.82,20.22,5.21,6.95-1.61,12-7.09,15.31-13.15,1.97-3.79,3.57-7.75,4.78-11.84.07-.21-.79-.03-.87.23v-.06Z"/>
    <path class="cls-8" d="M189.53,116.93c2.33.25,4.54,1.15,6.37,2.62,2.12,1.97,4.05,4.14,5.77,6.47,3.14,3.76,6.85,9.24,12.51,8.22.26-.03.92-.54.34-.43-3,.54-5.7-1.16-7.73-3.21-2.04-2.05-3.98-4.59-5.91-6.91-1.39-1.86-3-3.54-4.81-4.99-1.74-1.24-3.77-2-5.89-2.22-.22.02-.98.41-.69.43l.04.02Z"/>
    <path class="cls-27" d="M203,80.35c-1.59.93-3.5,1.12-5.24.51-.96-.35-1.62-1.25-1.66-2.27.15-.97.39-1.93.72-2.86-.01-.13-.4-.04-.43.11-.42,1.02-.68,2.1-.77,3.2.2,1.04.97,1.87,1.99,2.14,1.88.57,3.9.32,5.59-.67.28-.16-.02-.22-.19-.13l-.02-.03Z"/>
    <path class="cls-27" d="M207.15,77.27c.28-.03.48.29.57.51.14.32.21.66.22,1,.03.32-.07.65-.28.89-.35.34-.8.54-1.28.59-.66.02-1.32-.08-1.95-.27-.12-.01-.23.03-.31.12-.06.08-.04.17.02.18.67.18,1.36.28,2.06.28.6-.07,1.16-.31,1.64-.68.33-.28.52-.7.51-1.13,0-.41-.07-.82-.23-1.2-.14-.41-.55-.66-.98-.61-.24.02-.34.32.03.28v.03Z"/>
    <path class="cls-8" d="M212.25,221.28l-.26-2.67-.38.36c8.93-2.78,17.88-5.46,26.86-8.03,7.11-2.07,14.23-4.08,21.4-5.95,5.27-1.51,10.64-2.7,16.06-3.55,5.66-.74,12.74,1.41,14.86,7.31.1.27,1.01-.1.91-.35-1.96-5.44-8.33-7.88-13.71-7.63-4.83.21-9.73,1.67-14.4,2.82-14.03,3.53-27.89,7.65-41.73,11.84-3.47,1.05-6.95,2.12-10.42,3.18-.15.01-.39.18-.38.36l.26,2.67c.02.24.93-.02.9-.34l.03-.04Z"/>
    <path class="cls-7" d="M203.64,85.65c3.79-.45,10.21-1.63,10.21-1.63,0,0-.01,9.82-8.81,10.84-8.8,1.02-10.68-8.38-10.68-8.38,0,0,5.48-.4,9.28-.83Z"/>
    <path class="cls-24" d="M203.6,85.65c1.81-.18,9.05-1.35,9.05-1.35,0,0-1.35,6.54-7.93,7.26-3.93.61-7.78-1.5-9.37-5.14l8.25-.76Z"/>
    <path class="cls-10" d="M203.55,85.91c1.81-.18,7.27-1.13,7.27-1.13,0,0-1.76,2.12-7.17,2.75s-7.35-1.02-7.35-1.02l7.25-.6Z"/>
    <path class="cls-7" d="M194.09,86.31c.4-.18.82-.34,1.25-.46,1.13-.39,2.28-.71,3.45-.99,1.83-.35,3.09.21,3.89.12s1.9-.93,3.76-1.01c1.07-.1,4.11-.01,5.62-.06.72-.09,1.42-.25,2.11-.47.27.04-.32,2.01-10.42,3.18-10.1,1.17-9.87-.23-9.65-.32Z"/>
    <path class="cls-8" d="M176.67,152.16c1.1,3.2,1.59,6.58,1.45,9.96-.31,3.38-.8,6.75-1.46,10.08-.93,5.8-1.56,11.71-.5,17.54.85,4.61,2.74,9.3,6.34,12.45.77.67,1.6,1.26,2.49,1.75.5.28,1.01.53,1.54.75.28.11,1.11.26,1.27.46.09.35.12.71.1,1.07l.28,2.21,1.24,9.46c.02.22.71.02.68-.26l-1.67-12.8s-.04-.06-.07-.07c-6.57-2.07-10.08-8.18-11.41-14.6-1.72-8.28.27-16.46,1.46-24.67.71-4.56.33-9.21-1.09-13.6-.02-.25-.76,0-.68.26h.03Z"/>
    <path class="cls-5" d="M211.93,220.99l2.28,15.84-1.39.07s-10.25,1.59-13.35,1.47-10.38.52-10.38.52c1.02,1.78.4,4.05-1.38,5.08-.09.05-.18.1-.27.14l-3.54-4.58c-.71,2.29-2.84.76-2.84.76l-2.62-4.06c-.8,2.89-3.57.96-3.57.96l-1.77-5.84c-.67,1.03-1.53,1.91-2.54,2.6-1.33.75-1.96-1.58-1.96-1.58l4.51-9.63,13.64-5.19,22.8,3.76,2.37-.32Z"/>
    <path class="cls-20" d="M183.56,221.19c-.62-.09-1.24,0-1.81.25-.88.33-1.74.71-2.57,1.15-.93.48-1.96,1.01-2.99,1.68-.99.6-1.9,1.32-2.73,2.12-.42.38-.68.91-.71,1.47-.02.44-.01.88.03,1.33-.03.87.13,1.73.46,2.54.04-.84.04-1.68,0-2.52.02-.39,0-.84.05-1.27.03-.44.24-.86.59-1.14.83-.75,1.72-1.42,2.67-2.01,1.02-.64,2.05-1.17,2.91-1.68s1.74-.96,2.45-1.25c.55-.21,1.12-.36,1.71-.44l-.06-.23Z"/>
    <path class="cls-20" d="M185.3,226.03l-.79.41c-1.35.62-3.31,1.27-5.36,2.37-.56.25-1.05.62-1.45,1.08-.24.5-.41,1.03-.48,1.58-.23.89-.24,1.83,0,2.72.22.56.48,1.1.8,1.62.11.19.23.38.36.56-.01-.22-.06-.44-.13-.66-.24-.53-.44-1.07-.59-1.63-.17-.84-.13-1.71.12-2.54.09-.47.24-.92.44-1.35.35-.37.77-.66,1.23-.87,1.98-1.05,3.94-1.79,5.25-2.53.27-.12.54-.25.79-.41-.05-.11-.12-.23-.18-.36Z"/>
    <path class="cls-20" d="M188.41,232.9l-.64.06-1.92.33c-.82.12-1.62.38-2.34.79-.79.44-1.31,1.26-1.38,2.17,0,.71.23,1.4.65,1.97.34.52.79.95,1.33,1.26-.27-.52-.56-1.02-.88-1.51-.32-.51-.47-1.1-.44-1.7.08-.7.49-1.32,1.11-1.65.65-.36,1.35-.62,2.09-.76l1.89-.47.62-.18c-.03-.1-.06-.21-.08-.32Z"/>
    <rect class="cls-2" x="-109.3" y="247.99" width="481.52" height="68.2"/>
    <rect class="cls-26" x="-166.02" y="237.63" width="572.99" height="16.98"/>
    <path class="cls-12" d="M179.2,220.56c.78-.28,1.35-.54,1.85-.71l-5.94-13.75c2.54-1.99,2.16-4.96.05-9.89l-6.63-12.56-1.04.46,5.61,13.13c.14.31,0,.67-.31.81,0,0-.02,0-.02.01-.31.14-.68,0-.82-.32l-5.61-13.15-1.04.44,5.61,13.15c.14.32-.01.69-.33.82-.32.14-.69-.01-.82-.33l-5.61-13.15-1.04.44,5.61,13.15c.14.32,0,.68-.33.82,0,0,0,0,0,0-.31.14-.67,0-.81-.31,0,0,0-.02-.01-.02l-5.61-13.13-1.04.45,4.51,13.48c2.12,4.92,4.03,7.25,7.21,6.77l5.88,13.66s.63-.25.67-.26Z"/>
    <path class="cls-20" d="M80.06,205.54l1.28-1.35c.18-.22.41-.4.68-.5.59-.2,1.2-.33,1.8-.49,1.83-.42,3.63-.95,5.4-1.6.4-.15.25-.62-.15-.46-1.84.67-3.73,1.22-5.64,1.65-.57.12-1.13.28-1.68.47-.29.12-.55.3-.76.53-.48.47-.92.97-1.39,1.45s.23.55.47.29h0Z"/>
    <path class="cls-1" d="M255.12,71.33c1.62-20.53-1.6-51.1-33.48-54.36,0,0-20.28-4.03-31.42,10.26-57.73-18.03-120.44,4.19-153.93,54.55-6.16,2.15-11.6,5.89-14.52,11.3-4,7.38-5.55,18.82-6.78,27.25-.85,5.52-1.66,11.09-2.45,16.68-.31,1.25-.23,2.57.21,3.78.42.65.97,1.21,1.62,1.63-8.03,74.66,45.98,141.69,120.63,149.73,74.66,8.03,141.69-45.98,149.73-120.63,3.87-36.01-6.78-72.07-29.59-100.19h-.02Z"/>
    <path class="cls-4" d="M222.6,58.48c-.49-.03-.83-.1-1.32-.08-2.69.11-5.32.45-7.93,1.12-2.3.58-4.44,1.53-6.57,2.52-.12-.47-.22-.22-.34-.69-.15-.62-.3-1.24-.45-1.86,5.44-1.85,9.69-2.59,11.28-2.63,1.2-.03,2.4.12,3.56.41,0,0,3.19.74,3.64,1.17.44.43-1.86.04-1.86.04Z"/>
    <path class="cls-4" d="M183.33,62.28c.02-.08.04-.16.07-.24,0,0,0,0,0,0,.49-.28,1.11-.59,1.85-.85,1.29-.45,4.88-1.05,9.73-1.06.15.88.3,1.75.46,2.63-2.03-.25-4.05-.46-6.09-.29-1.91.16-3.88.49-5.74,1.05-.08-.18-.17-.35-.24-.53-.03-.13-.05-.25-.07-.38,0-.11.01-.22.03-.33Z"/>
    <path class="cls-16" d="M208.08,67.01s3.64,1.35,7.9.58c4.92-.89,6.43-3.18,6.43-3.18,0,0-3.07-.92-5.53-.86s-6.92,1.18-8.8,3.46Z"/>
    <path class="cls-16" d="M195.73,67.59s-3.06,2.08-6.07,2.44c-3.91.46-4.84-2.19-4.84-2.19,0,0,1.53-1.46,3.42-1.89s5.47.42,7.5,1.64Z"/>
    <path class="cls-4" d="M207.98,67s3.08-3.41,7.18-3.96c3.12-.42,5.79.1,7.25,1.37,0,0-4.78-.75-6.97-.42s-7.45,3.01-7.45,3.01Z"/>
    <path class="cls-4" d="M222.26,64.58s1.34.31,1.89-1.37c0,0-2.26,1.24-5.01.68l3.12.7Z"/>
    <path class="cls-4" d="M195.92,67.67s-2.71-1.71-4.49-1.9c-3.64-.39-5.94.21-6.76,2.33,0,0,3.27-1.84,6.39-1.47,1.75.21,4.87,1.04,4.87,1.04Z"/>
    <path class="cls-4" d="M184.9,67.96s-1,.94-2.32-.24c0,0,1.32.73,3.41-1.14l-1.08,1.38Z"/>
    <path class="cls-4" d="M187.74,70.1c.46.06.95,0,1.42,0,.46,0,.92-.07,1.36-.17.28-.65.23-1.43-.07-2-.08-.15-.44-.78-1.17-.99-.9-.25-1.78.32-2.21.91-.1.14-.37.53-.41,1.1-.02.29.05.57.16.84.31.1.6.27.92.31Z"/>
    <path class="cls-4" d="M215.46,67.85c.25-.05.49-.13.73-.21.25-.56.32-1.28,0-1.87-.27-.51-.68-.76-.83-.84-.63-.36-1.66-.53-2.39.07-.58.48-.65,1.21-.66,1.38-.03.51.13,1.07.45,1.52.88,0,1.82.12,2.69-.05Z"/>
    <path class="cls-4" d="M69.81,109.34s0-.02,0-.03c0,0,0-.01,0-.03,0-.05-.01-.1-.02-.16-.02-.09-.03-.18-.06-.27,0,0,0-.01,0-.02-.08-.05-.13-.08-.13-.08-.72-.48-1.48-.83-2.27-1-1.03-.23-3.86-.17-7.56.78,0,.08-.23.08-.23.16.11.81-.01,1.57.04,2.39,1.45-.63,3.49-1.6,5-1.8,1.77-.25,3.45.36,5.2.69.02,0,.04.01.06.01,0-.21,0-.43-.02-.64Z"/>
    <path class="cls-4" d="M51.02,109.45c0-.08-.3-.08-.3-.16-4.8-.92-8.44-.94-9.76-.69-1.01.19-1.98.55-2.9,1.05,0,0-2.54,1.33-2.85,1.85-.3.52,1.56-.29,1.56-.29.4-.12.67-.25,1.08-.32,2.26-.37,4.41-1,6.69-.78,1.95.18,4.6,1.15,6.49,1.77.04-.84-.12-1.61,0-2.43Z"/>
    <path class="cls-16" d="M36.44,116.43s4.57,2.44,8.07,1.97c3.5-.48,5.68-1.22,5.68-1.22,0,0-2.49-2.76-4.97-3.09s-7.57-.03-8.77,2.35Z"/>
    <ellipse class="cls-4" cx="44.84" cy="116.06" rx="2.16" ry="2.15" transform="translate(-76.39 144.04) rotate(-81.87)"/>
    <path class="cls-4" d="M50.22,117.1s-4.06-4.65-8.02-3.74c-4.48,1.03-5.18,1.97-5.77,3.07,0,0,1.61-1.46,5.98-2.12,3.96-.61,7.81,2.79,7.81,2.79Z"/>
    <path class="cls-16" d="M59.56,117.15s5.51.75,7.26-.17,2.59-2.17,2.59-2.17c0,0-.66-1.71-2.83-1.77-2.16-.07-4.45-.4-7.03,4.11Z"/>
    <path class="cls-4" d="M68.25,114.93c-.07,1.19-1.08,2.1-2.27,2.04-1.19-.06-2.1-1.08-2.03-2.27.07-1.19,1.43-1.91,2.62-1.85,1.19.06,1.74.89,1.68,2.08Z"/>
    <path class="cls-4" d="M68.22,113.28c-1.13-.56-1.77-.9-3.97-.69-3.53.33-4.68,4.55-4.68,4.55,0,0,1.46-3.17,4.93-3.59,1.67-.2,3.63.6,4.93,1.25-.04-.34-.54-1.07-1.2-1.52Z"/>
  </g>
</svg>