<?xml version="1.0" encoding="UTF-8"?>
<svg id="Layer_6" xmlns="http://www.w3.org/2000/svg" xmlns:xlink="http://www.w3.org/1999/xlink" version="1.1" viewBox="0 0 292.9 302">
  <!-- Generator: Adobe Illustrator 29.6.1, SVG Export Plug-In . SVG Version: 2.1.1 Build 9)  -->
  <defs>
    <style>
      .st0 {
        fill: none;
      }

      .st1 {
        fill: #f78e48;
      }

      .st2 {
        fill: #151312;
      }

      .st3 {
        fill: #4f2f26;
      }

      .st4 {
        fill: #010101;
      }

      .st5 {
        fill: #755346;
      }

      .st6 {
        fill: #ce8d2a;
      }

      .st7 {
        fill: #231f20;
      }

      .st8 {
        fill: #98554a;
      }

      .st9 {
        fill: #527569;
      }

      .st10 {
        fill: #f1eef7;
      }

      .st11 {
        fill: url(#linear-gradient);
      }

      .st12 {
        fill: #906244;
      }

      .st13 {
        fill: #661f0f;
      }

      .st14 {
        fill: #412c16;
      }

      .st15 {
        fill: #0a2f44;
      }

      .st16 {
        fill: #ca5844;
      }

      .st17 {
        fill: #1e1811;
      }

      .st18 {
        fill: #fff;
      }

      .st19 {
        fill: #251911;
      }

      .st20 {
        fill: #dbb28f;
      }

      .st21 {
        fill: #0f8dce;
      }

      .st22 {
        fill: #111f28;
      }

      .st23 {
        fill: #192141;
      }

      .st24 {
        fill: #192a19;
      }

      .st25 {
        fill: #161412;
      }

      .st26 {
        fill: #f9da04;
      }

      .st27 {
        clip-path: url(#clippath);
      }

      .st28 {
        fill: #523936;
      }

      .st29 {
        fill: #2b4f74;
      }
    </style>
    <clipPath id="clippath">
      <path class="st0" d="M171.4,23c-6.6-28.3-35-45.8-63.2-39.1-23.8,5.6-40.6,26.8-40.5,51.2,0,3.2.3,6.4.9,9.5C6.6,87.3-9,172,33.7,233.9c42.7,61.9,127.4,77.5,189.3,34.8,61.9-42.7,77.5-127.4,34.8-189.3-20.3-29.4-51.3-49.7-86.4-56.4h0Z"/>
    </clipPath>
    <linearGradient id="linear-gradient" x1="141.1" y1="237.7" x2="156.9" y2="-35.4" gradientTransform="translate(0 301.9) scale(1 -1)" gradientUnits="userSpaceOnUse">
      <stop offset="0" stop-color="#d1d3d4"/>
      <stop offset=".9" stop-color="#6d6e71"/>
    </linearGradient>
  </defs>
  <g class="st27">
    <g>
      <ellipse class="st11" cx="146.5" cy="157.1" rx="136.8" ry="136.1"/>
      <rect class="st29" x="-18.6" y="143.5" width="326.9" height="159.9"/>
      <path class="st20" d="M102.4,187.5s-4.6-7.4-8.1-9.4c-1-.6-7.7-8.5-7.7-8.5,0,0-2.6,1-.5,4.6,2.2,3.6,3.1,5.1,3.1,5.1v1.3c.1,0-7,.4-7,.4,0,0-8.1-.8-10.1-.9s-6.2-.3-7,2.1c0,0-3.1-.4-3.5,1.1-.3.7-.2,1.5.2,2.1l1.4.6s-.9.3-.5,1.8,13.5,4.3,13.5,4.3l.6.6s-9.1-.4-9.4.3c-.3.8-.7,1.4.7,2s25.7,5.2,28.6,5.1c.8,0,2.4-.1,2.9-.1,1.3,0,3.5,0,3.5,0l3.5-11.7-4.3-.9h0Z"/>
      <path class="st20" d="M142.6,119.7c-5.5-.6-10.9-1.2-16.4-1.6-3.8-.3-7.5-.5-11.3-.5-1.7,0-3.4.2-5,.5v1.1c.5,13.2,4.4,26.1,6.1,39.2.6,4.2,5.9,16.8,8.6,26.3,1.6,6.3-3.8,2.3,6.7,3.2,1.5.1,16.3-17.6,15.8-20.4-3.1-17.4-3.1-37.2-4.3-47.8h0Z"/>
      <path class="st20" d="M151.1,190.6c14.8-6.3,37.7-19.9,37.7-19.9-2.2-5.5-3.9-6.7-3.2-10.9l-52,9.6c-3.4,10.5,15.6,13.6,17.5,21.3h0Z"/>
      <path class="st20" d="M147.1,167.7l-.4-1.8c-2.7.7-2.7-1-2.7-1.1s-.6-1.5-.6-1.5c-9.7,2.7-19.4,7.9-18.6,19.1,2.2,8.1,6.1,13.6,21.5,11.6,1.2-.1,13.6-2.8,16.9-3.9-.4-8.1-14.8-14.4-16.1-22.4h0Z"/>
      <path class="st20" d="M190.2,166.2c-8.7,11.2-21.1,38.1-28,39.1-16.4,2.5-59.3-5.1-59.3-5.1l-1.1-13.1h50.4c0,.1,21.9-36.7,24.9-41.8,0,0,9.8-14.1,20.2-3.7"/>
      <path class="st3" d="M183.3,150.2c1.8-2,3.9-3.6,6.2-4.7,2-1,4.2-1.4,6.5-1.1,2.8.6,5.3,2.3,7,4.6.2.2,1.1-.1.8-.3-2.8-3.4-6.7-5.5-11.2-4.6-3.2.7-6.1,2.3-8.5,4.5-.6.5-1.2,1.1-1.7,1.7-.2.3.6.2.8,0h0Z"/>
      <path class="st3" d="M105.8,187.6l19.4-.3,25.1-.4c.5,0,1.1,0,1.6,0,.5-.2.7-.9,1-1.3l5.6-9.1c5.3-8.7,10.7-17.4,16-26.1,1.1-2.1,2.4-4.1,3.9-6.1,3.3-3.9,8.4-7.6,13.8-5.6,1.8.7,3.5,1.8,4.8,3.2.2.2,1-.1.8-.3-2.6-2.5-5.8-4.2-9.5-3.8-2.8.4-5.4,1.6-7.5,3.4-2.3,2-4.3,4.4-5.8,7.1-6,9.9-12,19.8-18.1,29.6l-5.5,8.9.6-.3-40.2.7h-5.6c-.3.1-1,.5-.4.5h0s0,0,0,0Z"/>
      <path class="st3" d="M192.5,170.3c.5,0,.7-.6,0-.6s-.7.6,0,.6Z"/>
      <path class="st9" d="M194.7,136.9s-14.9-5.9-23.7,10.4c-8.8,16.3-17,29.6-17,29.6,0,0,18.3,11.2,26.9,12,8.6.8,13.6-50.8,13.6-50.8"/>
      <path class="st20" d="M104.4,399.1s22.2,13.9,29.7,15.7c7.5,1.8,9.4,4.1,9.4,4.1,0,0-13.4-18.3-22-25.1-1.8-1.4,20.5-60.6,31.1-96.3,6.2-20.7,6.9-31.2,6.9-31.2l-29.6-4-6.1,32.1-2.8,5.5c-1.9,3.6-3.5,7.3-4.8,11.1-2.6,8.3-3.6,21.5-4.2,25.9-1.1,7.5-2.2,16.6-2.5,19.2l-3.2,35.8-1.8,7.2h0Z"/>
      <path class="st20" d="M88.9,398.3s29.3,20.6,37,21.4,5.5-3.4,5.5-3.4c0,0-21.4-19.1-23.1-23-.9-2.1,19.5-63.8,26-94.1,4.6-21.1,6.5-38,6.5-38l-41.7-.2-1.6,31-2.2,5.8c-1.4,3.8-2.4,7.6-3.2,11.6-1.5,8.6-.9,23.4-1,27.8-.1,7.5,0,16.8,0,19.4l-.8,33.3-1.5,8.4h0Z"/>
      <path class="st20" d="M176.1,356.4l.6-18.4,1.9-28.4c.3-6.2-.7-24.4-2.8-29.3l13.9-22.9-31.1-1.4s-12.5,8-9.1,30.6c3.6,24.4,12.7,66.4,11.5,68.2,0,.1.1,1.7,0,1.9h5.6c4,.4,4.3.7,8.3.8.7-1.1-.2-.6,1.1-1.1h0Z"/>
      <path class="st22" d="M190.8,270.4c-2-1.2-4.4-1.7-6.7-1.2-.3,0-.9.2-.9.6s.5.4.7.4c1.9-.4,3.9,0,5.6,1.1.4.1.8,0,1.2-.1.3-.2.5-.5.1-.7h0s0,0,0,0Z"/>
      <path class="st15" d="M216.2,263.8l1.2-34.7-27.7-1.3-2.6,32.3c9.7,1.1,19.4,2.5,29.1,3.7h0Z"/>
      <path class="st15" d="M191.6,232.6l-38,22.4c7.5,1.5,17,8.2,18.7,12.5,1.9,4.9,7.7,13.6,8.5,18.2l35.9-4.3c-3.9-8.6-21.1-40.2-25.1-48.8h0Z"/>
      <path class="st15" d="M215.7,266c9.4.9,18.9,1.6,28.3,2.8,5.1.7,10.1,1.6,15.1,2.8l4-13.7c1.9-7.2,1.6-9.2,1.3-16.6l-5.7-13.5-47.1.5,5.3,21.6-1.3,16h0Z"/>
      <path class="st20" d="M184.9,110.8c.3-3.7,1-7.3,2.1-10.8.2-1.4.5-3.1.8-5.1.1-.6.2-1.1.3-1.7,0-.3.1-.6.2-.8,2.1-9.7,6.3-14.2,6.3-14.2,5.3-5.7,13.3-8.2,20.9-6.5,9,1.8,16.1,8.8,19.4,15.2,1.6,3.1,2,6.7,1.1,10.1-.9,3.1-2,6.2-3.4,9.1,3.2.4,6.1,2.2,3.8,7.7-3.1,7.7-8.7,9.2-10.8,6.6-.6,0-2.1,2.2-2.6,3.9-.9,3.2-1.8,8.9-.7,12l-.2.9c-8.8,9.7-14,15.3-36.1,4.5l9.5-9.2.6-3.7c-1.7-.4-2.3-.3-3.8-1.3-6.9-3.2-7.7-13-7.4-16.7h0Z"/>
      <path class="st9" d="M174.8,180.2s.8,6.2,1.4,13.8c.4,6.9,6.2,28.6,6,43.5,6.5,2,13.3,2.9,20.1,2.6,6.3-.1,14.5-1.6,20.8-2.1,7-.5,13.9-1.7,20.7-3.5,4.7-1.3,15.2-2.9,17.2-5.5-5.5-17.2-9.3-23.1-9.4-23.5-.4-1.1-3.6-32.2-3.5-33.9,1.2-4.7,2.1-9.6,2.5-14.4,0,0,.8-18.3-17.7-24-5-1.5-9.3-3.2-10.9-3.5-2,4.6-6.6,10.9-13.5,13.1-2.1.7-7.8,1-9.9,0-2.3-1.1-2.8-1.6-3.7-4.2-.2-2.1,0-4.2.8-6.2-3.2.4-13.4,4-15.3,5.4l-5.6,9.2.4,34.9"/>
      <path class="st3" d="M196.2,128.8c5.7,1.3,11.7.8,17.1-1.4,0,0-1.4,2.4-7.3,3.3-3.4.6-6.8.4-10.1-.6l.3-1.4h0Z"/>
      <ellipse class="st17" cx="211.2" cy="102.1" rx="1.9" ry="2" transform="translate(-5.4 11.9) rotate(-3.2)"/>
      <path class="st25" d="M197.9,92.3c-2.1-1.1-4.4-1.7-6.7-2-.8,0-1.6.2-2.3.5,0,0,0,0-.2,0,0,0,0,.2-.1.2,0,.2-.1.3-.2.5,0,0,0,0,0,.1h0c0,.1.1.1.1.1,1.6-.2,3.2,0,4.8.2,1.5.7,2.9,1.5,4.2,2.4.2-.8.2-1.4.5-2.2,0,0-.2-.1-.2-.2h0Z"/>
      <path class="st24" d="M171.8,163.4c.2,4.7.7,9.3,1.4,13.9.5,4.1,1.1,8.3,1.7,12.4,0,.3,1.1,0,1.1-.3-.6-4.1-1.2-8.3-1.7-12.4-.7-4.6-1.2-9.3-1.4-14,0-.3-1.1,0-1.1.3h0Z"/>
      <path class="st4" d="M227.2,111.2h.2c.6-1.1,1.2-2.7,2.3-3.3.7-.6,1.4-1,2.2-1.4.8,0,1.6,0,2.4,0,.9,0,1.8.4,2.5.8.1,0,.5.5.7.6,3.5-6.5,5.6-13.2,2.1-22.6-1-2.7-4.3-6.2-5.3-7.3-6.1-6.6-12.4-8.2-20.4-9-9.3-.9-18.9,3.3-22.8,12.1-.9,2.2-.7,2.7-.9,5,1.6-2.6,4.1-5.3,7.1-6.3,4.9-1.8,5.2-.4,11.4,1,7.2,1.5,10.3-1.9,15.5,2.2,2.8,2.2,4.7,5.2,5.4,8.7.2,3.3,1.2,5.7-.4,9.1-.4.8-.7,1.7-1.1,2.5-.5,1.5-.8,3.1-.9,4.8,0,.8-1.2,2.4-.6,3s0,.3.7.1h0Z"/>
      <path class="st4" d="M237.1,73.9c1.8,2.5,3,5.4,3.6,8.5l1,1.3c1.1,1.4,2.8,3.1,3.1,4.8,2.2,15.4-7.5,20.1-7.5,20.1,0,0,0-23.7-14.8-32.9-14.7-9.2-32,7-32,7,3.6-18.1,21.7-19.4,21.7-19.4,0,0,19.4,2.4,25,10.6h0Z"/>
      <path class="st25" d="M199.1,111c-.9.2-1.9.1-2.8-.1-.7-.1-1.4-.4-1.9-.9-.5-.5-.6-1.2-.3-1.8.2-.2.3-.5.5-.7.3-.4.5-.7.7-1.1,0-.2-.3-.1-.3,0-.3.6-.7,1.2-1.1,1.7-.3.4-.4.8-.2,1.3.4,1.3,1.8,1.7,3,1.9.8.2,1.7.2,2.5,0,.2,0,.2-.2,0-.2h0Z"/>
      <path class="st25" d="M202.9,109.5c.6,0,.5,1,.4,1.4,0,.3-.2.5-.4.7-.4.2-.8.3-1.2.2-.5-.2-1-.4-1.4-.7,0,0-.2,0-.2,0,0,0-.2,0-.1,0,.4.3.9.5,1.4.7.5,0,1,0,1.5-.1.4-.1.6-.4.8-.7.1-.3.2-.6.1-1,0-.3-.1-.7-.5-.7,0,0-.2,0-.3,0,0,0-.1,0,0,0h0c0,0,0,0,0,0Z"/>
      <path class="st28" d="M180.1,172s0,0,0,.1l-.2-.2h.3Z"/>
      <path class="st21" d="M237.3,110.3s-.3-2.3-1.7-3c-2.2-1.1-4.8-.2-5.9,1.9,0,0-.3-2,.6-3,2.1-2.2,4.9-2.2,6.7-.6,3.1,2.8.4,4.6.4,4.6Z"/>
      <path class="st1" d="M229.8,107.3s-3,4-.8,5.8c1.3,1,1.9,0,2.2.8.2.5.2,1.1,0,1.5,0,0,.7,1.2,1.3-.3.4-.9-.2-2.8-1.7-2.6,0,0-1.4.6-1.4-1.3,0-1.1.4-2.2,1.1-2.9.9-.9-.7-.9-.7-.9h0Z"/>
      <path class="st7" d="M229.8,107.3c-.6.8-1.1,1.8-1.4,2.8-.2.7-.2,1.4,0,2,.3.7.9,1.2,1.7,1.4.3,0,.8-.1,1.1,0,.5.3.4,1.3.1,1.8h0c.1.2.3.3.5.4.4.1.6-.3.8-.6.4-.9.1-1.9-.6-2.5-.3-.2-.7-.3-1.1-.2-.3,0-.6,0-.8,0-.6-.2-.6-1.1-.6-1.7,0-.9.5-1.8,1.1-2.4.2-.2.6-.6.2-.8-.2-.1-.5-.2-.8-.2h0c.2,0,.4,0,.6,0,.7.3,0,.9-.3,1.3-.6.8-.9,1.9-.7,2.9,0,.6.4,1.1,1,1,.1,0,.3,0,.4,0,.5,0,1,0,1.3.4.3.4.5.8.5,1.3,0,.6-.1,1.1-.6,1.5-.3.1-.7,0-.8-.3,0,0,0,0,0,0,0,0,0-.1,0-.2,0-.2.1-.4.1-.6,0-.3,0-.8-.4-1s-.5,0-.8,0c-1.1,0-2.1-1-2.1-2.2,0-1.5.6-2.9,1.6-4.1,0,0-.1,0-.1,0h0Z"/>
      <path class="st26" d="M230,113.2s1.7-3.4,4.1-3c1,.2,1.3,2.2-.4,4.5-.7.8-1.7,1.1-2.7,1,0,0,1.3-1.9-.2-2.3-.2,0-.5-.1-.7-.3h0Z"/>
      <path class="st7" d="M230,113.2c.4-.7.8-1.4,1.4-1.9.5-.5,1-.8,1.7-1,.6-.1,1.3-.1,1.6.4.3.7.3,1.4,0,2.1-.1.5-.4,1-.7,1.4-.2.4-.6.8-.9,1.1-.6.3-1.2.5-1.9.5h-.3s.2-.3.2-.3c.3-.4.4-.9.3-1.4-.2-.7-1-.5-1.4-.8h0c.3.2.5.2.8.3.4,0,.7.5.6.9,0,.5-.2.9-.5,1.3h0c.8,0,1.6,0,2.2-.5.6-.4,1-1,1.3-1.7.3-.6.5-1.2.5-1.8,0-.4,0-.8-.3-1.2-.2-.3-.6-.4-1-.4-1,0-1.9.5-2.5,1.3-.5.5-.9,1.1-1.2,1.7h0s0,0,0,0Z"/>
      <path class="st7" d="M230.1,113.8h0c0,0,0,0,0,0h.2c0,0,.3,0,.3,0,0,0,.1,0,.1,0,.1.1.2.2.2.4,0,.3,0,.5-.1.8-.1.3-.3.5-.6.7h-.2c-.1,0-.2.1-.3.1-.3,0-.6,0-.8,0-.1,0-.2,0-.3.1,0,.1,0,.2.1.2,1,.2,2-.2,2.5-1.1.2-.3.2-.6.2-1,0-.2,0-.3,0-.5-.1-.2-.3-.2-.5-.3-.4,0-.7,0-1,.2,0,0-.2.1-.1.2.1,0,.2,0,.3,0h0s0,0,0,0Z"/>
      <path class="st15" d="M177.2,256c-1-.8-2.1-1.4-3.2-1.8l-3.1-1.8c-1.5,1-4.8,2.6-6.2,3.8-.4.5-.7,1-.9,1.6-.5.8-.7,1.8-.8,2.7-.2,2.3,0,4.6.7,6.9,4.8-11.3,7.9-9.5,13.5-11.3h0Z"/>
      <path class="st20" d="M182.4,336.1c.2,2.5,4.6,23.1,2.3,25.6.6.1,7-.1,7.5,0,4.2.9,2.7-.5,7,0,1.5.2.5-1.1,2-.9.4-.2-2.1-4.9-2.1-4.9l.5-6.5,5.5-31.8c1-6.1,3.4-21.8-.5-29v-4.8h0l16.4-21-35.1-2.6s-17.6,9.5-12.9,30.8c5.2,24.1,9.3,42,9.5,45.2h0Z"/>
      <path class="st15" d="M263.7,239.6c-.5-1.2-2.1-.9-2.7-2.1-14.3,8-27.1,6.8-42.7,5.1l-22.5,16-10.7-1.5c.2,1.1-9.6,3.4-9.4,4.6.7,3.5-3.1,9.5.4,7.5,10.9-6.6,20.4,3.7,22.6,6.6,5.1,6.8,5.9,14.8,7.5,17.5,3.9-1.7,39.2-9.7,39.2-9.7l11.6-1.4c18-11.8,8.7-38,6.7-42.6h0Z"/>
      <path class="st4" d="M174.8,271.6c-.5-.6-.8-1.4-.9-2.1-.2-1.9-.8-3.6-.4-5.6.8-4.6,4.9-5.8,8.5-7.5,2.9-1.4,5.7-3.1,8.3-5,2.7-1.8,5.2-3.9,7.6-6.1.5-.4-.6-.6-.9-.3-5.4,5.1-11.6,9.1-18.3,12.1-3.4,1.5-6,3.9-6.5,7.8,0,1.8.2,3.5.5,5.2.1.8.5,1.5,1,2.1.2.4,1.2,0,1-.5h0q0,0,0,0Z"/>
      <path class="st14" d="M175.7,269.1c-4.3,5.8-2.9,13.7-2.1,20.3s1.5,13.2,2.5,19.7c.4,3.1,1,6.2,1.7,9.2,0,.3.9.1.8-.2-1.6-5.8-2.1-11.8-2.9-17.8-.4-3.1-.8-6.2-1.1-9.4-.4-2.9-.9-5.8-1-8.8-.3-4.5,0-9.4,2.8-13.1.2-.3-.6-.3-.8,0h0s0,0,0,0Z"/>
      <path class="st28" d="M217.9,195.8s0,0,0,.1l-.2-.2h.3c0,.1,0,0,0,0Z"/>
      <path class="st28" d="M263.3,241h0v-.2.2Z"/>
      <path class="st5" d="M115.4,153.4h.1c0,0-.1,0-.1,0Z"/>
      <path class="st28" d="M277.9,129.4h0c0,0-.1,0-.1,0h.1Z"/>
      <path class="st23" d="M20,199.4s-30,40.9-9.8,73.4c7.4,15,47.1,9.8,47.1,9.8l5-25.4,34.7-47-77-10.9h0Z"/>
      <path class="st23" d="M103,282.7c.9,6.2,1.7,12.8,2.2,19.5.5,0-1.5,3.2-.9,3.3,18.6,3,35.3,5.4,53.2,0,2-11.4,5.1-26.8,6.6-36,3.8-24.1,1.1-35.2-9.6-41.3-16.1-9.1-103.4-17.2-117.8-13.6-9.1,2.2,60.1,27,66.3,68.1h0Z"/>
      <path class="st23" d="M148,284.1c.5-2.3,1.1-4.6,1.8-6.9,1.5-5.1,3.5-10,5.8-14.8,2.3-4.8,4.9-9.5,7.9-13.9,2-3-9.1-8.4-6.8-11.1-41.9-14.2-118.1-14-118.1-14,0,0-35.1,6.3-28.5,38.1,6.3,30.4,101.1,22.2,137.5,22.7.2,0,.3,0,.5-.2h0Z"/>
      <path class="st23" d="M87.2,302.8c5.9.9,12.8,2.3,18.7,3.2,11.2,1.8,23.7-.3,35-.6,7.5-36.3,13.7-66.9,13.7-66.9-3.9-.3-7.9-.2-11.8.3.6-2.1,1.1-4.2,1.4-6.3-.7-.8-1.4-1.6-2.2-2.5-3.9,1.6-7.7,3.5-11.3,5.8-4.3,2.6-8.3,5.6-12.1,8.9-3.8,3.2-7.2,6.8-10.4,10.6-.9,1.1-11.8.7-12.6,1.9.1,0-.9,7.3-.8,7.3-5.9,9-8.2,24.2-7.6,38.3h0Z"/>
      <path class="st4" d="M88.8,28.8s-9.8,20.5-3.6,33.4c6.2,12.9,35.9,26.4,46.3,22.3,10.4-4.1,19.2-27.6,14.9-33.7-4.3-6-57.6-22-57.6-22h0Z"/>
      <path class="st4" d="M85.6,45.8s-8.8,2.4-11.8,10.4c-3,8,.6,16.2,10.3,21.8s25.1,7.8,27.4,2.2,6.4-14.7,2.2-19.3c-4.2-4.6-28-15-28-15h0Z"/>
      <path class="st20" d="M101,58.2s-.6,14.5-7.8,23.1c-1,1.2-10.1,2.2-10.1,2.2l5.8,7.5c4.7,6.1,12.9,15.7,20.3,17.4,4.2,1,10.9-1,14.5-1.1l3.7-8.5-6.9-6.8c.2-1.8,4.7-13.9,4.7-13.9"/>
      <path class="st16" d="M133.7,156.8s16-.4,15.6-2.4c-1.6-7.3-2.4-14.8-2.3-22.3,0-12.4-3.9-21.5-6.8-25.6s-18.7-13.7-18.7-13.7c0,0,7.5,13.2-9,10.9-16.6-2.3-20-22.1-20-22.1l-14.3,2.5c-12.2,3.3-25.5,8.2-30.5,21.4l-3.1,33.2-7.3,32.7s-9.9,8.9-21,31.9c0,0,8.3,4.6,36.9,13.7,23.8,7.6,53,.4,53,.4,0-11.4,6.8-31,8.3-33.1,1.4-2.1,4.3-3,6.5-3.9,2.5-1.2,4.8-2.8,6.8-4.8,4.2-3.9,5.3-10.9,5.7-16.4"/>
      <path class="st20" d="M68.1,102c4.3,1.2,3.4,10.5,3.4,10.5,7.3,18.3,3.2,69.7,3.2,69.7v.3c4.8,1.1,9.4,2.7,13.8,4.7l43.1,16.9-1.1,11c-20.2.1-41.2.4-65.8-6.3-8.1-2.2-18.5-7.9-18.6-18.8-.9-9.9,0-50.7-.8-53.2,1.5-6.7,4.2-13.7,3.9-20.6-.4-12.5,10.2-16.5,18.7-14.2h0Z"/>
      <path class="st20" d="M123.6,202l1.3,8.6,4,2.9s8.4,6.2,11.7,5.8c3.2-.2,6.5-.3,9.7-.2-.9,2-.1,4.3,1.9,5.3,0,0,.2,0,.3.1l3.4-5.1c.9,2.4,3.1.6,3.1.6l2.5-4.5c1.1,3,3.9.7,3.9.7l1.4-6.4c.8,1,1.8,1.9,2.9,2.6,1.5.7,2-1.8,2-1.8l-5.6-9.9-15.1-4.4-24.1,5.9-3.5-.2h0Z"/>
      <path class="st3" d="M155.4,202c1.2.4,2.3.8,3.5,1.3,1.1.5,2.2,1,3.2,1.6.9.6,2,1.2,2.3,2.3,0,.6.1,1.2.1,1.9,0,.6,0,1.3-.3,1.9,0,.1.7,0,.7-.1.2-.6.3-1.2.3-1.8,0-.6,0-1.3,0-1.9-.2-1.1-1.3-1.8-2.1-2.4-1.1-.7-2.2-1.3-3.4-1.8-1.1-.5-2.3-.9-3.5-1.3-.2,0-.4,0-.5.1,0,0-.2.1,0,.2h0,0Z"/>
      <path class="st3" d="M74.8,182.1c-2,.5-3.8,1.6-5.1,3.3-1.1,1.7-1.7,3.5-1.9,5.5,0,.3,1.1.1,1.2-.2.2-1.8.8-3.6,1.7-5.1,1-1.5,2.6-2.6,4.3-3,.1,0,.6-.2.5-.4s-.5-.1-.7,0h0Z"/>
      <path class="st16" d="M74.9,88.3s-20.3,1.4-25.8,13.2c-5.4,11.7-6.9,37-6.9,37,0,0,27.2,3.5,40,0s-7.4-50.2-7.4-50.2Z"/>
      <path class="st13" d="M67.8,95.2c3.8,0,7.2,3,9.3,5.8,2.1,2.9,3.6,6.1,4.6,9.5,1.8,5.7,1.6,11.5,1.1,17.3-.3,3.9-.6,7.8-.7,11.8l.6-.4h-6.4c-.6,0-.9.7-.2.7h6.4c.2,0,.6-.1.6-.4.1-6.8,1.3-13.6,1-20.4,0-3.2-.7-6.3-1.7-9.4-1-3.5-2.7-6.8-4.9-9.8-2.4-2.9-5.8-5.4-9.7-5.5-.6,0-.9.7-.2.7h0,0Z"/>
      <path class="st16" d="M132.2,100.2s12.9,6.6,10.6,27.7-1.7,26.1-1.7,26.1l-20.1-.2s11.1-53.5,11.1-53.5Z"/>
      <path class="st4" d="M160.9,44s7.3-24.6-12.3-30.4c-7.2-6.7-16.8-10.3-26.6-10.3-16.4.2-28.6,8.1-36.6,35.5s75.5,5.1,75.5,5.1h0Z"/>
      <path class="st4" d="M96.1,38.1c1.4,7.4,6.8,13.8,13.3,18.1s13.9,7.1,21.2,9.7l9.1,2.4c5.5-3.5,10.9-5.3,14.8-10.3,3-4.5,5.2-9.4,6.6-14.6,1.4-5-.3-11.7-1.6-16.7-1.3-4.3-4-8-7.7-10.5-3.7-2.7-5.6-4.8-11.3-6.9-9.7-3.8-20.6-3.1-29.8,1.9-9.3,4.9-16.6,16.7-14.6,26.9h0Z"/>
      <path class="st3" d="M121.6,89.4c-1.3-1-2.7-2-4.1-2.8-2-1.1-5.8-2-13.7-12.7,0,0,.4,10.8,12.6,16.3,1.4.7,2.9,1.2,4.4,1.3l.7-2h0Z"/>
      <path class="st20" d="M155.9,43.9c.1,2.7-.4,5.4-1.4,7.9-1.6,4.2-3.8,8.7-4.5,10.5-.7,1.9-1.3,3.8-1.8,5.8-.5,2.9-1.6,5.7-3.4,8.2-1.7,2.8-4,5.3-6.6,7.2-3.1,2.5-7,4.3-10.7,6-2.4,1.2-2.9,1.3-7.9-.4-7.4-2.4-13.2-8.6-16.1-15.2l-3.1-9.8.3-3.8c-5.2,2.6-5.6-4.2-5-5.2-.5-2.8-2.2-12.6,2-14.7l.3-.3c1.7-.7,3.5-.4,3.9,1.8,0,.9.2,1.8.3,2.7.2,1.4.6,2.8,1.1,4.2,1.1-2.2,2.1-4.4,2.9-6.7.6-2.2,4.2-7.9,9-9.7,0,0,2.6-7.6,5-9.3h.7c.4.1.6.3.9.5v-.5c.4.3,1,.5,1.5.6,0-.1-.3-.3-.2-.5.4.2.9.4,1.4.5,0-.1-.2-.5-.2-.6.5.4.9.3,1.4.5,0-.2-.1-.4,0-.5.4.3.9.5,1.4.6,0-.2-.1-.4-.2-.6.5.4.9.3,1.4.5.1,0-.1-.3-.1-.4.4.2.8.4,1.1.5,0-.1-.2-.3-.1-.4.6.5,1.1.4,1.5.5l-.2-.6c.3.4.8.7,1.3.7,0-.1-.2-.5-.2-.6.4.5,1.1.9,1.8.9-.1,0-.2-.5-.2-.6.4.7.9.7,1.5.9,0-.2-.2-.5-.3-.7.5.7,1.3,1.1,2.1,1.1-.1,0-.1-.3,0-.5s0-.3.3-.2c0,0,1.2.9,1.2.8.4.5-.6-2.4,0-2.1,0-.3,3.3,1.4,3.2,1.1.4.7.4.4,1.1.5,0,0,2,2.2,1.9,2.1,0,.2.3.4.5.5,0,0,7.2,10.3,10.9,16.7h0Z"/>
      <path class="st6" d="M98.5,58.7c-1.5-.4-3,.4-3.5,1.8-.4,1.1,0,2.2,1.1,2.8.7.4,1.6.5,2.3.3,0,0,.3,0,.2-.2s-.2,0-.3,0c-.9.2-1.9-.2-2.5-1-.6-1-.4-2.3.4-3.1.5-.4,1.2-.6,1.9-.4.2,0,.6-.2.3-.3h0s0,0,0,0Z"/>
      <path class="st4" d="M116.9,31.8l-3.1,3.5c-3.6,4-6.5,8.6-8.8,13.5l-.7,1.4c0,.2-.3.3-.6.3-.2,0-.3-.2-.3-.3l-1.2-5.3s4.8-15.8,14.5-12.9h0Z"/>
      <path class="st7" d="M100.1,47.5c-1.1.2-1.9,1-2.3,2-.5.9-.7,2-.7,3,0,.8.4,2.7,1.6,2.5.9-.2,1.1-1.2,1.1-2,0-.5,0-1,0-1.5,0-.6.5-.6,1-.4.2,0,.4,0,.4-.3,0-1.8-.4-3.6-.8-5.4-.2-.9-.6-1.9-1.5-2.2-1.2-.4-2.2.8-2.5,1.8-.6,1.5-.7,3.1-.4,4.7,0,.2.6,0,.5-.2-.3-1.1-.3-2.3,0-3.4.2-1.1,1.4-3.6,2.7-2.2.4.6.7,1.4.8,2.2.2,1,.4,2,.5,3,0,.6.1,1.2.2,1.8l.4-.3c-.6-.2-1.4-.3-1.8.4-.1.7-.2,1.4,0,2.2,0,.4,0,.8-.3,1.1-.5.5-.8-.3-1.1-.7-.4-1.1-.4-2.3,0-3.3.4-.9,1-2.4,2.2-2.5.3,0,.4-.4,0-.4v.2c0,0,0,0,0,0Z"/>
      <path class="st4" d="M106.9,22.3c3.2-8.7,18.1-7,25.7-5.4,4.9,1.2,11.1,7.5,14.8,11,1.6-1-14.2,9.6-41.3,7l-1.5,6.5s-1-10.3,2.3-19h0Z"/>
      <path class="st25" d="M125.7,50.7c-.6-.6-1.4-.8-2.2-.6-.3.1-.6.4-.8.6-.3.5-.3,1.2,0,1.7.3.7,1,1,1.8.9.9-.2,1.5-.9,1.6-1.8,0-.2.2-.4-.2-.8"/>
      <path class="st25" d="M148.2,59.5c-.6-.6-1.4-.8-2.2-.6-.3.1-.6.4-.8.6-.3.5-.4,1.2-.1,1.7.3.7,1,1,1.8.9.9-.2,1.5-.9,1.6-1.8,0-.2.2-.4-.2-.8"/>
      <path class="st25" d="M154.1,57v-.2h0c-.5-.5-1.1-.9-1.7-1.2-3-1.5-6.2-2.5-9.5-3.1-.3.8-.4,1.1-.7,1.9,1.9.2,3.7.5,5.5,1.1,2.1.6,4.2,1.5,6.2,2.5.1-.2,0,0,0-.2,0-.1.1-.2.1-.4,0,0,0-.2,0-.3h0Z"/>
      <path class="st10" d="M128.2,74.8c-1.5-.6-6-2.6-6-2.6,0,0,1,2.3,5.5,4.1,4.5,1.7,6.6.7,6.6.7l-6.1-2.1h0Z"/>
      <path class="st25" d="M137.8,67.2v1.7c0,.7,0,1.3-.2,2-.3.8-1.5.8-2.1.7-.9-.1-1.7-.3-2.5-.6-1.1-.3-2.1-.8-2.9-1.5-.1-.1-.5,0-.3.2.8.7,1.6,1.2,2.6,1.4.9.4,1.9.6,2.9.8.8.2,1.7,0,2.4-.5.4-.5.5-1.1.4-1.7,0-.8,0-1.6,0-2.4,0-.2-.4-.2-.4,0h0s0,0,0,0Z"/>
      <path class="st25" d="M128.2,65.8c-.5-.1-1.1,0-1.5.3-.4.3-.7.9-.7,1.4,0,.6.6.9,1.1,1.2.5.3,1.1.5,1.7.7,0,0,.2,0,.3,0,0,0,.1,0,0,0-.5,0-1-.3-1.4-.5-.5-.2-.9-.5-1.2-.9-.2-.4-.2-.9,0-1.3.2-.4.7-.7,1.2-.6,0,0,.2,0,.3,0,0,0,.1,0,0,0h0Z"/>
      <path class="st13" d="M137.9,138c-1.5,1.3-2.3,3.4-3,5.2-.7,1.7-1.1,3.6-1.3,5.4-.1,2.6-.1,5.1-.2,7.7,0,.6,1.1.4,1.1,0,0-2.5.1-5,.2-7.5.1-1.6.5-3.2,1.1-4.8.6-1.8,1.3-4.2,2.8-5.4.6-.5-.3-.9-.7-.5h0s0,0,0,0Z"/>
      <path class="st3" d="M146.6,166.9c-2.6,2.2-6.4,5.5-5.1,9.4.1.4,1.3.1,1.1-.3-1.2-3.7,2.4-6.7,4.9-8.8.2-.2.1-.4-.1-.4-.3,0-.6,0-.8.2h0Z"/>
      <path class="st20" d="M243.9,177.1c-7.1,12.3-11.7,38.6-24.3,43.2-15.5,5.7-57.2.2-57.2.2l3.4-11.4,43.2-7.6s13.5-37.7,15.8-43.1c0,0,6.1-18.9,17.9-10.1"/>
      <path class="st3" d="M209,201.5c2.3.9,4.1,2.8,4.9,5.2,0,.2.9,0,.9-.2-.8-2.4-2.7-4.4-5.1-5.3-.2,0-.4,0-.6.1-.1,0-.3.2-.1.2Z"/>
      <path class="st3" d="M169.4,206.4c-.2-2.6-3.2-6.1-5.3-6.8-2.7-1-5.5-1.8-8.3-2.6-1.4-.5-2.8-.8-4.3-.8-.7.2-1.4.4-2.1.6l-3.9,1.2-11.8,3.6-.8.2c.3-.1.4.1.1,0-.6-.2-1.2-.4-1.8-.6l-7.1-2.1-13.4-4.1c-.4-.1-1.2.4-.6.6l11,3.4,7.7,2.4c1.2.5,2.5.9,3.8,1.2.5,0,1-.1,1.5-.3l3.9-1.2,4.1-1.2,7.5-2.3c.7-.2,1.3-.4,2-.6-.4.1-.3,0,0,0,.3,0,.6.1.9.1.4,0,.9.1,1.3.2,2.4.5,4.7,1.3,7,2.1,2.5.8,7.3,4.1,7.6,7.4,0,.4,1,.2,1-.3h0Z"/>
      <path class="st9" d="M230,134.6s17,4,17.8,22.5c.5,11.1-1.2,17.2-4.7,27.8,0,0-19.4-4-27.4-7.1s11.8-46.4,11.8-46.4"/>
      <path class="st24" d="M217.1,178.1l-3.5-1.6c-.3-.1-.5-.3-.8-.4-.2,0-.3-.3-.3,0,0-.2,0-.3.1-.5.9-2.3,1.4-4.9,2.1-7.2,1.2-3.9,2.5-7.8,3.9-11.7,1.1-3.4,2.6-6.7,4.5-9.8,1.9-2.9,5.4-6.2,9.2-5.6.3,0,1.2-.4.7-.5-1.9-.2-3.8.2-5.4,1.1-3.3,1.7-5.5,4.7-7.1,8-3.2,6.6-5.4,13.7-7.5,20.7-.6,1.9-1.1,3.7-1.6,5.6,0,0,0,.1.1.1l4.7,2.1c.2.1,1.2-.3.9-.4h0s0,0,0,0Z"/>
      <path class="st24" d="M240.4,184.8c.9.3,1.9.5,2.9.6.2,0,.8,0,.9-.3,1.2-3.9,3.1-7.7,3.2-11.9,0-.1-1.1,0-1.1.3-.1,4.1-2,7.9-3.2,11.8l.9-.3h-.5c-.7-.2-1.4-.4-2.1-.6-.3,0-.5,0-.7.1,0,0-.4.2-.1.3h0s0,0,0,0Z"/>
      <path class="st3" d="M151.9,186.8c.8.2,1.5.7,1.9,1.4.5.9.8,1.9.9,2.9,0,.3.9,0,.9-.2-.1-1.1-.4-2.1-1-3.1-.5-.8-1.3-1.3-2.1-1.5-.2,0-.4,0-.6.2-.1.1-.1.2,0,.3h0Z"/>
      <path class="st8" d="M128.7,74.4c-3.1-1.2-8.1-3.6-8.1-3.6,0,0-2.5,8.6,4.8,11.4,7.3,2.8,10.4-5.6,10.4-5.6-2.4-.6-4.8-1.4-7.1-2.2h0Z"/>
      <path class="st19" d="M128.8,74.4c-1.5-.6-7.4-3.2-7.4-3.2,0,3.4,2.1,6.4,5.3,7.7,5.8,2.3,8.8-2.1,8.8-2.1l-6.7-2.4h0Z"/>
      <path class="st10" d="M128.7,74.7c-1.5-.6-5.9-2.7-5.9-2.7,0,0,.9,2.6,5.4,4.3,4.5,1.7,6.6.4,6.6.4l-6.1-2.1h0Z"/>
      <path class="st8" d="M136.3,76.6c-.1-.1.2,0-.5-.3-1.2-.6-1.8-1.3-2.7-1.7-1.5-.7-2.7-.4-3.4-.7s-1.4-1.3-2.9-1.8c-.9-.3-3.3-.7-4.6-1.1-.6-.2-1.2-.6-1.7-.9-.2,0-.6,2.1,7.8,5.3,8.4,3.2,8.2,1.3,8,1.2h0Z"/>
      <path class="st12" d="M197.9,115c2.8.5,7.6,1.1,7.6,1.1,0,0-2.3,6.7-8.7,5.5s-5-8-5-8c0,0,3.3.9,6.1,1.4h0Z"/>
      <path class="st19" d="M197.9,115l6.9,1.4c-1.8,2.1-4.6,3.1-7.4,2.5-5.2-1-5.4-5.2-5.4-5.2l5.8,1.3h0Z"/>
      <path class="st10" d="M197.8,115.2l5.6,1.1s-2,1-5.9.2-4.9-2.6-4.9-2.6l5.2,1.2h0Z"/>
      <path class="st12" d="M191.5,113.2c.1,0-.1,0,.5,0,1.1.1,1.9,0,2.7,0,.9.2,1.9.6,2.7,1,1-.1,1.9-.1,2.9,0,.8.2,2.9,1.1,3.9,1.4.6.2,1.6.2,1.7.3s-.7,1.3-8.1-.1c-7.4-1.4-6.4-2.6-6.2-2.6h0Z"/>
      <path class="st20" d="M137.3,205.5c2.8,1.5,6.7,3.6,7.2,3.4s4.2-.6,7.4-.9c1.7-.1,2.9-1.5,2.8-3.2,0-.4-7.8-2-7-5.5h6.8c2.2.2,4.4.8,6.4,1.6,2.5,1.2,8.4,6.9,8.4,6.9l8.7-.3,2,14.7-10.9-.6-8.2,2.5s-15.7,1.2-17.7,0-4.3-5.8-4.3-5.8c-2.8-1.2-3.3-5.4-3.3-5.4-4-3.4-.8-4.3-.8-4.3-.2,0-.3-.2-.4-.4-.5-1-.1-2.2.9-2.8.6-.3,1.3-.3,1.9,0h0Z"/>
      <path class="st3" d="M148.3,224.6c-2.6.4-5.1-.7-6.6-2.9-.7-1-1.3-2-1.9-3-.4-.7-.7-.7-1.4-1.3-.9-.8-1.5-1.8-1.8-3,0-.6-.2-1.1-.4-1.7-.6-1-2-1.6-2-2.9,0-.3.1-.6.4-.9,0-.1.5-.3.3-.2,0,0,.6-.2.5-.3-.7-.5-.9-1.5-.4-2.2.4-.5,1-.8,1.7-.6,1,.4,2,.9,2.9,1.5,1.3.8,2.7,1.5,4.2,1.9,1.3,0,2.6-.2,3.8-.4,1.8,0,3.6-.3,5.4-.7.6-.2,1.1-.6,1.5-1,.3-.4,1.1-1.6.8-2.2s-1.5-.6-1.9-.8c-1.9-.7-5.6-2-5.1-4.7l-.9.4c2.1,0,4.2-.1,6.4,0,3.9.2,12.6,5.9,15.7,8.3.2.2,1.2-.3,1-.4-3.1-2.4-11.9-8.2-15.8-8.4-2.2,0-4.4,0-6.6.1-.2,0-.9,0-.9.4-.5,2.6,3,3.9,4.9,4.6.5.2,1.7.4,2.1.8s-.3,1.5-.5,1.8c-.6.8-1.6,1.2-2.6,1.1l-3.5.4c-1.5.2-2.7.6-4,0-1.9-.8-3.6-1.8-5.4-2.8-1-.6-2.3-.6-3.3,0-1.1.7-1.7,2.4-.5,3.2l.5-.3c-1.2.3-2.1,1.2-1.6,2.4.4.7.9,1.3,1.5,1.9.4.5.3.3.5.9.2,1.2.8,2.4,1.5,3.4.7.8,1.6,1.1,2.1,2.1.7,1.3,1.5,2.4,2.4,3.6,1.6,1.9,4.2,2.8,6.6,2.2.3,0,1.2-.5.5-.4h0c0,0,0,0,0,0Z"/>
      <path class="st3" d="M134.6,208.6c1.3.9,2.4,2,3.6,2.9,1.1.8,2.4,1.5,3.7,1.9,1.5.4,3,.5,4.5.4,1.7,0,3.3-.6,4.9-.6.2,0,1.1-.4.6-.4-1.5,0-2.9.4-4.4.6-1.8.2-3.5,0-5.2-.4-1.3-.5-2.5-1.1-3.6-1.9-1.2-.9-2.2-1.9-3.4-2.8-.2-.1-1,.2-.9.3h0,0Z"/>
      <path class="st3" d="M135.2,213.1c2.9,1.1,5.2,3.8,8.3,4.4,1.6.2,3.2.2,4.8,0,1-.1,2-.3,3-.6.6-.1.5-.4,0-.3-.9.2-1.8.4-2.8.5-1.7.3-3.4.2-5-.3-2.6-1-4.6-3.1-7.2-4.1-.2,0-.4,0-.6,0,0,0-.4.2-.3.3h0s0,0,0,0Z"/>
      <path class="st3" d="M138.9,218.4c-.1,0-.3,0-.2,0s.1.1.2.1l.4.3c.4.3.9.7,1.4,1,.8.7,1.8,1.1,2.8,1.4.5,0,1.1,0,1.6,0h1.6c1.1,0,2.1,0,3.2.2.2,0,1.1-.4.6-.4-1-.1-2.1-.2-3.1-.2h-1.7c-.6,0-1.3,0-2,0-1.1-.4-2.1-1.1-3.1-1.8-.4-.3-1-1.1-1.6-1-.1,0-.5.1-.6.3s.3.1.4.1h0s0,0,0,0Z"/>
      <path class="st4" d="M207.5,94.7c0,0,.3,0,.3,0,4.6,0,7.9.6,9.1,1.1.9.3,1.7.8,2.5,1.4,0,0,2.1,1.6,2.3,2.1s-1.4-.5-1.4-.5c-.4-.2-.6-.3-.9-.5-2-.7-3.9-1.6-6-1.8-1.8-.2-4.4.2-6.3.4,0-.7.4-1.4.4-2.1h0Z"/>
      <path class="st18" d="M217.8,103.1s-4.3,1.8-7.3.9-4.8-2.2-4.8-2.2c0,0,2.6-2.1,4.8-2s6.6,1,7.3,3.2Z"/>
      <circle class="st4" cx="211.7" cy="101.9" r="2.1" transform="translate(106.8 312.1) rotate(-89.2)"/>
      <path class="st4" d="M205.7,101.8s4.2-3.5,7.5-2.2c3.8,1.5,4.2,2.4,4.6,3.5,0,0-1.2-1.5-4.9-2.7-3.4-1.1-7.2,1.4-7.2,1.4Z"/>
      <path class="st18" d="M196.5,100.3s-4.9,0-6.4-.8c-2.3-1.3-2.1-2.9-2.1-2.9,0,0,.9-1,2.8-.8s3.9.2,5.7,4.4h0Z"/>
      <circle class="st4" cx="191.2" cy="97.6" r="2.1" transform="translate(-8.2 18.1) rotate(-5.3)"/>
      <path class="st4" d="M189.1,95.7c1.1-.4,1.4-.6,3.3-.2,3.1.7,4.1,4.7,4.1,4.7,0,0-1.2-3.2-4.2-3.9-1.4-.4-3-.1-4.2.3,0-.3.4-.6,1-.9h0Z"/>
      <path class="st4" d="M133.6,48.4c0,0-.3-.2-.2-.3-4.4-3.2-8.1-5.1-9.5-5.5-1.1-.3-2.2-.5-3.4-.5,0,0-3.2,0-3.7.2-.5.3,1.7.5,1.7.5.5,0,.8.1,1.2.3,2.4.8,4.9,1.3,7.1,2.7,1.9,1.2,4.1,3.3,5.7,4.8.4-.7.6-1.5,1.1-2.2h0Z"/>
      <path class="st18" d="M117.4,48s2.4,3.9,5.6,5.2c3.2,1.4,6.4,1.2,6.4,1.2,0,0-3.3-4-5.3-5-2-.9-5.3-2-6.7-1.5h0Z"/>
      <path class="st18" d="M150.4,60.8s-.9,2.5-4.3,1.4c-2.9-1-5.9-3-5.9-3,0,0,4-1.6,5.9-1s3.7,1.3,4.3,2.6h0Z"/>
      <path class="st4" d="M129.4,54.5s-1.8-4-5.4-5.7c-2.7-1.3-5.1-1.4-7.1-.9,0,0,4.7.8,6.6,1.7,1.8.9,5.9,4.9,5.9,4.9Z"/>
      <path class="st4" d="M117.2,48.1s-1.3,0-1.3-1.8c0,0,1.7,1.8,4.4,2l-3-.3h0Z"/>
      <path class="st4" d="M140.2,59.2s2.5-1.7,4.4-1.6c3.9.3,5.2,1.6,5.8,3.2,0,0-2.2-2.1-5.5-2.3-1.9-.1-4.7.7-4.7.7h0Z"/>
      <path class="st4" d="M150.4,60.7s1,.8,2.2-.3c0,0-1.2.8-3.3-.9l1.1,1.2h0Z"/>
      <path class="st2" d="M126,50.6c-.6-.6-1.8-.8-2.4-.6-.1,0-.5.2-.8.7-.4.5-.3,1.3,0,1.8.3.7,1.2,1.1,1.9,1,1-.1,1.6-1.1,1.6-2,0-.2.2-.4-.3-.9"/>
      <path class="st2" d="M147.8,58.5c-.8.2-1.7,1.1-1.8,1.7,0,.2,0,.6.1,1,.3.6.9,1,1.5,1,.8,0,1.5-.4,1.8-1.1.4-.9,0-2-.8-2.4-.1,0-.2-.4-.9-.2"/>
    </g>
  </g>
</svg>