<svg xmlns="http://www.w3.org/2000/svg" xmlns:xlink="http://www.w3.org/1999/xlink" viewBox="0 0 292.89 301.99"><defs><style>.cls-1{fill:none;}.cls-2{clip-path:url(#clip-path);}.cls-3{fill:#f2ebd1;}.cls-4{fill:#2a4e73;}.cls-5{fill:#dbb28e;}.cls-6{fill:#4f2e25;}.cls-7{fill:#517568;}.cls-8{fill:#0d1335;}.cls-9{fill:#0f1f28;}.cls-10{fill:#0a2f44;}.cls-11{fill:#231f20;}.cls-12{fill:#151210;}.cls-13{fill:#1d170f;}.cls-14{fill:#13110f;}.cls-15{fill:#162916;}.cls-16{fill:#513835;}.cls-17{fill:#008dce;stroke:#231f20;stroke-miterlimit:10;stroke-width:0.01px;}.cls-18{fill:#f68e46;}.cls-19{fill:#f9da03;}.cls-20{fill:#606161;}.cls-21{fill:#412b12;}.cls-22{fill:#745245;}.cls-23{fill:#192141;}.cls-24{fill:#050606;}.cls-25{fill:#c95744;}.cls-26{fill:#661d0d;}.cls-27{fill:#ce8d2a;}.cls-28{fill:#f1eef7;}.cls-29{fill:#975449;}.cls-30{fill:#24180f;}.cls-31{fill:#906143;}</style><clipPath id="clip-path"><path class="cls-1" d="M170.24,28.87A48.86,48.86,0,0,0,73.82,40.1a49.52,49.52,0,0,0,.81,8.84,126.49,126.49,0,1,0,95.61-20.07Z"/></clipPath></defs><g id="Layer_14" data-name="Layer 14"><g class="cls-2"><ellipse class="cls-3" cx="147.06" cy="153.44" rx="127.11" ry="126.49"/><rect class="cls-4" x="-6.37" y="120.81" width="303.77" height="168.58"/><path class="cls-5" d="M106.14,181.72s-4.24-6.87-7.5-8.69c-.92-.51-7.19-7.93-7.19-7.93S89,166,91,169.36s2.84,4.74,2.84,4.74l.1,1.17-6.6.4s-7.55-.77-9.39-.8-5.76-.24-6.52,2c0,0-2.89-.37-3.22,1a2.08,2.08,0,0,0,.22,1.92l1.32.53s-.8.25-.47,1.63,12.58,4,12.58,4l.55.57s-8.46-.41-8.76.32-.66,1.29.6,1.86,23.92,4.81,26.6,4.77c.7,0,2.25-.1,2.7-.1,1.25,0,3.29.07,3.29.07l3.29-10.91Z"/><path class="cls-5" d="M143.47,124.69c-5.09-.52-10.17-1.11-15.27-1.5-3.51-.27-7-.45-10.53-.43a36.17,36.17,0,0,0-4.68.43q0,.48,0,1c.5,12.25,4.06,24.25,5.65,36.41.51,3.9,5.51,15.58,8,24.45,1.49,5.87-3.53,2.13,6.21,3,1.42.12,15.13-16.33,14.65-18.93C144.63,153,144.64,134.6,143.47,124.69Z"/><path class="cls-5" d="M159.57,187.64c10-11.06,24.09-31.47,24.09-31.47-3.95-3.78-5.88-4.17-6.95-8l-40.14,28.29C137.78,186.63,155,181.93,159.57,187.64Z"/><path class="cls-5" d="M147.66,169.34l-.42-1.68c-2.51.64-2.49-.89-2.51-1s-.55-1.41-.56-1.43c-9,2.55-18,7.3-17.3,17.79,2.08,7.49,5.71,12.62,20,10.78,1.1-.14,12.66-2.61,15.73-3.62C162.26,182.67,148.89,176.79,147.66,169.34Z"/><path class="cls-5" d="M187.72,161.91c-8.05,10.45-19.58,35.41-26,36.37-15.19,2.29-55.15-4.75-55.15-4.75l-1-12.21,46.81.11s20.37-34.21,23.17-38.93c0,0,9.1-13.08,18.8-3.41"/><path class="cls-6" d="M181.27,147.06a18.49,18.49,0,0,1,5.79-4.37,10,10,0,0,1,6-1,11,11,0,0,1,6.47,4.25c.16.2,1-.09.77-.32-2.61-3.18-6.21-5.09-10.37-4.28a17.16,17.16,0,0,0-7.89,4.22,16.3,16.3,0,0,0-1.57,1.54c-.22.24.6.18.76,0Z"/><path class="cls-6" d="M109.23,181.82l18.06-.31,23.3-.39a4.45,4.45,0,0,0,1.5-.08c.46-.19.68-.8.93-1.2l5.18-8.44q7.44-12.12,14.87-24.27a44.52,44.52,0,0,1,3.59-5.64c3.08-3.67,7.81-7.06,12.79-5.25a12.65,12.65,0,0,1,4.47,3c.17.17.94-.13.77-.29-2.39-2.34-5.39-3.92-8.81-3.55a13.68,13.68,0,0,0-7,3.19,23.94,23.94,0,0,0-5.38,6.61Q165.14,159,156.66,172.7L151.59,181l.58-.26-37.37.64-5.23.09c-.25,0-.89.38-.34.38Z"/><path class="cls-6" d="M189.85,165.76c.47,0,.64-.58.08-.58s-.63.58-.08.58Z"/><path class="cls-7" d="M191.83,134.75s-13.81-5.48-22,9.67S154,171.91,154,171.91s17,10.41,25,11.13,12.68-47.25,12.68-47.25"/><path class="cls-8" d="M-133.22,270.93l15,0,40.39-.06,60.13-.1,72.85-.12,80.33-.13,80.55-.13,75.61-.12,63.47-.11,46-.07c7.21,0,14.42,0,21.63,0h.95c.4,0,.95-.61.33-.61l-15,0-40.39.06-60.12.1-72.86.12-80.33.13L74.73,270l-75.62.12-63.47.11-45.95.07c-7.21,0-14.42,0-21.63,0h-.94c-.41,0-1,.61-.34.61Z"/><path class="cls-5" d="M108,378.39s20.63,12.94,27.64,14.63,8.74,3.81,8.74,3.81-12.48-17-20.44-23.3c-1.68-1.33,19-56.31,28.88-89.5,5.72-19.2,6.45-29,6.45-29l-27.54-3.75L126.1,281.1l-2.65,5.08A76.85,76.85,0,0,0,119,296.47c-2.41,7.74-3.33,20-3.95,24.07-1,6.94-2.06,15.42-2.35,17.87l-3,33.28Z"/><path class="cls-5" d="M93.59,377.64s27.2,19.12,34.38,19.89,5.09-3.2,5.09-3.2-19.92-17.8-21.42-21.33c-.82-1.93,18.1-59.24,24.2-87.42,4.24-19.57,6-35.32,6-35.32l-38.72-.2-1.52,28.79-2,5.38A77.58,77.58,0,0,0,96.59,295c-1.36,8-.82,21.72-.89,25.86-.11,7,0,15.57,0,18L95,369.83Z"/><path class="cls-5" d="M174.63,338.71l.58-17.13L177,295.2c.25-5.73-.66-22.64-2.62-27.27l12.88-21.27-28.92-1.26s-11.6,7.47-8.5,28.44c3.35,22.64,11.82,61.73,10.68,63.4-.06.09.13,1.62.05,1.72.58,0,4.67,0,5.25,0,3.73.36,4,.69,7.74.77C174.22,338.71,173.41,339.2,174.63,338.71Z"/><path class="cls-9" d="M188.24,258.76a8.88,8.88,0,0,0-6.25-1.15c-.29.05-.82.18-.88.53s.46.38.67.34a7.3,7.3,0,0,1,5.23,1,1.2,1.2,0,0,0,1.1-.14c.24-.15.44-.42.13-.61Z"/><path class="cls-10" d="M211.9,252.66l1.1-32.25-25.76-1.2-2.42,30C193.87,250.22,202.88,251.53,211.9,252.66Z"/><path class="cls-10" d="M188.94,223.67l-35.3,20.78c7,1.37,15.82,7.59,17.41,11.65,1.78,4.52,7.18,12.6,7.91,16.91l33.32-4C208.65,261,192.7,231.62,188.94,223.67Z"/><path class="cls-10" d="M211.4,254.64c8.78.83,17.57,1.53,26.32,2.62a128.37,128.37,0,0,1,14,2.64l3.69-12.77c1.74-6.66,1.51-8.52,1.24-15.41l-5.26-12.51-43.73.43,4.93,20.11Z"/><path class="cls-5" d="M182.81,110.4a47.77,47.77,0,0,1,1.94-10c.21-1.34.45-2.89.76-4.76.09-.54.19-1.06.29-1.58a4.11,4.11,0,0,0,.17-.79c2-9,5.86-13.23,5.86-13.23a20.33,20.33,0,0,1,19.41-6c8.35,1.72,15,8.22,18,14.08a13.24,13.24,0,0,1,1,9.41,54.56,54.56,0,0,1-3.19,8.49c3,.41,5.63,2,3.57,7.19-2.85,7.17-8.08,8.59-10,6.13-.54,0-2,2.06-2.4,3.59-.79,2.93-1.65,8.24-.67,11.11l-.23.83c-8.21,9-13,14.23-33.52,4.19l8.85-8.54.56-3.41c-1.62-.42-2.12-.29-3.52-1.18C183.29,123,182.56,113.86,182.81,110.4Z"/><path class="cls-7" d="M173.35,174.93s.77,5.76,1.26,12.85c.42,6.45,5.79,26.54,5.59,40.43a54.11,54.11,0,0,0,18.71,2.39c5.89-.11,13.45-1.44,19.32-1.93a101.7,101.7,0,0,0,19.22-3.23c4.35-1.21,14.11-2.72,16-5.09-5.15-16-8.62-21.42-8.78-21.84-.4-1-3.37-29.91-3.22-31.54a89,89,0,0,0,2.35-13.41s.78-17-16.47-22.31c-4.61-1.4-8.68-3-10.12-3.29-1.89,4.28-6.18,10.16-12.56,12.22-2,.66-7.29.93-9.2.06-2.16-1-2.61-1.46-3.47-3.9a13.64,13.64,0,0,1,.73-5.79c-3,.42-12.45,3.71-14.25,5l-5.21,8.57.35,32.46"/><path class="cls-6" d="M193.28,127.16a27,27,0,0,0,15.93-1.28s-1.31,2.24-6.76,3.1a21.14,21.14,0,0,1-9.41-.52Z"/><ellipse class="cls-11" cx="188.67" cy="98.72" rx="1.81" ry="1.82" transform="translate(-5.22 10.7) rotate(-3.2)"/><path class="cls-12" d="M186.64,96.58a6.94,6.94,0,0,1,4.08.2c2.72.76,3.34,4.45,3.34,4.45a6.28,6.28,0,0,0-3.65-3.72,12.2,12.2,0,0,0-5-.2C185.45,97.05,186.07,96.84,186.64,96.58Z"/><ellipse class="cls-13" cx="207.18" cy="102.33" rx="1.81" ry="1.82" transform="translate(-5.4 11.74) rotate(-3.2)"/><path class="cls-12" d="M202,102.58s3.39-3.27,6.35-2.32c3.34,1.08,4.87,1.7,5.45,3.22a18,18,0,0,0-5.68-2.51C205.11,100.25,202,102.58,202,102.58Z"/><path class="cls-14" d="M203.76,94.7c0-.06.23,0,.24-.09a19.91,19.91,0,0,1,6.95.68,6.49,6.49,0,0,1,1.88,1.23,10,10,0,0,1,1.72,1.88c.14.46-1.05-.43-1.05-.43a5,5,0,0,0-.71-.4,15.56,15.56,0,0,0-4.58-1.49,21.65,21.65,0,0,0-4.82.61C203.49,96,203.72,95.39,203.76,94.7Z"/><path class="cls-14" d="M185.68,92.9a1.5,1.5,0,0,0,0-.3c.61-.33,1.36-.65,1.36-.65a5.17,5.17,0,0,1,2-.48,15.15,15.15,0,0,1,5.83,1.82c0,.06.17.1.16.17-.22.65-.24,1.3-.41,2a17.51,17.51,0,0,0-3.66-2.28,12.58,12.58,0,0,0-4.21-.23,5.85,5.85,0,0,0-.71.12,2.71,2.71,0,0,1-.35.1A2.17,2.17,0,0,0,185.68,92.9Z"/><path class="cls-15" d="M170.63,159.33a117.11,117.11,0,0,0,1.31,12.95c.5,3.85,1,7.7,1.62,11.54,0,.27,1,.05,1-.27-.6-3.83-1.11-7.68-1.62-11.53a119.83,119.83,0,0,1-1.31-13c0-.25-1-.07-1,.26Z"/><path class="cls-12" d="M222.12,110.85s.2,0,.23,0c.6-1,1.1-2.49,2.12-3.09a12.82,12.82,0,0,1,2.06-1.35,10,10,0,0,1,2.18.09,5,5,0,0,1,2.34.79c.12.08.5.46.62.54,3.25-6.06,5.18-12.22,2-21-.92-2.54-4-5.75-4.95-6.77-5.7-6.13-11.57-7.63-19-8.33-8.63-.82-17.59,3.08-21.21,11.26-.87,2-.65,1.92-.86,4.06a12.9,12.9,0,0,1,6.56-5.31c4.56-1.65,4.86-.35,10.61.9,6.67,1.42,9.58-1.79,14.41,2.06a13.73,13.73,0,0,1,5,8.08c.18,3.06,1.13,5.27-.33,8.45-.36.76-.68,1.53-1,2.31a21.67,21.67,0,0,0-.88,4.41c0,.75-1.12,2.24-.59,2.8S221.35,111,222.12,110.85Z"/><path class="cls-11" d="M222.07,111.2c.65-.07.75-.33,1.06-.9a6.9,6.9,0,0,1,2-2.62,10.23,10.23,0,0,1,1-.73,3,3,0,0,1,2-.17,5.48,5.48,0,0,1,3.19,1.29.61.61,0,0,0,.82-.22c2.7-5.06,4.28-10.42,3.35-16.19a18.45,18.45,0,0,0-3.29-8.37A37.65,37.65,0,0,0,227,77.68c-4.23-3.71-9.39-5.43-14.89-6.13s-10.74-.28-15.59,2.31a19.49,19.49,0,0,0-6.47,5.5,18.38,18.38,0,0,0-2.2,3.88,11.83,11.83,0,0,0-.72,3.77c-.05.51.79.29.94,0a12.37,12.37,0,0,1,8.57-5.71c1.87-.29,3.63.46,5.4,1a23.09,23.09,0,0,0,7,1,38.33,38.33,0,0,1,5.76-.23,10,10,0,0,1,6.09,3.88c2.36,2.85,2.88,5.8,3.23,9.34a9.37,9.37,0,0,1-.7,4.82,27.38,27.38,0,0,0-1.39,3.93,35.08,35.08,0,0,1-.9,4.12,2.82,2.82,0,0,0-.31,1.21,2,2,0,0,0,.4.7c0,.47.8.36.94,0l0,.09c.6-.14.42-.79-.17-.65-.27.06-.65.15-.77.45h1c0-.29-.28-.44-.35-.72-.14-.54.3-1.16.48-1.66.43-1.2.42-2.6.74-3.86.73-2.84,2.28-5.14,2.07-8.17-.28-3.83-.91-7.18-3.48-10.2a11.16,11.16,0,0,0-5.6-3.83,18.5,18.5,0,0,0-5.8,0,23.69,23.69,0,0,1-8.48-1.16,11.62,11.62,0,0,0-5-.77,13.58,13.58,0,0,0-9.57,6.3l.94,0a11.5,11.5,0,0,1,.46-3.09,17.52,17.52,0,0,1,1.88-3.62,18.23,18.23,0,0,1,5.41-5.16c4.59-2.86,9.91-3.52,15.19-2.91s10.17,2,14.32,5.33a35.09,35.09,0,0,1,5.16,5.25,17.54,17.54,0,0,1,3.65,7.5c1.44,6.22,0,12-3,17.51l.82-.22a5.61,5.61,0,0,0-2.76-1.38,6.76,6.76,0,0,0-3.1,0c-2.18.84-3.2,2.74-4.29,4.62l.5-.3-.23,0C221.63,110.55,221.42,111.27,222.07,111.2Z"/><path class="cls-14" d="M231.27,76.12a20.36,20.36,0,0,1,3.3,7.88l.93,1.23c1,1.32,2.59,2.86,2.83,4.5,2.07,14.3-7,18.63-7,18.63s-.05-22-13.71-30.6-29.86,5.76-29.86,5.76c3.39-16.8,20.25-17.24,20.25-17.24S226,68.5,231.27,76.12Z"/><path class="cls-14" d="M196,110.63a5.59,5.59,0,0,1-2.57-.13,3.35,3.35,0,0,1-1.76-.88,1.42,1.42,0,0,1-.25-1.66,6.48,6.48,0,0,1,.5-.67,7.94,7.94,0,0,0,.68-1.06c.07-.14-.27-.11-.32,0a12.06,12.06,0,0,1-1.07,1.57A1.36,1.36,0,0,0,191,109c.33,1.19,1.69,1.57,2.76,1.77a5.85,5.85,0,0,0,2.32,0c.21,0,.16-.22,0-.17Z"/><path class="cls-14" d="M199.52,109.21c.55.08.45.94.36,1.31a1,1,0,0,1-.36.64,1.53,1.53,0,0,1-1.11.16,5.82,5.82,0,0,1-1.31-.62.33.33,0,0,0-.22,0s-.16.07-.11.09a6.3,6.3,0,0,0,1.31.63,2.73,2.73,0,0,0,1.36-.1,1.12,1.12,0,0,0,.72-.67,2.29,2.29,0,0,0,.13-.9c0-.31-.14-.63-.49-.68a.53.53,0,0,0-.24,0s-.12.07,0,.08Z"/><path class="cls-16" d="M178.27,167.35a.24.24,0,0,1-.06.11l-.22-.2Z"/><path class="cls-17" d="M231.43,110s-.24-2.15-1.6-2.77a4.19,4.19,0,0,0-5.51,1.77s-.29-1.9.55-2.76c2-2,4.52-2.07,6.21-.55C234,108.34,231.43,110,231.43,110Z"/><path class="cls-18" d="M224.47,107.15s-2.77,3.74-.71,5.35c1.21.94,1.75,0,2.09.73a1.61,1.61,0,0,1-.08,1.41s.63,1.12,1.21-.29c.35-.85-.16-2.64-1.59-2.4,0,0-1.33.58-1.35-1.21a4,4,0,0,1,1.07-2.74C225.92,107.14,224.47,107.15,224.47,107.15Z"/><path class="cls-11" d="M224.47,107.15a8.13,8.13,0,0,0-1.32,2.63,3,3,0,0,0,0,1.88,2.08,2.08,0,0,0,1.56,1.28c.29,0,.73-.11,1,.06.47.32.34,1.21.09,1.64h0a.88.88,0,0,0,.44.41c.37.11.6-.3.73-.57a2,2,0,0,0-.54-2.32,1.28,1.28,0,0,0-1-.21,1.16,1.16,0,0,1-.76,0c-.59-.23-.59-1.06-.55-1.59a4,4,0,0,1,1-2.28c.18-.21.51-.54.19-.79a1.28,1.28,0,0,0-.75-.17s0,0,0,0a1.89,1.89,0,0,1,.58.08c.67.25-.07.86-.3,1.19a3.84,3.84,0,0,0-.69,2.69c.08.52.37,1,.94.93a2.34,2.34,0,0,0,.38-.09,1.3,1.3,0,0,1,1.22.41,2,2,0,0,1,.47,1.25,1.54,1.54,0,0,1-.53,1.36.56.56,0,0,1-.75-.32c0-.06,0-.12.06-.18a1.75,1.75,0,0,0,.14-.59c0-.29-.05-.75-.34-.91s-.5,0-.72,0a2,2,0,0,1-1.92-2,6.43,6.43,0,0,1,1.47-3.79S224.47,107.14,224.47,107.15Z"/><path class="cls-19" d="M224.64,112.7s1.54-3.19,3.83-2.76c.94.18,1.2,2-.39,4.18a3.06,3.06,0,0,1-2.55.95s1.22-1.77-.23-2.13A1.75,1.75,0,0,1,224.64,112.7Z"/><path class="cls-11" d="M224.65,112.7a6.45,6.45,0,0,1,1.31-1.8,3.37,3.37,0,0,1,1.55-.92c.54-.13,1.23-.13,1.52.41a2.53,2.53,0,0,1,0,1.91,5.09,5.09,0,0,1-.61,1.29,3,3,0,0,1-.88,1,3.13,3.13,0,0,1-1.72.46h-.3s.15-.24.17-.28a1.77,1.77,0,0,0,.27-1.32c-.2-.6-.91-.45-1.33-.78h0a2.3,2.3,0,0,0,.77.28.78.78,0,0,1,.6.83,2.41,2.41,0,0,1-.48,1.25h0a3.24,3.24,0,0,0,2.06-.47,4,4,0,0,0,1.18-1.59,4.3,4.3,0,0,0,.46-1.68,1.7,1.7,0,0,0-.27-1.08,1,1,0,0,0-.9-.35,3.23,3.23,0,0,0-2.33,1.22,6.48,6.48,0,0,0-1.1,1.58Z"/><path class="cls-11" d="M224.75,113.21l.05,0,0,0h0c.06,0,0,0,0,0l.18-.05h.05l.13,0h.12s0,0,0,0a.27.27,0,0,1,.14.07.51.51,0,0,1,.15.37,1.45,1.45,0,0,1-.1.71,1.31,1.31,0,0,1-.55.65l-.09,0-.13.06a1.71,1.71,0,0,1-.29.08,2.72,2.72,0,0,1-.76,0,.3.3,0,0,0-.29.13c-.05.1,0,.15.13.16a2.32,2.32,0,0,0,2.36-1,1.68,1.68,0,0,0,.18-.91A.81.81,0,0,0,226,113a.66.66,0,0,0-.49-.24,1.82,1.82,0,0,0-.94.2c-.07,0-.18.12-.12.21a.29.29,0,0,0,.31,0Z"/><path class="cls-10" d="M175.62,245.39a13,13,0,0,0-3-1.7L169.76,242c-1.37.93-4.49,2.42-5.73,3.5a7.81,7.81,0,0,0-.88,1.48,6,6,0,0,0-.74,2.53,18.84,18.84,0,0,0,.63,6.4C167.54,245.4,170.36,247.13,175.62,245.39Z"/><path class="cls-5" d="M180.42,319.79c.16,2.35,4.3,21.44,2.12,23.76.56.1,6.48-.12,7,0,3.95.87,2.5-.42,6.53,0,1.36.15.46-1,1.83-.86.36-.2-2-4.56-2-4.56l.46-6,5.12-29.54c.91-5.65,3.17-20.25-.45-27l-.08-4.5h0l15.24-19.56-32.62-2.42s-16.39,8.82-12,28.65C176.45,300.15,180.21,316.74,180.42,319.79Z"/><path class="cls-10" d="M256,230.12c-.5-1.1-1.93-.79-2.54-1.91-13.25,7.43-25.17,6.27-39.64,4.77l-20.9,14.86L183,246.47c.16,1.05-8.93,3.2-8.73,4.24.62,3.27-2.85,8.85.33,6.92,10.16-6.18,19,3.42,21,6.16,4.7,6.31,5.5,13.77,7,16.22,3.58-1.6,36.47-9,36.47-9l10.73-1.32C266.57,258.76,257.9,234.4,256,230.12Z"/><path class="cls-20" d="M173.39,259.85a4,4,0,0,1-.83-2c-.17-1.8-.71-3.37-.38-5.22.76-4.24,4.52-5.4,7.94-7a51.42,51.42,0,0,0,7.68-4.67,58.57,58.57,0,0,0,7.07-5.7c.43-.42-.52-.56-.81-.27a60.26,60.26,0,0,1-17,11.26c-3.16,1.43-5.61,3.59-6,7.23a23.31,23.31,0,0,0,.5,4.86,4.46,4.46,0,0,0,.9,2c.22.36,1.15,0,.89-.42Z"/><path class="cls-21" d="M174.25,257.6c-4,5.4-2.7,12.71-1.91,18.88s1.42,12.24,2.32,18.33a68.21,68.21,0,0,0,1.61,8.53c.08.3.82.11.74-.2-1.49-5.34-2-11-2.67-16.5-.36-2.9-.7-5.8-1.06-8.7-.33-2.7-.79-5.4-.95-8.13-.24-4.15.07-8.7,2.62-12.16.22-.3-.53-.28-.7,0Z"/><path class="cls-16" d="M213.46,189.4a.47.47,0,0,1-.05.1l-.21-.19Z"/><path class="cls-16" d="M255.63,231.44l-.06,0v-.16Z"/><path class="cls-22" d="M118.21,150.05l.1,0v.06Z"/><path class="cls-16" d="M269.19,127.77l0,.06-.12-.12Z"/><path class="cls-23" d="M29.5,192.79s-27.88,38-9.06,68.25c6.85,13.94,43.77,9.1,43.77,9.1l4.61-23.61,32.23-43.64Z"/><path class="cls-23" d="M106.63,270.16c.88,5.74,1.54,11.85,2,18.12.49.08-1.37,3-.87,3.1,17.28,2.77,32.81,5.06,49.49,0,1.84-10.58,4.78-24.91,6.15-33.47,3.57-22.4,1.05-32.74-8.92-38.36-15-8.48-96.07-16-109.51-12.63C36.48,209,100.79,232,106.63,270.16Z"/><path class="cls-23" d="M148.51,271.46c.46-2.16,1-4.29,1.66-6.38a96.69,96.69,0,0,1,5.35-13.71,99.42,99.42,0,0,1,7.36-12.94c1.86-2.77-8.49-7.83-6.33-10.31-38.94-13.2-109.74-13-109.74-13s-32.6,5.82-26.49,35.37c5.83,28.23,94,20.59,127.75,21.12A2.36,2.36,0,0,0,148.51,271.46Z"/><path class="cls-23" d="M91.93,288.88c5.49.8,11.86,2.16,17.34,3,10.45,1.67,22-.31,32.54-.57,6.95-33.73,12.71-62.22,12.71-62.22a48.21,48.21,0,0,0-11,.3,34.74,34.74,0,0,0,1.29-5.85c-.65-.76-1.34-1.53-2.06-2.32a68.28,68.28,0,0,0-10.46,5.34,86.58,86.58,0,0,0-11.24,8.3,82.13,82.13,0,0,0-9.64,9.9c-.84,1-10.94.69-11.73,1.77.11,0-.84,6.76-.73,6.79C93.43,261.65,91.36,275.81,91.93,288.88Z"/><path class="cls-24" d="M93.48,34.22s-9.09,19-3.37,31,33.33,24.56,43,20.73S151,60.28,147,54.66,93.48,34.22,93.48,34.22Z"/><path class="cls-24" d="M90.47,50s-8.2,2.19-11,9.64S80,74.72,89.07,79.89s23.31,7.27,25.47,2,5.93-13.63,2-17.91S90.47,50,90.47,50Z"/><path class="cls-5" d="M104.79,61.57S104.22,75,97.52,83C96.59,84.07,88.17,85,88.17,85L93.54,92c4.35,5.62,12,14.63,18.9,16.21,3.93.89,10.12-.91,13.51-1l3.45-7.87L123,93c.21-1.7,4.4-12.89,4.4-12.89"/><path class="cls-25" d="M135.17,153.15s14.88-.35,14.5-2.2a91.9,91.9,0,0,1-2.13-20.69c0-11.49-3.63-20-6.35-23.81S123.8,93.76,123.8,93.76s7,12.3-8.39,10.15-18.6-20.53-18.6-20.53l-13.28,2.3C72.24,88.74,59.82,93.3,55.2,105.59l-2.85,30.84-6.83,30.43S36.37,175.18,26,196.54c0,0,7.72,4.24,34.29,12.76,22.11,7.08,49.22.41,49.22.41,0-10.55,6.37-28.83,7.71-30.74s4-2.76,6.08-3.66a21.55,21.55,0,0,0,6.28-4.43c3.93-3.65,4.94-10.13,5.32-15.19"/><path class="cls-5" d="M74.26,102.3c4,1.1,5.2,9.79,5.2,9.79,6.8,17,1,64.77,1,64.77v.24a71.19,71.19,0,0,1,12.85,4.34l40.09,15.72-1,10.21c-18.77.14-38.31.34-61.1-5.87C63.81,199.44,56.06,194.2,56,184c0-5.2-.08-47.15-.76-49.43a72.34,72.34,0,0,0,1.6-19.1C56.47,103.88,66.31,100.12,74.26,102.3Z"/><path class="cls-5" d="M125.75,195.23l1.19,8,3.74,2.71s7.81,5.76,10.89,5.42a88,88,0,0,1,9-.15,3.67,3.67,0,0,0,2,5l3.2-4.79c.88,2.21,2.89.54,2.89.54l2.33-4.21c1,2.79,3.62.69,3.62.69l1.35-5.9a9,9,0,0,0,2.73,2.38c1.37.64,1.83-1.7,1.83-1.7l-5.16-9.17-14-4.11L129,195.42Z"/><path class="cls-6" d="M155.39,195.16a27.27,27.27,0,0,1,3.22,1.22,20.45,20.45,0,0,1,2.94,1.52c.81.51,1.9,1.12,2.1,2.13a10.1,10.1,0,0,1,.1,1.74,5.27,5.27,0,0,1-.28,1.76c0,.12.63.05.68-.13a5.58,5.58,0,0,0,.29-1.67,13,13,0,0,0-.08-1.76c-.16-1.07-1.2-1.68-2-2.22a20.83,20.83,0,0,0-3.14-1.64A26.24,26.24,0,0,0,156,194.9a.74.74,0,0,0-.48.09c-.06,0-.23.13-.08.17Z"/><path class="cls-6" d="M80.45,176.66a8.57,8.57,0,0,0-4.75,3.05,12.2,12.2,0,0,0-1.81,5.11c0,.31,1,.13,1.08-.17a12.72,12.72,0,0,1,1.57-4.77,6.88,6.88,0,0,1,4-2.81c.12,0,.54-.16.49-.35s-.5-.09-.6-.06Z"/><path class="cls-25" d="M80.55,89.52s-18.87,1.35-23.93,12.24-4.56,34.76-4.56,34.76,23.38,2.88,35.36-.37S80.55,89.52,80.55,89.52Z"/><path class="cls-26" d="M73,95.34c3.55-.09,6.78,2.55,8.9,5.16a30.6,30.6,0,0,1,4.68,8.88c1.91,5.34,2,10.87,1.8,16.48-.12,3.75-.24,7.5-.13,11.26l.57-.38-3.94.15c-.54,0-.82.67-.12.64l3.94-.15c.17,0,.58-.15.58-.37-.19-6.51.58-13.06.07-19.55a31.93,31.93,0,0,0-1.94-8.85,29.23,29.23,0,0,0-5-9.1c-2.35-2.65-5.58-4.9-9.24-4.82-.54,0-.82.66-.12.65Z"/><path class="cls-25" d="M133.81,100.58s11.95,6.16,9.84,25.71-1.54,24.23-1.54,24.23l-18.65-.22Z"/><path class="cls-24" d="M160.47,48.4S167.29,25.57,149,20.2a36.22,36.22,0,0,0-24.73-9.54c-15.29.17-26.57,7.57-34,33S160.47,48.4,160.47,48.4Z"/><path class="cls-24" d="M100.2,42.85c1.32,6.86,6.35,12.78,12.34,16.83s12.9,6.57,19.72,9.05L140.75,71c5.07-3.29,10.1-4.89,13.73-9.62a46.48,46.48,0,0,0,6.14-13.57c1.27-4.64-.25-10.86-1.49-15.56A18,18,0,0,0,152,22.51c-3.42-2.5-5.18-4.41-10.51-6.43a33,33,0,0,0-27.69,1.73C105.13,22.34,98.37,33.29,100.2,42.85Z"/><path class="cls-6" d="M123.93,90.58a33.85,33.85,0,0,0-3.81-2.6c-1.88-1-5.35-1.83-12.73-11.84,0,0,.4,10.07,11.73,15.13a10.12,10.12,0,0,0,4.12,1.2Z"/><path class="cls-5" d="M155.83,48.31a17.61,17.61,0,0,1-1.27,7.34c-1.48,3.86-3.51,8.08-4.21,9.73a37.09,37.09,0,0,0-1.65,5.36,18.2,18.2,0,0,1-3.12,7.57,23.89,23.89,0,0,1-6.16,6.74c-2.92,2.31-6.51,4-9.94,5.59-2.26,1.08-2.67,1.17-7.34-.37-6.87-2.27-12.25-8-15-14.1l-2.83-9.1.3-3.5c-4.79,2.41-5.19-3.87-4.68-4.86-.48-2.64-2.08-11.69,1.83-13.65l.32-.27c1.58-.64,3.26-.33,3.66,1.7.08.86.23,1.67.3,2.52a20.82,20.82,0,0,0,1,3.9,53.12,53.12,0,0,0,2.66-6.18c.59-2,3.95-7.38,8.36-9,0,0,2.37-7.11,4.66-8.68l.62,0c.33.12.51.3.85.42,0-.11,0-.25,0-.46a3.64,3.64,0,0,0,1.4.6c-.07-.14-.26-.32-.22-.43a5.59,5.59,0,0,0,1.32.46c-.07-.14-.22-.43-.18-.54.48.41.88.31,1.32.47a.84.84,0,0,1-.07-.5,3.08,3.08,0,0,0,1.28.57c-.07-.15-.11-.4-.18-.54.48.4.88.31,1.32.46.11,0-.14-.29-.11-.39a4.48,4.48,0,0,0,1.07.49c0-.11-.15-.29-.11-.4.58.45,1,.35,1.43.5l-.18-.53a1.6,1.6,0,0,0,1.24.67c-.07-.14-.22-.43-.18-.54a2.22,2.22,0,0,0,1.69.83c-.11,0-.22-.43-.18-.54.4.62.88.67,1.43.86a6.1,6.1,0,0,0-.26-.68,2.3,2.3,0,0,0,2,1c-.09,0-.1-.31-.08-.45s0-.24.25-.2c0,0,1.12.87,1.16.76.33.47-.54-2.19,0-2,0-.25,3.09,1.3,3,1,.4.62.36.36,1.06.49,0,0,1.85,2.06,1.78,1.91a.69.69,0,0,0,.48.45S152.39,42.38,155.83,48.31Z"/><path class="cls-27" d="M102.45,62a2.74,2.74,0,0,0-3.24,1.7,2.12,2.12,0,0,0,1,2.57,2.69,2.69,0,0,0,2.18.3c.06,0,.25-.08.22-.17s-.22-.06-.28,0a2.3,2.3,0,0,1-2.34-.88,2.22,2.22,0,0,1,.4-2.84,2,2,0,0,1,1.79-.39c.14,0,.58-.18.31-.25Z"/><path class="cls-14" d="M119.62,37l-2.84,3.23a52.08,52.08,0,0,0-8.13,12.52l-.6,1.29a.41.41,0,0,1-.79-.07L106.11,49S110.61,34.32,119.62,37Z"/><path class="cls-11" d="M104,51.67a3,3,0,0,0-2.16,1.83,5,5,0,0,0-.62,2.78c.06.73.41,2.52,1.5,2.3.86-.16,1.06-1.09,1-1.82a13.09,13.09,0,0,1,0-1.4c.07-.59.44-.52.93-.35.16.05.41,0,.39-.24a26,26,0,0,0-.76-5c-.22-.82-.53-1.8-1.43-2.09-1.12-.37-2,.77-2.36,1.65a7,7,0,0,0-.34,4.32c.06.22.55.09.5-.14a6.94,6.94,0,0,1,0-3.14c.23-1,1.26-3.35,2.5-2a4.68,4.68,0,0,1,.79,2c.2.91.34,1.84.45,2.76.06.55.12,1.1.16,1.65l.4-.24c-.56-.18-1.35-.31-1.64.36a6.39,6.39,0,0,0-.06,2,1.42,1.42,0,0,1-.31,1c-.44.44-.79-.24-1-.61a4.33,4.33,0,0,1,0-3.11c.34-.86.94-2.22,2-2.31.28,0,.38-.4,0-.36Z"/><path class="cls-24" d="M110.29,28.19c3-8.1,16.86-6.49,23.91-5,4.52,1.09,10.34,7,13.75,10.22,1.47-.88-13.19,8.9-38.38,6.48l-1.38,6S107.28,36.28,110.29,28.19Z"/><path class="cls-14" d="M140.93,62.68s3.07-1.66,4.86-1.4a8.26,8.26,0,0,1,6,3.43,16.35,16.35,0,0,0-6-2.39A19.12,19.12,0,0,0,140.93,62.68Z"/><path class="cls-14" d="M127.73,54.61a2.23,2.23,0,0,0-2.08-.52,1.82,1.82,0,0,0-.71.59,1.69,1.69,0,0,0-.08,1.6,1.59,1.59,0,0,0,1.64.86,1.78,1.78,0,0,0,1.44-1.68c0-.14.2-.33-.22-.76"/><path class="cls-14" d="M148.68,62.74a2.23,2.23,0,0,0-2.08-.52,1.69,1.69,0,0,0-.71.59,1.72,1.72,0,0,0-.09,1.6,1.59,1.59,0,0,0,1.64.86,1.74,1.74,0,0,0,1.44-1.68c0-.14.2-.33-.22-.75"/><path class="cls-14" d="M131.24,58.61s-1.63-4.25-4.57-5.32a37.19,37.19,0,0,0-7.27-1.58s5.33,2,6.89,2.56S131.24,58.61,131.24,58.61Z"/><path class="cls-14" d="M135.37,51.86c0-.06-.24-.19-.2-.25a35.93,35.93,0,0,0-8.39-4.69,10.64,10.64,0,0,0-3-.4,14.09,14.09,0,0,0-3.22.24c-.46.28,1.49.44,1.49.44a9.81,9.81,0,0,1,1.08.21,28.12,28.12,0,0,1,6.22,2.23,37.06,37.06,0,0,1,5.08,4.14A18.73,18.73,0,0,1,135.37,51.86Z"/><path class="cls-14" d="M154.13,60.46l0-.22h0a10.57,10.57,0,0,0-1.56-1.13,36.19,36.19,0,0,0-8.85-2.91c-.3.76-.38,1-.69,1.73a23.29,23.29,0,0,1,5.08,1,35.44,35.44,0,0,1,5.8,2.28c.11-.14,0,0,.08-.16a1.89,1.89,0,0,0,.13-.33C154.11,60.66,154.12,60.56,154.13,60.46Z"/><path class="cls-28" d="M130.06,77c-1.4-.53-5.58-2.41-5.58-2.41s.94,2.15,5.15,3.76,6.13.61,6.13.61Z"/><path class="cls-14" d="M139,69.91c0,.51,0,1,0,1.54a7,7,0,0,1-.15,1.84c-.24.74-1.36.71-2,.63a12.08,12.08,0,0,1-2.32-.56A7.09,7.09,0,0,1,131.82,72c-.11-.12-.43,0-.3.15a6.58,6.58,0,0,0,2.39,1.35,12.47,12.47,0,0,0,2.68.71,2.67,2.67,0,0,0,2.25-.43,2.26,2.26,0,0,0,.41-1.61c0-.75.05-1.49.06-2.23,0-.19-.33-.15-.34,0Z"/><path class="cls-14" d="M130.09,68.63a1.77,1.77,0,0,0-1.38.29,1.69,1.69,0,0,0-.62,1.34c.08.54.59.88,1,1.12a5.45,5.45,0,0,0,1.62.6.58.58,0,0,0,.26,0s.13-.08.05-.09a4.61,4.61,0,0,1-1.35-.47,2.48,2.48,0,0,1-1.11-.83,1.23,1.23,0,0,1,.09-1.25,1,1,0,0,1,1.09-.53.4.4,0,0,0,.26-.05s.13-.07.05-.08Z"/><path class="cls-26" d="M139.07,135.72c-1.42,1.17-2.16,3.19-2.76,4.87a18.83,18.83,0,0,0-1.24,5.06c-.14,2.37-.14,4.75-.2,7.12,0,.55,1,.42,1-.07.07-2.33.09-4.67.2-7a17.11,17.11,0,0,1,1-4.45c.55-1.65,1.24-3.87,2.64-5,.53-.44-.28-.84-.69-.5Z"/><path class="cls-6" d="M147.15,168.56c-2.45,2.08-5.92,5.09-4.77,8.71.13.41,1.2.11,1.07-.29-1.09-3.43,2.26-6.24,4.57-8.2.19-.15.09-.36-.11-.42a.87.87,0,0,0-.76.2Z"/><path class="cls-6" d="M132.44,294.45c-6,21.85-11.72,43.79-17.55,65.69a74.23,74.23,0,0,0-2.56,11c-.26,2.36,1.88,4.63,3.67,5.95,5.4,4,10.89,7.87,16.52,11.51a58,58,0,0,0,10,5.7,8,8,0,0,0,3.11.47c2.22,0,6.07.47,5.4,3.69-.06.29.91.14,1-.15.39-1.9-1.05-3.31-2.76-3.71a38.88,38.88,0,0,0-4.54-.3,10.65,10.65,0,0,1-3.19-1.25c-1.59-.79-3.13-1.7-4.65-2.63-6.43-3.92-12.6-8.3-18.68-12.74a13.63,13.63,0,0,1-4.46-4.57c-.76-1.46-.35-2.89,0-4.42.42-2,.92-4,1.44-6,2.18-8.47,4.47-16.91,6.71-25.37,3.79-14.35,7.59-28.7,11.55-43,.07-.28-.89-.14-1,.14Z"/><path class="cls-5" d="M237.55,172.07C231,183.54,226.65,207.9,215,212.2c-14.41,5.33-53.13.15-53.13.15L165,201.71l40.14-7.06s12.54-35,14.66-40.09c0,0,5.67-17.56,16.63-9.34"/><path class="cls-6" d="M205.14,194.72a7.75,7.75,0,0,1,4.55,4.84c.06.19.88,0,.82-.23a7.91,7.91,0,0,0-4.7-4.94.88.88,0,0,0-.57.1c-.09,0-.27.16-.1.23Z"/><path class="cls-6" d="M167.92,197c-.15-2.43-2.52-3.38-4.44-4.09-2.52-.93-5.12-1.69-7.71-2.42a11.05,11.05,0,0,0-4-.73,13.4,13.4,0,0,0-2,.59l-3.58,1.09-11,3.31-.76.22c.29-.09.4.09.11-.07a10.85,10.85,0,0,0-1.68-.51l-6.58-2-12.5-3.85c-.34-.11-1.09.39-.55.56l10.25,3.16,7.17,2.21a20.37,20.37,0,0,0,3.54,1.09,4,4,0,0,0,1.39-.31l3.59-1.08,3.85-1.16L150,190.9c.62-.19,1.23-.41,1.85-.57-.39.1-.32,0,0,.06a8.55,8.55,0,0,0,.86.14c.4.07.81.12,1.21.2,2.2.49,4.38,1.24,6.52,1.93,2.3.75,6.31,1.56,6.5,4.62,0,.35.95.15.93-.25Z"/><path class="cls-7" d="M224.9,130.15s15.57,1.32,16.28,18.53a85.24,85.24,0,0,1-4.32,30.56s-18-3.72-25.5-6.58,10.95-43.08,10.95-43.08"/><path class="cls-15" d="M212.68,173l-3.24-1.51a7.19,7.19,0,0,0-.75-.34c-.22-.08-.31-.25-.25,0a1.37,1.37,0,0,1,.12-.44c.86-2.12,1.31-4.52,2-6.72,1.13-3.65,2.33-7.28,3.67-10.85a43.72,43.72,0,0,1,4.21-9.1c1.77-2.65,5-5.73,8.56-5.22.25,0,1.14-.38.62-.45a9,9,0,0,0-5.05,1.07c-3.08,1.55-5.12,4.4-6.61,7.42-3,6.09-5,12.72-7,19.21-.53,1.74-1.05,3.48-1.53,5.23,0,.08,0,.11.09.14l4.33,2c.23.11,1.14-.26.8-.41Z"/><path class="cls-15" d="M234.31,179.25a12.74,12.74,0,0,0,2.66.57c.18,0,.74-.06.8-.28,1.14-3.64,2.88-7.19,3-11.07,0-.14-1,0-1,.26-.13,3.85-1.87,7.37-3,11l.81-.29c-.06,0,0,0-.06,0l-.43-.07c-.68-.13-1.34-.3-2-.48a1.1,1.1,0,0,0-.69.13c-.08.05-.34.19-.12.25Z"/><path class="cls-6" d="M152.05,181.11a2.64,2.64,0,0,1,1.81,1.33,7.79,7.79,0,0,1,.81,2.68c0,.24.87,0,.82-.22a7.57,7.57,0,0,0-.9-2.83,3,3,0,0,0-2-1.38.81.81,0,0,0-.58.16c-.12.11-.1.23.07.26Z"/><path class="cls-29" d="M130.56,76.66c-2.92-1.13-7.48-3.38-7.48-3.38s-2.35,8,4.41,10.64,9.69-5.17,9.69-5.17A67.54,67.54,0,0,1,130.56,76.66Z"/><path class="cls-30" d="M130.58,76.67c-1.38-.54-6.86-3-6.86-3a7.75,7.75,0,0,0,4.89,7.13c5.43,2.13,8.21-1.93,8.21-1.93Z"/><path class="cls-28" d="M130.55,76.94c-1.39-.54-5.5-2.46-5.5-2.46s.82,2.39,5,4,6.16.39,6.16.39Z"/><path class="cls-29" d="M137.63,78.7c-.13-.1.16,0-.5-.28-1.1-.57-1.68-1.21-2.48-1.61-1.37-.68-2.53-.37-3.14-.61s-1.26-1.25-2.73-1.68c-.86-.25-3.06-.69-4.25-1a9,9,0,0,1-1.56-.85c-.23,0-.53,1.92,7.23,4.94S137.81,78.84,137.63,78.7Z"/><path class="cls-31" d="M194.83,114.34c2.58.49,7.09,1,7.09,1s-2.1,6.26-8.08,5.12-4.68-7.43-4.68-7.43S192.25,113.85,194.83,114.34Z"/><path class="cls-30" d="M194.81,114.34l6.44,1.26a7.07,7.07,0,0,1-6.84,2.35c-4.81-.91-5-4.81-5-4.81Z"/><path class="cls-28" d="M194.71,114.53l5.23,1s-1.86.93-5.53.23-4.57-2.38-4.57-2.38Z"/><path class="cls-31" d="M188.89,112.67c.14,0-.14,0,.48,0,1,.1,1.72-.08,2.47,0a9.61,9.61,0,0,1,2.51.94,10.08,10.08,0,0,1,2.68,0c.73.21,2.65,1,3.64,1.27.6.17,1.44.23,1.56.3s-.69,1.18-7.55-.12S188.7,112.69,188.89,112.67Z"/><path class="cls-5" d="M144.24,199c2.39,1.29,5.61,3,6.06,2.85s3.55-.46,6.26-.74a2.53,2.53,0,0,0,2.38-2.67c0-.36-6.57-1.66-5.87-4.61l5.72-.08a22,22,0,0,1,5.4,1.42c2.1,1,7.08,5.81,7.08,5.81l7.28-.27,1.65,12.37-9.19-.52-6.88,2.11s-13.24,1-14.89-.05-3.6-4.85-3.6-4.85c-2.37-1-2.74-4.5-2.74-4.5-3.37-2.9-.64-3.65-.64-3.65a.82.82,0,0,1-.33-.31A1.71,1.71,0,0,1,144.24,199Z"/><path class="cls-6" d="M153.49,215.1a5.43,5.43,0,0,1-5.51-2.4,22.85,22.85,0,0,1-1.59-2.53c-.33-.6-.61-.62-1.16-1.08a5.32,5.32,0,0,1-1.54-2.52,9.18,9.18,0,0,0-.32-1.42c-.46-.83-1.69-1.3-1.69-2.42A1.12,1.12,0,0,1,142,202c.07-.09.45-.26.29-.21,0,0,.55-.18.41-.28a1.3,1.3,0,0,1,1.1-2.31,14,14,0,0,1,2.42,1.28,12.3,12.3,0,0,0,3.51,1.58,15.37,15.37,0,0,0,3.22-.37,19.64,19.64,0,0,0,4.54-.62,3.07,3.07,0,0,0,1.27-.85c.27-.31.91-1.37.64-1.86s-1.23-.55-1.58-.68c-1.63-.61-4.7-1.68-4.29-3.93l-.77.3c1.78,0,3.56-.11,5.34-.07a15.14,15.14,0,0,1,8.92,3.38c.18.15,1-.22.87-.31a15.78,15.78,0,0,0-9-3.43c-1.85-.06-3.71.05-5.56.08-.18,0-.72.07-.76.3-.41,2.2,2.54,3.3,4.14,3.91.43.17,1.45.31,1.73.7s-.22,1.23-.43,1.53a2.59,2.59,0,0,1-2.15.93l-2.93.32c-1.23.15-2.25.48-3.39,0-1.57-.67-3.05-1.53-4.57-2.31a2.71,2.71,0,0,0-2.8,0c-.92.57-1.44,2-.39,2.71l.41-.28c-1,.28-1.77,1-1.34,2a5.48,5.48,0,0,0,1.23,1.56c.38.45.26.29.4.78a7.88,7.88,0,0,0,1.23,2.89c.57.71,1.32.95,1.76,1.74a20,20,0,0,0,2,3,5.77,5.77,0,0,0,5.56,1.88c.22,0,1-.42.41-.33Z"/><path class="cls-6" d="M142,201.63c1.1.72,2,1.7,3.05,2.45a11.47,11.47,0,0,0,3.14,1.59A11.21,11.21,0,0,0,152,206c1.4-.07,2.75-.48,4.15-.52.16,0,.91-.32.53-.31-1.26,0-2.45.36-3.7.48a10.22,10.22,0,0,1-4.4-.38,12.37,12.37,0,0,1-3-1.59c-1-.73-1.82-1.64-2.86-2.32-.18-.12-.85.21-.76.27Z"/><path class="cls-6" d="M142.5,205.42c2.47.92,4.35,3.19,7,3.72a12.59,12.59,0,0,0,4,0,16.53,16.53,0,0,0,2.51-.46c.46-.13.41-.36-.06-.23a13.34,13.34,0,0,1-2.34.41,9,9,0,0,1-4.2-.22c-2.2-.82-3.89-2.65-6.1-3.47a.82.82,0,0,0-.51,0s-.37.18-.25.22Z"/><path class="cls-6" d="M145.57,209.92c-.1,0-.24-.07-.19,0s.11.09.15.12l.35.29c.37.29.75.58,1.14.84a6,6,0,0,0,2.33,1.16,10.29,10.29,0,0,0,1.36,0h1.36a17.52,17.52,0,0,1,2.71.14c.2,0,.93-.3.51-.37a17.3,17.3,0,0,0-2.59-.14h-1.4a5.67,5.67,0,0,1-1.65-.06,9.65,9.65,0,0,1-2.58-1.54c-.37-.28-.85-.91-1.37-.82-.1,0-.45.09-.47.24s.24.12.34.11Z"/></g></g></svg>